/* XPM */
const char *icon_bond_calculate[] = {
/* columns rows colors chars-per-pixel */
"24 24 77 1",
"  c gray22",
". c #3A3A3A",
"X c gray25",
"o c gray28",
"O c #494949",
"+ c gray29",
"@ c gray32",
"# c gray36",
"$ c gray37",
"% c #606060",
"& c gray40",
"* c #6A6A6A",
"= c gray42",
"- c #767676",
"; c #797979",
": c #FF0707",
"> c #FF0A0A",
", c #FF1414",
"< c #FF1717",
"1 c #FF1919",
"2 c #FF1A1A",
"3 c #FF2525",
"4 c #FF2727",
"5 c #FF2F2F",
"6 c #FF4646",
"7 c #FF5050",
"8 c #FF5C5C",
"9 c #FF7777",
"0 c gray53",
"q c #888888",
"w c gray55",
"e c #989898",
"r c gray60",
"t c #9A9A9A",
"y c gray65",
"u c #A7A7A7",
"i c #B4B4B4",
"p c #FF9999",
"a c #FFA4A4",
"s c #C1C1C1",
"d c #CDCDCD",
"f c gray81",
"g c gray82",
"h c gray83",
"j c gray84",
"k c #D7D7D7",
"l c #D8D8D8",
"z c #DADADA",
"x c gainsboro",
"c c gray87",
"v c #DFDFDF",
"b c #FFC7C7",
"n c #FFCCCC",
"m c #FFD1D1",
"M c #FFD6D6",
"N c gray88",
"B c #E1E1E1",
"V c #EAEAEA",
"C c gray92",
"Z c gray93",
"A c #EFEFEF",
"S c #FFE6E6",
"D c #FFE7E7",
"F c gray94",
"G c gray96",
"H c #F6F6F6",
"J c gray97",
"K c #FFF0F0",
"L c #FFF5F5",
"P c #F9F9F9",
"I c gray98",
"U c #FFFBFB",
"Y c gray99",
"T c #FFFCFC",
"R c #FEFEFE",
"E c #FFFEFE",
"W c none",
/* pixels */
"WWWWWWPPWWWWWWWWWWWWWWWW",
"WWWWWAghJWWWWWWWWWWWWWWW",
"WWWWPfABhWWWWWWWWWWWJJWW",
"WWWWPhxhxWWWWWWWWWWWewPW",
"WWWWWJxBIWWWWWWWWWWf.yWW",
"WWWWWWWWWWWWWWWWWWA#*JWW",
"WWWPPWWWWWWWWWWWWWtXhWWW",
"WWAghJWWWWWWKWWWWf.yWWWW",
"WJfABhWWWWWM4aWWJ#*JWWWW",
"WPgBhxWWWWWn>5SWA+yWWWWW",
"WWJxBWWWWWWm<49WP;@VWWWW",
"WWWWWWWWWWWm177IWx+0PWWW",
"WWWWWWPPWWWm,1pWWWi.iWWW",
"WWWWWAghJWWb:6LWWWP;@VWW",
"WWWWPfABhWWS8bWWWWWB+wWW",
"WWWWPgBhxWWWWWWWWWWW-&WW",
"WWWWWJxBWWWWWWWWWWWf.yWW",
"WWWWWWWWWWWWWWWWWWF%*JWW",
"WWWPPWWWWWWWWWWWWWe.hWWW",
"WWAghJWWWWWWWWWWWd yWWWW",
"WJfAxlWWWWWWWWWWJ%*JWWWW",
"WPgBlxWWWWWWWWWWJtlWWWWW",
"WWJxxWWWWWWWWWWWWWWWWWWW",
"WWWWWWWWWWWWWWWWWWWWWWWW"
};
