/* XPM */
const char *xpm_bond_calculate[] = {
/* columns rows colors chars-per-pixel */
"24 24 94 2",
"   c #393939",
".  c #3A3A3A",
"X  c gray24",
"o  c gray25",
"O  c #414141",
"+  c gray26",
"@  c #444444",
"#  c #464646",
"$  c #505050",
"%  c gray32",
"&  c gray33",
"*  c #585858",
"=  c gray35",
"-  c gray37",
";  c #626262",
":  c gray40",
">  c #6C6C6C",
",  c #6D6D6D",
"<  c gray43",
"1  c #6F6F6F",
"2  c #727272",
"3  c #747474",
"4  c #797979",
"5  c gray48",
"6  c #7C7C7C",
"7  c #FF0707",
"8  c #FF0A0A",
"9  c #FF1414",
"0  c #FF1717",
"q  c #FF1919",
"w  c #FF1A1A",
"e  c #FF2525",
"r  c #FF2727",
"t  c #FF2F2F",
"y  c #FF4646",
"u  c #FF5050",
"i  c #FF5C5C",
"p  c #FF7777",
"a  c gray51",
"s  c gray52",
"d  c gray53",
"f  c #898989",
"g  c #939393",
"h  c #959595",
"j  c gray59",
"k  c #979797",
"l  c #9B9B9B",
"z  c #9D9D9D",
"x  c gray63",
"c  c #A4A4A4",
"v  c gray65",
"b  c #AEAEAE",
"n  c #B1B1B1",
"m  c #FF9999",
"M  c #FFA4A4",
"N  c #C1C1C1",
"B  c #C3C3C3",
"V  c #C8C8C8",
"C  c gray79",
"Z  c #CDCDCD",
"A  c gray84",
"S  c #D7D7D7",
"D  c #D8D8D8",
"F  c gray85",
"G  c #DADADA",
"H  c #FFC7C7",
"J  c #FCCFCF",
"K  c #FFCCCC",
"L  c #FED0D0",
"P  c #FFD1D1",
"I  c #FFD6D6",
"U  c #E1E1E1",
"Y  c #E4E4E4",
"T  c #E6E6E6",
"R  c #E7E7E7",
"E  c #EAEAEA",
"W  c gray93",
"Q  c #EFEFEF",
"!  c #FFE6E6",
"~  c #FFE7E7",
"^  c gray94",
"/  c #F3F3F3",
"(  c #F4F4F4",
")  c gray96",
"_  c gray97",
"`  c #FFF0F0",
"'  c #FFF5F5",
"]  c gray98",
"[  c #FFFBFB",
"{  c gray99",
"}  c #FFFCFC",
"|  c #FEFEFE",
" . c #FFFEFE",
".. c none",
/* pixels */
"............Q 5 x s z ............G + N ( ( ( ( ",
"..............R h x ( ..........] 5 > ] ........",
"................................C   C ..........",
"..........Q Q ................] > > ] ..........",
"........Z 2 5 R ..............G   b ............",
"......R > C z s ] ..............> > ] ..........",
"......Q 5 x s l ................Z + C ..........",
"........R h c ( ........` ........f > ] ........",
"................Q Q ..I e M ......R % n S S S S ",
"..............C 2 5 T J 8 t ! ......3 + & % & & ",
"............R > V z s J 0 e p ....G + h ( ( ( ( ",
"............Q 5 x s l J w u u ] ] 5 & Q ........",
"..............R h c ( J 0 0 m ..N   N ..........",
"..Q Q ......Q Q ......H 7 y ' ( = 2 ] ..........",
"Z 2 5 R ..C 2 5 R ....! i H .._ g ; C ..........",
"> C z s R > C z s ................> - ^ ........",
"5 x s l Q 5 x s l ................S X c ........",
"R h c ( ..R h x ( ..................h # G ......",
"................Q Q ................E $ 6 ......",
"..............Z 2 3 R ................5 : ......",
"............R > C z s ..............G + z ......",
"Q Q ........Q 5 x s z ............] 5 & ^ ......",
"> 5 R ......Q S h c ( ............N   N ........",
"C z s ....Z 2 5 R ..............( = 5 ] ........"
};
