/* XPM */
const char *icon_draw_atoms[] = {
/* columns rows colors chars-per-pixel */
"24 24 72 1",
"  c gray4",
". c gray9",
"X c gray10",
"o c #1B1B1B",
"O c gray11",
"+ c gray13",
"@ c #222222",
"# c gray15",
"$ c #272727",
"% c #2A2A2A",
"& c #2F2F2F",
"* c #373737",
"= c gray22",
"- c #393939",
"; c gray23",
": c gray26",
"> c #515151",
", c gray33",
"< c gray34",
"1 c #585858",
"2 c gray37",
"3 c gray38",
"4 c #656565",
"5 c gray40",
"6 c #6D6D6D",
"7 c gray43",
"8 c gray44",
"9 c #717171",
"0 c #767676",
"q c #7C7C7C",
"w c #8B8B8B",
"e c #909090",
"r c #929292",
"t c #979797",
"y c gray63",
"u c #A4A4A4",
"i c gray65",
"p c gray67",
"a c #AFAFAF",
"s c gray71",
"d c gray72",
"f c #C0C0C0",
"g c gray78",
"h c #C8C8C8",
"j c gray79",
"k c gray80",
"l c #CECECE",
"z c gray82",
"x c LightGray",
"c c #D7D7D7",
"v c #D8D8D8",
"b c gray85",
"n c gray86",
"m c gray87",
"M c #DFDFDF",
"N c #E4E4E4",
"B c gray90",
"V c #E6E6E6",
"C c #E7E7E7",
"Z c gray91",
"A c gray92",
"S c #EEEEEE",
"D c #F1F1F1",
"F c gray95",
"G c gray96",
"H c #F6F6F6",
"J c gray97",
"K c #F9F9F9",
"L c #FBFBFB",
"P c gray99",
"I c #FEFEFE",
"U c none",
/* pixels */
"UUUUUUUUUUUUUUUUUUUUUUUU",
"UUUUUUUUUUUUUUUUUUUUUUUU",
"UUUUUUUUUUUUUUUUUUUUUUUU",
"UUUUUUUJJUUUUUUUUULMMUUU",
"UUUUUUbjjNUUUUUUUF9+$tUU",
"UUUUUbjANgkzzzzzM6$aeOtU",
"UUUUFgAUUM6;;;;;9oaUUq:J",
"UUUUJjNUUckFFFFFb+wLF2>L",
"UUUUUNgMcgNUUUUUUtoq2$fU",
"UUUUUUAcbz$uUUUUULt55fUU",
"UUUUUUUUUk &NUUUUUUUUUUU",
"UUUUUUUUUz.$0LUUUUUUUUUU",
"UUUUUUUUUzowOdUUUUUUUUUU",
"UUUUUUUUUzoj5;NUUUUUUUUU",
"UUUUUUUUUz.ps$6UUUUUUUUU",
"UUUUUUUUUS<*;%<UUUUUUUUU",
"UUULMMUUUUJN>eJUUUUUUUUU",
"UUF6++tLUUULypUUUUUUUUUU",
"UL6$swoyUUUUUUUUUUUUUUUU",
"UcoaULq:JUUUUUUUUUUUUUUU",
"UM+eLF2>LUUUUUUUUUUUUUUU",
"UUtoq2%dUUUUUUUUUUUUUUUU",
"UULy35fUUUUUUUUUUUUUUUUU",
"UUUUUUUUUUUUUUUUUUUUUUUU"
};
