/* XPM */
const char *xpm_draw_atomchain[] = {
/* columns rows colors chars-per-pixel */
"24 24 72 1",
"  c gray4",
". c gray9",
"X c #191919",
"o c gray10",
"O c gray11",
"+ c #252525",
"@ c #272727",
"# c #2A2A2A",
"$ c #2F2F2F",
"% c #373737",
"& c gray22",
"* c #393939",
"= c #3A3A3A",
"- c gray25",
"; c gray26",
": c #535353",
"> c gray33",
", c gray34",
"< c #585858",
"1 c gray35",
"2 c #5A5A5A",
"3 c #5B5B5B",
"4 c gray38",
"5 c gray40",
"6 c #6D6D6D",
"7 c gray46",
"8 c #767676",
"9 c #818181",
"0 c #8B8B8B",
"q c #8E8E8E",
"w c #929292",
"e c gray59",
"r c gray63",
"t c #A4A4A4",
"y c gray65",
"u c gray66",
"i c gray67",
"p c gray71",
"a c #B6B6B6",
"s c gray72",
"d c #BBBBBB",
"f c gray74",
"g c #C0C0C0",
"h c #C1C1C1",
"j c gray78",
"k c #C8C8C8",
"l c gray79",
"z c gray80",
"x c gray81",
"c c #D0D0D0",
"v c gray82",
"b c gray83",
"n c #D7D7D7",
"m c #D8D8D8",
"M c gray85",
"N c gray86",
"B c #DFDFDF",
"V c gray89",
"C c #E4E4E4",
"Z c #E6E6E6",
"A c #E7E7E7",
"S c gray91",
"D c gray92",
"F c gray93",
"G c #EEEEEE",
"H c #F6F6F6",
"J c gray97",
"K c #F9F9F9",
"L c gray99",
"P c #FDFDFD",
"I c #FEFEFE",
"U c none",
/* pixels */
"UUUUUUUUUUUUUUUUUUUUUUUU",
"UUUUUUUUUUUUUUUUUUUUUUUU",
"UUUUUUUUUUUUUUUUJJUUUUUU",
"UUUUUUUUUUUUUUUNjjVUUUUU",
"UUUUUUUUUUUUUUNjGVjSUUUU",
"UUUUUUUUUUUUUVdSUUBxJUUU",
"UUUUUUUUUUxe3%7VUJbbUUUU",
"UUUUUUUUUB;3ejNjBNfGUUUU",
"UUUUUUUUUxoxUUUSNp+eUUUU",
"UUUUUUUUUxOxUUUUUx $SUUU",
"UUUUUUUUUxoxUUUUUx.+7UUU",
"UUUUUUUUUxoxUUUUUxo0OdUU",
"UUUUUUUJh>4GUUUUUxox5=VU",
"UUUUUJh3=qVUUUUUUx.ip#6U",
"UUUUh3=qVUUUUUUUUG3==#>U",
"UUUB;9VUUUUUUUUUUUJV>qJU",
"UUUxobUUUUUUUUUUUUUUeyUU",
"UUUxoxUUUUUUUUUUUUUUUUUU",
"UUUxOxUUUUUUUUUUUUUUUUUU",
"UUUxoxUUUUUUUUUUUUUUUUUU",
"UUUGuGUUUUUUUUUUUUUUUUUU",
"UUUUUUUUUUUUUUUUUUUUUUUU",
"UUUUUUUUUUUUUUUUUUUUUUUU",
"UUUUUUUUUUUUUUUUUUUUUUUU"
};
