/* XPM */
const char *icon_translate_up[] = {
/* columns rows colors chars-per-pixel */
"16 16 60 1",
"  c black",
". c #010101",
"X c #020202",
"o c gray1",
"O c #060606",
"+ c gray4",
"@ c gray5",
"# c #0E0E0E",
"$ c #111111",
"% c #161616",
"& c gray9",
"* c #181818",
"= c #1B1B1B",
"- c #222222",
"; c #272727",
": c #2A2A2A",
"> c gray17",
", c #2C2C2C",
"< c gray19",
"1 c #393939",
"2 c gray25",
"3 c gray29",
"4 c gray30",
"5 c gray32",
"6 c #535353",
"7 c gray34",
"8 c #585858",
"9 c #5A5A5A",
"0 c #5B5B5B",
"q c gray37",
"w c #606060",
"e c gray40",
"r c #717171",
"t c gray49",
"y c gray53",
"u c #8E8E8E",
"i c gray56",
"p c gray57",
"a c #959595",
"s c gray60",
"d c gray61",
"f c #9D9D9D",
"g c gray66",
"h c #ACACAC",
"j c #AFAFAF",
"k c gray70",
"l c #B6B6B6",
"z c gray72",
"x c #C0C0C0",
"c c gray83",
"v c #D5D5D5",
"b c #DDDDDD",
"n c #E4E4E4",
"m c gray91",
"M c #EFEFEF",
"N c #F1F1F1",
"B c gray96",
"V c #F9F9F9",
"C c #FEFEFE",
"Z c none",
/* pixels */
"ZZZZZn,%5VZZZZZZ",
"ZZZZZuXX$zZZZZZZ",
"ZZZZb:X,X5BZZZZZ",
"ZZZZrX1k=OgZZZZZ",
"ZZZc=OgZrX1NZZZZ",
"ZZVeX2NZc=+sZZZZ",
"ZZz##lZZZyX:nZZZ",
"ZV0X7VZZZn:XuZZZ",
"Zg+$zZZZZZuX-cZZ",
"N;X:e077700%X:dZ",
"jXXXXXXXXXXXXX5Z",
"b00du3=#=3ua30lZ",
"ZZZZmt%X%tmZZZZZ",
"ZZZZmt=X%tmZZZZZ",
"ZZZZmt,%,tnZZZZZ",
"ZZZZMpyyypMZZZZZ"
};
