/* XPM */
const char *icon_translate_left[] = {
/* columns rows colors chars-per-pixel */
"16 16 69 1",
"  c black",
". c #010101",
"X c #020202",
"o c gray1",
"O c #060606",
"+ c #090909",
"@ c gray4",
"# c gray5",
"$ c #0E0E0E",
"% c #101010",
"& c #111111",
"* c gray9",
"= c #181818",
"- c #1B1B1B",
"; c #222222",
": c gray15",
"> c #272727",
", c #2A2A2A",
"< c gray17",
"1 c #2C2C2C",
"2 c #2F2F2F",
"3 c gray19",
"4 c #323232",
"5 c #343434",
"6 c gray21",
"7 c #393939",
"8 c gray25",
"9 c #464646",
"0 c #535353",
"q c #555555",
"w c gray34",
"e c #585858",
"r c #5B5B5B",
"t c gray36",
"y c #5F5F5F",
"u c #606060",
"i c gray38",
"p c gray40",
"a c #717171",
"s c gray49",
"d c gray52",
"f c gray53",
"g c gray54",
"h c #8E8E8E",
"j c gray56",
"k c gray57",
"l c gray60",
"z c gray66",
"x c #ACACAC",
"c c #AFAFAF",
"v c gray70",
"b c gray72",
"n c #BBBBBB",
"m c #C0C0C0",
"M c gray76",
"N c gray83",
"B c #D5D5D5",
"V c #DDDDDD",
"C c #E4E4E4",
"Z c gray91",
"A c #EFEFEF",
"S c #F1F1F1",
"D c gray96",
"F c #F8F8F8",
"G c #F9F9F9",
"H c gray98",
"J c #FBFBFB",
"K c #FEFEFE",
"L c none",
/* pixels */
"LLLLLLLLLSxVLLLL",
"LLLLLLLGx>X9LLLL",
"LLLLLGnw+XX4GLLL",
"LLLLBp$X&<XyLLLL",
"LLVa=X$wnyXwZZZA",
"Ch<X+7bGLrX2sssd",
"<XX7zSLLLrX$**<s",
"*X2vLLLLLwXOXX*s",
"w$X=aBLLLwX$*=2s",
"Gn0OX=dCLrX4dddk",
"LLDz7+X<hrXyGGGG",
"LLLLSl<XX=XrLLLL",
"LLLLLLCh;XX>GLLL",
"LLLLLLLLN<X6LLLL",
"LLLLLLLLLmgbLLLL",
"LLLLLLLLLLLLLLLL"
};
