<?xml version="1.0" encoding="UTF-8" standalone="no"?>
<!-- Created with Inkscape (http://www.inkscape.org/) -->
<svg
   xmlns:dc="http://purl.org/dc/elements/1.1/"
   xmlns:cc="http://web.resource.org/cc/"
   xmlns:rdf="http://www.w3.org/1999/02/22-rdf-syntax-ns#"
   xmlns:svg="http://www.w3.org/2000/svg"
   xmlns="http://www.w3.org/2000/svg"
   xmlns:xlink="http://www.w3.org/1999/xlink"
   xmlns:sodipodi="http://sodipodi.sourceforge.net/DTD/sodipodi-0.dtd"
   xmlns:inkscape="http://www.inkscape.org/namespaces/inkscape"
   version="1.0"
   width="100"
   height="100"
   id="svg2"
   sodipodi:version="0.32"
   inkscape:version="0.45.1"
   sodipodi:docname="stack_atomlist.svg"
   sodipodi:docbase="/home/tris/src/aten/src/gui-qt/icons"
   inkscape:output_extension="org.inkscape.output.svg.inkscape">
  <metadata
     id="metadata2566">
    <rdf:RDF>
      <cc:Work
         rdf:about="">
        <dc:format>image/svg+xml</dc:format>
        <dc:type
           rdf:resource="http://purl.org/dc/dcmitype/StillImage" />
      </cc:Work>
    </rdf:RDF>
  </metadata>
  <sodipodi:namedview
     inkscape:window-height="714"
     inkscape:window-width="1024"
     inkscape:pageshadow="2"
     inkscape:pageopacity="0.0"
     guidetolerance="10.0"
     gridtolerance="10.0"
     objecttolerance="10.0"
     borderopacity="1.0"
     bordercolor="#666666"
     pagecolor="#ffffff"
     id="base"
     inkscape:zoom="5.4759971"
     inkscape:cx="49.250828"
     inkscape:cy="49.646908"
     inkscape:window-x="0"
     inkscape:window-y="29"
     inkscape:current-layer="svg2" />
  <defs
     id="defs4">
    <linearGradient
       id="linearGradient3461">
      <stop
         style="stop-color:#ffffff;stop-opacity:1;"
         offset="0"
         id="stop3463" />
      <stop
         style="stop-color:#008a00;stop-opacity:0;"
         offset="1"
         id="stop3465" />
    </linearGradient>
    <linearGradient
       id="linearGradient3449">
      <stop
         style="stop-color:#00db00;stop-opacity:1;"
         offset="0"
         id="stop3451" />
      <stop
         style="stop-color:#009d00;stop-opacity:0;"
         offset="1"
         id="stop3453" />
    </linearGradient>
    <linearGradient
       inkscape:collect="always"
       xlink:href="#linearGradient3449"
       id="linearGradient3474"
       gradientUnits="userSpaceOnUse"
       x1="8.6629602"
       y1="60.740168"
       x2="30.595094"
       y2="60.740168" />
    <radialGradient
       inkscape:collect="always"
       xlink:href="#linearGradient3461"
       id="radialGradient3476"
       gradientUnits="userSpaceOnUse"
       gradientTransform="matrix(1,0,0,1.0001751,0,-9.906416e-3)"
       cx="15.556526"
       cy="56.583721"
       fx="15.556526"
       fy="56.583721"
       r="6.1542277" />
    <linearGradient
       inkscape:collect="always"
       xlink:href="#linearGradient3449"
       id="linearGradient3542"
       gradientUnits="userSpaceOnUse"
       x1="8.6629602"
       y1="60.740168"
       x2="30.595094"
       y2="60.740168" />
    <radialGradient
       inkscape:collect="always"
       xlink:href="#linearGradient3461"
       id="radialGradient3544"
       gradientUnits="userSpaceOnUse"
       gradientTransform="matrix(1,0,0,1.0001751,0,-9.906416e-3)"
       cx="15.556526"
       cy="56.583721"
       fx="15.556526"
       fy="56.583721"
       r="6.1542277" />
    <linearGradient
       inkscape:collect="always"
       xlink:href="#linearGradient3449"
       id="linearGradient3554"
       gradientUnits="userSpaceOnUse"
       x1="8.6629602"
       y1="60.740168"
       x2="30.595094"
       y2="60.740168" />
    <radialGradient
       inkscape:collect="always"
       xlink:href="#linearGradient3461"
       id="radialGradient3556"
       gradientUnits="userSpaceOnUse"
       gradientTransform="matrix(1,0,0,1.0001751,0,-9.906416e-3)"
       cx="15.556526"
       cy="56.583721"
       fx="15.556526"
       fy="56.583721"
       r="6.1542277" />
  </defs>
  <g
     id="g2885">
    <path
       d="M 96.07195,39.207365 C 96.07259,42.866953 93.10609,45.833974 89.4465,45.833974 C 85.78691,45.833974 82.82041,42.866953 82.82105,39.207365 C 82.82041,35.547778 85.78691,32.580756 89.4465,32.580756 C 93.10609,32.580756 96.07259,35.547778 96.07195,39.207365 L 96.07195,39.207365 z "
       style="fill:#e1e7e1;fill-opacity:1;fill-rule:evenodd;stroke:none;stroke-width:0.20315053px;stroke-linecap:butt;stroke-linejoin:miter;stroke-opacity:1"
       id="path3576" />
    <g
       transform="matrix(0.6042521,0,0,0.6042521,71.77891,-6.4718239)"
       id="g3469">
      <path
         id="path3670"
         style="fill:#008a00;fill-opacity:1;fill-rule:evenodd;stroke:#000000;stroke-width:0.33620161px;stroke-linecap:butt;stroke-linejoin:miter;stroke-opacity:1"
         d="M 30.480042,60.780914 C 30.481103,66.837306 25.571725,71.747544 19.515332,71.747544 C 13.45894,71.747544 8.5495621,66.837306 8.5506231,60.780914 C 8.5495621,54.724523 13.45894,49.814284 19.515332,49.814284 C 25.571725,49.814284 30.481103,54.724523 30.480042,60.780914 L 30.480042,60.780914 z " />
      <path
         id="path3672"
         style="opacity:0.71739131;fill:url(#linearGradient3474);fill-opacity:1;fill-rule:evenodd;stroke:none;stroke-width:1px;stroke-linecap:butt;stroke-linejoin:miter;stroke-opacity:1"
         d="M 27.382247,68.493388 C 23.100482,72.776654 16.156965,72.777262 11.874449,68.494746 C 7.5919331,64.212231 7.5925421,57.268714 11.875807,52.986948 C 16.157573,48.703682 23.10109,48.703074 27.383605,52.985589 C 31.666121,57.268106 31.665513,64.211623 27.382247,68.493388 L 27.382247,68.493388 z " />
      <path
         id="path3674"
         style="fill:url(#radialGradient3476);fill-opacity:1;fill-rule:evenodd;stroke:none;stroke-width:1px;stroke-linecap:butt;stroke-linejoin:miter;stroke-opacity:1"
         d="M 21.710753,56.583722 C 21.711348,59.983029 18.955832,62.739027 15.556525,62.739027 C 12.157219,62.739027 9.4017031,59.983029 9.4022981,56.583722 C 9.4017031,53.184415 12.157219,50.428417 15.556525,50.428417 C 18.955832,50.428417 21.711348,53.184415 21.710753,56.583722 L 21.710753,56.583722 z " />
    </g>
  </g>
  <use
     x="0"
     y="0"
     xlink:href="#g2885"
     id="use2892"
     transform="translate(0,21.836735)"
     width="100"
     height="100" />
  <use
     x="0"
     y="0"
     xlink:href="#g2885"
     id="use2894"
     transform="translate(0.3652303,43.645019)"
     width="100"
     height="100" />
  <g
     id="g3582"
     transform="translate(5.87541,8.95219)"
     style="stroke:#e5e5e3;stroke-opacity:1">
    <path
       id="path3584"
       d="M 7.0614032,10.004483 C 7.3153038,10.090425 7.5613973,10.274018 7.7996844,10.555264 C 8.0418656,10.836518 8.2840529,11.223236 8.5262469,11.715421 L 9.7274188,14.106046 L 8.4559344,14.106046 L 7.3367938,11.861905 C 7.047726,11.27597 6.7664762,10.887299 6.4930438,10.695889 C 6.223508,10.504487 5.8543678,10.408784 5.3856219,10.40878 L 4.0965594,10.40878 L 4.0965594,14.106046 L 2.9129657,14.106046 L 2.9129657,5.3579988 L 5.5848407,5.3579988 C 6.5848358,5.3580076 7.3309288,5.5669918 7.8231219,5.984952 C 8.3153028,6.4029284 8.5613963,7.0337872 8.5614032,7.8775301 C 8.5613963,8.428317 8.4324902,8.8853478 8.1746844,9.2486238 C 7.920772,9.6119096 7.5496786,9.8638625 7.0614032,10.004483 M 4.0965594,6.3306551 L 4.0965594,9.4361238 L 5.5848407,9.4361238 C 6.1551487,9.4361285 6.5848358,9.3052693 6.8739032,9.0435457 C 7.1668665,8.7779261 7.3133507,8.3892546 7.3133563,7.8775301 C 7.3133507,7.3658181 7.1668665,6.9810528 6.8739032,6.7232332 C 6.5848358,6.4615221 6.1551487,6.3306629 5.5848407,6.3306551 L 4.0965594,6.3306551 M 13.213747,8.2994051 C 12.635619,8.2994109 12.178588,8.5259732 11.842653,8.9790926 C 11.506714,9.428316 11.338745,10.045503 11.338747,10.830655 C 11.338745,11.615814 11.504761,12.234954 11.836794,12.688077 C 12.172729,13.137297 12.631713,13.361906 13.213747,13.361905 C 13.787961,13.361906 14.243039,13.135344 14.578981,12.682218 C 14.914913,12.229094 15.082882,11.611908 15.082888,10.830655 C 15.082882,10.053315 14.914913,9.4380816 14.578981,8.984952 C 14.243039,8.5279263 13.787961,8.2994109 13.213747,8.2994051 M 13.213747,7.3853426 C 14.151242,7.3853493 14.88757,7.6900365 15.422731,8.2994051 C 15.957881,8.9087853 16.225459,9.7525345 16.225466,10.830655 C 16.225459,11.904876 15.957881,12.748625 15.422731,13.361905 C 14.88757,13.97128 14.151242,14.275967 13.213747,14.275968 C 12.272338,14.275967 11.534057,13.97128 10.998903,13.361905 C 10.467652,12.748625 10.202027,11.904876 10.202028,10.830655 C 10.202027,9.7525345 10.467652,8.9087853 10.998903,8.2994051 C 11.534057,7.6900365 12.272338,7.3853493 13.213747,7.3853426 M 20.549684,8.2994051 C 19.971556,8.2994109 19.514526,8.5259732 19.178591,8.9790926 C 18.842651,9.428316 18.674683,10.045503 18.674684,10.830655 C 18.674683,11.615814 18.840698,12.234954 19.172731,12.688077 C 19.508666,13.137297 19.96765,13.361906 20.549684,13.361905 C 21.123899,13.361906 21.578977,13.135344 21.914919,12.682218 C 22.250851,12.229094 22.418819,11.611908 22.418825,10.830655 C 22.418819,10.053315 22.250851,9.4380816 21.914919,8.984952 C 21.578977,8.5279263 21.123899,8.2994109 20.549684,8.2994051 M 20.549684,7.3853426 C 21.48718,7.3853493 22.223507,7.6900365 22.758669,8.2994051 C 23.293819,8.9087853 23.561396,9.7525345 23.561403,10.830655 C 23.561396,11.904876 23.293819,12.748625 22.758669,13.361905 C 22.223507,13.97128 21.48718,14.275967 20.549684,14.275968 C 19.608275,14.275967 18.869995,13.97128 18.334841,13.361905 C 17.80359,12.748625 17.537965,11.904876 17.537966,10.830655 C 17.537965,9.7525345 17.80359,8.9087853 18.334841,8.2994051 C 18.869995,7.6900365 19.608275,7.3853493 20.549684,7.3853426 M 26.409059,5.6802645 L 26.409059,7.5435457 L 28.629763,7.5435457 L 28.629763,8.3814363 L 26.409059,8.3814363 L 26.409059,11.943936 C 26.409057,12.479094 26.481323,12.822844 26.625856,12.975186 C 26.774291,13.127531 27.073119,13.203703 27.522341,13.203702 L 28.629763,13.203702 L 28.629763,14.106046 L 27.522341,14.106046 C 26.690307,14.106046 26.116089,13.951749 25.799684,13.643155 C 25.483277,13.330656 25.325074,12.76425 25.325075,11.943936 L 25.325075,8.3814363 L 24.534059,8.3814363 L 24.534059,7.5435457 L 25.325075,7.5435457 L 25.325075,5.6802645 L 26.409059,5.6802645"
       style="font-size:12px;font-style:normal;font-weight:normal;fill:none;fill-opacity:1;stroke:#e5e5e3;stroke-width:1.5;stroke-linecap:butt;stroke-linejoin:miter;stroke-miterlimit:4;stroke-dasharray:none;stroke-opacity:1;font-family:Bitstream Vera Sans" />
    <path
       id="path3586"
       d="M 13.881851,16.9981 C 13.881851,31.458361 13.881851,31.458361 13.881851,31.458361"
       style="fill:none;fill-rule:evenodd;stroke:#e5e5e3;stroke-width:3;stroke-linecap:butt;stroke-linejoin:miter;stroke-miterlimit:4;stroke-dasharray:none;stroke-opacity:1" />
    <path
       id="path3588"
       d="M 12.371676,31.741542 C 37.012245,31.741542 37.012245,31.464385 37.012245,31.464385"
       style="fill:none;fill-rule:evenodd;stroke:#e5e5e3;stroke-width:3.01204705;stroke-linecap:butt;stroke-linejoin:miter;stroke-miterlimit:4;stroke-dasharray:none;stroke-opacity:1" />
  </g>
  <path
     style="font-size:12px;font-style:normal;font-weight:normal;fill:#000000;fill-opacity:1;stroke:#e5e5e3;stroke-width:1.5;stroke-linecap:butt;stroke-linejoin:miter;stroke-miterlimit:4;stroke-dasharray:none;stroke-opacity:1;font-family:Bitstream Vera Sans"
     d="M 48.79491,43.334419 L 50.7285,43.334419 L 50.7285,36.660591 L 48.62499,37.082466 L 48.62499,36.004341 L 50.71678,35.582466 L 51.90038,35.582466 L 51.90038,43.334419 L 53.83397,43.334419 L 53.83397,44.330513 L 48.79491,44.330513 L 48.79491,43.334419"
     id="path3590" />
  <path
     style="font-size:12px;font-style:normal;font-weight:normal;fill:#000000;fill-opacity:1;stroke:#e5e5e3;stroke-width:1.5;stroke-linecap:butt;stroke-linejoin:miter;stroke-miterlimit:4;stroke-dasharray:none;stroke-opacity:1;font-family:Bitstream Vera Sans"
     d="M 50.04881,64.363237 L 54.17967,64.363237 L 54.17967,65.359331 L 48.62499,65.359331 L 48.62499,64.363237 C 49.0742,63.898395 49.68553,63.275349 50.45897,62.494097 C 51.23631,61.708944 51.72459,61.203085 51.92381,60.976519 C 52.30272,60.550742 52.56639,60.191367 52.71483,59.898394 C 52.86717,59.601524 52.94334,59.310509 52.94335,59.025347 C 52.94334,58.56051 52.77928,58.181604 52.45116,57.888628 C 52.12694,57.595667 51.70311,57.449183 51.17967,57.449175 C 50.80858,57.449183 50.416,57.513636 50.00194,57.642534 C 49.59178,57.771448 49.15233,57.96676 48.68358,58.228472 L 48.68358,57.033159 C 49.16014,56.841761 49.60545,56.69723 50.01952,56.599565 C 50.43358,56.501918 50.81248,56.45309 51.15624,56.453081 C 52.06248,56.45309 52.78514,56.679652 53.32421,57.132769 C 53.86326,57.585901 54.13279,58.191369 54.1328,58.949175 C 54.13279,59.308556 54.06443,59.650352 53.92772,59.974565 C 53.7949,60.294883 53.55076,60.673789 53.1953,61.111284 C 53.09764,61.22457 52.78709,61.552694 52.26366,62.095659 C 51.74022,62.634724 51.00194,63.390583 50.04881,64.363237"
     id="path3592" />
  <path
     style="font-size:12px;font-style:normal;font-weight:normal;fill:#000000;fill-opacity:1;stroke:#e5e5e3;stroke-width:1.5;stroke-linecap:butt;stroke-linejoin:miter;stroke-miterlimit:4;stroke-dasharray:none;stroke-opacity:1;font-family:Bitstream Vera Sans"
     d="M 52.58007,82.967496 C 53.14647,83.088594 53.58787,83.340547 53.90428,83.723355 C 54.22459,84.106171 54.38475,84.578827 54.38475,85.141324 C 54.38475,86.004607 54.08787,86.672575 53.49413,87.14523 C 52.90037,87.617887 52.05662,87.854214 50.96288,87.854215 C 50.59569,87.854214 50.21678,87.817105 49.82616,87.742886 C 49.43944,87.672574 49.03905,87.565152 48.62499,87.420621 L 48.62499,86.278043 C 48.95311,86.46945 49.31249,86.613981 49.70311,86.711636 C 50.09373,86.809294 50.50194,86.858122 50.92772,86.858121 C 51.6699,86.858122 52.23436,86.711637 52.62108,86.418668 C 53.0117,86.125701 53.20701,85.69992 53.20702,85.141324 C 53.20701,84.625702 53.02537,84.223359 52.6621,83.934293 C 52.30272,83.641328 51.80076,83.494844 51.15624,83.49484 L 50.13671,83.49484 L 50.13671,82.522183 L 51.20311,82.522183 C 51.78514,82.522188 52.23045,82.406954 52.53905,82.17648 C 52.84764,81.942111 53.00193,81.606174 53.00194,81.168668 C 53.00193,80.719456 52.84178,80.375706 52.52147,80.137418 C 52.20506,79.895238 51.74998,79.774144 51.15624,79.774136 C 50.83202,79.774144 50.48436,79.809301 50.11327,79.879605 C 49.74217,79.949925 49.33397,80.0593 48.88866,80.20773 L 48.88866,79.153043 C 49.33788,79.028051 49.7578,78.934301 50.14842,78.871793 C 50.54295,78.809302 50.91405,78.778052 51.26171,78.778043 C 52.16014,78.778052 52.87108,78.98313 53.39452,79.393277 C 53.91795,79.799535 54.17967,80.350316 54.17967,81.045621 C 54.17967,81.530002 54.041,81.940158 53.76366,82.27609 C 53.48631,82.608126 53.09178,82.838594 52.58007,82.967496"
     id="path3594" />
  <path
     style="font-size:12px;font-style:normal;font-weight:normal;fill:#000000;fill-opacity:1;stroke:#e5e5e3;stroke-width:1.5;stroke-linecap:butt;stroke-linejoin:miter;stroke-miterlimit:4;stroke-dasharray:none;stroke-opacity:1;font-family:Bitstream Vera Sans"
     d="M 62.9993,35.582466 L 64.18289,35.582466 L 64.18289,39.168404 L 68.48367,39.168404 L 68.48367,35.582466 L 69.66727,35.582466 L 69.66727,44.330513 L 68.48367,44.330513 L 68.48367,40.164498 L 64.18289,40.164498 L 64.18289,44.330513 L 62.9993,44.330513 L 62.9993,35.582466"
     id="path3596" />
  <path
     style="font-size:12px;font-style:normal;font-weight:normal;fill:#000000;fill-opacity:1;stroke:#e5e5e3;stroke-width:1.5;stroke-linecap:butt;stroke-linejoin:miter;stroke-miterlimit:4;stroke-dasharray:none;stroke-opacity:1;font-family:Bitstream Vera Sans"
     d="M 70.05398,57.115191 L 70.05398,58.363238 C 69.65554,57.992151 69.22976,57.714808 68.77664,57.531206 C 68.32742,57.347621 67.8489,57.255824 67.34109,57.255816 C 66.34109,57.255824 65.57547,57.562464 65.04422,58.175738 C 64.51297,58.785119 64.24734,59.667931 64.24734,60.824175 C 64.24734,61.976522 64.51297,62.859334 65.04422,63.472613 C 65.57547,64.081989 66.34109,64.386676 67.34109,64.386675 C 67.8489,64.386676 68.32742,64.294879 68.77664,64.111285 C 69.22976,63.927692 69.65554,63.650349 70.05398,63.279253 L 70.05398,64.515581 C 69.63992,64.796832 69.20046,65.007769 68.73563,65.148394 C 68.27468,65.289019 67.7864,65.359331 67.27078,65.359331 C 65.94656,65.359331 64.90359,64.955035 64.14188,64.146441 C 63.38016,63.333943 62.9993,62.226522 62.9993,60.824175 C 62.9993,59.417931 63.38016,58.31051 64.14188,57.50191 C 64.90359,56.689418 65.94656,56.283168 67.27078,56.28316 C 67.79421,56.283168 68.2864,56.353481 68.74734,56.494097 C 69.21218,56.630824 69.64773,56.837855 70.05398,57.115191"
     id="path3598" />
  <path
     style="font-size:12px;font-style:normal;font-weight:normal;fill:#000000;fill-opacity:1;stroke:#e5e5e3;stroke-width:1.5;stroke-linecap:butt;stroke-linejoin:miter;stroke-miterlimit:4;stroke-dasharray:none;stroke-opacity:1;font-family:Bitstream Vera Sans"
     d="M 70.05399,79.610075 L 70.05399,80.858122 C 69.65554,80.487035 69.22976,80.209692 68.77664,80.02609 C 68.32742,79.842505 67.8489,79.750708 67.3411,79.7507 C 66.34109,79.750708 65.57547,80.057348 65.04422,80.670622 C 64.51297,81.280003 64.24734,82.162815 64.24735,83.319059 C 64.24734,84.471406 64.51297,85.354218 65.04422,85.967497 C 65.57547,86.576873 66.34109,86.88156 67.3411,86.881559 C 67.8489,86.88156 68.32742,86.789763 68.77664,86.606169 C 69.22976,86.422576 69.65554,86.145233 70.05399,85.774137 L 70.05399,87.010465 C 69.63992,87.291716 69.20046,87.502653 68.73563,87.643278 C 68.27468,87.783903 67.7864,87.854215 67.27078,87.854215 C 65.94656,87.854215 64.90359,87.449919 64.14188,86.641325 C 63.38016,85.828827 62.9993,84.721406 62.9993,83.319059 C 62.9993,81.912815 63.38016,80.805394 64.14188,79.996794 C 64.90359,79.184302 65.94656,78.778052 67.27078,78.778044 C 67.79422,78.778052 68.2864,78.848365 68.74735,78.988981 C 69.21218,79.125708 69.64773,79.332739 70.05399,79.610075 M 71.73563,85.09445 L 71.73563,81.121794 L 72.81375,81.121794 L 72.81375,85.053434 C 72.81375,85.67453 72.93484,86.141326 73.17703,86.453825 C 73.41922,86.762419 73.7825,86.916716 74.26688,86.916715 C 74.8489,86.916716 75.30789,86.731169 75.64383,86.360075 C 75.98367,85.988983 76.15359,85.483124 76.1536,84.842497 L 76.1536,81.121794 L 77.23172,81.121794 L 77.23172,87.684294 L 76.1536,87.684294 L 76.1536,86.676481 C 75.89187,87.074919 75.58718,87.371794 75.23953,87.567106 C 74.89578,87.758512 74.49539,87.854215 74.03836,87.854215 C 73.28445,87.854215 72.71219,87.61984 72.32156,87.15109 C 71.93094,86.682341 71.73563,85.996795 71.73563,85.09445 M 74.44852,80.96359 L 74.44852,80.96359"
     id="path3600" />
  <g
     id="g3558">
    <path
       id="text3478"
       d="M 7.0614032,10.004483 C 7.3153038,10.090425 7.5613973,10.274018 7.7996844,10.555264 C 8.0418656,10.836518 8.2840529,11.223236 8.5262469,11.715421 L 9.7274188,14.106046 L 8.4559344,14.106046 L 7.3367938,11.861905 C 7.047726,11.27597 6.7664762,10.887299 6.4930438,10.695889 C 6.223508,10.504487 5.8543678,10.408784 5.3856219,10.40878 L 4.0965594,10.40878 L 4.0965594,14.106046 L 2.9129657,14.106046 L 2.9129657,5.3579988 L 5.5848407,5.3579988 C 6.5848358,5.3580076 7.3309288,5.5669918 7.8231219,5.984952 C 8.3153028,6.4029284 8.5613963,7.0337872 8.5614032,7.8775301 C 8.5613963,8.428317 8.4324902,8.8853478 8.1746844,9.2486238 C 7.920772,9.6119096 7.5496786,9.8638625 7.0614032,10.004483 M 4.0965594,6.3306551 L 4.0965594,9.4361238 L 5.5848407,9.4361238 C 6.1551487,9.4361285 6.5848358,9.3052693 6.8739032,9.0435457 C 7.1668665,8.7779261 7.3133507,8.3892546 7.3133563,7.8775301 C 7.3133507,7.3658181 7.1668665,6.9810528 6.8739032,6.7232332 C 6.5848358,6.4615221 6.1551487,6.3306629 5.5848407,6.3306551 L 4.0965594,6.3306551 M 13.213747,8.2994051 C 12.635619,8.2994109 12.178588,8.5259732 11.842653,8.9790926 C 11.506714,9.428316 11.338745,10.045503 11.338747,10.830655 C 11.338745,11.615814 11.504761,12.234954 11.836794,12.688077 C 12.172729,13.137297 12.631713,13.361906 13.213747,13.361905 C 13.787961,13.361906 14.243039,13.135344 14.578981,12.682218 C 14.914913,12.229094 15.082882,11.611908 15.082888,10.830655 C 15.082882,10.053315 14.914913,9.4380816 14.578981,8.984952 C 14.243039,8.5279263 13.787961,8.2994109 13.213747,8.2994051 M 13.213747,7.3853426 C 14.151242,7.3853493 14.88757,7.6900365 15.422731,8.2994051 C 15.957881,8.9087853 16.225459,9.7525345 16.225466,10.830655 C 16.225459,11.904876 15.957881,12.748625 15.422731,13.361905 C 14.88757,13.97128 14.151242,14.275967 13.213747,14.275968 C 12.272338,14.275967 11.534057,13.97128 10.998903,13.361905 C 10.467652,12.748625 10.202027,11.904876 10.202028,10.830655 C 10.202027,9.7525345 10.467652,8.9087853 10.998903,8.2994051 C 11.534057,7.6900365 12.272338,7.3853493 13.213747,7.3853426 M 20.549684,8.2994051 C 19.971556,8.2994109 19.514526,8.5259732 19.178591,8.9790926 C 18.842651,9.428316 18.674683,10.045503 18.674684,10.830655 C 18.674683,11.615814 18.840698,12.234954 19.172731,12.688077 C 19.508666,13.137297 19.96765,13.361906 20.549684,13.361905 C 21.123899,13.361906 21.578977,13.135344 21.914919,12.682218 C 22.250851,12.229094 22.418819,11.611908 22.418825,10.830655 C 22.418819,10.053315 22.250851,9.4380816 21.914919,8.984952 C 21.578977,8.5279263 21.123899,8.2994109 20.549684,8.2994051 M 20.549684,7.3853426 C 21.48718,7.3853493 22.223507,7.6900365 22.758669,8.2994051 C 23.293819,8.9087853 23.561396,9.7525345 23.561403,10.830655 C 23.561396,11.904876 23.293819,12.748625 22.758669,13.361905 C 22.223507,13.97128 21.48718,14.275967 20.549684,14.275968 C 19.608275,14.275967 18.869995,13.97128 18.334841,13.361905 C 17.80359,12.748625 17.537965,11.904876 17.537966,10.830655 C 17.537965,9.7525345 17.80359,8.9087853 18.334841,8.2994051 C 18.869995,7.6900365 19.608275,7.3853493 20.549684,7.3853426 M 26.409059,5.6802645 L 26.409059,7.5435457 L 28.629763,7.5435457 L 28.629763,8.3814363 L 26.409059,8.3814363 L 26.409059,11.943936 C 26.409057,12.479094 26.481323,12.822844 26.625856,12.975186 C 26.774291,13.127531 27.073119,13.203703 27.522341,13.203702 L 28.629763,13.203702 L 28.629763,14.106046 L 27.522341,14.106046 C 26.690307,14.106046 26.116089,13.951749 25.799684,13.643155 C 25.483277,13.330656 25.325074,12.76425 25.325075,11.943936 L 25.325075,8.3814363 L 24.534059,8.3814363 L 24.534059,7.5435457 L 25.325075,7.5435457 L 25.325075,5.6802645 L 26.409059,5.6802645"
       style="font-size:12px;font-style:normal;font-weight:normal;fill:none;fill-opacity:1;stroke:#000000;stroke-width:1.5;stroke-linecap:butt;stroke-linejoin:miter;stroke-miterlimit:4;stroke-opacity:1;font-family:Bitstream Vera Sans;stroke-dasharray:none" />
    <path
       id="path3482"
       d="M 13.881851,16.9981 C 13.881851,31.458361 13.881851,31.458361 13.881851,31.458361"
       style="fill:none;fill-rule:evenodd;stroke:#000000;stroke-width:3;stroke-linecap:butt;stroke-linejoin:miter;stroke-opacity:1;stroke-miterlimit:4;stroke-dasharray:none" />
    <path
       id="path3488"
       d="M 12.371676,31.741542 C 37.012245,31.741542 37.012245,31.464385 37.012245,31.464385"
       style="fill:none;fill-rule:evenodd;stroke:#000000;stroke-width:3.01204705;stroke-linecap:butt;stroke-linejoin:miter;stroke-miterlimit:4;stroke-dasharray:none;stroke-opacity:1" />
  </g>
  <path
     style="font-size:12px;font-style:normal;font-weight:normal;fill:#000000;fill-opacity:1;stroke:#000000;stroke-width:1.5;stroke-linecap:butt;stroke-linejoin:miter;stroke-miterlimit:4;stroke-dasharray:none;stroke-opacity:1;font-family:Bitstream Vera Sans"
     d="M 42.9195,34.382228 L 44.853094,34.382228 L 44.853094,27.7084 L 42.749578,28.130275 L 42.749578,27.05215 L 44.841375,26.630275 L 46.024969,26.630275 L 46.024969,34.382228 L 47.958563,34.382228 L 47.958563,35.378322 L 42.9195,35.378322 L 42.9195,34.382228"
     id="text3494" />
  <path
     style="font-size:12px;font-style:normal;font-weight:normal;fill:#000000;fill-opacity:1;stroke:#000000;stroke-width:1.5;stroke-linecap:butt;stroke-linejoin:miter;stroke-miterlimit:4;stroke-dasharray:none;stroke-opacity:1;font-family:Bitstream Vera Sans"
     d="M 44.173406,55.411046 L 48.304265,55.411046 L 48.304265,56.40714 L 42.749578,56.40714 L 42.749578,55.411046 C 43.198795,54.946204 43.810123,54.323158 44.583562,53.541906 C 45.360903,52.756753 45.849183,52.250894 46.048406,52.024328 C 46.427308,51.598551 46.690979,51.239176 46.839422,50.946203 C 46.99176,50.649333 47.067932,50.358318 47.067937,50.073156 C 47.067932,49.608319 46.90387,49.229413 46.57575,48.936437 C 46.251527,48.643476 45.827699,48.496992 45.304265,48.496984 C 44.933169,48.496992 44.540591,48.561445 44.126531,48.690343 C 43.716373,48.819257 43.27692,49.014569 42.808172,49.276281 L 42.808172,48.080968 C 43.284733,47.88957 43.730045,47.745039 44.144109,47.647374 C 44.558169,47.549727 44.937075,47.500899 45.280828,47.50089 C 46.187074,47.500899 46.909729,47.727461 47.448797,48.180578 C 47.987853,48.63371 48.257384,49.239178 48.25739,49.996984 C 48.257384,50.356365 48.189025,50.698161 48.052312,51.022374 C 47.919494,51.342692 47.675353,51.721598 47.31989,52.159093 C 47.222229,52.272379 46.911682,52.600503 46.38825,53.143468 C 45.864808,53.682533 45.126528,54.438392 44.173406,55.411046"
     id="text3498" />
  <path
     style="font-size:12px;font-style:normal;font-weight:normal;fill:#000000;fill-opacity:1;stroke:#000000;stroke-width:1.5;stroke-linecap:butt;stroke-linejoin:miter;stroke-miterlimit:4;stroke-dasharray:none;stroke-opacity:1;font-family:Bitstream Vera Sans"
     d="M 46.704657,74.015305 C 47.271057,74.136403 47.712463,74.388356 48.028875,74.771164 C 48.349181,75.15398 48.509337,75.626636 48.509344,76.189133 C 48.509337,77.052416 48.212463,77.720384 47.618719,78.193039 C 47.024964,78.665696 46.181215,78.902023 45.087469,78.902024 C 44.720279,78.902023 44.341373,78.864914 43.95075,78.790695 C 43.56403,78.720383 43.16364,78.612961 42.749578,78.46843 L 42.749578,77.325852 C 43.077702,77.517259 43.437077,77.66179 43.827703,77.759445 C 44.218326,77.857103 44.626529,77.905931 45.052313,77.90593 C 45.794496,77.905931 46.358949,77.759446 46.745672,77.466477 C 47.136292,77.17351 47.331604,76.747729 47.33161,76.189133 C 47.331604,75.673511 47.149964,75.271168 46.786688,74.982102 C 46.427308,74.689137 45.925356,74.542653 45.280828,74.542649 L 44.261297,74.542649 L 44.261297,73.569992 L 45.327703,73.569992 C 45.909731,73.569997 46.355043,73.454763 46.663641,73.224289 C 46.97223,72.98992 47.126526,72.653983 47.126532,72.216477 C 47.126526,71.767265 46.96637,71.423515 46.646063,71.185227 C 46.329652,70.943047 45.874574,70.821953 45.280828,70.821945 C 44.956607,70.821953 44.608951,70.85711 44.23786,70.927414 C 43.866764,70.997734 43.458561,71.107109 43.01325,71.255539 L 43.01325,70.200852 C 43.462467,70.07586 43.882389,69.98211 44.273016,69.919602 C 44.667544,69.857111 45.038638,69.825861 45.386297,69.825852 C 46.28473,69.825861 46.995667,70.030939 47.51911,70.441086 C 48.042541,70.847344 48.304259,71.398125 48.304266,72.09343 C 48.304259,72.577811 48.165588,72.987967 47.88825,73.323899 C 47.610901,73.655935 47.21637,73.886403 46.704657,74.015305"
     id="text3502" />
  <path
     style="font-size:12px;font-style:normal;font-weight:normal;fill:#000000;fill-opacity:1;stroke:#000000;stroke-width:1.5;stroke-linecap:butt;stroke-linejoin:miter;stroke-miterlimit:4;stroke-dasharray:none;stroke-opacity:1;font-family:Bitstream Vera Sans"
     d="M 57.123889,26.630275 L 58.307482,26.630275 L 58.307482,30.216213 L 62.608264,30.216213 L 62.608264,26.630275 L 63.791857,26.630275 L 63.791857,35.378322 L 62.608264,35.378322 L 62.608264,31.212307 L 58.307482,31.212307 L 58.307482,35.378322 L 57.123889,35.378322 L 57.123889,26.630275"
     id="text3519" />
  <path
     style="font-size:12px;font-style:normal;font-weight:normal;fill:#000000;fill-opacity:1;stroke:#000000;stroke-width:1.5;stroke-linecap:butt;stroke-linejoin:miter;stroke-miterlimit:4;stroke-dasharray:none;stroke-opacity:1;font-family:Bitstream Vera Sans"
     d="M 64.178576,48.163 L 64.178576,49.411047 C 63.780132,49.03996 63.354351,48.762617 62.901233,48.579015 C 62.452008,48.39543 61.973493,48.303633 61.465686,48.303625 C 60.465682,48.303633 59.700057,48.610273 59.168811,49.223547 C 58.637559,49.832928 58.371934,50.71574 58.371936,51.871984 C 58.371934,53.024331 58.637559,53.907143 59.168811,54.520422 C 59.700057,55.129798 60.465682,55.434485 61.465686,55.434484 C 61.973493,55.434485 62.452008,55.342688 62.901233,55.159094 C 63.354351,54.975501 63.780132,54.698158 64.178576,54.327062 L 64.178576,55.56339 C 63.764507,55.844641 63.325054,56.055578 62.860217,56.196203 C 62.399274,56.336828 61.910993,56.40714 61.395373,56.40714 C 60.071151,56.40714 59.028183,56.002844 58.266467,55.19425 C 57.504747,54.381752 57.123888,53.274331 57.123889,51.871984 C 57.123888,50.46574 57.504747,49.358319 58.266467,48.549719 C 59.028183,47.737227 60.071151,47.330977 61.395373,47.330969 C 61.918805,47.330977 62.410992,47.40129 62.871936,47.541906 C 63.336773,47.678633 63.772319,47.885664 64.178576,48.163"
     id="text3523" />
  <path
     style="font-size:12px;font-style:normal;font-weight:normal;fill:#000000;fill-opacity:1;stroke:#000000;stroke-width:1.5;stroke-linecap:butt;stroke-linejoin:miter;stroke-miterlimit:4;stroke-dasharray:none;stroke-opacity:1;font-family:Bitstream Vera Sans"
     d="M 64.178578,70.657884 L 64.178578,71.905931 C 63.780133,71.534844 63.354352,71.257501 62.901234,71.073899 C 62.452009,70.890314 61.973494,70.798517 61.465687,70.798509 C 60.465683,70.798517 59.700059,71.105157 59.168812,71.718431 C 58.63756,72.327812 58.371935,73.210624 58.371937,74.366868 C 58.371935,75.519215 58.63756,76.402027 59.168812,77.015306 C 59.700059,77.624682 60.465683,77.929369 61.465687,77.929368 C 61.973494,77.929369 62.452009,77.837572 62.901234,77.653978 C 63.354352,77.470385 63.780133,77.193042 64.178578,76.821946 L 64.178578,78.058274 C 63.764508,78.339525 63.325055,78.550462 62.860218,78.691087 C 62.399275,78.831712 61.910994,78.902024 61.395375,78.902024 C 60.071152,78.902024 59.028185,78.497728 58.266468,77.689134 C 57.504749,76.876636 57.12389,75.769215 57.12389,74.366868 C 57.12389,72.960624 57.504749,71.853203 58.266468,71.044603 C 59.028185,70.232111 60.071152,69.825861 61.395375,69.825853 C 61.918807,69.825861 62.410994,69.896174 62.871937,70.03679 C 63.336774,70.173517 63.77232,70.380548 64.178578,70.657884 M 65.860218,76.142259 L 65.860218,72.169603 L 66.938343,72.169603 L 66.938343,76.101243 C 66.938341,76.722339 67.059435,77.189135 67.301625,77.501634 C 67.543809,77.810228 67.90709,77.964525 68.391468,77.964524 C 68.973495,77.964525 69.432479,77.778978 69.768421,77.407884 C 70.10826,77.036792 70.278182,76.530933 70.278187,75.890306 L 70.278187,72.169603 L 71.356312,72.169603 L 71.356312,78.732103 L 70.278187,78.732103 L 70.278187,77.72429 C 70.016463,78.122728 69.711776,78.419603 69.364125,78.614915 C 69.02037,78.806321 68.61998,78.902024 68.162953,78.902024 C 67.409044,78.902024 66.836779,78.667649 66.446156,78.198899 C 66.05553,77.73015 65.860217,77.044604 65.860218,76.142259 M 68.573109,72.011399 L 68.573109,72.011399"
     id="text3527" />
  <path
     style="font-size:12px;font-style:normal;font-weight:normal;fill:none;fill-opacity:1;stroke:#000000;stroke-width:1.5;stroke-linecap:butt;stroke-linejoin:miter;stroke-miterlimit:4;stroke-dasharray:none;stroke-opacity:1;font-family:Bitstream Vera Sans"
     d="M 7.0614035,91.076701 C 7.3153041,91.162643 7.5613976,91.346236 7.7996847,91.627482 C 8.0418659,91.908736 8.2840532,92.295454 8.5262472,92.787639 L 9.7274191,95.178264 L 8.4559347,95.178264 L 7.3367941,92.934123 C 7.0477263,92.348188 6.7664765,91.959517 6.4930441,91.768107 C 6.2235083,91.576705 5.8543681,91.481002 5.3856222,91.480998 L 4.0965597,91.480998 L 4.0965597,95.178264 L 2.912966,95.178264 L 2.912966,86.430217 L 5.584841,86.430217 C 6.5848361,86.430226 7.3309291,86.63921 7.8231222,87.05717 C 8.3153031,87.475146 8.5613966,88.106005 8.5614035,88.949748 C 8.5613966,89.500535 8.4324905,89.957566 8.1746847,90.320842 C 7.9207723,90.684128 7.5496789,90.93608 7.0614035,91.076701 M 4.0965597,87.402873 L 4.0965597,90.508342 L 5.584841,90.508342 C 6.155149,90.508346 6.5848361,90.377487 6.8739035,90.115764 C 7.1668668,89.850144 7.313351,89.461473 7.3133566,88.949748 C 7.313351,88.438036 7.1668668,88.053271 6.8739035,87.795451 C 6.5848361,87.53374 6.155149,87.402881 5.584841,87.402873 L 4.0965597,87.402873 M 13.213747,89.371623 C 12.635619,89.371629 12.178588,89.598191 11.842653,90.051311 C 11.506714,90.500534 11.338745,91.117721 11.338747,91.902873 C 11.338745,92.688032 11.504761,93.307172 11.836794,93.760295 C 12.172729,94.209515 12.631713,94.434124 13.213747,94.434123 C 13.787961,94.434124 14.243039,94.207562 14.578981,93.754436 C 14.914913,93.301312 15.082882,92.684126 15.082888,91.902873 C 15.082882,91.125533 14.914913,90.5103 14.578981,90.05717 C 14.243039,89.600144 13.787961,89.371629 13.213747,89.371623 M 13.213747,88.457561 C 14.151242,88.457567 14.88757,88.762254 15.422731,89.371623 C 15.957881,89.981003 16.225459,90.824752 16.225466,91.902873 C 16.225459,92.977094 15.957881,93.820843 15.422731,94.434123 C 14.88757,95.043498 14.151242,95.348185 13.213747,95.348186 C 12.272338,95.348185 11.534057,95.043498 10.998903,94.434123 C 10.467652,93.820843 10.202027,92.977094 10.202028,91.902873 C 10.202027,90.824752 10.467652,89.981003 10.998903,89.371623 C 11.534057,88.762254 12.272338,88.457567 13.213747,88.457561 M 20.549684,89.371623 C 19.971556,89.371629 19.514526,89.598191 19.178591,90.051311 C 18.842651,90.500534 18.674683,91.117721 18.674684,91.902873 C 18.674683,92.688032 18.840698,93.307172 19.172731,93.760295 C 19.508666,94.209515 19.96765,94.434124 20.549684,94.434123 C 21.123899,94.434124 21.578977,94.207562 21.914919,93.754436 C 22.250851,93.301312 22.418819,92.684126 22.418825,91.902873 C 22.418819,91.125533 22.250851,90.5103 21.914919,90.05717 C 21.578977,89.600144 21.123899,89.371629 20.549684,89.371623 M 20.549684,88.457561 C 21.48718,88.457567 22.223507,88.762254 22.758669,89.371623 C 23.293819,89.981003 23.561396,90.824752 23.561403,91.902873 C 23.561396,92.977094 23.293819,93.820843 22.758669,94.434123 C 22.223507,95.043498 21.48718,95.348185 20.549684,95.348186 C 19.608275,95.348185 18.869995,95.043498 18.334841,94.434123 C 17.80359,93.820843 17.537965,92.977094 17.537966,91.902873 C 17.537965,90.824752 17.80359,89.981003 18.334841,89.371623 C 18.869995,88.762254 19.608275,88.457567 20.549684,88.457561 M 26.409059,86.752482 L 26.409059,88.615764 L 28.629763,88.615764 L 28.629763,89.453654 L 26.409059,89.453654 L 26.409059,93.016154 C 26.409057,93.551312 26.481323,93.895062 26.625856,94.047404 C 26.774291,94.199749 27.073119,94.275921 27.522341,94.27592 L 28.629763,94.27592 L 28.629763,95.178264 L 27.522341,95.178264 C 26.690307,95.178264 26.116089,95.023967 25.799684,94.715373 C 25.483277,94.402874 25.325074,93.836468 25.325075,93.016154 L 25.325075,89.453654 L 24.534059,89.453654 L 24.534059,88.615764 L 25.325075,88.615764 L 25.325075,86.752482 L 26.409059,86.752482"
     id="path3565" />
</svg>
