/* XPM */
const char *xpm_select_sphere[] = {
/* columns rows colors chars-per-pixel */
"24 24 120 2",
"   c gray4",
".  c gray9",
"X  c gray10",
"o  c gray11",
"O  c #222222",
"+  c #272727",
"@  c #2A2A2A",
"#  c #2F2F2F",
"$  c #313131",
"%  c gray21",
"&  c #373737",
"*  c gray22",
"=  c #393939",
"-  c gray25",
";  c #444444",
":  c gray33",
">  c #565656",
",  c gray34",
"<  c #585858",
"1  c gray40",
"2  c #6D6D6D",
"3  c #717171",
"4  c #727272",
"5  c gray45",
"6  c gray46",
"7  c #757578",
"8  c #7B7B7B",
"9  c gray49",
"0  c #7E7E7E",
"q  c #6B6B9A",
"w  c #5454FF",
"e  c #5959FF",
"r  c #5A5AFF",
"t  c #5C5CFF",
"y  c #5D5DFF",
"u  c #6E6EF0",
"i  c #7272FF",
"p  c #7D7DFF",
"a  c #838383",
"s  c #868686",
"d  c #828288",
"f  c #8B8B8B",
"g  c #929292",
"h  c #959595",
"j  c #979797",
"k  c #9A9A9A",
"l  c #9B9B9B",
"z  c #9D9D9D",
"x  c #8B8BBA",
"c  c #A0A0A0",
"v  c gray63",
"b  c gray64",
"n  c #A4A4A4",
"m  c gray65",
"M  c #A9A9A9",
"N  c gray67",
"B  c gray68",
"V  c #B2B2B2",
"C  c gray71",
"Z  c #B6B6B6",
"A  c gray72",
"S  c gray74",
"D  c gray",
"F  c #8686FF",
"G  c #8989FF",
"H  c #8A8AFD",
"J  c #8C8CFF",
"K  c #9292FF",
"L  c #9494FF",
"P  c #9D9DFF",
"I  c #ACACFF",
"U  c #B1B1FF",
"Y  c #B9B9FF",
"T  c gray76",
"R  c #C6C6C6",
"E  c gray78",
"W  c #C8C8C8",
"Q  c gray79",
"!  c gray80",
"~  c #D0D0D0",
"^  c gray82",
"/  c #D2D2D2",
"(  c LightGray",
")  c gray83",
"_  c #D7D7D7",
"`  c #D8D8D8",
"'  c gray85",
"]  c gray86",
"[  c gray87",
"{  c #DFDFDF",
"}  c #C3C3FF",
"|  c #D0D0FF",
" . c #E4E4E4",
".. c #E6E6E6",
"X. c gray91",
"o. c #E9E9E9",
"O. c #EAEAEA",
"+. c gray92",
"@. c #EEEEEE",
"#. c #EFEFEF",
"$. c #E1E1FF",
"%. c #E6E6FF",
"&. c gray95",
"*. c #F4F4F4",
"=. c gray96",
"-. c #F6F6F6",
";. c gray97",
":. c #F5F5FF",
">. c #F8F8F8",
",. c #F9F9F9",
"<. c #FBFBFB",
"1. c #F9F9FF",
"2. c #FBFBFF",
"3. c gray99",
"4. c #FDFDFD",
"5. c #FCFCFF",
"6. c #FDFDFF",
"7. c #FEFEFE",
"8. c #FEFEFF",
"9. c none",
/* pixels */
"9.:.L r w U 9.9.9.9.9.9.9.9.9.9.9.-.N -.9.9.9.9.",
"2.K t } I w Y 9.9.9.9.9.9.9.9.9.9.-.C -.9.9.9.9.",
"| w } 9.2.P i 2.9.9.9.9.9.9.9.9.9.^ j ;.9.9.9.9.",
"%.r I 9.:.F p 9.9.9.9.9.9.9.9.9.9.0 : 9.9.9.9.9.",
"9.U w P F t | 9.9.9.9.9.9.9.9.9.9.c Z 9.9.9.9.9.",
"9.9.Y G J | 9.9.9.9.9.9.9.9.9.9.-.; n 9.9.9.9.9.",
"9.9.9.9.9.9.9.9.9.9.9.%.%.9.9.9.^ 3 X.9.9.9.9.9.",
"2.9.9.9.9.9.9.9.9.:.L r w U 9.9.6 3 9.9.9.9.9.9.",
"9.9.9.9.9.9.9.9.2.K t } I w Y  .0 X.9.9.9.9.9.9.",
"9.9.9.9.9.9.9.9.| w } 9.9.P i d 3 9.9.9.9.9.9.9.",
"9.9.9.9.9.9.9.9.%.t I 9.:.F u 7 +.9.9.9.-.-.9.9.",
"9.9.9.9.9.9.9.9.9.U w P F t x c ;.9.9.] Q Q  .9.",
"9.9.9.9.9.9.9.9.9.9.Y G G q l + n 9.' Q +. .Q X.",
"9.9.9.9.9.9.9.9.9.9.9.X.>.' D   $ ] Q X.9.9.] ! ",
"9.9.9.9.9.9.9.9.9.;.T j ( 9.^ . @ 3 E  .9.9.' _ ",
"9.9.9.9.9.9.9.9.X.s O D 9.9.^ X f X n Q ] _ Q +.",
"9.9.9.9.9.;.9.V = c ' 9.9.9.^ X ! 1 = ^ ' ' +.9.",
"X.D k 8  .N ^  ._ ;.9.9.9.9.^ . N C @ 2 9.9.9.9.",
"s % $ 1  .-.' Q Q  .9.9.9.9.+.< % = @ : 9.9.9.9.",
"-.&.&.9.9.] Q +. .Q  .9.9.9.9.;. .: g -.9.9.9.9.",
"9.9.9.9.-.E X.9.9.] ^ 9.9.9.9.9.9.c n 9.9.9.9.9.",
"9.9.9.9.-.E  .9.9._ ^ 9.9.9.9.9.9.9.9.9.9.9.9.9.",
"9.9.9.9.9. .E ] _ Q +.9.9.9.9.9.9.9.9.9.9.9.9.9.",
"9.9.9.9.9.9.X.' ' &.9.9.9.9.9.9.9.9.9.9.9.9.9.9."
};
