<?xml version="1.0" encoding="UTF-8" standalone="no"?>
<!-- Created with Inkscape (http://www.inkscape.org/) -->

<svg
   xmlns:dc="http://purl.org/dc/elements/1.1/"
   xmlns:cc="http://creativecommons.org/ns#"
   xmlns:rdf="http://www.w3.org/1999/02/22-rdf-syntax-ns#"
   xmlns:svg="http://www.w3.org/2000/svg"
   xmlns="http://www.w3.org/2000/svg"
   xmlns:xlink="http://www.w3.org/1999/xlink"
   xmlns:sodipodi="http://sodipodi.sourceforge.net/DTD/sodipodi-0.dtd"
   xmlns:inkscape="http://www.inkscape.org/namespaces/inkscape"
   version="1.0"
   width="100"
   height="100"
   id="svg2"
   sodipodi:version="0.32"
   inkscape:version="0.48.1 r9760"
   sodipodi:docname="arrow_clockwise.svg"
   inkscape:output_extension="org.inkscape.output.svg.inkscape">
  <metadata
     id="metadata2566">
    <rdf:RDF>
      <cc:Work
         rdf:about="">
        <dc:format>image/svg+xml</dc:format>
        <dc:type
           rdf:resource="http://purl.org/dc/dcmitype/StillImage" />
      </cc:Work>
    </rdf:RDF>
  </metadata>
  <sodipodi:namedview
     inkscape:window-height="714"
     inkscape:window-width="1024"
     inkscape:pageshadow="2"
     inkscape:pageopacity="0.0"
     guidetolerance="10.0"
     gridtolerance="10.0"
     objecttolerance="10.0"
     borderopacity="1.0"
     bordercolor="#666666"
     pagecolor="#ffffff"
     id="base"
     inkscape:zoom="2.445"
     inkscape:cx="48.236556"
     inkscape:cy="32.247889"
     inkscape:window-x="5"
     inkscape:window-y="52"
     inkscape:current-layer="svg2"
     showgrid="false"
     inkscape:window-maximized="0" />
  <defs
     id="defs4">
    <linearGradient
       id="linearGradient3197">
      <stop
         style="stop-color:#e4e1e1;stop-opacity:1;"
         offset="0"
         id="stop3199" />
      <stop
         style="stop-color:#e4af00;stop-opacity:1;"
         offset="1"
         id="stop3201" />
    </linearGradient>
    <linearGradient
       inkscape:collect="always"
       id="linearGradient3189">
      <stop
         style="stop-color:#000000;stop-opacity:1;"
         offset="0"
         id="stop3191" />
      <stop
         style="stop-color:#000000;stop-opacity:0;"
         offset="1"
         id="stop3193" />
    </linearGradient>
    <radialGradient
       inkscape:collect="always"
       xlink:href="#linearGradient3189"
       id="radialGradient3195"
       cx="50.059151"
       cy="48.853989"
       fx="50.059151"
       fy="48.853989"
       r="42.138133"
       gradientTransform="matrix(1.0030842,0,0,1.1242975,-0.82320994,-6.0908741)"
       gradientUnits="userSpaceOnUse" />
    <radialGradient
       inkscape:collect="always"
       xlink:href="#linearGradient3197"
       id="radialGradient3203"
       cx="50.059151"
       cy="48.853989"
       fx="50.059151"
       fy="48.853989"
       r="42.138133"
       gradientTransform="matrix(1.0030842,0,0,1.1242975,-0.82320994,-6.0908741)"
       gradientUnits="userSpaceOnUse" />
  </defs>
  <path
     style="fill:#282828;fill-opacity:1;fill-rule:evenodd;stroke:none"
     d="m 53.229013,17.807819 -1.40942,-10.2154059 27.540138,14.8419499 -27.540138,14.84195 1.40942,-9.919309 c -17.404738,0 -31.534515,14.12978 -31.534515,31.534517 0,17.404738 14.129787,31.53452 31.534515,31.53452 17.404738,0 31.534534,-14.12978 31.534523,-31.53452 0,-8.702368 -3.54505,-16.573395 -9.253088,-22.281431 l 6.773254,-6.77326 c 6.709719,5.763974 12.029013,17.716348 12.029013,29.054691 1.1e-5,22.676682 -18.407007,41.083688 -41.083702,41.083688 -22.676675,0 -41.0837,-18.407003 -41.0837,-41.083688 0,-22.676688 18.407015,-41.083702 41.0837,-41.083702 z"
     id="path3211"
     sodipodi:nodetypes="cccccsssccsssc"
     inkscape:connector-curvature="0" />
  <path
     style="fill:none;stroke:#000000;stroke-width:5.23870182;stroke-linecap:round;stroke-linejoin:round;stroke-miterlimit:4;stroke-opacity:1;stroke-dasharray:none;stroke-dashoffset:0"
     d="m 49.390337,12.859549 -1.40942,-10.215407 27.540131,14.841951 -27.540131,14.841949 1.40942,-9.919309 c -17.404737,0 -31.534517,14.129781 -31.534517,31.534517 0,17.404739 14.129782,31.534515 31.534517,31.534517 17.404741,0 31.534527,-14.129776 31.534516,-31.534517 0,-8.702367 -3.545049,-16.573394 -9.25308,-22.28143 l 6.773256,-6.77326 c 6.70971,5.763974 12.029007,17.716348 12.029007,29.05469 9e-6,22.676683 -18.407008,41.083703 -41.083699,41.083703 -22.67668,10e-7 -41.0837015,-18.407018 -41.0837015,-41.083703 0,-22.676687 18.4070175,-41.083701 41.0837015,-41.083701 z"
     id="path3205"
     sodipodi:nodetypes="cccccsssccsssc"
     inkscape:connector-curvature="0" />
  <path
     style="fill:url(#radialGradient3203);fill-opacity:1;fill-rule:evenodd;stroke:url(#radialGradient3195);stroke-width:2.36879039;stroke-linecap:round;stroke-linejoin:round;stroke-miterlimit:4;stroke-opacity:1;stroke-dashoffset:0"
     d="m 49.390335,12.859549 -1.40942,-10.215407 27.540136,14.841951 -27.540136,14.841949 1.40942,-9.919308 c -17.404737,0 -31.534517,14.12978 -31.534517,31.534516 0,17.404739 14.129782,31.534515 31.534517,31.534517 17.404738,0 31.534522,-14.129776 31.534517,-31.534517 0,-8.702367 -3.545049,-16.573394 -9.253085,-22.28143 l 6.773259,-6.773259 c 6.709715,5.763973 12.029011,17.716347 12.029011,29.054689 10e-7,22.676683 -18.407016,41.083703 -41.083702,41.083703 -22.676681,10e-7 -41.0837005,-18.407018 -41.0837005,-41.083703 0,-22.676687 18.4070165,-41.083701 41.0837005,-41.083701 z"
     id="path3176"
     sodipodi:nodetypes="cccccsssccsssc"
     inkscape:connector-curvature="0" />
</svg>
