<?xml version="1.0" encoding="UTF-8" standalone="no"?>
<!-- Created with Inkscape (http://www.inkscape.org/) -->

<svg
   xmlns:dc="http://purl.org/dc/elements/1.1/"
   xmlns:cc="http://creativecommons.org/ns#"
   xmlns:rdf="http://www.w3.org/1999/02/22-rdf-syntax-ns#"
   xmlns:svg="http://www.w3.org/2000/svg"
   xmlns="http://www.w3.org/2000/svg"
   xmlns:xlink="http://www.w3.org/1999/xlink"
   xmlns:sodipodi="http://sodipodi.sourceforge.net/DTD/sodipodi-0.dtd"
   xmlns:inkscape="http://www.inkscape.org/namespaces/inkscape"
   version="1.0"
   width="100"
   height="100"
   id="svg2"
   sodipodi:version="0.32"
   inkscape:version="0.48.1 r9760"
   sodipodi:docname="basic_define.svg"
   inkscape:output_extension="org.inkscape.output.svg.inkscape">
  <metadata
     id="metadata2566">
    <rdf:RDF>
      <cc:Work
         rdf:about="">
        <dc:format>image/svg+xml</dc:format>
        <dc:type
           rdf:resource="http://purl.org/dc/dcmitype/StillImage" />
      </cc:Work>
    </rdf:RDF>
  </metadata>
  <sodipodi:namedview
     inkscape:window-height="714"
     inkscape:window-width="1024"
     inkscape:pageshadow="2"
     inkscape:pageopacity="0.0"
     guidetolerance="10.0"
     gridtolerance="10.0"
     objecttolerance="10.0"
     borderopacity="1.0"
     bordercolor="#666666"
     pagecolor="#ffffff"
     id="base"
     inkscape:zoom="3.4648232"
     inkscape:cx="-45.988732"
     inkscape:cy="59.319796"
     inkscape:window-x="0"
     inkscape:window-y="44"
     inkscape:current-layer="svg2"
     showgrid="false"
     inkscape:window-maximized="0" />
  <defs
     id="defs4">
    <linearGradient
       id="linearGradient3384">
      <stop
         style="stop-color:#0000ff;stop-opacity:1;"
         offset="0"
         id="stop3386" />
      <stop
         style="stop-color:#000000;stop-opacity:1"
         offset="1"
         id="stop3388" />
    </linearGradient>
    <linearGradient
       id="linearGradient3252">
      <stop
         style="stop-color:#ffffff;stop-opacity:1"
         offset="0"
         id="stop3254" />
      <stop
         style="stop-color:#7f7fff;stop-opacity:0;"
         offset="1"
         id="stop3256" />
    </linearGradient>
    <linearGradient
       inkscape:collect="always"
       xlink:href="#linearGradient3384"
       id="linearGradient2206"
       gradientUnits="userSpaceOnUse"
       gradientTransform="matrix(0.2377304,0.2377304,-0.2377304,0.2377304,39.711053,40.887748)"
       x1="25.398125"
       y1="63.345894"
       x2="90.625114"
       y2="63.345894" />
    <radialGradient
       inkscape:collect="always"
       xlink:href="#linearGradient3252"
       id="radialGradient2208"
       gradientUnits="userSpaceOnUse"
       gradientTransform="matrix(0.1887019,0,0,0.1887019,23.423531,53.628189)"
       cx="58.01162"
       cy="63.345894"
       fx="58.01162"
       fy="63.345894"
       r="33.113495" />
    <linearGradient
       inkscape:collect="always"
       xlink:href="#linearGradient3384"
       id="linearGradient2193"
       gradientUnits="userSpaceOnUse"
       gradientTransform="matrix(0.2377304,0.2377304,-0.2377304,0.2377304,39.711053,40.887748)"
       x1="25.398125"
       y1="63.345894"
       x2="90.625114"
       y2="63.345894" />
    <radialGradient
       inkscape:collect="always"
       xlink:href="#linearGradient3252"
       id="radialGradient2195"
       gradientUnits="userSpaceOnUse"
       gradientTransform="matrix(0.1887019,0,0,0.1887019,23.423531,53.628189)"
       cx="58.01162"
       cy="63.345894"
       fx="58.01162"
       fy="63.345894"
       r="33.113495" />
    <linearGradient
       inkscape:collect="always"
       xlink:href="#linearGradient3384"
       id="linearGradient2211"
       gradientUnits="userSpaceOnUse"
       gradientTransform="matrix(0.2377304,0.2377304,-0.2377304,0.2377304,39.711053,40.887748)"
       x1="25.398125"
       y1="63.345894"
       x2="90.625114"
       y2="63.345894" />
    <radialGradient
       inkscape:collect="always"
       xlink:href="#linearGradient3252"
       id="radialGradient2213"
       gradientUnits="userSpaceOnUse"
       gradientTransform="matrix(0.1887019,0,0,0.1887019,23.423531,53.628189)"
       cx="58.01162"
       cy="63.345894"
       fx="58.01162"
       fy="63.345894"
       r="33.113495" />
  </defs>
  <path
     sodipodi:type="arc"
     style="fill:#9da29f;fill-opacity:1;fill-rule:evenodd;stroke:none"
     id="path3265"
     sodipodi:cx="105.54481"
     sodipodi:cy="47.27103"
     sodipodi:rx="16.939291"
     sodipodi:ry="16.939291"
     d="m 122.4841,47.27103 a 16.939291,16.939291 0 1 1 -33.878584,0 16.939291,16.939291 0 1 1 33.878584,0 z"
     transform="matrix(1.0126144,0,0,1.0126144,-54.34732,31.316465)" />
  <path
     sodipodi:type="arc"
     style="fill:#afafff;fill-opacity:1;fill-rule:evenodd;stroke:#000000;stroke-width:1px;stroke-linecap:butt;stroke-linejoin:miter;stroke-opacity:1"
     id="path4651"
     sodipodi:cx="105.54481"
     sodipodi:cy="47.27103"
     sodipodi:rx="16.939291"
     sodipodi:ry="16.939291"
     d="m 122.4841,47.27103 a 16.939291,16.939291 0 1 1 -33.878584,0 16.939291,16.939291 0 1 1 33.878584,0 z"
     transform="matrix(1.0126144,0,0,1.0126144,-57.128936,27.729632)" />
  <g
     id="use2628"
     transform="matrix(1.0126144,0,0,1.0126144,11.047009,4.9378699)">
    <path
       d="m 49.293948,69.778869 c 0.0011,6.056392 -4.908317,10.96663 -10.96471,10.96663 -6.056392,0 -10.96577,-4.910238 -10.964709,-10.96663 -0.0011,-6.056391 4.908317,-10.96663 10.964709,-10.96663 6.056393,0 10.965771,4.910239 10.96471,10.96663 l 0,0 z"
       style="fill:#0000ff;fill-opacity:1;fill-rule:evenodd;stroke:#000000;stroke-width:0.33620161px;stroke-linecap:butt;stroke-linejoin:miter;stroke-opacity:1"
       id="path2200"
       inkscape:connector-curvature="0" />
    <path
       d="m 46.196153,77.491343 c -4.281765,4.283266 -11.225282,4.283874 -15.507798,0.0014 -4.282516,-4.282515 -4.281907,-11.226032 0.0014,-15.507798 4.281766,-4.283266 11.225283,-4.283874 15.507798,-0.0014 4.282516,4.282517 4.281908,11.226034 -0.0014,15.507799 l 0,0 z"
       style="opacity:0.71739131;fill:url(#linearGradient2206);fill-opacity:1;fill-rule:evenodd;stroke:none"
       id="path2202"
       inkscape:connector-curvature="0" />
    <path
       d="m 40.524659,65.581677 c 5.95e-4,3.399307 -2.754921,6.155305 -6.154228,6.155305 -3.399306,0 -6.154822,-2.755998 -6.154227,-6.155305 -5.95e-4,-3.399307 2.754921,-6.155305 6.154227,-6.155305 3.399307,0 6.154823,2.755998 6.154228,6.155305 l 0,0 z"
       style="fill:url(#radialGradient2208);fill-opacity:1;fill-rule:evenodd;stroke:none"
       id="path2204"
       inkscape:connector-curvature="0" />
  </g>
  <path
     transform="matrix(1.0126144,0,0,1.0126144,-86.007413,-22.957978)"
     d="m 122.4841,47.27103 a 16.939291,16.939291 0 1 1 -33.878584,0 16.939291,16.939291 0 1 1 33.878584,0 z"
     sodipodi:ry="16.939291"
     sodipodi:rx="16.939291"
     sodipodi:cy="47.27103"
     sodipodi:cx="105.54481"
     id="path2181"
     style="fill:#9da29f;fill-opacity:1;fill-rule:evenodd;stroke:none"
     sodipodi:type="arc" />
  <path
     transform="matrix(1.0126144,0,0,1.0126144,-88.789029,-26.544811)"
     d="m 122.4841,47.27103 a 16.939291,16.939291 0 1 1 -33.878584,0 16.939291,16.939291 0 1 1 33.878584,0 z"
     sodipodi:ry="16.939291"
     sodipodi:rx="16.939291"
     sodipodi:cy="47.27103"
     sodipodi:cx="105.54481"
     id="path2183"
     style="fill:#afafff;fill-opacity:1;fill-rule:evenodd;stroke:#000000;stroke-width:1px;stroke-linecap:butt;stroke-linejoin:miter;stroke-opacity:1"
     sodipodi:type="arc" />
  <g
     transform="matrix(1.0126144,0,0,1.0126144,-20.613083,-49.336574)"
     id="g2185">
    <path
       id="path2187"
       style="fill:#0000ff;fill-opacity:1;fill-rule:evenodd;stroke:#000000;stroke-width:0.33620161px;stroke-linecap:butt;stroke-linejoin:miter;stroke-opacity:1"
       d="m 49.293948,69.778869 c 0.0011,6.056392 -4.908317,10.96663 -10.96471,10.96663 -6.056392,0 -10.96577,-4.910238 -10.964709,-10.96663 -0.0011,-6.056391 4.908317,-10.96663 10.964709,-10.96663 6.056393,0 10.965771,4.910239 10.96471,10.96663 l 0,0 z"
       inkscape:connector-curvature="0" />
    <path
       id="path2189"
       style="opacity:0.71739131;fill:url(#linearGradient2193);fill-opacity:1;fill-rule:evenodd;stroke:none"
       d="m 46.196153,77.491343 c -4.281765,4.283266 -11.225282,4.283874 -15.507798,0.0014 -4.282516,-4.282515 -4.281907,-11.226032 0.0014,-15.507798 4.281766,-4.283266 11.225283,-4.283874 15.507798,-0.0014 4.282516,4.282517 4.281908,11.226034 -0.0014,15.507799 l 0,0 z"
       inkscape:connector-curvature="0" />
    <path
       id="path2191"
       style="fill:url(#radialGradient2195);fill-opacity:1;fill-rule:evenodd;stroke:none"
       d="m 40.524659,65.581677 c 5.95e-4,3.399307 -2.754921,6.155305 -6.154228,6.155305 -3.399306,0 -6.154822,-2.755998 -6.154227,-6.155305 -5.95e-4,-3.399307 2.754921,-6.155305 6.154227,-6.155305 3.399307,0 6.154823,2.755998 6.154228,6.155305 l 0,0 z"
       inkscape:connector-curvature="0" />
  </g>
  <path
     transform="matrix(1.0126144,0,0,1.0126144,-24.457047,-22.957978)"
     d="m 122.4841,47.27103 a 16.939291,16.939291 0 1 1 -33.878584,0 16.939291,16.939291 0 1 1 33.878584,0 z"
     sodipodi:ry="16.939291"
     sodipodi:rx="16.939291"
     sodipodi:cy="47.27103"
     sodipodi:cx="105.54481"
     id="path2199"
     style="fill:#9da29f;fill-opacity:1;fill-rule:evenodd;stroke:none"
     sodipodi:type="arc" />
  <path
     transform="matrix(1.0126144,0,0,1.0126144,-27.238663,-26.544811)"
     d="m 122.4841,47.27103 a 16.939291,16.939291 0 1 1 -33.878584,0 16.939291,16.939291 0 1 1 33.878584,0 z"
     sodipodi:ry="16.939291"
     sodipodi:rx="16.939291"
     sodipodi:cy="47.27103"
     sodipodi:cx="105.54481"
     id="path2201"
     style="fill:#afafff;fill-opacity:1;fill-rule:evenodd;stroke:#000000;stroke-width:1px;stroke-linecap:butt;stroke-linejoin:miter;stroke-opacity:1"
     sodipodi:type="arc" />
  <g
     transform="matrix(1.0126144,0,0,1.0126144,40.937283,-49.336574)"
     id="g2203">
    <path
       id="path2205"
       style="fill:#0000ff;fill-opacity:1;fill-rule:evenodd;stroke:#000000;stroke-width:0.33620161px;stroke-linecap:butt;stroke-linejoin:miter;stroke-opacity:1"
       d="m 49.293948,69.778869 c 0.0011,6.056392 -4.908317,10.96663 -10.96471,10.96663 -6.056392,0 -10.96577,-4.910238 -10.964709,-10.96663 -0.0011,-6.056391 4.908317,-10.96663 10.964709,-10.96663 6.056393,0 10.965771,4.910239 10.96471,10.96663 l 0,0 z"
       inkscape:connector-curvature="0" />
    <path
       id="path2207"
       style="opacity:0.71739131;fill:url(#linearGradient2211);fill-opacity:1;fill-rule:evenodd;stroke:none"
       d="m 46.196153,77.491343 c -4.281765,4.283266 -11.225282,4.283874 -15.507798,0.0014 -4.282516,-4.282515 -4.281907,-11.226032 0.0014,-15.507798 4.281766,-4.283266 11.225283,-4.283874 15.507798,-0.0014 4.282516,4.282517 4.281908,11.226034 -0.0014,15.507799 l 0,0 z"
       inkscape:connector-curvature="0" />
    <path
       id="path2209"
       style="fill:url(#radialGradient2213);fill-opacity:1;fill-rule:evenodd;stroke:none"
       d="m 40.524659,65.581677 c 5.95e-4,3.399307 -2.754921,6.155305 -6.154228,6.155305 -3.399306,0 -6.154822,-2.755998 -6.154227,-6.155305 -5.95e-4,-3.399307 2.754921,-6.155305 6.154227,-6.155305 3.399307,0 6.154823,2.755998 6.154228,6.155305 l 0,0 z"
       inkscape:connector-curvature="0" />
  </g>
  <g
     id="g5143"
     transform="matrix(1.0126144,0,0,1.0126144,-1.5474599,0.58409675)">
    <path
       style="fill:none;stroke:#000000;stroke-width:3.19749999;stroke-linecap:round;stroke-linejoin:round;stroke-miterlimit:4;stroke-opacity:1;stroke-dasharray:6.395, 3.1975;stroke-dashoffset:0"
       d="m 49.935183,53.626362 0,-11.13656"
       id="use2648"
       sodipodi:nodetypes="cc"
       inkscape:connector-curvature="0" />
    <path
       transform="translate(-59.591837,-15.714286)"
       d="m 112.82837,53.975346 c 0,1.823283 -1.47806,3.301346 -3.30135,3.301346 -1.82328,0 -3.30134,-1.478063 -3.30134,-3.301346 0,-1.823284 1.47806,-3.301347 3.30134,-3.301347 1.82329,0 3.30135,1.478063 3.30135,3.301347 z"
       sodipodi:ry="3.3013465"
       sodipodi:rx="3.3013465"
       sodipodi:cy="53.975346"
       sodipodi:cx="109.52702"
       id="path3185"
       style="fill:none;stroke:#000000;stroke-width:3.19749999;stroke-linecap:butt;stroke-linejoin:miter;stroke-miterlimit:4;stroke-opacity:1;stroke-dasharray:6.395, 3.1975;stroke-dashoffset:0"
       sodipodi:type="arc" />
    <path
       style="fill:none;stroke:#000000;stroke-width:3.19749999;stroke-linecap:round;stroke-linejoin:round;stroke-miterlimit:4;stroke-opacity:1;stroke-dasharray:6.395, 3.1975;stroke-dashoffset:0"
       d="m 49.935183,22.885838 0,11.13656"
       id="path4156"
       sodipodi:nodetypes="cc"
       inkscape:connector-curvature="0" />
    <path
       style="fill:none;stroke:#000000;stroke-width:3.19749999;stroke-linecap:round;stroke-linejoin:round;stroke-miterlimit:4;stroke-opacity:1;stroke-dasharray:6.395, 3.1975;stroke-dashoffset:0"
       d="m 34.511418,38.26106 11.136555,0"
       id="path4158"
       sodipodi:nodetypes="cc"
       inkscape:connector-curvature="0" />
    <path
       style="fill:none;stroke:#000000;stroke-width:3.19749999;stroke-linecap:round;stroke-linejoin:round;stroke-miterlimit:4;stroke-opacity:1;stroke-dasharray:6.395, 3.1975;stroke-dashoffset:0"
       d="m 65.310413,38.26106 -11.13656,0"
       id="path4160"
       sodipodi:nodetypes="cc"
       inkscape:connector-curvature="0" />
  </g>
</svg>
