<?xml version="1.0" encoding="UTF-8" standalone="no"?>
<!-- Created with Inkscape (http://www.inkscape.org/) -->
<svg
   xmlns:svg="http://www.w3.org/2000/svg"
   xmlns="http://www.w3.org/2000/svg"
   xmlns:xlink="http://www.w3.org/1999/xlink"
   version="1.0"
   width="100"
   height="100"
   id="svg2">
  <defs
     id="defs4" />
  <g
     transform="matrix(1.2297263,0,0,1.2297263,-23.487917,-22.135476)"
     id="g3125">
    <path
       d="M 75.905748,40.256691 C 75.905748,49.979949 68.02349,57.862207 58.300231,57.862207 C 48.576973,57.862207 40.694715,49.979949 40.694715,40.256691 C 40.694715,30.533433 48.576973,22.651174 58.300231,22.651174 C 68.02349,22.651174 75.905748,30.533433 75.905748,40.256691 L 75.905748,40.256691 z"
       transform="translate(-15.296594,38.097182)"
       id="path3151"
       style="fill:#dee0de;fill-opacity:1;fill-rule:evenodd;stroke:#dedad7;stroke-width:3;stroke-linecap:butt;stroke-linejoin:miter;stroke-miterlimit:4;stroke-dasharray:none;stroke-opacity:1" />
    <use
       transform="translate(38.097182,0.288615)"
       id="use4122"
       x="0"
       y="0"
       width="100"
       height="100"
       xlink:href="#path3151" />
    <use
       transform="translate(-19.914436,-34.922417)"
       id="use4124"
       x="0"
       y="0"
       width="100"
       height="100"
       xlink:href="#use4122" />
  </g>
  <path
     d="M 75.905748,40.256691 C 75.905748,49.979949 68.02349,57.862207 58.300231,57.862207 C 48.576973,57.862207 40.694715,49.979949 40.694715,40.256691 C 40.694715,30.533433 48.576973,22.651174 58.300231,22.651174 C 68.02349,22.651174 75.905748,30.533433 75.905748,40.256691 L 75.905748,40.256691 z"
     transform="matrix(1.2297263,0,0,1.2297263,-23.625377,-24.077972)"
     id="path2168"
     style="fill:#ff0000;fill-rule:evenodd;stroke:#000000;stroke-width:3;stroke-linecap:butt;stroke-linejoin:miter;stroke-miterlimit:4;stroke-dasharray:none;stroke-opacity:1" />
  <path
     d="M 75.905748,40.256691 C 75.905748,49.979949 68.02349,57.862207 58.300231,57.862207 C 48.576973,57.862207 40.694715,49.979949 40.694715,40.256691 C 40.694715,30.533433 48.576973,22.651174 58.300231,22.651174 C 68.02349,22.651174 75.905748,30.533433 75.905748,40.256691 L 75.905748,40.256691 z"
     transform="matrix(1.2297263,0,0,1.2297263,-47.937223,16.205163)"
     id="path3141"
     style="fill:#00ff00;fill-opacity:1;fill-rule:evenodd;stroke:#000000;stroke-width:3;stroke-linecap:butt;stroke-linejoin:miter;stroke-miterlimit:4;stroke-dasharray:none;stroke-opacity:1" />
  <path
     d="M 75.905748,40.256691 C 75.905748,49.979949 68.02349,57.862207 58.300231,57.862207 C 48.576973,57.862207 40.694715,49.979949 40.694715,40.256691 C 40.694715,30.533433 48.576973,22.651174 58.300231,22.651174 C 68.02349,22.651174 75.905748,30.533433 75.905748,40.256691 L 75.905748,40.256691 z"
     transform="matrix(1.2297263,0,0,1.2297263,0.6864707,16.205163)"
     id="path3143"
     style="fill:#0000ff;fill-opacity:1;fill-rule:evenodd;stroke:#000000;stroke-width:3;stroke-linecap:butt;stroke-linejoin:miter;stroke-miterlimit:4;stroke-dasharray:none;stroke-opacity:1" />
</svg>
