<?xml version="1.0" encoding="UTF-8" standalone="no"?>
<!-- Created with Inkscape (http://www.inkscape.org/) -->

<svg
   xmlns:dc="http://purl.org/dc/elements/1.1/"
   xmlns:cc="http://creativecommons.org/ns#"
   xmlns:rdf="http://www.w3.org/1999/02/22-rdf-syntax-ns#"
   xmlns:svg="http://www.w3.org/2000/svg"
   xmlns="http://www.w3.org/2000/svg"
   xmlns:xlink="http://www.w3.org/1999/xlink"
   xmlns:sodipodi="http://sodipodi.sourceforge.net/DTD/sodipodi-0.dtd"
   xmlns:inkscape="http://www.inkscape.org/namespaces/inkscape"
   version="1.0"
   width="100"
   height="100"
   id="svg2"
   sodipodi:version="0.32"
   inkscape:version="0.48.1 r9760"
   sodipodi:docname="basic_plus.svg"
   inkscape:output_extension="org.inkscape.output.svg.inkscape">
  <metadata
     id="metadata2566">
    <rdf:RDF>
      <cc:Work
         rdf:about="">
        <dc:format>image/svg+xml</dc:format>
        <dc:type
           rdf:resource="http://purl.org/dc/dcmitype/StillImage" />
      </cc:Work>
    </rdf:RDF>
  </metadata>
  <sodipodi:namedview
     inkscape:window-height="714"
     inkscape:window-width="1024"
     inkscape:pageshadow="2"
     inkscape:pageopacity="0.0"
     guidetolerance="10.0"
     gridtolerance="10.0"
     objecttolerance="10.0"
     borderopacity="1.0"
     bordercolor="#666666"
     pagecolor="#ffffff"
     id="base"
     inkscape:zoom="3.4648232"
     inkscape:cx="8.3590556"
     inkscape:cy="65.040736"
     inkscape:window-x="0"
     inkscape:window-y="6"
     inkscape:current-layer="svg2"
     showgrid="false"
     inkscape:window-maximized="0" />
  <defs
     id="defs4">
    <linearGradient
       id="linearGradient3197">
      <stop
         style="stop-color:#e4e1e1;stop-opacity:1;"
         offset="0"
         id="stop3199" />
      <stop
         style="stop-color:#14af00;stop-opacity:1;"
         offset="1"
         id="stop3201" />
    </linearGradient>
    <linearGradient
       inkscape:collect="always"
       id="linearGradient3189">
      <stop
         style="stop-color:#000000;stop-opacity:1;"
         offset="0"
         id="stop3191" />
      <stop
         style="stop-color:#000000;stop-opacity:0;"
         offset="1"
         id="stop3193" />
    </linearGradient>
    <radialGradient
       inkscape:collect="always"
       xlink:href="#linearGradient3197"
       id="radialGradient2203"
       gradientUnits="userSpaceOnUse"
       gradientTransform="matrix(-3.1884564,0,0,1.870374,184.40316,33.485462)"
       cx="50.059151"
       cy="48.853989"
       fx="50.059151"
       fy="48.853989"
       r="42.138134" />
    <radialGradient
       inkscape:collect="always"
       xlink:href="#linearGradient3189"
       id="radialGradient2205"
       gradientUnits="userSpaceOnUse"
       gradientTransform="matrix(-3.1884564,0,0,1.870374,184.40316,33.485462)"
       cx="50.059151"
       cy="48.853989"
       fx="50.059151"
       fy="48.853989"
       r="42.138133" />
    <radialGradient
       inkscape:collect="always"
       xlink:href="#linearGradient3197"
       id="radialGradient3113"
       gradientUnits="userSpaceOnUse"
       gradientTransform="matrix(-3.1884564,0,0,1.870374,184.40316,33.485462)"
       cx="50.059151"
       cy="48.853989"
       fx="50.059151"
       fy="48.853989"
       r="42.138134" />
    <radialGradient
       inkscape:collect="always"
       xlink:href="#linearGradient3189"
       id="radialGradient3115"
       gradientUnits="userSpaceOnUse"
       gradientTransform="matrix(-3.1884564,0,0,1.870374,184.40316,33.485462)"
       cx="50.059151"
       cy="48.853989"
       fx="50.059151"
       fy="48.853989"
       r="42.138133" />
  </defs>
  <g
     id="g3107"
     transform="matrix(1.6419254,0,0,1.6217995,-8.751781,-9.1379223)">
    <path
       inkscape:connector-curvature="0"
       id="path2209"
       d="m 29.871068,13.033261 0,17.25 -17.28125,0 0,15.90625 c 1.183238,-1e-6 9.917333,-0.01082 17.28125,-0.03125 l 0,17.28125 15.875,0 c 0,-1.186848 -0.01076,-9.9171 -0.03125,-17.3125 8.481723,-0.0059 16.033439,-0.0056 17.3125,0.0625 l 0,-15.90625 -17.34375,0 c -0.0058,-8.453353 -0.0054,-15.974155 0.0625,-17.25 l -15.875,0 z"
       style="fill:#e2e2e2;fill-opacity:1;fill-rule:evenodd;stroke:#e2e2e2;stroke-width:6;stroke-linecap:round;stroke-linejoin:round;stroke-miterlimit:4;stroke-opacity:1;stroke-dasharray:none;stroke-dashoffset:0" />
    <g
       transform="translate(-16.451056,-39.115566)"
       id="g2199">
      <path
         inkscape:connector-curvature="0"
         style="fill:none;stroke:#000000;stroke-width:6;stroke-linecap:round;stroke-linejoin:round;stroke-miterlimit:4;stroke-opacity:1;stroke-dasharray:none;stroke-dashoffset:0"
         d="m 42.0625,47.75 0,17.25 -17.28125,0 0,15.90625 c 1.183238,-10e-7 9.917333,-0.01082 17.28125,-0.03125 l 0,17.28125 15.875,0 c 0,-1.186848 -0.01076,-9.9171 -0.03125,-17.3125 8.481723,-0.0059 16.033439,-0.0056 17.3125,0.0625 L 75.21875,65 57.875,65 C 57.8692,56.546647 57.8696,49.025845 57.9375,47.75 l -15.875,0 z"
         id="path3242" />
      <path
         inkscape:connector-curvature="0"
         style="fill:url(#radialGradient3113);fill-opacity:1;fill-rule:evenodd;stroke:url(#radialGradient3115);stroke-width:4.19999981;stroke-linecap:round;stroke-linejoin:round;stroke-miterlimit:4;stroke-opacity:1;stroke-dasharray:none;stroke-dashoffset:0"
         d="m 42.0625,47.734375 0,17.28125 -17.28125,0 0,15.875 c 1.183242,0 9.917332,-0.01082 17.28125,-0.03125 l 0,17.3125 15.875,0 c 0,-1.187523 -0.01075,-9.942498 -0.03125,-17.34375 8.481709,-0.0059 16.03344,-0.0056 17.3125,0.0625 l 0,-15.875 -17.34375,0 c -0.0058,-8.467533 -0.0055,-16.003797 0.0625,-17.28125 l -15.875,0 z"
         id="path3176" />
    </g>
  </g>
</svg>
