<?xml version="1.0" encoding="UTF-8" standalone="no"?>
<!-- Created with Inkscape (http://www.inkscape.org/) -->

<svg
   xmlns:dc="http://purl.org/dc/elements/1.1/"
   xmlns:cc="http://creativecommons.org/ns#"
   xmlns:rdf="http://www.w3.org/1999/02/22-rdf-syntax-ns#"
   xmlns:svg="http://www.w3.org/2000/svg"
   xmlns="http://www.w3.org/2000/svg"
   xmlns:xlink="http://www.w3.org/1999/xlink"
   version="1.0"
   width="100"
   height="100"
   id="svg2">
  <metadata
     id="metadata2566">
    <rdf:RDF>
      <cc:Work
         rdf:about="">
        <dc:format>image/svg+xml</dc:format>
        <dc:type
           rdf:resource="http://purl.org/dc/dcmitype/StillImage" />
      </cc:Work>
    </rdf:RDF>
  </metadata>
  <defs
     id="defs4" />
  <g
     transform="matrix(1.2297263,0,0,1.2297263,-23.487917,-22.135476)"
     id="g3125">
    <path
       d="m 75.905748,40.256691 a 17.605516,17.605516 0 1 1 -35.211033,0 17.605516,17.605516 0 1 1 35.211033,0 z"
       transform="translate(-15.296594,38.097182)"
       id="path3151"
       style="fill:#dee0de;fill-opacity:1;fill-rule:evenodd;stroke:#dedad7;stroke-width:3;stroke-linecap:butt;stroke-linejoin:miter;stroke-miterlimit:4;stroke-opacity:1;stroke-dasharray:none" />
    <use
       transform="translate(38.097182,0.288615)"
       id="use4122"
       x="0"
       y="0"
       width="100"
       height="100"
       xlink:href="#path3151" />
    <use
       transform="translate(-19.914436,-34.922417)"
       id="use4124"
       x="0"
       y="0"
       width="100"
       height="100"
       xlink:href="#use4122" />
  </g>
  <path
     d="m 75.905748,40.256691 a 17.605516,17.605516 0 1 1 -35.211033,0 17.605516,17.605516 0 1 1 35.211033,0 z"
     transform="matrix(1.2297263,0,0,1.2297263,-23.625377,-24.077972)"
     id="path2168"
     style="fill:#ff0000;fill-rule:evenodd;stroke:#000000;stroke-width:3;stroke-linecap:butt;stroke-linejoin:miter;stroke-miterlimit:4;stroke-opacity:1;stroke-dasharray:none" />
  <path
     d="m 75.905748,40.256691 a 17.605516,17.605516 0 1 1 -35.211033,0 17.605516,17.605516 0 1 1 35.211033,0 z"
     transform="matrix(1.2297263,0,0,1.2297263,-47.937223,16.205163)"
     id="path3141"
     style="fill:#00ff00;fill-opacity:1;fill-rule:evenodd;stroke:#000000;stroke-width:3;stroke-linecap:butt;stroke-linejoin:miter;stroke-miterlimit:4;stroke-opacity:1;stroke-dasharray:none" />
  <path
     d="m 75.905748,40.256691 a 17.605516,17.605516 0 1 1 -35.211033,0 17.605516,17.605516 0 1 1 35.211033,0 z"
     transform="matrix(1.2297263,0,0,1.2297263,0.68647072,16.205163)"
     id="path3143"
     style="fill:#0000ff;fill-opacity:1;fill-rule:evenodd;stroke:#000000;stroke-width:3;stroke-linecap:butt;stroke-linejoin:miter;stroke-miterlimit:4;stroke-opacity:1;stroke-dasharray:none" />
</svg>
