<?xml version="1.0" encoding="UTF-8" standalone="no"?>
<!-- Created with Inkscape (http://www.inkscape.org/) -->

<svg
   xmlns:dc="http://purl.org/dc/elements/1.1/"
   xmlns:cc="http://creativecommons.org/ns#"
   xmlns:rdf="http://www.w3.org/1999/02/22-rdf-syntax-ns#"
   xmlns:svg="http://www.w3.org/2000/svg"
   xmlns="http://www.w3.org/2000/svg"
   xmlns:xlink="http://www.w3.org/1999/xlink"
   xmlns:inkscape="http://www.inkscape.org/namespaces/inkscape"
   version="1.0"
   width="100"
   height="100"
   id="svg2">
  <metadata
     id="metadata2566">
    <rdf:RDF>
      <cc:Work
         rdf:about="">
        <dc:format>image/svg+xml</dc:format>
        <dc:type
           rdf:resource="http://purl.org/dc/dcmitype/StillImage" />
      </cc:Work>
    </rdf:RDF>
  </metadata>
  <defs
     id="defs4">
    <linearGradient
       id="linearGradient3613">
      <stop
         id="stop3615"
         style="stop-color:#690000;stop-opacity:1"
         offset="0" />
      <stop
         id="stop3617"
         style="stop-color:#ff0000;stop-opacity:0"
         offset="1" />
    </linearGradient>
    <linearGradient
       id="linearGradient3384">
      <stop
         id="stop3386"
         style="stop-color:#0000ff;stop-opacity:1"
         offset="0" />
      <stop
         id="stop3388"
         style="stop-color:#000000;stop-opacity:1"
         offset="1" />
    </linearGradient>
    <linearGradient
       id="linearGradient3252">
      <stop
         id="stop3254"
         style="stop-color:#ffffff;stop-opacity:1"
         offset="0" />
      <stop
         id="stop3256"
         style="stop-color:#7f7fff;stop-opacity:0"
         offset="1" />
    </linearGradient>
    <linearGradient
       x1="25.398125"
       y1="63.345894"
       x2="90.625114"
       y2="63.345894"
       id="linearGradient2600"
       xlink:href="#linearGradient3384"
       gradientUnits="userSpaceOnUse"
       gradientTransform="matrix(0.2688926,0.2688926,-0.2688926,0.2688926,38.227733,-8.4494346)" />
    <radialGradient
       cx="58.01162"
       cy="63.345894"
       r="33.113495"
       fx="58.01162"
       fy="63.345894"
       id="radialGradient2602"
       xlink:href="#linearGradient3252"
       gradientUnits="userSpaceOnUse"
       gradientTransform="matrix(0.2134373,0,0,0.2134373,19.805211,5.9610473)" />
    <linearGradient
       x1="40.687019"
       y1="39.968079"
       x2="73.02729"
       y2="39.968079"
       id="linearGradient2291"
       xlink:href="#linearGradient3613"
       gradientUnits="userSpaceOnUse"
       gradientTransform="matrix(0,-0.1877941,-0.1877941,0,69.337754,23.997868)" />
    <linearGradient
       x1="25.398125"
       y1="63.345894"
       x2="90.625114"
       y2="63.345894"
       id="linearGradient2293"
       xlink:href="#linearGradient3384"
       gradientUnits="userSpaceOnUse" />
    <radialGradient
       cx="-89.470657"
       cy="6.2001209"
       r="33.767956"
       fx="-89.470657"
       fy="6.2001209"
       id="radialGradient2295"
       xlink:href="#linearGradient3252"
       gradientUnits="userSpaceOnUse"
       gradientTransform="matrix(0.4655719,0,0,0.03531171,95.362987,-11.878067)" />
  </defs>
  <g
     transform="translate(-6.1816881,-5.5834602)"
     id="g4900">
    <path
       d="m 102.08108,69.741998 c 2.18419,6.81949 -1.5742,14.118283 -8.39407,16.301276 -6.81988,2.183 -14.11801,-1.576671 -16.29981,-8.396926 -2.18419,-6.819491 1.5742,-14.118283 8.39407,-16.30128 6.81987,-2.182996 14.11801,1.576675 16.29981,8.39693 l 0,0 z"
       inkscape:connector-curvature="0"
       id="path2358"
       style="fill:#282828;fill-opacity:1;fill-rule:evenodd;stroke:none" />
    <path
       d="m 44.99845,88.013774 c 2.18419,6.81949 -1.5742,14.118286 -8.39407,16.301276 -6.81988,2.183 -14.11801,-1.57667 -16.29981,-8.396926 -2.18419,-6.81949 1.5742,-14.118281 8.39407,-16.301278 6.81987,-2.182996 14.11801,1.576675 16.29981,8.396928 l 0,0 z"
       inkscape:connector-curvature="0"
       id="path2370"
       style="fill:#282828;fill-opacity:1;fill-rule:evenodd;stroke:none" />
    <path
       d="m 79.2958,72.451769 c 0.63719,-0.203961 1.41243,0.07797 2.15912,0.737474 1.49339,1.31901 2.34124,3.967783 1.89138,5.908816 -0.22494,0.970515 -0.74051,1.499801 -1.3777,1.703761 -0.16496,0.0528 -0.31013,0.100431 -0.50318,0.15416 L 39.81578,94.287754 37.1453,85.944934 79.2958,72.451769 z"
       inkscape:connector-curvature="0"
       id="path2328"
       style="fill:#282828;fill-opacity:1;fill-rule:evenodd;stroke:none" />
    <path
       d="m 91.48722,17.581859 c 2.18419,6.81949 -1.5742,14.118283 -8.39407,16.30128 -6.81988,2.182996 -14.11801,-1.576675 -16.29981,-8.39693 -2.18419,-6.819491 1.5742,-14.118283 8.39407,-16.30128 6.81987,-2.182996 14.11801,1.576675 16.29981,8.39693 l 0,0 z"
       inkscape:connector-curvature="0"
       id="path2350"
       style="fill:#282828;fill-opacity:1;fill-rule:evenodd;stroke:none" />
    <path
       d="m 69.54742,19.784555 c 0.63719,-0.203961 1.41243,0.07797 2.15912,0.737474 1.49339,1.31901 2.34124,3.967783 1.89138,5.908816 -0.22494,0.970515 -0.74051,1.499801 -1.3777,1.703761 -0.16496,0.0528 -0.31013,0.100431 -0.50318,0.15416 L 30.0674,41.620542 27.39692,33.277721 69.54742,19.784555 z"
       inkscape:connector-curvature="0"
       id="path2364"
       style="fill:none;stroke:#282828;stroke-width:2;stroke-linecap:round;stroke-linejoin:round;stroke-miterlimit:4;stroke-opacity:1;stroke-dasharray:2, 4;stroke-dashoffset:0" />
    <path
       d="m 61.76898,73.164962 0.99299,-27.160462 -6.99536,2.381098 -2.76971,-8.137039 -4.35913,1.483771 2.76971,8.137039 -6.99536,2.381099 17.35686,20.914494 z"
       inkscape:connector-curvature="0"
       id="path2376"
       style="fill:#282828;fill-opacity:1;fill-rule:evenodd;stroke:none" />
    <path
       d="m 34.40459,35.853638 c 2.18419,6.81949 -1.5742,14.118283 -8.39407,16.30128 -6.81988,2.182996 -14.11801,-1.576675 -16.29981,-8.39693 -2.18419,-6.819491 1.5742,-14.118283 8.39407,-16.30128 6.81987,-2.182996 14.11801,1.576675 16.29981,8.39693 l 0,0 z"
       inkscape:connector-curvature="0"
       id="path2380"
       style="fill:#282828;fill-opacity:1;fill-rule:evenodd;stroke:none" />
  </g>
  <g
     transform="matrix(0.9955618,-0.3186728,0.3186728,0.9955618,26.421557,1.375866)"
     id="g3558">
    <path
       d="m 49.066773,24.22879 c 0.0012,6.850275 -5.551709,12.404157 -12.401985,12.404157 -6.850275,0 -12.403184,-5.553882 -12.401985,-12.404157 -0.0012,-6.850276 5.55171,-12.404157 12.401985,-12.404157 6.850276,0 12.403184,5.553881 12.401985,12.404157 l 0,0 z"
       inkscape:connector-curvature="0"
       id="path3560"
       style="fill:#0000ff;fill-opacity:1;fill-rule:evenodd;stroke:#000000;stroke-width:0.38027155px;stroke-linecap:butt;stroke-linejoin:miter;stroke-opacity:1" />
    <path
       d="m 45.562914,32.95223 c -4.843029,4.844723 -12.696715,4.845411 -17.54059,0.0015 -4.843878,-4.843877 -4.843189,-12.697563 0.0015,-17.54059 4.843028,-4.844725 12.696714,-4.845413 17.540591,-0.0015 4.843875,4.843876 4.843187,12.697563 -0.0015,17.540591 l 0,0 z"
       inkscape:connector-curvature="0"
       id="path3562"
       style="opacity:0.71739131;fill:url(#linearGradient2600);fill-opacity:1;fill-rule:evenodd;stroke:none" />
    <path
       d="m 39.147988,19.481422 c 6.73e-4,3.844893 -3.11604,6.962154 -6.960935,6.962154 -3.844894,0 -6.961608,-3.117261 -6.960935,-6.962154 -6.73e-4,-3.844895 3.116041,-6.962154 6.960935,-6.962154 3.844895,0 6.961608,3.117259 6.960935,6.962154 l 0,0 z"
       inkscape:connector-curvature="0"
       id="path3564"
       style="fill:url(#radialGradient2602);fill-opacity:1;fill-rule:evenodd;stroke:none" />
  </g>
  <use
     transform="translate(10.768102,52.245236)"
     id="use2770"
     x="0"
     y="0"
     width="100"
     height="100"
     xlink:href="#g3558" />
  <g
     transform="matrix(1.3964752,-0.4470026,0.4470026,1.3964752,-28.033585,80.462092)"
     id="g2265">
    <path
       d="m 67.466951,10.330722 c 0.456285,0 0.901212,0.344306 1.249098,0.927925 0.695771,1.16724 0.695771,3.063996 0,4.231236 -0.347886,0.583619 -0.792813,0.820216 -1.249098,0.820216 -0.118125,0 -0.22232,7.54e-4 -0.358889,-0.0045 l -29.824828,0 0,-5.974199 30.183717,-6.92e-4 z"
       inkscape:connector-curvature="0"
       id="path2267"
       style="fill:#ff0000;fill-opacity:1;fill-rule:evenodd;stroke:#000000;stroke-width:0.09389705;stroke-linecap:round;stroke-linejoin:round;stroke-miterlimit:4;stroke-opacity:1;stroke-dasharray:none;stroke-dashoffset:2.63393869" />
    <path
       d="m 67.466951,10.330722 c 0.456285,0 0.901212,0.344305 1.249098,0.927924 0.695771,1.16724 0.695771,3.063997 0,4.231236 -0.347886,0.583621 -0.792813,0.820217 -1.249098,0.820217 -0.118125,0 -0.222321,7.53e-4 -0.358889,-0.0045 l -29.799318,0 0,-5.9742 30.158207,-6.91e-4 z"
       inkscape:connector-curvature="0"
       id="path2269"
       style="fill:url(#linearGradient2291);fill-opacity:1;fill-rule:evenodd;stroke:none" />
    <g
       transform="matrix(0,-0.1877941,-0.1877941,0,50.396529,11.128947)"
       id="g2271">
      <path
         d="M 90.625114,63.345894 C 90.628268,81.36006 76.025786,95.9651 58.011619,95.9651 c -18.014166,0 -32.616648,-14.60504 -32.613494,-32.619206 -0.0032,-18.014166 14.599328,-32.619206 32.613494,-32.619206 18.014167,0 32.616649,14.60504 32.613495,32.619206 l 0,0 z"
         inkscape:connector-curvature="0"
         transform="matrix(0,-0.2910472,0.4882663,0,-42.57093,87.178008)"
         id="path2273"
         style="fill:#ff0000;fill-rule:evenodd;stroke:#000000;stroke-width:1px;stroke-linecap:butt;stroke-linejoin:miter;stroke-opacity:1" />
      <path
         d="M 90.625114,63.345894 C 90.628268,81.36006 76.025786,95.9651 58.011619,95.9651 c -18.014166,0 -32.616648,-14.60504 -32.613494,-32.619206 -0.0032,-18.014166 14.599328,-32.619206 32.613494,-32.619206 18.014167,0 32.616649,14.60504 32.613495,32.619206 l 0,0 z"
         inkscape:connector-curvature="0"
         transform="matrix(0.3452564,-0.2058015,0.3452564,0.2058015,-53.442293,69.13691)"
         id="path2275"
         style="opacity:0.71739131;fill:url(#linearGradient2293);fill-opacity:1;fill-rule:evenodd;stroke:#000000;stroke-width:1px;stroke-linecap:butt;stroke-linejoin:miter;stroke-opacity:1" />
    </g>
    <rect
       width="31.442822"
       height="2.3848085"
       x="37.986553"
       y="-12.851535"
       transform="scale(1,-1)"
       id="rect2277"
       style="fill:url(#radialGradient2295);fill-opacity:1;fill-rule:evenodd;stroke:none" />
  </g>
  <path
     d="m 61.051821,12.063573 c 0.637191,-0.203961 1.412426,0.07797 2.15912,0.737474 1.493386,1.31901 2.341241,3.967783 1.891373,5.908816 -0.224935,0.970515 -0.740505,1.499801 -1.377695,1.703761 -0.164959,0.0528 -0.310128,0.100431 -0.503185,0.15416 L 21.571801,33.89956 18.901319,25.556739 61.051821,12.063573 z"
     inkscape:connector-curvature="0"
     id="path2626"
     style="fill:none;stroke:#000000;stroke-width:2;stroke-linecap:round;stroke-linejoin:round;stroke-miterlimit:4;stroke-opacity:1;stroke-dasharray:2, 4;stroke-dashoffset:0" />
  <path
     d="m 53.273377,65.44398 0.992991,-27.160462 -6.995363,2.381098 -2.769705,-8.137039 -4.359127,1.483771 2.769705,8.137039 -6.995363,2.381099 17.356862,20.914494 z"
     inkscape:connector-curvature="0"
     id="path6783"
     style="fill:#150f0e;fill-opacity:1;fill-rule:evenodd;stroke:#5c4f43;stroke-width:1.05251062;stroke-linecap:round;stroke-linejoin:round;stroke-miterlimit:4;stroke-opacity:1;stroke-dashoffset:0" />
  <use
     transform="translate(-57.031059,18.345655)"
     id="use2772"
     x="0"
     y="0"
     width="100"
     height="100"
     xlink:href="#g3558" />
  <use
     transform="translate(-46.262957,70.590891)"
     id="use2774"
     x="0"
     y="0"
     width="100"
     height="100"
     xlink:href="#g3558" />
</svg>
