<?xml version="1.0" encoding="UTF-8" standalone="no"?>
<!-- Created with Inkscape (http://www.inkscape.org/) -->

<svg
   xmlns:dc="http://purl.org/dc/elements/1.1/"
   xmlns:cc="http://creativecommons.org/ns#"
   xmlns:rdf="http://www.w3.org/1999/02/22-rdf-syntax-ns#"
   xmlns:svg="http://www.w3.org/2000/svg"
   xmlns="http://www.w3.org/2000/svg"
   xmlns:xlink="http://www.w3.org/1999/xlink"
   xmlns:sodipodi="http://sodipodi.sourceforge.net/DTD/sodipodi-0.dtd"
   xmlns:inkscape="http://www.inkscape.org/namespaces/inkscape"
   version="1.0"
   width="100"
   height="100"
   id="svg2"
   sodipodi:version="0.32"
   inkscape:version="0.48.1 r9760"
   sodipodi:docname="bond_single.svg"
   inkscape:output_extension="org.inkscape.output.svg.inkscape">
  <metadata
     id="metadata2566">
    <rdf:RDF>
      <cc:Work
         rdf:about="">
        <dc:format>image/svg+xml</dc:format>
        <dc:type
           rdf:resource="http://purl.org/dc/dcmitype/StillImage" />
      </cc:Work>
    </rdf:RDF>
  </metadata>
  <sodipodi:namedview
     inkscape:window-height="842"
     inkscape:window-width="1440"
     inkscape:pageshadow="2"
     inkscape:pageopacity="0.0"
     guidetolerance="10.0"
     gridtolerance="10.0"
     objecttolerance="10.0"
     borderopacity="1.0"
     bordercolor="#666666"
     pagecolor="#ffffff"
     id="base"
     inkscape:zoom="3.3062086"
     inkscape:cx="161.83602"
     inkscape:cy="39.219021"
     inkscape:window-x="-3"
     inkscape:window-y="-3"
     inkscape:current-layer="svg2"
     showguides="true"
     inkscape:guide-bbox="true"
     showgrid="false"
     inkscape:window-maximized="1" />
  <defs
     id="defs4">
    <linearGradient
       id="linearGradient3613">
      <stop
         style="stop-color:#00004c;stop-opacity:1;"
         offset="0"
         id="stop3615" />
      <stop
         style="stop-color:#0000ae;stop-opacity:1;"
         offset="1"
         id="stop3617" />
    </linearGradient>
    <linearGradient
       id="linearGradient3384">
      <stop
         style="stop-color:#0000ff;stop-opacity:1;"
         offset="0"
         id="stop3386" />
      <stop
         style="stop-color:#000000;stop-opacity:1"
         offset="1"
         id="stop3388" />
    </linearGradient>
    <linearGradient
       id="linearGradient3252">
      <stop
         style="stop-color:#ffffff;stop-opacity:1"
         offset="0"
         id="stop3254" />
      <stop
         style="stop-color:#7f7fff;stop-opacity:0;"
         offset="1"
         id="stop3256" />
    </linearGradient>
    <linearGradient
       inkscape:collect="always"
       xlink:href="#linearGradient3384"
       id="linearGradient3506"
       gradientUnits="userSpaceOnUse"
       gradientTransform="matrix(0.2688926,0.2688926,-0.2688926,0.2688926,38.227733,-8.4494346)"
       x1="25.398125"
       y1="63.345894"
       x2="90.625114"
       y2="63.345894" />
    <radialGradient
       inkscape:collect="always"
       xlink:href="#linearGradient3252"
       id="radialGradient3508"
       gradientUnits="userSpaceOnUse"
       gradientTransform="matrix(0.2134373,0,0,0.2134373,19.805211,5.9610473)"
       cx="58.01162"
       cy="63.345894"
       fx="58.01162"
       fy="63.345894"
       r="33.113495" />
    <linearGradient
       inkscape:collect="always"
       xlink:href="#linearGradient3613"
       id="linearGradient4250"
       gradientUnits="userSpaceOnUse"
       gradientTransform="matrix(-1.0713241e-4,-0.2753572,-0.2753572,1.0713241e-4,60.966282,48.498232)"
       x1="40.687019"
       y1="39.968079"
       x2="73.02729"
       y2="39.968079" />
    <radialGradient
       inkscape:collect="always"
       xlink:href="#linearGradient3252"
       id="radialGradient4252"
       gradientUnits="userSpaceOnUse"
       gradientTransform="matrix(0.6826551,0,0,0.05177658,99.10748,-30.75102)"
       cx="-89.470657"
       cy="6.2001209"
       fx="-89.470657"
       fy="6.2001209"
       r="33.767956" />
    <linearGradient
       inkscape:collect="always"
       xlink:href="#linearGradient3613"
       id="linearGradient3047"
       gradientUnits="userSpaceOnUse"
       gradientTransform="matrix(-1.0713241e-4,-0.2753572,-0.2753572,1.0713241e-4,60.966282,48.498232)"
       x1="40.687019"
       y1="39.968079"
       x2="73.02729"
       y2="39.968079" />
    <radialGradient
       inkscape:collect="always"
       xlink:href="#linearGradient3252"
       id="radialGradient3049"
       gradientUnits="userSpaceOnUse"
       gradientTransform="matrix(0.6826551,0,0,0.05177658,99.10748,-30.75102)"
       cx="-89.470657"
       cy="6.2001209"
       fx="-89.470657"
       fy="6.2001209"
       r="33.767956" />
  </defs>
  <path
     style="fill:#282828;fill-opacity:1;fill-rule:evenodd;stroke:none"
     d="M 47.655748,43.310068 55.482636,92.128497 67.124257,85.4072 74.942501,98.948786 82.196926,94.760451 74.378682,81.218858 86.020298,74.497565 47.655748,43.310068 z"
     id="path3688"
     inkscape:connector-curvature="0" />
  <path
     d="M 43.796986,67.256199 C 47.253127,78.061599 41.294209,89.622651 30.488208,93.076903 19.682199,96.531154 8.1221875,90.570213 4.6698337,79.7636 1.2136958,68.958194 7.1726122,57.397146 17.97861,53.942895 c 10.806,-3.454251 22.366021,2.506696 25.818376,13.313304 l 0,0 z"
     style="fill:#d5d2d2;fill-opacity:1;fill-rule:evenodd;stroke:none"
     id="path3416"
     inkscape:connector-curvature="0" />
  <g
     transform="matrix(1.5774553,-0.50424992,0.50424992,1.5774553,-49.004829,51.514532)"
     id="g3418">
    <path
       id="path3420"
       style="fill:#0000ff;fill-opacity:1;fill-rule:evenodd;stroke:#000000;stroke-width:0.38027155px;stroke-linecap:butt;stroke-linejoin:miter;stroke-opacity:1"
       d="m 49.066773,24.22879 c 0.0012,6.850275 -5.551709,12.404157 -12.401985,12.404157 -6.850275,0 -12.403184,-5.553882 -12.401985,-12.404157 -0.0012,-6.850276 5.55171,-12.404157 12.401985,-12.404157 6.850276,0 12.403184,5.553881 12.401985,12.404157 l 0,0 z"
       inkscape:connector-curvature="0" />
    <path
       id="path3422"
       style="opacity:0.71739131;fill:url(#linearGradient3506);fill-opacity:1;fill-rule:evenodd;stroke:none"
       d="m 45.562914,32.95223 c -4.843029,4.844723 -12.696715,4.845411 -17.54059,0.0015 -4.843878,-4.843877 -4.843189,-12.697563 0.0015,-17.54059 4.843028,-4.844725 12.696714,-4.845413 17.540591,-0.0015 4.843875,4.843876 4.843187,12.697563 -0.0015,17.540591 l 0,0 z"
       inkscape:connector-curvature="0" />
    <path
       id="path3424"
       style="fill:url(#radialGradient3508);fill-opacity:1;fill-rule:evenodd;stroke:none"
       d="m 39.147988,19.481422 c 6.73e-4,3.844893 -3.11604,6.962154 -6.960935,6.962154 -3.844894,0 -6.961608,-3.117261 -6.960935,-6.962154 -6.73e-4,-3.844895 3.116041,-6.962154 6.960935,-6.962154 3.844895,0 6.961608,3.117259 6.960935,6.962154 l 0,0 z"
       inkscape:connector-curvature="0" />
  </g>
  <g
     id="g2623"
     transform="matrix(-1.2988305,1.0431133,-0.65198015,-0.81181173,128.08282,29.372653)">
    <path
       sodipodi:nodetypes="cssscccc"
       d="m 58.215379,28.459546 c 0.669038,-2.6e-4 1.321619,0.504332 1.832047,1.359878 1.020856,1.711095 1.021938,4.492255 0.0024,6.204143 -0.509762,0.855943 -1.162012,1.203112 -1.83105,1.203373 -0.173203,6.7e-5 -0.325981,0.0012 -0.526231,-0.0064 l -43.731313,0.01701 -0.0034,-8.759801 44.257541,-0.01823 z"
       style="fill:#0000bc;fill-opacity:1;fill-rule:evenodd;stroke:#000000;stroke-width:0.13767864;stroke-linecap:round;stroke-linejoin:round;stroke-miterlimit:4;stroke-opacity:1;stroke-dasharray:none;stroke-dashoffset:2.63393869"
       id="path2625"
       inkscape:connector-curvature="0" />
    <path
       sodipodi:nodetypes="cssscccc"
       d="m 58.215379,28.459546 c 0.669038,-2.6e-4 1.321619,0.504331 1.832047,1.359877 1.020856,1.711094 1.021938,4.492256 0.0024,6.204143 -0.509762,0.855945 -1.162012,1.203113 -1.83105,1.203374 -0.173203,6.7e-5 -0.325982,0.0012 -0.526231,-0.0064 l -43.693909,0.017 -0.0034,-8.759803 44.220137,-0.01822 z"
       style="fill:url(#linearGradient3047);fill-opacity:1;fill-rule:evenodd;stroke:none"
       id="path2627"
       inkscape:connector-curvature="0" />
    <g
       style="fill:#00007c;fill-opacity:1"
       transform="matrix(-2.0714255e-5,-0.2753572,-0.05324084,1.0713241e-4,17.713903,29.639699)"
       id="g2629">
      <path
         d="M 90.625114,63.345894 C 90.628268,81.36006 76.025786,95.9651 58.011619,95.9651 c -18.014166,0 -32.616648,-14.60504 -32.613494,-32.619206 -0.0032,-18.014166 14.599328,-32.619206 32.613494,-32.619206 18.014167,0 32.616649,14.60504 32.613495,32.619206 l 0,0 z"
         transform="matrix(0,-0.2910472,0.4882663,0,-42.57093,87.178008)"
         style="fill:#00007c;fill-opacity:1;fill-rule:evenodd;stroke:#000000;stroke-width:1px;stroke-linecap:butt;stroke-linejoin:miter;stroke-opacity:1"
         id="path2631"
         inkscape:connector-curvature="0" />
      <path
         d="M 90.625114,63.345894 C 90.628268,81.36006 76.025786,95.9651 58.011619,95.9651 c -18.014166,0 -32.616648,-14.60504 -32.613494,-32.619206 -0.0032,-18.014166 14.599328,-32.619206 32.613494,-32.619206 18.014167,0 32.616649,14.60504 32.613495,32.619206 l 0,0 z"
         transform="matrix(0.3452564,-0.2058015,0.3452564,0.2058015,-53.442293,69.13691)"
         style="opacity:0.71739131;fill:#00007c;fill-opacity:1;fill-rule:evenodd;stroke:#000000;stroke-width:1px;stroke-linecap:butt;stroke-linejoin:miter;stroke-opacity:1"
         id="path2633"
         inkscape:connector-curvature="0" />
    </g>
    <rect
       transform="matrix(0.9999999,-3.8906696e-4,-3.8906696e-4,-0.9999999,0,0)"
       id="rect2635"
       style="fill:url(#radialGradient3049);fill-opacity:1;fill-rule:evenodd;stroke:none"
       y="-32.178391"
       x="14.978013"
       height="3.4967785"
       width="46.103737" />
  </g>
  <path
     style="fill:#ffffff;fill-opacity:1;fill-rule:evenodd;stroke:#000000;stroke-width:1.91467118;stroke-linecap:round;stroke-linejoin:round;stroke-miterlimit:4;stroke-opacity:1;stroke-dashoffset:0"
     d="m 44.958367,40.314366 7.826888,48.818426 11.641621,-6.721294 7.818244,13.54159 7.254424,-4.188343 L 71.6813,78.223156 83.322922,71.501863 44.958367,40.314366 z"
     id="path6783"
     inkscape:connector-curvature="0" />
</svg>
