<?xml version="1.0" encoding="UTF-8" standalone="no"?>
<!-- Created with Inkscape (http://www.inkscape.org/) -->

<svg
   xmlns:dc="http://purl.org/dc/elements/1.1/"
   xmlns:cc="http://creativecommons.org/ns#"
   xmlns:rdf="http://www.w3.org/1999/02/22-rdf-syntax-ns#"
   xmlns:svg="http://www.w3.org/2000/svg"
   xmlns="http://www.w3.org/2000/svg"
   xmlns:xlink="http://www.w3.org/1999/xlink"
   xmlns:inkscape="http://www.inkscape.org/namespaces/inkscape"
   version="1.0"
   width="100"
   height="100"
   id="svg2">
  <metadata
     id="metadata2566">
    <rdf:RDF>
      <cc:Work
         rdf:about="">
        <dc:format>image/svg+xml</dc:format>
        <dc:type
           rdf:resource="http://purl.org/dc/dcmitype/StillImage" />
      </cc:Work>
    </rdf:RDF>
  </metadata>
  <defs
     id="defs4">
    <radialGradient
       cx="-89.470657"
       cy="6.2001209"
       r="33.767956"
       fx="-89.470657"
       fy="6.2001209"
       id="radialGradient2608"
       xlink:href="#linearGradient3252"
       gradientUnits="userSpaceOnUse"
       gradientTransform="matrix(0.4655719,0,0,0.03531171,95.362987,-11.878067)" />
    <linearGradient
       x1="25.398125"
       y1="63.345894"
       x2="90.625114"
       y2="63.345894"
       id="linearGradient2606"
       xlink:href="#linearGradient3384"
       gradientUnits="userSpaceOnUse" />
    <linearGradient
       x1="40.687019"
       y1="39.968079"
       x2="73.02729"
       y2="39.968079"
       id="linearGradient2604"
       xlink:href="#linearGradient3613"
       gradientUnits="userSpaceOnUse"
       gradientTransform="matrix(0,-0.1877941,-0.1877941,0,69.337754,23.997868)" />
    <radialGradient
       cx="58.01162"
       cy="63.345894"
       r="33.113495"
       fx="58.01162"
       fy="63.345894"
       id="radialGradient2602"
       xlink:href="#linearGradient3252"
       gradientUnits="userSpaceOnUse"
       gradientTransform="matrix(0.2134373,0,0,0.2134373,19.805211,5.9610473)" />
    <linearGradient
       id="linearGradient3384">
      <stop
         id="stop3386"
         style="stop-color:#0000ff;stop-opacity:1"
         offset="0" />
      <stop
         id="stop3388"
         style="stop-color:#000000;stop-opacity:1"
         offset="1" />
    </linearGradient>
    <linearGradient
       x1="25.398125"
       y1="63.345894"
       x2="90.625114"
       y2="63.345894"
       id="linearGradient2600"
       xlink:href="#linearGradient3384"
       gradientUnits="userSpaceOnUse"
       gradientTransform="matrix(0.2688926,0.2688926,-0.2688926,0.2688926,38.227733,-8.4494346)" />
    <linearGradient
       id="linearGradient4249">
      <stop
         id="stop4251"
         style="stop-color:#ffffff;stop-opacity:1"
         offset="0" />
      <stop
         id="stop4253"
         style="stop-color:#000089;stop-opacity:0.99215686"
         offset="1" />
    </linearGradient>
    <linearGradient
       id="linearGradient3186">
      <stop
         id="stop3188"
         style="stop-color:#d9d9d9;stop-opacity:1"
         offset="0" />
      <stop
         id="stop3190"
         style="stop-color:#5c5c5c;stop-opacity:0.50196081"
         offset="1" />
    </linearGradient>
    <linearGradient
       id="linearGradient3613">
      <stop
         id="stop3615"
         style="stop-color:#aa0000;stop-opacity:1"
         offset="0" />
      <stop
         id="stop3617"
         style="stop-color:#bababa;stop-opacity:1"
         offset="1" />
    </linearGradient>
    <linearGradient
       id="linearGradient3252">
      <stop
         id="stop3254"
         style="stop-color:#ffffff;stop-opacity:1"
         offset="0" />
      <stop
         id="stop3256"
         style="stop-color:#bababa;stop-opacity:0"
         offset="1" />
    </linearGradient>
    <radialGradient
       cx="41.704872"
       cy="77.127258"
       r="13.920598"
       fx="41.704872"
       fy="77.127258"
       id="radialGradient3905"
       xlink:href="#linearGradient4249"
       gradientUnits="userSpaceOnUse"
       gradientTransform="matrix(-0.6426199,0.5504019,0.8173078,0.9558873,46.461125,-26.698126)" />
    <linearGradient
       x1="31.697084"
       y1="36.826233"
       x2="61.910172"
       y2="36.826233"
       id="linearGradient3908"
       xlink:href="#linearGradient3186"
       gradientUnits="userSpaceOnUse"
       gradientTransform="matrix(-0.6426199,0.5504019,0.5495525,0.6427325,67.112355,-2.5453536)" />
    <radialGradient
       cx="73.659416"
       cy="67.149292"
       r="12.988102"
       fx="73.659416"
       fy="67.149292"
       id="radialGradient3912"
       xlink:href="#linearGradient4249"
       gradientUnits="userSpaceOnUse"
       gradientTransform="matrix(-0.6426199,0.5504019,0.6797447,0.7949995,58.370041,-12.769979)" />
    <linearGradient
       x1="47.022163"
       y1="35.538288"
       x2="54.146122"
       y2="35.538288"
       id="linearGradient3915"
       xlink:href="#linearGradient3186"
       gradientUnits="userSpaceOnUse"
       gradientTransform="matrix(-0.6426199,0.5504019,0.5495525,0.6427325,67.112355,-2.5453536)" />
  </defs>
  <path
     d="M 72.556357,73.763014 39.498056,35.16537 c -1.072171,-3.247515 -1.100955,-7.580959 0.37084,-8.841546 l 31.363169,36.944555"
     inkscape:connector-curvature="0"
     id="path3175"
     style="fill:#282828;fill-opacity:1;stroke:none" />
  <path
     d="m 66.328434,75.584173 c 0.783503,1.590279 1.547802,3.659001 1.907691,5.595174 1.439556,7.744689 -1.564886,14.809751 -6.706343,15.770229 C 56.388328,97.910053 51.047215,92.404027 49.60766,84.659337 48.168104,76.91465 51.172546,69.849588 56.314,68.889111 c 1.285366,-0.240121 2.583208,-0.07608 3.829447,0.42605"
     inkscape:connector-curvature="0"
     id="path3177"
     style="fill:#282828;fill-opacity:1;stroke:none" />
  <path
     d="m 81.678046,71.571419 a 11.111678,16.018133 0 1 1 -22.223356,0 11.111678,16.018133 0 1 1 22.223356,0 z"
     transform="matrix(0.5263044,-0.09831918,0.09788908,0.526635,14.835926,52.3947)"
     id="path3179"
     style="fill:#ffffff;fill-opacity:1;stroke:none" />
  <path
     d="M 66.4684,75.790228 57.555053,27.643702 C 55.94425,24.831414 53.091151,22.107512 51.51825,22.401346 l 8.915378,47.190044"
     inkscape:connector-curvature="0"
     id="path3181"
     style="fill:#282828;fill-opacity:1;stroke:none" />
  <path
     d="m 72.358163,73.299071 c 0.891545,1.927302 2.243016,4.196461 3.77518,5.988413 6.128656,7.167806 14.966343,9.675905 19.726981,5.598434 4.760636,-4.077471 3.650361,-13.204072 -2.478294,-20.37188 -6.128657,-7.167806 -14.966344,-9.675905 -19.72698,-5.598434 -1.19016,1.019368 -2.013388,2.354307 -2.483002,3.895317"
     inkscape:connector-curvature="0"
     id="path3183"
     style="fill:#282828;fill-opacity:1;stroke:none" />
  <path
     d="m 81.678046,71.571419 a 11.111678,16.018133 0 1 1 -22.223356,0 11.111678,16.018133 0 1 1 22.223356,0 z"
     transform="matrix(-0.487322,0.4173896,0.4167456,0.4874074,89.487968,7.7906462)"
     id="path3185"
     style="fill:#ffffff;fill-opacity:1;stroke:none" />
  <path
     d="m 52.602041,43.035713 a 1.3520408,1.3520408 0 1 1 -2.704082,0 1.3520408,1.3520408 0 1 1 2.704082,0 z"
     transform="matrix(-0.6426198,0.5504019,0.5495525,0.6427325,69.19678,-1.3282839)"
     id="path3187"
     style="fill:#282828;fill-opacity:1;stroke:none" />
  <path
     d="M 70.496127,71.843533 37.437825,33.24589 c -1.072173,-3.247514 -1.100955,-7.580957 0.370839,-8.841545 l 31.363169,36.944554"
     inkscape:connector-curvature="0"
     id="rect3184"
     style="fill:url(#linearGradient3915);fill-opacity:1;stroke:#000000;stroke-width:0.59211367;stroke-miterlimit:4;stroke-opacity:1;stroke-dasharray:none" />
  <path
     d="m 58.076561,67.396903 6.177666,6.271247 c 0.783503,1.590279 1.566975,3.664142 1.926864,5.600314 1.439555,7.744689 -1.574178,14.799931 -6.715635,15.760409 -5.141457,0.960477 -10.466583,-4.543909 -11.906138,-12.288597 -1.439557,-7.744685 1.550353,-14.809051 6.691807,-15.76953 1.285365,-0.240121 2.579198,-0.07598 3.825436,0.426157 z m -0.327992,5.638739 c -0.778962,-0.296368 -1.5893,-0.385047 -2.396342,-0.234283 -3.228165,0.603054 -5.134791,4.855437 -4.269255,9.51195 0.865536,4.656512 4.178513,7.945753 7.406678,7.342694 3.228164,-0.603054 5.13479,-4.855438 4.269254,-9.51195 -0.649152,-3.492384 -2.67345,-6.219305 -5.010335,-7.108411 z"
     inkscape:connector-curvature="0"
     id="path3206"
     style="fill:url(#radialGradient3912);fill-opacity:1;stroke:#323232;stroke-width:0.57150638;stroke-miterlimit:4;stroke-opacity:1;stroke-dasharray:none" />
  <path
     d="M 64.408168,73.870747 55.494822,25.724224 C 53.884019,22.911935 51.03092,20.188033 49.45802,20.481868 l 8.915376,47.190042"
     inkscape:connector-curvature="0"
     id="path3359"
     style="fill:#ffffff;fill-opacity:1;stroke:#000000;stroke-width:0.59211367;stroke-miterlimit:4;stroke-opacity:1;stroke-dasharray:none" />
  <path
     d="m 82.294535,56.013816 c 3.15007,1.190849 6.358103,3.438475 9.039389,6.57439 6.128656,7.167807 7.235107,16.293419 2.47447,20.370891 -4.760638,4.077471 -13.614062,1.577781 -19.742718,-5.590025 -1.532164,-1.791951 -2.884193,-4.052884 -3.775737,-5.980187 L 69.119056,60.887352 c 0.469615,-1.541011 1.28199,-2.869801 2.47215,-3.889171 2.677858,-2.293576 6.653239,-2.515456 10.703329,-0.984365 z m 1.344966,5.978595 c -2.749208,-1.243143 -5.579203,-1.19978 -7.447366,0.400295 -2.98906,2.56012 -2.41377,8.142556 1.271099,12.452216 3.684869,4.309661 9.098451,5.738996 12.087511,3.178875 2.98906,-2.56012 2.413769,-8.142556 -1.271099,-12.452216 -1.381826,-1.616122 -2.99062,-2.833284 -4.640145,-3.57917 z"
     inkscape:connector-curvature="0"
     id="path3180"
     style="fill:url(#radialGradient3905);fill-opacity:1;stroke:#323232;stroke-width:0.57150638;stroke-miterlimit:4;stroke-opacity:1;stroke-dasharray:none" />
  <path
     d="m 52.602041,43.035713 a 1.3520408,1.3520408 0 1 1 -2.704082,0 1.3520408,1.3520408 0 1 1 2.704082,0 z"
     transform="matrix(-0.6426199,0.5504019,0.5495525,0.6427325,67.136548,-3.2477618)"
     id="path5309"
     style="fill:#ffffff;fill-opacity:1;stroke:#003232;stroke-width:0.2;stroke-miterlimit:4;stroke-opacity:1;stroke-dasharray:none" />
  <path
     d="m 90.495624,17.938398 c 2.18419,6.81949 -1.574202,14.118283 -8.394075,16.30128 -6.819872,2.182996 -14.118007,-1.576675 -16.29981,-8.39693 -2.18419,-6.819491 1.574203,-14.118283 8.394075,-16.3012799 6.819873,-2.182996 14.118007,1.5766749 16.29981,8.3969299 l 0,0 z"
     inkscape:connector-curvature="0"
     id="path3874"
     style="fill:#282828;fill-opacity:1;fill-rule:evenodd;stroke:none" />
  <path
     d="m 33.364064,35.515173 c 2.18419,6.81949 -1.574202,14.118283 -8.394075,16.30128 -6.819872,2.182996 -14.118008,-1.576675 -16.2998107,-8.39693 -2.18419,-6.819491 1.5742027,-14.118283 8.3940757,-16.30128 6.819873,-2.182996 14.118007,1.576675 16.29981,8.39693 l 0,0 z"
     inkscape:connector-curvature="0"
     id="path2888"
     style="fill:#282828;fill-opacity:1;fill-rule:evenodd;stroke:none" />
  <g
     transform="matrix(0.9955618,-0.3186728,0.3186728,0.9955618,31.99264,6.9665621)"
     id="g3558">
    <path
       d="m 49.066773,24.22879 c 0.0012,6.850275 -5.551709,12.404157 -12.401985,12.404157 -6.850275,0 -12.403184,-5.553882 -12.401985,-12.404157 -0.0012,-6.850276 5.55171,-12.404157 12.401985,-12.404157 6.850276,0 12.403184,5.553881 12.401985,12.404157 l 0,0 z"
       inkscape:connector-curvature="0"
       id="path3560"
       style="fill:#0000ff;fill-opacity:1;fill-rule:evenodd;stroke:#000000;stroke-width:0.38027155px;stroke-linecap:butt;stroke-linejoin:miter;stroke-opacity:1" />
    <path
       d="m 45.562914,32.95223 c -4.843029,4.844723 -12.696715,4.845411 -17.54059,0.0015 -4.843878,-4.843877 -4.843189,-12.697563 0.0015,-17.54059 4.843028,-4.844725 12.696714,-4.845413 17.540591,-0.0015 4.843875,4.843876 4.843187,12.697563 -0.0015,17.540591 l 0,0 z"
       inkscape:connector-curvature="0"
       id="path3562"
       style="opacity:0.71739131;fill:url(#linearGradient2600);fill-opacity:1;fill-rule:evenodd;stroke:none" />
    <path
       d="m 39.147988,19.481422 c 6.73e-4,3.844893 -3.11604,6.962154 -6.960935,6.962154 -3.844894,0 -6.961608,-3.117261 -6.960935,-6.962154 -6.73e-4,-3.844895 3.116041,-6.962154 6.960935,-6.962154 3.844895,0 6.961608,3.117259 6.960935,6.962154 l 0,0 z"
       inkscape:connector-curvature="0"
       id="path3564"
       style="fill:url(#radialGradient2602);fill-opacity:1;fill-rule:evenodd;stroke:none" />
  </g>
  <g
     transform="matrix(1.3964752,-0.4470026,0.4470026,1.3964752,-33.056361,33.89265)"
     id="g2569">
    <path
       d="m 67.466951,10.330722 c 0.456285,0 0.901212,0.344306 1.249098,0.927925 0.695771,1.16724 0.695771,3.063996 0,4.231236 -0.347886,0.583619 -0.792813,0.820216 -1.249098,0.820216 -0.118125,0 -0.22232,7.54e-4 -0.358889,-0.0045 l -29.824828,0 0,-5.974199 30.183717,-6.92e-4 z"
       inkscape:connector-curvature="0"
       id="path3579"
       style="fill:#ff0000;fill-opacity:1;fill-rule:evenodd;stroke:#000000;stroke-width:0.09389705;stroke-linecap:round;stroke-linejoin:round;stroke-miterlimit:4;stroke-opacity:1;stroke-dasharray:none;stroke-dashoffset:2.63393869" />
    <path
       d="m 67.466951,10.330722 c 0.456285,0 0.901212,0.344305 1.249098,0.927924 0.695771,1.16724 0.695771,3.063997 0,4.231236 -0.347886,0.583621 -0.792813,0.820217 -1.249098,0.820217 -0.118125,0 -0.222321,7.53e-4 -0.358889,-0.0045 l -29.799318,0 0,-5.9742 30.158207,-6.91e-4 z"
       inkscape:connector-curvature="0"
       id="path3591"
       style="fill:url(#linearGradient2604);fill-opacity:1;fill-rule:evenodd;stroke:none" />
    <g
       transform="matrix(0,-0.1877941,-0.1877941,0,50.396529,11.128947)"
       id="g3621">
      <path
         d="M 90.625114,63.345894 C 90.628268,81.36006 76.025786,95.9651 58.011619,95.9651 c -18.014166,0 -32.616648,-14.60504 -32.613494,-32.619206 -0.0032,-18.014166 14.599328,-32.619206 32.613494,-32.619206 18.014167,0 32.616649,14.60504 32.613495,32.619206 l 0,0 z"
         inkscape:connector-curvature="0"
         transform="matrix(0,-0.2910472,0.4882663,0,-42.57093,87.178008)"
         id="path2467"
         style="fill:#ff0000;fill-rule:evenodd;stroke:#000000;stroke-width:1px;stroke-linecap:butt;stroke-linejoin:miter;stroke-opacity:1" />
      <path
         d="M 90.625114,63.345894 C 90.628268,81.36006 76.025786,95.9651 58.011619,95.9651 c -18.014166,0 -32.616648,-14.60504 -32.613494,-32.619206 -0.0032,-18.014166 14.599328,-32.619206 32.613494,-32.619206 18.014167,0 32.616649,14.60504 32.613495,32.619206 l 0,0 z"
         inkscape:connector-curvature="0"
         transform="matrix(0.3452564,-0.2058015,0.3452564,0.2058015,-53.442293,69.13691)"
         id="path2469"
         style="opacity:0.71739131;fill:url(#linearGradient2606);fill-opacity:1;fill-rule:evenodd;stroke:#000000;stroke-width:1px;stroke-linecap:butt;stroke-linejoin:miter;stroke-opacity:1" />
    </g>
    <rect
       width="31.442822"
       height="2.3848085"
       x="37.986553"
       y="-12.851535"
       transform="scale(1,-1)"
       id="rect3640"
       style="fill:url(#radialGradient2608);fill-opacity:1;fill-rule:evenodd;stroke:none" />
  </g>
  <use
     transform="translate(-57.172805,17.963077)"
     id="use2762"
     x="0"
     y="0"
     width="100"
     height="100"
     xlink:href="#g3558" />
  <path
     d="M 64.408168,73.870747 55.494822,25.724223 C 53.884019,22.911935 51.03092,20.188033 49.45802,20.481868 l 8.915376,47.190042"
     inkscape:connector-curvature="0"
     id="path3210"
     style="fill:url(#linearGradient3908);fill-opacity:1;stroke:#000000;stroke-width:0.59211367;stroke-miterlimit:4;stroke-opacity:1;stroke-dasharray:none" />
</svg>
