<?xml version="1.0" encoding="UTF-8" standalone="no"?>
<!-- Created with Inkscape (http://www.inkscape.org/) -->
<svg
   xmlns:dc="http://purl.org/dc/elements/1.1/"
   xmlns:cc="http://web.resource.org/cc/"
   xmlns:rdf="http://www.w3.org/1999/02/22-rdf-syntax-ns#"
   xmlns:svg="http://www.w3.org/2000/svg"
   xmlns="http://www.w3.org/2000/svg"
   xmlns:xlink="http://www.w3.org/1999/xlink"
   xmlns:sodipodi="http://sodipodi.sourceforge.net/DTD/sodipodi-0.dtd"
   xmlns:inkscape="http://www.inkscape.org/namespaces/inkscape"
   version="1.0"
   width="100"
   height="100"
   id="svg2"
   sodipodi:version="0.32"
   inkscape:version="0.45.1"
   sodipodi:docname="bond_augment.svg"
   sodipodi:docbase="/home/tris/src/aten/src/gui/icons"
   inkscape:output_extension="org.inkscape.output.svg.inkscape">
  <metadata
     id="metadata2566">
    <rdf:RDF>
      <cc:Work
         rdf:about="">
        <dc:format>image/svg+xml</dc:format>
        <dc:type
           rdf:resource="http://purl.org/dc/dcmitype/StillImage" />
      </cc:Work>
    </rdf:RDF>
  </metadata>
  <sodipodi:namedview
     inkscape:window-height="729"
     inkscape:window-width="1018"
     inkscape:pageshadow="2"
     inkscape:pageopacity="0.0"
     guidetolerance="10.0"
     gridtolerance="10.0"
     objecttolerance="10.0"
     borderopacity="1.0"
     bordercolor="#666666"
     pagecolor="#ffffff"
     id="base"
     inkscape:zoom="1.8421252"
     inkscape:cx="-39.071969"
     inkscape:cy="17.937066"
     inkscape:window-x="0"
     inkscape:window-y="6"
     inkscape:current-layer="svg2"
     showguides="true"
     inkscape:guide-bbox="true" />
  <defs
     id="defs4">
    <linearGradient
       id="linearGradient3613">
      <stop
         style="stop-color:#690000;stop-opacity:1"
         offset="0"
         id="stop3615" />
      <stop
         style="stop-color:#ff0000;stop-opacity:0"
         offset="1"
         id="stop3617" />
    </linearGradient>
    <linearGradient
       id="linearGradient3384">
      <stop
         style="stop-color:#0000ff;stop-opacity:1;"
         offset="0"
         id="stop3386" />
      <stop
         style="stop-color:#000000;stop-opacity:1"
         offset="1"
         id="stop3388" />
    </linearGradient>
    <linearGradient
       id="linearGradient3252">
      <stop
         style="stop-color:#ffffff;stop-opacity:1"
         offset="0"
         id="stop3254" />
      <stop
         style="stop-color:#7f7fff;stop-opacity:0;"
         offset="1"
         id="stop3256" />
    </linearGradient>
    <linearGradient
       inkscape:collect="always"
       xlink:href="#linearGradient3384"
       id="linearGradient2409"
       gradientUnits="userSpaceOnUse"
       gradientTransform="matrix(0.2688926,0.2688926,-0.2688926,0.2688926,38.227733,-8.4494346)"
       x1="25.398125"
       y1="63.345894"
       x2="90.625114"
       y2="63.345894" />
    <radialGradient
       inkscape:collect="always"
       xlink:href="#linearGradient3252"
       id="radialGradient2411"
       gradientUnits="userSpaceOnUse"
       gradientTransform="matrix(0.2134373,0,0,0.2134373,19.805211,5.9610473)"
       cx="58.01162"
       cy="63.345894"
       fx="58.01162"
       fy="63.345894"
       r="33.113495" />
    <linearGradient
       inkscape:collect="always"
       xlink:href="#linearGradient3613"
       id="linearGradient2413"
       gradientUnits="userSpaceOnUse"
       gradientTransform="matrix(0,-0.1877941,-0.1877941,0,69.337754,23.997868)"
       x1="40.687019"
       y1="39.968079"
       x2="73.02729"
       y2="39.968079" />
    <linearGradient
       inkscape:collect="always"
       xlink:href="#linearGradient3384"
       id="linearGradient2415"
       gradientUnits="userSpaceOnUse"
       x1="25.398125"
       y1="63.345894"
       x2="90.625114"
       y2="63.345894" />
    <radialGradient
       inkscape:collect="always"
       xlink:href="#linearGradient3252"
       id="radialGradient2417"
       gradientUnits="userSpaceOnUse"
       gradientTransform="matrix(0.4655719,0,0,3.5311713e-2,95.362987,-11.878067)"
       cx="-89.470657"
       cy="6.2001209"
       fx="-89.470657"
       fy="6.2001209"
       r="33.767956" />
  </defs>
  <g
     id="g2634"
     style="fill:#282828;fill-opacity:1;stroke:none"
     transform="translate(107.3738,42.724874)">
    <path
       d="M -75.513699,-23.558616 C -73.329509,-16.739126 -77.087901,-9.4403326 -83.907774,-7.257336 C -90.727646,-5.0743397 -98.025781,-8.8340114 -100.20758,-15.654266 C -102.39177,-22.473757 -98.633381,-29.772549 -91.813509,-31.955546 C -84.993636,-34.138542 -77.695502,-30.378871 -75.513699,-23.558616 L -75.513699,-23.558616 z "
       style="fill:#282828;fill-opacity:1;fill-rule:evenodd;stroke:none;stroke-width:0.39750579px;stroke-linecap:butt;stroke-linejoin:miter;stroke-opacity:1"
       id="path2427" />
    <path
       sodipodi:nodetypes="cssscccc"
       d="M -92.295987,-14.124334 C -92.296422,-14.793372 -91.791999,-15.446084 -90.936587,-15.956736 C -89.225758,-16.978037 -86.444598,-16.979844 -84.732444,-15.960767 C -83.876368,-15.451227 -83.529029,-14.799069 -83.528594,-14.130031 C -83.528481,-13.956827 -83.527277,-13.80405 -83.53483,-13.603798 L -83.506416,30.127513 L -92.266217,30.133204 L -92.295987,-14.124334 z "
       style="fill:#282828;fill-opacity:1;fill-rule:evenodd;stroke:none;stroke-width:0.13767865;stroke-linecap:round;stroke-linejoin:round;stroke-miterlimit:4;stroke-dasharray:none;stroke-dashoffset:2.63393869;stroke-opacity:1"
       id="path2435" />
    <g
       transform="matrix(-0.2753572,1.7891066e-4,1.7891066e-4,0.2753572,-91.109309,10.904787)"
       id="g2439"
       style="fill:#282828;fill-opacity:1;stroke:none">
      <path
         d="M 90.625114,63.345894 C 90.628268,81.36006 76.025786,95.9651 58.011619,95.9651 C 39.997453,95.9651 25.394971,81.36006 25.398125,63.345894 C 25.394971,45.331728 39.997453,30.726688 58.011619,30.726688 C 76.025786,30.726688 90.628268,45.331728 90.625114,63.345894 L 90.625114,63.345894 z "
         transform="matrix(0,-0.2910472,0.4882663,0,-42.57093,87.178008)"
         style="fill:#282828;fill-opacity:1;fill-rule:evenodd;stroke:none;stroke-width:1px;stroke-linecap:butt;stroke-linejoin:miter;stroke-opacity:1"
         id="path2441" />
      <path
         d="M 90.625114,63.345894 C 90.628268,81.36006 76.025786,95.9651 58.011619,95.9651 C 39.997453,95.9651 25.394971,81.36006 25.398125,63.345894 C 25.394971,45.331728 39.997453,30.726688 58.011619,30.726688 C 76.025786,30.726688 90.628268,45.331728 90.625114,63.345894 L 90.625114,63.345894 z "
         transform="matrix(0.3452564,-0.2058015,0.3452564,0.2058015,-53.442293,69.13691)"
         style="opacity:0.71739131;fill:#282828;fill-opacity:1;fill-rule:evenodd;stroke:none;stroke-width:1px;stroke-linecap:butt;stroke-linejoin:miter;stroke-opacity:1"
         id="path2443" />
    </g>
    <path
       d="M -75.513699,32.672346 C -73.329509,39.491836 -77.087901,46.790629 -83.907774,48.973626 C -90.727646,51.156622 -98.025781,47.396951 -100.20758,40.576696 C -102.39177,33.757205 -98.633381,26.458413 -91.813509,24.275416 C -84.993636,22.09242 -77.695502,25.852091 -75.513699,32.672346 L -75.513699,32.672346 z "
       style="fill:#282828;fill-opacity:1;fill-rule:evenodd;stroke:none;stroke-width:0.39750579px;stroke-linecap:butt;stroke-linejoin:miter;stroke-opacity:1"
       id="path2449" />
    <path
       id="path2455"
       d="M -37.493213,8.6290971 L -62.838922,-1.1827199 L -62.873862,6.2066991 L -71.469269,6.1660581 L -71.49104,10.770739 L -62.895633,10.81138 L -62.930572,18.2008 L -37.493213,8.6290971 z "
       style="fill:#282828;fill-opacity:1;fill-rule:evenodd;stroke:none;stroke-width:1.05251062;stroke-linecap:round;stroke-linejoin:round;stroke-miterlimit:4;stroke-dashoffset:0;stroke-opacity:1" />
    <path
       d="M -9.3836318,-23.558616 C -7.1994418,-16.739126 -10.957834,-9.4403326 -17.777707,-7.257336 C -24.597579,-5.0743397 -31.895714,-8.8340114 -34.077517,-15.654266 C -36.261707,-22.473757 -32.503314,-29.772549 -25.683442,-31.955546 C -18.863569,-34.138542 -11.565435,-30.378871 -9.3836318,-23.558616 L -9.3836318,-23.558616 z "
       style="fill:#282828;fill-opacity:1;fill-rule:evenodd;stroke:none;stroke-width:0.39750579px;stroke-linecap:butt;stroke-linejoin:miter;stroke-opacity:1"
       id="path2461" />
    <path
       sodipodi:nodetypes="cssscccc"
       d="M -29.917917,-14.14109 C -29.918352,-14.810128 -29.413929,-15.46284 -28.558517,-15.973492 C -26.847688,-16.994793 -24.066528,-16.9966 -22.354374,-15.977523 C -21.498298,-15.467983 -21.150959,-14.815825 -21.150524,-14.146787 C -21.150411,-13.973583 -21.149207,-13.820806 -21.15676,-13.620554 L -21.128346,30.110757 L -29.888147,30.116448 L -29.917917,-14.14109 z "
       style="fill:#282828;fill-opacity:1;fill-rule:evenodd;stroke:none;stroke-width:0.13767865;stroke-linecap:round;stroke-linejoin:round;stroke-miterlimit:4;stroke-dasharray:none;stroke-dashoffset:2.63393869;stroke-opacity:1"
       id="path2470" />
    <g
       transform="matrix(-0.2753572,1.7891066e-4,1.7891066e-4,0.2753572,-28.731239,10.888031)"
       id="g2474"
       style="fill:#282828;fill-opacity:1;stroke:none">
      <path
         d="M 90.625114,63.345894 C 90.628268,81.36006 76.025786,95.9651 58.011619,95.9651 C 39.997453,95.9651 25.394971,81.36006 25.398125,63.345894 C 25.394971,45.331728 39.997453,30.726688 58.011619,30.726688 C 76.025786,30.726688 90.628268,45.331728 90.625114,63.345894 L 90.625114,63.345894 z "
         transform="matrix(0,-0.2910472,0.4882663,0,-42.57093,87.178008)"
         style="fill:#282828;fill-opacity:1;fill-rule:evenodd;stroke:none;stroke-width:1px;stroke-linecap:butt;stroke-linejoin:miter;stroke-opacity:1"
         id="path2476" />
      <path
         d="M 90.625114,63.345894 C 90.628268,81.36006 76.025786,95.9651 58.011619,95.9651 C 39.997453,95.9651 25.394971,81.36006 25.398125,63.345894 C 25.394971,45.331728 39.997453,30.726688 58.011619,30.726688 C 76.025786,30.726688 90.628268,45.331728 90.625114,63.345894 L 90.625114,63.345894 z "
         transform="matrix(0.3452564,-0.2058015,0.3452564,0.2058015,-53.442293,69.13691)"
         style="opacity:0.71739131;fill:#282828;fill-opacity:1;fill-rule:evenodd;stroke:none;stroke-width:1px;stroke-linecap:butt;stroke-linejoin:miter;stroke-opacity:1"
         id="path2478" />
    </g>
    <path
       sodipodi:nodetypes="cssscccc"
       d="M -20.970852,-14.14109 C -20.971287,-14.810128 -20.466864,-15.46284 -19.611452,-15.973492 C -17.900623,-16.994793 -15.119463,-16.9966 -13.407309,-15.977523 C -12.551233,-15.467983 -12.203894,-14.815825 -12.203459,-14.146787 C -12.203346,-13.973583 -12.202142,-13.820806 -12.209695,-13.620554 L -12.181281,30.110757 L -20.941082,30.116448 L -20.970852,-14.14109 z "
       style="fill:#282828;fill-opacity:1;fill-rule:evenodd;stroke:none;stroke-width:0.13767865;stroke-linecap:round;stroke-linejoin:round;stroke-miterlimit:4;stroke-dasharray:none;stroke-dashoffset:2.63393869;stroke-opacity:1"
       id="path2484" />
    <g
       transform="matrix(-0.2753572,1.7891066e-4,1.7891066e-4,0.2753572,-19.784174,10.888031)"
       id="g2488"
       style="fill:#282828;fill-opacity:1;stroke:none">
      <path
         d="M 90.625114,63.345894 C 90.628268,81.36006 76.025786,95.9651 58.011619,95.9651 C 39.997453,95.9651 25.394971,81.36006 25.398125,63.345894 C 25.394971,45.331728 39.997453,30.726688 58.011619,30.726688 C 76.025786,30.726688 90.628268,45.331728 90.625114,63.345894 L 90.625114,63.345894 z "
         transform="matrix(0,-0.2910472,0.4882663,0,-42.57093,87.178008)"
         style="fill:#282828;fill-opacity:1;fill-rule:evenodd;stroke:none;stroke-width:1px;stroke-linecap:butt;stroke-linejoin:miter;stroke-opacity:1"
         id="path2490" />
      <path
         d="M 90.625114,63.345894 C 90.628268,81.36006 76.025786,95.9651 58.011619,95.9651 C 39.997453,95.9651 25.394971,81.36006 25.398125,63.345894 C 25.394971,45.331728 39.997453,30.726688 58.011619,30.726688 C 76.025786,30.726688 90.628268,45.331728 90.625114,63.345894 L 90.625114,63.345894 z "
         transform="matrix(0.3452564,-0.2058015,0.3452564,0.2058015,-53.442293,69.13691)"
         style="opacity:0.71739131;fill:#282828;fill-opacity:1;fill-rule:evenodd;stroke:none;stroke-width:1px;stroke-linecap:butt;stroke-linejoin:miter;stroke-opacity:1"
         id="path2492" />
    </g>
    <path
       d="M -9.3836318,32.672346 C -7.1994418,39.491836 -10.957834,46.790629 -17.777707,48.973626 C -24.597579,51.156622 -31.895714,47.396951 -34.077517,40.576696 C -36.261707,33.757205 -32.503314,26.458413 -25.683442,24.275416 C -18.863569,22.09242 -11.565435,25.852091 -9.3836318,32.672346 L -9.3836318,32.672346 z "
       style="fill:#282828;fill-opacity:1;fill-rule:evenodd;stroke:none;stroke-width:0.39750579px;stroke-linecap:butt;stroke-linejoin:miter;stroke-opacity:1"
       id="path2498" />
  </g>
  <g
     id="g3558"
     transform="matrix(0.9955618,-0.3186728,0.3186728,0.9955618,-27.768049,8.9863848)"
     inkscape:transform-center-x="4.9064552">
    <path
       d="M 49.066773,24.22879 C 49.067972,31.079065 43.515064,36.632947 36.664788,36.632947 C 29.814513,36.632947 24.261604,31.079065 24.262803,24.22879 C 24.261604,17.378514 29.814513,11.824633 36.664788,11.824633 C 43.515064,11.824633 49.067972,17.378514 49.066773,24.22879 L 49.066773,24.22879 z "
       style="fill:#0000ff;fill-opacity:1;fill-rule:evenodd;stroke:#000000;stroke-width:0.38027155px;stroke-linecap:butt;stroke-linejoin:miter;stroke-opacity:1"
       id="path3560" />
    <path
       d="M 45.562914,32.95223 C 40.719885,37.796953 32.866199,37.797641 28.022324,32.953766 C 23.178446,28.109889 23.179135,20.256203 28.023859,15.413176 C 32.866887,10.568451 40.720573,10.567763 45.56445,15.411639 C 50.408325,20.255515 50.407637,28.109202 45.562914,32.95223 L 45.562914,32.95223 z "
       style="opacity:0.71739131;fill:url(#linearGradient2409);fill-opacity:1;fill-rule:evenodd;stroke:none;stroke-width:1px;stroke-linecap:butt;stroke-linejoin:miter;stroke-opacity:1"
       id="path3562" />
    <path
       d="M 39.147988,19.481422 C 39.148661,23.326315 36.031948,26.443576 32.187053,26.443576 C 28.342159,26.443576 25.225445,23.326315 25.226118,19.481422 C 25.225445,15.636527 28.342159,12.519268 32.187053,12.519268 C 36.031948,12.519268 39.148661,15.636527 39.147988,19.481422 L 39.147988,19.481422 z "
       style="fill:url(#radialGradient2411);fill-opacity:1;fill-rule:evenodd;stroke:none;stroke-width:1px;stroke-linecap:butt;stroke-linejoin:miter;stroke-opacity:1"
       id="path3564" />
  </g>
  <use
     x="0"
     y="0"
     xlink:href="#g3558"
     inkscape:transform-center-x="4.9064552"
     id="use2853"
     transform="translate(66.214784,4.1413758e-8)"
     width="100"
     height="100" />
  <g
     id="g2569"
     transform="matrix(-9.5269584e-4,-1.466272,1.466272,-9.5269584e-4,-3.063651,125.84042)">
    <path
       sodipodi:nodetypes="cssscccc"
       d="M 67.466951,10.330722 C 67.923236,10.330722 68.368163,10.675028 68.716049,11.258647 C 69.41182,12.425887 69.41182,14.322643 68.716049,15.489883 C 68.368163,16.073502 67.923236,16.310099 67.466951,16.310099 C 67.348826,16.310099 67.244631,16.310853 67.108062,16.305613 L 37.283234,16.305613 L 37.283234,10.331414 L 67.466951,10.330722 z "
       style="fill:#ff0000;fill-opacity:1;fill-rule:evenodd;stroke:#000000;stroke-width:0.09389705;stroke-linecap:round;stroke-linejoin:round;stroke-miterlimit:4;stroke-dasharray:none;stroke-dashoffset:2.63393869;stroke-opacity:1"
       id="path3579" />
    <path
       sodipodi:nodetypes="cssscccc"
       d="M 67.466951,10.330722 C 67.923236,10.330722 68.368163,10.675027 68.716049,11.258646 C 69.41182,12.425886 69.41182,14.322643 68.716049,15.489882 C 68.368163,16.073503 67.923236,16.310099 67.466951,16.310099 C 67.348826,16.310099 67.24463,16.310852 67.108062,16.305613 L 37.308744,16.305613 L 37.308744,10.331413 L 67.466951,10.330722 z "
       style="fill:url(#linearGradient2413);fill-opacity:1;fill-rule:evenodd;stroke:none;stroke-width:0.5;stroke-linecap:round;stroke-linejoin:round;stroke-miterlimit:4;stroke-dasharray:none;stroke-dashoffset:2.63393869;stroke-opacity:1"
       id="path3591" />
    <g
       transform="matrix(0,-0.1877941,-0.1877941,0,50.396529,11.128947)"
       id="g3621">
      <path
         d="M 90.625114,63.345894 C 90.628268,81.36006 76.025786,95.9651 58.011619,95.9651 C 39.997453,95.9651 25.394971,81.36006 25.398125,63.345894 C 25.394971,45.331728 39.997453,30.726688 58.011619,30.726688 C 76.025786,30.726688 90.628268,45.331728 90.625114,63.345894 L 90.625114,63.345894 z "
         transform="matrix(0,-0.2910472,0.4882663,0,-42.57093,87.178008)"
         style="fill:#ff0000;fill-rule:evenodd;stroke:#000000;stroke-width:1px;stroke-linecap:butt;stroke-linejoin:miter;stroke-opacity:1"
         id="path2467" />
      <path
         d="M 90.625114,63.345894 C 90.628268,81.36006 76.025786,95.9651 58.011619,95.9651 C 39.997453,95.9651 25.394971,81.36006 25.398125,63.345894 C 25.394971,45.331728 39.997453,30.726688 58.011619,30.726688 C 76.025786,30.726688 90.628268,45.331728 90.625114,63.345894 L 90.625114,63.345894 z "
         transform="matrix(0.3452564,-0.2058015,0.3452564,0.2058015,-53.442293,69.13691)"
         style="opacity:0.71739131;fill:url(#linearGradient2415);fill-opacity:1;fill-rule:evenodd;stroke:#000000;stroke-width:1px;stroke-linecap:butt;stroke-linejoin:miter;stroke-opacity:1"
         id="path2469" />
    </g>
    <rect
       transform="scale(1,-1)"
       id="rect3640"
       style="fill:url(#radialGradient2417);fill-opacity:1;fill-rule:evenodd;stroke:none;stroke-width:0.50199997;stroke-linecap:round;stroke-linejoin:round;stroke-miterlimit:4;stroke-dasharray:none;stroke-dashoffset:2.63393869;stroke-opacity:1"
       y="-12.851535"
       x="37.986553"
       height="2.3848085"
       width="31.442822" />
  </g>
  <path
     style="fill:#150f0e;fill-opacity:1;fill-rule:evenodd;stroke:#5c4f43;stroke-width:1.05251062;stroke-linecap:round;stroke-linejoin:round;stroke-miterlimit:4;stroke-dashoffset:0;stroke-opacity:1"
     d="M 66.8225,49.65911 L 41.476791,39.847293 L 41.441851,47.236712 L 32.846444,47.196071 L 32.824673,51.800752 L 41.42008,51.841393 L 41.385141,59.230813 L 66.8225,49.65911 z "
     id="path6783" />
  <use
     x="0"
     y="0"
     xlink:href="#g2569"
     id="use2849"
     transform="translate(59.881196,4.1413748e-8)"
     width="100"
     height="100" />
  <use
     x="0"
     y="0"
     xlink:href="#g2569"
     id="use2851"
     transform="translate(73.699934,4.1413748e-8)"
     width="100"
     height="100" />
  <use
     x="0"
     y="0"
     xlink:href="#g3558"
     inkscape:transform-center-x="4.9064552"
     id="use2855"
     transform="translate(0,56.042658)"
     width="100"
     height="100" />
  <use
     x="0"
     y="0"
     xlink:href="#g3558"
     inkscape:transform-center-x="4.9064552"
     id="use2857"
     transform="translate(66.406711,56.426512)"
     width="100"
     height="100" />
</svg>
