<?xml version="1.0" encoding="UTF-8" standalone="no"?>
<!-- Created with Inkscape (http://www.inkscape.org/) -->
<svg
   xmlns:dc="http://purl.org/dc/elements/1.1/"
   xmlns:cc="http://creativecommons.org/ns#"
   xmlns:rdf="http://www.w3.org/1999/02/22-rdf-syntax-ns#"
   xmlns:svg="http://www.w3.org/2000/svg"
   xmlns="http://www.w3.org/2000/svg"
   xmlns:xlink="http://www.w3.org/1999/xlink"
   xmlns:sodipodi="http://sodipodi.sourceforge.net/DTD/sodipodi-0.dtd"
   xmlns:inkscape="http://www.inkscape.org/namespaces/inkscape"
   version="1.0"
   width="100"
   height="100"
   id="svg2"
   sodipodi:version="0.32"
   inkscape:version="0.46"
   sodipodi:docname="build_transmutesel.svg"
   sodipodi:docbase="/home/tris/src/aten/src/gui-qt/icons"
   inkscape:output_extension="org.inkscape.output.svg.inkscape">
  <metadata
     id="metadata2566">
    <rdf:RDF>
      <cc:Work
         rdf:about="">
        <dc:format>image/svg+xml</dc:format>
        <dc:type
           rdf:resource="http://purl.org/dc/dcmitype/StillImage" />
      </cc:Work>
    </rdf:RDF>
  </metadata>
  <sodipodi:namedview
     inkscape:window-height="731"
     inkscape:window-width="1024"
     inkscape:pageshadow="2"
     inkscape:pageopacity="0.0"
     guidetolerance="10.0"
     gridtolerance="10.0"
     objecttolerance="10.0"
     borderopacity="1.0"
     bordercolor="#666666"
     pagecolor="#ffffff"
     id="base"
     inkscape:zoom="0.54149691"
     inkscape:cx="-104.81151"
     inkscape:cy="-10.417829"
     inkscape:window-x="20"
     inkscape:window-y="121"
     inkscape:current-layer="svg2"
     showgrid="false" />
  <defs
     id="defs4">
    <inkscape:perspective
       sodipodi:type="inkscape:persp3d"
       inkscape:vp_x="0 : 50 : 1"
       inkscape:vp_y="0 : 1000 : 0"
       inkscape:vp_z="100 : 50 : 1"
       inkscape:persp3d-origin="50 : 33.333333 : 1"
       id="perspective42" />
    <linearGradient
       id="linearGradient3458">
      <stop
         id="stop3460"
         offset="0"
         style="stop-color:#ffffff;stop-opacity:1" />
      <stop
         id="stop3462"
         offset="1"
         style="stop-color:#a2a5aa;stop-opacity:0;" />
    </linearGradient>
    <linearGradient
       id="linearGradient3452">
      <stop
         id="stop3454"
         offset="0"
         style="stop-color:#ffffff;stop-opacity:1;" />
      <stop
         id="stop3456"
         offset="1"
         style="stop-color:#000000;stop-opacity:1" />
    </linearGradient>
    <linearGradient
       id="linearGradient3384">
      <stop
         style="stop-color:#0000ff;stop-opacity:1;"
         offset="0"
         id="stop3386" />
      <stop
         style="stop-color:#000000;stop-opacity:1"
         offset="1"
         id="stop3388" />
    </linearGradient>
    <linearGradient
       id="linearGradient3252">
      <stop
         style="stop-color:#ffffff;stop-opacity:1"
         offset="0"
         id="stop3254" />
      <stop
         style="stop-color:#7f7fff;stop-opacity:0;"
         offset="1"
         id="stop3256" />
    </linearGradient>
    <linearGradient
       inkscape:collect="always"
       xlink:href="#linearGradient3384"
       id="linearGradient2472"
       gradientUnits="userSpaceOnUse"
       gradientTransform="matrix(0.2688926,0.2688926,-0.2688926,0.2688926,38.227733,-8.4494346)"
       x1="25.398125"
       y1="63.345894"
       x2="90.625114"
       y2="63.345894" />
    <radialGradient
       inkscape:collect="always"
       xlink:href="#linearGradient3252"
       id="radialGradient2474"
       gradientUnits="userSpaceOnUse"
       gradientTransform="matrix(0.2134373,0,0,0.2134373,19.805211,5.9610473)"
       cx="58.01162"
       cy="63.345894"
       fx="58.01162"
       fy="63.345894"
       r="33.113495" />
    <radialGradient
       inkscape:collect="always"
       xlink:href="#linearGradient3458"
       id="radialGradient2477"
       gradientUnits="userSpaceOnUse"
       gradientTransform="matrix(0.2134373,0,0,0.2134373,1.5077702,24.669151)"
       cx="58.01162"
       cy="63.345894"
       fx="58.01162"
       fy="63.345894"
       r="33.113495" />
    <linearGradient
       inkscape:collect="always"
       xlink:href="#linearGradient3452"
       id="linearGradient2480"
       gradientUnits="userSpaceOnUse"
       gradientTransform="matrix(0.2688926,0.2688926,-0.2688926,0.2688926,19.930292,10.258669)"
       x1="25.398125"
       y1="63.345894"
       x2="90.625114"
       y2="63.345894" />
    <linearGradient
       inkscape:collect="always"
       xlink:href="#linearGradient3452"
       id="linearGradient2839"
       gradientUnits="userSpaceOnUse"
       gradientTransform="matrix(0.2688926,0.2688926,-0.2688926,0.2688926,12.488866,-16.659741)"
       x1="25.398125"
       y1="63.345894"
       x2="90.625114"
       y2="63.345894" />
    <radialGradient
       inkscape:collect="always"
       xlink:href="#linearGradient3458"
       id="radialGradient2841"
       gradientUnits="userSpaceOnUse"
       gradientTransform="matrix(0.2134373,0,0,0.2134373,-5.933656,-2.2492591)"
       cx="58.01162"
       cy="63.345894"
       fx="58.01162"
       fy="63.345894"
       r="33.113495" />
    <linearGradient
       inkscape:collect="always"
       xlink:href="#linearGradient3384"
       id="linearGradient2843"
       gradientUnits="userSpaceOnUse"
       gradientTransform="matrix(0.2688926,0.2688926,-0.2688926,0.2688926,38.227733,-8.4494346)"
       x1="25.398125"
       y1="63.345894"
       x2="90.625114"
       y2="63.345894" />
    <radialGradient
       inkscape:collect="always"
       xlink:href="#linearGradient3252"
       id="radialGradient2845"
       gradientUnits="userSpaceOnUse"
       gradientTransform="matrix(0.2134373,0,0,0.2134373,19.805211,5.9610473)"
       cx="58.01162"
       cy="63.345894"
       fx="58.01162"
       fy="63.345894"
       r="33.113495" />
    <linearGradient
       inkscape:collect="always"
       xlink:href="#linearGradient3452"
       id="linearGradient2871"
       gradientUnits="userSpaceOnUse"
       gradientTransform="matrix(0.2688926,0.2688926,-0.2688926,0.2688926,12.488866,-16.659741)"
       x1="25.398125"
       y1="63.345894"
       x2="90.625114"
       y2="63.345894" />
    <radialGradient
       inkscape:collect="always"
       xlink:href="#linearGradient3458"
       id="radialGradient2873"
       gradientUnits="userSpaceOnUse"
       gradientTransform="matrix(0.2134373,0,0,0.2134373,-5.933656,-2.2492591)"
       cx="58.01162"
       cy="63.345894"
       fx="58.01162"
       fy="63.345894"
       r="33.113495" />
    <linearGradient
       inkscape:collect="always"
       xlink:href="#linearGradient3384"
       id="linearGradient2875"
       gradientUnits="userSpaceOnUse"
       gradientTransform="matrix(0.2688926,0.2688926,-0.2688926,0.2688926,38.227733,-8.4494346)"
       x1="25.398125"
       y1="63.345894"
       x2="90.625114"
       y2="63.345894" />
    <radialGradient
       inkscape:collect="always"
       xlink:href="#linearGradient3252"
       id="radialGradient2877"
       gradientUnits="userSpaceOnUse"
       gradientTransform="matrix(0.2134373,0,0,0.2134373,19.805211,5.9610473)"
       cx="58.01162"
       cy="63.345894"
       fx="58.01162"
       fy="63.345894"
       r="33.113495" />
    <radialGradient
       inkscape:collect="always"
       xlink:href="#linearGradient3458"
       id="radialGradient2885"
       gradientUnits="userSpaceOnUse"
       gradientTransform="matrix(0.2134373,0,0,0.2134373,1.5077701,-5.019358)"
       cx="58.01162"
       cy="63.345894"
       fx="58.01162"
       fy="63.345894"
       r="33.113495" />
    <linearGradient
       inkscape:collect="always"
       xlink:href="#linearGradient3452"
       id="linearGradient2888"
       gradientUnits="userSpaceOnUse"
       gradientTransform="matrix(0.2688926,0.2688926,-0.2688926,0.2688926,19.930292,-19.42984)"
       x1="25.398125"
       y1="63.345894"
       x2="90.625114"
       y2="63.345894" />
    <linearGradient
       inkscape:collect="always"
       xlink:href="#linearGradient3452"
       id="linearGradient2893"
       gradientUnits="userSpaceOnUse"
       gradientTransform="matrix(0.2688926,0.2688926,-0.2688926,0.2688926,19.930292,10.258669)"
       x1="25.398125"
       y1="63.345894"
       x2="90.625114"
       y2="63.345894" />
    <radialGradient
       inkscape:collect="always"
       xlink:href="#linearGradient3458"
       id="radialGradient2895"
       gradientUnits="userSpaceOnUse"
       gradientTransform="matrix(0.2134373,0,0,0.2134373,1.5077702,24.669151)"
       cx="58.01162"
       cy="63.345894"
       fx="58.01162"
       fy="63.345894"
       r="33.113495" />
    <linearGradient
       inkscape:collect="always"
       xlink:href="#linearGradient3384"
       id="linearGradient2897"
       gradientUnits="userSpaceOnUse"
       gradientTransform="matrix(0.2688926,0.2688926,-0.2688926,0.2688926,38.227733,-8.4494346)"
       x1="25.398125"
       y1="63.345894"
       x2="90.625114"
       y2="63.345894" />
    <radialGradient
       inkscape:collect="always"
       xlink:href="#linearGradient3252"
       id="radialGradient2899"
       gradientUnits="userSpaceOnUse"
       gradientTransform="matrix(0.2134373,0,0,0.2134373,19.805211,5.9610473)"
       cx="58.01162"
       cy="63.345894"
       fx="58.01162"
       fy="63.345894"
       r="33.113495" />
    <radialGradient
       inkscape:collect="always"
       xlink:href="#linearGradient3458"
       id="radialGradient2907"
       gradientUnits="userSpaceOnUse"
       gradientTransform="matrix(0.2134373,0,0,0.2134373,1.5077702,24.669151)"
       cx="58.01162"
       cy="63.345894"
       fx="58.01162"
       fy="63.345894"
       r="33.113495" />
    <linearGradient
       inkscape:collect="always"
       xlink:href="#linearGradient3452"
       id="linearGradient2910"
       gradientUnits="userSpaceOnUse"
       gradientTransform="matrix(0.2688926,0.2688926,-0.2688926,0.2688926,19.930292,10.258669)"
       x1="25.398125"
       y1="63.345894"
       x2="90.625114"
       y2="63.345894" />
  </defs>
  <rect
     style="fill:#282828;fill-opacity:1;fill-rule:evenodd;stroke:none;stroke-width:1.5;stroke-linecap:round;stroke-linejoin:round;stroke-miterlimit:4;stroke-dasharray:none;stroke-dashoffset:0;stroke-opacity:1"
     id="rect4441"
     width="29.618961"
     height="29.618961"
     x="8.1732807"
     y="70.870705" />
  <rect
     style="fill:#282828;fill-opacity:1;fill-rule:evenodd;stroke:none;stroke-width:1.5;stroke-linecap:round;stroke-linejoin:round;stroke-miterlimit:4;stroke-dasharray:none;stroke-dashoffset:0;stroke-opacity:1"
     id="rect4447"
     width="29.618961"
     height="29.618961"
     x="70.158958"
     y="70.870705" />
  <g
     id="g2219"
     transform="matrix(1.5408162,0,0,1.5408162,-3.6468576,57.77771)">
    <rect
       y="4.7034764"
       x="4.4989777"
       height="19.222904"
       width="19.222904"
       id="rect2217"
       style="opacity:1;fill:#e4e7e1;fill-opacity:1;fill-rule:evenodd;stroke:#000000;stroke-width:1.5;stroke-linecap:round;stroke-linejoin:round;stroke-miterlimit:4;stroke-dasharray:none;stroke-dashoffset:0;stroke-opacity:1" />
    <path
       id="text3300"
       d="M 10.1248,8.9966755 L 11.308393,8.9966755 L 11.308393,12.582613 L 15.609175,12.582613 L 15.609175,8.9966755 L 16.792768,8.9966755 L 16.792768,17.744722 L 15.609175,17.744722 L 15.609175,13.578707 L 11.308393,13.578707 L 11.308393,17.744722 L 10.1248,17.744722 L 10.1248,8.9966755"
       style="font-size:12px;font-style:normal;font-weight:normal;fill:#000000;fill-opacity:1;stroke:none;stroke-width:1px;stroke-linecap:butt;stroke-linejoin:miter;stroke-opacity:1;font-family:Bitstream Vera Sans" />
  </g>
  <g
     id="g2215"
     transform="matrix(1.5408162,0,0,1.5408162,58.691024,16.657637)">
    <rect
       y="31.390678"
       x="4.2703981"
       height="19.222904"
       width="19.222904"
       id="rect3191"
       style="fill:#004fe1;fill-opacity:1;fill-rule:evenodd;stroke:#000000;stroke-width:1.5;stroke-linecap:round;stroke-linejoin:round;stroke-miterlimit:4;stroke-dasharray:none;stroke-dashoffset:0;stroke-opacity:1" />
    <path
       id="text3342"
       d="M 9.2428141,36.652134 L 10.426408,36.652134 L 10.426408,44.404087 L 14.686173,44.404087 L 14.686173,45.400181 L 9.2428141,45.400181 L 9.2428141,36.652134 M 15.875627,38.837681 L 16.953752,38.837681 L 16.953752,45.400181 L 15.875627,45.400181 L 15.875627,38.837681 M 15.875627,36.282993 L 16.953752,36.282993 L 16.953752,37.648228 L 15.875627,37.648228 L 15.875627,36.282993"
       style="font-size:12px;font-style:normal;font-weight:normal;fill:#000000;fill-opacity:1;stroke:none;stroke-width:1px;stroke-linecap:butt;stroke-linejoin:miter;stroke-opacity:1;font-family:Bitstream Vera Sans" />
  </g>
  <path
     id="path4435"
     style="fill:#282828;fill-opacity:1;fill-rule:evenodd;stroke:none;stroke-width:0.38027155px;stroke-linecap:butt;stroke-linejoin:miter;stroke-opacity:1"
     d="M 33.941707,46.730861 C 33.942906,53.581136 28.389998,59.135018 21.539722,59.135018 C 14.689447,59.135018 9.136538,53.581136 9.137737,46.730861 C 9.136538,39.880585 14.689447,34.326704 21.539722,34.326704 C 28.389998,34.326704 33.942906,39.880585 33.941707,46.730861 L 33.941707,46.730861 z" />
  <path
     id="path4457"
     style="fill:#282828;fill-opacity:1;fill-rule:evenodd;stroke:none;stroke-width:0.38027155px;stroke-linecap:butt;stroke-linejoin:miter;stroke-opacity:1"
     d="M 96.365741,46.730861 C 96.36694,53.581136 90.814032,59.135018 83.963756,59.135018 C 77.113481,59.135018 71.560572,53.581136 71.561771,46.730861 C 71.560572,39.880585 77.113481,34.326704 83.963756,34.326704 C 90.814032,34.326704 96.36694,39.880585 96.365741,46.730861 L 96.365741,46.730861 z" />
  <path
     id="path3474"
     style="fill:#e4e4e3;fill-opacity:1;fill-rule:evenodd;stroke:#000000;stroke-width:0.38027155px;stroke-linecap:butt;stroke-linejoin:miter;stroke-opacity:1"
     d="M 30.769332,42.936894 C 30.770531,49.787169 25.217623,55.341051 18.367347,55.341051 C 11.517072,55.341051 5.9641632,49.787169 5.9653622,42.936894 C 5.9641632,36.086618 11.517072,30.532737 18.367347,30.532737 C 25.217623,30.532737 30.770531,36.086618 30.769332,42.936894 L 30.769332,42.936894 z" />
  <path
     id="path3476"
     style="opacity:0.71739131;fill:url(#linearGradient2910);fill-opacity:1;fill-rule:evenodd;stroke:none;stroke-width:1px;stroke-linecap:butt;stroke-linejoin:miter;stroke-opacity:1"
     d="M 27.265473,51.660334 C 22.422444,56.505057 14.568758,56.505745 9.7248832,51.66187 C 4.8810052,46.817993 4.8816942,38.964307 9.7264182,34.12128 C 14.569446,29.276555 22.423132,29.275867 27.267009,34.119743 C 32.110884,38.963619 32.110196,46.817306 27.265473,51.660334 L 27.265473,51.660334 z" />
  <path
     id="path3478"
     style="fill:url(#radialGradient2907);fill-opacity:1;fill-rule:evenodd;stroke:none;stroke-width:1px;stroke-linecap:butt;stroke-linejoin:miter;stroke-opacity:1"
     d="M 20.850547,38.189526 C 20.85122,42.034419 17.734507,45.15168 13.889612,45.15168 C 10.044718,45.15168 6.9280042,42.034419 6.9286772,38.189526 C 6.9280042,34.344631 10.044718,31.227372 13.889612,31.227372 C 17.734507,31.227372 20.85122,34.344631 20.850547,38.189526 L 20.850547,38.189526 z" />
  <g
     id="g2464"
     transform="translate(44.126593,18.708104)">
    <path
       d="M 49.066773,24.22879 C 49.067972,31.079065 43.515064,36.632947 36.664788,36.632947 C 29.814513,36.632947 24.261604,31.079065 24.262803,24.22879 C 24.261604,17.378514 29.814513,11.824633 36.664788,11.824633 C 43.515064,11.824633 49.067972,17.378514 49.066773,24.22879 L 49.066773,24.22879 z"
       style="fill:#0000ff;fill-opacity:1;fill-rule:evenodd;stroke:#000000;stroke-width:0.38027155px;stroke-linecap:butt;stroke-linejoin:miter;stroke-opacity:1"
       id="path2466" />
    <path
       d="M 45.562914,32.95223 C 40.719885,37.796953 32.866199,37.797641 28.022324,32.953766 C 23.178446,28.109889 23.179135,20.256203 28.023859,15.413176 C 32.866887,10.568451 40.720573,10.567763 45.56445,15.411639 C 50.408325,20.255515 50.407637,28.109202 45.562914,32.95223 L 45.562914,32.95223 z"
       style="opacity:0.71739131;fill:url(#linearGradient2897);fill-opacity:1;fill-rule:evenodd;stroke:none;stroke-width:1px;stroke-linecap:butt;stroke-linejoin:miter;stroke-opacity:1"
       id="path2468" />
    <path
       d="M 39.147988,19.481422 C 39.148661,23.326315 36.031948,26.443576 32.187053,26.443576 C 28.342159,26.443576 25.225445,23.326315 25.226118,19.481422 C 25.225445,15.636527 28.342159,12.519268 32.187053,12.519268 C 36.031948,12.519268 39.148661,15.636527 39.147988,19.481422 L 39.147988,19.481422 z"
       style="fill:url(#radialGradient2899);fill-opacity:1;fill-rule:evenodd;stroke:none;stroke-width:1px;stroke-linecap:butt;stroke-linejoin:miter;stroke-opacity:1"
       id="path2470" />
  </g>
  <path
     style="fill:#000000;fill-opacity:1;fill-rule:evenodd;stroke:#000000;stroke-width:0.8975141;stroke-linecap:round;stroke-linejoin:round;stroke-miterlimit:4;stroke-dashoffset:0;stroke-opacity:1"
     d="M 66.70552,29.589812 L 42.397467,22.242328 L 42.403582,27.857088 L 34.177663,27.862737 L 34.181474,31.36155 L 42.407392,31.355902 L 42.413507,36.970663 L 66.70552,29.589812 z"
     id="path3464" />
  <path
     id="path2819"
     style="fill:#282828;fill-opacity:1;fill-rule:evenodd;stroke:none;stroke-width:0.38027155px;stroke-linecap:butt;stroke-linejoin:miter;stroke-opacity:1"
     d="M 33.941707,17.042352 C 33.942906,23.892627 28.389998,29.446509 21.539722,29.446509 C 14.689447,29.446509 9.1365379,23.892627 9.1377369,17.042352 C 9.1365379,10.192076 14.689447,4.638195 21.539722,4.638195 C 28.389998,4.638195 33.942906,10.192076 33.941707,17.042352 L 33.941707,17.042352 z" />
  <path
     id="path2821"
     style="fill:#282828;fill-opacity:1;fill-rule:evenodd;stroke:none;stroke-width:0.38027155px;stroke-linecap:butt;stroke-linejoin:miter;stroke-opacity:1"
     d="M 96.365741,17.042352 C 96.36694,23.892627 90.814032,29.446509 83.963756,29.446509 C 77.113481,29.446509 71.560572,23.892627 71.561771,17.042352 C 71.560572,10.192076 77.113481,4.638195 83.963756,4.638195 C 90.814032,4.638195 96.36694,10.192076 96.365741,17.042352 L 96.365741,17.042352 z" />
  <path
     id="path2823"
     style="fill:#e4e4e3;fill-opacity:1;fill-rule:evenodd;stroke:#000000;stroke-width:0.38027155px;stroke-linecap:butt;stroke-linejoin:miter;stroke-opacity:1"
     d="M 30.769332,13.248385 C 30.770531,20.09866 25.217623,25.652542 18.367347,25.652542 C 11.517072,25.652542 5.9641631,20.09866 5.9653621,13.248385 C 5.9641631,6.398109 11.517072,0.844228 18.367347,0.844228 C 25.217623,0.844228 30.770531,6.398109 30.769332,13.248385 L 30.769332,13.248385 z" />
  <path
     id="path2825"
     style="opacity:0.71739131;fill:url(#linearGradient2888);fill-opacity:1;fill-rule:evenodd;stroke:none;stroke-width:1px;stroke-linecap:butt;stroke-linejoin:miter;stroke-opacity:1"
     d="M 27.265473,21.971825 C 22.422444,26.816548 14.568758,26.817236 9.7248831,21.973361 C 4.8810051,17.129484 4.8816941,9.2757981 9.7264181,4.432771 C 14.569446,-0.411954 22.423132,-0.412642 27.267009,4.431234 C 32.110884,9.2751101 32.110196,17.128797 27.265473,21.971825 L 27.265473,21.971825 z" />
  <path
     id="path2827"
     style="fill:url(#radialGradient2885);fill-opacity:1;fill-rule:evenodd;stroke:none;stroke-width:1px;stroke-linecap:butt;stroke-linejoin:miter;stroke-opacity:1"
     d="M 20.850547,8.5010171 C 20.85122,12.34591 17.734507,15.463171 13.889612,15.463171 C 10.044718,15.463171 6.9280041,12.34591 6.9286771,8.5010171 C 6.9280041,4.656122 10.044718,1.538863 13.889612,1.538863 C 17.734507,1.538863 20.85122,4.656122 20.850547,8.5010171 L 20.850547,8.5010171 z" />
  <g
     id="g2829"
     transform="translate(44.126593,-10.980405)">
    <path
       d="M 49.066773,24.22879 C 49.067972,31.079065 43.515064,36.632947 36.664788,36.632947 C 29.814513,36.632947 24.261604,31.079065 24.262803,24.22879 C 24.261604,17.378514 29.814513,11.824633 36.664788,11.824633 C 43.515064,11.824633 49.067972,17.378514 49.066773,24.22879 L 49.066773,24.22879 z"
       style="fill:#0000ff;fill-opacity:1;fill-rule:evenodd;stroke:#000000;stroke-width:0.38027155px;stroke-linecap:butt;stroke-linejoin:miter;stroke-opacity:1"
       id="path2831" />
    <path
       d="M 45.562914,32.95223 C 40.719885,37.796953 32.866199,37.797641 28.022324,32.953766 C 23.178446,28.109889 23.179135,20.256203 28.023859,15.413176 C 32.866887,10.568451 40.720573,10.567763 45.56445,15.411639 C 50.408325,20.255515 50.407637,28.109202 45.562914,32.95223 L 45.562914,32.95223 z"
       style="opacity:0.71739131;fill:url(#linearGradient2875);fill-opacity:1;fill-rule:evenodd;stroke:none;stroke-width:1px;stroke-linecap:butt;stroke-linejoin:miter;stroke-opacity:1"
       id="path2833" />
    <path
       d="M 39.147988,19.481422 C 39.148661,23.326315 36.031948,26.443576 32.187053,26.443576 C 28.342159,26.443576 25.225445,23.326315 25.226118,19.481422 C 25.225445,15.636527 28.342159,12.519268 32.187053,12.519268 C 36.031948,12.519268 39.148661,15.636527 39.147988,19.481422 L 39.147988,19.481422 z"
       style="fill:url(#radialGradient2877);fill-opacity:1;fill-rule:evenodd;stroke:none;stroke-width:1px;stroke-linecap:butt;stroke-linejoin:miter;stroke-opacity:1"
       id="path2835" />
  </g>
</svg>
