<?xml version="1.0" encoding="UTF-8" standalone="no"?>
<!-- Created with Inkscape (http://www.inkscape.org/) -->

<svg
   xmlns:dc="http://purl.org/dc/elements/1.1/"
   xmlns:cc="http://creativecommons.org/ns#"
   xmlns:rdf="http://www.w3.org/1999/02/22-rdf-syntax-ns#"
   xmlns:svg="http://www.w3.org/2000/svg"
   xmlns="http://www.w3.org/2000/svg"
   xmlns:xlink="http://www.w3.org/1999/xlink"
   xmlns:inkscape="http://www.inkscape.org/namespaces/inkscape"
   version="1.0"
   width="100"
   height="100"
   id="svg2">
  <metadata
     id="metadata2566">
    <rdf:RDF>
      <cc:Work
         rdf:about="">
        <dc:format>image/svg+xml</dc:format>
        <dc:type
           rdf:resource="http://purl.org/dc/dcmitype/StillImage" />
      </cc:Work>
    </rdf:RDF>
  </metadata>
  <defs
     id="defs4">
    <linearGradient
       id="linearGradient3458">
      <stop
         id="stop3460"
         style="stop-color:#ffffff;stop-opacity:1"
         offset="0" />
      <stop
         id="stop3462"
         style="stop-color:#a2a5aa;stop-opacity:0"
         offset="1" />
    </linearGradient>
    <linearGradient
       id="linearGradient3452">
      <stop
         id="stop3454"
         style="stop-color:#ffffff;stop-opacity:1"
         offset="0" />
      <stop
         id="stop3456"
         style="stop-color:#000000;stop-opacity:1"
         offset="1" />
    </linearGradient>
    <linearGradient
       id="linearGradient3384">
      <stop
         id="stop3386"
         style="stop-color:#0000ff;stop-opacity:1"
         offset="0" />
      <stop
         id="stop3388"
         style="stop-color:#000000;stop-opacity:1"
         offset="1" />
    </linearGradient>
    <linearGradient
       id="linearGradient3252">
      <stop
         id="stop3254"
         style="stop-color:#ffffff;stop-opacity:1"
         offset="0" />
      <stop
         id="stop3256"
         style="stop-color:#7f7fff;stop-opacity:0"
         offset="1" />
    </linearGradient>
    <linearGradient
       x1="25.398125"
       y1="63.345894"
       x2="90.625114"
       y2="63.345894"
       id="linearGradient2875"
       xlink:href="#linearGradient3384"
       gradientUnits="userSpaceOnUse"
       gradientTransform="matrix(0.2688926,0.2688926,-0.2688926,0.2688926,38.227733,-8.4494346)" />
    <radialGradient
       cx="58.01162"
       cy="63.345894"
       r="33.113495"
       fx="58.01162"
       fy="63.345894"
       id="radialGradient2877"
       xlink:href="#linearGradient3252"
       gradientUnits="userSpaceOnUse"
       gradientTransform="matrix(0.2134373,0,0,0.2134373,19.805211,5.9610473)" />
    <radialGradient
       cx="58.01162"
       cy="63.345894"
       r="33.113495"
       fx="58.01162"
       fy="63.345894"
       id="radialGradient2885"
       xlink:href="#linearGradient3458"
       gradientUnits="userSpaceOnUse"
       gradientTransform="matrix(0.2134373,0,0,0.2134373,1.5077701,-5.019358)" />
    <linearGradient
       x1="25.398125"
       y1="63.345894"
       x2="90.625114"
       y2="63.345894"
       id="linearGradient2888"
       xlink:href="#linearGradient3452"
       gradientUnits="userSpaceOnUse"
       gradientTransform="matrix(0.2688926,0.2688926,-0.2688926,0.2688926,19.930292,-19.42984)" />
    <linearGradient
       x1="25.398125"
       y1="63.345894"
       x2="90.625114"
       y2="63.345894"
       id="linearGradient2897"
       xlink:href="#linearGradient3384"
       gradientUnits="userSpaceOnUse"
       gradientTransform="matrix(0.2688926,0.2688926,-0.2688926,0.2688926,38.227733,-8.4494346)" />
    <radialGradient
       cx="58.01162"
       cy="63.345894"
       r="33.113495"
       fx="58.01162"
       fy="63.345894"
       id="radialGradient2899"
       xlink:href="#linearGradient3252"
       gradientUnits="userSpaceOnUse"
       gradientTransform="matrix(0.2134373,0,0,0.2134373,19.805211,5.9610473)" />
    <radialGradient
       cx="58.01162"
       cy="63.345894"
       r="33.113495"
       fx="58.01162"
       fy="63.345894"
       id="radialGradient2907"
       xlink:href="#linearGradient3458"
       gradientUnits="userSpaceOnUse"
       gradientTransform="matrix(0.2134373,0,0,0.2134373,1.5077702,24.669151)" />
    <linearGradient
       x1="25.398125"
       y1="63.345894"
       x2="90.625114"
       y2="63.345894"
       id="linearGradient2910"
       xlink:href="#linearGradient3452"
       gradientUnits="userSpaceOnUse"
       gradientTransform="matrix(0.2688926,0.2688926,-0.2688926,0.2688926,19.930292,10.258669)" />
  </defs>
  <rect
     width="29.618961"
     height="29.618961"
     x="8.1732807"
     y="70.870705"
     id="rect4441"
     style="fill:#282828;fill-opacity:1;fill-rule:evenodd;stroke:none" />
  <rect
     width="29.618961"
     height="29.618961"
     x="70.158958"
     y="70.870705"
     id="rect4447"
     style="fill:#282828;fill-opacity:1;fill-rule:evenodd;stroke:none" />
  <g
     transform="matrix(1.5408162,0,0,1.5408162,-3.6468576,57.77771)"
     id="g2219">
    <rect
       width="19.222904"
       height="19.222904"
       x="4.4989777"
       y="4.7034764"
       id="rect2217"
       style="fill:#e4e7e1;fill-opacity:1;fill-rule:evenodd;stroke:#000000;stroke-width:1.5;stroke-linecap:round;stroke-linejoin:round;stroke-miterlimit:4;stroke-opacity:1;stroke-dasharray:none;stroke-dashoffset:0" />
    <path
       d="m 10.1248,8.9966755 1.183593,0 0,3.5859375 4.300782,0 0,-3.5859375 1.183593,0 0,8.7480465 -1.183593,0 0,-4.166015 -4.300782,0 0,4.166015 -1.183593,0 0,-8.7480465"
       inkscape:connector-curvature="0"
       id="text3300"
       style="font-size:12px;font-style:normal;font-weight:normal;fill:#000000;fill-opacity:1;stroke:none;font-family:Bitstream Vera Sans" />
  </g>
  <g
     transform="matrix(1.5408162,0,0,1.5408162,58.691024,16.657637)"
     id="g2215">
    <rect
       width="19.222904"
       height="19.222904"
       x="4.2703981"
       y="31.390678"
       id="rect3191"
       style="fill:#004fe1;fill-opacity:1;fill-rule:evenodd;stroke:#000000;stroke-width:1.5;stroke-linecap:round;stroke-linejoin:round;stroke-miterlimit:4;stroke-opacity:1;stroke-dasharray:none;stroke-dashoffset:0" />
    <path
       d="m 9.2428141,36.652134 1.1835939,0 0,7.751953 4.259765,0 0,0.996094 -5.4433589,0 0,-8.748047 m 6.6328129,2.185547 1.078125,0 0,6.5625 -1.078125,0 0,-6.5625 m 0,-2.554688 1.078125,0 0,1.365235 -1.078125,0 0,-1.365235"
       inkscape:connector-curvature="0"
       id="text3342"
       style="font-size:12px;font-style:normal;font-weight:normal;fill:#000000;fill-opacity:1;stroke:none;font-family:Bitstream Vera Sans" />
  </g>
  <path
     d="m 33.941707,46.730861 c 0.0012,6.850275 -5.551709,12.404157 -12.401985,12.404157 -6.850275,0 -12.403184,-5.553882 -12.401985,-12.404157 -0.0012,-6.850276 5.55171,-12.404157 12.401985,-12.404157 6.850276,0 12.403184,5.553881 12.401985,12.404157 l 0,0 z"
     inkscape:connector-curvature="0"
     id="path4435"
     style="fill:#282828;fill-opacity:1;fill-rule:evenodd;stroke:none" />
  <path
     d="m 96.365741,46.730861 c 0.0012,6.850275 -5.551709,12.404157 -12.401985,12.404157 -6.850275,0 -12.403184,-5.553882 -12.401985,-12.404157 -0.0012,-6.850276 5.55171,-12.404157 12.401985,-12.404157 6.850276,0 12.403184,5.553881 12.401985,12.404157 l 0,0 z"
     inkscape:connector-curvature="0"
     id="path4457"
     style="fill:#282828;fill-opacity:1;fill-rule:evenodd;stroke:none" />
  <path
     d="m 30.769332,42.936894 c 0.0012,6.850275 -5.551709,12.404157 -12.401985,12.404157 -6.850275,0 -12.4031838,-5.553882 -12.4019848,-12.404157 -0.0012,-6.850276 5.5517098,-12.404157 12.4019848,-12.404157 6.850276,0 12.403184,5.553881 12.401985,12.404157 l 0,0 z"
     inkscape:connector-curvature="0"
     id="path3474"
     style="fill:#e4e4e3;fill-opacity:1;fill-rule:evenodd;stroke:#000000;stroke-width:0.38027155px;stroke-linecap:butt;stroke-linejoin:miter;stroke-opacity:1" />
  <path
     d="m 27.265473,51.660334 c -4.843029,4.844723 -12.696715,4.845411 -17.5405898,0.0015 -4.843878,-4.843877 -4.843189,-12.697563 0.00153,-17.54059 4.8430278,-4.844725 12.6967138,-4.845413 17.5405908,-0.0015 4.843875,4.843876 4.843187,12.697563 -0.0015,17.540591 l 0,0 z"
     inkscape:connector-curvature="0"
     id="path3476"
     style="opacity:0.71739131;fill:url(#linearGradient2910);fill-opacity:1;fill-rule:evenodd;stroke:none" />
  <path
     d="m 20.850547,38.189526 c 6.73e-4,3.844893 -3.11604,6.962154 -6.960935,6.962154 -3.844894,0 -6.9616078,-3.117261 -6.9609348,-6.962154 -6.73e-4,-3.844895 3.1160408,-6.962154 6.9609348,-6.962154 3.844895,0 6.961608,3.117259 6.960935,6.962154 l 0,0 z"
     inkscape:connector-curvature="0"
     id="path3478"
     style="fill:url(#radialGradient2907);fill-opacity:1;fill-rule:evenodd;stroke:none" />
  <g
     transform="translate(44.126593,18.708104)"
     id="g2464">
    <path
       d="m 49.066773,24.22879 c 0.0012,6.850275 -5.551709,12.404157 -12.401985,12.404157 -6.850275,0 -12.403184,-5.553882 -12.401985,-12.404157 -0.0012,-6.850276 5.55171,-12.404157 12.401985,-12.404157 6.850276,0 12.403184,5.553881 12.401985,12.404157 l 0,0 z"
       inkscape:connector-curvature="0"
       id="path2466"
       style="fill:#0000ff;fill-opacity:1;fill-rule:evenodd;stroke:#000000;stroke-width:0.38027155px;stroke-linecap:butt;stroke-linejoin:miter;stroke-opacity:1" />
    <path
       d="m 45.562914,32.95223 c -4.843029,4.844723 -12.696715,4.845411 -17.54059,0.0015 -4.843878,-4.843877 -4.843189,-12.697563 0.0015,-17.54059 4.843028,-4.844725 12.696714,-4.845413 17.540591,-0.0015 4.843875,4.843876 4.843187,12.697563 -0.0015,17.540591 l 0,0 z"
       inkscape:connector-curvature="0"
       id="path2468"
       style="opacity:0.71739131;fill:url(#linearGradient2897);fill-opacity:1;fill-rule:evenodd;stroke:none" />
    <path
       d="m 39.147988,19.481422 c 6.73e-4,3.844893 -3.11604,6.962154 -6.960935,6.962154 -3.844894,0 -6.961608,-3.117261 -6.960935,-6.962154 -6.73e-4,-3.844895 3.116041,-6.962154 6.960935,-6.962154 3.844895,0 6.961608,3.117259 6.960935,6.962154 l 0,0 z"
       inkscape:connector-curvature="0"
       id="path2470"
       style="fill:url(#radialGradient2899);fill-opacity:1;fill-rule:evenodd;stroke:none" />
  </g>
  <path
     d="m 66.70552,29.589812 -24.308053,-7.347484 0.0061,5.61476 -8.225919,0.0056 0.0038,3.498813 8.225918,-0.0056 0.0061,5.614761 24.292013,-7.380851 z"
     inkscape:connector-curvature="0"
     id="path3464"
     style="fill:#000000;fill-opacity:1;fill-rule:evenodd;stroke:#000000;stroke-width:0.8975141;stroke-linecap:round;stroke-linejoin:round;stroke-miterlimit:4;stroke-opacity:1;stroke-dashoffset:0" />
  <path
     d="m 33.941707,17.042352 c 0.0012,6.850275 -5.551709,12.404157 -12.401985,12.404157 -6.850275,0 -12.4031841,-5.553882 -12.4019851,-12.404157 -0.0012,-6.850276 5.5517101,-12.404157 12.4019851,-12.404157 6.850276,0 12.403184,5.553881 12.401985,12.404157 l 0,0 z"
     inkscape:connector-curvature="0"
     id="path2819"
     style="fill:#282828;fill-opacity:1;fill-rule:evenodd;stroke:none" />
  <path
     d="m 96.365741,17.042352 c 0.0012,6.850275 -5.551709,12.404157 -12.401985,12.404157 -6.850275,0 -12.403184,-5.553882 -12.401985,-12.404157 -0.0012,-6.850276 5.55171,-12.404157 12.401985,-12.404157 6.850276,0 12.403184,5.553881 12.401985,12.404157 l 0,0 z"
     inkscape:connector-curvature="0"
     id="path2821"
     style="fill:#282828;fill-opacity:1;fill-rule:evenodd;stroke:none" />
  <path
     d="m 30.769332,13.248385 c 0.0012,6.850275 -5.551709,12.404157 -12.401985,12.404157 -6.850275,0 -12.4031839,-5.553882 -12.4019849,-12.404157 -0.0012,-6.850276 5.5517099,-12.404157 12.4019849,-12.404157 6.850276,0 12.403184,5.553881 12.401985,12.404157 l 0,0 z"
     inkscape:connector-curvature="0"
     id="path2823"
     style="fill:#e4e4e3;fill-opacity:1;fill-rule:evenodd;stroke:#000000;stroke-width:0.38027155px;stroke-linecap:butt;stroke-linejoin:miter;stroke-opacity:1" />
  <path
     d="m 27.265473,21.971825 c -4.843029,4.844723 -12.696715,4.845411 -17.5405899,0.0015 -4.843878,-4.843877 -4.843189,-12.6975629 0.00154,-17.54059 4.8430279,-4.844725 12.6967139,-4.845413 17.5405909,-0.00154 4.843875,4.8438761 4.843187,12.697563 -0.0015,17.540591 l 0,0 z"
     inkscape:connector-curvature="0"
     id="path2825"
     style="opacity:0.71739131;fill:url(#linearGradient2888);fill-opacity:1;fill-rule:evenodd;stroke:none" />
  <path
     d="m 20.850547,8.5010171 c 6.73e-4,3.8448929 -3.11604,6.9621539 -6.960935,6.9621539 -3.844894,0 -6.9616079,-3.117261 -6.9609349,-6.9621539 C 6.9280041,4.656122 10.044718,1.538863 13.889612,1.538863 c 3.844895,0 6.961608,3.117259 6.960935,6.9621541 l 0,0 z"
     inkscape:connector-curvature="0"
     id="path2827"
     style="fill:url(#radialGradient2885);fill-opacity:1;fill-rule:evenodd;stroke:none" />
  <g
     transform="translate(44.126593,-10.980405)"
     id="g2829">
    <path
       d="m 49.066773,24.22879 c 0.0012,6.850275 -5.551709,12.404157 -12.401985,12.404157 -6.850275,0 -12.403184,-5.553882 -12.401985,-12.404157 -0.0012,-6.850276 5.55171,-12.404157 12.401985,-12.404157 6.850276,0 12.403184,5.553881 12.401985,12.404157 l 0,0 z"
       inkscape:connector-curvature="0"
       id="path2831"
       style="fill:#0000ff;fill-opacity:1;fill-rule:evenodd;stroke:#000000;stroke-width:0.38027155px;stroke-linecap:butt;stroke-linejoin:miter;stroke-opacity:1" />
    <path
       d="m 45.562914,32.95223 c -4.843029,4.844723 -12.696715,4.845411 -17.54059,0.0015 -4.843878,-4.843877 -4.843189,-12.697563 0.0015,-17.54059 4.843028,-4.844725 12.696714,-4.845413 17.540591,-0.0015 4.843875,4.843876 4.843187,12.697563 -0.0015,17.540591 l 0,0 z"
       inkscape:connector-curvature="0"
       id="path2833"
       style="opacity:0.71739131;fill:url(#linearGradient2875);fill-opacity:1;fill-rule:evenodd;stroke:none" />
    <path
       d="m 39.147988,19.481422 c 6.73e-4,3.844893 -3.11604,6.962154 -6.960935,6.962154 -3.844894,0 -6.961608,-3.117261 -6.960935,-6.962154 -6.73e-4,-3.844895 3.116041,-6.962154 6.960935,-6.962154 3.844895,0 6.961608,3.117259 6.960935,6.962154 l 0,0 z"
       inkscape:connector-curvature="0"
       id="path2835"
       style="fill:url(#radialGradient2877);fill-opacity:1;fill-rule:evenodd;stroke:none" />
  </g>
</svg>
