<?xml version="1.0" encoding="UTF-8" standalone="no"?>
<!-- Created with Inkscape (http://www.inkscape.org/) -->

<svg
   xmlns:dc="http://purl.org/dc/elements/1.1/"
   xmlns:cc="http://creativecommons.org/ns#"
   xmlns:rdf="http://www.w3.org/1999/02/22-rdf-syntax-ns#"
   xmlns:svg="http://www.w3.org/2000/svg"
   xmlns="http://www.w3.org/2000/svg"
   xmlns:xlink="http://www.w3.org/1999/xlink"
   xmlns:inkscape="http://www.inkscape.org/namespaces/inkscape"
   version="1.0"
   width="100"
   height="100"
   id="svg2">
  <metadata
     id="metadata2566">
    <rdf:RDF>
      <cc:Work
         rdf:about="">
        <dc:format>image/svg+xml</dc:format>
        <dc:type
           rdf:resource="http://purl.org/dc/dcmitype/StillImage" />
      </cc:Work>
    </rdf:RDF>
  </metadata>
  <defs
     id="defs4">
    <linearGradient
       id="linearGradient3215">
      <stop
         id="stop3217"
         style="stop-color:#ffffff;stop-opacity:1"
         offset="0" />
      <stop
         id="stop3219"
         style="stop-color:#e0e6d8;stop-opacity:1"
         offset="1" />
    </linearGradient>
    <linearGradient
       id="linearGradient3209">
      <stop
         id="stop3211"
         style="stop-color:#ffffff;stop-opacity:1"
         offset="0" />
      <stop
         id="stop3213"
         style="stop-color:#7c7e7e;stop-opacity:1"
         offset="1" />
    </linearGradient>
    <linearGradient
       id="linearGradient3384">
      <stop
         id="stop3386"
         style="stop-color:#0000ff;stop-opacity:1"
         offset="0" />
      <stop
         id="stop3388"
         style="stop-color:#000000;stop-opacity:1"
         offset="1" />
    </linearGradient>
    <linearGradient
       id="linearGradient3252">
      <stop
         id="stop3254"
         style="stop-color:#ffffff;stop-opacity:1"
         offset="0" />
      <stop
         id="stop3256"
         style="stop-color:#7f7fff;stop-opacity:0"
         offset="1" />
    </linearGradient>
    <linearGradient
       x1="25.398125"
       y1="63.345894"
       x2="90.625114"
       y2="63.345894"
       id="linearGradient3255"
       xlink:href="#linearGradient3384"
       gradientUnits="userSpaceOnUse"
       gradientTransform="matrix(0.2688926,0.2688926,-0.2688926,0.2688926,38.227733,-8.4494346)" />
    <radialGradient
       cx="58.01162"
       cy="63.345894"
       r="33.113495"
       fx="58.01162"
       fy="63.345894"
       id="radialGradient3257"
       xlink:href="#linearGradient3252"
       gradientUnits="userSpaceOnUse"
       gradientTransform="matrix(0.2134373,0,0,0.2134373,19.805211,5.9610473)" />
    <linearGradient
       x1="25.398125"
       y1="63.345894"
       x2="90.625114"
       y2="63.345894"
       id="linearGradient3259"
       xlink:href="#linearGradient3209"
       gradientUnits="userSpaceOnUse"
       gradientTransform="matrix(-0.1195545,0.4056655,0.4056655,0.1195545,132.49123,-3.6233146)" />
    <radialGradient
       cx="58.01162"
       cy="63.345894"
       r="33.113495"
       fx="58.01162"
       fy="63.345894"
       id="radialGradient3261"
       xlink:href="#linearGradient3215"
       gradientUnits="userSpaceOnUse"
       gradientTransform="matrix(-0.1451212,0.07905406,0.07905406,0.1451212,156.01982,7.0898926)" />
  </defs>
  <path
     d="m 31.046613,60.206994 c 6.61569,12.14962 21.828776,16.634552 33.977239,10.016739 C 77.17232,63.605912 81.65459,48.39204 75.034639,36.244736 68.418941,24.095114 53.205858,19.610185 41.0574,26.227993 28.908939,32.845806 24.426667,48.059692 31.046613,60.206994 l 0,0 z"
     inkscape:connector-curvature="0"
     id="path3416"
     style="fill:#282828;fill-opacity:1;fill-rule:evenodd;stroke:none" />
  <g
     transform="matrix(-1.7734271,0.9660656,0.9660656,1.7734271,90.321171,-33.452121)"
     id="g3418">
    <path
       d="m 49.066773,24.22879 c 0.0012,6.850275 -5.551709,12.404157 -12.401985,12.404157 -6.850275,0 -12.403184,-5.553882 -12.401985,-12.404157 -0.0012,-6.850276 5.55171,-12.404157 12.401985,-12.404157 6.850276,0 12.403184,5.553881 12.401985,12.404157 l 0,0 z"
       inkscape:connector-curvature="0"
       id="path3420"
       style="fill:#0000ff;fill-opacity:1;fill-rule:evenodd;stroke:#000000;stroke-width:0.38027155px;stroke-linecap:butt;stroke-linejoin:miter;stroke-opacity:1" />
    <path
       d="m 45.562914,32.95223 c -4.843029,4.844723 -12.696715,4.845411 -17.54059,0.0015 -4.843878,-4.843877 -4.843189,-12.697563 0.0015,-17.54059 4.843028,-4.844725 12.696714,-4.845413 17.540591,-0.0015 4.843875,4.843876 4.843187,12.697563 -0.0015,17.540591 l 0,0 z"
       inkscape:connector-curvature="0"
       id="path3422"
       style="opacity:0.71739131;fill:url(#linearGradient3255);fill-opacity:1;fill-rule:evenodd;stroke:none" />
    <path
       d="m 39.147988,19.481422 c 6.73e-4,3.844893 -3.11604,6.962154 -6.960935,6.962154 -3.844894,0 -6.961608,-3.117261 -6.960935,-6.962154 -6.73e-4,-3.844895 3.116041,-6.962154 6.960935,-6.962154 3.844895,0 6.961608,3.117259 6.960935,6.962154 l 0,0 z"
       inkscape:connector-curvature="0"
       id="path3424"
       style="fill:url(#radialGradient3257);fill-opacity:1;fill-rule:evenodd;stroke:none" />
  </g>
  <g
     transform="matrix(1.2373553,0,0,1.2373553,-137.62701,40.437534)"
     id="g3221">
    <path
       d="m 141.67823,35.869444 c 3.64329,6.690859 12.02121,9.160734 18.71144,5.516271 6.69022,-3.644469 9.15863,-12.022827 5.51299,-18.712409 -3.6433,-6.69086 -12.02122,-9.160733 -18.71144,-5.516272 -6.69022,3.644464 -9.15863,12.022829 -5.51299,18.71241 l 0,0 z"
       inkscape:connector-curvature="0"
       id="path2217"
       style="fill:#282828;fill-opacity:1;fill-rule:evenodd;stroke:none" />
    <path
       d="m 139.29082,34.057953 c 3.64329,6.690859 12.02122,9.160734 18.71144,5.516268 6.69022,-3.644464 9.15863,-12.022826 5.51299,-18.712409 -3.64329,-6.69086 -12.02122,-9.160733 -18.71144,-5.516268 -6.69022,3.644465 -9.15863,12.022825 -5.51299,18.712409 l 0,0 z"
       inkscape:connector-curvature="0"
       id="path2221"
       style="fill:#e7e8e6;fill-opacity:1;fill-rule:evenodd;stroke:#000000;stroke-width:0.42291585px;stroke-linecap:butt;stroke-linejoin:miter;stroke-opacity:1" />
    <path
       d="m 147.35383,40.71346 c 7.30735,2.154953 14.97791,-2.022672 17.13158,-9.330397 2.15368,-7.307729 -2.02529,-14.97755 -9.3334,-17.129945 -7.30735,-2.154955 -14.9779,2.02267 -17.13158,9.330397 -2.15367,7.307726 2.0253,14.977549 9.3334,17.129945 l 0,0 z"
       inkscape:connector-curvature="0"
       id="path2223"
       style="opacity:0.71739131;fill:url(#linearGradient3259);fill-opacity:1;fill-rule:evenodd;stroke:none" />
    <path
       d="m 147.87594,23.447011 c 1.42363,2.614487 4.69735,3.579604 7.31159,2.15551 2.61424,-1.424093 3.57878,-4.697981 2.15423,-7.311968 -1.42363,-2.614488 -4.69735,-3.579604 -7.31159,-2.155511 -2.61424,1.424094 -3.57878,4.697981 -2.15423,7.311969 l 0,0 z"
       inkscape:connector-curvature="0"
       id="path2225"
       style="fill:url(#radialGradient3261);fill-opacity:1;fill-rule:evenodd;stroke:none" />
  </g>
  <use
     transform="translate(29.109972,-50.810141)"
     id="use3231"
     x="0"
     y="0"
     width="100"
     height="100"
     xlink:href="#g3221" />
  <use
     transform="translate(-31.227071,-50.810141)"
     id="use3233"
     x="0"
     y="0"
     width="100"
     height="100"
     xlink:href="#g3221" />
</svg>
