<?xml version="1.0" encoding="UTF-8" standalone="no"?>
<!-- Created with Inkscape (http://www.inkscape.org/) -->
<svg
   xmlns:svg="http://www.w3.org/2000/svg"
   xmlns="http://www.w3.org/2000/svg"
   xmlns:xlink="http://www.w3.org/1999/xlink"
   version="1.0"
   width="100"
   height="100"
   id="svg2">
  <defs
     id="defs4">
    <linearGradient
       id="linearGradient3384">
      <stop
         id="stop3386"
         style="stop-color:#0000ff;stop-opacity:1"
         offset="0" />
      <stop
         id="stop3388"
         style="stop-color:#000000;stop-opacity:1"
         offset="1" />
    </linearGradient>
    <linearGradient
       id="linearGradient3252">
      <stop
         id="stop3254"
         style="stop-color:#ffffff;stop-opacity:1"
         offset="0" />
      <stop
         id="stop3256"
         style="stop-color:#7f7fff;stop-opacity:0"
         offset="1" />
    </linearGradient>
    <linearGradient
       x1="25.398125"
       y1="63.345894"
       x2="90.625114"
       y2="63.345894"
       id="linearGradient3469"
       xlink:href="#linearGradient3384"
       gradientUnits="userSpaceOnUse"
       gradientTransform="matrix(0.2688926,0.2688926,-0.2688926,0.2688926,38.227733,-8.4494346)" />
    <radialGradient
       cx="58.01162"
       cy="63.345894"
       r="33.113495"
       fx="58.01162"
       fy="63.345894"
       id="radialGradient3471"
       xlink:href="#linearGradient3252"
       gradientUnits="userSpaceOnUse"
       gradientTransform="matrix(0.2134373,0,0,0.2134373,19.805211,5.9610473)" />
  </defs>
  <g
     transform="matrix(1.3050069,0,0,1.3050069,-16.778349,5.069422)"
     id="g3462">
    <path
       d="M 51.916898,26.04927 C 51.918098,32.899545 46.365188,38.453427 39.514918,38.453427 C 32.664638,38.453427 27.111728,32.899545 27.112928,26.04927 C 27.111728,19.198994 32.664638,13.645113 39.514918,13.645113 C 46.365188,13.645113 51.918098,19.198994 51.916898,26.04927 L 51.916898,26.04927 z"
       id="path6824"
       style="fill:#282828;fill-opacity:1;fill-rule:evenodd;stroke:none" />
    <g
       id="g3519">
      <path
         d="M 49.066773,24.22879 C 49.067973,31.079065 43.515064,36.632947 36.664788,36.632947 C 29.814513,36.632947 24.261604,31.079065 24.262803,24.22879 C 24.261603,17.378514 29.814513,11.824633 36.664788,11.824633 C 43.515064,11.824633 49.067972,17.378514 49.066773,24.22879 L 49.066773,24.22879 L 49.066773,24.22879 z"
         id="path3474"
         style="fill:#0000ff;fill-opacity:1;fill-rule:evenodd;stroke:#000000;stroke-width:0.38027155px;stroke-linecap:butt;stroke-linejoin:miter;stroke-opacity:1" />
      <path
         d="M 45.562914,32.95223 C 40.719885,37.796953 32.866199,37.797641 28.022324,32.95373 C 23.178446,28.109853 23.179135,20.256167 28.023824,15.41314 C 32.866852,10.568415 40.720538,10.567727 45.564415,15.41164 C 50.40829,20.255516 50.407602,28.109203 45.562915,32.952231 L 45.562915,32.952231 L 45.562914,32.95223 z"
         id="path3476"
         style="opacity:0.71739131;fill:url(#linearGradient3469);fill-opacity:1;fill-rule:evenodd;stroke:none" />
      <path
         d="M 39.147988,19.481422 C 39.148661,23.326315 36.031948,26.443576 32.187053,26.443576 C 28.342159,26.443576 25.225445,23.326315 25.226118,19.481422 C 25.225445,15.636527 28.342159,12.519268 32.187053,12.519268 C 36.031948,12.519268 39.148661,15.636527 39.147988,19.481422 L 39.147988,19.481422 z"
         id="path3478"
         style="fill:url(#radialGradient3471);fill-opacity:1;fill-rule:evenodd;stroke:none" />
    </g>
  </g>
  <path
     d="M 66.450953,56.938159 L 74.085891,56.938159 L 74.085891,66.491234 L 66.450953,66.491234 L 66.450953,56.938159 M 73.860228,51.409411 L 66.676616,51.409411 L 66.676616,45.617389 C 66.676601,43.08497 67.027633,41.003856 67.729711,39.374041 C 68.431758,37.74428 69.911104,35.851219 72.167754,33.694851 L 75.552701,30.347514 C 76.981876,29.018646 78.009897,27.764963 78.636765,26.586461 C 79.288653,25.408038 79.614611,24.204503 79.614639,22.97585 C 79.614611,20.744337 78.78718,18.939034 77.132344,17.559933 C 75.50253,16.180931 73.333659,15.491405 70.625722,15.491354 C 68.644884,15.491405 66.526159,15.930194 64.269542,16.807723 C 62.037974,17.68535 59.706123,18.964107 57.273983,20.643997 L 57.273983,13.573217 C 59.630902,12.144071 62.0129,11.07844 64.419984,10.376322 C 66.852117,9.6743154 69.359483,9.3232841 71.942091,9.3232269 C 76.555624,9.3232841 80.253989,10.539357 83.037197,12.971448 C 85.845416,15.403647 87.249541,18.613076 87.249577,22.599744 C 87.249541,24.505387 86.798215,26.323227 85.895597,28.053271 C 84.992911,29.758319 83.413271,31.688991 81.156671,33.845293 L 77.846944,37.079799 C 76.668456,38.25829 75.828488,39.186016 75.327038,39.862978 C 74.850615,40.51492 74.512121,41.154298 74.311554,41.781115 C 74.161089,42.307687 74.048258,42.947065 73.973059,43.699252 C 73.897819,44.451485 73.860205,45.479505 73.860228,46.783316 L 73.860228,51.409411"
     id="text2174"
     style="font-size:77.02636719px;font-style:normal;font-weight:normal;fill:#000000;fill-opacity:1;stroke:none;font-family:Bitstream Vera Sans" />
  <path
     d="M 41.996702,74.346494 C 38.713722,76.993402 47.02015,80.619772 44.177586,75.955904 C 42.500139,72.687846 48.963167,75.951604 45.255721,75.429538 C 47.37683,80.18113 41.124194,81.435998 40.814414,76.476939 C 40.513947,75.695888 40.52803,73.254383 41.996702,74.346494 z M 40.466172,78.616296 C 37.740025,81.688329 37.827854,72.737206 39.563663,77.418862 C 38.295481,79.264333 38.690374,78.567114 40.466172,78.616296 z M 34.234253,78.103926 C 36.308029,79.647169 35.335957,73.284918 36.824163,78.253534 C 37.029845,80.439306 34.625951,79.348544 34.234253,78.103926 z M 36.2797,77.705409 C 36.67235,75.464177 33.7945,77.215612 36.2797,77.705409 z M 31.300142,76.443449 C 32.442259,75.054141 29.899859,71.769577 32.312113,75.079099 C 33.397897,76.988529 34.794721,84.331308 32.633052,78.824219 C 32.413569,77.941113 32.12795,76.956488 31.300142,76.443449 L 31.300142,76.443449 z M 30.797364,76.557303 C 31.71974,80.236457 25.328863,79.560806 27.770555,76.304346 C 28.797791,80.724738 29.562549,74.558733 30.797364,76.557303 L 30.797364,76.557303 z M 24.316569,78.179828 C 27.264555,77.766926 22.791643,70.830275 25.880128,75.851708 C 26.263952,77.111159 26.538757,81.229078 24.316569,78.179828 z M 19.559254,76.443449 C 20.701387,75.054141 18.158962,71.769577 20.571231,75.079099 C 21.657014,76.988529 23.053837,84.331308 20.89217,78.824208 C 20.672686,77.941113 20.387063,76.956488 19.559254,76.443449 L 19.559254,76.443449 z M 17.541334,74.716549 C 15.943688,74.107601 18.93952,73.687527 17.541334,74.716549 z M 16.887924,78.303184 C 18.628487,76.481757 18.373456,75.089047 18.660223,78.886348 C 18.335257,79.829599 17.063448,78.752409 16.887924,78.303184 z M 14.661966,78.179828 C 17.609953,77.766926 13.137038,70.830275 16.225525,75.851708 C 16.609353,77.111159 16.884148,81.229078 14.661966,78.179828 z M 11.706847,78.103928 C 13.780622,79.647171 12.808544,73.284909 14.296756,78.253525 C 14.502438,80.439297 12.098547,79.348546 11.706847,78.103928 z M 13.752289,77.705411 C 14.144941,75.464179 11.267088,77.215603 13.752289,77.705411 z M 11.679912,78.616298 C 8.9537641,81.688331 9.0415985,72.737208 10.777409,77.418864 C 9.5092388,79.264324 9.9041037,78.567127 11.679912,78.616298 z"
     id="text5084"
     style="font-size:8.88496017px;font-style:normal;font-weight:normal;line-height:125%;fill:#000000;fill-opacity:1;stroke:none;font-family:Bitstream Vera Sans" />
  <use
     transform="translate(47.089415,-8.3640098e-8)"
     id="use2258"
     x="0"
     y="0"
     width="100"
     height="100"
     xlink:href="#text5084" />
  <use
     transform="translate(24.512298,10.966028)"
     id="use2260"
     x="0"
     y="0"
     width="100"
     height="100"
     xlink:href="#text5084" />
  <path
     d="M 68.804117,59.454652 L 76.439057,59.454652 L 76.439057,69.007727 L 68.804117,69.007727 L 68.804117,59.454652 M 76.213397,53.925904 L 69.029787,53.925904 L 69.029787,48.133882 C 69.029767,45.601463 69.380797,43.520349 70.082877,41.890534 C 70.784927,40.260773 72.264267,38.367712 74.520917,36.211344 L 77.905867,32.864007 C 79.335047,31.535139 80.363067,30.281456 80.989937,29.102954 C 81.641827,27.924531 81.967777,26.720996 81.967807,25.492343 C 81.967777,23.26083 81.140347,21.455527 79.485507,20.076426 C 77.855697,18.697424 75.686827,18.007898 72.978887,18.007847 C 70.998047,18.007898 68.879327,18.446687 66.622707,19.324216 C 64.391137,20.201843 62.059287,21.4806 59.627147,23.16049 L 59.627147,16.08971 C 61.984067,14.660564 64.366067,13.594933 66.773147,12.892815 C 69.205287,12.190808 71.712647,11.839777 74.295257,11.83972 C 78.908787,11.839777 82.607157,13.05585 85.390367,15.487941 C 88.198587,17.92014 89.602707,21.129569 89.602747,25.116237 C 89.602707,27.02188 89.151387,28.83972 88.248767,30.569764 C 87.346077,32.274812 85.766437,34.205484 83.509837,36.361786 L 80.200107,39.596292 C 79.021627,40.774783 78.181657,41.702509 77.680207,42.379471 C 77.203787,43.031413 76.865287,43.670791 76.664717,44.297608 C 76.514257,44.82418 76.401427,45.463558 76.326227,46.215745 C 76.250987,46.967978 76.213377,47.995998 76.213397,49.299809 L 76.213397,53.925904"
     id="path3238"
     style="font-size:77.02636719px;font-style:normal;font-weight:normal;fill:#000000;fill-opacity:0.71348314;stroke:none;font-family:Bitstream Vera Sans" />
</svg>
