<?xml version="1.0" encoding="UTF-8" standalone="no"?>
<!-- Created with Inkscape (http://www.inkscape.org/) -->

<svg
   xmlns:dc="http://purl.org/dc/elements/1.1/"
   xmlns:cc="http://creativecommons.org/ns#"
   xmlns:rdf="http://www.w3.org/1999/02/22-rdf-syntax-ns#"
   xmlns:svg="http://www.w3.org/2000/svg"
   xmlns="http://www.w3.org/2000/svg"
   xmlns:xlink="http://www.w3.org/1999/xlink"
   xmlns:inkscape="http://www.inkscape.org/namespaces/inkscape"
   version="1.0"
   width="100"
   height="100"
   id="svg2">
  <metadata
     id="metadata2566">
    <rdf:RDF>
      <cc:Work
         rdf:about="">
        <dc:format>image/svg+xml</dc:format>
        <dc:type
           rdf:resource="http://purl.org/dc/dcmitype/StillImage" />
      </cc:Work>
    </rdf:RDF>
  </metadata>
  <defs
     id="defs4">
    <linearGradient
       id="linearGradient6570">
      <stop
         id="stop6572"
         style="stop-color:#3e7626;stop-opacity:1"
         offset="0" />
      <stop
         id="stop6574"
         style="stop-color:#000000;stop-opacity:1"
         offset="1" />
    </linearGradient>
    <linearGradient
       id="linearGradient6541">
      <stop
         id="stop6543"
         style="stop-color:#000000;stop-opacity:1"
         offset="0" />
      <stop
         id="stop6545"
         style="stop-color:#dbd6d4;stop-opacity:1"
         offset="1" />
    </linearGradient>
    <linearGradient
       id="linearGradient6498">
      <stop
         id="stop6500"
         style="stop-color:#d600ff;stop-opacity:1"
         offset="0" />
      <stop
         id="stop6502"
         style="stop-color:#000000;stop-opacity:1"
         offset="1" />
    </linearGradient>
    <linearGradient
       id="linearGradient6448">
      <stop
         id="stop6450"
         style="stop-color:#000000;stop-opacity:1"
         offset="0" />
      <stop
         id="stop6452"
         style="stop-color:#ffffff;stop-opacity:1"
         offset="1" />
    </linearGradient>
    <linearGradient
       id="linearGradient6410">
      <stop
         id="stop6412"
         style="stop-color:#d90000;stop-opacity:0.42424244"
         offset="0" />
      <stop
         id="stop6414"
         style="stop-color:#dbd6d4;stop-opacity:1"
         offset="1" />
    </linearGradient>
    <linearGradient
       id="linearGradient3384">
      <stop
         id="stop3386"
         style="stop-color:#0000ff;stop-opacity:1"
         offset="0" />
      <stop
         id="stop3388"
         style="stop-color:#000000;stop-opacity:1"
         offset="1" />
    </linearGradient>
    <linearGradient
       id="linearGradient3252">
      <stop
         id="stop3254"
         style="stop-color:#ffffff;stop-opacity:1"
         offset="0" />
      <stop
         id="stop3256"
         style="stop-color:#bababa;stop-opacity:0"
         offset="1" />
    </linearGradient>
    <radialGradient
       cx="52.697197"
       cy="124.21634"
       r="30.460808"
       fx="52.697197"
       fy="124.21634"
       id="radialGradient6446"
       xlink:href="#linearGradient6448"
       gradientUnits="userSpaceOnUse"
       gradientTransform="matrix(1,0,0,0.405,0,73.908722)" />
    <linearGradient
       x1="25.398125"
       y1="63.345894"
       x2="90.625114"
       y2="63.345894"
       id="linearGradient6475"
       xlink:href="#linearGradient3384"
       gradientUnits="userSpaceOnUse"
       gradientTransform="matrix(0.2688926,0.2688926,-0.2688926,0.2688926,38.227733,-8.4494346)" />
    <radialGradient
       cx="58.01162"
       cy="63.345894"
       r="33.113495"
       fx="58.01162"
       fy="63.345894"
       id="radialGradient6477"
       xlink:href="#linearGradient3252"
       gradientUnits="userSpaceOnUse"
       gradientTransform="matrix(0.2134373,0,0,0.2134373,19.805211,5.9610473)" />
    <linearGradient
       x1="25.398125"
       y1="63.345894"
       x2="90.625114"
       y2="63.345894"
       id="linearGradient6509"
       xlink:href="#linearGradient6498"
       gradientUnits="userSpaceOnUse"
       gradientTransform="matrix(0.1185687,0.1185687,-0.1185687,0.1185687,115.41365,31.042241)" />
    <radialGradient
       cx="58.01162"
       cy="63.345894"
       r="33.113495"
       fx="58.01162"
       fy="63.345894"
       id="radialGradient6511"
       xlink:href="#linearGradient3252"
       gradientUnits="userSpaceOnUse"
       gradientTransform="matrix(0.09411556,0,0,0.09411556,107.29021,37.396569)" />
    <linearGradient
       x1="3.1110499"
       y1="36.230339"
       x2="23.543489"
       y2="36.230339"
       id="linearGradient6516"
       xlink:href="#linearGradient6410"
       gradientUnits="userSpaceOnUse"
       gradientTransform="matrix(-1.1494031,0,0,-1.1494031,91.917518,105.46032)" />
    <linearGradient
       x1="-12.244898"
       y1="-5.9183674"
       x2="3.0612245"
       y2="15.510204"
       id="linearGradient6520"
       xlink:href="#linearGradient6410"
       gradientUnits="userSpaceOnUse"
       gradientTransform="matrix(1.1494031,0,0,1.1494031,61.28071,22.173792)" />
    <linearGradient
       x1="20.408163"
       y1="2.0408163"
       x2="5.3061223"
       y2="12.448979"
       id="linearGradient6524"
       xlink:href="#linearGradient6410"
       gradientUnits="userSpaceOnUse"
       gradientTransform="matrix(1.1494031,0,0,1.1494031,61.28071,22.173792)" />
    <linearGradient
       x1="-23.087931"
       y1="36.786045"
       x2="2.7227142"
       y2="36.786045"
       id="linearGradient6528"
       xlink:href="#linearGradient6410"
       gradientUnits="userSpaceOnUse"
       gradientTransform="matrix(1.1494031,0,0,1.1494031,61.28071,22.173792)" />
    <linearGradient
       x1="54.795918"
       y1="24.387754"
       x2="53.359184"
       y2="37.424217"
       id="linearGradient6539"
       xlink:href="#linearGradient6541"
       gradientUnits="userSpaceOnUse"
       gradientTransform="matrix(1.1494031,0,0,1.1494031,-6.8993631,-8.2147829)" />
    <linearGradient
       x1="25.398125"
       y1="63.345894"
       x2="90.625114"
       y2="63.345894"
       id="linearGradient6581"
       xlink:href="#linearGradient6570"
       gradientUnits="userSpaceOnUse"
       gradientTransform="matrix(0.1185687,0.1185687,-0.1185687,0.1185687,-125.84143,-62.98095)" />
    <radialGradient
       cx="58.01162"
       cy="63.345894"
       r="33.113495"
       fx="58.01162"
       fy="63.345894"
       id="radialGradient6583"
       xlink:href="#linearGradient3252"
       gradientUnits="userSpaceOnUse"
       gradientTransform="matrix(0.09411556,0,0,0.09411556,-133.96487,-56.626622)" />
    <linearGradient
       x1="25.398125"
       y1="63.345894"
       x2="90.625114"
       y2="63.345894"
       id="linearGradient3478"
       xlink:href="#linearGradient3384"
       gradientUnits="userSpaceOnUse"
       gradientTransform="matrix(0.2688926,0.2688926,-0.2688926,0.2688926,38.227733,-8.4494346)" />
    <radialGradient
       cx="58.01162"
       cy="63.345894"
       r="33.113495"
       fx="58.01162"
       fy="63.345894"
       id="radialGradient3480"
       xlink:href="#linearGradient3252"
       gradientUnits="userSpaceOnUse"
       gradientTransform="matrix(0.2134373,0,0,0.2134373,19.805211,5.9610473)" />
  </defs>
  <path
     d="m 83.158005,124.21634 a 30.460808,12.336627 0 1 1 -60.921616,0 30.460808,12.336627 0 1 1 60.921616,0 z"
     transform="matrix(1.2884767,0,0,0.91366,-12.089544,-25.108359)"
     id="path6438"
     style="fill:url(#radialGradient6446);fill-opacity:1;fill-rule:evenodd;stroke:none" />
  <path
     d="m 29.184212,14.110479 c 0.0011,6.070645 -4.919871,10.992442 -10.990513,10.992442 -6.07065,0 -10.991584,-4.921797 -10.990521,-10.992442 -0.00106,-6.070647 4.919871,-10.9924423 10.990521,-10.9924423 6.070642,0 10.991576,4.9217953 10.990513,10.9924423 l 0,0 z"
     inkscape:connector-curvature="0"
     id="path6824"
     style="fill:#282828;fill-opacity:1;fill-rule:evenodd;stroke:none" />
  <g
     transform="matrix(0.8861901,0,0,0.8861901,-16.583993,-9.5047709)"
     id="g3519">
    <path
       d="m 49.066773,24.22879 c 0.0012,6.850275 -5.551709,12.404157 -12.401985,12.404157 -6.850275,0 -12.403184,-5.553882 -12.401985,-12.404157 -0.0012,-6.850276 5.55171,-12.404157 12.401985,-12.404157 6.850276,0 12.403184,5.553881 12.401985,12.404157 l 0,0 z"
       inkscape:connector-curvature="0"
       id="path3474"
       style="fill:#0000ff;fill-opacity:1;fill-rule:evenodd;stroke:#000000;stroke-width:0.38027155px;stroke-linecap:butt;stroke-linejoin:miter;stroke-opacity:1" />
    <path
       d="m 45.562914,32.95223 c -4.843029,4.844723 -12.696715,4.845411 -17.54059,0.0015 -4.843878,-4.843877 -4.843189,-12.697563 0.0015,-17.54059 4.843028,-4.844725 12.696714,-4.845413 17.540591,-0.0015 4.843875,4.843876 4.843187,12.697563 -0.0015,17.540591 l 0,0 z"
       inkscape:connector-curvature="0"
       id="path3476"
       style="opacity:0.71739131;fill:url(#linearGradient3478);fill-opacity:1;fill-rule:evenodd;stroke:none" />
    <path
       d="m 39.147988,19.481422 c 6.73e-4,3.844893 -3.11604,6.962154 -6.960935,6.962154 -3.844894,0 -6.961608,-3.117261 -6.960935,-6.962154 -6.73e-4,-3.844895 3.116041,-6.962154 6.960935,-6.962154 3.844895,0 6.961608,3.117259 6.960935,6.962154 l 0,0 z"
       inkscape:connector-curvature="0"
       id="path3478"
       style="fill:url(#radialGradient3480);fill-opacity:1;fill-rule:evenodd;stroke:none" />
  </g>
  <path
     d="m 39.210682,89.181803 24.603426,2.345723 c -0.0975,-17.736749 -0.195,-35.473497 -0.2925,-53.210243 L 34.147275,37.360182 c 1.687794,17.273874 3.375601,34.547749 5.063407,51.821621 z"
     inkscape:connector-curvature="0"
     id="path5358"
     style="fill:#d70000;fill-opacity:1;fill-rule:evenodd;stroke:none" />
  <path
     d="m 39.80678,89.193734 24.603425,2.345722 C 64.312705,73.802708 64.215206,56.06596 64.117706,38.329214 L 34.743372,37.372112 c 1.687795,17.273874 3.375602,34.547748 5.063408,51.821622 z"
     inkscape:connector-curvature="0"
     id="path6343"
     style="fill:url(#linearGradient6528);fill-opacity:1;fill-rule:evenodd;stroke:none" />
  <path
     d="m 75.732508,17.558679 c -3.828033,6.843155 -7.656067,13.686309 -11.4841,20.529464 L 90.134961,36.416002 C 85.431753,30.054937 80.728544,23.693873 76.025335,17.332808"
     inkscape:connector-curvature="0"
     id="path5360"
     style="fill:#d70000;fill-opacity:1;fill-rule:evenodd;stroke:none" />
  <path
     d="m 76.328606,17.570609 c -3.828033,6.843156 -7.656067,13.68631 -11.4841,20.529465 L 90.731059,36.427932 C 86.027851,30.066868 81.324642,23.705804 76.621433,17.344739"
     inkscape:connector-curvature="0"
     id="path6345"
     style="fill:url(#linearGradient6524);fill-opacity:1;fill-rule:evenodd;stroke:none" />
  <path
     d="M 75.725266,16.599797 63.239011,37.42279 C 52.883525,37.077429 42.528035,36.732069 32.172551,36.386708 37.259536,29.791071 42.34651,23.195434 47.433492,16.599797 c 9.430588,0 18.861184,0 28.291774,0 z"
     inkscape:connector-curvature="0"
     id="path5362"
     style="fill:#d70000;fill-opacity:1;fill-rule:evenodd;stroke:none" />
  <path
     d="M 76.321363,16.611728 63.835109,37.434721 C 53.479623,37.08936 43.124133,36.744 32.768648,36.398639 37.855634,29.803002 42.942608,23.207364 48.02959,16.611728 c 9.430589,0 18.861184,0 28.291773,0 z"
     inkscape:connector-curvature="0"
     id="path6347"
     style="fill:url(#linearGradient6520);fill-opacity:1;fill-rule:evenodd;stroke:none" />
  <path
     d="m 64.323058,91.224847 -0.0626,-53.178625 23.485109,-1.660815 c -1.687807,17.273872 -3.375614,34.547746 -5.063409,51.82162 -6.119709,1.00594 -12.239407,2.01188 -18.359104,3.01782 z"
     inkscape:connector-curvature="0"
     id="path5364"
     style="fill:#d70000;fill-opacity:1;fill-rule:evenodd;stroke:none" />
  <path
     d="m 64.919156,91.236777 -0.0626,-53.178624 23.485108,-1.660816 c -1.687805,17.273873 -3.375612,34.547747 -5.063407,51.821621 -6.119709,1.00594 -12.239406,2.01188 -18.359104,3.017819 z"
     inkscape:connector-curvature="0"
     id="path6349"
     style="fill:url(#linearGradient6516);fill-opacity:1;fill-rule:evenodd;stroke:none" />
  <path
     d="m 34.683173,37.262558 c 1.687804,17.273874 3.375607,34.547748 5.063411,51.821622 8.123949,0.754488 16.252361,1.643704 24.373525,2.314104 6.1197,-1.005939 12.239401,-2.01188 18.359102,-3.017818 1.687804,-17.273874 3.375608,-34.547748 5.063413,-51.821622 M 75.834439,17.464325 c 4.703209,6.361064 9.406418,12.722129 14.109626,19.083193 -8.865628,0.560417 -17.728575,1.277596 -26.595882,1.7398 -10.355484,-0.345361 -20.710969,-0.690721 -31.066455,-1.036082 5.08698,-6.595637 10.173959,-13.191274 15.260938,-19.786911 9.430592,0 18.861182,0 28.291773,0 z M 64.350011,91.429902 c -0.0975,-17.736748 -0.195,-35.473496 -0.292499,-53.210242 3.828033,-6.843156 7.656067,-13.68631 11.4841,-20.529464"
     inkscape:connector-curvature="0"
     id="rect3391"
     style="fill:none;stroke:#000000;stroke-width:2.6196754;stroke-linecap:round;stroke-linejoin:round;stroke-miterlimit:4;stroke-opacity:1;stroke-dashoffset:0" />
  <path
     d="m 49.442859,21.933978 18.208498,0 -7.083677,12.004697 -19.355345,-0.606553 8.230524,-11.398144 z"
     inkscape:connector-curvature="0"
     id="rect3416"
     style="fill:url(#linearGradient6539);fill-opacity:1;fill-rule:evenodd;stroke:#000000;stroke-width:1.72410464;stroke-linecap:round;stroke-linejoin:round;stroke-miterlimit:4;stroke-opacity:1;stroke-dasharray:none;stroke-dashoffset:0" />
  <g
     transform="matrix(0.5068314,0,0,0.5068314,61.526067,75.081792)"
     id="g6458">
    <path
       d="m 49.066773,24.22879 c 0.0012,6.850275 -5.551709,12.404157 -12.401985,12.404157 -6.850275,0 -12.403184,-5.553882 -12.401985,-12.404157 -0.0012,-6.850276 5.55171,-12.404157 12.401985,-12.404157 6.850276,0 12.403184,5.553881 12.401985,12.404157 l 0,0 z"
       inkscape:connector-curvature="0"
       id="path6460"
       style="fill:#0000ff;fill-opacity:1;fill-rule:evenodd;stroke:#000000;stroke-width:0.38027155px;stroke-linecap:butt;stroke-linejoin:miter;stroke-opacity:1" />
    <path
       d="m 45.562914,32.95223 c -4.843029,4.844723 -12.696715,4.845411 -17.54059,0.0015 -4.843878,-4.843877 -4.843189,-12.697563 0.0015,-17.54059 4.843028,-4.844725 12.696714,-4.845413 17.540591,-0.0015 4.843875,4.843876 4.843187,12.697563 -0.0015,17.540591 l 0,0 z"
       inkscape:connector-curvature="0"
       id="path6462"
       style="opacity:0.71739131;fill:url(#linearGradient6475);fill-opacity:1;fill-rule:evenodd;stroke:none" />
    <path
       d="m 39.147988,19.481422 c 6.73e-4,3.844893 -3.11604,6.962154 -6.960935,6.962154 -3.844894,0 -6.961608,-3.117261 -6.960935,-6.962154 -6.73e-4,-3.844895 3.116041,-6.962154 6.960935,-6.962154 3.844895,0 6.961608,3.117259 6.960935,6.962154 l 0,0 z"
       inkscape:connector-curvature="0"
       id="path6464"
       style="fill:url(#radialGradient6477);fill-opacity:1;fill-rule:evenodd;stroke:none" />
  </g>
  <g
     transform="matrix(1.1494031,0,0,1.1494031,-62.630839,38.228115)"
     id="g6504">
    <path
       d="m 120.19314,45.451763 c 5.3e-4,3.020641 -2.44803,5.469635 -5.46867,5.469635 -3.02064,0 -5.46921,-2.448994 -5.46868,-5.469635 -5.3e-4,-3.020642 2.44804,-5.469636 5.46868,-5.469636 3.02064,0 5.4692,2.448994 5.46867,5.469636 l 0,0 z"
       inkscape:connector-curvature="0"
       id="path6481"
       style="fill:#bd00ff;fill-opacity:1;fill-rule:evenodd;stroke:#000000;stroke-width:0.16768143px;stroke-linecap:butt;stroke-linejoin:miter;stroke-opacity:1" />
    <path
       d="m 118.64811,49.298379 c -2.13554,2.136289 -5.59864,2.136593 -7.73455,6.77e-4 -2.13592,-2.135916 -2.13562,-5.599013 6.7e-4,-7.734554 2.13554,-2.136291 5.59864,-2.136594 7.73456,-6.78e-4 2.13591,2.135916 2.13561,5.599013 -6.8e-4,7.734555 l 0,0 z"
       inkscape:connector-curvature="0"
       id="path6483"
       style="opacity:0.71739131;fill:url(#linearGradient6509);fill-opacity:1;fill-rule:evenodd;stroke:none" />
    <path
       d="m 115.81944,43.358402 c 2.9e-4,1.695413 -1.37403,3.069974 -3.06944,3.069974 -1.69541,0 -3.06973,-1.374561 -3.06944,-3.069974 -2.9e-4,-1.695413 1.37403,-3.069974 3.06944,-3.069974 1.69541,0 3.06973,1.374561 3.06944,3.069974 l 0,0 z"
       inkscape:connector-curvature="0"
       id="path6485"
       style="fill:url(#radialGradient6511);fill-opacity:1;fill-rule:evenodd;stroke:none" />
  </g>
  <g
     transform="matrix(1.1494031,0,0,1.1494031,176.40613,142.68932)"
     id="g6576">
    <path
       d="m -121.06194,-48.571428 c 5.3e-4,3.020641 -2.44803,5.469635 -5.46867,5.469635 -3.02064,0 -5.46921,-2.448994 -5.46868,-5.469635 -5.3e-4,-3.020642 2.44804,-5.469636 5.46868,-5.469636 3.02064,0 5.4692,2.448994 5.46867,5.469636 l 0,0 z"
       inkscape:connector-curvature="0"
       id="path6553"
       style="fill:#5c7d21;fill-opacity:1;fill-rule:evenodd;stroke:#000000;stroke-width:0.16768143px;stroke-linecap:butt;stroke-linejoin:miter;stroke-opacity:1" />
    <path
       d="m -122.60697,-44.724812 c -2.13554,2.136289 -5.59864,2.136593 -7.73455,6.77e-4 -2.13592,-2.135916 -2.13562,-5.599013 6.7e-4,-7.734554 2.13554,-2.136291 5.59864,-2.136594 7.73456,-6.78e-4 2.13591,2.135916 2.13561,5.599013 -6.8e-4,7.734555 l 0,0 z"
       inkscape:connector-curvature="0"
       id="path6555"
       style="opacity:0.71739131;fill:url(#linearGradient6581);fill-opacity:1;fill-rule:evenodd;stroke:none" />
    <path
       d="m -125.43564,-50.664789 c 2.9e-4,1.695413 -1.37403,3.069974 -3.06944,3.069974 -1.69541,0 -3.06973,-1.374561 -3.06944,-3.069974 -2.9e-4,-1.695413 1.37403,-3.069974 3.06944,-3.069974 1.69541,0 3.06973,1.374561 3.06944,3.069974 l 0,0 z"
       inkscape:connector-curvature="0"
       id="path6557"
       style="fill:url(#radialGradient6583);fill-opacity:1;fill-rule:evenodd;stroke:none" />
  </g>
  <path
     d="m 21.240033,21.107912 5.761774,35.937733 8.56999,-4.947889 5.755408,9.968656 5.340351,-3.083252 -5.755408,-9.968655 8.569991,-4.947886 -28.242106,-22.958707 z"
     inkscape:connector-curvature="0"
     id="path6783"
     style="fill:#ffffff;fill-opacity:1;fill-rule:evenodd;stroke:#000000;stroke-width:1.40948713;stroke-linecap:round;stroke-linejoin:round;stroke-miterlimit:4;stroke-opacity:1;stroke-dashoffset:0" />
</svg>
