<?xml version="1.0" encoding="UTF-8" standalone="no"?>
<!-- Created with Inkscape (http://www.inkscape.org/) -->

<svg
   xmlns:dc="http://purl.org/dc/elements/1.1/"
   xmlns:cc="http://creativecommons.org/ns#"
   xmlns:rdf="http://www.w3.org/1999/02/22-rdf-syntax-ns#"
   xmlns:svg="http://www.w3.org/2000/svg"
   xmlns="http://www.w3.org/2000/svg"
   xmlns:xlink="http://www.w3.org/1999/xlink"
   xmlns:inkscape="http://www.inkscape.org/namespaces/inkscape"
   version="1.0"
   width="100"
   height="100"
   id="svg2">
  <metadata
     id="metadata2566">
    <rdf:RDF>
      <cc:Work
         rdf:about="">
        <dc:format>image/svg+xml</dc:format>
        <dc:type
           rdf:resource="http://purl.org/dc/dcmitype/StillImage" />
      </cc:Work>
    </rdf:RDF>
  </metadata>
  <defs
     id="defs4">
    <linearGradient
       id="linearGradient3384">
      <stop
         id="stop3386"
         style="stop-color:#0000ff;stop-opacity:1"
         offset="0" />
      <stop
         id="stop3388"
         style="stop-color:#000000;stop-opacity:1"
         offset="1" />
    </linearGradient>
    <linearGradient
       id="linearGradient3252">
      <stop
         id="stop3254"
         style="stop-color:#ffffff;stop-opacity:1"
         offset="0" />
      <stop
         id="stop3256"
         style="stop-color:#7f7fff;stop-opacity:0"
         offset="1" />
    </linearGradient>
    <linearGradient
       x1="25.398125"
       y1="63.345894"
       x2="90.625114"
       y2="63.345894"
       id="linearGradient3469"
       xlink:href="#linearGradient3384"
       gradientUnits="userSpaceOnUse"
       gradientTransform="matrix(0.2688926,0.2688926,-0.2688926,0.2688926,38.227733,-8.4494346)" />
    <radialGradient
       cx="58.01162"
       cy="63.345894"
       r="33.113495"
       fx="58.01162"
       fy="63.345894"
       id="radialGradient3471"
       xlink:href="#linearGradient3252"
       gradientUnits="userSpaceOnUse"
       gradientTransform="matrix(0.2134373,0,0,0.2134373,19.805211,5.9610473)" />
  </defs>
  <g
     transform="matrix(1.3050069,0,0,1.3050069,-16.778349,5.069422)"
     id="g3462">
    <path
       d="m 51.916898,26.04927 c 0.0012,6.850275 -5.55171,12.404157 -12.40198,12.404157 -6.85028,0 -12.40319,-5.553882 -12.40199,-12.404157 -0.0012,-6.850276 5.55171,-12.404157 12.40199,-12.404157 6.85027,0 12.40318,5.553881 12.40198,12.404157 l 0,0 z"
       inkscape:connector-curvature="0"
       id="path6824"
       style="fill:#282828;fill-opacity:1;fill-rule:evenodd;stroke:none" />
    <g
       id="g3519">
      <path
         d="m 49.066773,24.22879 c 0.0012,6.850275 -5.551709,12.404157 -12.401985,12.404157 -6.850275,0 -12.403184,-5.553882 -12.401985,-12.404157 -0.0012,-6.850276 5.55171,-12.404157 12.401985,-12.404157 6.850276,0 12.403184,5.553881 12.401985,12.404157 l 0,0 z"
         inkscape:connector-curvature="0"
         id="path3474"
         style="fill:#0000ff;fill-opacity:1;fill-rule:evenodd;stroke:#000000;stroke-width:0.38027155px;stroke-linecap:butt;stroke-linejoin:miter;stroke-opacity:1" />
      <path
         d="m 45.562914,32.95223 c -4.843029,4.844723 -12.696715,4.845411 -17.54059,0.0015 -4.843878,-4.843877 -4.843189,-12.697563 0.0015,-17.54059 4.843028,-4.844725 12.696714,-4.845413 17.540591,-0.0015 4.843875,4.843876 4.843187,12.697563 -0.0015,17.540591 l 0,0 z"
         inkscape:connector-curvature="0"
         id="path3476"
         style="opacity:0.71739131;fill:url(#linearGradient3469);fill-opacity:1;fill-rule:evenodd;stroke:none" />
      <path
         d="m 39.147988,19.481422 c 6.73e-4,3.844893 -3.11604,6.962154 -6.960935,6.962154 -3.844894,0 -6.961608,-3.117261 -6.960935,-6.962154 -6.73e-4,-3.844895 3.116041,-6.962154 6.960935,-6.962154 3.844895,0 6.961608,3.117259 6.960935,6.962154 l 0,0 z"
         inkscape:connector-curvature="0"
         id="path3478"
         style="fill:url(#radialGradient3471);fill-opacity:1;fill-rule:evenodd;stroke:none" />
    </g>
  </g>
  <path
     d="m 66.450953,56.938159 7.634938,0 0,9.553075 -7.634938,0 0,-9.553075 m 7.409275,-5.528748 -7.183612,0 0,-5.792022 c -1.5e-5,-2.532419 0.351017,-4.613533 1.053095,-6.243348 0.702047,-1.629761 2.181393,-3.522822 4.438043,-5.67919 l 3.384947,-3.347337 c 1.429175,-1.328868 2.457196,-2.582551 3.084064,-3.761053 0.651888,-1.178423 0.977846,-2.381958 0.977874,-3.610611 -2.8e-5,-2.231513 -0.827459,-4.036816 -2.482295,-5.415917 -1.629814,-1.379002 -3.798685,-2.068528 -6.506622,-2.068579 -1.980838,5.1e-5 -4.099563,0.43884 -6.35618,1.316369 -2.231568,0.877627 -4.563419,2.156384 -6.995559,3.836274 l 0,-7.07078 c 2.356919,-1.429146 4.738917,-2.494777 7.146001,-3.196895 2.432133,-0.7020066 4.939499,-1.0530379 7.522107,-1.0530951 4.613533,5.72e-5 8.311898,1.2161301 11.095106,3.6482211 2.808219,2.432199 4.212344,5.641628 4.21238,9.628296 -3.6e-5,1.905643 -0.451362,3.723483 -1.35398,5.453527 -0.902686,1.705048 -2.482326,3.63572 -4.738926,5.792022 l -3.309727,3.234506 c -1.178488,1.178491 -2.018456,2.106217 -2.519906,2.783179 -0.476423,0.651942 -0.814917,1.29132 -1.015484,1.918137 -0.150465,0.526572 -0.263296,1.16595 -0.338495,1.918137 -0.07524,0.752233 -0.112854,1.780253 -0.112831,3.084064 l 0,4.626095"
     inkscape:connector-curvature="0"
     id="text2174"
     style="font-size:77.02636719px;font-style:normal;font-weight:normal;fill:#000000;fill-opacity:1;stroke:none;font-family:Bitstream Vera Sans" />
  <path
     d="m 41.996702,74.346494 c -3.28298,2.646908 5.023448,6.273278 2.180884,1.60941 -1.677447,-3.268058 4.785581,-0.0043 1.078135,-0.526366 2.121109,4.751592 -4.131527,6.00646 -4.441307,1.047401 -0.300467,-0.781051 -0.286384,-3.222556 1.182288,-2.130445 z m -1.53053,4.269802 c -2.726147,3.072033 -2.638318,-5.87909 -0.902509,-1.197434 -1.268182,1.845471 -0.873289,1.148252 0.902509,1.197434 z m -6.231919,-0.51237 c 2.073776,1.543243 1.101704,-4.819008 2.58991,0.149608 0.205682,2.185772 -2.198212,1.09501 -2.58991,-0.149608 z M 36.2797,77.705409 c 0.39265,-2.241232 -2.4852,-0.489797 0,0 z m -4.979558,-1.26196 c 1.142117,-1.389308 -1.400283,-4.673872 1.011971,-1.36435 1.085784,1.90943 2.482608,9.252209 0.320939,3.74512 -0.219483,-0.883106 -0.505102,-1.867731 -1.33291,-2.38077 z m -0.502778,0.113854 c 0.922376,3.679154 -5.468501,3.003503 -3.026809,-0.252957 1.027236,4.420392 1.791994,-1.745613 3.026809,0.252957 l 0,0 z m -6.480795,1.622525 c 2.947986,-0.412902 -1.524926,-7.349553 1.563559,-2.32812 0.383824,1.259451 0.658629,5.37737 -1.563559,2.32812 z m -4.757315,-1.736379 c 1.142133,-1.389308 -1.400292,-4.673872 1.011977,-1.36435 1.085783,1.90943 2.482606,9.252209 0.320939,3.745109 -0.219484,-0.883095 -0.505107,-1.86772 -1.332916,-2.380759 z m -2.01792,-1.7269 c -1.597646,-0.608948 1.398186,-1.029022 0,0 z m -0.65341,3.586635 c 1.740563,-1.821427 1.485532,-3.214137 1.772299,0.583164 -0.324966,0.943251 -1.596775,-0.133939 -1.772299,-0.583164 z m -2.225958,-0.123356 c 2.947987,-0.412902 -1.524928,-7.349553 1.563559,-2.32812 0.383828,1.259451 0.658623,5.37737 -1.563559,2.32812 z m -2.955119,-0.0759 c 2.073775,1.543243 1.101697,-4.819019 2.589909,0.149597 0.205682,2.185772 -2.198209,1.095021 -2.589909,-0.149597 z m 2.045442,-0.398517 c 0.392652,-2.241232 -2.485201,-0.489808 0,0 z m -2.072377,0.910887 c -2.7261479,3.072033 -2.6383135,-5.87909 -0.902503,-1.197434 -1.2681702,1.84546 -0.8733053,1.148263 0.902503,1.197434 z"
     inkscape:connector-curvature="0"
     id="text5084"
     style="font-size:8.88496017px;font-style:normal;font-weight:normal;line-height:125%;fill:#000000;fill-opacity:1;stroke:none;font-family:Bitstream Vera Sans" />
  <use
     transform="translate(47.089415,-8.3640098e-8)"
     id="use2258"
     x="0"
     y="0"
     width="100"
     height="100"
     xlink:href="#text5084" />
  <use
     transform="translate(24.512298,10.966028)"
     id="use2260"
     x="0"
     y="0"
     width="100"
     height="100"
     xlink:href="#text5084" />
  <path
     d="m 68.804117,59.454652 7.63494,0 0,9.553075 -7.63494,0 0,-9.553075 m 7.40928,-5.528748 -7.18361,0 0,-5.792022 c -2e-5,-2.532419 0.35101,-4.613533 1.05309,-6.243348 0.70205,-1.629761 2.18139,-3.522822 4.43804,-5.67919 l 3.38495,-3.347337 c 1.42918,-1.328868 2.4572,-2.582551 3.08407,-3.761053 0.65189,-1.178423 0.97784,-2.381958 0.97787,-3.610611 -3e-5,-2.231513 -0.82746,-4.036816 -2.4823,-5.415917 -1.62981,-1.379002 -3.79868,-2.068528 -6.50662,-2.068579 -1.98084,5.1e-5 -4.09956,0.43884 -6.35618,1.316369 -2.23157,0.877627 -4.56342,2.156384 -6.99556,3.836274 l 0,-7.07078 c 2.35692,-1.429146 4.73892,-2.494777 7.146,-3.196895 2.43214,-0.702007 4.9395,-1.053038 7.52211,-1.053095 4.61353,5.7e-5 8.3119,1.21613 11.09511,3.648221 2.80822,2.432199 4.21234,5.641628 4.21238,9.628296 -4e-5,1.905643 -0.45136,3.723483 -1.35398,5.453527 -0.90269,1.705048 -2.48233,3.63572 -4.73893,5.792022 l -3.30973,3.234506 c -1.17848,1.178491 -2.01845,2.106217 -2.5199,2.783179 -0.47642,0.651942 -0.81492,1.29132 -1.01549,1.918137 -0.15046,0.526572 -0.26329,1.16595 -0.33849,1.918137 -0.07524,0.752233 -0.11285,1.780253 -0.11283,3.084064 l 0,4.626095"
     inkscape:connector-curvature="0"
     id="path3238"
     style="font-size:77.02636719px;font-style:normal;font-weight:normal;fill:#000000;fill-opacity:0.71348314;stroke:none;font-family:Bitstream Vera Sans" />
</svg>
