<?xml version="1.0" encoding="UTF-8" standalone="no"?>
<!-- Created with Inkscape (http://www.inkscape.org/) -->

<svg
   xmlns:dc="http://purl.org/dc/elements/1.1/"
   xmlns:cc="http://creativecommons.org/ns#"
   xmlns:rdf="http://www.w3.org/1999/02/22-rdf-syntax-ns#"
   xmlns:svg="http://www.w3.org/2000/svg"
   xmlns="http://www.w3.org/2000/svg"
   xmlns:xlink="http://www.w3.org/1999/xlink"
   xmlns:inkscape="http://www.inkscape.org/namespaces/inkscape"
   version="1.0"
   width="100"
   height="100"
   id="svg2">
  <metadata
     id="metadata2566">
    <rdf:RDF>
      <cc:Work
         rdf:about="">
        <dc:format>image/svg+xml</dc:format>
        <dc:type
           rdf:resource="http://purl.org/dc/dcmitype/StillImage" />
      </cc:Work>
    </rdf:RDF>
  </metadata>
  <defs
     id="defs4" />
  <rect
     width="19.222904"
     height="19.222904"
     x="4.2703981"
     y="31.390678"
     id="rect3191"
     style="fill:#004fe1;fill-opacity:1;fill-rule:evenodd;stroke:#000000;stroke-width:1.5;stroke-linecap:round;stroke-linejoin:round;stroke-miterlimit:4;stroke-opacity:1;stroke-dasharray:none;stroke-dashoffset:0" />
  <rect
     width="19.222904"
     height="19.222904"
     x="53.435287"
     y="53.225677"
     id="rect3211"
     style="fill:#e80000;fill-opacity:1;fill-rule:evenodd;stroke:#000000;stroke-width:1.5;stroke-linecap:round;stroke-linejoin:round;stroke-miterlimit:4;stroke-opacity:1;stroke-dasharray:none;stroke-dashoffset:0" />
  <rect
     width="19.222904"
     height="19.222904"
     x="4.2703977"
     y="75.060669"
     id="rect3227"
     style="fill:#86b1ff;fill-opacity:1;fill-rule:evenodd;stroke:#000000;stroke-width:1.5;stroke-linecap:round;stroke-linejoin:round;stroke-miterlimit:4;stroke-opacity:1;stroke-dasharray:none;stroke-dashoffset:0" />
  <rect
     width="19.222904"
     height="19.222904"
     x="53.435287"
     y="75.060669"
     id="rect3231"
     style="fill:#ff6f6f;fill-opacity:1;fill-rule:evenodd;stroke:#000000;stroke-width:1.5;stroke-linecap:round;stroke-linejoin:round;stroke-miterlimit:4;stroke-opacity:1;stroke-dasharray:none;stroke-dashoffset:0" />
  <use
     transform="translate(22.653061,0)"
     id="use2528"
     x="0"
     y="0"
     width="100"
     height="100"
     xlink:href="#rect3227" />
  <use
     transform="translate(22.653061,0)"
     id="use2530"
     x="0"
     y="0"
     width="100"
     height="100"
     xlink:href="#rect3231" />
  <use
     transform="translate(22.653061,0)"
     id="use2532"
     x="0"
     y="0"
     width="100"
     height="100"
     xlink:href="#rect3211" />
  <use
     transform="translate(22.653061,-0.2040816)"
     id="use2522"
     x="0"
     y="0"
     width="100"
     height="100"
     xlink:href="#rect3191" />
  <use
     transform="translate(0,21.632653)"
     id="use2524"
     x="0"
     y="0"
     width="100"
     height="100"
     xlink:href="#rect3191" />
  <use
     transform="translate(22.653061,21.836735)"
     id="use2526"
     x="0"
     y="0"
     width="100"
     height="100"
     xlink:href="#rect3191" />
  <path
     d="m 61.040337,59.016609 -1.605469,4.353516 3.216797,0 -1.611328,-4.353516 m -0.667969,-1.166015 1.341797,0 3.333984,8.748046 -1.230469,0 -0.796875,-2.24414 -3.943359,0 -0.796875,2.24414 -1.248047,0 3.339844,-8.748046 m 5.90039,-0.369141 1.078125,0 0,9.117187 -1.078125,0 0,-9.117187"
     inkscape:connector-curvature="0"
     id="text3318"
     style="font-size:12px;font-style:normal;font-weight:normal;fill:#000000;fill-opacity:1;stroke:none;font-family:Bitstream Vera Sans" />
  <rect
     width="19.222904"
     height="19.222904"
     x="4.4989777"
     y="4.7034764"
     id="rect2217"
     style="fill:#e4e7e1;fill-opacity:1;fill-rule:evenodd;stroke:#000000;stroke-width:1.5;stroke-linecap:round;stroke-linejoin:round;stroke-miterlimit:4;stroke-opacity:1;stroke-dasharray:none;stroke-dashoffset:0" />
  <path
     d="m 10.1248,8.9966755 1.183593,0 0,3.5859375 4.300782,0 0,-3.5859375 1.183593,0 0,8.7480465 -1.183593,0 0,-4.166015 -4.300782,0 0,4.166015 -1.183593,0 0,-8.7480465"
     inkscape:connector-curvature="0"
     id="text3300"
     style="font-size:12px;font-style:normal;font-weight:normal;fill:#000000;fill-opacity:1;stroke:none;font-family:Bitstream Vera Sans" />
  <path
     d="m 6.8920202,57.578484 1.59375,0 3.8789058,7.318359 0,-7.318359 1.148438,0 0,8.748046 -1.59375,0 -3.8789063,-7.318359 0,7.318359 -1.1484375,0 0,-8.748046 M 18.80413,63.027702 c -0.871097,4e-6 -1.474612,0.09961 -1.810547,0.298828 -0.33594,0.199222 -0.503908,0.539065 -0.503907,1.019532 -1e-6,0.382814 0.124999,0.687501 0.375,0.914062 0.253904,0.222657 0.597654,0.333985 1.03125,0.333985 0.597653,0 1.076168,-0.210937 1.435547,-0.632813 0.363277,-0.425779 0.544917,-0.990232 0.544922,-1.693359 l 0,-0.240235 -1.072265,0 m 2.15039,-0.445312 0,3.74414 -1.078125,0 0,-0.996093 c -0.246098,0.398438 -0.552739,0.693359 -0.919922,0.884765 -0.367191,0.1875 -0.816409,0.28125 -1.347656,0.28125 -0.671877,0 -1.207033,-0.1875 -1.605469,-0.5625 -0.394532,-0.378905 -0.591797,-0.884764 -0.591797,-1.517578 0,-0.738278 0.246093,-1.294918 0.738282,-1.669922 0.496092,-0.374996 1.234372,-0.562496 2.214843,-0.5625 l 1.511719,0 0,-0.105468 c -5e-6,-0.496089 -0.164067,-0.878902 -0.492187,-1.148438 -0.324223,-0.273432 -0.781254,-0.41015 -1.371094,-0.410156 -0.375003,6e-6 -0.740237,0.04493 -1.095703,0.134765 -0.355471,0.08985 -0.697267,0.224615 -1.025391,0.404297 l 0,-0.996093 c 0.39453,-0.152338 0.777342,-0.265619 1.148438,-0.339844 0.371091,-0.07812 0.732419,-0.117181 1.083984,-0.117188 0.949214,7e-6 1.658198,0.246101 2.126953,0.738282 0.468744,0.492193 0.703119,1.238286 0.703125,2.238281"
     inkscape:connector-curvature="0"
     id="text3310"
     style="font-size:12px;font-style:normal;font-weight:normal;fill:#000000;fill-opacity:1;stroke:none;font-family:Bitstream Vera Sans" />
  <path
     d="m 28.524672,57.714539 1.763671,0 2.232422,5.953125 2.244141,-5.953125 1.763672,0 0,8.748046 -1.154297,0 0,-7.68164 -2.255859,6 -1.189454,0 -2.255859,-6 0,7.68164 -1.148437,0 0,-8.748046 m 14.630859,5.390625 c -6e-6,-0.781246 -0.162115,-1.386714 -0.486328,-1.816407 -0.320317,-0.429682 -0.771489,-0.644525 -1.353516,-0.644531 -0.578128,6e-6 -1.029299,0.214849 -1.353515,0.644531 -0.320315,0.429693 -0.480471,1.035161 -0.480469,1.816407 -2e-6,0.777346 0.160154,1.380861 0.480469,1.810546 0.324216,0.429689 0.775387,0.644533 1.353515,0.644532 0.582027,10e-7 1.033199,-0.214843 1.353516,-0.644532 0.324213,-0.429685 0.486322,-1.0332 0.486328,-1.810546 m 1.078125,2.542968 c -7e-6,1.117188 -0.248053,1.947265 -0.744141,2.490235 -0.496099,0.546872 -1.255864,0.82031 -2.279297,0.820312 -0.378909,-2e-6 -0.73633,-0.0293 -1.072265,-0.08789 -0.33594,-0.05469 -0.662111,-0.140628 -0.978516,-0.257813 l 0,-1.048828 c 0.316405,0.171874 0.628904,0.298827 0.9375,0.380859 0.308591,0.08203 0.623044,0.123046 0.94336,0.123047 0.707027,-10e-7 1.236323,-0.185548 1.58789,-0.55664 0.351557,-0.367189 0.527338,-0.923829 0.527344,-1.669922 l 0,-0.533203 c -0.222662,0.386719 -0.507818,0.675781 -0.855469,0.867187 -0.34766,0.191406 -0.763676,0.287109 -1.248047,0.287109 -0.80469,0 -1.453127,-0.30664 -1.945312,-0.919921 -0.492189,-0.61328 -0.738282,-1.425779 -0.738281,-2.4375 -1e-6,-1.015621 0.246092,-1.830073 0.738281,-2.44336 0.492185,-0.613275 1.140622,-0.919915 1.945312,-0.919922 0.484371,7e-6 0.900387,0.09571 1.248047,0.28711 0.347651,0.191412 0.632807,0.480474 0.855469,0.867187 l 0,-0.996094 1.078125,0 0,5.748047"
     inkscape:connector-curvature="0"
     id="text3314"
     style="font-size:12px;font-style:normal;font-weight:normal;fill:#000000;fill-opacity:1;stroke:none;font-family:Bitstream Vera Sans" />
  <path
     d="m 86.421875,58.273758 0,1.154297 c -0.449225,-0.214836 -0.873052,-0.374993 -1.271484,-0.480469 -0.398443,-0.105461 -0.783208,-0.158195 -1.154297,-0.158203 -0.644535,8e-6 -1.142581,0.125008 -1.494141,0.375 -0.347658,0.250007 -0.521486,0.605476 -0.521484,1.066406 -2e-6,0.386725 0.115232,0.679694 0.345703,0.878906 0.234372,0.195318 0.675778,0.353521 1.324219,0.47461 l 0.714843,0.146484 c 0.882808,0.167974 1.533198,0.464848 1.951172,0.890625 0.421869,0.421879 0.632806,0.988285 0.632813,1.699219 -7e-6,0.847658 -0.285163,1.490235 -0.855469,1.927734 -0.566412,0.4375 -1.398442,0.65625 -2.496094,0.65625 -0.414065,0 -0.855471,-0.04687 -1.324218,-0.140625 -0.464846,-0.09375 -0.947267,-0.232421 -1.447266,-0.416015 l 0,-1.21875 c 0.480467,0.269532 0.95117,0.472657 1.412109,0.609375 0.460935,0.136719 0.91406,0.205079 1.359375,0.205078 0.675777,10e-7 1.197261,-0.132812 1.564453,-0.398438 0.367182,-0.265623 0.550776,-0.644529 0.550782,-1.136718 -6e-6,-0.429685 -0.132818,-0.765622 -0.398438,-1.007813 -0.261724,-0.242184 -0.693364,-0.423824 -1.294922,-0.544922 l -0.720703,-0.140625 c -0.882815,-0.175777 -1.521486,-0.451167 -1.916016,-0.826172 -0.394532,-0.374994 -0.591797,-0.896478 -0.591796,-1.564453 -10e-7,-0.77343 0.271483,-1.382805 0.814453,-1.828125 0.546873,-0.445304 1.298825,-0.66796 2.255859,-0.667969 0.410152,9e-6 0.82812,0.03712 1.253906,0.111329 0.425776,0.07423 0.861323,0.185555 1.306641,0.333984 m 2.326172,1.898437 1.078125,0 0,6.5625 -1.078125,0 0,-6.5625 m 0,-2.554687 1.078125,0 0,1.365234 -1.078125,0 0,-1.365234"
     inkscape:connector-curvature="0"
     id="text3322"
     style="font-size:12px;font-style:normal;font-weight:normal;fill:#000000;fill-opacity:1;stroke:none;font-family:Bitstream Vera Sans" />
  <path
     d="m 10.157326,80.401466 1.183593,0 0,3.697266 3.925782,-3.697266 1.523437,0 -4.341797,4.078125 4.652344,4.669922 -1.558594,0 -4.201172,-4.21289 0,4.21289 -1.183593,0 0,-8.748047"
     inkscape:connector-curvature="0"
     id="text3326"
     style="font-size:12px;font-style:normal;font-weight:normal;fill:#000000;fill-opacity:1;stroke:none;font-family:Bitstream Vera Sans" />
  <path
     d="m 36.299944,80.905373 0,1.248046 c -0.398445,-0.371086 -0.824226,-0.64843 -1.277344,-0.832031 -0.449225,-0.183586 -0.92774,-0.275382 -1.435547,-0.27539 -1.000004,8e-6 -1.765628,0.306648 -2.296875,0.919921 -0.531252,0.609382 -0.796877,1.492194 -0.796875,2.648438 -2e-6,1.152347 0.265623,2.035159 0.796875,2.648437 0.531247,0.609377 1.296871,0.914064 2.296875,0.914063 0.507807,10e-7 0.986322,-0.0918 1.435547,-0.275391 0.453118,-0.183592 0.878899,-0.460936 1.277344,-0.832031 l 0,1.236328 c -0.41407,0.281251 -0.853523,0.492188 -1.318359,0.632813 -0.460944,0.140625 -0.949225,0.210937 -1.464844,0.210937 -1.324223,0 -2.36719,-0.404296 -3.128906,-1.21289 -0.76172,-0.812499 -1.142579,-1.919919 -1.142579,-3.322266 0,-1.406244 0.380859,-2.513665 1.142579,-3.322266 0.761716,-0.812491 1.804683,-1.218741 3.128906,-1.21875 0.523432,9e-6 1.015619,0.07032 1.476562,0.210938 0.464837,0.136727 0.900384,0.343758 1.306641,0.621094 m 4.775391,4.77539 c -0.871097,4e-6 -1.474612,0.09961 -1.810547,0.298828 -0.33594,0.199222 -0.503908,0.539065 -0.503907,1.019532 -10e-7,0.382814 0.124999,0.687501 0.375,0.914062 0.253904,0.222657 0.597654,0.333985 1.03125,0.333984 0.597653,10e-7 1.076168,-0.210936 1.435547,-0.632812 0.363277,-0.425779 0.544917,-0.990232 0.544922,-1.693359 l 0,-0.240235 -1.072265,0 m 2.15039,-0.445312 0,3.74414 -1.078125,0 0,-0.996093 c -0.246099,0.398438 -0.552739,0.693359 -0.919922,0.884765 -0.367191,0.1875 -0.816409,0.28125 -1.347656,0.28125 -0.671877,0 -1.207033,-0.1875 -1.605469,-0.5625 -0.394532,-0.378905 -0.591797,-0.884764 -0.591797,-1.517578 0,-0.738278 0.246093,-1.294919 0.738282,-1.669922 0.496091,-0.374996 1.234372,-0.562496 2.214843,-0.5625 l 1.511719,0 0,-0.105469 c -5e-6,-0.496089 -0.164067,-0.878901 -0.492187,-1.148437 -0.324223,-0.273432 -0.781254,-0.41015 -1.371094,-0.410156 -0.375003,6e-6 -0.740237,0.04493 -1.095703,0.134765 -0.355471,0.08985 -0.697267,0.224615 -1.025391,0.404297 l 0,-0.996094 c 0.39453,-0.152337 0.777342,-0.265618 1.148438,-0.339843 0.371091,-0.07812 0.732418,-0.117181 1.083984,-0.117188 0.949214,7e-6 1.658198,0.2461 2.126953,0.738281 0.468744,0.492193 0.703119,1.238286 0.703125,2.238282"
     inkscape:connector-curvature="0"
     id="text3330"
     style="font-size:12px;font-style:normal;font-weight:normal;fill:#000000;fill-opacity:1;stroke:none;font-family:Bitstream Vera Sans" />
  <path
     d="m 80.168922,80.401466 7.400391,0 0,0.996094 -3.105469,0 0,7.751953 -1.189453,0 0,-7.751953 -3.105469,0 0,-0.996094 m 8.132813,2.185547 1.078125,0 0,6.5625 -1.078125,0 0,-6.5625 m 0,-2.554687 1.078125,0 0,1.365234 -1.078125,0 0,-1.365234"
     inkscape:connector-curvature="0"
     id="text3338"
     style="font-size:12px;font-style:normal;font-weight:normal;fill:#000000;fill-opacity:1;stroke:none;font-family:Bitstream Vera Sans" />
  <path
     d="m 9.2428141,36.652134 1.1835939,0 0,7.751953 4.259765,0 0,0.996094 -5.4433589,0 0,-8.748047 m 6.6328129,2.185547 1.078125,0 0,6.5625 -1.078125,0 0,-6.5625 m 0,-2.554688 1.078125,0 0,1.365235 -1.078125,0 0,-1.365235"
     inkscape:connector-curvature="0"
     id="text3342"
     style="font-size:12px;font-style:normal;font-weight:normal;fill:#000000;fill-opacity:1;stroke:none;font-family:Bitstream Vera Sans" />
  <path
     d="m 31.109716,41.222446 0,3.205079 1.898438,0 c 0.636714,10e-7 1.107416,-0.130859 1.412109,-0.392579 0.308588,-0.265623 0.462885,-0.669919 0.462891,-1.21289 -6e-6,-0.546872 -0.154303,-0.949215 -0.462891,-1.207031 -0.304693,-0.261715 -0.775395,-0.392574 -1.412109,-0.392579 l -1.898438,0 m 0,-3.597656 0,2.636719 1.751954,0 c 0.57812,5e-6 1.007807,-0.107417 1.289062,-0.322266 0.285151,-0.218744 0.427729,-0.550775 0.427734,-0.996093 -5e-6,-0.4414 -0.142583,-0.771478 -0.427734,-0.990235 C 33.869477,37.734173 33.43979,37.624798 32.86167,37.62479 l -1.751954,0 m -1.183593,-0.972656 3.023437,0 c 0.902339,9e-6 1.597651,0.187509 2.085938,0.5625 0.488274,0.375008 0.732415,0.90821 0.732422,1.599609 -7e-6,0.535163 -0.125007,0.960943 -0.375,1.277344 -0.250007,0.316411 -0.617194,0.513677 -1.101563,0.591797 0.582025,0.125005 1.033197,0.386723 1.353516,0.785156 0.324211,0.394535 0.48632,0.888675 0.486328,1.482422 -8e-6,0.781252 -0.265632,1.384767 -0.796875,1.810547 -0.531256,0.425781 -1.287115,0.638672 -2.267578,0.638672 l -3.140625,0 0,-8.748047 m 13.792968,5.197266 0,0.527343 -4.957031,0 c 0.04687,0.74219 0.269529,1.308596 0.667969,1.699219 0.402341,0.38672 0.960934,0.580079 1.675781,0.580078 0.414058,1e-6 0.814448,-0.05078 1.201172,-0.152344 0.390619,-0.101561 0.777338,-0.253905 1.160156,-0.457031 l 0,1.019531 c -0.386725,0.164063 -0.783209,0.289063 -1.189453,0.375 -0.406255,0.08594 -0.818364,0.128907 -1.236328,0.128907 -1.046878,0 -1.876955,-0.304688 -2.490234,-0.914063 -0.609376,-0.609373 -0.914063,-1.433591 -0.914063,-2.472656 0,-1.074215 0.289062,-1.925776 0.867188,-2.554688 0.582029,-0.632806 1.365231,-0.949212 2.349609,-0.949218 0.882808,6e-6 1.580073,0.285162 2.091797,0.855468 0.515618,0.566412 0.773431,1.337896 0.773437,2.314454 m -1.078125,-0.316407 c -0.0078,-0.589839 -0.173833,-1.060542 -0.498046,-1.412109 -0.320318,-0.351557 -0.746099,-0.527338 -1.277344,-0.527344 -0.601566,6e-6 -1.083987,0.169928 -1.447266,0.509766 -0.359377,0.339849 -0.566408,0.818364 -0.621094,1.435547 l 3.84375,-0.0059"
     inkscape:connector-curvature="0"
     id="text3346"
     style="font-size:12px;font-style:normal;font-weight:normal;fill:#000000;fill-opacity:1;stroke:none;font-family:Bitstream Vera Sans" />
  <path
     d="m 62.34024,80.518654 0,1.154297 c -0.449224,-0.214836 -0.873052,-0.374993 -1.271484,-0.480469 -0.398442,-0.105461 -0.783207,-0.158195 -1.154297,-0.158203 -0.644534,8e-6 -1.142581,0.125008 -1.49414,0.375 -0.347659,0.250007 -0.521487,0.605476 -0.521485,1.066406 -2e-6,0.386725 0.115233,0.679693 0.345703,0.878906 0.234373,0.195318 0.675779,0.353521 1.324219,0.47461 l 0.714844,0.146484 c 0.882807,0.167974 1.533197,0.464848 1.951172,0.890625 0.421868,0.421879 0.632805,0.988284 0.632812,1.699219 -7e-6,0.847658 -0.285163,1.490235 -0.855469,1.927734 -0.566411,0.4375 -1.398442,0.65625 -2.496093,0.65625 -0.414066,0 -0.855472,-0.04687 -1.324219,-0.140625 -0.464846,-0.09375 -0.947267,-0.232421 -1.447266,-0.416015 l 0,-1.21875 c 0.480468,0.269532 0.95117,0.472657 1.41211,0.609375 0.460935,0.136719 0.914059,0.205079 1.359375,0.205078 0.675777,10e-7 1.197261,-0.132812 1.564453,-0.398438 0.367182,-0.265623 0.550775,-0.644529 0.550781,-1.136719 -6e-6,-0.429684 -0.132818,-0.765621 -0.398437,-1.007812 -0.261724,-0.242184 -0.693364,-0.423824 -1.294922,-0.544922 L 59.217194,84.96006 c -0.882815,-0.175777 -1.521487,-0.451167 -1.916016,-0.826172 -0.394532,-0.374995 -0.591798,-0.896478 -0.591797,-1.564453 -10e-7,-0.77343 0.271483,-1.382805 0.814453,-1.828125 0.546873,-0.445304 1.298825,-0.66796 2.25586,-0.667969 0.410152,9e-6 0.82812,0.03712 1.253906,0.111328 0.425776,0.07423 0.861322,0.185556 1.30664,0.333985 m 7.048829,2.15039 0,1.007813 c -0.304693,-0.167963 -0.611334,-0.292963 -0.919922,-0.375 -0.304692,-0.08593 -0.613286,-0.1289 -0.925782,-0.128906 -0.699222,6e-6 -1.24219,0.222662 -1.628906,0.667968 -0.386721,0.441411 -0.58008,1.062505 -0.580078,1.863282 -2e-6,0.800783 0.193357,1.42383 0.580078,1.86914 0.386716,0.441408 0.929684,0.66211 1.628906,0.66211 0.312496,0 0.62109,-0.04102 0.925782,-0.123047 0.308588,-0.08594 0.615229,-0.21289 0.919922,-0.38086 l 0,0.996094 c -0.300787,0.140625 -0.613287,0.246094 -0.9375,0.316406 -0.320317,0.07031 -0.662114,0.105469 -1.025391,0.105469 -0.988284,0 -1.77344,-0.310546 -2.355469,-0.93164 -0.582032,-0.621093 -0.873047,-1.458983 -0.873047,-2.513672 0,-1.070308 0.292968,-1.912104 0.878907,-2.525391 0.589841,-0.613275 1.396481,-0.919915 2.419921,-0.919922 0.332027,7e-6 0.656246,0.03516 0.972657,0.105469 0.316401,0.06641 0.623041,0.167975 0.919922,0.304687"
     inkscape:connector-curvature="0"
     id="text3350"
     style="font-size:12px;font-style:normal;font-weight:normal;fill:#000000;fill-opacity:1;stroke:none;font-family:Bitstream Vera Sans" />
</svg>
