<?xml version="1.0" encoding="UTF-8" standalone="no"?>
<!-- Created with Inkscape (http://www.inkscape.org/) -->
<svg
   xmlns:svg="http://www.w3.org/2000/svg"
   xmlns="http://www.w3.org/2000/svg"
   xmlns:xlink="http://www.w3.org/1999/xlink"
   version="1.0"
   width="100"
   height="100"
   id="svg2">
  <defs
     id="defs4">
    <linearGradient
       id="linearGradient6570">
      <stop
         id="stop6572"
         style="stop-color:#3e7626;stop-opacity:1"
         offset="0" />
      <stop
         id="stop6574"
         style="stop-color:#000000;stop-opacity:1"
         offset="1" />
    </linearGradient>
    <linearGradient
       id="linearGradient6541">
      <stop
         id="stop6543"
         style="stop-color:#000000;stop-opacity:1"
         offset="0" />
      <stop
         id="stop6545"
         style="stop-color:#dbd6d4;stop-opacity:1"
         offset="1" />
    </linearGradient>
    <linearGradient
       id="linearGradient6498">
      <stop
         id="stop6500"
         style="stop-color:#d600ff;stop-opacity:1"
         offset="0" />
      <stop
         id="stop6502"
         style="stop-color:#000000;stop-opacity:1"
         offset="1" />
    </linearGradient>
    <linearGradient
       id="linearGradient6448">
      <stop
         id="stop6450"
         style="stop-color:#000000;stop-opacity:1"
         offset="0" />
      <stop
         id="stop6452"
         style="stop-color:#ffffff;stop-opacity:1"
         offset="1" />
    </linearGradient>
    <linearGradient
       id="linearGradient6410">
      <stop
         id="stop6412"
         style="stop-color:#d90000;stop-opacity:0.42424244"
         offset="0" />
      <stop
         id="stop6414"
         style="stop-color:#dbd6d4;stop-opacity:1"
         offset="1" />
    </linearGradient>
    <linearGradient
       id="linearGradient3384">
      <stop
         id="stop3386"
         style="stop-color:#0000ff;stop-opacity:1"
         offset="0" />
      <stop
         id="stop3388"
         style="stop-color:#000000;stop-opacity:1"
         offset="1" />
    </linearGradient>
    <linearGradient
       id="linearGradient3252">
      <stop
         id="stop3254"
         style="stop-color:#ffffff;stop-opacity:1"
         offset="0" />
      <stop
         id="stop3256"
         style="stop-color:#bababa;stop-opacity:0"
         offset="1" />
    </linearGradient>
    <radialGradient
       cx="52.697197"
       cy="124.21634"
       r="30.460808"
       fx="52.697197"
       fy="124.21634"
       id="radialGradient6446"
       xlink:href="#linearGradient6448"
       gradientUnits="userSpaceOnUse"
       gradientTransform="matrix(1,0,0,0.405,0,73.908722)" />
    <linearGradient
       x1="25.398125"
       y1="63.345894"
       x2="90.625114"
       y2="63.345894"
       id="linearGradient6475"
       xlink:href="#linearGradient3384"
       gradientUnits="userSpaceOnUse"
       gradientTransform="matrix(0.2688926,0.2688926,-0.2688926,0.2688926,38.227733,-8.4494346)" />
    <radialGradient
       cx="58.01162"
       cy="63.345894"
       r="33.113495"
       fx="58.01162"
       fy="63.345894"
       id="radialGradient6477"
       xlink:href="#linearGradient3252"
       gradientUnits="userSpaceOnUse"
       gradientTransform="matrix(0.2134373,0,0,0.2134373,19.805211,5.9610473)" />
    <linearGradient
       x1="25.398125"
       y1="63.345894"
       x2="90.625114"
       y2="63.345894"
       id="linearGradient6509"
       xlink:href="#linearGradient6498"
       gradientUnits="userSpaceOnUse"
       gradientTransform="matrix(0.1185687,0.1185687,-0.1185687,0.1185687,115.41365,31.042241)" />
    <radialGradient
       cx="58.01162"
       cy="63.345894"
       r="33.113495"
       fx="58.01162"
       fy="63.345894"
       id="radialGradient6511"
       xlink:href="#linearGradient3252"
       gradientUnits="userSpaceOnUse"
       gradientTransform="matrix(9.411556e-2,0,0,9.411556e-2,107.29021,37.396569)" />
    <linearGradient
       x1="3.1110499"
       y1="36.230339"
       x2="23.543489"
       y2="36.230339"
       id="linearGradient6516"
       xlink:href="#linearGradient6410"
       gradientUnits="userSpaceOnUse"
       gradientTransform="matrix(-1.1494031,0,0,-1.1494031,91.917518,105.46032)" />
    <linearGradient
       x1="-12.244898"
       y1="-5.9183674"
       x2="3.0612245"
       y2="15.510204"
       id="linearGradient6520"
       xlink:href="#linearGradient6410"
       gradientUnits="userSpaceOnUse"
       gradientTransform="matrix(1.1494031,0,0,1.1494031,61.28071,22.173792)" />
    <linearGradient
       x1="20.408163"
       y1="2.0408163"
       x2="5.3061223"
       y2="12.448979"
       id="linearGradient6524"
       xlink:href="#linearGradient6410"
       gradientUnits="userSpaceOnUse"
       gradientTransform="matrix(1.1494031,0,0,1.1494031,61.28071,22.173792)" />
    <linearGradient
       x1="-23.087931"
       y1="36.786045"
       x2="2.7227142"
       y2="36.786045"
       id="linearGradient6528"
       xlink:href="#linearGradient6410"
       gradientUnits="userSpaceOnUse"
       gradientTransform="matrix(1.1494031,0,0,1.1494031,61.28071,22.173792)" />
    <linearGradient
       x1="54.795918"
       y1="24.387754"
       x2="53.359184"
       y2="37.424217"
       id="linearGradient6539"
       xlink:href="#linearGradient6541"
       gradientUnits="userSpaceOnUse"
       gradientTransform="matrix(1.1494031,0,0,1.1494031,-6.8993631,-8.2147829)" />
    <linearGradient
       x1="25.398125"
       y1="63.345894"
       x2="90.625114"
       y2="63.345894"
       id="linearGradient6581"
       xlink:href="#linearGradient6570"
       gradientUnits="userSpaceOnUse"
       gradientTransform="matrix(0.1185687,0.1185687,-0.1185687,0.1185687,-125.84143,-62.98095)" />
    <radialGradient
       cx="58.01162"
       cy="63.345894"
       r="33.113495"
       fx="58.01162"
       fy="63.345894"
       id="radialGradient6583"
       xlink:href="#linearGradient3252"
       gradientUnits="userSpaceOnUse"
       gradientTransform="matrix(9.411556e-2,0,0,9.411556e-2,-133.96487,-56.626622)" />
    <linearGradient
       x1="25.398125"
       y1="63.345894"
       x2="90.625114"
       y2="63.345894"
       id="linearGradient3478"
       xlink:href="#linearGradient3384"
       gradientUnits="userSpaceOnUse"
       gradientTransform="matrix(0.2688926,0.2688926,-0.2688926,0.2688926,38.227733,-8.4494346)" />
    <radialGradient
       cx="58.01162"
       cy="63.345894"
       r="33.113495"
       fx="58.01162"
       fy="63.345894"
       id="radialGradient3480"
       xlink:href="#linearGradient3252"
       gradientUnits="userSpaceOnUse"
       gradientTransform="matrix(0.2134373,0,0,0.2134373,19.805211,5.9610473)" />
  </defs>
  <path
     d="M 83.158005,124.21634 C 83.158005,131.02967 69.520237,136.55297 52.697197,136.55297 C 35.874157,136.55297 22.236389,131.02967 22.236389,124.21634 C 22.236389,117.40301 35.874157,111.87971 52.697197,111.87971 C 69.520237,111.87971 83.158005,117.40301 83.158005,124.21634 L 83.158005,124.21634 z"
     transform="matrix(1.2884767,0,0,0.91366,-12.089544,-25.108359)"
     id="path6438"
     style="fill:url(#radialGradient6446);fill-opacity:1;fill-rule:evenodd;stroke:none" />
  <path
     d="M 29.184212,14.110479 C 29.185312,20.181124 24.264341,25.102921 18.193699,25.102921 C 12.123049,25.102921 7.202115,20.181124 7.203178,14.110479 C 7.202118,8.039832 12.123049,3.1180367 18.193699,3.1180367 C 24.264341,3.1180367 29.185275,8.039832 29.184212,14.110479 L 29.184212,14.110479 z"
     id="path6824"
     style="fill:#282828;fill-opacity:1;fill-rule:evenodd;stroke:none" />
  <g
     transform="matrix(0.8861901,0,0,0.8861901,-16.583993,-9.5047709)"
     id="g3519">
    <path
       d="M 49.066773,24.22879 C 49.067973,31.079065 43.515064,36.632947 36.664788,36.632947 C 29.814513,36.632947 24.261604,31.079065 24.262803,24.22879 C 24.261603,17.378514 29.814513,11.824633 36.664788,11.824633 C 43.515064,11.824633 49.067972,17.378514 49.066773,24.22879 L 49.066773,24.22879 L 49.066773,24.22879 z"
       id="path3474"
       style="fill:#0000ff;fill-opacity:1;fill-rule:evenodd;stroke:#000000;stroke-width:0.38027155px;stroke-linecap:butt;stroke-linejoin:miter;stroke-opacity:1" />
    <path
       d="M 45.562914,32.95223 C 40.719885,37.796953 32.866199,37.797641 28.022324,32.95373 C 23.178446,28.109853 23.179135,20.256167 28.023824,15.41314 C 32.866852,10.568415 40.720538,10.567727 45.564415,15.41164 C 50.40829,20.255516 50.407602,28.109203 45.562915,32.952231 L 45.562915,32.952231 L 45.562914,32.95223 z"
       id="path3476"
       style="opacity:0.71739131;fill:url(#linearGradient3478);fill-opacity:1;fill-rule:evenodd;stroke:none" />
    <path
       d="M 39.147988,19.481422 C 39.148661,23.326315 36.031948,26.443576 32.187053,26.443576 C 28.342159,26.443576 25.225445,23.326315 25.226118,19.481422 C 25.225445,15.636527 28.342159,12.519268 32.187053,12.519268 C 36.031948,12.519268 39.148661,15.636527 39.147988,19.481422 L 39.147988,19.481422 z"
       id="path3478"
       style="fill:url(#radialGradient3480);fill-opacity:1;fill-rule:evenodd;stroke:none" />
  </g>
  <path
     d="M 39.210682,89.181803 L 63.814108,91.527526 C 63.716608,73.790777 63.619108,56.054029 63.521608,38.317283 L 34.147275,37.360182 C 35.835069,54.634056 37.522876,71.907931 39.210682,89.181803 z"
     id="path5358"
     style="fill:#d70000;fill-opacity:1;fill-rule:evenodd;stroke:none" />
  <path
     d="M 39.80678,89.193734 L 64.410205,91.539456 C 64.312705,73.802708 64.215206,56.06596 64.117706,38.329214 L 34.743372,37.372112 C 36.431167,54.645986 38.118974,71.91986 39.80678,89.193734 L 39.80678,89.193734 z"
     id="path6343"
     style="fill:url(#linearGradient6528);fill-opacity:1;fill-rule:evenodd;stroke:none" />
  <path
     d="M 75.732508,17.558679 C 71.904475,24.401834 68.076441,31.244988 64.248408,38.088143 L 90.134961,36.416002 C 85.431753,30.054937 80.728544,23.693873 76.025335,17.332808"
     id="path5360"
     style="fill:#d70000;fill-opacity:1;fill-rule:evenodd;stroke:none" />
  <path
     d="M 76.328606,17.570609 C 72.500573,24.413765 68.672539,31.256919 64.844506,38.100074 L 90.731059,36.427932 C 86.027851,30.066868 81.324642,23.705804 76.621433,17.344739"
     id="path6345"
     style="fill:url(#linearGradient6524);fill-opacity:1;fill-rule:evenodd;stroke:none" />
  <path
     d="M 75.725266,16.599797 L 63.239011,37.42279 C 52.883525,37.077429 42.528035,36.732069 32.172551,36.386708 C 37.259536,29.791071 42.34651,23.195434 47.433492,16.599797 C 56.86408,16.599797 66.294676,16.599797 75.725266,16.599797 z"
     id="path5362"
     style="fill:#d70000;fill-opacity:1;fill-rule:evenodd;stroke:none" />
  <path
     d="M 76.321363,16.611728 L 63.835109,37.434721 C 53.479623,37.08936 43.124133,36.744 32.768648,36.398639 C 37.855634,29.803002 42.942608,23.207364 48.02959,16.611728 C 57.460179,16.611728 66.890774,16.611728 76.321363,16.611728 z"
     id="path6347"
     style="fill:url(#linearGradient6520);fill-opacity:1;fill-rule:evenodd;stroke:none" />
  <path
     d="M 64.323058,91.224847 L 64.260458,38.046222 L 87.745567,36.385407 C 86.05776,53.659279 84.369953,70.933153 82.682158,88.207027 C 76.562449,89.212967 70.442751,90.218907 64.323054,91.224847 L 64.323058,91.224847 z"
     id="path5364"
     style="fill:#d70000;fill-opacity:1;fill-rule:evenodd;stroke:none" />
  <path
     d="M 64.919156,91.236777 L 64.856556,38.058153 L 88.341664,36.397337 C 86.653859,53.67121 84.966052,70.945084 83.278257,88.218958 C 77.158548,89.224898 71.038851,90.230838 64.919153,91.236777 L 64.919156,91.236777 z"
     id="path6349"
     style="fill:url(#linearGradient6516);fill-opacity:1;fill-rule:evenodd;stroke:none" />
  <path
     d="M 34.683173,37.262558 C 36.370977,54.536432 38.05878,71.810306 39.746584,89.08418 C 47.870533,89.838668 55.998945,90.727884 64.120109,91.398284 C 70.239809,90.392345 76.35951,89.386404 82.479211,88.380466 C 84.167015,71.106592 85.854819,53.832718 87.542624,36.558844 M 75.834439,17.464325 C 80.537648,23.825389 85.240857,30.186454 89.944065,36.547518 C 81.078437,37.107935 72.21549,37.825114 63.348183,38.287318 C 52.992699,37.941957 42.637214,37.596597 32.281728,37.251236 C 37.368708,30.655599 42.455687,24.059962 47.542666,17.464325 C 56.973258,17.464325 66.403848,17.464325 75.834439,17.464325 z M 64.350011,91.429902 C 64.252511,73.693154 64.155011,55.956406 64.057512,38.21966 C 67.885545,31.376504 71.713579,24.53335 75.541612,17.690196"
     id="rect3391"
     style="fill:none;stroke:#000000;stroke-width:2.6196754;stroke-linecap:round;stroke-linejoin:round;stroke-miterlimit:4;stroke-dashoffset:0;stroke-opacity:1" />
  <path
     d="M 49.442859,21.933978 L 67.651357,21.933978 L 60.56768,33.938675 L 41.212335,33.332122 L 49.442859,21.933978 L 49.442859,21.933978 z"
     id="rect3416"
     style="fill:url(#linearGradient6539);fill-opacity:1;fill-rule:evenodd;stroke:#000000;stroke-width:1.72410464;stroke-linecap:round;stroke-linejoin:round;stroke-miterlimit:4;stroke-dasharray:none;stroke-dashoffset:0;stroke-opacity:1" />
  <g
     transform="matrix(0.5068314,0,0,0.5068314,61.526067,75.081792)"
     id="g6458">
    <path
       d="M 49.066773,24.22879 C 49.067973,31.079065 43.515064,36.632947 36.664788,36.632947 C 29.814513,36.632947 24.261604,31.079065 24.262803,24.22879 C 24.261603,17.378514 29.814513,11.824633 36.664788,11.824633 C 43.515064,11.824633 49.067972,17.378514 49.066773,24.22879 L 49.066773,24.22879 L 49.066773,24.22879 z"
       id="path6460"
       style="fill:#0000ff;fill-opacity:1;fill-rule:evenodd;stroke:#000000;stroke-width:0.38027155px;stroke-linecap:butt;stroke-linejoin:miter;stroke-opacity:1" />
    <path
       d="M 45.562914,32.95223 C 40.719885,37.796953 32.866199,37.797641 28.022324,32.95373 C 23.178446,28.109853 23.179135,20.256167 28.023824,15.41314 C 32.866852,10.568415 40.720538,10.567727 45.564415,15.41164 C 50.40829,20.255516 50.407602,28.109203 45.562915,32.952231 L 45.562915,32.952231 L 45.562914,32.95223 z"
       id="path6462"
       style="opacity:0.71739131;fill:url(#linearGradient6475);fill-opacity:1;fill-rule:evenodd;stroke:none" />
    <path
       d="M 39.147988,19.481422 C 39.148661,23.326315 36.031948,26.443576 32.187053,26.443576 C 28.342159,26.443576 25.225445,23.326315 25.226118,19.481422 C 25.225445,15.636527 28.342159,12.519268 32.187053,12.519268 C 36.031948,12.519268 39.148661,15.636527 39.147988,19.481422 L 39.147988,19.481422 z"
       id="path6464"
       style="fill:url(#radialGradient6477);fill-opacity:1;fill-rule:evenodd;stroke:none" />
  </g>
  <g
     transform="matrix(1.1494031,0,0,1.1494031,-62.630839,38.228115)"
     id="g6504">
    <path
       d="M 120.19314,45.451763 C 120.19367,48.472404 117.74511,50.921398 114.72447,50.921398 C 111.70383,50.921398 109.25526,48.472404 109.25579,45.451763 C 109.25526,42.431121 111.70383,39.982127 114.72447,39.982127 C 117.74511,39.982127 120.19367,42.431121 120.19314,45.451763 L 120.19314,45.451763 L 120.19314,45.451763 z"
       id="path6481"
       style="fill:#bd00ff;fill-opacity:1;fill-rule:evenodd;stroke:#000000;stroke-width:0.16768143px;stroke-linecap:butt;stroke-linejoin:miter;stroke-opacity:1" />
    <path
       d="M 118.64811,49.298379 C 116.51257,51.434668 113.04947,51.434972 110.91356,49.299056 C 108.77764,47.16314 108.77794,43.700043 110.91423,41.564502 C 113.04977,39.428211 116.51287,39.427908 118.64879,41.563824 C 120.7847,43.69974 120.7844,47.162837 118.64811,49.298379 L 118.64811,49.298379 L 118.64811,49.298379 z"
       id="path6483"
       style="opacity:0.71739131;fill:url(#linearGradient6509);fill-opacity:1;fill-rule:evenodd;stroke:none" />
    <path
       d="M 115.81944,43.358402 C 115.81973,45.053815 114.44541,46.428376 112.75,46.428376 C 111.05459,46.428376 109.68027,45.053815 109.68056,43.358402 C 109.68027,41.662989 111.05459,40.288428 112.75,40.288428 C 114.44541,40.288428 115.81973,41.662989 115.81944,43.358402 L 115.81944,43.358402 z"
       id="path6485"
       style="fill:url(#radialGradient6511);fill-opacity:1;fill-rule:evenodd;stroke:none" />
  </g>
  <g
     transform="matrix(1.1494031,0,0,1.1494031,176.40613,142.68932)"
     id="g6576">
    <path
       d="M -121.06194,-48.571428 C -121.06141,-45.550787 -123.50997,-43.101793 -126.53061,-43.101793 C -129.55125,-43.101793 -131.99982,-45.550787 -131.99929,-48.571428 C -131.99982,-51.59207 -129.55125,-54.041064 -126.53061,-54.041064 C -123.50997,-54.041064 -121.06141,-51.59207 -121.06194,-48.571428 L -121.06194,-48.571428 L -121.06194,-48.571428 z"
       id="path6553"
       style="fill:#5c7d21;fill-opacity:1;fill-rule:evenodd;stroke:#000000;stroke-width:0.16768143px;stroke-linecap:butt;stroke-linejoin:miter;stroke-opacity:1" />
    <path
       d="M -122.60697,-44.724812 C -124.74251,-42.588523 -128.20561,-42.588219 -130.34152,-44.724135 C -132.47744,-46.860051 -132.47714,-50.323148 -130.34085,-52.458689 C -128.20531,-54.59498 -124.74221,-54.595283 -122.60629,-52.459367 C -120.47038,-50.323451 -120.47068,-46.860354 -122.60697,-44.724812 L -122.60697,-44.724812 z"
       id="path6555"
       style="opacity:0.71739131;fill:url(#linearGradient6581);fill-opacity:1;fill-rule:evenodd;stroke:none" />
    <path
       d="M -125.43564,-50.664789 C -125.43535,-48.969376 -126.80967,-47.594815 -128.50508,-47.594815 C -130.20049,-47.594815 -131.57481,-48.969376 -131.57452,-50.664789 C -131.57481,-52.360202 -130.20049,-53.734763 -128.50508,-53.734763 C -126.80967,-53.734763 -125.43535,-52.360202 -125.43564,-50.664789 L -125.43564,-50.664789 L -125.43564,-50.664789 z"
       id="path6557"
       style="fill:url(#radialGradient6583);fill-opacity:1;fill-rule:evenodd;stroke:none" />
  </g>
  <path
     d="M 21.240033,21.107912 L 27.001807,57.045645 L 35.571797,52.097756 L 41.327205,62.066412 L 46.667556,58.98316 L 40.912148,49.014505 L 49.482139,44.066619 L 21.240033,21.107912 L 21.240033,21.107912 z"
     id="path6783"
     style="fill:#ffffff;fill-opacity:1;fill-rule:evenodd;stroke:#000000;stroke-width:1.40948713;stroke-linecap:round;stroke-linejoin:round;stroke-miterlimit:4;stroke-dashoffset:0;stroke-opacity:1" />
</svg>
