<?xml version="1.0" encoding="UTF-8" standalone="no"?>
<!-- Created with Inkscape (http://www.inkscape.org/) -->

<svg
   xmlns:dc="http://purl.org/dc/elements/1.1/"
   xmlns:cc="http://creativecommons.org/ns#"
   xmlns:rdf="http://www.w3.org/1999/02/22-rdf-syntax-ns#"
   xmlns:svg="http://www.w3.org/2000/svg"
   xmlns="http://www.w3.org/2000/svg"
   xmlns:xlink="http://www.w3.org/1999/xlink"
   xmlns:inkscape="http://www.inkscape.org/namespaces/inkscape"
   version="1.0"
   width="100"
   height="100"
   id="svg2">
  <metadata
     id="metadata2566">
    <rdf:RDF>
      <cc:Work
         rdf:about="">
        <dc:format>image/svg+xml</dc:format>
        <dc:type
           rdf:resource="http://purl.org/dc/dcmitype/StillImage" />
      </cc:Work>
    </rdf:RDF>
  </metadata>
  <defs
     id="defs4">
    <linearGradient
       id="linearGradient3197">
      <stop
         id="stop3199"
         style="stop-color:#e4e1e1;stop-opacity:1"
         offset="0" />
      <stop
         id="stop3201"
         style="stop-color:#af0707;stop-opacity:1"
         offset="1" />
    </linearGradient>
    <linearGradient
       id="linearGradient3189">
      <stop
         id="stop3191"
         style="stop-color:#000000;stop-opacity:1"
         offset="0" />
      <stop
         id="stop3193"
         style="stop-color:#000000;stop-opacity:0"
         offset="1" />
    </linearGradient>
    <radialGradient
       cx="50.059151"
       cy="48.853989"
       r="42.138134"
       fx="50.059151"
       fy="48.853989"
       id="radialGradient3195"
       xlink:href="#linearGradient3189"
       gradientUnits="userSpaceOnUse"
       gradientTransform="matrix(0.9573786,0,0,1.0730688,2.3984009,-3.7722635)" />
    <radialGradient
       cx="50.059151"
       cy="48.853989"
       r="42.138134"
       fx="50.059151"
       fy="48.853989"
       id="radialGradient3203"
       xlink:href="#linearGradient3197"
       gradientUnits="userSpaceOnUse"
       gradientTransform="matrix(0.9573786,0,0,1.0730688,2.3984009,-3.7722635)" />
  </defs>
  <path
     d="M 53.98773,19.037484 52.64253,9.2875434 78.9278,23.453219 52.64253,37.618894 l 1.3452,-9.467335 c -16.61169,0 -30.097642,13.485956 -30.097642,30.097644 0,16.61169 13.485962,30.097647 30.097642,30.097647 16.61169,0 30.09766,-13.485955 30.09765,-30.097647 l 9.11407,0 c 1e-5,21.643418 -17.56829,39.211707 -39.21172,39.211707 -21.64341,0 -39.211718,-17.568287 -39.211718,-39.211707 0,-21.643422 17.568298,-39.211719 39.211718,-39.211719 z"
     inkscape:connector-curvature="0"
     id="path3211"
     style="fill:#282828;fill-opacity:1;fill-rule:evenodd;stroke:none" />
  <path
     d="m 50.323964,14.314682 -1.3452,-9.7499413 26.285263,14.1656763 -26.285263,14.165675 1.3452,-9.467335 c -16.611689,0 -30.097644,13.485956 -30.097644,30.097644 0,16.61169 13.485957,30.097642 30.097644,30.097644 16.611692,0 30.097653,-13.485952 30.097643,-30.097644 l 9.114073,0 c 9e-6,21.643418 -17.568291,39.21172 -39.211716,39.21172 -21.643416,10e-7 -39.21172,-17.5683 -39.21172,-39.21172 0,-21.643422 17.568301,-39.211719 39.21172,-39.211719 z"
     inkscape:connector-curvature="0"
     id="path3205"
     style="fill:none;stroke:#000000;stroke-width:5;stroke-linecap:round;stroke-linejoin:round;stroke-miterlimit:4;stroke-opacity:1;stroke-dasharray:none;stroke-dashoffset:0" />
  <path
     d="m 50.323962,14.314682 -1.3452,-9.7499413 26.285267,14.1656763 -26.285267,14.165675 1.3452,-9.467334 c -16.611689,0 -30.097644,13.485955 -30.097644,30.097643 0,16.61169 13.485957,30.097642 30.097644,30.097644 16.611689,0 30.097649,-13.485952 30.097644,-30.097644 l 9.114075,0 c 10e-7,21.643418 -17.568298,39.21172 -39.211719,39.21172 -21.643416,10e-7 -39.211719,-17.5683 -39.211719,-39.21172 0,-21.643422 17.5683,-39.211719 39.211719,-39.211719 z"
     inkscape:connector-curvature="0"
     id="path3176"
     style="fill:url(#radialGradient3203);fill-opacity:1;fill-rule:evenodd;stroke:url(#radialGradient3195);stroke-width:2.26085615;stroke-linecap:round;stroke-linejoin:round;stroke-miterlimit:4;stroke-opacity:1;stroke-dashoffset:0" />
</svg>
