<?xml version="1.0" encoding="UTF-8" standalone="no"?>
<!-- Created with Inkscape (http://www.inkscape.org/) -->

<svg
   xmlns:dc="http://purl.org/dc/elements/1.1/"
   xmlns:cc="http://creativecommons.org/ns#"
   xmlns:rdf="http://www.w3.org/1999/02/22-rdf-syntax-ns#"
   xmlns:svg="http://www.w3.org/2000/svg"
   xmlns="http://www.w3.org/2000/svg"
   xmlns:xlink="http://www.w3.org/1999/xlink"
   xmlns:inkscape="http://www.inkscape.org/namespaces/inkscape"
   version="1.0"
   width="100"
   height="100"
   id="svg2">
  <metadata
     id="metadata2566">
    <rdf:RDF>
      <cc:Work
         rdf:about="">
        <dc:format>image/svg+xml</dc:format>
        <dc:type
           rdf:resource="http://purl.org/dc/dcmitype/StillImage" />
      </cc:Work>
    </rdf:RDF>
  </metadata>
  <defs
     id="defs4">
    <linearGradient
       id="linearGradient6570">
      <stop
         id="stop6572"
         style="stop-color:#3e7626;stop-opacity:1"
         offset="0" />
      <stop
         id="stop6574"
         style="stop-color:#000000;stop-opacity:1"
         offset="1" />
    </linearGradient>
    <linearGradient
       id="linearGradient6541">
      <stop
         id="stop6543"
         style="stop-color:#000000;stop-opacity:1"
         offset="0" />
      <stop
         id="stop6545"
         style="stop-color:#dbd6d4;stop-opacity:1"
         offset="1" />
    </linearGradient>
    <linearGradient
       id="linearGradient6498">
      <stop
         id="stop6500"
         style="stop-color:#d600ff;stop-opacity:1"
         offset="0" />
      <stop
         id="stop6502"
         style="stop-color:#000000;stop-opacity:1"
         offset="1" />
    </linearGradient>
    <linearGradient
       id="linearGradient6448">
      <stop
         id="stop6450"
         style="stop-color:#282828;stop-opacity:1"
         offset="0" />
      <stop
         id="stop6452"
         style="stop-color:#ffffff;stop-opacity:1"
         offset="1" />
    </linearGradient>
    <linearGradient
       id="linearGradient6410">
      <stop
         id="stop6412"
         style="stop-color:#d90000;stop-opacity:0.42424244"
         offset="0" />
      <stop
         id="stop6414"
         style="stop-color:#dbd6d4;stop-opacity:1"
         offset="1" />
    </linearGradient>
    <linearGradient
       id="linearGradient3384">
      <stop
         id="stop3386"
         style="stop-color:#0000ff;stop-opacity:1"
         offset="0" />
      <stop
         id="stop3388"
         style="stop-color:#000000;stop-opacity:1"
         offset="1" />
    </linearGradient>
    <linearGradient
       id="linearGradient3252">
      <stop
         id="stop3254"
         style="stop-color:#ffffff;stop-opacity:1"
         offset="0" />
      <stop
         id="stop3256"
         style="stop-color:#bababa;stop-opacity:0"
         offset="1" />
    </linearGradient>
    <linearGradient
       x1="25.398125"
       y1="63.345894"
       x2="90.625114"
       y2="63.345894"
       id="linearGradient6475"
       xlink:href="#linearGradient3384"
       gradientUnits="userSpaceOnUse"
       gradientTransform="matrix(0.2688926,0.2688926,-0.2688926,0.2688926,38.227733,-8.4494346)" />
    <radialGradient
       cx="58.01162"
       cy="63.345894"
       r="33.113495"
       fx="58.01162"
       fy="63.345894"
       id="radialGradient6477"
       xlink:href="#linearGradient3252"
       gradientUnits="userSpaceOnUse"
       gradientTransform="matrix(0.2134373,0,0,0.2134373,19.805211,5.9610473)" />
    <linearGradient
       x1="25.398125"
       y1="63.345894"
       x2="90.625114"
       y2="63.345894"
       id="linearGradient6509"
       xlink:href="#linearGradient6498"
       gradientUnits="userSpaceOnUse"
       gradientTransform="matrix(0.1185687,0.1185687,-0.1185687,0.1185687,115.41365,31.042241)" />
    <radialGradient
       cx="58.01162"
       cy="63.345894"
       r="33.113495"
       fx="58.01162"
       fy="63.345894"
       id="radialGradient6511"
       xlink:href="#linearGradient3252"
       gradientUnits="userSpaceOnUse"
       gradientTransform="matrix(0.09411556,0,0,0.09411556,107.29021,37.396569)" />
    <linearGradient
       x1="25.398125"
       y1="63.345894"
       x2="90.625114"
       y2="63.345894"
       id="linearGradient6581"
       xlink:href="#linearGradient6570"
       gradientUnits="userSpaceOnUse"
       gradientTransform="matrix(0.1185687,0.1185687,-0.1185687,0.1185687,-125.84143,-62.98095)" />
    <radialGradient
       cx="58.01162"
       cy="63.345894"
       r="33.113495"
       fx="58.01162"
       fy="63.345894"
       id="radialGradient6583"
       xlink:href="#linearGradient3252"
       gradientUnits="userSpaceOnUse"
       gradientTransform="matrix(0.09411556,0,0,0.09411556,-133.96487,-56.626622)" />
    <linearGradient
       x1="54.795918"
       y1="24.387754"
       x2="53.359184"
       y2="37.424217"
       id="linearGradient3309"
       xlink:href="#linearGradient6541"
       gradientUnits="userSpaceOnUse"
       gradientTransform="matrix(1.344668,0,0,1.344668,-28.125414,-26.054444)" />
    <linearGradient
       x1="3.1110499"
       y1="36.230339"
       x2="23.543489"
       y2="36.230339"
       id="linearGradient3313"
       xlink:href="#linearGradient6410"
       gradientUnits="userSpaceOnUse"
       gradientTransform="matrix(-1.344668,0,0,-1.344668,87.478853,106.93222)" />
    <linearGradient
       x1="-12.244898"
       y1="-5.9183674"
       x2="3.0612245"
       y2="15.510204"
       id="linearGradient3317"
       xlink:href="#linearGradient6410"
       gradientUnits="userSpaceOnUse"
       gradientTransform="matrix(1.344668,0,0,1.344668,51.637347,9.496658)" />
    <linearGradient
       x1="20.408163"
       y1="2.0408163"
       x2="5.3061223"
       y2="12.448979"
       id="linearGradient3321"
       xlink:href="#linearGradient6410"
       gradientUnits="userSpaceOnUse"
       gradientTransform="matrix(1.344668,0,0,1.344668,51.637347,9.496658)" />
    <linearGradient
       x1="-23.087931"
       y1="36.786045"
       x2="2.7227142"
       y2="36.786045"
       id="linearGradient3325"
       xlink:href="#linearGradient6410"
       gradientUnits="userSpaceOnUse"
       gradientTransform="matrix(1.344668,0,0,1.344668,51.637347,9.496658)" />
    <radialGradient
       cx="52.697197"
       cy="124.21634"
       r="30.460808"
       fx="52.697197"
       fy="124.21634"
       id="radialGradient3329"
       xlink:href="#linearGradient6448"
       gradientUnits="userSpaceOnUse"
       gradientTransform="matrix(1,0,0,0.405,0,73.908722)" />
  </defs>
  <path
     d="m 83.158005,124.21634 a 30.460808,12.336627 0 1 1 -60.921616,0 30.460808,12.336627 0 1 1 60.921616,0 z"
     transform="matrix(1.6053882,0,0,1.1072284,-35.205255,-51.74849)"
     id="path6438"
     style="fill:url(#radialGradient3329);fill-opacity:1;fill-rule:evenodd;stroke:none" />
  <path
     d="m 25.81798,87.888242 28.783148,2.744223 C 54.487064,69.882531 54.373001,49.132598 54.258939,28.382665 L 19.894381,27.262968 c 1.974524,20.208425 3.949062,40.41685 5.923599,60.625274 z"
     inkscape:connector-curvature="0"
     id="path5358"
     style="fill:#d70000;fill-opacity:1;fill-rule:evenodd;stroke:none" />
  <path
     d="m 26.515345,87.9022 28.783148,2.744222 C 55.184429,69.896489 55.070366,49.146555 54.956304,28.396623 L 20.591746,27.276926 c 1.974524,20.208425 3.949062,40.41685 5.923599,60.625274 z"
     inkscape:connector-curvature="0"
     id="path6343"
     style="fill:url(#linearGradient3325);fill-opacity:1;fill-rule:evenodd;stroke:none" />
  <path
     d="M 68.544272,4.0975103 C 64.065918,12.103207 59.587563,20.108902 55.10921,28.114598 L 85.393468,26.158387 C 79.891261,18.716681 74.389053,11.274975 68.886845,3.8332683"
     inkscape:connector-curvature="0"
     id="path5360"
     style="fill:#d70000;fill-opacity:1;fill-rule:evenodd;stroke:none" />
  <path
     d="M 69.241637,4.111468 C 64.763283,12.117164 60.284928,20.122859 55.806575,28.128555 L 86.090833,26.172344 C 80.588626,18.730638 75.086418,11.288932 69.58421,3.8472259"
     inkscape:connector-curvature="0"
     id="path6345"
     style="fill:url(#linearGradient3321);fill-opacity:1;fill-rule:evenodd;stroke:none" />
  <path
     d="M 68.535799,2.9757305 53.928332,27.336212 C 41.813617,26.93218 29.698898,26.528149 17.584184,26.124117 23.535366,18.407988 29.486534,10.691859 35.437712,2.9757305 c 11.032692,0 22.065393,0 33.098087,0 z"
     inkscape:connector-curvature="0"
     id="path5362"
     style="fill:#d70000;fill-opacity:1;fill-rule:evenodd;stroke:none" />
  <path
     d="M 69.233164,2.9896881 54.625697,27.35017 C 42.510982,26.946138 30.396263,26.542107 18.281549,26.138074 24.232731,18.421946 30.183899,10.705817 36.135077,2.9896881 c 11.032693,0 22.065393,0 33.098087,0 z"
     inkscape:connector-curvature="0"
     id="path6347"
     style="fill:url(#linearGradient3317);fill-opacity:1;fill-rule:evenodd;stroke:none" />
  <path
     d="M 55.196541,90.278365 55.12331,28.065555 82.598158,26.122594 C 80.623621,46.331018 78.649083,66.539443 76.67456,86.747868 69.515211,87.9247 62.355876,89.101533 55.196541,90.278365 z"
     inkscape:connector-curvature="0"
     id="path5364"
     style="fill:#d70000;fill-opacity:1;fill-rule:evenodd;stroke:none" />
  <path
     d="m 55.893907,90.292323 -0.07323,-62.21281 27.474847,-1.942961 c -1.974537,20.208424 -3.949075,40.416849 -5.923598,60.625274 -7.159349,1.176832 -14.318683,2.353665 -21.478018,3.530497 z"
     inkscape:connector-curvature="0"
     id="path6349"
     style="fill:url(#linearGradient3313);fill-opacity:1;fill-rule:evenodd;stroke:none" />
  <path
     d="m 20.521321,27.14876 c 1.974533,20.208425 3.949068,40.41685 5.923601,60.625274 9.504077,0.882664 19.013374,1.922943 28.514192,2.707234 C 62.118453,89.304436 69.277791,88.127602 76.43713,86.950771 78.411665,66.742345 80.3862,46.53392 82.360734,26.325497 M 68.663518,3.9871279 C 74.165726,11.428834 79.667934,18.87054 85.170141,26.312246 74.798387,26.967869 64.429769,27.806885 54.056051,28.34761 41.941337,27.943577 29.826624,27.539546 17.71191,27.135514 23.663084,19.419385 29.614259,11.703257 35.565433,3.9871279 c 11.032695,0 22.065391,0 33.098085,0 z M 55.228073,90.518257 C 55.114009,69.768323 54.999946,49.01839 54.885883,28.268457 59.364237,20.262761 63.842592,12.257066 68.320945,4.2513699"
     inkscape:connector-curvature="0"
     id="rect3391"
     style="fill:none;stroke:#000000;stroke-width:3.06471586;stroke-linecap:round;stroke-linejoin:round;stroke-miterlimit:4;stroke-opacity:1;stroke-dashoffset:0" />
  <path
     d="m 37.788438,9.2161024 21.301827,0 -8.28708,14.0440996 -22.643503,-0.709596 9.628756,-13.3345036 z"
     inkscape:connector-curvature="0"
     id="rect3416"
     style="fill:url(#linearGradient3309);fill-opacity:1;fill-rule:evenodd;stroke:#000000;stroke-width:2.01700211;stroke-linecap:round;stroke-linejoin:round;stroke-miterlimit:4;stroke-opacity:1;stroke-dasharray:none;stroke-dashoffset:0" />
  <g
     transform="matrix(0.5929338,0,0,0.5929338,51.924387,71.392869)"
     id="g6458">
    <path
       d="m 49.066773,24.22879 c 0.0012,6.850275 -5.551709,12.404157 -12.401985,12.404157 -6.850275,0 -12.403184,-5.553882 -12.401985,-12.404157 -0.0012,-6.850276 5.55171,-12.404157 12.401985,-12.404157 6.850276,0 12.403184,5.553881 12.401985,12.404157 l 0,0 z"
       inkscape:connector-curvature="0"
       id="path6460"
       style="fill:#0000ff;fill-opacity:1;fill-rule:evenodd;stroke:#000000;stroke-width:0.38027155px;stroke-linecap:butt;stroke-linejoin:miter;stroke-opacity:1" />
    <path
       d="m 45.562914,32.95223 c -4.843029,4.844723 -12.696715,4.845411 -17.54059,0.0015 -4.843878,-4.843877 -4.843189,-12.697563 0.0015,-17.54059 4.843028,-4.844725 12.696714,-4.845413 17.540591,-0.0015 4.843875,4.843876 4.843187,12.697563 -0.0015,17.540591 l 0,0 z"
       inkscape:connector-curvature="0"
       id="path6462"
       style="opacity:0.71739131;fill:url(#linearGradient6475);fill-opacity:1;fill-rule:evenodd;stroke:none" />
    <path
       d="m 39.147988,19.481422 c 6.73e-4,3.844893 -3.11604,6.962154 -6.960935,6.962154 -3.844894,0 -6.961608,-3.117261 -6.960935,-6.962154 -6.73e-4,-3.844895 3.116041,-6.962154 6.960935,-6.962154 3.844895,0 6.961608,3.117259 6.960935,6.962154 l 0,0 z"
       inkscape:connector-curvature="0"
       id="path6464"
       style="fill:url(#radialGradient6477);fill-opacity:1;fill-rule:evenodd;stroke:none" />
  </g>
  <g
     transform="matrix(1.344668,0,0,1.344668,-93.324764,28.278349)"
     id="g6504">
    <path
       d="m 120.19314,45.451763 c 5.3e-4,3.020641 -2.44803,5.469635 -5.46867,5.469635 -3.02064,0 -5.46921,-2.448994 -5.46868,-5.469635 -5.3e-4,-3.020642 2.44804,-5.469636 5.46868,-5.469636 3.02064,0 5.4692,2.448994 5.46867,5.469636 l 0,0 z"
       inkscape:connector-curvature="0"
       id="path6481"
       style="fill:#bd00ff;fill-opacity:1;fill-rule:evenodd;stroke:#000000;stroke-width:0.16768143px;stroke-linecap:butt;stroke-linejoin:miter;stroke-opacity:1" />
    <path
       d="m 118.64811,49.298379 c -2.13554,2.136289 -5.59864,2.136593 -7.73455,6.77e-4 -2.13592,-2.135916 -2.13562,-5.599013 6.7e-4,-7.734554 2.13554,-2.136291 5.59864,-2.136594 7.73456,-6.78e-4 2.13591,2.135916 2.13561,5.599013 -6.8e-4,7.734555 l 0,0 z"
       inkscape:connector-curvature="0"
       id="path6483"
       style="opacity:0.71739131;fill:url(#linearGradient6509);fill-opacity:1;fill-rule:evenodd;stroke:none" />
    <path
       d="m 115.81944,43.358402 c 2.9e-4,1.695413 -1.37403,3.069974 -3.06944,3.069974 -1.69541,0 -3.06973,-1.374561 -3.06944,-3.069974 -2.9e-4,-1.695413 1.37403,-3.069974 3.06944,-3.069974 1.69541,0 3.06973,1.374561 3.06944,3.069974 l 0,0 z"
       inkscape:connector-curvature="0"
       id="path6485"
       style="fill:url(#radialGradient6511);fill-opacity:1;fill-rule:evenodd;stroke:none" />
  </g>
  <g
     transform="matrix(1.344668,0,0,1.344668,186.32071,150.48582)"
     id="g6576">
    <path
       d="m -121.06194,-48.571428 c 5.3e-4,3.020641 -2.44803,5.469635 -5.46867,5.469635 -3.02064,0 -5.46921,-2.448994 -5.46868,-5.469635 -5.3e-4,-3.020642 2.44804,-5.469636 5.46868,-5.469636 3.02064,0 5.4692,2.448994 5.46867,5.469636 l 0,0 z"
       inkscape:connector-curvature="0"
       id="path6553"
       style="fill:#5c7d21;fill-opacity:1;fill-rule:evenodd;stroke:#000000;stroke-width:0.16768143px;stroke-linecap:butt;stroke-linejoin:miter;stroke-opacity:1" />
    <path
       d="m -122.60697,-44.724812 c -2.13554,2.136289 -5.59864,2.136593 -7.73455,6.77e-4 -2.13592,-2.135916 -2.13562,-5.599013 6.7e-4,-7.734554 2.13554,-2.136291 5.59864,-2.136594 7.73456,-6.78e-4 2.13591,2.135916 2.13561,5.599013 -6.8e-4,7.734555 l 0,0 z"
       inkscape:connector-curvature="0"
       id="path6555"
       style="opacity:0.71739131;fill:url(#linearGradient6581);fill-opacity:1;fill-rule:evenodd;stroke:none" />
    <path
       d="m -125.43564,-50.664789 c 2.9e-4,1.695413 -1.37403,3.069974 -3.06944,3.069974 -1.69541,0 -3.06973,-1.374561 -3.06944,-3.069974 -2.9e-4,-1.695413 1.37403,-3.069974 3.06944,-3.069974 1.69541,0 3.06973,1.374561 3.06944,3.069974 l 0,0 z"
       inkscape:connector-curvature="0"
       id="path6557"
       style="fill:url(#radialGradient6583);fill-opacity:1;fill-rule:evenodd;stroke:none" />
  </g>
</svg>
