<?xml version="1.0" encoding="UTF-8" standalone="no"?>
<!-- Created with Inkscape (http://www.inkscape.org/) -->
<svg
   xmlns:svg="http://www.w3.org/2000/svg"
   xmlns="http://www.w3.org/2000/svg"
   xmlns:xlink="http://www.w3.org/1999/xlink"
   version="1.0"
   width="100"
   height="100"
   id="svg2">
  <defs
     id="defs4">
    <linearGradient
       id="linearGradient4249">
      <stop
         id="stop4251"
         style="stop-color:#ffffff;stop-opacity:1"
         offset="0" />
      <stop
         id="stop4253"
         style="stop-color:#000089;stop-opacity:0.99215686"
         offset="1" />
    </linearGradient>
    <linearGradient
       id="linearGradient3186">
      <stop
         id="stop3188"
         style="stop-color:#d9d9d9;stop-opacity:1"
         offset="0" />
      <stop
         id="stop3190"
         style="stop-color:#5c5c5c;stop-opacity:0.50196081"
         offset="1" />
    </linearGradient>
    <linearGradient
       x1="47.022163"
       y1="35.538288"
       x2="54.146122"
       y2="35.538288"
       id="linearGradient3347"
       xlink:href="#linearGradient3186"
       gradientUnits="userSpaceOnUse"
       gradientTransform="matrix(0.4940958,0.9109764,-0.9100541,0.4945965,71.132177,-30.275602)" />
    <radialGradient
       cx="73.659416"
       cy="67.149292"
       r="12.988102"
       fx="73.659416"
       fy="67.149292"
       id="radialGradient3350"
       xlink:href="#linearGradient4249"
       gradientUnits="userSpaceOnUse"
       gradientTransform="matrix(0.4940958,0.9109764,-1.1256512,0.6117693,85.609371,-38.143672)" />
    <linearGradient
       x1="31.697084"
       y1="36.826233"
       x2="61.910172"
       y2="36.826233"
       id="linearGradient3352"
       xlink:href="#linearGradient3186"
       gradientUnits="userSpaceOnUse"
       gradientTransform="matrix(0.4940958,0.9109764,-0.9100541,0.4945965,71.132177,-30.275602)" />
    <radialGradient
       cx="41.704872"
       cy="77.127258"
       r="13.920598"
       fx="41.704872"
       fy="77.127258"
       id="radialGradient3354"
       xlink:href="#linearGradient4249"
       gradientUnits="userSpaceOnUse"
       gradientTransform="matrix(0.4940958,0.9109764,-1.3534545,0.7355759,105.33043,-48.861682)" />
  </defs>
  <g
     id="layer1">
    <path
       d="M 38.01854,59.187346 L 95.747048,27.876019 C 98.541281,24.451932 100.57792,19.235239 99.383972,17.033931 L 44.464973,47.133253"
       id="path3175"
       style="fill:#282828;fill-opacity:1;stroke:none" />
    <path
       d="M 44.693647,64.26237 C 43.013391,65.81971 41.135288,67.963351 39.806498,70.133842 C 34.491334,78.815806 34.853551,88.730507 40.615017,92.264873 C 46.376481,95.799237 55.366209,91.621477 60.681372,82.939513 C 65.996535,74.257551 65.634317,64.34285 59.872854,60.808486 C 58.432486,59.924893 56.790354,59.52331 55.054312,59.553611"
       id="path3177"
       style="fill:#282828;fill-opacity:1;stroke:none" />
    <path
       d="M 81.678046,71.571419 C 81.678046,80.41799 76.703178,87.589552 70.566368,87.589552 C 64.429558,87.589552 59.45469,80.41799 59.45469,71.571419 C 59.45469,62.724848 64.429558,55.553286 70.566368,55.553286 C 76.703178,55.553286 81.678046,62.724848 81.678046,71.571419 L 81.678046,71.571419 z"
       transform="matrix(-0.5897715,-0.3617948,-0.3614285,0.5903692,117.55218,60.062977)"
       id="path3179"
       style="fill:#ffffff;fill-opacity:1;stroke:none" />
    <path
       d="M 44.429534,64.446396 L 77.428986,10.456488 C 80.672228,7.8064998 85.373953,5.8370825 87.13653,6.9183341 L 54.576488,59.752935"
       id="path3181"
       style="fill:#282828;fill-opacity:1;stroke:none" />
    <path
       d="M 38.472065,58.718977 C 36.505721,60.633157 33.826371,62.747449 31.149398,64.202332 C 20.441506,70.02186 8.616734,68.966155 4.7548174,61.845846 C 0.89290185,54.725538 6.4490564,44.223641 17.156948,38.404112 C 27.864841,32.584583 39.689612,33.640289 43.551527,40.760597 C 44.517007,42.540675 44.893857,44.532101 44.748737,46.608877"
       id="path3183"
       style="fill:#282828;fill-opacity:1;stroke:none" />
    <path
       d="M 81.678046,71.571419 C 81.678046,80.41799 76.703178,87.589552 70.566368,87.589552 C 64.429558,87.589552 59.45469,80.41799 59.45469,71.571419 C 59.45469,62.724848 64.429558,55.553286 70.566368,55.553286 C 76.703178,55.553286 81.678046,62.724848 81.678046,71.571419 L 81.678046,71.571419 z"
       transform="matrix(0.3953245,0.7288693,-0.7281314,0.3957251,48.06089,-28.255867)"
       id="path3185"
       style="fill:#ffffff;fill-opacity:1;stroke:none" />
    <path
       d="M 52.602041,43.035713 C 52.602041,43.782425 51.996712,44.387754 51.25,44.387754 C 50.503288,44.387754 49.897959,43.782425 49.897959,43.035713 C 49.897959,42.289001 50.503288,41.683672 51.25,41.683672 C 51.996712,41.683672 52.602041,42.289001 52.602041,43.035713 L 52.602041,43.035713 z"
       transform="matrix(0.521305,0.9611427,-0.9601696,0.5218333,76.762754,-29.887589)"
       id="path3187"
       style="fill:#282828;fill-opacity:1;stroke:none" />
    <g
       transform="matrix(1.0550687,0,0,1.0550687,-1.5335221,-0.1732535)"
       id="g3339">
      <path
         d="M 34.690073,53.33604 L 89.405475,23.65899 C 92.053865,20.413622 93.984201,15.469211 92.852572,13.382799 L 40.800039,41.911104"
         id="rect3184"
         style="fill:url(#linearGradient3347);fill-opacity:1;stroke:#000000;stroke-width:0.72524047;stroke-miterlimit:4;stroke-dasharray:none;stroke-opacity:1" />
      <path
         d="M 50.84375,53.6875 L 41.03125,58.15625 C 39.438694,59.632307 37.634435,61.661547 36.375,63.71875 C 31.33726,71.947564 31.6955,81.337608 37.15625,84.6875 C 42.616999,88.037391 51.118509,84.072563 56.15625,75.84375 C 61.19399,67.614941 60.866997,58.224891 55.40625,54.875 C 54.041062,54.037525 52.48918,53.65878 50.84375,53.6875 z M 48.75,60.28125 C 49.770818,60.28335 50.73659,60.536676 51.59375,61.0625 C 55.022389,63.165795 55.341454,68.864906 52.3125,73.8125 C 49.283547,78.760093 44.053638,81.072049 40.625,78.96875 C 37.196361,76.865455 36.877297,71.166343 39.90625,66.21875 C 42.177965,62.508055 45.687545,60.275083 48.75,60.28125 z"
         id="path3206"
         style="fill:url(#radialGradient3350);fill-opacity:1;stroke:#323232;stroke-width:0.69999999;stroke-miterlimit:4;stroke-dasharray:none;stroke-opacity:1" />
      <path
         d="M 40.766449,58.320597 L 72.043513,7.1486621 C 75.117476,4.6369881 79.573797,2.7703631 81.244377,3.7951801 L 50.383789,53.872109"
         id="path3359"
         style="fill:#ffffff;fill-opacity:1;stroke:#000000;stroke-width:0.72524047;stroke-miterlimit:4;stroke-dasharray:none;stroke-opacity:1" />
      <path
         d="M 40.766449,58.320597 L 72.043513,7.1486618 C 75.117476,4.6369882 79.573797,2.7703636 81.244377,3.7951798 L 50.383789,53.872109"
         id="path3210"
         style="fill:url(#linearGradient3352);fill-opacity:1;stroke:#000000;stroke-width:0.72524047;stroke-miterlimit:4;stroke-dasharray:none;stroke-opacity:1" />
      <path
         d="M 28.125,30.0625 C 24.000227,30.04544 19.346437,31.211846 14.90625,33.625 C 4.7572504,39.140782 -0.50409522,49.095081 3.15625,55.84375 C 6.8165962,62.592418 18.038501,63.609531 28.1875,58.09375 C 30.72475,56.714805 33.261289,54.72052 35.125,52.90625 L 41.0625,41.40625 C 41.200045,39.43787 40.852587,37.56217 39.9375,35.875 C 37.878556,32.078875 33.42828,30.084434 28.125,30.0625 z M 23.96875,36.3125 C 27.657876,36.094222 30.876112,37.382947 32.3125,40.03125 C 34.610721,44.268533 31.50836,50.402374 25.40625,53.71875 C 19.30414,57.035127 12.48572,56.299785 10.1875,52.0625 C 7.8892796,47.825216 10.991641,41.691376 17.09375,38.375 C 19.382041,37.13136 21.755275,36.443467 23.96875,36.3125 L 23.96875,36.3125 z"
         id="path3180"
         style="fill:url(#radialGradient3354);fill-opacity:1;stroke:#323232;stroke-width:0.69999999;stroke-miterlimit:4;stroke-dasharray:none;stroke-opacity:1" />
      <path
         d="M 52.602041,43.035713 C 52.602041,43.782425 51.996712,44.387754 51.25,44.387754 C 50.503288,44.387754 49.897959,43.782425 49.897959,43.035713 C 49.897959,42.289001 50.503288,41.683672 51.25,41.683672 C 51.996712,41.683672 52.602041,42.289001 52.602041,43.035713 L 52.602041,43.035713 z"
         transform="matrix(0.4940958,0.9109764,-0.9100541,0.4945965,71.412054,-31.089678)"
         id="path5309"
         style="fill:#ffffff;fill-opacity:1;stroke:#003232;stroke-width:0.2;stroke-miterlimit:4;stroke-dasharray:none;stroke-opacity:1" />
    </g>
  </g>
</svg>
