<?xml version="1.0" encoding="UTF-8" standalone="no"?>
<!-- Created with Inkscape (http://www.inkscape.org/) -->
<svg
   xmlns:svg="http://www.w3.org/2000/svg"
   xmlns="http://www.w3.org/2000/svg"
   xmlns:xlink="http://www.w3.org/1999/xlink"
   version="1.0"
   width="100"
   height="100"
   id="svg2">
  <defs
     id="defs4">
    <linearGradient
       id="linearGradient3197">
      <stop
         id="stop3199"
         style="stop-color:#e4e1e1;stop-opacity:1"
         offset="0" />
      <stop
         id="stop3201"
         style="stop-color:#af0707;stop-opacity:1"
         offset="1" />
    </linearGradient>
    <linearGradient
       id="linearGradient3189">
      <stop
         id="stop3191"
         style="stop-color:#000000;stop-opacity:1"
         offset="0" />
      <stop
         id="stop3193"
         style="stop-color:#000000;stop-opacity:0"
         offset="1" />
    </linearGradient>
    <radialGradient
       cx="50.059151"
       cy="48.853989"
       r="42.138134"
       fx="50.059151"
       fy="48.853989"
       id="radialGradient3195"
       xlink:href="#linearGradient3189"
       gradientUnits="userSpaceOnUse"
       gradientTransform="matrix(0.9573786,0,0,1.0730688,2.3984009,-3.7722635)" />
    <radialGradient
       cx="50.059151"
       cy="48.853989"
       r="42.138134"
       fx="50.059151"
       fy="48.853989"
       id="radialGradient3203"
       xlink:href="#linearGradient3197"
       gradientUnits="userSpaceOnUse"
       gradientTransform="matrix(0.9573786,0,0,1.0730688,2.3984009,-3.7722635)" />
  </defs>
  <path
     d="M 53.98773,19.037484 L 52.64253,9.2875434 L 78.9278,23.453219 L 52.64253,37.618894 L 53.98773,28.151559 C 37.37604,28.151559 23.890088,41.637515 23.890088,58.249203 C 23.890088,74.860893 37.37605,88.34685 53.98773,88.34685 C 70.59942,88.34685 84.08539,74.860895 84.08538,58.249203 L 93.19945,58.249203 C 93.19946,79.892621 75.63116,97.46091 53.98773,97.46091 C 32.34432,97.46091 14.776012,79.892623 14.776012,58.249203 C 14.776012,36.605781 32.34431,19.037484 53.98773,19.037484 L 53.98773,19.037484 z"
     id="path3211"
     style="fill:#282828;fill-opacity:1;fill-rule:evenodd;stroke:none" />
  <path
     d="M 50.323964,14.314682 L 48.978764,4.5647407 L 75.264027,18.730417 L 48.978764,32.896092 L 50.323964,23.428757 C 33.712275,23.428757 20.22632,36.914713 20.22632,53.526401 C 20.22632,70.138091 33.712277,83.624043 50.323964,83.624045 C 66.935656,83.624045 80.421617,70.138093 80.421607,53.526401 L 89.53568,53.526401 C 89.535689,75.169819 71.967389,92.738121 50.323964,92.738121 C 28.680548,92.738122 11.112244,75.169821 11.112244,53.526401 C 11.112244,31.882979 28.680545,14.314682 50.323964,14.314682 L 50.323964,14.314682 z"
     id="path3205"
     style="fill:none;stroke:#000000;stroke-width:5;stroke-linecap:round;stroke-linejoin:round;stroke-miterlimit:4;stroke-dasharray:none;stroke-dashoffset:0;stroke-opacity:1" />
  <path
     d="M 50.323962,14.314682 L 48.978762,4.5647407 L 75.264029,18.730417 L 48.978762,32.896092 L 50.323962,23.428758 C 33.712273,23.428758 20.226318,36.914713 20.226318,53.526401 C 20.226318,70.138091 33.712275,83.624043 50.323962,83.624045 C 66.935651,83.624045 80.421611,70.138093 80.421606,53.526401 L 89.535681,53.526401 C 89.535682,75.169819 71.967383,92.738121 50.323962,92.738121 C 28.680546,92.738122 11.112243,75.169821 11.112243,53.526401 C 11.112243,31.882979 28.680543,14.314682 50.323962,14.314682 L 50.323962,14.314682 z"
     id="path3176"
     style="fill:url(#radialGradient3203);fill-opacity:1;fill-rule:evenodd;stroke:url(#radialGradient3195);stroke-width:2.26085615;stroke-linecap:round;stroke-linejoin:round;stroke-miterlimit:4;stroke-dashoffset:0;stroke-opacity:1" />
</svg>
