<?xml version="1.0" encoding="UTF-8" standalone="no"?>
<!-- Created with Inkscape (http://www.inkscape.org/) -->
<svg
   xmlns:svg="http://www.w3.org/2000/svg"
   xmlns="http://www.w3.org/2000/svg"
   xmlns:xlink="http://www.w3.org/1999/xlink"
   version="1.0"
   width="100"
   height="100"
   id="svg2">
  <defs
     id="defs4">
    <linearGradient
       id="linearGradient4454">
      <stop
         id="stop4456"
         style="stop-color:#e8ede5;stop-opacity:1"
         offset="0" />
      <stop
         id="stop4458"
         style="stop-color:#f2f8ff;stop-opacity:1"
         offset="1" />
    </linearGradient>
    <linearGradient
       id="linearGradient3186">
      <stop
         id="stop3188"
         style="stop-color:#aaaaaa;stop-opacity:1"
         offset="0" />
      <stop
         id="stop3190"
         style="stop-color:#fffffd;stop-opacity:0.50196081"
         offset="1" />
    </linearGradient>
    <linearGradient
       x1="18.799059"
       y1="7.9464054"
       x2="78.915184"
       y2="89.205368"
       id="linearGradient3400"
       xlink:href="#linearGradient3186"
       gradientUnits="userSpaceOnUse" />
    <linearGradient
       x1="18.799059"
       y1="7.9464054"
       x2="78.915184"
       y2="89.205368"
       id="linearGradient3402"
       xlink:href="#linearGradient3186"
       gradientUnits="userSpaceOnUse" />
    <linearGradient
       x1="18.799059"
       y1="7.9464054"
       x2="78.915184"
       y2="89.205368"
       id="linearGradient3404"
       xlink:href="#linearGradient3186"
       gradientUnits="userSpaceOnUse" />
    <linearGradient
       x1="94.145203"
       y1="69.538887"
       x2="154.36485"
       y2="69.538887"
       id="linearGradient4460"
       xlink:href="#linearGradient4454"
       gradientUnits="userSpaceOnUse" />
    <linearGradient
       x1="94.145203"
       y1="69.538887"
       x2="154.36485"
       y2="69.538887"
       id="linearGradient3341"
       xlink:href="#linearGradient4454"
       gradientUnits="userSpaceOnUse" />
    <linearGradient
       x1="94.145203"
       y1="69.538887"
       x2="154.36485"
       y2="69.538887"
       id="linearGradient3343"
       xlink:href="#linearGradient4454"
       gradientUnits="userSpaceOnUse" />
  </defs>
  <g
     id="layer1">
    <path
       d="M 11.357619,88.469575 L 46.965961,88.469575 L 65.494115,67.582675 L 65.494115,5.1480109 L 11.357619,5.1480109 L 11.357619,88.469575"
       id="path3426"
       style="fill:#282828;fill-opacity:1;stroke:none" />
    <use
       transform="translate(31.002328,10.530149)"
       id="use2530"
       style="fill:#282828;fill-opacity:1"
       x="0"
       y="0"
       width="100"
       height="100"
       xlink:href="#path3426" />
    <g
       transform="matrix(0.9141645,0,0,1.035103,-8.69114,-6.8544259)"
       id="g4235"
       style="fill:#ffffff;fill-opacity:1">
      <path
         d="M 19.163479,88.735485 L 58.11528,88.735485 L 78.383137,68.556914 L 78.383137,8.2395668 L 19.163479,8.2395668 L 19.163479,88.735485"
         id="path4237"
         style="fill:#ffffff;fill-opacity:1;stroke:#000000;stroke-opacity:1" />
      <path
         d="M 58.639205,69.080838 L 77.579566,69.080838 L 58.639205,88.021199 L 58.639205,69.080838 z"
         id="path4239"
         style="fill:#ffffff;fill-opacity:1;stroke:#000000;stroke-opacity:1" />
    </g>
    <g
       transform="matrix(0.9141645,0,0,1.035103,-77.693847,-28.644754)"
       id="g4241"
       style="fill:url(#linearGradient4460);fill-opacity:1;stroke:#929293;stroke-opacity:1">
      <path
         d="M 94.645199,109.78685 L 133.597,109.78685 L 153.86486,89.608278 L 153.86486,29.29093 L 94.645199,29.29093 L 94.645199,109.78685"
         id="path4243"
         style="fill:url(#linearGradient3341);fill-opacity:1;stroke:#929293;stroke-opacity:1" />
      <path
         d="M 134.12092,90.132202 L 153.06129,90.132202 L 134.12092,109.07256 L 134.12092,90.132202 z"
         id="path4245"
         style="fill:url(#linearGradient3343);fill-opacity:1;stroke:#929293;stroke-opacity:1" />
    </g>
    <g
       transform="matrix(1.1271558,0,0,1.1271558,0.1689023,-1.687955)"
       id="g3457">
      <g
         transform="matrix(0.8110364,0,0,0.9183317,19.626731,5.2433375)"
         id="g4218"
         style="fill:#ffffff;fill-opacity:1">
        <path
           d="M 19.163479,88.735485 L 58.11528,88.735485 L 78.383137,68.556914 L 78.383137,8.2395668 L 19.163479,8.2395668 L 19.163479,88.735485"
           id="path4220"
           style="fill:#ffffff;fill-opacity:1;stroke:#000000;stroke-opacity:1" />
        <path
           d="M 58.639205,69.080838 L 77.579566,69.080838 L 58.639205,88.021199 L 58.639205,69.080838 z"
           id="path4222"
           style="fill:#ffffff;fill-opacity:1;stroke:#000000;stroke-opacity:1" />
      </g>
      <g
         transform="matrix(0.8110364,0,0,0.9183317,19.626731,5.2433375)"
         id="g2163"
         style="fill:url(#linearGradient3400);fill-opacity:1">
        <path
           d="M 19.163479,88.735485 L 58.11528,88.735485 L 78.383137,68.556914 L 78.383137,8.2395668 L 19.163479,8.2395668 L 19.163479,88.735485"
           id="path4225"
           style="fill:url(#linearGradient3402);fill-opacity:1;stroke:#000000;stroke-opacity:1" />
        <path
           d="M 58.639205,69.080838 L 77.579566,69.080838 L 58.639205,88.021199 L 58.639205,69.080838 z"
           id="path4227"
           style="fill:url(#linearGradient3404);fill-opacity:1;stroke:#000000;stroke-opacity:1" />
      </g>
    </g>
  </g>
</svg>
