<?xml version="1.0" encoding="UTF-8" standalone="no"?>
<!-- Created with Inkscape (http://www.inkscape.org/) -->

<svg
   xmlns:dc="http://purl.org/dc/elements/1.1/"
   xmlns:cc="http://creativecommons.org/ns#"
   xmlns:rdf="http://www.w3.org/1999/02/22-rdf-syntax-ns#"
   xmlns:svg="http://www.w3.org/2000/svg"
   xmlns="http://www.w3.org/2000/svg"
   xmlns:xlink="http://www.w3.org/1999/xlink"
   xmlns:inkscape="http://www.inkscape.org/namespaces/inkscape"
   version="1.0"
   width="100"
   height="100"
   id="svg2">
  <defs
     id="defs4">
    <linearGradient
       id="linearGradient4249">
      <stop
         id="stop4251"
         style="stop-color:#ffffff;stop-opacity:1"
         offset="0" />
      <stop
         id="stop4253"
         style="stop-color:#000089;stop-opacity:0.99215686"
         offset="1" />
    </linearGradient>
    <linearGradient
       id="linearGradient3186">
      <stop
         id="stop3188"
         style="stop-color:#d9d9d9;stop-opacity:1"
         offset="0" />
      <stop
         id="stop3190"
         style="stop-color:#5c5c5c;stop-opacity:0.50196081"
         offset="1" />
    </linearGradient>
    <linearGradient
       x1="47.022163"
       y1="35.538288"
       x2="54.146122"
       y2="35.538288"
       id="linearGradient3347"
       xlink:href="#linearGradient3186"
       gradientUnits="userSpaceOnUse"
       gradientTransform="matrix(0.4940958,0.9109764,-0.9100541,0.4945965,71.132177,-30.275602)" />
    <radialGradient
       cx="73.659416"
       cy="67.149292"
       r="12.988102"
       fx="73.659416"
       fy="67.149292"
       id="radialGradient3350"
       xlink:href="#linearGradient4249"
       gradientUnits="userSpaceOnUse"
       gradientTransform="matrix(0.4940958,0.9109764,-1.1256512,0.6117693,85.609371,-38.143672)" />
    <linearGradient
       x1="31.697084"
       y1="36.826233"
       x2="61.910172"
       y2="36.826233"
       id="linearGradient3352"
       xlink:href="#linearGradient3186"
       gradientUnits="userSpaceOnUse"
       gradientTransform="matrix(0.4940958,0.9109764,-0.9100541,0.4945965,71.132177,-30.275602)" />
    <radialGradient
       cx="41.704872"
       cy="77.127258"
       r="13.920598"
       fx="41.704872"
       fy="77.127258"
       id="radialGradient3354"
       xlink:href="#linearGradient4249"
       gradientUnits="userSpaceOnUse"
       gradientTransform="matrix(0.4940958,0.9109764,-1.3534545,0.7355759,105.33043,-48.861682)" />
  </defs>
  <metadata
     id="metadata7">
    <rdf:RDF>
      <cc:Work
         rdf:about="">
        <dc:format>image/svg+xml</dc:format>
        <dc:type
           rdf:resource="http://purl.org/dc/dcmitype/StillImage" />
      </cc:Work>
    </rdf:RDF>
  </metadata>
  <g
     id="layer1">
    <path
       d="M 38.01854,59.187346 95.747048,27.876019 c 2.794233,-3.424087 4.830872,-8.64078 3.636924,-10.842088 L 44.464973,47.133253"
       inkscape:connector-curvature="0"
       id="path3175"
       style="fill:#282828;fill-opacity:1;stroke:none" />
    <path
       d="m 44.693647,64.26237 c -1.680256,1.55734 -3.558359,3.700981 -4.887149,5.871472 -5.315164,8.681964 -4.952947,18.596665 0.808519,22.131031 5.761464,3.534364 14.751192,-0.643396 20.066355,-9.32536 5.315163,-8.681962 4.952945,-18.596663 -0.808518,-22.131027 -1.440368,-0.883593 -3.0825,-1.285176 -4.818542,-1.254875"
       inkscape:connector-curvature="0"
       id="path3177"
       style="fill:#282828;fill-opacity:1;stroke:none" />
    <path
       d="m 81.678046,71.571419 a 11.111678,16.018133 0 1 1 -22.223356,0 11.111678,16.018133 0 1 1 22.223356,0 z"
       transform="matrix(-0.5897715,-0.3617948,-0.3614285,0.5903692,117.55218,60.062977)"
       id="path3179"
       style="fill:#ffffff;fill-opacity:1;stroke:none" />
    <path
       d="M 44.429534,64.446396 77.428986,10.456488 C 80.672228,7.8064998 85.373953,5.8370825 87.13653,6.9183341 L 54.576488,59.752935"
       inkscape:connector-curvature="0"
       id="path3181"
       style="fill:#282828;fill-opacity:1;stroke:none" />
    <path
       d="m 38.472065,58.718977 c -1.966344,1.91418 -4.645694,4.028472 -7.322667,5.483355 C 20.441506,70.02186 8.616734,68.966155 4.7548174,61.845846 0.89290185,54.725538 6.4490564,44.223641 17.156948,38.404112 c 10.707893,-5.819529 22.532664,-4.763823 26.394579,2.356485 0.96548,1.780078 1.34233,3.771504 1.19721,5.84828"
       inkscape:connector-curvature="0"
       id="path3183"
       style="fill:#282828;fill-opacity:1;stroke:none" />
    <path
       d="m 81.678046,71.571419 a 11.111678,16.018133 0 1 1 -22.223356,0 11.111678,16.018133 0 1 1 22.223356,0 z"
       transform="matrix(0.3953245,0.7288693,-0.7281314,0.3957251,48.06089,-28.255867)"
       id="path3185"
       style="fill:#ffffff;fill-opacity:1;stroke:none" />
    <path
       d="m 52.602041,43.035713 a 1.3520408,1.3520408 0 1 1 -2.704082,0 1.3520408,1.3520408 0 1 1 2.704082,0 z"
       transform="matrix(0.521305,0.9611427,-0.9601696,0.5218333,76.762754,-29.887589)"
       id="path3187"
       style="fill:#282828;fill-opacity:1;stroke:none" />
    <g
       transform="matrix(1.0550687,0,0,1.0550687,-1.5335221,-0.1732535)"
       id="g3339">
      <path
         d="M 34.690073,53.33604 89.405475,23.65899 c 2.64839,-3.245368 4.578726,-8.189779 3.447097,-10.276191 L 40.800039,41.911104"
         inkscape:connector-curvature="0"
         id="rect3184"
         style="fill:url(#linearGradient3347);fill-opacity:1;stroke:#000000;stroke-width:0.72524047;stroke-miterlimit:4;stroke-opacity:1;stroke-dasharray:none" />
      <path
         d="m 50.84375,53.6875 -9.8125,4.46875 c -1.592556,1.476057 -3.396815,3.505297 -4.65625,5.5625 -5.03774,8.228814 -4.6795,17.618858 0.78125,20.96875 5.460749,3.349891 13.962259,-0.614937 19,-8.84375 5.03774,-8.228809 4.710747,-17.618859 -0.75,-20.96875 -1.365188,-0.837475 -2.91707,-1.21622 -4.5625,-1.1875 z M 48.75,60.28125 c 1.020818,0.0021 1.98659,0.255426 2.84375,0.78125 3.428639,2.103295 3.747704,7.802406 0.71875,12.75 -3.028953,4.947593 -8.258862,7.259549 -11.6875,5.15625 -3.428639,-2.103295 -3.747703,-7.802407 -0.71875,-12.75 2.271715,-3.710695 5.781295,-5.943667 8.84375,-5.9375 z"
         inkscape:connector-curvature="0"
         id="path3206"
         style="fill:url(#radialGradient3350);fill-opacity:1;stroke:#323232;stroke-width:0.69999999;stroke-miterlimit:4;stroke-opacity:1;stroke-dasharray:none" />
      <path
         d="M 40.766449,58.320597 72.043513,7.1486621 c 3.073963,-2.511674 7.530284,-4.378299 9.200864,-3.353482 L 50.383789,53.872109"
         inkscape:connector-curvature="0"
         id="path3359"
         style="fill:#ffffff;fill-opacity:1;stroke:#000000;stroke-width:0.72524047;stroke-miterlimit:4;stroke-opacity:1;stroke-dasharray:none" />
      <path
         d="M 40.766449,58.320597 72.043513,7.1486618 c 3.073963,-2.5116736 7.530284,-4.3782982 9.200864,-3.353482 L 50.383789,53.872109"
         inkscape:connector-curvature="0"
         id="path3210"
         style="fill:url(#linearGradient3352);fill-opacity:1;stroke:#000000;stroke-width:0.72524047;stroke-miterlimit:4;stroke-opacity:1;stroke-dasharray:none" />
      <path
         d="m 28.125,30.0625 c -4.124773,-0.01706 -8.778563,1.149346 -13.21875,3.5625 -10.1489996,5.515782 -15.41034522,15.470081 -11.75,22.21875 3.6603462,6.748668 14.882251,7.765781 25.03125,2.25 2.53725,-1.378945 5.073789,-3.37323 6.9375,-5.1875 l 5.9375,-11.5 C 41.200045,39.43787 40.852587,37.56217 39.9375,35.875 37.878556,32.078875 33.42828,30.084434 28.125,30.0625 z m -4.15625,6.25 c 3.689126,-0.218278 6.907362,1.070447 8.34375,3.71875 2.298221,4.237283 -0.80414,10.371124 -6.90625,13.6875 -6.10211,3.316377 -12.92053,2.581035 -15.21875,-1.65625 -2.2982204,-4.237284 0.804141,-10.371124 6.90625,-13.6875 2.288291,-1.24364 4.661525,-1.931533 6.875,-2.0625 z"
         inkscape:connector-curvature="0"
         id="path3180"
         style="fill:url(#radialGradient3354);fill-opacity:1;stroke:#323232;stroke-width:0.69999999;stroke-miterlimit:4;stroke-opacity:1;stroke-dasharray:none" />
      <path
         d="m 52.602041,43.035713 a 1.3520408,1.3520408 0 1 1 -2.704082,0 1.3520408,1.3520408 0 1 1 2.704082,0 z"
         transform="matrix(0.4940958,0.9109764,-0.9100541,0.4945965,71.412054,-31.089678)"
         id="path5309"
         style="fill:#ffffff;fill-opacity:1;stroke:#003232;stroke-width:0.2;stroke-miterlimit:4;stroke-opacity:1;stroke-dasharray:none" />
    </g>
  </g>
</svg>
