<?xml version="1.0" encoding="UTF-8" standalone="no"?>
<!-- Created with Inkscape (http://www.inkscape.org/) -->

<svg
   xmlns:dc="http://purl.org/dc/elements/1.1/"
   xmlns:cc="http://creativecommons.org/ns#"
   xmlns:rdf="http://www.w3.org/1999/02/22-rdf-syntax-ns#"
   xmlns:svg="http://www.w3.org/2000/svg"
   xmlns="http://www.w3.org/2000/svg"
   xmlns:inkscape="http://www.inkscape.org/namespaces/inkscape"
   version="1.0"
   width="100"
   height="100"
   id="svg2">
  <metadata
     id="metadata2566">
    <rdf:RDF>
      <cc:Work
         rdf:about="">
        <dc:format>image/svg+xml</dc:format>
        <dc:type
           rdf:resource="http://purl.org/dc/dcmitype/StillImage" />
      </cc:Work>
    </rdf:RDF>
  </metadata>
  <defs
     id="defs4" />
  <g
     transform="translate(-5.8507689,-9.4512421)"
     id="g4301">
    <g
       transform="matrix(0.32251723,0,0,0.4167605,104.21148,-0.49225481)"
       id="g3973">
      <path
         d="m -291.84187,156.18339 c 0,-29.66667 0,-59.333332 0,-88.999998 94.66667,0 189.33333,0 284,0 0,59.333328 0,118.666668 0,177.999998 -94.66667,0 -189.33333,0 -284,0 0,-29.66667 0,-59.33333 0,-89 z"
         inkscape:connector-curvature="0"
         id="path3176"
         style="fill:#87b5df" />
      <path
         d="m -291.64177,239.43339 c 25.43825,-23.09302 103.82323,-2.40576 103.95754,-23.4536 -23.38017,-6.34976 -32.25052,-13.60861 -54.16297,-7.31919 -22.63295,-29.62078 36.62428,-95.41604 -20.30321,-91.36979 -47.9414,-14.47425 -24.09548,-65.971116 20.8544,-50.965104 64.47086,2.136836 128.92877,2.878515 193.283567,-1.012904 65.10382,0.84668 39.9513251,87.816098 36.298955,129.779568 -21.872354,44.64292 -64.142492,-35.89302 -92.099872,11.38251 -9.66373,0.64841 -54.61865,7.43929 -38.80079,17.00277 37.32025,11.72536 118.702243,-22.15095 126.610841,15.3354 -49.971263,19.42792 -105.327451,-1.72613 -157.626201,6.37593 -36.36103,-3.71812 -92.14905,7.46684 -118.01226,-5.75559 z m 273.16033,-30.88592 c -9.293345,-14.64554 -14.678397,12.0116 0,0 z m -86.86043,-4.36408 c -3.26509,-3.68436 0.13154,7.0005 0,0 z m -117.5,-5 c -2.7608,-3.24723 0.19679,5.27149 0,0 z m 87,-0.87756 c 5.68354,-13.11817 -9.03096,2.55152 0,0 z m -68,-1.12244 c -3.06167,-6.4052 -2.64211,6.83564 0,0 z m 114.21862,-16.98635 c -3.475898,-8.44111 -4.712998,8.25836 0,0 z m -12.21862,-8.01365 c -0.78176,-6.38957 -3.59983,4.44706 0,0 z m -125.30299,-8.61807 c 10.27075,-10.23031 -5.87859,6.67303 0,0 z m 3.30299,-53.38193 c -1.67877,-5.90831 -2.35769,5.47431 0,0 z m 196,108.72179 c 0.620532,-6.97061 7.955941,10.02084 0,0 z m 7.60893,0.45446 c 5.020239,-14.91726 15.1557874,9.66925 0,0 z m -211.50374,-8.5495 c -9.20362,-12.33639 10.69684,2.36656 0,0 z"
         inkscape:connector-curvature="0"
         id="path3174"
         style="fill:#71a6de" />
      <path
         d="m -291.64177,239.43339 c 25.30031,-22.88169 104.04058,-2.41942 103.30068,-23.65621 -23.00461,-12.05219 -27.41105,-14.89594 -51.72848,-7.66827 -12.0588,-37.61323 3.89343,-113.250118 55.26354,-123.657888 47.73673,-1.663283 81.59371,55.515178 89.309969,93.632918 13.686945,36.20577 -18.307509,27.84789 -37.414459,28.81016 -42.52731,30.9926 50.664305,13.84797 72.629292,15.58326 30.175552,-15.12528 75.002507,22.40485 22.425801,23.30387 -84.677133,-1.10015 -169.391313,-0.40482 -254.086233,-0.59784 l 0.29989,-5.75 0,0 z m 68.7999,-40.25 c -2.7608,-3.24723 0.19679,5.27149 0,0 z m 87.81955,-1.14787 c 5.1958,-18.6025 -11.09325,4.76234 0,0 z m 12.5274,-31.98475 c -10.56034,-13.74952 0.22175,8.40236 0,0 z m -104.71162,-2.4189 c 8.30931,-16.07133 -12.41487,6.75406 0,0 z m 37.36467,-35.05547 c -4.6158,-4.08357 -0.34663,6.69331 0,0 z m 29.74986,-18.97648 c -5.87722,-2.11932 2.86769,6.04941 0,0 z m -53,-1 c -5.87722,-2.11932 2.86769,6.04941 0,0 z m -19.09064,101.84109 c -0.72826,-9.3839 7.53069,5.89888 0,0 z"
         inkscape:connector-curvature="0"
         id="path3172"
         style="fill:#6a929e" />
      <path
         d="m -291.84187,239.88572 c 25.59782,-24.49245 119.34811,5.16755 105.55847,-31.01396 -28.92842,4.87345 -2.20229,-26.95406 -32.5048,-10.8813 -48.06924,13.75956 -4.22575,-36.91688 -12.46987,-62.45569 10.06516,-62.038291 100.2628,-63.065001 112.35562,-0.66198 32.77974,6.15976 -0.0266,43.24909 29.231672,56.02514 -15.857202,28.95338 -56.175442,-3.6885 -60.952302,31.58155 42.12434,15.78236 108.374241,-14.64629 137.288694,11.41553 -29.29243,25.82559 -73.471859,4.57885 -109.814614,11.28842 -56.23095,0 -112.46191,0 -168.69287,0 l 0,-2.94086 0,-2.35685 z m 133,-34.64331 c 0.391,-13.50056 -7.16135,8.07213 0,0 z m 24.81992,-5.14227 c 10.87751,-19.52234 -19.36317,-1.98236 0,0 z m -13.06945,-8.66675 c -4.81332,-9.08762 -4.29836,10.25218 0,0 z m -46.75047,0.30902 c -2.54734,-5.11166 -2.34407,5.88547 0,0 z m -8.44615,-3.64615 c 1.5352,-9.31056 -6.77653,5.66295 0,0 z m 76.44615,-0.41287 c -2.81094,-5.90853 -1.91709,8.3805 0,0 z m -83.5651,-8.47525 c 14.63534,-6.82732 -11.95726,5.80604 0,0 z m 73.0651,-1.02475 c -4.1553,-5.48171 -1.6793,7.70915 0,0 z m -55.5,-0.88337 c -4.67869,-9.48546 -8.403,8.67434 0,0 z m 8,-0.11663 c -3.48955,-5.41688 -1.71048,6.49774 0,0 z m 67,-6.5 c -1.69863,-6.84273 -2.66529,6.02888 0,0 z m -2.30142,-4.14708 c -9.96342,-12.32759 -5.26342,16.39584 0,0 z m -72.69858,-1.8881 c -7.31863,-5.21389 0.96167,9.43274 0,0 z m 12.5,-2.47851 c -6.04455,-11.54407 -8.53678,10.71894 0,0 z m 55.5,-4.96063 c -2.23639,-10.69747 -11.76088,4.95118 0,0 z m -9.5,-1.02568 c -2.23973,-4.75347 -1.69007,5.31866 0,0 z m -58.5,-8.84501 c 4.64562,-13.74929 -10.51694,1.65347 0,0 z m 30,0.90403 c 1.78105,-6.22117 -4.45043,2.79394 0,0 z m 31.5,-1.05902 c -4.3984,-5.97881 -2.44827,7.67449 0,0 z m -70.50228,-5.50589 c -3.38918,-13.95777 -12.34894,9.07963 0,0 z m 30.50228,-0.49411 c -3.26509,-3.68436 0.13154,7.0005 0,0 z m -40.5,-2.04797 c -3.09887,-6.68781 -2.46319,6.97109 0,0 z m 24.80963,-0.70203 c -2.65864,-6.17836 -1.55095,6.27118 0,0 z m -6.50103,-6.40475 c 1.40727,-13.88307 -15.79254,17.68171 0,0 z m 13.11266,-10.15131 c 9.40584,-13.03061 -10.66676,-3.83407 0,0 z m 33.21071,0.2245 c 5.71211,-12.99498 -14.45968,11.73909 0,0 z m -27.63197,-6.91844 c -1.67877,-5.90831 -2.35769,5.47431 0,0 z m 23.81184,-0.73851 c -1.2043,-9.22514 -4.97026,6.36425 0,0 z m -7.81184,-3.76149 c -5.65388,-13.288656 -4.98653,12.64892 0,0 z m -49,0.91667 c -4.02673,-4.98608 -0.33615,7.14123 0,0 z m 1.77083,-4.60417 c 3.26524,-9.295201 -5.68945,1.91033 0,0 z m 5.57851,-9.280473 c 6.41807,-6.053195 -4.82912,-0.946396 0,0 z m -13.09934,115.749513 c -2.08404,-11.98467 11.88618,4.69791 0,0 z m -9.75,-9.28154 c 3.26509,-3.68436 -0.13154,7.0005 0,0 z m 5.5,-1 c -18.99695,7.46201 0.22886,-9.56688 0,0 z m -22.75,-41.74609 c -5.47571,-13.34859 13.02487,4.38807 0,0 z"
         inkscape:connector-curvature="0"
         id="path3170"
         style="fill:#577889" />
      <path
         d="m -291.84187,239.8203 c 26.64178,-24.44986 136.17114,10.45952 102.21559,-46.89058 -24.75652,-4.3734 -74.3476,19.06073 -43.32562,-24.91947 5.80442,-41.88934 23.61099,-99.386697 76.57866,-73.102907 0.36246,25.195307 4.41751,29.748457 20.83628,12.229357 -2.52567,26.50157 60.150436,42.29824 15.8445,59.13473 26.968632,7.37389 38.375683,42.06737 0.75975,27.67118 -38.54032,-7.96603 -51.85612,47.6667 -3.47352,34.15974 30.251218,-0.29647 106.224911,-18.33491 107.049429,10.92768 -31.218854,16.07721 -68.385116,1.37937 -102.585959,6.15325 -57.96634,0 -115.93268,0 -173.89902,0 l -5e-5,-2.94086 -4e-5,-2.42212 0,0 z m 146,-45.51191 c 6.32317,-16.61433 -16.42234,5.69853 0,0 z m 33.75047,-4.875 c -4.02889,-6.67131 -2.11898,7.91743 0,0 z m -100.60047,-0.75 c -1.96091,-6.55406 -2.33399,6.18802 0,0 z m 87.67628,-0.50533 c 4.96156,-11.84541 -8.62839,6.75796 0,0 z m -7.01795,-2.06967 c -2.78876,-5.5135 -1.82661,6.06853 0,0 z m -63.48367,-0.58299 c 2.21932,-9.41815 -7.78948,4.84408 0,0 z m 8.40451,-1.94618 c -2.25104,-3.40565 -1.43371,3.79203 0,0 z m -19.5816,-4.27494 c 12.54951,-23.85788 -20.02313,3.92066 0,0 z m 14.10716,0.62911 c 18.4795,-2.79434 -18.62378,-4.1184 0,0 z m 57.24527,-1.75 c -6.4908,-12.93506 -11.69949,10.794 0,0 z m 5.27083,-0.8125 c -3.2394,-5.51576 -1.26471,6.61915 0,0 z m -61.1773,-11.29085 c 29.52172,2.30004 -10.8511,-9.23661 0,0 z m 25.40647,1.16237 c 1.78107,-6.22118 -4.45044,2.79393 0,0 z m 17.79826,-8.39319 c -7.97263,-6.39584 3.57961,13.13697 0,0 z m 17.20174,-1.01195 c 8.88923,-10.49679 -19.57943,10.86639 0,0 z m 10.60417,-3.38305 c -4.92471,1.96104 6.11694,2.66832 0,0 z m -70.80566,-7.39924 c 1.72096,-44.57145 -44.20051,4.64841 0,0 z m 29.35642,0.52467 c -0.45425,-11.96603 -4.22527,6.18042 0,0 z m 32.27504,0.71705 c -3.96165,-9.78165 -8.00215,8.72188 0,0 z m -103.42997,-1.11331 c -2.7608,-3.24723 0.19679,5.27149 0,0 z m 92.77083,-4.8125 c -3.23936,-5.51577 -1.26473,6.61913 0,0 z m -29.77083,-1.1875 c -1.05346,-8.55694 -3.33778,6.29939 0,0 z m -15.60699,-1.58179 c 0.56007,-9.95784 -7.06593,6.64508 0,0 z m 24.19769,-5.16084 c -5.62987,-1.50074 2.4562,5.77935 0,0 z m 3.4093,-2.25737 c -3.06167,-6.4052 -2.64211,6.83564 0,0 z m -51,-6.5 c -2.72535,-8.03014 -3.13791,7.67317 0,0 z m 29.60795,-2.25 c 13.61153,-19.86763 -22.48543,-4.04917 0,0 z m -10.60795,-1.75 c -0.73058,-6.77836 -2.70418,5.15546 0,0 z m 18.58179,-5.5 c -0.0799,-10.71783 -8.14679,8.12372 0,0 z m -7.1881,-8.58356 c -5.04499,-3.09819 2.02582,8.69111 0,0 z m 9.60631,-1.98976 c -4.6429,-6.489536 -1.65937,8.59125 0,0 z m 29.24055,108.58689 c 3.28976,-10.17035 5.98703,9.65916 0,0 z m 31.41008,-2.10863 c -1.95562,-9.02437 6.31003,8.24025 0,0 z m -104.94072,0.47164 c -1.37136,-10.70613 9.64541,5.74747 0,0 z m 9.48931,-5.12168 c 15.09106,-24.08591 17.26049,17.46339 0,0 z m 52.80078,1.2451 c 4.7437,-4.80894 0.13085,7.54665 0,0 z m 32,-41.5 c 3.14313,-4.46412 0.92455,5.89008 0,0 z M -239.3402,160.1861 c -1.41539,-9.05701 8.21508,5.23945 0,0 z"
         inkscape:connector-curvature="0"
         id="path3168"
         style="fill:#628736" />
      <path
         d="m -291.76292,244.00671 c 25.31695,-35.07857 126.43783,15.66722 108.53444,-42.81775 -18.42484,-28.23529 -80.83316,14.93484 -47.00248,-27.11285 -10.75814,-34.93084 18.40154,-87.160381 60.66722,-86.102187 25.8734,-2.465165 7.18214,57.376297 31.88038,17.853187 1.81358,33.11707 58.080884,34.65025 18.54807,64.37006 47.346177,10.68657 2.62041,36.72361 -24.07388,27.37562 -50.75626,22.09227 30.58968,43.66428 55.337358,29.82434 23.122849,-11.69464 106.794274,7.19345 42.085068,17.0896 -69.770776,-0.40035 -140.437336,-3.79847 -210.053766,-0.41311 -11.82942,-1.44935 -24.35055,-4.7684 -35.92241,-0.0669 z m 47.65022,-0.42749 c -2.25105,-3.40563 -1.4337,3.79203 0,0 z m 205.94655,-4.05344 c -8.485994,-8.37238 -4.683575,9.96185 0,0 z m -107.46939,2.01023 c -5.99751,-8.96284 -5.12478,10.11464 0,0 z m 76.85941,0.6122 c 10.714871,-7.1666 -7.588884,-0.0965 0,0 z m -173.06574,-0.85541 c -5.22329,-7.91188 -6.96828,8.96691 0,0 z m 44.5,-0.10941 c -4.4898,-2.96474 1.01896,7.34724 0,0 z m 89.5,-0.88342 c -2.26212,-8.86935 -6.29998,5.16671 0,0 z m -174.1875,-3.05408 c -5.96509,-2.79633 2.4247,8.4572 0,0 z m 45.81321,-1.59549 c -7.46519,-15.99859 -2.51079,10.06604 0,0 z m 136.37429,3.09201 c 0.738423,-4.91823 -3.66639,2.60248 0,0 z m -149.4309,-1.67082 c -0.10674,-9.54906 -6.35992,7.10063 0,0 z m 111.9309,0.1118 c -4.4898,-2.96474 1.01896,7.34724 0,0 z m 13,0 c -1.19082,-4.67552 -2.1087,4.46424 0,0 z m -31.5,-1 c -0.5525,-12.17402 -6.09621,2.46337 0,0 z m 81,-0.5 c -0.213183,-7.44782 -4.289811,4.74645 0,0 z m 61,0.10699 c 1.547635,-10.00278 -6.811622,4.0816 0,0 z m -74.925,-0.88199 c -4.228845,-2.78289 1.286483,6.20055 0,0 z m -140.81057,-0.32277 c 6.32449,-5.50845 -6.99139,-0.86605 0,0 z m 186.6689,-1.05957 c -4.922388,-7.66725 -4.187653,9.48098 0,0 z m 5.06667,0.62596 c -0.346485,-8.72264 -5.930942,5.34551 0,0 z m 15,-1.52899 c -6.445668,-8.21787 -5.717253,10.364 0,0 z m -123,-38.31463 c 6.32317,-16.61433 -16.42234,5.69853 0,0 z m 33.75047,-4.875 c -4.02889,-6.67131 -2.11898,7.91743 0,0 z m -100.60047,-0.75 c -1.96091,-6.55406 -2.33399,6.18802 0,0 z m 87.67628,-0.50533 c 4.96156,-11.84541 -8.62839,6.75796 0,0 z m -7.01795,-2.06967 c -2.78876,-5.5135 -1.82661,6.06853 0,0 z m -63.48367,-0.58299 c 2.21932,-9.41815 -7.78948,4.84408 0,0 z m 8.40451,-1.94618 c -2.25104,-3.40565 -1.43371,3.79203 0,0 z m -19.5816,-4.27494 c 12.54951,-23.85788 -20.02313,3.92066 0,0 z m 14.10716,0.62911 c 18.4795,-2.79434 -18.62378,-4.1184 0,0 z m 57.24527,-1.75 c -6.4908,-12.93506 -11.69949,10.794 0,0 z m 5.27083,-0.8125 c -3.2394,-5.51576 -1.26471,6.61915 0,0 z m -57.77083,-5.58051 c -1.66579,-5.81679 -3.55162,5.05942 0,0 z m -3.40647,-5.71034 c 31.62639,4.3395 -10.49111,-10.32931 0,0 z m 25.40647,1.16237 c 1.78107,-6.22118 -4.45044,2.79393 0,0 z m 17.79826,-8.39319 c -7.97263,-6.39584 3.57961,13.13697 0,0 z m 17.20174,-1.01195 c 8.88921,-10.49682 -19.57943,10.8664 0,0 z m -82.5,2.34612 c -4.3984,-5.97881 -2.44827,7.67449 0,0 z m 2,-3 c -2.23973,-4.75347 -1.69007,5.31866 0,0 z m 91.10417,-2.72917 c -4.92471,1.96104 6.11694,2.66832 0,0 z m -78.61948,-2.02083 c -5.65719,-0.34664 7.42968,10.04678 0,0 z m 8.18609,-4.7628 c 0.4003,-46.12151 -43.25608,2.64863 0,0 z m 28.98415,-0.0909 c -0.45425,-11.96603 -4.22527,6.18042 0,0 z m 32.27504,0.71705 c -3.96165,-9.78165 -8.00215,8.72188 0,0 z m -103.42997,-1.11331 c -2.7608,-3.24723 0.19679,5.27149 0,0 z m 11.5,0 c -2.77885,-7.6109 -4.18369,7.64572 0,0 z m 81.27083,-4.8125 c -3.23936,-5.51577 -1.26473,6.61913 0,0 z m -29.77083,-1.1875 c -1.05346,-8.55694 -3.33778,6.29939 0,0 z m -15.60699,-1.58179 c 0.56007,-9.95784 -7.06593,6.64508 0,0 z m 24.19769,-5.16084 c -5.62987,-1.50074 2.4562,5.77935 0,0 z m -24.13341,-1.18827 c 4.22889,-5.23441 -4.16028,0.66133 0,0 z m 27.54271,-1.0691 c -3.06167,-6.4052 -2.64211,6.83564 0,0 z m -51,-6.5 c -2.72535,-8.03014 -3.13791,7.67317 0,0 z m 3.5,-1.5 c 2.21102,-8.77179 -5.61474,6.79109 0,0 z m 26.10795,-0.75 c 13.61153,-19.86763 -22.48543,-4.04917 0,0 z m -10.60795,-1.75 c -0.73058,-6.77836 -2.70418,5.15546 0,0 z m -26.8282,-5.7282 c -7.85291,1.7003 9.0995,4.65709 0,0 z m 16.01153,2.01153 c -3.88618,2.73367 7.29459,1.16865 0,0 z m 29.39846,-1.78333 c -0.0799,-10.71783 -8.14679,8.12372 0,0 z m -19.08179,-5 c -1.13658,-6.49529 -3.30332,4.70921 0,0 z m 11.89369,-3.58356 c -5.04499,-3.09819 2.02582,8.69111 0,0 z m 9.60631,-1.98976 c -4.6429,-6.489536 -1.65937,8.59125 0,0 z m -24,-6.993619 c 12.78352,-8.683421 -7.51453,1.005766 0,0 z m 33,-6.478749 c -4.53104,-5.070226 -1.68063,6.874509 0,0 z m -122.5,152.045688 c -0.19483,-6.18256 2.82822,2.95542 0,0 z m 16.3125,0.31689 c 0.94388,-7.41899 4.68135,2.9196 0,0 z m 9.1875,-0.28551 c 4.36323,-3.93554 0.45691,6.39945 0,0 z m 97.5,-0.0314 c -0.19483,-6.18256 2.82822,2.95542 0,0 z m 22.0573,-0.41824 c 5.49617,-11.53954 2.25016,4.53919 0,0 z m 3.4427,0.35922 c 3.84845,-2.75248 -0.8337,5.33971 0,0 z m 34,0 c 3.848446,-2.75247 -0.83371,5.33971 0,0 z m 3.08333,0.6997 c 4.232005,-7.1203 4.950047,7.28227 0,0 z m 71.91667,-0.0337 c -0.322828,-5.39095 4.038497,2.94847 0,0 z m 6.60301,-0.44032 c 1.411281,-4.29966 1.762527,4.42722 0,0 z M -139.60132,214.197 c 3.28976,-10.17035 5.98703,9.65916 0,0 z m 31.41008,-2.10863 c -1.95567,-9.02437 6.31004,8.24021 0,0 z m -104.94072,0.47164 c -1.37136,-10.70613 9.64541,5.74747 0,0 z m 9.48931,-5.12168 c 15.09106,-24.08591 17.26049,17.46339 0,0 z m 52.80078,1.2451 c 4.7437,-4.80894 0.13085,7.54665 0,0 z m -87.92105,-25.08333 c 3.34744,-0.21629 -4.25069,5.40678 0,0 z m 7.92105,-13.79423 c -1.1269,-5.76098 5.34561,0.93551 0,0 z m 112,-2.62244 c 3.14313,-4.46412 0.92455,5.89008 0,0 z M -239.3402,160.1861 c -1.41539,-9.05701 8.21508,5.23945 0,0 z"
         inkscape:connector-curvature="0"
         id="path3166"
         style="fill:#4c6c61" />
      <path
         d="m -291.76292,244.00671 c 27.18058,-32.82035 139.13221,14.53303 109.65507,-50.8193 -24.88843,-0.59819 8.16993,-30.53389 -27.90286,-21.31835 -14.01678,19.70781 -40.78097,38.58827 -20.84142,1.82393 8.42994,-13.54841 10.31895,-77.665072 20.52077,-32.70536 9.34233,39.09911 56.23776,-41.874491 52.29283,-7.48505 19.9268,-30.52681 73.343811,36.30797 27.70387,10.99286 -55.50903,14.88765 28.38606,43.33418 26.19584,43.64989 -18.58757,0.79921 -69.04919,-7.47435 -53.51416,34.53733 41.01058,21.28422 92.512596,-6.61179 137.44787,7.1885 -7.353125,28.66677 -85.64894,6.64353 -121.48594,12.4406 -49.90962,3.00983 -100.65116,-3.09324 -150.07187,1.69495 z m 47.65022,-0.42749 c -2.25105,-3.40563 -1.4337,3.79203 0,0 z m 205.94655,-4.05344 c -8.485994,-8.37238 -4.683575,9.96185 0,0 z m -107.46939,2.01023 c -5.99751,-8.96284 -5.12478,10.11464 0,0 z m 76.85941,0.6122 c 10.714871,-7.1666 -7.588884,-0.0965 0,0 z m -173.06574,-0.85541 c -5.22329,-7.91188 -6.96828,8.96691 0,0 z m 44.5,-0.10941 c -4.4898,-2.96474 1.01896,7.34724 0,0 z m 89.5,-0.88342 c -2.26212,-8.86935 -6.29998,5.16671 0,0 z m -174.1875,-3.05408 c -5.96509,-2.79633 2.4247,8.4572 0,0 z m 45.81321,-1.59549 c -7.46519,-15.99859 -2.51079,10.06604 0,0 z m 136.37429,3.09201 c 0.738423,-4.91823 -3.66639,2.60248 0,0 z m -149.4309,-1.67082 c -0.10674,-9.54906 -6.35992,7.10063 0,0 z m 111.9309,0.1118 c -4.4898,-2.96474 1.01896,7.34724 0,0 z m 13,0 c -1.19082,-4.67552 -2.1087,4.46424 0,0 z m -31.5,-1 c -0.5525,-12.17402 -6.09621,2.46337 0,0 z m 81,-0.5 c -0.213183,-7.44782 -4.289811,4.74645 0,0 z m 61,0.10699 c 1.547635,-10.00278 -6.811622,4.0816 0,0 z m -74.925,-0.88199 c -4.228845,-2.78289 1.286483,6.20055 0,0 z m -140.81057,-0.32277 c 6.32449,-5.50845 -6.99139,-0.86605 0,0 z m 186.6689,-1.05957 c -4.922388,-7.66725 -4.187653,9.48098 0,0 z m 5.06667,0.62596 c -0.346485,-8.72264 -5.930942,5.34551 0,0 z m 15,-1.52899 c -6.445668,-8.21787 -5.717253,10.364 0,0 z m -152.27083,-42.0438 c -2.25104,-3.40565 -1.43371,3.79203 0,0 z m 24.27083,-7.89583 c -0.73058,-6.77836 -2.70418,5.15546 0,0 z m -38.49794,-10.13916 c 36.96001,-11.49488 -17.74181,-20.49572 0,0 z m 23.29794,-2.56084 c 14.69901,-21.64922 -13.10534,8.73323 0,0 z m -1.13583,-18.36722 c -0.24329,-9.99382 -6.2053,7.23754 0,0 z m -12.66417,-2.93278 c 0.30793,-7.46913 -4.49233,4.43902 0,0 z m -41.22934,-2.31197 c -4.46324,-7.94179 -3.61156,8.94977 0,0 z m 52.22934,-5.12901 c -5.66909,-11.68442 -2.98202,11.44032 0,0 z m 28.30282,-12.54532 c -3.08327,-8.51081 -3.94713,8.16021 0,0 z m -141.80282,115.4863 c -0.19483,-6.18256 2.82822,2.95542 0,0 z m 16.3125,0.31689 c 0.94388,-7.41899 4.68135,2.9196 0,0 z m 9.1875,-0.28551 c 4.36323,-3.93554 0.45691,6.39945 0,0 z m 97.5,-0.0314 c -0.19483,-6.18256 2.82822,2.95542 0,0 z m 22.0573,-0.41824 c 5.49617,-11.53954 2.25016,4.53919 0,0 z m 3.4427,0.35922 c 3.84845,-2.75248 -0.8337,5.33971 0,0 z m 34,0 c 3.848446,-2.75247 -0.83371,5.33971 0,0 z m 3.08333,0.6997 c 4.232005,-7.1203 4.950047,7.28227 0,0 z m 71.91667,-0.0337 c -0.322828,-5.39095 4.038497,2.94847 0,0 z m 6.60301,-0.44032 c 1.411281,-4.29966 1.762527,4.42722 0,0 z m -183.89276,-37.16664 c 0.42928,-7.38435 2.16807,5.77141 0,0 z m 56.28975,-4.5 c 2.72535,-8.03014 3.13791,7.67317 0,0 z m 42.45888,-3.56653 c -2.82854,-5.15039 3.453279,2.4669 0,0 z m 10.70991,-4.09451 c 0.218301,-12.34322 5.316586,6.79869 0,0 z m -98.16879,-14.33896 c 4.89663,-5.81992 2.60637,7.92728 0,0 z m 61.19288,-18.23241 c 5.13931,-10.33188 11.53379,7.68755 0,0 z m 28.76128,-6.35323 c 1.708134,-7.78703 4.550133,16.05433 0,0 z m -94.95416,-16.91436 c -4.91069,-4.17165 20.16531,7.93413 0,0 z m 6,-7 c 3.48955,-5.41688 1.71048,6.49774 0,0 z m -12.5,-3 c -28.44121,-37.592424 84.21952,-44.274321 19.57111,-23.87899 -7.4736,7.18148 -11.57398,17.17786 -19.57111,23.87899 z m 12.5,-18 c -3.06167,-6.4052 -2.64211,6.83564 0,0 z m 7.21667,-11.18333 c -6.3001,-1.724302 4.2759,5.31389 0,0 z m -5.09479,25.27982 c -3.76697,-7.57302 6.39612,4.22539 0,0 z m 8.95707,-10.67982 c 3.34746,-0.21628 -4.2507,5.40673 0,0 z m 46.9196,-2.70332 c -23.10895,9.38066 5.41588,-18.588185 0,0 z m -41.27216,-1.16226 c 3.88269,-14.899274 15.48246,8.03296 0,0 z m -30.72639,-7.43305 c -3.28568,-5.379615 5.15645,0.96098 0,0 z m -12.5,-3.11804 c -0.19481,-6.182542 2.8282,2.95542 0,0 z"
         inkscape:connector-curvature="0"
         id="path3164"
         style="fill:#51741e" />
      <path
         d="m -244.02937,244.50028 c 0.94388,-7.41905 4.6814,2.91959 0,0 z m 74.50082,-18.9971 c 4.81711,-26.9135 -23.67289,-37.06443 -17.75919,-48.47635 -46.07394,-10.74942 13.81204,-35.17006 21.65434,-54.41141 -4.20892,25.98053 78.953669,-4.7784 49.84492,31.05768 -23.19756,-23.28184 -53.00446,6.14507 -20.00683,19.68066 0.73712,-4.84899 60.102161,8.22803 18.22848,20.82445 -25.47275,-24.55889 -47.97884,6.75233 -51.96172,31.32497 z m 18.68668,-42.81979 c -0.73058,-6.77836 -2.70418,5.15546 0,0 z m -37.20267,-10.35358 c 49.05295,-19.24656 -34.28088,-15.8266 0,0 z m 21.62088,-1.75341 c 12.30207,-16.73015 -14.40397,5.08925 0,0 z m -0.75404,-18.96023 c -0.24329,-9.99382 -6.2053,7.23754 0,0 z m -12.66417,-3.12273 c -5.95604,-4.40556 0.67426,8.28545 0,0 z m 11,-7.25103 c -5.66909,-11.68442 -2.98202,11.44032 0,0 z m 28.30282,-12.54532 c -3.08327,-8.51081 -3.94713,8.16021 0,0 z m -61.59257,78.4863 c 0.42928,-7.38435 2.16807,5.77141 0,0 z m -39.1564,-2.91287 c -18.25959,-7.58723 8.65227,-4.72733 0,0 z m 95.44615,-1.58713 c 2.72535,-8.03014 3.13791,7.67317 0,0 z m 42.45888,-3.56653 c -2.82854,-5.15039 3.453279,2.4669 0,0 z m -129.25264,-2.98082 c 16.67759,-33.84638 25.24282,-5.53308 0,0 z m 139.96255,-1.11369 c 0.218301,-12.34322 5.316586,6.79869 0,0 z m -98.16879,-14.33896 c 4.89663,-5.81992 2.60637,7.92728 0,0 z m 61.19288,-18.23241 c 5.13931,-10.33188 11.53379,7.68755 0,0 z m -89.19288,-5.30219 c -18.11424,-27.54932 32.12922,-4.13089 0,0 z m 117.95416,-1.05104 c 1.708134,-7.78703 4.550133,16.05433 0,0 z m -130.70916,-5.16436 c 0.55257,-8.45645 6.04835,4.79666 0,0 z m -5.745,-6.75 c 4.1553,-5.48171 1.6793,7.70915 0,0 z m 41.5,-5 c -4.91069,-4.17165 20.16531,7.93413 0,0 z m -22.29846,-1.63179 c -9.52702,-27.32385 24.58686,-14.3529 0,0 z m 28.29846,-5.36821 c -1.3462,-7.49096 4.03028,2.7306 0,0 z m -12.5,-3 c -9.78627,-29.193234 31.67957,-7.66545 0,0 z m 14.62188,-3.90351 c -3.76697,-7.57302 6.39612,4.22539 0,0 z m 8.95707,-10.67982 c 3.34746,-0.21628 -4.2507,5.40673 0,0 z m -10.73429,-2.65615 c -10.62448,-27.676656 42.67741,-18.849591 0,0 z m 6.87201,-11.94385 c -6.3001,-1.724302 4.2759,5.31389 0,0 z m 50.78188,11.89667 c -23.33657,10.46428 1.98522,-17.116425 0,0 z m -41.27216,-1.16225 c 3.88269,-14.899274 15.48246,8.03296 0,0 z m 20.41685,-2.44234 c -28.64447,-11.184243 20.8723,-20.085958 0,0 z m -51.14324,-4.99071 c -3.28568,-5.379615 5.15645,0.96098 0,0 z m -12.5,-3.11804 c -0.19481,-6.182542 2.8282,2.95542 0,0 z"
         inkscape:connector-curvature="0"
         id="path3162"
         style="fill:#355129" />
    </g>
    <rect
       width="94.459671"
       height="74.940987"
       ry="2.6599097"
       x="8.7803802"
       y="25.613678"
       id="rect3391-2"
       style="fill:none;stroke:#282828;stroke-width:3.13044763;stroke-miterlimit:4;stroke-opacity:1;stroke-dasharray:none;stroke-dashoffset:0" />
  </g>
</svg>
