<?xml version="1.0" encoding="UTF-8" standalone="no"?>
<!-- Created with Inkscape (http://www.inkscape.org/) -->

<svg
   xmlns:dc="http://purl.org/dc/elements/1.1/"
   xmlns:cc="http://creativecommons.org/ns#"
   xmlns:rdf="http://www.w3.org/1999/02/22-rdf-syntax-ns#"
   xmlns:svg="http://www.w3.org/2000/svg"
   xmlns="http://www.w3.org/2000/svg"
   xmlns:xlink="http://www.w3.org/1999/xlink"
   xmlns:inkscape="http://www.inkscape.org/namespaces/inkscape"
   version="1.0"
   width="100"
   height="100"
   id="svg2">
  <metadata
     id="metadata2566">
    <rdf:RDF>
      <cc:Work
         rdf:about="">
        <dc:format>image/svg+xml</dc:format>
        <dc:type
           rdf:resource="http://purl.org/dc/dcmitype/StillImage" />
      </cc:Work>
    </rdf:RDF>
  </metadata>
  <defs
     id="defs4">
    <linearGradient
       x1="15.350921"
       y1="46.012268"
       x2="80.354599"
       y2="46.012268"
       id="linearGradient2191"
       xlink:href="#linearGradient5072"
       gradientUnits="userSpaceOnUse"
       gradientTransform="matrix(0.5862815,0,0,0.5862815,48.276596,51.265049)" />
    <linearGradient
       x1="32.94278"
       y1="25.952555"
       x2="66.236534"
       y2="25.952555"
       id="linearGradient2188"
       xlink:href="#linearGradient5064"
       gradientUnits="userSpaceOnUse"
       gradientTransform="matrix(0.5862815,0,0,0.5862815,48.276596,51.265049)" />
    <linearGradient
       id="linearGradient5064">
      <stop
         id="stop5066"
         style="stop-color:#dadada;stop-opacity:1"
         offset="0" />
      <stop
         id="stop5068"
         style="stop-color:#898989;stop-opacity:1"
         offset="1" />
    </linearGradient>
    <linearGradient
       id="linearGradient5072">
      <stop
         id="stop5074"
         style="stop-color:#862bff;stop-opacity:1"
         offset="0" />
      <stop
         id="stop5076"
         style="stop-color:#9b50ff;stop-opacity:1"
         offset="1" />
    </linearGradient>
  </defs>
  <g
     transform="matrix(1.4729505,0,0,1.3857781,-14.783037,-10.951583)"
     id="g2222"
     style="fill:#282828;fill-opacity:1">
    <path
       d="M 18.48245,76.173836 C 28.750053,59.008499 37.561029,40.501038 52.045447,26.345519 c 4.861916,-4.770861 14.454828,-9.743338 16.431346,-12.039133 0.91895,-1.067393 1.476704,4.049375 -1.748383,3.69167 -4.347692,3.777153 -7.49977,8.733063 -12.000737,12.355169 C 43.582066,41.395155 36.018982,55.454188 30.113,69.844498 c -1.327487,3.358206 -5.114156,3.969552 -8.12244,5.003819 -1.188395,0.388351 -2.37174,0.801242 -3.50811,1.325519 z"
       inkscape:connector-curvature="0"
       id="path2224"
       style="fill:#282828;fill-opacity:1;fill-rule:evenodd;stroke:none" />
    <path
       d="m 26.043592,14.383832 c 12.392893,2.506 22.323014,11.212548 29.894357,20.881192 6.826524,7.63938 12.391804,17.042483 15.890906,26.472487 C 71.589676,72.866367 56.700653,71.981932 56.969096,60.998788 52.254723,44.377654 38.65891,32.065429 23.974756,24.019933 c -5.817685,-0.437357 -8.955637,-4.962042 -1.79774,-7.150781 1.298398,-0.813154 2.623305,-1.587287 3.866576,-2.48532 z"
       inkscape:connector-curvature="0"
       id="path2226"
       style="fill:#282828;fill-opacity:1;fill-rule:evenodd;stroke:none" />
  </g>
  <g
     transform="matrix(1.4729505,0,0,1.3857781,-18.154375,-13.676637)"
     id="g2218">
    <path
       d="M 18.48245,76.173836 C 28.750053,59.008499 37.561029,40.501038 52.045447,26.345519 c 4.861916,-4.770861 14.454828,-9.743338 16.431346,-12.039133 0.91895,-1.067393 1.476704,4.049375 -1.748383,3.69167 -4.347692,3.777153 -7.49977,8.733063 -12.000737,12.355169 C 43.582066,41.395155 36.018982,55.454188 30.113,69.844498 c -1.327487,3.358206 -5.114156,3.969552 -8.12244,5.003819 -1.188395,0.388351 -2.37174,0.801242 -3.50811,1.325519 z"
       inkscape:connector-curvature="0"
       id="path3233"
       style="fill:#010101;fill-opacity:1;fill-rule:evenodd;stroke:none" />
    <path
       d="m 26.043592,14.383832 c 12.392893,2.506 22.323014,11.212548 29.894357,20.881192 6.826524,7.63938 12.391804,17.042483 15.890906,26.472487 C 71.589676,72.866367 56.700653,71.981932 56.969096,60.998788 52.254723,44.377654 38.65891,32.065429 23.974756,24.019933 c -5.817685,-0.437357 -8.955637,-4.962042 -1.79774,-7.150781 1.298398,-0.813154 2.623305,-1.587287 3.866576,-2.48532 z"
       inkscape:connector-curvature="0"
       id="path3235"
       style="fill:#010101;fill-opacity:1;fill-rule:evenodd;stroke:none" />
  </g>
  <g
     transform="matrix(0.5439097,0,0,0.5439097,11.814421,50.311576)"
     id="g2244"
     style="fill:#282828;fill-opacity:1">
    <path
       d="m 88.982804,21.695016 59.736506,0 9.03763,8.596768 0,60.177369 -68.774136,0 0,-68.774137 z"
       inkscape:connector-curvature="0"
       id="path5144"
       style="fill:#282828;fill-opacity:1;fill-rule:evenodd;stroke:none" />
    <rect
       width="4.4322443"
       height="3.9189899"
       x="91.684052"
       y="84.238586"
       id="rect5150"
       style="fill:#282828;fill-opacity:1;fill-rule:evenodd;stroke:none" />
  </g>
  <path
     d="m 57.628331,59.537737 32.491272,0 4.915652,4.675865 0,32.73106 -37.406924,0 0,-37.406925 z"
     inkscape:connector-curvature="0"
     id="rect5048"
     style="fill:url(#linearGradient2191);fill-opacity:1;fill-rule:evenodd;stroke:#000000;stroke-width:0.703538;stroke-linecap:round;stroke-linejoin:round;stroke-miterlimit:4;stroke-opacity:1;stroke-dashoffset:0" />
  <path
     d="m 67.942115,59.527623 0,13.905863 18.815973,0 0,-13.905863 -18.815973,0 z m 12.037095,2.546661 4.415432,0 0,8.995756 -4.415432,0 0,-8.995756 z"
     inkscape:connector-curvature="0"
     id="rect5051"
     style="fill:url(#linearGradient2188);fill-opacity:1;fill-rule:evenodd;stroke:#000000;stroke-width:0.703538;stroke-linecap:round;stroke-linejoin:round;stroke-miterlimit:4;stroke-opacity:1;stroke-dashoffset:0" />
  <rect
     width="26.620247"
     height="19.668463"
     x="63.077602"
     y="77.288857"
     id="rect5080"
     style="fill:#ffffff;fill-opacity:1;fill-rule:evenodd;stroke:#000000;stroke-width:0.703538;stroke-linecap:round;stroke-linejoin:round;stroke-miterlimit:4;stroke-opacity:1;stroke-dasharray:none;stroke-dashoffset:0" />
  <rect
     width="2.4107411"
     height="2.131577"
     x="59.097557"
     y="93.555786"
     id="rect5082"
     style="fill:#ffffff;fill-opacity:1;fill-rule:evenodd;stroke:#000000;stroke-width:0.34065637;stroke-linecap:round;stroke-linejoin:round;stroke-miterlimit:4;stroke-opacity:1;stroke-dasharray:none;stroke-dashoffset:0" />
  <path
     d="m 67.079813,80.115057 c 1.252865,1.010131 -1.917068,2.394033 -0.832277,0.614198 0.640154,-1.247175 -1.826289,-0.0016 -0.411436,-0.200877 -0.809464,1.81331 1.576685,2.292205 1.694899,0.399715 0.114662,-0.298074 0.109292,-1.229809 -0.451186,-0.813036 z m 0.584086,1.629457 c 1.040354,1.172362 1.006845,-2.24359 0.344418,-0.456963 0.483967,0.704272 0.33327,0.438196 -0.344418,0.456963 z m 2.378243,-0.195529 c -0.791402,0.588937 -0.420433,-1.839046 -0.988365,0.05709 -0.0785,0.83414 0.838881,0.417886 0.988365,-0.05709 z m -0.780586,-0.152086 c -0.149847,-0.8553 0.948407,-0.186918 0,0 z m 1.900308,-0.481597 c -0.435859,-0.530189 0.53438,-1.783649 -0.386185,-0.520662 -0.414369,0.728685 -0.947425,3.530857 -0.122481,1.42922 0.08376,-0.337009 0.192762,-0.712763 0.508666,-0.908558 z m 0.191869,0.04346 c -0.351993,1.404047 2.086906,1.146207 1.155106,-0.09654 -0.392019,1.686926 -0.683863,-0.666166 -1.155106,0.09654 l 0,0 z m 2.473224,0.619194 c -1.125014,-0.157577 0.581947,-2.804764 -0.596689,-0.888467 -0.146473,0.480637 -0.251345,2.052129 0.596689,0.888467 z m 1.815505,-0.662649 c -0.43587,-0.530189 0.534379,-1.783649 -0.386197,-0.520662 -0.414358,0.728685 -0.947414,3.530857 -0.12248,1.42922 0.08377,-0.337009 0.192762,-0.712763 0.508677,-0.908558 z m 0.770077,-0.65902 c 0.6097,-0.232391 -0.533574,-0.392702 0,0 z m 0.249361,1.36874 c -0.664237,-0.695099 -0.566907,-1.226589 -0.676354,0.222555 0.124023,0.359965 0.609369,-0.05112 0.676354,-0.222555 z m 0.849478,-0.04707 c -1.125015,-0.157577 0.581947,-2.804764 -0.596689,-0.888467 -0.146485,0.480637 -0.251345,2.052129 0.596689,0.888467 z m 1.127738,-0.02897 c -0.791403,0.588937 -0.420433,-1.839046 -0.988366,0.05709 -0.0785,0.83414 0.838882,0.417886 0.988366,-0.05709 z M 77.85853,81.396899 c -0.149847,-0.8553 0.948406,-0.186918 0,0 z m 0.790874,0.347615 c 1.040354,1.172362 1.006834,-2.24359 0.344406,-0.456963 0.483967,0.704261 0.333282,0.438196 -0.344406,0.456963 z"
     inkscape:connector-curvature="0"
     id="text5084"
     style="font-size:8.88496017px;font-style:normal;font-weight:normal;line-height:125%;fill:#000000;fill-opacity:1;stroke:none;font-family:Bitstream Vera Sans" />
  <path
     d="m 66.864612,86.079774 c -0.583203,0.519075 -1.373129,-0.16277 -0.887034,-0.807214 0.01866,-0.376207 0.577636,-0.991674 0.433368,-1.101298 -0.862975,0.06472 -1.127,1.165548 -0.925538,1.864495 0.280487,0.717625 1.00496,0.58005 1.379204,0.04402 z m 0.239646,0.260717 c -0.09005,-0.755854 0.99722,-0.59627 1.2064,-0.825672 -0.208133,-0.356139 -0.208827,-1.236656 -0.500936,-1.262822 -0.500926,0.554381 -0.518656,1.351341 -0.698341,2.042426 l -0.0054,0.03471 -0.0018,0.01136 z m 2.694566,-0.528667 c -0.56329,0.371156 -0.538337,-1.311117 -0.900507,-0.400741 -0.616559,0.609965 0.676387,1.32028 0.874706,0.484507 0.0086,-0.02792 0.0172,-0.05585 0.0258,-0.08377 z m -0.780585,-0.152086 c -0.373263,-0.476447 0.752998,-0.557061 0.293145,-0.09575 -0.09042,0.05125 -0.192685,0.07416 -0.293145,0.09575 z m 1.224527,0.586599 c -0.107385,-0.972862 1.047478,-0.544545 1.538204,-0.388379 0.450811,-0.617992 -0.548747,-1.400265 -1.15236,-0.962333 -0.537324,0.22368 -0.822861,0.893716 -0.385844,1.350712 z m 2.530021,-1.727216 c 0.564007,-0.200315 -0.443357,-0.285394 0,0 z m 0.249349,1.36874 c 0.04291,-0.463965 -0.806674,-0.967592 -0.699896,-0.210614 -0.09438,0.587857 0.476293,0.879338 0.699896,0.210614 z m 1.124132,-0.03983 c -0.584284,0.418239 -0.557975,-1.323257 -0.871773,-0.453303 -0.588772,0.563037 0.530123,1.399647 0.823776,0.592223 0.02582,-0.04232 0.03108,-0.09305 0.048,-0.13892 z m 1.622048,-0.01087 c 0.08416,-0.867892 -1.149548,-1.312396 -1.326741,-0.309795 -0.196842,0.989821 0.867208,0.758246 1.326741,0.309795 z m -0.704692,0.02173 c -0.825562,0.154302 0.03687,-1.037918 0.238489,-0.428218 -0.04095,0.161138 -0.145779,0.294215 -0.238489,0.428218 z m 1.552252,-0.01811 c -0.673068,-0.221905 -0.159761,-1.305913 -0.248015,-1.458462 -0.450458,0.431757 -0.559663,1.139062 -0.372348,1.713897 0.200238,0.291613 0.534975,-0.03736 0.620363,-0.255435 z m 1.862476,0.01086 c -0.427997,-0.05627 -0.350107,-1.456643 -0.685947,-0.659286 -0.327205,0.462124 0.132812,1.724615 0.685947,0.659286 z m 1.221815,-0.03983 c -0.563279,0.371156 -0.538338,-1.311117 -0.900508,-0.400741 -0.616558,0.609965 0.676387,1.32028 0.874707,0.484507 0.0086,-0.02792 0.0172,-0.05585 0.0258,-0.08377 z m -0.780586,-0.152086 c -0.373251,-0.476447 0.752998,-0.557061 0.293157,-0.09575 -0.09042,0.05125 -0.192696,0.07416 -0.293157,0.09575 z m 0.790863,0.347615 c 0.464858,0.765888 1.126437,-0.597979 0.631179,-0.843656 -0.447999,0.233647 -0.07529,0.701373 -0.0093,0.931459 -0.206137,0.06233 -0.420886,-0.0491 -0.621884,-0.0878 z m 2.316815,-0.155702 c -0.428008,-0.05627 -0.350118,-1.456643 -0.685958,-0.659286 -0.327205,0.462124 0.132812,1.724615 0.685958,0.659286 z m 0.0039,0.155702 c 0.464858,0.765888 1.126426,-0.597979 0.631179,-0.843656 -0.447999,0.233658 -0.07529,0.701384 -0.0093,0.931459 -0.206148,0.06233 -0.420885,-0.0491 -0.621884,-0.0878 z"
     inkscape:connector-curvature="0"
     id="text5092"
     style="font-size:8.88496017px;font-style:normal;font-weight:normal;line-height:125%;fill:#000000;fill-opacity:1;stroke:none;font-family:Bitstream Vera Sans" />
</svg>
