<?xml version="1.0" encoding="UTF-8" standalone="no"?>
<!-- Created with Inkscape (http://www.inkscape.org/) -->
<svg
   xmlns:svg="http://www.w3.org/2000/svg"
   xmlns="http://www.w3.org/2000/svg"
   version="1.0"
   width="100"
   height="100"
   id="svg2">
  <defs
     id="defs4" />
  <g
     transform="translate(-5.8507689,-9.4512421)"
     id="g4301">
    <g
       transform="matrix(0.3225172,0,0,0.4167605,104.21148,-0.4922548)"
       id="g3973">
      <path
         d="M -291.84187,156.18339 C -291.84187,126.51672 -291.84187,96.850058 -291.84187,67.183392 C -197.1752,67.183392 -102.50854,67.183392 -7.84187,67.183392 C -7.84187,126.51672 -7.84187,185.85006 -7.84187,245.18339 C -102.50854,245.18339 -197.1752,245.18339 -291.84187,245.18339 C -291.84187,215.51672 -291.84187,185.85006 -291.84187,156.18339 z"
         id="path3176"
         style="fill:#87b5df" />
      <path
         d="M -291.64177,239.43339 C -266.20352,216.34037 -187.81854,237.02763 -187.68423,215.97979 C -211.0644,209.63003 -219.93475,202.37118 -241.8472,208.6606 C -264.48015,179.03982 -205.22292,113.24456 -262.15041,117.29081 C -310.09181,102.81656 -286.24589,51.319694 -241.29601,66.325706 C -176.82515,68.462542 -112.36724,69.204221 -48.012443,65.312802 C 17.091377,66.159482 -8.0611179,153.1289 -11.713488,195.09237 C -33.585842,239.73529 -75.85598,159.19935 -103.81336,206.47488 C -113.47709,207.12329 -158.43201,213.91417 -142.61415,223.47765 C -105.2939,235.20301 -23.911907,201.3267 -16.003309,238.81305 C -65.974572,258.24097 -121.33076,237.08692 -173.62951,245.18898 C -209.99054,241.47086 -265.77856,252.65582 -291.64177,239.43339 L -291.64177,239.43339 z M -18.48144,208.54747 C -27.774785,193.90193 -33.159837,220.55907 -18.48144,208.54747 z M -105.34187,204.18339 C -108.60696,200.49903 -105.21033,211.18389 -105.34187,204.18339 z M -222.84187,199.18339 C -225.60267,195.93616 -222.64508,204.45488 -222.84187,199.18339 z M -135.84187,198.30583 C -130.15833,185.18766 -144.87283,200.85735 -135.84187,198.30583 z M -203.84187,197.18339 C -206.90354,190.77819 -206.48398,204.01903 -203.84187,197.18339 z M -89.62325,180.19704 C -93.099148,171.75593 -94.336248,188.4554 -89.62325,180.19704 z M -101.84187,172.18339 C -102.62363,165.79382 -105.4417,176.63045 -101.84187,172.18339 z M -227.14486,163.56532 C -216.87411,153.33501 -233.02345,170.23835 -227.14486,163.56532 z M -223.84187,110.18339 C -225.52064,104.27508 -226.19956,115.6577 -223.84187,110.18339 z M -27.84187,218.90518 C -27.221338,211.93457 -19.885929,228.92602 -27.84187,218.90518 z M -20.23294,219.35964 C -15.212701,204.44238 -5.0771526,229.02889 -20.23294,219.35964 z M -231.73668,210.81014 C -240.9403,198.47375 -221.03984,213.1767 -231.73668,210.81014 z"
         id="path3174"
         style="fill:#71a6de" />
      <path
         d="M -291.64177,239.43339 C -266.34146,216.5517 -187.60119,237.01397 -188.34109,215.77718 C -211.3457,203.72499 -215.75214,200.88124 -240.06957,208.10891 C -252.12837,170.49568 -236.17614,94.858792 -184.80603,84.451022 C -137.0693,82.787739 -103.21232,139.9662 -95.496061,178.08394 C -81.809116,214.28971 -113.80357,205.93183 -132.91052,206.8941 C -175.43783,237.8867 -82.246215,220.74207 -60.281228,222.47736 C -30.105676,207.35208 14.721279,244.88221 -37.855427,245.78123 C -122.53256,244.68108 -207.24674,245.37641 -291.94166,245.18339 L -291.64177,239.43339 L -291.64177,239.43339 z M -222.84187,199.18339 C -225.60267,195.93616 -222.64508,204.45488 -222.84187,199.18339 z M -135.02232,198.03552 C -129.82652,179.43302 -146.11557,202.79786 -135.02232,198.03552 z M -122.49492,166.05077 C -133.05526,152.30125 -122.27317,174.45313 -122.49492,166.05077 z M -227.20654,163.63187 C -218.89723,147.56054 -239.62141,170.38593 -227.20654,163.63187 z M -189.84187,128.5764 C -194.45767,124.49283 -190.1885,135.26971 -189.84187,128.5764 z M -160.09201,109.59992 C -165.96923,107.4806 -157.22432,115.64933 -160.09201,109.59992 z M -213.09201,108.59992 C -218.96923,106.4806 -210.22432,114.64933 -213.09201,108.59992 z M -232.18265,210.44101 C -232.91091,201.05711 -224.65196,216.33989 -232.18265,210.44101 z"
         id="path3172"
         style="fill:#6a929e" />
      <path
         d="M -291.84187,239.88572 C -266.24405,215.39327 -172.49376,245.05327 -186.2834,208.87176 C -215.21182,213.74521 -188.48569,181.9177 -218.7882,197.99046 C -266.85744,211.75002 -223.01395,161.07358 -231.25807,135.53477 C -221.19291,73.496479 -130.99527,72.469769 -118.90245,134.87279 C -86.12271,141.03255 -118.92905,178.12188 -89.670778,190.89793 C -105.52798,219.85131 -145.84622,187.20943 -150.62308,222.47948 C -108.49874,238.26184 -42.248839,207.83319 -13.334386,233.89501 C -42.626816,259.7206 -86.806245,238.47386 -123.149,245.18343 C -179.37995,245.18343 -235.61091,245.18343 -291.84187,245.18343 L -291.84187,242.24257 L -291.84187,239.88572 z M -158.84187,205.24241 C -158.45087,191.74185 -166.00322,213.31454 -158.84187,205.24241 z M -134.02195,200.10014 C -123.14444,180.5778 -153.38512,198.11778 -134.02195,200.10014 z M -147.0914,191.43339 C -151.90472,182.34577 -151.38976,201.68557 -147.0914,191.43339 z M -193.84187,191.74241 C -196.38921,186.63075 -196.18594,197.62788 -193.84187,191.74241 z M -202.28802,188.09626 C -200.75282,178.7857 -209.06455,193.75921 -202.28802,188.09626 z M -125.84187,187.68339 C -128.65281,181.77486 -127.75896,196.06389 -125.84187,187.68339 z M -209.40697,179.20814 C -194.77163,172.38082 -221.36423,185.01418 -209.40697,179.20814 z M -136.34187,178.18339 C -140.49717,172.70168 -138.02117,185.89254 -136.34187,178.18339 z M -191.84187,177.30002 C -196.52056,167.81456 -200.24487,185.97436 -191.84187,177.30002 z M -183.84187,177.18339 C -187.33142,171.76651 -185.55235,183.68113 -183.84187,177.18339 z M -116.84187,170.68339 C -118.5405,163.84066 -119.50716,176.71227 -116.84187,170.68339 z M -119.14329,166.53631 C -129.10671,154.20872 -124.40671,182.93215 -119.14329,166.53631 z M -191.84187,164.64821 C -199.1605,159.43432 -190.8802,174.08095 -191.84187,164.64821 z M -179.34187,162.1697 C -185.38642,150.62563 -187.87865,172.88864 -179.34187,162.1697 z M -123.84187,157.20907 C -126.07826,146.5116 -135.60275,162.16025 -123.84187,157.20907 z M -133.34187,156.18339 C -135.5816,151.42992 -135.03194,161.50205 -133.34187,156.18339 z M -191.84187,147.33838 C -187.19625,133.58909 -202.35881,148.99185 -191.84187,147.33838 z M -161.84187,148.24241 C -160.06082,142.02124 -166.2923,151.03635 -161.84187,148.24241 z M -130.34187,147.18339 C -134.74027,141.20458 -132.79014,154.85788 -130.34187,147.18339 z M -200.84415,141.6775 C -204.23333,127.71973 -213.19309,150.75713 -200.84415,141.6775 z M -170.34187,141.18339 C -173.60696,137.49903 -170.21033,148.18389 -170.34187,141.18339 z M -210.84187,139.13542 C -213.94074,132.44761 -213.30506,146.10651 -210.84187,139.13542 z M -186.03224,138.43339 C -188.69088,132.25503 -187.58319,144.70457 -186.03224,138.43339 z M -192.53327,132.02864 C -191.126,118.14557 -208.32581,149.71035 -192.53327,132.02864 z M -179.42061,121.87733 C -170.01477,108.84672 -190.08737,118.04326 -179.42061,121.87733 z M -146.2099,122.10183 C -140.49779,109.10685 -160.66958,133.84092 -146.2099,122.10183 z M -173.84187,115.18339 C -175.52064,109.27508 -176.19956,120.6577 -173.84187,115.18339 z M -150.03003,114.44488 C -151.23433,105.21974 -155.00029,120.80913 -150.03003,114.44488 z M -157.84187,110.68339 C -163.49575,97.394734 -162.8284,123.33231 -157.84187,110.68339 z M -206.84187,111.60006 C -210.8686,106.61398 -207.17802,118.74129 -206.84187,111.60006 z M -205.07104,106.99589 C -201.8058,97.700689 -210.76049,108.90622 -205.07104,106.99589 z M -199.49253,97.715417 C -193.07446,91.662222 -204.32165,96.769021 -199.49253,97.715417 z M -212.59187,213.46493 C -214.67591,201.48026 -200.70569,218.16284 -212.59187,213.46493 z M -222.34187,204.18339 C -219.07678,200.49903 -222.47341,211.18389 -222.34187,204.18339 z M -216.84187,203.18339 C -235.83882,210.6454 -216.61301,193.61651 -216.84187,203.18339 z M -239.59187,161.4373 C -245.06758,148.08871 -226.567,165.82537 -239.59187,161.4373 z"
         id="path3170"
         style="fill:#577889" />
      <path
         d="M -291.84187,239.8203 C -265.20009,215.37044 -155.67073,250.27982 -189.62628,192.92972 C -214.3828,188.55632 -263.97388,211.99045 -232.9519,168.01025 C -227.14748,126.12091 -209.34091,68.623553 -156.37324,94.907343 C -156.01078,120.10265 -151.95573,124.6558 -135.53696,107.1367 C -138.06263,133.63827 -75.386524,149.43494 -119.69246,166.27143 C -92.723828,173.64532 -81.316777,208.3388 -118.93271,193.94261 C -157.47303,185.97658 -170.78883,241.60931 -122.40623,228.10235 C -92.155012,227.80588 -16.181319,209.76744 -15.356801,239.03003 C -46.575655,255.10724 -83.741917,240.4094 -117.94276,245.18328 C -175.9091,245.18328 -233.87544,245.18328 -291.84178,245.18328 L -291.84183,242.24242 L -291.84187,239.8203 L -291.84187,239.8203 L -291.84187,239.8203 z M -145.84187,194.30839 C -139.5187,177.69406 -162.26421,200.00692 -145.84187,194.30839 z M -112.0914,189.43339 C -116.12029,182.76208 -114.21038,197.35082 -112.0914,189.43339 z M -212.69187,188.68339 C -214.65278,182.12933 -215.02586,194.87141 -212.69187,188.68339 z M -125.01559,188.17806 C -120.05403,176.33265 -133.64398,194.93602 -125.01559,188.17806 z M -132.03354,186.10839 C -134.8223,180.59489 -133.86015,192.17692 -132.03354,186.10839 z M -195.51721,185.5254 C -193.29789,176.10725 -203.30669,190.36948 -195.51721,185.5254 z M -187.1127,183.57922 C -189.36374,180.17357 -188.54641,187.37125 -187.1127,183.57922 z M -206.6943,179.30428 C -194.14479,155.4464 -226.71743,183.22494 -206.6943,179.30428 z M -192.58714,179.93339 C -174.10764,177.13905 -211.21092,175.81499 -192.58714,179.93339 z M -135.34187,178.18339 C -141.83267,165.24833 -147.04136,188.97739 -135.34187,178.18339 z M -130.07104,177.37089 C -133.31044,171.85513 -131.33575,183.99004 -130.07104,177.37089 z M -191.24834,166.08004 C -161.72662,168.38008 -202.09944,156.84343 -191.24834,166.08004 z M -165.84187,167.24241 C -164.0608,161.02123 -170.29231,170.03634 -165.84187,167.24241 z M -148.04361,158.84922 C -156.01624,152.45338 -144.464,171.98619 -148.04361,158.84922 z M -130.84187,157.83727 C -121.95264,147.34048 -150.4213,168.70366 -130.84187,157.83727 z M -120.2377,154.45422 C -125.16241,156.41526 -114.12076,157.12254 -120.2377,154.45422 z M -191.04336,147.05498 C -189.3224,102.48353 -235.24387,151.70339 -191.04336,147.05498 z M -161.68694,147.57965 C -162.14119,135.61362 -165.91221,153.76007 -161.68694,147.57965 z M -129.4119,148.2967 C -133.37355,138.51505 -137.41405,157.01858 -129.4119,148.2967 z M -232.84187,147.18339 C -235.60267,143.93616 -232.64508,152.45488 -232.84187,147.18339 z M -140.07104,142.37089 C -143.3104,136.85512 -141.33577,148.99002 -140.07104,142.37089 z M -169.84187,141.18339 C -170.89533,132.62645 -173.17965,147.48278 -169.84187,141.18339 z M -185.44886,139.6016 C -184.88879,129.64376 -192.51479,146.24668 -185.44886,139.6016 z M -161.25117,134.44076 C -166.88104,132.94002 -158.79497,140.22011 -161.25117,134.44076 z M -157.84187,132.18339 C -160.90354,125.77819 -160.48398,139.01903 -157.84187,132.18339 z M -208.84187,125.68339 C -211.56722,117.65325 -211.97978,133.35656 -208.84187,125.68339 z M -179.23392,123.43339 C -165.62239,103.56576 -201.71935,119.38422 -179.23392,123.43339 z M -189.84187,121.68339 C -190.57245,114.90503 -192.54605,126.83885 -189.84187,121.68339 z M -171.26008,116.18339 C -171.33998,105.46556 -179.40687,124.30711 -171.26008,116.18339 z M -178.44818,107.59983 C -183.49317,104.50164 -176.42236,116.29094 -178.44818,107.59983 z M -168.84187,105.61007 C -173.48477,99.120534 -170.50124,114.20132 -168.84187,105.61007 z M -139.60132,214.19696 C -136.31156,204.02661 -133.61429,223.85612 -139.60132,214.19696 z M -108.19124,212.08833 C -110.14686,203.06396 -101.88121,220.32858 -108.19124,212.08833 z M -213.13196,212.55997 C -214.50332,201.85384 -203.48655,218.30744 -213.13196,212.55997 z M -203.64265,207.43829 C -188.55159,183.35238 -186.38216,224.90168 -203.64265,207.43829 z M -150.84187,208.68339 C -146.09817,203.87445 -150.71102,216.23004 -150.84187,208.68339 z M -118.84187,167.18339 C -115.69874,162.71927 -117.91732,173.07347 -118.84187,167.18339 z M -239.3402,160.1861 C -240.75559,151.12909 -231.12512,165.42555 -239.3402,160.1861 z"
         id="path3168"
         style="fill:#628736" />
      <path
         d="M -291.76292,244.00671 C -266.44597,208.92814 -165.32509,259.67393 -183.22848,201.18896 C -201.65332,172.95367 -264.06164,216.1238 -230.23096,174.07611 C -240.9891,139.14527 -211.82942,86.915729 -169.56374,87.973923 C -143.69034,85.508758 -162.3816,145.35022 -137.68336,105.82711 C -135.86978,138.94418 -79.602476,140.47736 -119.13529,170.19717 C -71.789113,180.88374 -116.51488,206.92078 -143.20917,197.57279 C -193.96543,219.66506 -112.61949,241.23707 -87.871812,227.39713 C -64.748963,215.70249 18.922462,234.59058 -45.786744,244.48673 C -115.55752,244.08638 -186.22408,240.68826 -255.84051,244.07362 C -267.66993,242.62427 -280.19106,239.30522 -291.76292,244.00672 L -291.76292,244.00671 z M -244.1127,243.57922 C -246.36375,240.17359 -245.5464,247.37125 -244.1127,243.57922 z M -38.16615,239.52578 C -46.652144,231.1534 -42.849725,249.48763 -38.16615,239.52578 z M -145.63554,241.53601 C -151.63305,232.57317 -150.76032,251.65065 -145.63554,241.53601 z M -68.77613,242.14821 C -58.061259,234.98161 -76.365014,242.05171 -68.77613,242.14821 z M -241.84187,241.2928 C -247.06516,233.38092 -248.81015,250.25971 -241.84187,241.2928 z M -197.34187,241.18339 C -201.83167,238.21865 -196.32291,248.53063 -197.34187,241.18339 z M -107.84187,240.29997 C -110.10399,231.43062 -114.14185,245.46668 -107.84187,240.29997 z M -282.02937,237.24589 C -287.99446,234.44956 -279.60467,245.70309 -282.02937,237.24589 z M -236.21616,235.6504 C -243.68135,219.65181 -238.72695,245.71644 -236.21616,235.6504 z M -99.84187,238.74241 C -99.103447,233.82418 -103.50826,241.34489 -99.84187,238.74241 z M -249.27277,237.07159 C -249.37951,227.52253 -255.63269,244.17222 -249.27277,237.07159 z M -137.34187,237.18339 C -141.83167,234.21865 -136.32291,244.53063 -137.34187,237.18339 z M -124.34187,237.18339 C -125.53269,232.50787 -126.45057,241.64763 -124.34187,237.18339 z M -155.84187,236.18339 C -156.39437,224.00937 -161.93808,238.64676 -155.84187,236.18339 z M -74.84187,235.68339 C -75.055053,228.23557 -79.131681,240.42984 -74.84187,235.68339 z M -13.84187,235.79038 C -12.294235,225.7876 -20.653492,239.87198 -13.84187,235.79038 z M -88.76687,234.90839 C -92.995715,232.1255 -87.480387,241.10894 -88.76687,234.90839 z M -229.57744,234.58562 C -223.25295,229.07717 -236.56883,233.71957 -229.57744,234.58562 z M -42.90854,233.52605 C -47.830928,225.8588 -47.096193,243.00703 -42.90854,233.52605 z M -37.84187,234.15201 C -38.188355,225.42937 -43.772812,239.49752 -37.84187,234.15201 z M -22.84187,232.62302 C -29.287538,224.40515 -28.559123,242.98702 -22.84187,232.62302 z M -145.84187,194.30839 C -139.5187,177.69406 -162.26421,200.00692 -145.84187,194.30839 z M -112.0914,189.43339 C -116.12029,182.76208 -114.21038,197.35082 -112.0914,189.43339 z M -212.69187,188.68339 C -214.65278,182.12933 -215.02586,194.87141 -212.69187,188.68339 z M -125.01559,188.17806 C -120.05403,176.33265 -133.64398,194.93602 -125.01559,188.17806 z M -132.03354,186.10839 C -134.8223,180.59489 -133.86015,192.17692 -132.03354,186.10839 z M -195.51721,185.5254 C -193.29789,176.10725 -203.30669,190.36948 -195.51721,185.5254 z M -187.1127,183.57922 C -189.36374,180.17357 -188.54641,187.37125 -187.1127,183.57922 z M -206.6943,179.30428 C -194.14479,155.4464 -226.71743,183.22494 -206.6943,179.30428 z M -192.58714,179.93339 C -174.10764,177.13905 -211.21092,175.81499 -192.58714,179.93339 z M -135.34187,178.18339 C -141.83267,165.24833 -147.04136,188.97739 -135.34187,178.18339 z M -130.07104,177.37089 C -133.31044,171.85513 -131.33575,183.99004 -130.07104,177.37089 z M -187.84187,171.79038 C -189.50766,165.97359 -191.39349,176.8498 -187.84187,171.79038 z M -191.24834,166.08004 C -159.62195,170.41954 -201.73945,155.75073 -191.24834,166.08004 z M -165.84187,167.24241 C -164.0608,161.02123 -170.29231,170.03634 -165.84187,167.24241 z M -148.04361,158.84922 C -156.01624,152.45338 -144.464,171.98619 -148.04361,158.84922 z M -130.84187,157.83727 C -121.95266,147.34045 -150.4213,168.70367 -130.84187,157.83727 z M -213.34187,160.18339 C -217.74027,154.20458 -215.79014,167.85788 -213.34187,160.18339 z M -211.34187,157.18339 C -213.5816,152.42992 -213.03194,162.50205 -211.34187,157.18339 z M -120.2377,154.45422 C -125.16241,156.41526 -114.12076,157.12254 -120.2377,154.45422 z M -198.85718,152.43339 C -204.51437,152.08675 -191.4275,162.48017 -198.85718,152.43339 z M -190.67109,147.67059 C -190.27079,101.54908 -233.92717,150.31922 -190.67109,147.67059 z M -161.68694,147.57969 C -162.14119,135.61366 -165.91221,153.76011 -161.68694,147.57969 z M -129.4119,148.29674 C -133.37355,138.51509 -137.41405,157.01862 -129.4119,148.29674 z M -232.84187,147.18343 C -235.60267,143.9362 -232.64508,152.45492 -232.84187,147.18343 z M -221.34187,147.18343 C -224.12072,139.57253 -225.52556,154.82915 -221.34187,147.18343 z M -140.07104,142.37093 C -143.3104,136.85516 -141.33577,148.99006 -140.07104,142.37093 z M -169.84187,141.18343 C -170.89533,132.62649 -173.17965,147.48282 -169.84187,141.18343 z M -185.44886,139.60164 C -184.88879,129.6438 -192.51479,146.24672 -185.44886,139.60164 z M -161.25117,134.4408 C -166.88104,132.94006 -158.79497,140.22015 -161.25117,134.4408 z M -185.38458,133.25253 C -181.15569,128.01812 -189.54486,133.91386 -185.38458,133.25253 z M -157.84187,132.18343 C -160.90354,125.77823 -160.48398,139.01907 -157.84187,132.18343 z M -208.84187,125.68343 C -211.56722,117.65329 -211.97978,133.3566 -208.84187,125.68343 z M -205.34187,124.18343 C -203.13085,115.41164 -210.95661,130.97452 -205.34187,124.18343 z M -179.23392,123.43343 C -165.62239,103.5658 -201.71935,119.38426 -179.23392,123.43343 z M -189.84187,121.68343 C -190.57245,114.90507 -192.54605,126.83889 -189.84187,121.68343 z M -216.67007,115.95523 C -224.52298,117.65553 -207.57057,120.61232 -216.67007,115.95523 z M -200.65854,117.96676 C -204.54472,120.70043 -193.36395,119.13541 -200.65854,117.96676 z M -171.26008,116.18343 C -171.33998,105.4656 -179.40687,124.30715 -171.26008,116.18343 z M -190.34187,111.18343 C -191.47845,104.68814 -193.64519,115.89264 -190.34187,111.18343 z M -178.44818,107.59987 C -183.49317,104.50168 -176.42236,116.29098 -178.44818,107.59987 z M -168.84187,105.61011 C -173.48477,99.120574 -170.50124,114.20136 -168.84187,105.61011 z M -192.84187,98.616491 C -180.05835,89.93307 -200.3564,99.622257 -192.84187,98.616491 z M -159.84187,92.137742 C -164.37291,87.067516 -161.5225,99.012251 -159.84187,92.137742 z M -282.34187,244.18343 C -282.5367,238.00087 -279.51365,247.13885 -282.34187,244.18343 z M -266.02937,244.50032 C -265.08549,237.08133 -261.34802,247.41992 -266.02937,244.50032 z M -256.84187,244.21481 C -252.47864,240.27927 -256.38496,250.61426 -256.84187,244.21481 z M -159.34187,244.18341 C -159.5367,238.00085 -156.51365,247.13883 -159.34187,244.18341 z M -137.28457,243.76517 C -131.7884,232.22563 -135.03441,248.30436 -137.28457,243.76517 z M -133.84187,244.12439 C -129.99342,241.37191 -134.67557,249.4641 -133.84187,244.12439 z M -99.84187,244.12439 C -95.993424,241.37192 -100.67558,249.4641 -99.84187,244.12439 z M -96.75854,244.82409 C -92.526535,237.70379 -91.808493,252.10636 -96.75854,244.82409 z M -24.84187,244.79039 C -25.164698,239.39944 -20.803373,247.73886 -24.84187,244.79039 z M -18.23886,244.35007 C -16.827579,240.05041 -16.476333,248.77729 -18.23886,244.35007 z M -139.60132,214.197 C -136.31156,204.02665 -133.61429,223.85616 -139.60132,214.197 z M -108.19124,212.08837 C -110.14691,203.064 -101.8812,220.32858 -108.19124,212.08837 z M -213.13196,212.56001 C -214.50332,201.85388 -203.48655,218.30748 -213.13196,212.56001 z M -203.64265,207.43833 C -188.55159,183.35242 -186.38216,224.90172 -203.64265,207.43833 z M -150.84187,208.68343 C -146.09817,203.87449 -150.71102,216.23008 -150.84187,208.68343 z M -238.76292,183.6001 C -235.41548,183.38381 -243.01361,189.00688 -238.76292,183.6001 z M -230.84187,169.80587 C -231.96877,164.04489 -225.49626,170.74138 -230.84187,169.80587 z M -118.84187,167.18343 C -115.69874,162.71931 -117.91732,173.07351 -118.84187,167.18343 z M -239.3402,160.1861 C -240.75559,151.12909 -231.12512,165.42555 -239.3402,160.1861 z"
         id="path3166"
         style="fill:#4c6c61" />
      <path
         d="M -291.76292,244.00671 C -264.58234,211.18636 -152.63071,258.53974 -182.10785,193.18741 C -206.99628,192.58922 -173.93792,162.65352 -210.01071,171.86906 C -224.02749,191.57687 -250.79168,210.45733 -230.85213,173.69299 C -222.42219,160.14458 -220.53318,96.027918 -210.33136,140.98763 C -200.98903,180.08674 -154.0936,99.113139 -158.03853,133.50258 C -138.11173,102.97577 -84.694719,169.81055 -130.33466,144.49544 C -185.84369,159.38309 -101.9486,187.82962 -104.13882,188.14533 C -122.72639,188.94454 -173.18801,180.67098 -157.65298,222.68266 C -116.6424,243.96688 -65.140384,216.07087 -20.20511,229.87116 C -27.558235,258.53793 -105.85405,236.51469 -141.69105,242.31176 C -191.60067,245.32159 -242.34221,239.21852 -291.76292,244.00671 L -291.76292,244.00671 z M -244.1127,243.57922 C -246.36375,240.17359 -245.5464,247.37125 -244.1127,243.57922 z M -38.16615,239.52578 C -46.652144,231.1534 -42.849725,249.48763 -38.16615,239.52578 z M -145.63554,241.53601 C -151.63305,232.57317 -150.76032,251.65065 -145.63554,241.53601 z M -68.77613,242.14821 C -58.061259,234.98161 -76.365014,242.05171 -68.77613,242.14821 z M -241.84187,241.2928 C -247.06516,233.38092 -248.81015,250.25971 -241.84187,241.2928 z M -197.34187,241.18339 C -201.83167,238.21865 -196.32291,248.53063 -197.34187,241.18339 z M -107.84187,240.29997 C -110.10399,231.43062 -114.14185,245.46668 -107.84187,240.29997 z M -282.02937,237.24589 C -287.99446,234.44956 -279.60467,245.70309 -282.02937,237.24589 z M -236.21616,235.6504 C -243.68135,219.65181 -238.72695,245.71644 -236.21616,235.6504 z M -99.84187,238.74241 C -99.103447,233.82418 -103.50826,241.34489 -99.84187,238.74241 z M -249.27277,237.07159 C -249.37951,227.52253 -255.63269,244.17222 -249.27277,237.07159 z M -137.34187,237.18339 C -141.83167,234.21865 -136.32291,244.53063 -137.34187,237.18339 z M -124.34187,237.18339 C -125.53269,232.50787 -126.45057,241.64763 -124.34187,237.18339 z M -155.84187,236.18339 C -156.39437,224.00937 -161.93808,238.64676 -155.84187,236.18339 z M -74.84187,235.68339 C -75.055053,228.23557 -79.131681,240.42984 -74.84187,235.68339 z M -13.84187,235.79038 C -12.294235,225.7876 -20.653492,239.87198 -13.84187,235.79038 z M -88.76687,234.90839 C -92.995715,232.1255 -87.480387,241.10894 -88.76687,234.90839 z M -229.57744,234.58562 C -223.25295,229.07717 -236.56883,233.71957 -229.57744,234.58562 z M -42.90854,233.52605 C -47.830928,225.8588 -47.096193,243.00703 -42.90854,233.52605 z M -37.84187,234.15201 C -38.188355,225.42937 -43.772812,239.49752 -37.84187,234.15201 z M -22.84187,232.62302 C -29.287538,224.40515 -28.559123,242.98702 -22.84187,232.62302 z M -175.1127,190.57922 C -177.36374,187.17357 -176.54641,194.37125 -175.1127,190.57922 z M -150.84187,182.68339 C -151.57245,175.90503 -153.54605,187.83885 -150.84187,182.68339 z M -189.33981,172.54423 C -152.3798,161.04935 -207.08162,152.04851 -189.33981,172.54423 z M -166.04187,169.98339 C -151.34286,148.33417 -179.14721,178.71662 -166.04187,169.98339 z M -167.1777,151.61617 C -167.42099,141.62235 -173.383,158.85371 -167.1777,151.61617 z M -179.84187,148.68339 C -179.53394,141.21426 -184.3342,153.12241 -179.84187,148.68339 z M -221.07121,146.37142 C -225.53445,138.42963 -224.68277,155.32119 -221.07121,146.37142 z M -168.84187,141.24241 C -174.51096,129.55799 -171.82389,152.68273 -168.84187,141.24241 z M -140.53905,128.69709 C -143.62232,120.18628 -144.48618,136.8573 -140.53905,128.69709 z M -282.34187,244.18339 C -282.5367,238.00083 -279.51365,247.13881 -282.34187,244.18339 z M -266.02937,244.50028 C -265.08549,237.08129 -261.34802,247.41988 -266.02937,244.50028 z M -256.84187,244.21477 C -252.47864,240.27923 -256.38496,250.61422 -256.84187,244.21477 z M -159.34187,244.18337 C -159.5367,238.00081 -156.51365,247.13879 -159.34187,244.18337 z M -137.28457,243.76513 C -131.7884,232.22559 -135.03441,248.30432 -137.28457,243.76513 z M -133.84187,244.12435 C -129.99342,241.37187 -134.67557,249.46406 -133.84187,244.12435 z M -99.84187,244.12435 C -95.993424,241.37188 -100.67558,249.46406 -99.84187,244.12435 z M -96.75854,244.82405 C -92.526535,237.70375 -91.808493,252.10632 -96.75854,244.82405 z M -24.84187,244.79035 C -25.164698,239.3994 -20.803373,247.73882 -24.84187,244.79035 z M -18.23886,244.35003 C -16.827579,240.05037 -16.476333,248.77725 -18.23886,244.35003 z M -202.13162,207.18339 C -201.70234,199.79904 -199.96355,212.9548 -202.13162,207.18339 z M -145.84187,202.68339 C -143.11652,194.65325 -142.70396,210.35656 -145.84187,202.68339 z M -103.38299,199.11686 C -106.21153,193.96647 -99.929711,201.58376 -103.38299,199.11686 z M -92.67308,195.02235 C -92.454779,182.67913 -87.356494,201.82104 -92.67308,195.02235 z M -190.84187,180.68339 C -185.94524,174.86347 -188.2355,188.61067 -190.84187,180.68339 z M -129.64899,162.45098 C -124.50968,152.1191 -118.1152,170.13853 -129.64899,162.45098 z M -100.88771,156.09775 C -99.179576,148.31072 -96.337577,172.15208 -100.88771,156.09775 z M -195.84187,139.18339 C -200.75256,135.01174 -175.67656,147.11752 -195.84187,139.18339 z M -189.84187,132.18339 C -186.35232,126.76651 -188.13139,138.68113 -189.84187,132.18339 z M -202.34187,129.18339 C -230.78308,91.590966 -118.12235,84.909069 -182.77076,105.3044 C -190.24436,112.48588 -194.34474,122.48226 -202.34187,129.18339 z M -189.84187,111.18339 C -192.90354,104.77819 -192.48398,118.01903 -189.84187,111.18339 z M -182.6252,100.00006 C -188.9253,98.275758 -178.3493,105.31395 -182.6252,100.00006 z M -187.71999,125.27988 C -191.48696,117.70686 -181.32387,129.50527 -187.71999,125.27988 z M -178.76292,114.60006 C -175.41546,114.38378 -183.01362,120.00679 -178.76292,114.60006 z M -131.84332,111.89674 C -154.95227,121.2774 -126.42744,93.308555 -131.84332,111.89674 z M -173.11548,110.73448 C -169.23279,95.835206 -157.63302,118.76744 -173.11548,110.73448 z M -203.84187,103.30143 C -207.12755,97.921815 -198.68542,104.26241 -203.84187,103.30143 z M -216.34187,100.18339 C -216.53668,94.000848 -213.51367,103.13881 -216.34187,100.18339 z"
         id="path3164"
         style="fill:#51741e" />
      <path
         d="M -244.02937,244.50028 C -243.08549,237.08123 -239.34797,247.41987 -244.02937,244.50028 z M -169.52855,225.50318 C -164.71144,198.58968 -193.20144,188.43875 -187.28774,177.02683 C -233.36168,166.27741 -173.4757,141.85677 -165.6334,122.61542 C -169.84232,148.59595 -86.679731,117.83702 -115.78848,153.6731 C -138.98604,130.39126 -168.79294,159.81817 -135.79531,173.35376 C -135.05819,168.50477 -75.693149,181.58179 -117.56683,194.17821 C -143.03958,169.61932 -165.54567,200.93054 -169.52855,225.50318 L -169.52855,225.50318 z M -150.84187,182.68339 C -151.57245,175.90503 -153.54605,187.83885 -150.84187,182.68339 z M -188.04454,172.32981 C -138.99159,153.08325 -222.32542,156.50321 -188.04454,172.32981 z M -166.42366,170.5764 C -154.12159,153.84625 -180.82763,175.66565 -166.42366,170.5764 z M -167.1777,151.61617 C -167.42099,141.62235 -173.383,158.85371 -167.1777,151.61617 z M -179.84187,148.49344 C -185.79791,144.08788 -179.16761,156.77889 -179.84187,148.49344 z M -168.84187,141.24241 C -174.51096,129.55799 -171.82389,152.68273 -168.84187,141.24241 z M -140.53905,128.69709 C -143.62232,120.18628 -144.48618,136.8573 -140.53905,128.69709 z M -202.13162,207.18339 C -201.70234,199.79904 -199.96355,212.9548 -202.13162,207.18339 z M -241.28802,204.27052 C -259.54761,196.68329 -232.63575,199.54319 -241.28802,204.27052 z M -145.84187,202.68339 C -143.11652,194.65325 -142.70396,210.35656 -145.84187,202.68339 z M -103.38299,199.11686 C -106.21153,193.96647 -99.929711,201.58376 -103.38299,199.11686 z M -232.63563,196.13604 C -215.95804,162.28966 -207.39281,190.60296 -232.63563,196.13604 z M -92.67308,195.02235 C -92.454779,182.67913 -87.356494,201.82104 -92.67308,195.02235 z M -190.84187,180.68339 C -185.94524,174.86347 -188.2355,188.61067 -190.84187,180.68339 z M -129.64899,162.45098 C -124.50968,152.1191 -118.1152,170.13853 -129.64899,162.45098 z M -218.84187,157.14879 C -236.95611,129.59947 -186.71265,153.0179 -218.84187,157.14879 z M -100.88771,156.09775 C -99.179576,148.31072 -96.337577,172.15208 -100.88771,156.09775 z M -231.59687,150.93339 C -231.0443,142.47694 -225.54852,155.73005 -231.59687,150.93339 z M -237.34187,144.18339 C -233.18657,138.70168 -235.66257,151.89254 -237.34187,144.18339 z M -195.84187,139.18339 C -200.75256,135.01174 -175.67656,147.11752 -195.84187,139.18339 z M -218.14033,137.5516 C -227.66735,110.22775 -193.55347,123.1987 -218.14033,137.5516 z M -189.84187,132.18339 C -191.18807,124.69243 -185.81159,134.91399 -189.84187,132.18339 z M -202.34187,129.18339 C -212.12814,99.990156 -170.6623,121.51794 -202.34187,129.18339 z M -187.71999,125.27988 C -191.48696,117.70686 -181.32387,129.50527 -187.71999,125.27988 z M -178.76292,114.60006 C -175.41546,114.38378 -183.01362,120.00679 -178.76292,114.60006 z M -189.49721,111.94391 C -200.12169,84.267254 -146.8198,93.094319 -189.49721,111.94391 z M -182.6252,100.00006 C -188.9253,98.275758 -178.3493,105.31395 -182.6252,100.00006 z M -131.84332,111.89673 C -155.17989,122.36101 -129.8581,94.780305 -131.84332,111.89673 z M -173.11548,110.73448 C -169.23279,95.835206 -157.63302,118.76744 -173.11548,110.73448 z M -152.69863,108.29214 C -181.3431,97.107897 -131.82633,88.206182 -152.69863,108.29214 z M -203.84187,103.30143 C -207.12755,97.921815 -198.68542,104.26241 -203.84187,103.30143 z M -216.34187,100.18339 C -216.53668,94.000848 -213.51367,103.13881 -216.34187,100.18339 z"
         id="path3162"
         style="fill:#355129" />
    </g>
    <rect
       width="94.459671"
       height="74.940987"
       ry="2.6599097"
       x="8.7803802"
       y="25.613678"
       id="rect3391-2"
       style="fill:none;stroke:#282828;stroke-width:3.13044763;stroke-miterlimit:4;stroke-dasharray:none;stroke-dashoffset:0;stroke-opacity:1" />
  </g>
</svg>
