<?xml version="1.0" encoding="UTF-8" standalone="no"?>
<!-- Created with Inkscape (http://www.inkscape.org/) -->

<svg
   xmlns:dc="http://purl.org/dc/elements/1.1/"
   xmlns:cc="http://creativecommons.org/ns#"
   xmlns:rdf="http://www.w3.org/1999/02/22-rdf-syntax-ns#"
   xmlns:svg="http://www.w3.org/2000/svg"
   xmlns="http://www.w3.org/2000/svg"
   xmlns:inkscape="http://www.inkscape.org/namespaces/inkscape"
   version="1.0"
   width="100"
   height="100"
   id="svg2">
  <metadata
     id="metadata2566">
    <rdf:RDF>
      <cc:Work
         rdf:about="">
        <dc:format>image/svg+xml</dc:format>
        <dc:type
           rdf:resource="http://purl.org/dc/dcmitype/StillImage" />
      </cc:Work>
    </rdf:RDF>
  </metadata>
  <defs
     id="defs4">
    <filter
       x="-0.18847901"
       y="-0.17812899"
       width="1.376958"
       height="1.356258"
       color-interpolation-filters="sRGB"
       id="filter4471">
      <feGaussianBlur
         id="feGaussianBlur4473"
         stdDeviation="0.61632632" />
    </filter>
  </defs>
  <path
     d="m 25.95075,27.16475 -0.084,0.348 0.72,0.048 c 0.276,0.024 0.36,0.168 0.264,0.576 l -1.44,6.336 c -0.096,0.408 -0.204,0.552 -0.492,0.576 l -0.672,0.072 -0.072,0.348 6.264,0 0.612,-2.112 -0.36,0 c -0.611999,1.475999 -1.152001,1.692 -2.628,1.692 -0.587999,0 -1.188,-0.036 -1.344,-0.156 -0.18,-0.144 -0.192,-0.324001 -0.06,-0.888 l 0.612,-2.628 1.572,0 c 1.055999,0 1.092,0.252001 1.044,1.032 l 0.36,0 0.552,-2.508 -0.36,0 c -0.312,0.827999 -0.444001,1.02 -1.5,1.02 l -1.572,0 0.684,-2.988 c 0.06,-0.288 0.132,-0.348 0.336,-0.348 l 1.452,0 c 1.511998,0 1.476,0.504001 1.368,1.584 l 0.36,0 0.456,-2.004 -6.072,0"
     inkscape:connector-curvature="0"
     transform="matrix(6.4405034,0,0,6.4405034,-135.3337,-157.01622)"
     id="flowRoot3405" />
  <path
     d="m 25.95075,27.16475 -0.084,0.348 0.72,0.048 c 0.276,0.024 0.36,0.168 0.264,0.576 l -1.44,6.336 c -0.096,0.408 -0.204,0.552 -0.492,0.576 l -0.672,0.072 -0.072,0.348 6.264,0 0.612,-2.112 -0.36,0 c -0.611999,1.475999 -1.152001,1.692 -2.628,1.692 -0.587999,0 -1.188,-0.036 -1.344,-0.156 -0.18,-0.144 -0.192,-0.324001 -0.06,-0.888 l 0.612,-2.628 1.572,0 c 1.055999,0 1.092,0.252001 1.044,1.032 l 0.36,0 0.552,-2.508 -0.36,0 c -0.312,0.827999 -0.444001,1.02 -1.5,1.02 l -1.572,0 0.684,-2.988 c 0.06,-0.288 0.132,-0.348 0.336,-0.348 l 1.452,0 c 1.511998,0 1.476,0.504001 1.368,1.584 l 0.36,0 0.456,-2.004 -6.072,0"
     inkscape:connector-curvature="0"
     transform="matrix(6.4405034,0,0,6.4405034,-127.82941,-147.21856)"
     id="flowRoot3417"
     style="fill:#000000;fill-opacity:0.73033711;filter:url(#filter4471)" />
</svg>
