<?xml version="1.0" encoding="UTF-8" standalone="no"?>
<!-- Created with Inkscape (http://www.inkscape.org/) -->

<svg
   xmlns:dc="http://purl.org/dc/elements/1.1/"
   xmlns:cc="http://creativecommons.org/ns#"
   xmlns:rdf="http://www.w3.org/1999/02/22-rdf-syntax-ns#"
   xmlns:svg="http://www.w3.org/2000/svg"
   xmlns="http://www.w3.org/2000/svg"
   xmlns:inkscape="http://www.inkscape.org/namespaces/inkscape"
   version="1.0"
   width="100"
   height="100"
   id="svg2">
  <metadata
     id="metadata2566">
    <rdf:RDF>
      <cc:Work
         rdf:about="">
        <dc:format>image/svg+xml</dc:format>
        <dc:type
           rdf:resource="http://purl.org/dc/dcmitype/StillImage" />
      </cc:Work>
    </rdf:RDF>
  </metadata>
  <defs
     id="defs4">
    <filter
       x="-0.27232876"
       y="-0.25855491"
       width="1.5446575"
       height="1.5171098"
       color-interpolation-filters="sRGB"
       id="filter5661">
      <feGaussianBlur
         id="feGaussianBlur5663"
         stdDeviation="0.8946" />
    </filter>
  </defs>
  <path
     d="m 25.95075,27.16475 -0.072,0.348 0.708,0.072 c 0.276,0.024 0.348,0.192 0.264,0.54 l -1.44,6.384 c -0.084,0.36 -0.204,0.528 -0.492,0.552 l -0.672,0.06 -0.072,0.348 3.492,0 0.072,-0.348 -0.9,-0.06 c -0.288,-0.024 -0.36,-0.192 -0.276,-0.552 l 0.672,-2.964 1.584,0 c 1.055999,0 1.092,0.252001 1.044,1.032 l 0.36,0 0.552,-2.52 -0.36,0 c -0.312,0.839999 -0.444001,1.032 -1.5,1.032 l -1.584,0 0.72,-3.144 c 0.072,-0.3 0.132,-0.36 0.348,-0.36 l 1.476,0 c 1.511998,0 1.476,0.504001 1.368,1.56 l 0.36,0 0.456,-1.98 -6.108,0"
     inkscape:connector-curvature="0"
     transform="matrix(6.4405034,0,0,6.4405034,-138.72104,-153.06433)"
     id="flowRoot3405" />
  <text
     x="-115.73404"
     y="39.02792"
     id="text4511"
     xml:space="preserve"
     style="fill:#000000;fill-opacity:1;stroke:none;font-family:B"><tspan
       x="-115.73404"
       y="39.02792"
       id="tspan4513"
       style="font-family:Cranberry Gin">d</tspan></text>
  <path
     d="m 25.95075,27.16475 -0.072,0.348 0.708,0.072 c 0.276,0.024 0.348,0.192 0.264,0.54 l -1.44,6.384 c -0.084,0.36 -0.204,0.528 -0.492,0.552 l -0.672,0.06 -0.072,0.348 3.492,0 0.072,-0.348 -0.9,-0.06 c -0.288,-0.024 -0.36,-0.192 -0.276,-0.552 l 0.672,-2.964 1.584,0 c 1.055999,0 1.092,0.252001 1.044,1.032 l 0.36,0 0.552,-2.52 -0.36,0 c -0.312,0.839999 -0.444001,1.032 -1.5,1.032 l -1.584,0 0.72,-3.144 c 0.072,-0.3 0.132,-0.36 0.348,-0.36 l 1.476,0 c 1.511998,0 1.476,0.504001 1.368,1.56 l 0.36,0 0.456,-1.98 -6.108,0"
     inkscape:connector-curvature="0"
     transform="matrix(6.4405034,0,0,6.4405034,-123.73608,-144.55002)"
     id="flowRoot4515"
     style="fill:#000000;fill-opacity:0.64044949;filter:url(#filter5661)" />
</svg>
