<?xml version="1.0" encoding="UTF-8" standalone="no"?>
<!-- Created with Inkscape (http://www.inkscape.org/) -->

<svg
   xmlns:dc="http://purl.org/dc/elements/1.1/"
   xmlns:cc="http://creativecommons.org/ns#"
   xmlns:rdf="http://www.w3.org/1999/02/22-rdf-syntax-ns#"
   xmlns:svg="http://www.w3.org/2000/svg"
   xmlns="http://www.w3.org/2000/svg"
   xmlns:xlink="http://www.w3.org/1999/xlink"
   xmlns:inkscape="http://www.inkscape.org/namespaces/inkscape"
   version="1.0"
   width="100"
   height="100"
   id="svg2">
  <metadata
     id="metadata2566">
    <rdf:RDF>
      <cc:Work
         rdf:about="">
        <dc:format>image/svg+xml</dc:format>
        <dc:type
           rdf:resource="http://purl.org/dc/dcmitype/StillImage" />
      </cc:Work>
    </rdf:RDF>
  </metadata>
  <defs
     id="defs4">
    <radialGradient
       cx="58.01162"
       cy="63.345894"
       r="33.113495"
       fx="58.01162"
       fy="63.345894"
       id="radialGradient3562"
       xlink:href="#linearGradient3252"
       gradientUnits="userSpaceOnUse"
       gradientTransform="matrix(0.2134373,0,0,0.2134373,19.805211,5.9610473)" />
    <linearGradient
       x1="25.398125"
       y1="63.345894"
       x2="90.625114"
       y2="63.345894"
       id="linearGradient3565"
       xlink:href="#linearGradient3384"
       gradientUnits="userSpaceOnUse"
       gradientTransform="matrix(0.2688926,0.2688926,-0.2688926,0.2688926,38.227733,-8.4494346)" />
    <linearGradient
       id="linearGradient3259">
      <stop
         id="stop3261"
         style="stop-color:#f39e43;stop-opacity:1"
         offset="0" />
      <stop
         id="stop3263"
         style="stop-color:#c4620a;stop-opacity:1"
         offset="1" />
    </linearGradient>
    <linearGradient
       x1="14.450921"
       y1="48.875256"
       x2="101.29551"
       y2="48.875256"
       id="linearGradient3265"
       xlink:href="#linearGradient3259"
       gradientUnits="userSpaceOnUse"
       gradientTransform="matrix(0.9065027,0,0,0.9065027,1.448973,10.691913)" />
    <linearGradient
       id="linearGradient3384">
      <stop
         id="stop3386"
         style="stop-color:#0000ff;stop-opacity:1"
         offset="0" />
      <stop
         id="stop3388"
         style="stop-color:#000000;stop-opacity:1"
         offset="1" />
    </linearGradient>
    <linearGradient
       id="linearGradient3252">
      <stop
         id="stop3254"
         style="stop-color:#ffffff;stop-opacity:1"
         offset="0" />
      <stop
         id="stop3256"
         style="stop-color:#7f7fff;stop-opacity:0"
         offset="1" />
    </linearGradient>
  </defs>
  <rect
     width="93.276093"
     height="93.536499"
     x="4.9849653"
     y="5.0202103"
     id="rect4726"
     style="fill:none;stroke:#282828;stroke-width:3.20253754;stroke-linecap:round;stroke-linejoin:round;stroke-miterlimit:4;stroke-opacity:1;stroke-dasharray:6.40507497, 3.20253749;stroke-dashoffset:0" />
  <rect
     width="93.46907"
     height="93.729485"
     x="1.8452083"
     y="1.8143114"
     id="rect4688"
     style="fill:none;stroke:#000000;stroke-width:3.20915413;stroke-linecap:round;stroke-linejoin:round;stroke-miterlimit:4;stroke-opacity:1;stroke-dasharray:6.41830834, 3.20915417;stroke-dashoffset:0" />
  <path
     d="m 30.470393,28.506305 c 7.74e-4,4.427024 -3.587822,8.016249 -8.014849,8.016249 -4.427027,0 -8.015623,-3.589225 -8.014848,-8.016249 -7.75e-4,-4.427023 3.587821,-8.016248 8.014848,-8.016248 4.427027,0 8.015623,3.589225 8.014849,8.016248 l 0,0 z"
     inkscape:connector-curvature="0"
     id="path3778"
     style="fill:#e6e6e3;fill-opacity:1;fill-rule:evenodd;stroke:none" />
  <use
     transform="translate(44.43702,-0.6554133)"
     id="use2489"
     x="0"
     y="0"
     width="100"
     height="100"
     xlink:href="#path3778" />
  <g
     transform="matrix(0.6462553,0,0,0.6462553,-7.4335008,5.3299624)"
     id="g3519">
    <path
       d="m 49.066773,24.22879 c 0.0012,6.850275 -5.551709,12.404157 -12.401985,12.404157 -6.850275,0 -12.403184,-5.553882 -12.401985,-12.404157 -0.0012,-6.850276 5.55171,-12.404157 12.401985,-12.404157 6.850276,0 12.403184,5.553881 12.401985,12.404157 l 0,0 z"
       inkscape:connector-curvature="0"
       id="path3474"
       style="fill:#0000ff;fill-opacity:1;fill-rule:evenodd;stroke:#000000;stroke-width:0.38027155px;stroke-linecap:butt;stroke-linejoin:miter;stroke-opacity:1" />
    <path
       d="m 45.562914,32.95223 c -4.843029,4.844723 -12.696715,4.845411 -17.54059,0.0015 -4.843878,-4.843877 -4.843189,-12.697563 0.0015,-17.54059 4.843028,-4.844725 12.696714,-4.845413 17.540591,-0.0015 4.843875,4.843876 4.843187,12.697563 -0.0015,17.540591 l 0,0 z"
       inkscape:connector-curvature="0"
       id="path3476"
       style="opacity:0.71739131;fill:url(#linearGradient3565);fill-opacity:1;fill-rule:evenodd;stroke:none" />
    <path
       d="m 39.147988,19.481422 c 6.73e-4,3.844893 -3.11604,6.962154 -6.960935,6.962154 -3.844894,0 -6.961608,-3.117261 -6.960935,-6.962154 -6.73e-4,-3.844895 3.116041,-6.962154 6.960935,-6.962154 3.844895,0 6.961608,3.117259 6.960935,6.962154 l 0,0 z"
       inkscape:connector-curvature="0"
       id="path3478"
       style="fill:url(#radialGradient3562);fill-opacity:1;fill-rule:evenodd;stroke:none" />
  </g>
  <use
     transform="translate(45.48568,-0.1310831)"
     id="use2485"
     x="0"
     y="0"
     width="100"
     height="100"
     xlink:href="#g3519" />
  <path
     d="m 91.522316,92.795448 -62.958797,0 0,-44.290486 62.958797,0"
     inkscape:connector-curvature="0"
     id="path3292"
     style="fill:#dadeda;fill-opacity:1;fill-rule:evenodd;stroke:none" />
  <path
     d="m 91.813647,78.996493 -75.804904,0 0,-47.998066 75.804904,0"
     inkscape:connector-curvature="0"
     id="rect3210"
     style="fill:url(#linearGradient3265);fill-opacity:1;fill-rule:evenodd;stroke:#000000;stroke-width:2.91994524;stroke-linecap:round;stroke-linejoin:round;stroke-miterlimit:4;stroke-opacity:1;stroke-dashoffset:0" />
  <path
     d="m 15.723145,30.62014 c 0,15.942583 0,15.942583 0,15.942583"
     inkscape:connector-curvature="0"
     id="path3213"
     style="fill:none;stroke:#000000;stroke-width:1.35975397;stroke-linecap:butt;stroke-linejoin:miter;stroke-miterlimit:4;stroke-opacity:1;stroke-dasharray:none" />
  <path
     d="m 38.822898,30.547536 c 0,12.679642 0,12.679642 0,12.679642"
     inkscape:connector-curvature="0"
     id="path3215"
     style="fill:none;stroke:#000000;stroke-width:1.21454561;stroke-linecap:butt;stroke-linejoin:miter;stroke-miterlimit:4;stroke-opacity:1;stroke-dasharray:none" />
  <path
     d="m 62.067857,30.547536 c 0,12.679642 0,12.679642 0,12.679642"
     inkscape:connector-curvature="0"
     id="path3217"
     style="fill:none;stroke:#000000;stroke-width:1.21454561;stroke-linecap:butt;stroke-linejoin:miter;stroke-miterlimit:4;stroke-opacity:1;stroke-dasharray:none" />
  <path
     d="m 85.312827,30.547536 c 0,12.679642 0,12.679642 0,12.679642"
     inkscape:connector-curvature="0"
     id="path3219"
     style="fill:none;stroke:#000000;stroke-width:1.21454561;stroke-linecap:butt;stroke-linejoin:miter;stroke-miterlimit:4;stroke-opacity:1;stroke-dasharray:none" />
  <path
     d="m 27.148278,30.459095 c 0,9.220276 0,9.220276 0,9.220276"
     inkscape:connector-curvature="0"
     id="path3221"
     style="fill:none;stroke:#000000;stroke-width:1.03766441;stroke-linecap:butt;stroke-linejoin:miter;stroke-miterlimit:4;stroke-opacity:1;stroke-dasharray:none" />
  <path
     d="m 50.481679,30.459095 c 0,9.220276 0,9.220276 0,9.220276"
     inkscape:connector-curvature="0"
     id="path3223"
     style="fill:none;stroke:#000000;stroke-width:1.03766441;stroke-linecap:butt;stroke-linejoin:miter;stroke-miterlimit:4;stroke-opacity:1;stroke-dasharray:none" />
  <path
     d="m 73.815079,30.459095 c 0,9.220276 0,9.220276 0,9.220276"
     inkscape:connector-curvature="0"
     id="path3225"
     style="fill:none;stroke:#000000;stroke-width:1.03766441;stroke-linecap:butt;stroke-linejoin:miter;stroke-miterlimit:4;stroke-opacity:1;stroke-dasharray:none" />
  <path
     d="m 56.828161,69.54227 c 0,9.659249 0,9.659249 0,9.659249"
     inkscape:connector-curvature="0"
     id="path3231"
     style="fill:none;stroke:#000000;stroke-width:1.40130925;stroke-linecap:butt;stroke-linejoin:miter;stroke-miterlimit:4;stroke-opacity:1;stroke-dasharray:none" />
  <path
     d="m 36.51849,69.54227 c 0,9.659249 0,9.659249 0,9.659249"
     inkscape:connector-curvature="0"
     id="path3237"
     style="fill:none;stroke:#000000;stroke-width:1.40130925;stroke-linecap:butt;stroke-linejoin:miter;stroke-miterlimit:4;stroke-opacity:1;stroke-dasharray:none" />
  <path
     d="m 76.747516,66.299778 c 0,12.878743 0,12.878743 0,12.878743"
     inkscape:connector-curvature="0"
     id="path3239"
     style="fill:none;stroke:#000000;stroke-width:1.61028385;stroke-linecap:butt;stroke-linejoin:miter;stroke-miterlimit:4;stroke-opacity:1;stroke-dasharray:none" />
  <path
     d="m 21.390612,56.80661 c -1.29403,0.347015 -2.685197,0.981555 -0.422286,1.460604 1.999734,1.374665 -2.018909,3.03803 -1.338735,1.786159 2.126176,0.269756 0.712743,-1.945559 -0.436171,-2.025009 -0.470235,-1.189063 1.405591,-1.889256 2.197192,-1.221754 z m 1.363198,3.197149 c -0.154153,3.824961 -1.737745,-3.942492 1.358033,-2.236445 1.500739,0.623486 0.02243,4.041301 -1.358033,2.236445 z m 1.484108,-0.979692 c -0.744638,-2.905689 -2.470317,2.710124 -0.04428,0.523817 l 0.04428,-0.523817 0,0 z m 1.175907,-2.498087 c 1.397248,1.157174 -0.271175,5.551104 -0.02129,1.788751 0.0094,-0.596196 0.0378,-1.192381 0.02129,-1.788751 z m 2.553328,2.488065 c -2.814174,0.932541 2.208828,1.47927 0,0 z m 0.870075,-0.190426 c 1.248115,2.52216 -3.820887,1.471269 -1.521247,-0.20701 2.599072,1.91e-4 -2.018772,-1.047719 0.456991,-1.07964 0.596529,0.07823 1.253557,0.620813 1.064256,1.28665 z m 1.332377,-2.001977 c 0.0672,1.064944 1.341959,0.95613 -0.16571,1.795205 0.0478,0.747667 1.530637,2.617795 -0.02113,1.354146 -0.23063,-0.856746 -0.959304,-2.680989 0.186844,-3.149351 z m 1.906107,0 c 0.06719,1.064944 1.341958,0.95613 -0.16571,1.795205 0.0478,0.747668 1.530636,2.617797 -0.02113,1.354146 -0.230632,-0.856748 -0.959299,-2.680984 0.186845,-3.149351 z m 3.745831,2.084662 c -1.793522,-0.04386 -2.465432,1.116368 -0.366475,1.269493 -3.283115,1.916661 -1.996444,-4.645759 0.236685,-1.967321 l 0.09219,0.314563 0.0376,0.383265 0,0 z m -0.436224,-0.135303 c -0.159929,-1.863121 -2.835032,0.624933 0,0 z m 2.690834,-0.721611 c -1.657314,-0.58895 -1.067889,4.050177 -1.668228,0.696922 -0.326793,-0.945808 1.625861,-1.646676 1.668228,-0.696922 z m 0.884302,1.954369 c -0.154155,3.824961 -1.737748,-3.942494 1.358032,-2.236446 1.500739,0.623486 0.02243,4.0413 -1.358032,2.236446 z m 1.484108,-0.979692 c -0.744639,-2.905689 -2.470321,2.710125 -0.04428,0.523817 l 0.04428,-0.523817 0,0 z m 2.714539,-0.974677 c -1.657314,-0.588948 -1.067889,4.050176 -1.668228,0.696922 -0.326792,-0.945807 1.625861,-1.646677 1.668228,-0.696922 z m 1.384534,-0.107743 c -2.316849,0.632124 1.331692,3.592472 0.724942,0.671085 -0.0845,-0.330241 -0.347695,-0.67386 -0.724942,-0.671085 z m 0,-0.390872 c 3.409925,0.716595 -1.264814,5.28269 -1.230346,1.213375 0.06983,-0.620547 0.548521,-1.253718 1.230346,-1.213375 z m 2.968217,0.390872 c -2.31685,0.63212 1.331687,3.592475 0.724941,0.671086 -0.0845,-0.330241 -0.347693,-0.67386 -0.724941,-0.671086 z m 0,-0.390872 c 3.409922,0.7166 -1.264818,5.282687 -1.230349,1.213375 0.06983,-0.620547 0.548524,-1.253718 1.230349,-1.213375 z M 50.79538,56.52598 c -1.615034,0.820546 0.381799,1.220625 -0.847496,1.696473 0.197375,1.151376 -0.331815,3.065215 -0.438646,0.756582 C 49.265461,57.903108 49.2276,56.319466 50.79538,56.52598 z"
     inkscape:connector-curvature="0"
     id="text3267"
     style="font-size:12px;font-style:normal;font-weight:normal;fill:#000000;fill-opacity:1;stroke:none;font-family:Bitstream Vera Sans" />
  <path
     d="m 36.879598,51.938633 1.752808,0 0,-6.049842 -1.906843,0.38243 0,-0.977323 1.896219,-0.382431 1.072931,0 0,7.027166 1.752808,0 0,0.902962 -4.567923,0 0,-0.902962"
     inkscape:connector-curvature="0"
     id="text3272"
     style="font-size:12px;font-style:normal;font-weight:normal;fill:#000000;fill-opacity:1;stroke:none;font-family:Bitstream Vera Sans" />
  <path
     d="m 86.347609,48.303643 c 0.513443,0.109776 0.913582,0.338172 1.200409,0.685188 0.290361,0.347024 0.435538,0.775488 0.435547,1.285393 -9e-6,0.782568 -0.269123,1.388083 -0.807359,1.816546 -0.538236,0.428464 -1.303097,0.642696 -2.294584,0.642696 -0.332859,0 -0.676333,-0.03364 -1.03044,-0.100919 -0.350563,-0.06374 -0.713517,-0.161117 -1.088864,-0.292134 l 0,-1.03575 c 0.297451,0.173511 0.623221,0.304528 0.977328,0.393053 0.354098,0.08853 0.724132,0.132789 1.110112,0.132789 0.672788,0 1.184464,-0.132788 1.535035,-0.398365 0.354098,-0.265577 0.531147,-0.651547 0.531147,-1.157916 0,-0.467413 -0.164657,-0.832139 -0.493971,-1.094177 -0.325779,-0.265574 -0.780798,-0.398362 -1.365066,-0.398366 l -0.924207,0 0,-0.881715 0.966704,0 c 0.527612,4e-6 0.931286,-0.104456 1.211033,-0.313381 0.279729,-0.212456 0.419602,-0.516984 0.419611,-0.913584 -9e-6,-0.407212 -0.145195,-0.718823 -0.435547,-0.934831 -0.286827,-0.219537 -0.699358,-0.329309 -1.237594,-0.329316 -0.293906,7e-6 -0.609052,0.03188 -0.945455,0.09561 -0.336394,0.06375 -0.706429,0.162894 -1.110112,0.297446 l 0,-0.956077 c 0.407219,-0.113305 0.787877,-0.19829 1.141984,-0.254954 0.357643,-0.05665 0.694037,-0.08498 1.009192,-0.08498 0.814429,7e-6 1.458898,0.185911 1.933398,0.557711 0.474499,0.368274 0.71174,0.867557 0.711749,1.497854 -9e-6,0.439093 -0.125713,0.8109 -0.377123,1.115423 -0.251409,0.300992 -0.609061,0.509912 -1.072927,0.626762"
     inkscape:connector-curvature="0"
     id="text3276"
     style="font-size:12px;font-style:normal;font-weight:normal;fill:#000000;fill-opacity:1;stroke:none;font-family:Bitstream Vera Sans" />
  <path
     d="m 60.950607,51.938633 3.744635,0 0,0.902962 -5.035338,0 0,-0.902962 c 0.407216,-0.42138 0.961386,-0.986173 1.662511,-1.69438 0.704661,-0.711743 1.147289,-1.170306 1.327885,-1.375688 0.343475,-0.385968 0.582494,-0.711742 0.717057,-0.977324 0.138096,-0.269113 0.207146,-0.532919 0.207151,-0.791419 -5e-6,-0.421376 -0.148729,-0.764855 -0.44617,-1.030439 -0.293909,-0.26557 -0.67811,-0.398358 -1.152604,-0.398365 -0.3364,7e-6 -0.692272,0.05843 -1.067619,0.17528 -0.371809,0.116861 -0.770175,0.293912 -1.195097,0.531155 l 0,-1.083555 c 0.432004,-0.173502 0.835681,-0.30452 1.211032,-0.393053 0.375346,-0.08852 0.718825,-0.132781 1.030438,-0.132789 0.821514,8e-6 1.476604,0.205387 1.965269,0.616139 0.488657,0.410765 0.732987,0.959625 0.732993,1.646577 -6e-6,0.32578 -0.06197,0.635619 -0.185904,0.929519 -0.120401,0.290369 -0.341714,0.633848 -0.663942,1.030438 -0.08853,0.102694 -0.370042,0.40014 -0.844535,0.892339 -0.474501,0.488665 -1.143755,1.173852 -2.007762,2.055565"
     inkscape:connector-curvature="0"
     id="text3280"
     style="font-size:12px;font-style:normal;font-weight:normal;fill:#000000;fill-opacity:1;stroke:none;font-family:Bitstream Vera Sans" />
  <path
     d="m 75.155727,64.260402 1.752808,0 0,-6.049843 -1.906842,0.38243 0,-0.977323 1.896219,-0.382431 1.072931,0 0,7.027167 1.752807,0 0,0.902961 -4.567923,0 0,-0.902961"
     inkscape:connector-curvature="0"
     id="text3284"
     style="font-size:12px;font-style:normal;font-weight:normal;fill:#000000;fill-opacity:1;stroke:none;font-family:Bitstream Vera Sans" />
  <path
     d="m 25.568181,20.595264 c 27.003027,0 26.740862,0 26.740862,0"
     inkscape:connector-curvature="0"
     id="path3774"
     style="fill:none;stroke:#000000;stroke-width:2.71950793;stroke-linecap:round;stroke-linejoin:miter;stroke-miterlimit:4;stroke-opacity:1;stroke-dasharray:5.43901601, 2.71950801;stroke-dashoffset:0" />
</svg>
