<?xml version="1.0" encoding="UTF-8" standalone="no"?>
<!-- Created with Inkscape (http://www.inkscape.org/) -->

<svg
   xmlns:dc="http://purl.org/dc/elements/1.1/"
   xmlns:cc="http://creativecommons.org/ns#"
   xmlns:rdf="http://www.w3.org/1999/02/22-rdf-syntax-ns#"
   xmlns:svg="http://www.w3.org/2000/svg"
   xmlns="http://www.w3.org/2000/svg"
   xmlns:inkscape="http://www.inkscape.org/namespaces/inkscape"
   version="1.0"
   width="100"
   height="100"
   id="svg2">
  <metadata
     id="metadata2566">
    <rdf:RDF>
      <cc:Work
         rdf:about="">
        <dc:format>image/svg+xml</dc:format>
        <dc:type
           rdf:resource="http://purl.org/dc/dcmitype/StillImage" />
      </cc:Work>
    </rdf:RDF>
  </metadata>
  <defs
     id="defs4" />
  <path
     d="m 11.848961,11.885309 c 6.491775,2.824079 -6.3702016,8.515181 -4.9712976,3.34225 1.556626,-2.966122 -2.803095,-9.9991024 3.1689906,-8.0647468 2.52505,0.380285 5.090122,2.9303268 1.802307,4.7224968 z M 8.3772404,11.641313 c 3.8815526,2.269828 3.8570236,-6.1882534 0,-3.6878348 0,1.229278 0,2.4585578 0,3.6878348 z m 0,4.426796 c 4.2402106,2.89486 4.2917676,-6.4703168 0,-3.883032 0,1.294344 0,2.588689 0,3.883032 z M 18.457783,10.037906 c 7.225436,0.340438 -0.994791,11.940189 -3.032831,4.328986 -0.418758,-1.910594 0.770034,-4.5280158 3.032831,-4.328986 z m 0.230054,6.441512 c 5.266461,-1.06133 -2.58725,-8.7401498 -1.993169,-2.754018 0.08891,1.119812 0.617332,2.760052 1.993169,2.754018 z m 10.275744,0.285824 c -4.586212,2.089038 0.09643,-7.8805758 -4.467076,-4.926897 -0.498589,1.545286 1.055213,6.541421 -2.115226,4.522112 1.929994,-2.209281 -1.23684,-7.9327718 4.001592,-6.233963 3.17791,0.290198 0.51407,5.187863 2.58071,6.638748 z m 7.28504,-0.501936 c -5.09996,3.951065 -9.74263,-6.090223 -2.78305,-6.4767128 0.15991,-1.926849 1.236,-3.6279296 1.94787,-0.745694 0.34724,2.2903628 -1.55764,5.6340978 0.83518,7.2224068 z m -2.15414,-0.711075 c 2.20978,-3.050362 -3.45515,-7.4185328 -3.30338,-2.046667 -0.01144,1.630398 1.76115,3.68429 3.30338,2.046667 z m 5.09604,1.41518 c -2.40115,1.181962 -2.69232,-3.110798 -0.34489,-0.694743 3.77202,-1.580403 -5.95246,-5.238035 -0.02784,-5.889711 3.09385,0.130373 1.552,0.850481 -0.38942,0.440609 -0.28099,2.553353 6.5317,4.776176 0.76215,6.143845 z M 11.116972,34.611848 C 8.3216264,35.171167 6.6048584,34.361315 8.6235364,31.94734 c -0.046451,-1.917258 -1.803268,-9.117961 1.171442,-4.993485 0.5025346,2.428809 -2.011414,6.495232 1.3219936,7.657993 z m 18.480999,0 c -2.46741,0.79865 -8.09652,-0.506844 -3.24636,-2.813126 2.63012,-1.720722 1.42558,-7.490568 -2.18911,-5.107145 3.12704,-5.194566 8.34062,2.880312 3.01577,4.828841 -3.852216,3.999834 2.1419,0.535108 2.44504,1.851469 l -0.0226,0.543379 -0.0027,0.696582 0,0 z m 17.21222,0 c -2.79535,0.559316 -4.51213,-0.250527 -2.49345,-2.664507 -0.04645,-1.917259 -1.80326,-9.11796 1.17145,-4.99349 0.50254,2.42881 -2.01141,6.495233 1.322,7.657997 z m 3.14406,-1.324553 c 2.61963,1.237698 -2.53583,1.432503 0,0 z m 5.35398,-8.337711 c 4.42472,0.754489 4.13899,8.246854 0.26049,9.496726 -4.64559,-0.119941 -4.52743,-8.778803 -0.26049,-9.496726 z m 0,9.37644 c 4.54161,-1.228108 0.49383,-12.276475 -1.67447,-5.656976 -0.34895,1.976236 -0.17896,4.447403 1.67447,5.656976 z m 9.98295,0.285824 c -2.46741,0.79865 -8.09652,-0.506845 -3.24636,-2.813125 2.63012,-1.720723 1.42559,-7.490568 -2.18911,-5.107148 3.12704,-5.19456 8.34062,2.880316 3.01577,4.828845 -3.85222,3.999833 2.1419,0.535105 2.44504,1.851468 l -0.0226,0.543378 -0.0027,0.696582 0,0 z m 4.9357,-5.653749 c 5.56784,0.815453 -0.9277,9.270762 -3.66692,4.824161 4.37728,3.11436 4.12758,-4.083175 3.59425,-5.475288 1.38932,-3.740772 -5.65937,-0.818363 -1.76316,-3.029603 2.7384,-1.304661 5.44712,2.430181 1.83583,3.68073 z M 11.751363,52.458454 c -2.4674086,0.79865 -8.0965166,-0.506845 -3.2463556,-2.813126 2.6301186,-1.720723 1.425581,-7.490567 -2.189111,-5.107144 3.127036,-5.194565 8.3406206,2.880311 3.015771,4.828842 -3.852217,3.999832 2.1418916,0.535108 2.4450426,1.851467 l -0.0226,0.543379 -0.0027,0.696582 0,0 z m 18.202148,-2.586363 c -2.58744,-0.326317 0.48453,4.58727 -3.30768,2.759943 -0.3499,-1.059626 1.39932,-4.072555 -1.507241,-2.744181 -4.382416,-2.26049 5.791101,-10.317279 3.281711,-2.882958 0.04107,1.117243 0.51379,2.299797 1.53321,2.867196 z m -2.64214,-0.996901 c 0.767,-2.504563 -0.67828,-5.580226 -2.032248,-1.808675 -2.348282,2.342898 0.483595,1.853588 2.032248,1.808675 z m 20.1332,3.583264 c -2.46741,0.79865 -8.09652,-0.506845 -3.24635,-2.813125 2.63012,-1.720723 1.42558,-7.490568 -2.18911,-5.107148 3.12703,-5.194562 8.34062,2.880315 3.01577,4.828845 -3.85222,3.999833 2.14189,0.535105 2.44504,1.851468 l -0.0226,0.543378 -0.0027,0.696582 0,0 z m 2.50968,-1.324552 c 2.61963,1.237697 -2.53583,1.432503 0,0 z m 5.35398,-8.337712 c 4.42472,0.754489 4.13899,8.246854 0.26049,9.496726 -4.64559,-0.119941 -4.52743,-8.778803 -0.26049,-9.496726 z m 0,9.37644 c 4.54161,-1.228108 0.49383,-12.276475 -1.67447,-5.656976 -0.34895,1.976236 -0.17896,4.447403 1.67447,5.656976 z m 10.33849,-2.300539 c -2.58744,-0.326309 0.48453,4.587267 -3.30767,2.759943 -0.34992,-1.059624 1.39931,-4.072557 -1.50725,-2.744181 -4.38241,-2.260493 5.7911,-10.317274 3.28171,-2.88296 0.04107,1.117243 0.51379,2.299798 1.53321,2.867198 z m -2.64214,-0.996901 c 0.767,-2.504562 -0.67828,-5.580226 -2.03225,-1.808675 -2.34828,2.342896 0.4836,1.853589 2.03225,1.808675 z m 9.78078,0.996901 c -2.58744,-0.326317 0.48453,4.587269 -3.30767,2.759941 -0.34991,-1.059624 1.39931,-4.072553 -1.50725,-2.744179 -4.3824,-2.260494 5.7911,-10.317276 3.28171,-2.882958 0.04107,1.117243 0.51379,2.299798 1.53321,2.867196 z m -2.64214,-0.996901 c 0.76701,-2.504562 -0.67828,-5.580226 -2.03224,-1.808675 -2.34828,2.342896 0.48359,1.853589 2.03224,1.808675 z M 11.702563,66.624198 c 0.884806,-4.352832 -5.2404806,-1.678302 -1.9992936,0.05128 0.6668726,-0.0108 1.3321386,-0.168476 1.9992936,-0.05128 z m -1.094498,-5.981402 c -0.07875,2.903232 6.246551,8.556256 1.981064,9.545692 0.517912,-4.803843 -5.6988716,-3.806691 -5.2580526,0.237825 -2.284859,-2.344923 2.6756526,-6.632975 3.2769886,-9.783517 l 0,0 z m 11.99766,9.662264 c -4.586209,2.089038 0.09643,-7.880573 -4.467074,-4.926895 -0.49859,1.545284 1.055213,6.541419 -2.115226,4.52211 1.929994,-2.209281 -1.23684,-7.93277 4.001596,-6.233961 3.177906,0.290198 0.514072,5.187861 2.580704,6.638746 z m 2.941901,-2.209912 c 1.665655,1.496293 6.757225,3.099381 2.295175,5.140088 -3.815864,1.475261 -4.857097,-2.782495 -3.454544,-5.385303 -3.624194,-4.483932 6.837604,-6.223271 3.924004,-1.148947 -0.53134,0.945108 -1.63269,1.762202 -2.764635,1.394162 z m 0.557706,-0.47405 c 3.971099,-1.479575 -3.473894,-5.146467 -1.15236,-0.730483 0.215017,0.416933 0.662502,0.774745 1.15236,0.730483 z m -1.024785,2.795503 c -3.297465,4.089469 6.923954,0.741442 1.122614,0.04612 -0.374894,0.0081 -0.748431,-0.0301 -1.122614,-0.04612 z m 8.393484,-0.111541 c -4.90684,0.293781 -0.57322,-7.031391 -2.15622,-9.269877 3.20439,-0.313023 -0.41527,7.530013 2.15622,9.269877 z m 6.39968,-1.582492 c -4.46554,6.683402 -8.09029,-8.577938 -1.04579,-4.440414 2.58448,2.946745 -6.72333,2.535835 -1.43314,5.082779 0.82461,0.347949 2.0678,0.322226 2.47893,-0.642365 z m -1.44307,-2.614249 c -0.68736,-5.167285 -4.71599,2.177343 0,0 z m 4.69171,4.39891 c -2.40114,1.181965 -2.69233,-3.110797 -0.34489,-0.694744 3.77202,-1.5804 -5.95246,-5.238038 -0.02784,-5.889708 3.09386,0.130375 1.552,0.850484 -0.38942,0.440609 -0.28099,2.55335 6.5317,4.776169 0.76215,6.143843 z M 11.116972,88.151666 c -2.7953456,0.559319 -4.5121136,-0.250533 -2.4934356,-2.664508 -0.046451,-1.917258 -1.803268,-9.11796 1.171442,-4.993485 0.5025346,2.428809 -2.011414,6.495232 1.3219936,7.657993 z m 18.480999,0 c -2.46741,0.79865 -8.09652,-0.506843 -3.24636,-2.813126 2.63012,-1.720723 1.42558,-7.490568 -2.18911,-5.107145 3.12704,-5.19456 8.34062,2.88031 3.01577,4.82884 -3.852217,3.999837 2.1419,0.535104 2.44504,1.851472 l -0.0226,0.543378 -0.0027,0.696581 0,0 z m 18.20214,-2.586363 c -2.58744,-0.326309 0.48454,4.587268 -3.30767,2.759943 -0.34991,-1.059623 1.39932,-4.072555 -1.50725,-2.744182 -4.38241,-2.260497 5.79111,-10.317273 3.28172,-2.882955 0.04107,1.117241 0.51378,2.299794 1.5332,2.867194 z m -2.64214,-0.996901 c 0.76701,-2.504562 -0.67828,-5.580226 -2.03224,-1.808675 -2.34828,2.342896 0.48359,1.853589 2.03224,1.808675 z m 19.49882,3.583264 c -2.79534,0.559315 -4.51212,-0.250527 -2.49344,-2.664505 -0.04645,-1.91726 -1.80327,-9.117963 1.17145,-4.993491 0.50253,2.42881 -2.01142,6.495233 1.32199,7.657996 z m 4.92873,-9.662264 c 4.42472,0.754486 4.13898,8.246855 0.26049,9.496725 -4.64559,-0.119942 -4.52743,-8.778799 -0.26049,-9.496725 z m 0,9.37644 c 4.54161,-1.228107 0.49383,-12.276474 -1.67448,-5.656979 -0.34895,1.976237 -0.17895,4.447405 1.67448,5.656979 z m 8.78387,-4.099143 c -5.96682,4.907523 -4.98953,-9.758762 0.35861,-4.242315 3.89661,3.228468 -2.26499,10.047062 -3.38647,8.32718 1.69524,-0.602938 3.00301,-2.260546 3.02786,-4.084865 z m -1.91711,0.515879 c 5.43789,-0.258067 -1.82729,-9.06332 -1.49909,-2.250327 0.03261,0.926466 0.40574,2.159977 1.49909,2.250327 z m 5.62586,2.544536 c 2.61964,1.237697 -2.53583,1.432503 0,0 z m 3.32533,-4.329197 c 7.17963,-3.365053 3.03433,9.572477 0.6086,5.552041 4.1448,-0.633245 3.28442,-5.972539 -0.75709,-5.233466 -3.43739,-3.116858 4.85944,-5.99728 3.27372,-3.235424 -1.92197,-0.239317 -3.7626,0.710323 -3.12523,2.916849 z m 7.50812,0.57165 c 5.96633,-4.898055 4.98143,9.761784 -0.361,4.249705 -3.89431,-3.230822 2.26691,-10.042509 3.38762,-8.33232 -1.69551,0.600785 -3.00358,2.258734 -3.02662,4.082615 z m 1.86134,4.810218 c 4.92298,-0.896345 -1.9758,-8.480738 -1.85527,-2.6773 0.09207,1.076301 0.55236,2.60726 1.85527,2.6773 z"
     inkscape:connector-curvature="0"
     id="path2250"
     style="font-size:12px;font-style:normal;font-weight:normal;fill:#b8bab8;fill-opacity:1;stroke:none;font-family:Serif" />
  <path
     d="m 9.9707951,10.446811 c 6.4917749,2.824077 -6.3702017,8.515179 -4.971298,3.342248 1.556626,-2.966121 -2.8030948,-9.9991014 3.168991,-8.0647454 2.5250499,0.380285 5.0901219,2.930327 1.802307,4.7224974 z m -3.471721,-0.243996 c 3.8815529,2.269826 3.8570239,-6.1882544 0,-3.6878354 0,1.229278 0,2.458558 0,3.6878354 z m 0,4.426794 c 4.2402109,2.89486 4.2917679,-6.4703154 0,-3.883031 0,1.294343 0,2.588688 0,3.883031 z M 16.579617,8.5994076 c 7.225436,0.340438 -0.994791,11.9401874 -3.032831,4.3289844 -0.418758,-1.910593 0.770034,-4.5280144 3.032831,-4.3289844 z m 0.230054,6.4415104 c 5.266461,-1.06133 -2.58725,-8.7401484 -1.993169,-2.754018 0.08891,1.119812 0.617332,2.760052 1.993169,2.754018 z m 10.275741,0.285824 c -4.586209,2.089038 0.09643,-7.8805744 -4.467073,-4.926895 -0.498589,1.545284 1.055213,6.541419 -2.115226,4.52211 1.929994,-2.209281 -1.23684,-7.9327704 4.001595,-6.2339614 3.177906,0.290198 0.514072,5.1878614 2.580704,6.6387464 z m 7.285043,-0.501936 C 29.270491,18.775871 24.62783,8.7345846 31.58741,8.3480946 c 0.159908,-1.926849 1.236,-3.62793 1.947868,-0.745694 0.347241,2.290363 -1.55764,5.6340964 0.835177,7.2224054 z m -2.154141,-0.711075 c 2.209782,-3.050361 -3.45515,-7.4185314 -3.303376,-2.046667 -0.01145,1.630398 1.761152,3.68429 3.303376,2.046667 z m 5.096038,1.41518 c -2.401144,1.181962 -2.692317,-3.110798 -0.344884,-0.694743 3.772018,-1.580403 -5.952463,-5.2380334 -0.02784,-5.8897094 3.093847,0.130373 1.551997,0.850481 -0.389418,0.440609 -0.280989,2.5533514 6.531703,4.7761744 0.762146,6.1438434 z M 9.2388061,33.173348 c -2.795346,0.559319 -4.512114,-0.250533 -2.493436,-2.664508 -0.046451,-1.917258 -1.803268,-9.117961 1.171442,-4.993485 0.502535,2.428809 -2.011414,6.495232 1.321994,7.657993 z m 18.4809969,0 c -2.467409,0.79865 -8.096518,-0.506844 -3.246356,-2.813126 2.63012,-1.720722 1.425581,-7.490568 -2.189112,-5.107145 3.127036,-5.194566 8.340624,2.880312 3.015772,4.828841 -3.852218,3.999834 2.141895,0.535108 2.445043,1.851469 l -0.0226,0.543379 -0.0027,0.696582 0,0 z m 17.212218,0 c -2.795345,0.559316 -4.512122,-0.250527 -2.493441,-2.664507 -0.04645,-1.917259 -1.803268,-9.11796 1.171447,-4.99349 0.502537,2.42881 -2.011414,6.495233 1.321994,7.657997 z m 3.144065,-1.324553 c 2.619634,1.237698 -2.535832,1.432503 0,0 z m 5.353982,-8.337711 c 4.424722,0.754489 4.138983,8.246854 0.260489,9.496726 -4.645591,-0.119941 -4.527431,-8.778803 -0.260489,-9.496726 z m 0,9.37644 c 4.541612,-1.228108 0.493828,-12.276475 -1.674476,-5.656976 -0.348946,1.976236 -0.178955,4.447403 1.674476,5.656976 z m 9.982945,0.285824 c -2.467409,0.79865 -8.096517,-0.506845 -3.246355,-2.813125 2.630119,-1.720723 1.425583,-7.490568 -2.18911,-5.107148 3.127039,-5.19456 8.340621,2.880316 3.015772,4.828845 -3.85222,3.999833 2.141896,0.535105 2.44504,1.851468 l -0.0226,0.543378 -0.0027,0.696582 0,0 z m 4.935707,-5.653749 c 5.567834,0.815453 -0.927704,9.270762 -3.666925,4.824161 4.377276,3.11436 4.127584,-4.083175 3.594254,-5.475288 1.389315,-3.740772 -5.659377,-0.818363 -1.763164,-3.029603 2.738396,-1.304661 5.44712,2.430181 1.835835,3.68073 z M 9.8731971,51.019954 c -2.467409,0.79865 -8.0965168,-0.506845 -3.246356,-2.813126 2.630119,-1.720723 1.425581,-7.490567 -2.189111,-5.107144 3.127036,-5.194565 8.3406209,2.880311 3.015771,4.828842 -3.8522173,3.999832 2.141892,0.535108 2.445043,1.851467 l -0.0226,0.543379 -0.00275,0.696582 0,0 z M 28.075341,48.433591 c -2.587438,-0.326317 0.484532,4.58727 -3.307671,2.759943 -0.349907,-1.059626 1.399319,-4.072555 -1.507246,-2.744181 -4.382416,-2.26049 5.791098,-10.317279 3.281708,-2.882958 0.04107,1.117243 0.51379,2.299797 1.533209,2.867196 z M 25.433207,47.43669 c 0.767003,-2.504563 -0.678282,-5.580226 -2.03225,-1.808675 -2.348282,2.342898 0.483595,1.853588 2.03225,1.808675 z m 20.1332,3.583264 c -2.467409,0.79865 -8.096518,-0.506845 -3.246355,-2.813125 2.630119,-1.720723 1.425583,-7.490568 -2.18911,-5.107148 3.127037,-5.194562 8.340622,2.880315 3.015772,4.828845 -3.85222,3.999833 2.141895,0.535105 2.44504,1.851468 l -0.0226,0.543378 -0.0027,0.696582 0,0 z m 2.509679,-1.324552 c 2.619634,1.237697 -2.535832,1.432503 0,0 z m 5.353982,-8.337712 c 4.424722,0.754489 4.138983,8.246854 0.260489,9.496726 -4.645591,-0.119941 -4.527431,-8.778803 -0.260489,-9.496726 z m 0,9.37644 c 4.541612,-1.228108 0.493828,-12.276475 -1.674476,-5.656976 -0.348946,1.976236 -0.178955,4.447403 1.674476,5.656976 z m 10.338483,-2.300539 c -2.587435,-0.326309 0.484536,4.587267 -3.307668,2.759943 -0.349913,-1.059624 1.399316,-4.072557 -1.507248,-2.744181 -4.382409,-2.260493 5.7911,-10.317274 3.281712,-2.88296 0.04107,1.117243 0.513788,2.299798 1.533204,2.867198 z M 61.126417,47.43669 c 0.767003,-2.504562 -0.678281,-5.580226 -2.032248,-1.808675 -2.348279,2.342896 0.483592,1.853589 2.032248,1.808675 z m 9.780776,0.996901 c -2.587437,-0.326317 0.484534,4.587269 -3.307667,2.759941 -0.349909,-1.059624 1.399314,-4.072553 -1.507247,-2.744179 -4.382408,-2.260494 5.791095,-10.317276 3.281706,-2.882958 0.04107,1.117243 0.51379,2.299798 1.533208,2.867196 z M 68.265059,47.43669 c 0.767003,-2.504562 -0.678281,-5.580226 -2.032248,-1.808675 -2.348279,2.342896 0.483592,1.853589 2.032248,1.808675 z M 9.8243971,65.185698 c 0.8848059,-4.352832 -5.240481,-1.678302 -1.999294,0.05128 0.666873,-0.0108 1.332139,-0.168476 1.999294,-0.05128 z m -1.094498,-5.981402 c -0.078748,2.903232 6.2465509,8.556256 1.9810639,9.545692 0.517912,-4.803843 -5.6988719,-3.806691 -5.2580529,0.237825 -2.2848594,-2.344923 2.675653,-6.632975 3.276989,-9.783517 l 0,0 z M 20.727559,68.86656 c -4.586209,2.089038 0.09643,-7.880573 -4.467074,-4.926895 -0.49859,1.545284 1.055213,6.541419 -2.115226,4.52211 1.929994,-2.209281 -1.23684,-7.93277 4.001596,-6.233961 3.177906,0.290198 0.514072,5.187861 2.580704,6.638746 z m 2.941901,-2.209912 c 1.665656,1.496293 6.757222,3.099381 2.295179,5.140088 -3.815868,1.475261 -4.857101,-2.782495 -3.454548,-5.385303 -3.624194,-4.483932 6.837601,-6.223271 3.924003,-1.148947 -0.531336,0.945108 -1.632684,1.762202 -2.764634,1.394162 z m 0.557706,-0.47405 c 3.971103,-1.479575 -3.473894,-5.146467 -1.15236,-0.730483 0.215017,0.416933 0.662502,0.774745 1.15236,0.730483 z m -1.024785,2.795503 c -3.297465,4.089469 6.923956,0.741442 1.122616,0.04612 -0.374896,0.0081 -0.748433,-0.0301 -1.122616,-0.04612 z m 8.393485,-0.111541 c -4.906841,0.293781 -0.573222,-7.031391 -2.156219,-9.269877 3.20439,-0.313023 -0.415271,7.530013 2.156219,9.269877 z m 6.399681,-1.582492 c -4.465541,6.683402 -8.090294,-8.577938 -1.045793,-4.440414 2.584477,2.946745 -6.723333,2.535835 -1.433138,5.082779 0.824606,0.347949 2.067798,0.322226 2.478931,-0.642365 z m -1.443071,-2.614249 c -0.687365,-5.167285 -4.715987,2.177343 0,0 z m 4.691711,4.39891 c -2.401138,1.181965 -2.692328,-3.110797 -0.344889,-0.694744 3.772016,-1.5804 -5.952459,-5.238038 -0.02784,-5.889708 3.093852,0.130375 1.551992,0.850484 -0.38942,0.440609 -0.280992,2.55335 6.5317,4.776169 0.762147,6.143843 z M 9.2388061,86.713166 c -2.795346,0.559319 -4.512114,-0.250533 -2.493436,-2.664508 -0.046451,-1.917258 -1.803268,-9.11796 1.171442,-4.993485 0.502535,2.428809 -2.011414,6.495232 1.321994,7.657993 z m 18.4809969,0 c -2.467409,0.79865 -8.096518,-0.506843 -3.246356,-2.813126 2.63012,-1.720723 1.425581,-7.490568 -2.189112,-5.107145 3.127037,-5.19456 8.340622,2.88031 3.015773,4.82884 -3.85222,3.999837 2.141896,0.535104 2.445042,1.851472 l -0.0226,0.543378 -0.0027,0.696581 0,0 z m 18.202142,-2.586363 c -2.587435,-0.326309 0.484536,4.587268 -3.307668,2.759943 -0.349913,-1.059623 1.399317,-4.072555 -1.507248,-2.744182 -4.38241,-2.260497 5.791102,-10.317273 3.281712,-2.882955 0.04107,1.117241 0.513788,2.299794 1.533204,2.867194 z M 43.27981,83.129902 c 0.767004,-2.504562 -0.67828,-5.580226 -2.032247,-1.808675 -2.348279,2.342896 0.483592,1.853589 2.032247,1.808675 z m 19.498817,3.583264 c -2.795344,0.559315 -4.512123,-0.250527 -2.493441,-2.664505 -0.04645,-1.91726 -1.803268,-9.117963 1.171447,-4.993491 0.502537,2.42881 -2.011414,6.495233 1.321994,7.657996 z m 4.928725,-9.662264 c 4.424724,0.754486 4.138985,8.246855 0.260491,9.496725 -4.645588,-0.119942 -4.527431,-8.778799 -0.260491,-9.496725 z m 0,9.37644 c 4.541612,-1.228107 0.49383,-12.276474 -1.674475,-5.656979 -0.348947,1.976237 -0.178955,4.447405 1.674475,5.656979 z m 8.783878,-4.099143 c -5.966826,4.907523 -4.989536,-9.758762 0.35861,-4.242315 3.896609,3.228468 -2.264991,10.047062 -3.386474,8.32718 1.695243,-0.602938 3.00301,-2.260546 3.027864,-4.084865 z m -1.917116,0.515879 c 5.437889,-0.258067 -1.827293,-9.06332 -1.499084,-2.250327 0.03261,0.926466 0.405739,2.159977 1.499084,2.250327 z m 5.625863,2.544536 c 2.619635,1.237697 -2.535832,1.432503 0,0 z m 3.325325,-4.329197 c 7.179631,-3.365053 3.034332,9.572477 0.608599,5.552041 4.144808,-0.633245 3.284421,-5.972539 -0.757086,-5.233466 -3.43739,-3.116858 4.859441,-5.99728 3.273722,-3.235424 -1.921967,-0.239317 -3.762602,0.710323 -3.125235,2.916849 z m 7.508123,0.57165 c 5.966335,-4.898055 4.981435,9.761784 -0.361002,4.249705 -3.894306,-3.230822 2.266912,-10.042509 3.387624,-8.33232 -1.695513,0.600785 -3.003585,2.258734 -3.026622,4.082615 z m 1.861345,4.810218 c 4.92298,-0.896345 -1.975805,-8.480738 -1.855272,-2.6773 0.09206,1.076301 0.552358,2.60726 1.855272,2.6773 z"
     inkscape:connector-curvature="0"
     id="text2227"
     style="font-size:12px;font-style:normal;font-weight:normal;fill:#000000;fill-opacity:1;stroke:none;font-family:Serif" />
</svg>
