<?xml version="1.0" encoding="UTF-8" standalone="no"?>
<!-- Created with Inkscape (http://www.inkscape.org/) -->

<svg
   xmlns:dc="http://purl.org/dc/elements/1.1/"
   xmlns:cc="http://creativecommons.org/ns#"
   xmlns:rdf="http://www.w3.org/1999/02/22-rdf-syntax-ns#"
   xmlns:svg="http://www.w3.org/2000/svg"
   xmlns="http://www.w3.org/2000/svg"
   xmlns:xlink="http://www.w3.org/1999/xlink"
   xmlns:inkscape="http://www.inkscape.org/namespaces/inkscape"
   version="1.0"
   width="100"
   height="100"
   id="svg2">
  <metadata
     id="metadata2566">
    <rdf:RDF>
      <cc:Work
         rdf:about="">
        <dc:format>image/svg+xml</dc:format>
        <dc:type
           rdf:resource="http://purl.org/dc/dcmitype/StillImage" />
      </cc:Work>
    </rdf:RDF>
  </metadata>
  <defs
     id="defs4">
    <radialGradient
       cx="58.01162"
       cy="63.345894"
       r="33.113495"
       fx="58.01162"
       fy="63.345894"
       id="radialGradient3562"
       xlink:href="#linearGradient3252"
       gradientUnits="userSpaceOnUse"
       gradientTransform="matrix(0.2134373,0,0,0.2134373,19.805211,5.9610473)" />
    <linearGradient
       x1="25.398125"
       y1="63.345894"
       x2="90.625114"
       y2="63.345894"
       id="linearGradient3565"
       xlink:href="#linearGradient3384"
       gradientUnits="userSpaceOnUse"
       gradientTransform="matrix(0.2688926,0.2688926,-0.2688926,0.2688926,38.227733,-8.4494346)" />
    <linearGradient
       id="linearGradient3259">
      <stop
         id="stop3261"
         style="stop-color:#f39e43;stop-opacity:1"
         offset="0" />
      <stop
         id="stop3263"
         style="stop-color:#c4620a;stop-opacity:1"
         offset="1" />
    </linearGradient>
    <linearGradient
       id="linearGradient3384">
      <stop
         id="stop3386"
         style="stop-color:#0000ff;stop-opacity:1"
         offset="0" />
      <stop
         id="stop3388"
         style="stop-color:#000000;stop-opacity:1"
         offset="1" />
    </linearGradient>
    <linearGradient
       id="linearGradient3252">
      <stop
         id="stop3254"
         style="stop-color:#ffffff;stop-opacity:1"
         offset="0" />
      <stop
         id="stop3256"
         style="stop-color:#7f7fff;stop-opacity:0"
         offset="1" />
    </linearGradient>
    <linearGradient
       x1="14.450921"
       y1="48.875256"
       x2="101.29551"
       y2="48.875256"
       id="linearGradient3265"
       xlink:href="#linearGradient3259"
       gradientUnits="userSpaceOnUse"
       gradientTransform="translate(0,9.2545672)" />
  </defs>
  <path
     d="m 32.01471,28.90635 c 8.54e-4,4.88363 -3.957872,8.84305 -8.841506,8.84305 -4.883633,0 -8.84236,-3.95942 -8.841505,-8.84305 -8.55e-4,-4.88363 3.957872,-8.84305 8.841505,-8.84305 4.883634,0 8.84236,3.95942 8.841506,8.84305 l 0,0 z"
     inkscape:connector-curvature="0"
     id="path3778"
     style="fill:#e6e6e3;fill-opacity:1;fill-rule:evenodd;stroke:none" />
  <use
     transform="translate(49.020286,-0.7230131)"
     id="use2489"
     x="0"
     y="0"
     width="100"
     height="100"
     xlink:href="#path3778" />
  <g
     transform="matrix(0.7129105,0,0,0.7129105,-9.7986182,3.3395818)"
     id="g3519">
    <path
       d="m 49.066773,24.22879 c 0.0012,6.850275 -5.551709,12.404157 -12.401985,12.404157 -6.850275,0 -12.403184,-5.553882 -12.401985,-12.404157 -0.0012,-6.850276 5.55171,-12.404157 12.401985,-12.404157 6.850276,0 12.403184,5.553881 12.401985,12.404157 l 0,0 z"
       inkscape:connector-curvature="0"
       id="path3474"
       style="fill:#0000ff;fill-opacity:1;fill-rule:evenodd;stroke:#000000;stroke-width:0.38027155px;stroke-linecap:butt;stroke-linejoin:miter;stroke-opacity:1" />
    <path
       d="m 45.562914,32.95223 c -4.843029,4.844723 -12.696715,4.845411 -17.54059,0.0015 -4.843878,-4.843877 -4.843189,-12.697563 0.0015,-17.54059 4.843028,-4.844725 12.696714,-4.845413 17.540591,-0.0015 4.843875,4.843876 4.843187,12.697563 -0.0015,17.540591 l 0,0 z"
       inkscape:connector-curvature="0"
       id="path3476"
       style="opacity:0.71739131;fill:url(#linearGradient3565);fill-opacity:1;fill-rule:evenodd;stroke:none" />
    <path
       d="m 39.147988,19.481422 c 6.73e-4,3.844893 -3.11604,6.962154 -6.960935,6.962154 -3.844894,0 -6.961608,-3.117261 -6.960935,-6.962154 -6.73e-4,-3.844895 3.116041,-6.962154 6.960935,-6.962154 3.844895,0 6.961608,3.117259 6.960935,6.962154 l 0,0 z"
       inkscape:connector-curvature="0"
       id="path3478"
       style="fill:url(#radialGradient3562);fill-opacity:1;fill-rule:evenodd;stroke:none" />
  </g>
  <use
     transform="translate(50.177106,-0.1446026)"
     id="use2485"
     x="0"
     y="0"
     width="100"
     height="100"
     xlink:href="#g3519" />
  <path
     d="m 99.363574,99.82632 -69.452414,0 0,-48.858638 69.452414,0"
     inkscape:connector-curvature="0"
     id="path3292"
     style="fill:#dadeda;fill-opacity:1;fill-rule:evenodd;stroke:none" />
  <path
     d="m 99.68495,84.604131 -83.623474,0 0,-52.94862 83.623474,0"
     inkscape:connector-curvature="0"
     id="rect3210"
     style="fill:url(#linearGradient3265);fill-opacity:1;fill-rule:evenodd;stroke:#000000;stroke-width:3.22111034;stroke-linecap:round;stroke-linejoin:round;stroke-miterlimit:4;stroke-opacity:1;stroke-dashoffset:0" />
  <path
     d="m 15.746421,31.238207 c 0,17.586912 0,17.586912 0,17.586912"
     inkscape:connector-curvature="0"
     id="path3213"
     style="fill:none;stroke:#000000;stroke-width:1.5;stroke-linecap:butt;stroke-linejoin:miter;stroke-miterlimit:4;stroke-opacity:1;stroke-dasharray:none" />
  <path
     d="m 41.228699,31.158114 c 0,13.98743 0,13.98743 0,13.98743"
     inkscape:connector-curvature="0"
     id="path3215"
     style="fill:none;stroke:#000000;stroke-width:1.33981466;stroke-linecap:butt;stroke-linejoin:miter;stroke-miterlimit:4;stroke-opacity:1;stroke-dasharray:none" />
  <path
     d="m 66.871159,31.158114 c 0,13.98743 0,13.98743 0,13.98743"
     inkscape:connector-curvature="0"
     id="path3217"
     style="fill:none;stroke:#000000;stroke-width:1.33981466;stroke-linecap:butt;stroke-linejoin:miter;stroke-miterlimit:4;stroke-opacity:1;stroke-dasharray:none" />
  <path
     d="m 92.513628,31.158114 c 0,13.98743 0,13.98743 0,13.98743"
     inkscape:connector-curvature="0"
     id="path3219"
     style="fill:none;stroke:#000000;stroke-width:1.33981466;stroke-linecap:butt;stroke-linejoin:miter;stroke-miterlimit:4;stroke-opacity:1;stroke-dasharray:none" />
  <path
     d="m 28.34995,31.060552 c 0,10.171261 0,10.171261 0,10.171261"
     inkscape:connector-curvature="0"
     id="path3221"
     style="fill:none;stroke:#000000;stroke-width:1.1446898;stroke-linecap:butt;stroke-linejoin:miter;stroke-miterlimit:4;stroke-opacity:1;stroke-dasharray:none" />
  <path
     d="m 54.089975,31.060552 c 0,10.171261 0,10.171261 0,10.171261"
     inkscape:connector-curvature="0"
     id="path3223"
     style="fill:none;stroke:#000000;stroke-width:1.1446898;stroke-linecap:butt;stroke-linejoin:miter;stroke-miterlimit:4;stroke-opacity:1;stroke-dasharray:none" />
  <path
     d="m 79.829998,31.060552 c 0,10.171261 0,10.171261 0,10.171261"
     inkscape:connector-curvature="0"
     id="path3225"
     style="fill:none;stroke:#000000;stroke-width:1.1446898;stroke-linecap:butt;stroke-linejoin:miter;stroke-miterlimit:4;stroke-opacity:1;stroke-dasharray:none" />
  <path
     d="m 61.091037,74.174793 c 0,10.655511 0,10.655511 0,10.655511"
     inkscape:connector-curvature="0"
     id="path3231"
     style="fill:none;stroke:#000000;stroke-width:1.54584134;stroke-linecap:butt;stroke-linejoin:miter;stroke-miterlimit:4;stroke-opacity:1;stroke-dasharray:none" />
  <path
     d="m 38.686613,74.174793 c 0,10.655511 0,10.655511 0,10.655511"
     inkscape:connector-curvature="0"
     id="path3237"
     style="fill:none;stroke:#000000;stroke-width:1.54584134;stroke-linecap:butt;stroke-linejoin:miter;stroke-miterlimit:4;stroke-opacity:1;stroke-dasharray:none" />
  <path
     d="m 83.064889,70.597868 c 0,14.207066 0,14.207066 0,14.207066"
     inkscape:connector-curvature="0"
     id="path3239"
     style="fill:none;stroke:#000000;stroke-width:1.77636969;stroke-linecap:butt;stroke-linejoin:miter;stroke-miterlimit:4;stroke-opacity:1;stroke-dasharray:none" />
  <path
     d="m 21.998434,60.125568 c -1.427497,0.382807 -2.96215,1.082793 -0.465841,1.611252 2.205988,1.516449 -2.22714,3.351374 -1.476812,1.970385 2.345471,0.297578 0.786255,-2.146226 -0.481158,-2.23387 -0.518736,-1.311704 1.550564,-2.084116 2.423811,-1.347767 z m 1.5038,3.526905 c -0.170053,4.21947 -1.916978,-4.349123 1.498101,-2.467113 1.655526,0.687793 0.02474,4.458124 -1.498101,2.467113 z m 1.63718,-1.080738 c -0.821441,-3.205384 -2.725108,2.989648 -0.04885,0.577844 l 0.04885,-0.577844 0,0 z m 1.29719,-2.755741 c 1.541362,1.276526 -0.299144,6.123649 -0.02349,1.973244 0.01033,-0.657688 0.0417,-1.315364 0.02349,-1.973244 z m 2.81668,2.744686 c -3.104429,1.028723 2.436649,1.631842 0,0 z M 30.2131,62.350613 c 1.376846,2.782297 -4.214976,1.623017 -1.67815,-0.228361 2.867142,2.1e-4 -2.226989,-1.155782 0.504126,-1.190995 0.658055,0.0863 1.382849,0.684844 1.174024,1.419356 z m 1.469799,-2.208462 c 0.07413,1.174783 1.48037,1.054745 -0.182801,1.980363 0.05272,0.824782 1.688508,2.887797 -0.02331,1.493814 -0.254418,-0.945112 -1.058247,-2.957508 0.206115,-3.474177 z m 2.102704,0 c 0.07413,1.174783 1.480369,1.054745 -0.182801,1.980363 0.05273,0.824783 1.688507,2.887799 -0.02331,1.493814 -0.25442,-0.945114 -1.058242,-2.957503 0.206116,-3.474177 z m 4.132179,2.299675 c -1.978507,-0.04838 -2.719719,1.231511 -0.404274,1.400429 -3.621737,2.114347 -2.202358,-5.124925 0.261097,-2.170231 l 0.101698,0.347007 0.04148,0.422795 0,0 z m -0.481217,-0.149258 c -0.176424,-2.055285 -3.127439,0.689389 0,0 z m 2.968369,-0.796039 c -1.828251,-0.649694 -1.178032,4.467915 -1.84029,0.768803 -0.360499,-1.043359 1.793553,-1.816515 1.84029,-0.768803 z m 0.97551,2.155944 c -0.170055,4.219471 -1.916981,-4.349125 1.4981,-2.467114 1.655526,0.687793 0.02474,4.458122 -1.4981,2.467114 z m 1.63718,-1.080738 c -0.821442,-3.205384 -2.725112,2.989649 -0.04885,0.577844 l 0.04885,-0.577844 0,0 z m 2.994518,-1.075206 c -1.82825,-0.649692 -1.178032,4.467914 -1.84029,0.768803 -0.360498,-1.043358 1.793553,-1.816516 1.84029,-0.768803 z m 1.527336,-0.118855 c -2.555811,0.697321 1.469043,3.963002 0.799713,0.740301 -0.09321,-0.364303 -0.383557,-0.743363 -0.799713,-0.740301 z m 0,-0.431187 c 3.761627,0.790505 -1.395268,5.82755 -1.357245,1.338523 0.07703,-0.68455 0.605096,-1.383027 1.357245,-1.338523 z m 3.274361,0.431187 c -2.555812,0.697317 1.469038,3.963005 0.799712,0.740302 -0.09321,-0.364302 -0.383555,-0.743362 -0.799712,-0.740302 z m 0,-0.431187 c 3.761624,0.79051 -1.395272,5.827547 -1.357248,1.338523 0.07703,-0.684551 0.605099,-1.383027 1.357248,-1.338523 z m 3.622192,-1.130493 c -1.78161,0.905177 0.421178,1.346521 -0.934907,1.871448 0.217732,1.27013 -0.366039,3.381364 -0.483888,0.834617 -0.268921,-1.186899 -0.310687,-2.933879 1.418795,-2.706065 z"
     inkscape:connector-curvature="0"
     id="text3267"
     style="font-size:12px;font-style:normal;font-weight:normal;fill:#000000;fill-opacity:1;stroke:none;font-family:Bitstream Vera Sans" />
  <path
     d="m 39.084965,54.755505 1.933594,0 0,-6.673828 -2.103516,0.421875 0,-1.078125 2.091797,-0.421875 1.183594,0 0,7.751953 1.933593,0 0,0.996094 -5.039062,0 0,-0.996094"
     inkscape:connector-curvature="0"
     id="text3272"
     style="font-size:12px;font-style:normal;font-weight:normal;fill:#000000;fill-opacity:1;stroke:none;font-family:Bitstream Vera Sans" />
  <path
     d="m 93.655144,50.745599 c 0.566401,0.121098 1.007806,0.373051 1.324218,0.755859 0.320306,0.382816 0.480463,0.855472 0.480469,1.417969 -6e-6,0.863283 -0.296881,1.531251 -0.890625,2.003906 -0.593755,0.472656 -1.437504,0.708984 -2.53125,0.708984 -0.36719,0 -0.746096,-0.03711 -1.136719,-0.111328 -0.38672,-0.07031 -0.78711,-0.177734 -1.201171,-0.322265 l 0,-1.142578 c 0.328123,0.191407 0.687498,0.335938 1.078125,0.433593 0.390622,0.09766 0.798825,0.146485 1.224609,0.146485 0.742184,0 1.306636,-0.146484 1.693359,-0.439453 0.39062,-0.292968 0.585932,-0.718748 0.585938,-1.277344 -6e-6,-0.515622 -0.181646,-0.917966 -0.544922,-1.207031 -0.35938,-0.292965 -0.861332,-0.439449 -1.505859,-0.439454 l -1.019532,0 0,-0.972656 1.066407,0 c 0.582027,5e-6 1.027339,-0.115229 1.335937,-0.345703 0.308589,-0.234369 0.462885,-0.570306 0.462891,-1.007812 -6e-6,-0.449212 -0.160162,-0.792962 -0.480469,-1.03125 -0.316411,-0.24218 -0.771488,-0.363274 -1.365234,-0.363282 -0.324222,8e-6 -0.671878,0.03516 -1.042969,0.105469 -0.371096,0.07032 -0.779299,0.179695 -1.22461,0.328125 l 0,-1.054687 c 0.449218,-0.124992 0.869139,-0.218742 1.259766,-0.28125 0.394529,-0.06249 0.765622,-0.09374 1.113281,-0.09375 0.898433,8e-6 1.60937,0.205086 2.132813,0.615234 0.523431,0.406258 0.78515,0.957038 0.785156,1.652344 -6e-6,0.484381 -0.138678,0.894537 -0.416016,1.230468 -0.277349,0.332037 -0.67188,0.562505 -1.183593,0.691407"
     inkscape:connector-curvature="0"
     id="text3276"
     style="font-size:12px;font-style:normal;font-weight:normal;fill:#000000;fill-opacity:1;stroke:none;font-family:Bitstream Vera Sans" />
  <path
     d="m 65.638676,54.755505 4.130859,0 0,0.996094 -5.554687,0 0,-0.996094 c 0.449217,-0.464842 1.060545,-1.087888 1.833984,-1.86914 0.77734,-0.785153 1.265621,-1.291012 1.464844,-1.517578 0.378901,-0.425777 0.642573,-0.785151 0.791015,-1.078125 0.152339,-0.29687 0.228511,-0.587885 0.228516,-0.873047 -5e-6,-0.464837 -0.164068,-0.843743 -0.492188,-1.136719 -0.324223,-0.292961 -0.74805,-0.439445 -1.271484,-0.439453 -0.371097,8e-6 -0.763674,0.06446 -1.177734,0.193359 -0.410158,0.128914 -0.849611,0.324226 -1.31836,0.585938 l 0,-1.195313 c 0.476561,-0.191397 0.921873,-0.335929 1.335938,-0.433593 0.41406,-0.09765 0.792965,-0.146476 1.136719,-0.146485 0.906245,9e-6 1.628901,0.226571 2.167968,0.679688 0.539057,0.453132 0.808588,1.058601 0.808594,1.816406 -6e-6,0.359381 -0.06837,0.701177 -0.205078,1.025391 -0.132819,0.320317 -0.376959,0.699223 -0.732422,1.136718 -0.09766,0.113286 -0.408208,0.44141 -0.931641,0.984375 -0.523441,0.539066 -1.261722,1.294924 -2.214843,2.267578"
     inkscape:connector-curvature="0"
     id="text3280"
     style="font-size:12px;font-style:normal;font-weight:normal;fill:#000000;fill-opacity:1;stroke:none;font-family:Bitstream Vera Sans" />
  <path
     d="m 81.308922,68.348149 1.933594,0 0,-6.673828 -2.103516,0.421875 0,-1.078125 2.091797,-0.421875 1.183594,0 0,7.751953 1.933593,0 0,0.996094 -5.039062,0 0,-0.996094"
     inkscape:connector-curvature="0"
     id="text3284"
     style="font-size:12px;font-style:normal;font-weight:normal;fill:#000000;fill-opacity:1;stroke:none;font-family:Bitstream Vera Sans" />
  <path
     d="m 26.606881,20.179358 c 29.788138,0 29.498933,0 29.498933,0"
     inkscape:connector-curvature="0"
     id="path3774"
     style="fill:none;stroke:#000000;stroke-width:3;stroke-linecap:round;stroke-linejoin:miter;stroke-miterlimit:4;stroke-opacity:1;stroke-dasharray:6, 3;stroke-dashoffset:0" />
</svg>
