<?xml version="1.0" encoding="UTF-8" standalone="no"?>
<!-- Created with Inkscape (http://www.inkscape.org/) -->
<svg
   xmlns:svg="http://www.w3.org/2000/svg"
   xmlns="http://www.w3.org/2000/svg"
   xmlns:xlink="http://www.w3.org/1999/xlink"
   version="1.0"
   width="100"
   height="100"
   id="svg2">
  <defs
     id="defs4">
    <linearGradient
       id="linearGradient3197">
      <stop
         id="stop3199"
         style="stop-color:#e4e1e1;stop-opacity:1"
         offset="0" />
      <stop
         id="stop3201"
         style="stop-color:#21af00;stop-opacity:1"
         offset="1" />
    </linearGradient>
    <linearGradient
       id="linearGradient3189">
      <stop
         id="stop3191"
         style="stop-color:#000000;stop-opacity:1"
         offset="0" />
      <stop
         id="stop3193"
         style="stop-color:#000000;stop-opacity:0"
         offset="1" />
    </linearGradient>
    <radialGradient
       cx="50.059151"
       cy="48.853989"
       r="42.138134"
       fx="50.059151"
       fy="48.853989"
       id="radialGradient4309"
       xlink:href="#linearGradient3197"
       gradientUnits="userSpaceOnUse"
       gradientTransform="matrix(2.2139819,0,0,2.4815208,-72.160486,-3.7847492)" />
    <radialGradient
       cx="50.059151"
       cy="48.853989"
       r="42.138134"
       fx="50.059151"
       fy="48.853989"
       id="radialGradient4311"
       xlink:href="#linearGradient3189"
       gradientUnits="userSpaceOnUse"
       gradientTransform="matrix(2.2139819,0,0,2.4815208,-72.160486,-3.7847492)" />
  </defs>
  <path
     d="M 40.395815,45.185194 L 37.284977,22.638008 L 98.070865,55.396791 L 37.284977,88.155561 L 40.395815,66.261917 C 37.994858,66.261917 7.7202499,66.024118 5.3816161,66.261917 L 5.3816161,45.185194 L 40.395815,45.185194 L 40.395815,45.185194 z"
     id="path4225"
     style="fill:#282828;fill-opacity:1;fill-rule:evenodd;stroke:none" />
  <path
     d="M 38.669567,38.042139 L 35.558736,15.494953 L 96.344621,48.253729 L 35.558736,81.012501 L 38.669567,59.118857 C 36.268622,59.118857 5.9940137,58.88106 3.6553793,59.118857 L 3.6553793,38.042139 L 38.669567,38.042139 L 38.669567,38.042139 z"
     id="path3242"
     style="fill:none;stroke:#000000;stroke-width:7.30102873;stroke-linecap:round;stroke-linejoin:round;stroke-miterlimit:4;stroke-dasharray:none;stroke-dashoffset:0;stroke-opacity:1" />
  <path
     d="M 38.669573,38.042139 L 35.558735,15.494953 L 96.344623,48.253729 L 35.558735,81.012501 L 38.669573,59.118857 C 36.268616,59.118857 5.9940151,58.88106 3.655378,59.118857 L 3.655378,38.042139 L 38.669573,38.042139 L 38.669573,38.042139 z"
     id="path3176"
     style="fill:url(#radialGradient4309);fill-opacity:1;fill-rule:evenodd;stroke:url(#radialGradient4311);stroke-width:5.22833347;stroke-linecap:round;stroke-linejoin:round;stroke-miterlimit:4;stroke-dashoffset:0;stroke-opacity:1" />
</svg>
