<?xml version="1.0" encoding="UTF-8" standalone="no"?>
<!-- Created with Inkscape (http://www.inkscape.org/) -->
<svg
   xmlns:svg="http://www.w3.org/2000/svg"
   xmlns="http://www.w3.org/2000/svg"
   xmlns:xlink="http://www.w3.org/1999/xlink"
   version="1.0"
   width="100"
   height="100"
   id="svg2">
  <defs
     id="defs4">
    <linearGradient
       id="linearGradient3197">
      <stop
         id="stop3199"
         style="stop-color:#e4e1e1;stop-opacity:1"
         offset="0" />
      <stop
         id="stop3201"
         style="stop-color:#e4af00;stop-opacity:1"
         offset="1" />
    </linearGradient>
    <linearGradient
       id="linearGradient3189">
      <stop
         id="stop3191"
         style="stop-color:#000000;stop-opacity:1"
         offset="0" />
      <stop
         id="stop3193"
         style="stop-color:#000000;stop-opacity:0"
         offset="1" />
    </linearGradient>
    <radialGradient
       cx="50.059151"
       cy="48.853989"
       r="42.138134"
       fx="50.059151"
       fy="48.853989"
       id="radialGradient3195"
       xlink:href="#linearGradient3189"
       gradientUnits="userSpaceOnUse"
       gradientTransform="matrix(0.9573786,0,0,1.0730688,2.3984009,-3.7722635)" />
    <radialGradient
       cx="50.059151"
       cy="48.853989"
       r="42.138134"
       fx="50.059151"
       fy="48.853989"
       id="radialGradient3203"
       xlink:href="#linearGradient3197"
       gradientUnits="userSpaceOnUse"
       gradientTransform="matrix(0.9573786,0,0,1.0730688,2.3984009,-3.7722635)" />
  </defs>
  <path
     d="M 60.531697,23.127464 L 59.186497,13.377523 L 85.471767,27.543199 L 59.186497,41.708874 L 60.531697,32.241539 C 43.920007,32.241539 30.434055,45.727495 30.434055,62.339183 C 30.434055,78.950873 43.920017,92.43683 60.531697,92.43683 C 77.143387,92.43683 90.629357,78.950875 90.629347,62.339183 C 90.629347,54.03334 87.245827,46.520957 81.797877,41.073008 L 88.262507,34.608372 C 94.666497,40.10971 99.743417,51.517473 99.743417,62.339183 C 99.743427,83.982601 82.175127,101.55089 60.531697,101.55089 C 38.888287,101.55089 21.319979,83.982603 21.319979,62.339183 C 21.319979,40.695761 38.888277,23.127464 60.531697,23.127464 L 60.531697,23.127464 z"
     id="path3211"
     style="fill:#e1e0de;fill-opacity:1;fill-rule:evenodd;stroke:none" />
  <g
     transform="matrix(0.7916049,0,0,0.7255972,186.5007,61.505278)"
     id="g3253"
     style="stroke:#e8e8e8;stroke-opacity:1">
    <path
       d="M -177.57599,1.5527563 L -172.19048,-10.683996 L -166.80496,-22.920748 L -113.00103,-22.920748 L -134.54309,26.026261 L -147.99408,26.026261"
       id="path3239"
       style="fill:none;stroke:#e8e8e8;stroke-width:4.625;stroke-linecap:butt;stroke-linejoin:round;stroke-miterlimit:4;stroke-dashoffset:0;stroke-opacity:1" />
    <rect
       width="53.803928"
       height="53.477772"
       x="-190.10735"
       y="-9.2113724"
       transform="matrix(1,0,-0.4028229,0.9152779,0,0)"
       id="rect3241"
       style="fill:none;stroke:#e8e8e8;stroke-width:4.83431816;stroke-linecap:butt;stroke-linejoin:round;stroke-miterlimit:4;stroke-dasharray:none;stroke-dashoffset:0;stroke-opacity:1" />
    <path
       d="M -147.99408,26.026265 L -188.34703,26.026265 L -172.19048,-10.683997"
       id="path3243"
       style="fill:none;stroke:#e8e8e8;stroke-width:4.625;stroke-linecap:butt;stroke-linejoin:round;stroke-miterlimit:4;stroke-dasharray:9.25, 4.625;stroke-dashoffset:0;stroke-opacity:1" />
    <path
       d="M -186.18424,-8.0390707 C -166.5924,-22.732948 -166.5924,-22.732948 -166.5924,-22.732948"
       id="path3245"
       style="fill:none;stroke:#e8e8e8;stroke-width:5;stroke-linecap:butt;stroke-linejoin:miter;stroke-miterlimit:4;stroke-dasharray:none;stroke-opacity:1" />
    <path
       d="M -133.73526,-7.4268267 C -114.14342,-22.120704 -114.14342,-22.120704 -114.14342,-22.120704"
       id="path3247"
       style="fill:none;stroke:#e8e8e8;stroke-width:5;stroke-linecap:butt;stroke-linejoin:miter;stroke-miterlimit:4;stroke-dasharray:none;stroke-opacity:1" />
    <path
       d="M -154.14342,40.328275 C -134.55159,25.634398 -134.55159,25.634398 -134.55159,25.634398"
       id="path3249"
       style="fill:none;stroke:#e8e8e8;stroke-width:5;stroke-linecap:butt;stroke-linejoin:miter;stroke-miterlimit:4;stroke-dasharray:none;stroke-opacity:1" />
    <path
       d="M -206.18424,39.716031 C -186.5924,25.022154 -186.5924,25.022154 -186.5924,25.022154"
       id="path3251"
       style="fill:none;stroke:#e8e8e8;stroke-width:5;stroke-linecap:butt;stroke-linejoin:miter;stroke-miterlimit:4;stroke-dasharray:10, 5;stroke-dashoffset:0;stroke-opacity:1" />
  </g>
  <path
     d="M 36.189324,50.371671 L 40.452525,41.492719 L 44.715727,32.613768 L 87.307182,32.613768 L 70.254377,68.129581 L 59.606513,68.129581"
     id="rect3225"
     style="fill:none;stroke:#000000;stroke-width:3.50520778;stroke-linecap:butt;stroke-linejoin:round;stroke-miterlimit:4;stroke-dashoffset:0;stroke-opacity:1" />
  <path
     d="M 29.374994,43.411873 C 44.883989,32.750035 44.883989,32.750035 44.883989,32.750035"
     id="path3231"
     style="fill:none;stroke:#000000;stroke-width:3.78941393;stroke-linecap:butt;stroke-linejoin:miter;stroke-miterlimit:4;stroke-dasharray:none;stroke-opacity:1" />
  <path
     d="M 70.893864,43.856113 C 86.402856,33.194275 86.402856,33.194275 86.402856,33.194275"
     id="path3233"
     style="fill:none;stroke:#000000;stroke-width:3.78941393;stroke-linecap:butt;stroke-linejoin:miter;stroke-miterlimit:4;stroke-dasharray:none;stroke-opacity:1" />
  <path
     d="M 54.738661,78.50708 C 70.247655,67.845241 70.247655,67.845241 70.247655,67.845241"
     id="path3235"
     style="fill:none;stroke:#000000;stroke-width:3.78941393;stroke-linecap:butt;stroke-linejoin:miter;stroke-miterlimit:4;stroke-dasharray:none;stroke-opacity:1" />
  <path
     d="M 13.542896,78.06284 C 29.05189,67.401002 29.05189,67.401002 29.05189,67.401002"
     id="path3237"
     style="fill:none;stroke:#000000;stroke-width:3.78941393;stroke-linecap:butt;stroke-linejoin:miter;stroke-miterlimit:4;stroke-dasharray:7.57882774, 3.78941387;stroke-dashoffset:0;stroke-opacity:1" />
  <path
     d="M 50.323964,14.314682 L 48.978764,4.5647407 L 75.264027,18.730417 L 48.978764,32.896092 L 50.323964,23.428757 C 33.712275,23.428757 20.22632,36.914713 20.22632,53.526401 C 20.22632,70.138091 33.712277,83.624043 50.323964,83.624045 C 66.935656,83.624045 80.421617,70.138093 80.421607,53.526401 C 80.421607,45.220558 77.038088,37.708175 71.590144,32.260226 L 78.054776,25.79559 C 84.458758,31.296928 89.53568,42.704691 89.53568,53.526401 C 89.535689,75.169819 71.967389,92.738121 50.323964,92.738121 C 28.680548,92.738122 11.112244,75.169821 11.112244,53.526401 C 11.112244,31.882979 28.680545,14.314682 50.323964,14.314682 L 50.323964,14.314682 z"
     id="path3205"
     style="fill:none;stroke:#000000;stroke-width:5;stroke-linecap:round;stroke-linejoin:round;stroke-miterlimit:4;stroke-dasharray:none;stroke-dashoffset:0;stroke-opacity:1" />
  <path
     d="M 50.323962,14.314682 L 48.978762,4.5647407 L 75.264029,18.730417 L 48.978762,32.896092 L 50.323962,23.428758 C 33.712273,23.428758 20.226318,36.914713 20.226318,53.526401 C 20.226318,70.138091 33.712275,83.624043 50.323962,83.624045 C 66.935651,83.624045 80.421611,70.138093 80.421606,53.526401 C 80.421606,45.220558 77.038087,37.708175 71.590138,32.260226 L 78.054773,25.795591 C 84.45876,31.296928 89.535681,42.704691 89.535681,53.526401 C 89.535682,75.169819 71.967383,92.738121 50.323962,92.738121 C 28.680546,92.738122 11.112243,75.169821 11.112243,53.526401 C 11.112243,31.882979 28.680543,14.314682 50.323962,14.314682 L 50.323962,14.314682 z"
     id="path3176"
     style="fill:url(#radialGradient3203);fill-opacity:1;fill-rule:evenodd;stroke:url(#radialGradient3195);stroke-width:2.26085615;stroke-linecap:round;stroke-linejoin:round;stroke-miterlimit:4;stroke-dashoffset:0;stroke-opacity:1" />
  <path
     d="M 59.606513,68.129581 L 27.662921,68.129581 L 40.452526,41.492719"
     id="rect3223"
     style="fill:none;stroke:#000000;stroke-width:3.50520778;stroke-linecap:butt;stroke-linejoin:round;stroke-miterlimit:4;stroke-dasharray:7.01041566, 3.50520783;stroke-dashoffset:0;stroke-opacity:1" />
  <rect
     width="42.591454"
     height="39.397614"
     x="49.914272"
     y="47.841248"
     transform="matrix(1,0,-0.4328386,0.9014714,0,0)"
     id="rect2248"
     style="fill:none;stroke:#000000;stroke-width:3.69179678;stroke-linecap:butt;stroke-linejoin:round;stroke-miterlimit:4;stroke-dasharray:none;stroke-dashoffset:0;stroke-opacity:1" />
</svg>
