<?xml version="1.0" encoding="UTF-8" standalone="no"?>
<!-- Created with Inkscape (http://www.inkscape.org/) -->

<svg
   xmlns:dc="http://purl.org/dc/elements/1.1/"
   xmlns:cc="http://creativecommons.org/ns#"
   xmlns:rdf="http://www.w3.org/1999/02/22-rdf-syntax-ns#"
   xmlns:svg="http://www.w3.org/2000/svg"
   xmlns="http://www.w3.org/2000/svg"
   xmlns:xlink="http://www.w3.org/1999/xlink"
   xmlns:inkscape="http://www.inkscape.org/namespaces/inkscape"
   version="1.0"
   width="100"
   height="100"
   id="svg2">
  <metadata
     id="metadata2566">
    <rdf:RDF>
      <cc:Work
         rdf:about="">
        <dc:format>image/svg+xml</dc:format>
        <dc:type
           rdf:resource="http://purl.org/dc/dcmitype/StillImage" />
      </cc:Work>
    </rdf:RDF>
  </metadata>
  <defs
     id="defs4">
    <linearGradient
       id="linearGradient3197">
      <stop
         id="stop3199"
         style="stop-color:#e4e1e1;stop-opacity:1"
         offset="0" />
      <stop
         id="stop3201"
         style="stop-color:#e4af00;stop-opacity:1"
         offset="1" />
    </linearGradient>
    <linearGradient
       id="linearGradient3189">
      <stop
         id="stop3191"
         style="stop-color:#000000;stop-opacity:1"
         offset="0" />
      <stop
         id="stop3193"
         style="stop-color:#000000;stop-opacity:0"
         offset="1" />
    </linearGradient>
    <radialGradient
       cx="50.059151"
       cy="48.853989"
       r="42.138134"
       fx="50.059151"
       fy="48.853989"
       id="radialGradient2212"
       xlink:href="#linearGradient3197"
       gradientUnits="userSpaceOnUse"
       gradientTransform="matrix(-1.7093778,0,0,1.91594,141.7618,8.2882328)" />
    <radialGradient
       cx="50.059151"
       cy="48.853989"
       r="42.138134"
       fx="50.059151"
       fy="48.853989"
       id="radialGradient2214"
       xlink:href="#linearGradient3189"
       gradientUnits="userSpaceOnUse"
       gradientTransform="matrix(-1.7093778,0,0,1.91594,141.7618,8.2882328)" />
  </defs>
  <g
     transform="translate(7.5193358,9.8329776)"
     id="g3229"
     style="fill:#e3e1e1;fill-opacity:1">
    <g
       transform="matrix(0.5041747,0,0,0.5041747,-0.4943229,25.564539)"
       id="g2220"
       style="fill:#e3e1e1;fill-opacity:1;stroke:none">
      <path
         d="m 56.191798,40.582064 2.40182,-17.4083 -46.93175,25.292495 46.93175,25.292491 -2.40182,-16.90371 c 1.85373,0 25.22824,-0.1836 27.03386,0 l 0,-16.272976 -27.03386,0 z"
         inkscape:connector-curvature="0"
         id="path2222"
         style="fill:#e3e1e1;fill-opacity:1;fill-rule:evenodd;stroke:none" />
      <path
         d="M 56.191794,40.582064 58.593619,23.173764 11.661867,48.466259 58.593619,73.75875 56.191794,56.85504 c 1.853738,0 25.228243,-0.1836 27.033865,0 l 0,-16.272976 -27.033865,0 z"
         inkscape:connector-curvature="0"
         id="path2224"
         style="fill:#e3e1e1;fill-opacity:1;fill-rule:evenodd;stroke:none" />
    </g>
    <use
       transform="matrix(-1,0,0,1,100.065,-4.169021e-7)"
       id="use3227"
       style="fill:#e3e1e1;fill-opacity:1"
       x="0"
       y="0"
       width="100"
       height="100"
       xlink:href="#g2220" />
  </g>
  <use
     transform="matrix(0,1,-1,0,117.38482,2.2811411)"
     id="use3235"
     style="fill:#e3e1e1;fill-opacity:1"
     x="0"
     y="0"
     width="100"
     height="100"
     xlink:href="#g3229" />
  <g
     transform="translate(0.0048977,-0.4344037)"
     id="g2204">
    <g
       transform="translate(1.7352313,1.1568214)"
       id="g2192">
      <g
         transform="matrix(0.5041747,0,0,0.5041747,-2.5561598,24.842121)"
         id="g4217">
        <path
           d="m 56.191798,40.582064 2.40182,-17.4083 -46.93175,25.292495 46.93175,25.292491 -2.40182,-16.90371 c 1.85373,0 25.22824,-0.1836 27.03386,0 l 0,-16.272976 -27.03386,0 z"
           inkscape:connector-curvature="0"
           id="path3242"
           style="fill:none;stroke:#000000;stroke-width:5.63700008;stroke-linecap:round;stroke-linejoin:round;stroke-miterlimit:4;stroke-opacity:1;stroke-dasharray:none;stroke-dashoffset:0" />
        <path
           d="M 56.191794,40.582064 58.593619,23.173764 11.661867,48.466259 58.593619,73.75875 56.191794,56.85504 c 1.853738,0 25.228243,-0.1836 27.033865,0 l 0,-16.272976 -27.033865,0 z"
           inkscape:connector-curvature="0"
           id="path3176"
           style="fill:url(#radialGradient2212);fill-opacity:1;fill-rule:evenodd;stroke:url(#radialGradient2214);stroke-width:4.0367074;stroke-linecap:round;stroke-linejoin:round;stroke-miterlimit:4;stroke-opacity:1;stroke-dashoffset:0" />
      </g>
      <use
         transform="matrix(-1,0,0,1,96.519742,4.9999991e-8)"
         id="use2186"
         x="0"
         y="0"
         width="100"
         height="100"
         xlink:href="#g4217" />
    </g>
    <use
       transform="matrix(0,1,-1,0,100.42951,0.4393014)"
       id="use2198"
       x="0"
       y="0"
       width="100"
       height="100"
       xlink:href="#g2192" />
  </g>
</svg>
