<?xml version="1.0" encoding="UTF-8" standalone="no"?>
<!-- Created with Inkscape (http://www.inkscape.org/) -->

<svg
   xmlns:dc="http://purl.org/dc/elements/1.1/"
   xmlns:cc="http://creativecommons.org/ns#"
   xmlns:rdf="http://www.w3.org/1999/02/22-rdf-syntax-ns#"
   xmlns:svg="http://www.w3.org/2000/svg"
   xmlns="http://www.w3.org/2000/svg"
   xmlns:xlink="http://www.w3.org/1999/xlink"
   xmlns:inkscape="http://www.inkscape.org/namespaces/inkscape"
   version="1.0"
   width="100"
   height="100"
   id="svg2">
  <metadata
     id="metadata2566">
    <rdf:RDF>
      <cc:Work
         rdf:about="">
        <dc:format>image/svg+xml</dc:format>
        <dc:type
           rdf:resource="http://purl.org/dc/dcmitype/StillImage" />
      </cc:Work>
    </rdf:RDF>
  </metadata>
  <defs
     id="defs4">
    <linearGradient
       id="linearGradient3389">
      <stop
         id="stop3391"
         style="stop-color:#ffffff;stop-opacity:1"
         offset="0" />
      <stop
         id="stop3393"
         style="stop-color:#d1c89d;stop-opacity:0"
         offset="1" />
    </linearGradient>
    <linearGradient
       id="linearGradient3383">
      <stop
         id="stop3385"
         style="stop-color:#ffff06;stop-opacity:0"
         offset="0" />
      <stop
         id="stop3387"
         style="stop-color:#000000;stop-opacity:1"
         offset="1" />
    </linearGradient>
    <linearGradient
       id="linearGradient3384">
      <stop
         id="stop3386"
         style="stop-color:#008302;stop-opacity:0"
         offset="0" />
      <stop
         id="stop3388"
         style="stop-color:#000000;stop-opacity:1"
         offset="1" />
    </linearGradient>
    <linearGradient
       id="linearGradient3252">
      <stop
         id="stop3254"
         style="stop-color:#ffffff;stop-opacity:1"
         offset="0" />
      <stop
         id="stop3256"
         style="stop-color:#007f05;stop-opacity:0"
         offset="1" />
    </linearGradient>
    <radialGradient
       cx="58.01162"
       cy="63.345894"
       r="33.113495"
       fx="58.01162"
       fy="63.345894"
       id="radialGradient2333"
       xlink:href="#linearGradient3389"
       gradientUnits="userSpaceOnUse"
       gradientTransform="matrix(0.1887019,0,0,0.1887019,59.380008,7.8885765)" />
    <linearGradient
       x1="25.398125"
       y1="63.345894"
       x2="90.625114"
       y2="63.345894"
       id="linearGradient2336"
       xlink:href="#linearGradient3383"
       gradientUnits="userSpaceOnUse"
       gradientTransform="matrix(0.2377304,0.2377304,-0.2377304,0.2377304,75.66753,-4.8518641)" />
    <radialGradient
       cx="58.01162"
       cy="63.345894"
       r="33.113495"
       fx="58.01162"
       fy="63.345894"
       id="radialGradient2374"
       xlink:href="#linearGradient3252"
       gradientUnits="userSpaceOnUse"
       gradientTransform="matrix(0.1887019,0,0,0.1887019,8.580432,7.8885765)" />
    <linearGradient
       x1="25.398125"
       y1="63.345894"
       x2="90.625114"
       y2="63.345894"
       id="linearGradient2377"
       xlink:href="#linearGradient3384"
       gradientUnits="userSpaceOnUse"
       gradientTransform="matrix(0.2377304,0.2377304,-0.2377304,0.2377304,24.867954,-4.8518641)" />
  </defs>
  <g
     id="g2487">
    <path
       d="m 93.798886,32.620885 c 0.0011,6.056392 -4.90832,10.96663 -10.96471,10.96663 -6.05639,0 -10.96577,-4.910238 -10.96471,-10.96663 -0.0011,-6.056392 4.90832,-10.96663 10.96471,-10.96663 6.05639,0 10.96577,4.910238 10.96471,10.96663 l 0,0 z"
       inkscape:connector-curvature="0"
       id="path2451"
       style="fill:#dcdee3;fill-opacity:1;fill-rule:evenodd;stroke:none" />
    <path
       d="m 85.250426,24.039257 c 0.0011,6.056392 -4.908318,10.96663 -10.96471,10.96663 -6.056392,0 -10.96577,-4.910238 -10.96471,-10.96663 -0.0011,-6.056392 4.908318,-10.96663 10.96471,-10.96663 6.056392,0 10.96577,4.910238 10.96471,10.96663 l 0,0 z"
       inkscape:connector-curvature="0"
       id="path2258"
       style="fill:#c7cfcc;fill-opacity:0.78089887;fill-rule:evenodd;stroke:#000000;stroke-width:0.33620161px;stroke-linecap:butt;stroke-linejoin:miter;stroke-opacity:1" />
    <path
       d="m 82.152631,31.751731 c -4.281766,4.283265 -11.225283,4.283873 -15.507798,0.0014 -4.282517,-4.282516 -4.281908,-11.226033 0.0014,-15.507798 4.281766,-4.283266 11.225283,-4.283874 15.507799,-0.0014 4.282515,4.282516 4.281907,11.226033 -0.0014,15.507799 l 0,0 z"
       inkscape:connector-curvature="0"
       id="path2260"
       style="opacity:0.71739131;fill:url(#linearGradient2336);fill-opacity:1;fill-rule:evenodd;stroke:none" />
    <path
       d="m 76.481136,19.842065 c 5.95e-4,3.399306 -2.75492,6.155305 -6.154227,6.155305 -3.399307,0 -6.154822,-2.755999 -6.154227,-6.155305 -5.95e-4,-3.399307 2.75492,-6.155305 6.154227,-6.155305 3.399307,0 6.154822,2.755998 6.154227,6.155305 l 0,0 z"
       inkscape:connector-curvature="0"
       id="path2262"
       style="fill:url(#radialGradient2333);fill-opacity:1;fill-rule:evenodd;stroke:none" />
  </g>
  <use
     transform="translate(0,45.369392)"
     id="use2493"
     x="0"
     y="0"
     width="100"
     height="100"
     xlink:href="#g2487" />
  <g
     id="g2478">
    <path
       d="m 42.999306,32.620885 c 0.0011,6.056392 -4.90832,10.96663 -10.96471,10.96663 -6.05639,0 -10.96577,-4.910238 -10.96471,-10.96663 -0.0011,-6.056392 4.90832,-10.96663 10.96471,-10.96663 6.05639,0 10.96577,4.910238 10.96471,10.96663 l 0,0 z"
       inkscape:connector-curvature="0"
       id="path2461"
       style="fill:#e4e6e1;fill-opacity:1;fill-rule:evenodd;stroke:none" />
    <g
       id="g3349">
      <path
         d="m 34.45085,24.039257 c 0.0011,6.056392 -4.908318,10.96663 -10.96471,10.96663 -6.056392,0 -10.96577,-4.910238 -10.96471,-10.96663 -0.0011,-6.056392 4.908318,-10.96663 10.96471,-10.96663 6.056392,0 10.96577,4.910238 10.96471,10.96663 l 0,0 z"
         inkscape:connector-curvature="0"
         id="path3474"
         style="fill:#00ab00;fill-opacity:1;fill-rule:evenodd;stroke:#000000;stroke-width:0.33620161px;stroke-linecap:butt;stroke-linejoin:miter;stroke-opacity:1" />
      <path
         d="m 31.353055,31.751731 c -4.281766,4.283265 -11.225283,4.283873 -15.507798,0.0014 -4.282517,-4.282516 -4.281908,-11.226033 0.0014,-15.507798 4.281766,-4.283266 11.225283,-4.283874 15.507799,-0.0014 4.282515,4.282516 4.281907,11.226033 -0.0014,15.507799 l 0,0 z"
         inkscape:connector-curvature="0"
         id="path3476"
         style="opacity:0.71739131;fill:url(#linearGradient2377);fill-opacity:1;fill-rule:evenodd;stroke:none" />
      <path
         d="m 25.68156,19.842065 c 5.95e-4,3.399306 -2.75492,6.155305 -6.154227,6.155305 -3.399307,0 -6.154822,-2.755999 -6.154227,-6.155305 -5.95e-4,-3.399307 2.75492,-6.155305 6.154227,-6.155305 3.399307,0 6.154822,2.755998 6.154227,6.155305 l 0,0 z"
         inkscape:connector-curvature="0"
         id="path3478"
         style="fill:url(#radialGradient2374);fill-opacity:1;fill-rule:evenodd;stroke:none" />
    </g>
  </g>
  <use
     transform="translate(0,45.312557)"
     id="use2485"
     x="0"
     y="0"
     width="100"
     height="100"
     xlink:href="#g2478" />
  <path
     d="m 57.434386,98.042375 0,-85.555404"
     inkscape:connector-curvature="0"
     id="path2475"
     style="opacity:0.64130435;fill:none;stroke:#e0e1e0;stroke-width:3;stroke-linecap:round;stroke-linejoin:round;stroke-miterlimit:4;stroke-opacity:1;stroke-dasharray:6, 3;stroke-dashoffset:0" />
  <path
     d="m 48.885925,89.460748 0,-85.5554052"
     inkscape:connector-curvature="0"
     id="path3261"
     style="opacity:0.64130435;fill:none;stroke:#000000;stroke-width:3;stroke-linecap:round;stroke-linejoin:round;stroke-miterlimit:4;stroke-opacity:1;stroke-dasharray:6, 3;stroke-dashoffset:0" />
</svg>
