<?xml version="1.0" encoding="UTF-8" standalone="no"?>
<!-- Created with Inkscape (http://www.inkscape.org/) -->
<svg
   xmlns:svg="http://www.w3.org/2000/svg"
   xmlns="http://www.w3.org/2000/svg"
   xmlns:xlink="http://www.w3.org/1999/xlink"
   version="1.0"
   width="100"
   height="100"
   id="svg2">
  <defs
     id="defs4">
    <linearGradient
       id="linearGradient3939">
      <stop
         id="stop3941"
         style="stop-color:#e4e4e1;stop-opacity:1"
         offset="0" />
      <stop
         id="stop3943"
         style="stop-color:#000000;stop-opacity:1"
         offset="1" />
    </linearGradient>
    <linearGradient
       id="linearGradient3384">
      <stop
         id="stop3386"
         style="stop-color:#0000ff;stop-opacity:1"
         offset="0" />
      <stop
         id="stop3388"
         style="stop-color:#000000;stop-opacity:1"
         offset="1" />
    </linearGradient>
    <linearGradient
       id="linearGradient3252">
      <stop
         id="stop3254"
         style="stop-color:#ffffff;stop-opacity:1"
         offset="0" />
      <stop
         id="stop3256"
         style="stop-color:#d1d8d6;stop-opacity:0"
         offset="1" />
    </linearGradient>
    <linearGradient
       x1="25.398125"
       y1="63.345894"
       x2="90.625114"
       y2="63.345894"
       id="linearGradient3433"
       xlink:href="#linearGradient3384"
       gradientUnits="userSpaceOnUse"
       gradientTransform="matrix(0.2377304,0.2377304,-0.2377304,0.2377304,130.10411,3.861581)" />
    <radialGradient
       cx="58.01162"
       cy="63.345894"
       r="33.113495"
       fx="58.01162"
       fy="63.345894"
       id="radialGradient3435"
       xlink:href="#linearGradient3252"
       gradientUnits="userSpaceOnUse"
       gradientTransform="matrix(0.1887019,0,0,0.1887019,113.81659,16.602022)" />
    <linearGradient
       x1="40.687019"
       y1="39.968079"
       x2="73.02729"
       y2="39.968079"
       id="linearGradient2699"
       xlink:href="#linearGradient3613"
       gradientUnits="userSpaceOnUse"
       gradientTransform="matrix(-1.0713241e-4,-0.2753572,-0.2753572,1.0713241e-4,60.966282,48.498232)" />
    <linearGradient
       id="linearGradient3613">
      <stop
         id="stop3615"
         style="stop-color:#00004c;stop-opacity:1"
         offset="0" />
      <stop
         id="stop3617"
         style="stop-color:#0000ae;stop-opacity:1"
         offset="1" />
    </linearGradient>
    <linearGradient
       id="linearGradient3252-2">
      <stop
         id="stop3254-3"
         style="stop-color:#ffffff;stop-opacity:1"
         offset="0" />
      <stop
         id="stop3256-7"
         style="stop-color:#7f7fff;stop-opacity:0"
         offset="1" />
    </linearGradient>
    <radialGradient
       cx="-89.470657"
       cy="6.2001209"
       r="33.767956"
       fx="-89.470657"
       fy="6.2001209"
       id="radialGradient3116"
       xlink:href="#linearGradient3252-2"
       gradientUnits="userSpaceOnUse"
       gradientTransform="matrix(0.6826551,0,0,5.177658e-2,99.10748,-30.75102)" />
    <linearGradient
       x1="25.398125"
       y1="63.345894"
       x2="90.625114"
       y2="63.345894"
       id="linearGradient3167"
       xlink:href="#linearGradient3939"
       gradientUnits="userSpaceOnUse"
       gradientTransform="matrix(0.2377304,0.2377304,-0.2377304,0.2377304,130.10411,3.861581)" />
    <radialGradient
       cx="58.01162"
       cy="63.345894"
       r="33.113495"
       fx="58.01162"
       fy="63.345894"
       id="radialGradient3169"
       xlink:href="#linearGradient3252"
       gradientUnits="userSpaceOnUse"
       gradientTransform="matrix(0.1887019,0,0,0.1887019,113.81659,16.602022)" />
    <linearGradient
       x1="25.398125"
       y1="63.345894"
       x2="90.625114"
       y2="63.345894"
       id="linearGradient4023"
       xlink:href="#linearGradient3939"
       gradientUnits="userSpaceOnUse"
       gradientTransform="matrix(0.2377304,0.2377304,-0.2377304,0.2377304,130.10411,3.861581)" />
    <radialGradient
       cx="58.01162"
       cy="63.345894"
       r="33.113495"
       fx="58.01162"
       fy="63.345894"
       id="radialGradient4025"
       xlink:href="#linearGradient3252"
       gradientUnits="userSpaceOnUse"
       gradientTransform="matrix(0.1887019,0,0,0.1887019,113.81659,16.602022)" />
  </defs>
  <g
     transform="translate(-3.0675952,-0.2788723)"
     id="g3449">
    <path
       d="M 42.504527,49.373914 C 42.506027,57.635024 35.809437,64.332747 27.548327,64.332747 C 19.287208,64.332747 12.590658,57.635024 12.592117,49.373914 C 12.590617,41.112806 19.287208,34.415085 27.548327,34.415085 C 35.809437,34.415085 42.505978,41.112806 42.504527,49.373914 L 42.504527,49.373914 z"
       id="use2673"
       style="fill:#cbc9c6;fill-opacity:1;fill-rule:evenodd;stroke:none" />
    <g
       transform="matrix(1.3640315,0,0,1.3640315,-151.23644,1.217585)"
       id="use2652">
      <path
         d="M 139.687,32.752702 C 139.688,38.809094 134.77869,43.719332 128.7223,43.719332 C 122.6659,43.719332 117.75652,38.809094 117.75759,32.752702 C 117.75659,26.696311 122.6659,21.786072 128.7223,21.786072 C 134.77869,21.786072 139.68807,26.696311 139.687,32.752702 L 139.687,32.752702 z"
         id="path3427"
         style="fill:#0000ff;fill-opacity:1;fill-rule:evenodd;stroke:#000000;stroke-width:0.33620161px;stroke-linecap:butt;stroke-linejoin:miter;stroke-opacity:1" />
      <path
         d="M 136.58921,40.465176 C 132.30745,44.748442 125.36393,44.74905 121.08141,40.466576 C 116.7989,36.184061 116.7995,29.240544 121.08241,24.958778 C 125.36418,20.675512 132.30769,20.674904 136.59021,24.957378 C 140.87272,29.239895 140.87212,36.183412 136.58921,40.465177 L 136.58921,40.465177 L 136.58921,40.465176 z"
         id="path3429"
         style="opacity:0.71739131;fill:url(#linearGradient3433);fill-opacity:1;fill-rule:evenodd;stroke:none" />
      <path
         d="M 130.91772,28.55551 C 130.91831,31.954817 128.16279,34.710815 124.76349,34.710815 C 121.36418,34.710815 118.60867,31.954817 118.60926,28.55551 C 118.60867,25.156203 121.36418,22.400205 124.76349,22.400205 C 128.16279,22.400205 130.91831,25.156203 130.91772,28.55551 L 130.91772,28.55551 z"
         id="path3431"
         style="fill:url(#radialGradient3435);fill-opacity:1;fill-rule:evenodd;stroke:none" />
    </g>
  </g>
  <g
     transform="matrix(0.67664,1.1719749,-1.1719749,0.67664,38.302031,-56.537425)"
     id="g8180"
     style="stroke-width:2.21683598;stroke-miterlimit:4;stroke-dasharray:none">
    <path
       d="M 52.960855,12.693959 C 52.960855,24.45502 52.960855,24.45502 52.960855,24.45502 L 52.960855,24.45502"
       id="path7205"
       style="fill:none;stroke:#000000;stroke-width:2.21683598;stroke-linecap:butt;stroke-linejoin:miter;stroke-miterlimit:4;stroke-dasharray:none;stroke-opacity:1" />
    <path
       d="M 53.038449,12.412092 C 49.131266,19.179532 49.131266,19.179532 49.131266,19.179532 L 49.131266,19.179532"
       id="path7207"
       style="fill:none;stroke:#000000;stroke-width:2.21683598;stroke-linecap:butt;stroke-linejoin:miter;stroke-miterlimit:4;stroke-dasharray:none;stroke-opacity:1" />
    <path
       d="M 52.865223,12.403831 C 56.772406,19.171271 56.772406,19.171271 56.772406,19.171271 L 56.772406,19.171271"
       id="path7209"
       style="fill:none;stroke:#000000;stroke-width:2.21683598;stroke-linecap:butt;stroke-linejoin:miter;stroke-miterlimit:4;stroke-dasharray:none;stroke-opacity:1" />
  </g>
  <use
     transform="matrix(1,0,0,-1,-2.9630316e-6,93.17973)"
     id="use2692"
     x="0"
     y="0"
     width="100"
     height="100"
     xlink:href="#g8180" />
  <rect
     width="39.724171"
     height="86.27739"
     x="1.7505176"
     y="5.9671154"
     id="rect4688"
     style="fill:none;stroke:#000000;stroke-width:2.44979715;stroke-linecap:round;stroke-linejoin:round;stroke-miterlimit:4;stroke-dasharray:4.89959399, 2.449797;stroke-dashoffset:0;stroke-opacity:1" />
  <g
     transform="translate(56.889947,-27.050612)"
     id="use3458">
    <path
       d="M 42.504527,49.373914 C 42.506027,57.635024 35.809437,64.332747 27.548327,64.332747 C 19.287208,64.332747 12.590658,57.635024 12.592117,49.373914 C 12.590617,41.112806 19.287208,34.415085 27.548327,34.415085 C 35.809437,34.415085 42.505978,41.112806 42.504527,49.373914 L 42.504527,49.373914 z"
       id="path3157"
       style="fill:#cbc9c6;fill-opacity:1;fill-rule:evenodd;stroke:none" />
    <g
       transform="matrix(1.3640315,0,0,1.3640315,-151.23644,1.217585)"
       id="g3159">
      <path
         d="M 139.687,32.752702 C 139.688,38.809094 134.77869,43.719332 128.7223,43.719332 C 122.6659,43.719332 117.75652,38.809094 117.75759,32.752702 C 117.75659,26.696311 122.6659,21.786072 128.7223,21.786072 C 134.77869,21.786072 139.68807,26.696311 139.687,32.752702 L 139.687,32.752702 z"
         id="path3161"
         style="fill:#d5d1ff;fill-opacity:1;fill-rule:evenodd;stroke:#000000;stroke-width:0.33620161px;stroke-linecap:butt;stroke-linejoin:miter;stroke-opacity:1" />
      <path
         d="M 136.58921,40.465176 C 132.30745,44.748442 125.36393,44.74905 121.08141,40.466576 C 116.7989,36.184061 116.7995,29.240544 121.08241,24.958778 C 125.36418,20.675512 132.30769,20.674904 136.59021,24.957378 C 140.87272,29.239895 140.87212,36.183412 136.58921,40.465177 L 136.58921,40.465177 L 136.58921,40.465176 z"
         id="path3163"
         style="opacity:0.71739131;fill:url(#linearGradient3167);fill-opacity:1;fill-rule:evenodd;stroke:none" />
      <path
         d="M 130.91772,28.55551 C 130.91831,31.954817 128.16279,34.710815 124.76349,34.710815 C 121.36418,34.710815 118.60867,31.954817 118.60926,28.55551 C 118.60867,25.156203 121.36418,22.400205 124.76349,22.400205 C 128.16279,22.400205 130.91831,25.156203 130.91772,28.55551 L 130.91772,28.55551 z"
         id="path3165"
         style="fill:url(#radialGradient3169);fill-opacity:1;fill-rule:evenodd;stroke:none" />
    </g>
  </g>
  <g
     transform="matrix(-0.7838963,0.3538773,-0.1975432,-0.5485991,85.113952,37.50243)"
     id="g2623">
    <path
       d="M 58.215379,28.459546 C 58.884417,28.459286 59.536998,28.963878 60.047426,29.819424 C 61.068282,31.530519 61.069364,34.311679 60.049826,36.023567 C 59.540064,36.87951 58.887814,37.226679 58.218776,37.22694 C 58.045573,37.227007 57.892795,37.22814 57.692545,37.22054 L 13.961232,37.23755 L 13.957832,28.477749 L 58.215373,28.459519 L 58.215379,28.459546 z"
       id="path2625"
       style="fill:#0000bc;fill-opacity:1;fill-rule:evenodd;stroke:#000000;stroke-width:0.13767864;stroke-linecap:round;stroke-linejoin:round;stroke-miterlimit:4;stroke-dasharray:none;stroke-dashoffset:2.63393869;stroke-opacity:1" />
    <path
       d="M 58.215379,28.459546 C 58.884417,28.459286 59.536998,28.963877 60.047426,29.819423 C 61.068282,31.530517 61.069364,34.311679 60.049826,36.023566 C 59.540064,36.879511 58.887814,37.226679 58.218776,37.22694 C 58.045573,37.227007 57.892794,37.22814 57.692545,37.22054 L 13.998636,37.23754 L 13.995236,28.477737 L 58.215373,28.459517 L 58.215379,28.459546 z"
       id="path2627"
       style="fill:url(#linearGradient2699);fill-opacity:1;fill-rule:evenodd;stroke:none" />
    <g
       transform="matrix(-2.0714255e-5,-0.2753572,-5.324084e-2,1.0713241e-4,17.713903,29.639699)"
       id="g2629"
       style="fill:#00007c;fill-opacity:1">
      <path
         d="M 90.625114,63.345894 C 90.628268,81.36006 76.025786,95.9651 58.011619,95.9651 C 39.997453,95.9651 25.394971,81.36006 25.398125,63.345894 C 25.394925,45.331728 39.997453,30.726688 58.011619,30.726688 C 76.025786,30.726688 90.628268,45.331728 90.625114,63.345894 L 90.625114,63.345894 L 90.625114,63.345894 z"
         transform="matrix(0,-0.2910472,0.4882663,0,-42.57093,87.178008)"
         id="path2631"
         style="fill:#00007c;fill-opacity:1;fill-rule:evenodd;stroke:#000000;stroke-width:1px;stroke-linecap:butt;stroke-linejoin:miter;stroke-opacity:1" />
      <path
         d="M 90.625114,63.345894 C 90.628268,81.36006 76.025786,95.9651 58.011619,95.9651 C 39.997453,95.9651 25.394971,81.36006 25.398125,63.345894 C 25.394925,45.331728 39.997453,30.726688 58.011619,30.726688 C 76.025786,30.726688 90.628268,45.331728 90.625114,63.345894 L 90.625114,63.345894 L 90.625114,63.345894 z"
         transform="matrix(0.3452564,-0.2058015,0.3452564,0.2058015,-53.442293,69.13691)"
         id="path2633"
         style="opacity:0.71739131;fill:#00007c;fill-opacity:1;fill-rule:evenodd;stroke:#000000;stroke-width:1px;stroke-linecap:butt;stroke-linejoin:miter;stroke-opacity:1" />
    </g>
    <rect
       width="46.103737"
       height="3.4967785"
       x="14.978013"
       y="-32.178391"
       transform="matrix(0.9999999,-3.8906696e-4,-3.8906696e-4,-0.9999999,0,0)"
       id="rect2635"
       style="fill:url(#radialGradient3116);fill-opacity:1;fill-rule:evenodd;stroke:none" />
  </g>
  <use
     transform="matrix(1,0,0,-1,-1.2306002e-7,92.16693)"
     id="use4009"
     x="0"
     y="0"
     width="100"
     height="100"
     xlink:href="#g2623" />
  <g
     transform="translate(56.889947,26.388552)"
     id="g4011">
    <path
       d="M 42.504527,49.373914 C 42.506027,57.635024 35.809437,64.332747 27.548327,64.332747 C 19.287208,64.332747 12.590658,57.635024 12.592117,49.373914 C 12.590617,41.112806 19.287208,34.415085 27.548327,34.415085 C 35.809437,34.415085 42.505978,41.112806 42.504527,49.373914 L 42.504527,49.373914 z"
       id="path4013"
       style="fill:#cbc9c6;fill-opacity:1;fill-rule:evenodd;stroke:none" />
    <g
       transform="matrix(1.3640315,0,0,1.3640315,-151.23644,1.217585)"
       id="g4015">
      <path
         d="M 139.687,32.752702 C 139.688,38.809094 134.77869,43.719332 128.7223,43.719332 C 122.6659,43.719332 117.75652,38.809094 117.75759,32.752702 C 117.75659,26.696311 122.6659,21.786072 128.7223,21.786072 C 134.77869,21.786072 139.68807,26.696311 139.687,32.752702 L 139.687,32.752702 z"
         id="path4017"
         style="fill:#d5d1ff;fill-opacity:1;fill-rule:evenodd;stroke:#000000;stroke-width:0.33620161px;stroke-linecap:butt;stroke-linejoin:miter;stroke-opacity:1" />
      <path
         d="M 136.58921,40.465176 C 132.30745,44.748442 125.36393,44.74905 121.08141,40.466576 C 116.7989,36.184061 116.7995,29.240544 121.08241,24.958778 C 125.36418,20.675512 132.30769,20.674904 136.59021,24.957378 C 140.87272,29.239895 140.87212,36.183412 136.58921,40.465177 L 136.58921,40.465177 L 136.58921,40.465176 z"
         id="path4019"
         style="opacity:0.71739131;fill:url(#linearGradient4023);fill-opacity:1;fill-rule:evenodd;stroke:none" />
      <path
         d="M 130.91772,28.55551 C 130.91831,31.954817 128.16279,34.710815 124.76349,34.710815 C 121.36418,34.710815 118.60867,31.954817 118.60926,28.55551 C 118.60867,25.156203 121.36418,22.400205 124.76349,22.400205 C 128.16279,22.400205 130.91831,25.156203 130.91772,28.55551 L 130.91772,28.55551 z"
         id="path4021"
         style="fill:url(#radialGradient4025);fill-opacity:1;fill-rule:evenodd;stroke:none" />
    </g>
  </g>
</svg>
