<?xml version="1.0" encoding="UTF-8" standalone="no"?>
<!-- Created with Inkscape (http://www.inkscape.org/) -->

<svg
   xmlns:dc="http://purl.org/dc/elements/1.1/"
   xmlns:cc="http://creativecommons.org/ns#"
   xmlns:rdf="http://www.w3.org/1999/02/22-rdf-syntax-ns#"
   xmlns:svg="http://www.w3.org/2000/svg"
   xmlns="http://www.w3.org/2000/svg"
   xmlns:xlink="http://www.w3.org/1999/xlink"
   xmlns:inkscape="http://www.inkscape.org/namespaces/inkscape"
   version="1.0"
   width="100"
   height="100"
   id="svg2">
  <metadata
     id="metadata2566">
    <rdf:RDF>
      <cc:Work
         rdf:about="">
        <dc:format>image/svg+xml</dc:format>
        <dc:type
           rdf:resource="http://purl.org/dc/dcmitype/StillImage" />
      </cc:Work>
    </rdf:RDF>
  </metadata>
  <defs
     id="defs4">
    <radialGradient
       cx="58.01162"
       cy="63.345894"
       r="33.113495"
       fx="58.01162"
       fy="63.345894"
       id="radialGradient3369"
       xlink:href="#linearGradient3252"
       gradientUnits="userSpaceOnUse"
       gradientTransform="matrix(0.2740521,0,0,0.2740521,28.80419,13.981316)" />
    <linearGradient
       x1="25.398125"
       y1="63.345894"
       x2="90.625114"
       y2="63.345894"
       id="linearGradient3367"
       xlink:href="#linearGradient3384"
       gradientUnits="userSpaceOnUse"
       gradientTransform="matrix(0.3452564,0.3452564,-0.3452564,0.3452564,52.458591,-4.5216519)" />
    <linearGradient
       id="linearGradient3384">
      <stop
         id="stop3386"
         style="stop-color:#0000ff;stop-opacity:1"
         offset="0" />
      <stop
         id="stop3388"
         style="stop-color:#000000;stop-opacity:1"
         offset="1" />
    </linearGradient>
    <linearGradient
       id="linearGradient3252">
      <stop
         id="stop3254"
         style="stop-color:#ffffff;stop-opacity:1"
         offset="0" />
      <stop
         id="stop3256"
         style="stop-color:#7f7fff;stop-opacity:0"
         offset="1" />
    </linearGradient>
  </defs>
  <g
     transform="matrix(1.5215343,0,0,1.5215343,-12.933513,-10.008492)"
     id="g3376">
    <path
       d="m 35.79613,34.309543 c -4.281766,4.283265 -11.225283,4.283873 -15.507798,0.0014 -4.282516,-4.282515 -4.281908,-11.226032 0.0014,-15.507798 4.281765,-4.283266 11.225282,-4.283874 15.507798,-0.0014 4.282515,4.282516 4.281907,11.226033 -0.0014,15.507799 l 0,0 z"
       inkscape:connector-curvature="0"
       id="path3390"
       style="fill:#c5c1c2;fill-opacity:1;fill-rule:evenodd;stroke:none" />
    <g
       transform="matrix(0.688562,0,0,0.688562,-8.9406523,-2.1904593)"
       id="g3651">
      <path
         d="m 66.37585,37.436982 c 0.0015,8.79571 -7.12836,15.926859 -15.924071,15.926859 -8.79571,0 -15.92561,-7.131149 -15.92407,-15.926859 -0.0015,-8.79571 7.12836,-15.926859 15.92407,-15.926859 8.795711,0 15.925611,7.131149 15.924071,15.926859 l 0,0 z"
         inkscape:connector-curvature="0"
         id="path3393"
         style="fill:#0000ff;fill-opacity:1;fill-rule:evenodd;stroke:#000000;stroke-width:0.48826629px;stroke-linecap:butt;stroke-linejoin:miter;stroke-opacity:1" />
      <path
         d="m 61.876916,48.637824 c -6.218417,6.220595 -16.302501,6.221478 -22.522007,0.002 -6.219507,-6.219506 -6.218623,-16.30359 0.002,-22.522007 6.218417,-6.220596 16.302501,-6.221479 22.522007,-0.002 6.219506,6.219507 6.218623,16.303591 -0.002,22.522008 l 0,0 z"
         inkscape:connector-curvature="0"
         id="path3395"
         style="opacity:0.71739131;fill:url(#linearGradient3367);fill-opacity:1;fill-rule:evenodd;stroke:none" />
      <path
         d="m 53.640193,31.341391 c 8.64e-4,4.93682 -4.000977,8.939362 -8.937797,8.939362 -4.93682,0 -8.938661,-4.002542 -8.937797,-8.939362 -8.64e-4,-4.93682 4.000977,-8.939362 8.937797,-8.939362 4.93682,0 8.938661,4.002542 8.937797,8.939362 l 0,0 z"
         inkscape:connector-curvature="0"
         id="path3397"
         style="fill:url(#radialGradient3369);fill-opacity:1;fill-rule:evenodd;stroke:none" />
    </g>
  </g>
  <use
     transform="translate(44.848481,15.640271)"
     id="use3383"
     x="0"
     y="0"
     width="100"
     height="100"
     xlink:href="#g3376" />
  <use
     transform="translate(-36.298796,28.871839)"
     id="use3385"
     x="0"
     y="0"
     width="100"
     height="100"
     xlink:href="#use3383" />
  <rect
     width="95.778549"
     height="96.045403"
     x="1.884855"
     y="1.8539581"
     id="rect4688"
     style="fill:none;stroke:#000000;stroke-width:3.28844762;stroke-linecap:round;stroke-linejoin:round;stroke-miterlimit:4;stroke-opacity:1;stroke-dasharray:6.57689519, 3.2884476;stroke-dashoffset:0" />
</svg>
