<?xml version="1.0" encoding="UTF-8" standalone="no"?>
<!-- Created with Inkscape (http://www.inkscape.org/) -->

<svg
   xmlns:dc="http://purl.org/dc/elements/1.1/"
   xmlns:cc="http://creativecommons.org/ns#"
   xmlns:rdf="http://www.w3.org/1999/02/22-rdf-syntax-ns#"
   xmlns:svg="http://www.w3.org/2000/svg"
   xmlns="http://www.w3.org/2000/svg"
   xmlns:sodipodi="http://sodipodi.sourceforge.net/DTD/sodipodi-0.dtd"
   xmlns:inkscape="http://www.inkscape.org/namespaces/inkscape"
   version="1.0"
   width="100"
   height="100"
   id="svg2"
   sodipodi:version="0.32"
   inkscape:version="0.48.1 r9760"
   sodipodi:docname="stack_minimiser.svg"
   inkscape:output_extension="org.inkscape.output.svg.inkscape">
  <metadata
     id="metadata2566">
    <rdf:RDF>
      <cc:Work
         rdf:about="">
        <dc:format>image/svg+xml</dc:format>
        <dc:type
           rdf:resource="http://purl.org/dc/dcmitype/StillImage" />
      </cc:Work>
    </rdf:RDF>
  </metadata>
  <sodipodi:namedview
     inkscape:window-height="714"
     inkscape:window-width="1024"
     inkscape:pageshadow="2"
     inkscape:pageopacity="0.0"
     guidetolerance="10.0"
     gridtolerance="10.0"
     objecttolerance="10.0"
     borderopacity="1.0"
     bordercolor="#666666"
     pagecolor="#ffffff"
     id="base"
     inkscape:zoom="3.4648232"
     inkscape:cx="15.443001"
     inkscape:cy="52.0223"
     inkscape:window-x="50"
     inkscape:window-y="6"
     inkscape:current-layer="svg2"
     showgrid="false"
     inkscape:window-maximized="0" />
  <defs
     id="defs4">
    <marker
       inkscape:stockid="Arrow1Lend"
       orient="auto"
       refY="0.0"
       refX="0.0"
       id="Arrow1Lend"
       style="overflow:visible;">
      <path
         id="path4249"
         d="M 0.0,0.0 L 5.0,-5.0 L -12.5,0.0 L 5.0,5.0 L 0.0,0.0 z "
         style="fill-rule:evenodd;stroke:#000000;stroke-width:1.0pt;marker-start:none;"
         transform="scale(0.8) rotate(180) translate(12.5,0)" />
    </marker>
  </defs>
  <g
     id="g4561"
     transform="matrix(1.2245741,0,0,1.2245741,-42.769176,-115.11553)">
    <g
       transform="matrix(0,1,-1,0,78.380187,17.531922)"
       id="g4443"
       style="fill:none;stroke:#e4e6e6;stroke-opacity:1">
      <path
         id="path4445"
         d="m 82.934744,-33.943015 c 0,71.804309 0,68.682376 0,68.682376"
         style="fill:none;stroke:#e4e6e6;stroke-width:2.21302867;stroke-linecap:butt;stroke-linejoin:miter;stroke-miterlimit:4;stroke-opacity:1;stroke-dasharray:none"
         inkscape:connector-curvature="0" />
      <path
         id="path4447"
         d="m 96.773497,-33.943015 c 0,71.804309 0,68.682376 0,68.682376"
         style="fill:none;stroke:#e4e6e6;stroke-width:2.21302867;stroke-linecap:butt;stroke-linejoin:miter;stroke-miterlimit:4;stroke-opacity:1;stroke-dasharray:none"
         inkscape:connector-curvature="0" />
      <path
         id="path4449"
         d="m 138.28975,-33.943015 c 0,71.804309 0,68.682376 0,68.682376"
         style="fill:none;stroke:#e4e6e6;stroke-width:2.21302867;stroke-linecap:butt;stroke-linejoin:miter;stroke-miterlimit:4;stroke-opacity:1;stroke-dasharray:none"
         inkscape:connector-curvature="0" />
      <path
         id="path4451"
         d="m 110.61225,-33.943015 c 0,71.804309 0,68.682376 0,68.682376"
         style="fill:none;stroke:#e4e6e6;stroke-width:2.21302867;stroke-linecap:butt;stroke-linejoin:miter;stroke-miterlimit:4;stroke-opacity:1;stroke-dasharray:none"
         inkscape:connector-curvature="0" />
      <path
         id="path4453"
         d="m 124.451,-33.943015 c 0,71.804309 0,68.682376 0,68.682376"
         style="fill:none;stroke:#e4e6e6;stroke-width:2.21302867;stroke-linecap:butt;stroke-linejoin:miter;stroke-miterlimit:4;stroke-opacity:1;stroke-dasharray:none"
         inkscape:connector-curvature="0" />
    </g>
    <path
       style="fill:none;stroke:#e4e6e6;stroke-width:2.21302867;stroke-linecap:butt;stroke-linejoin:miter;stroke-miterlimit:4;stroke-opacity:1;stroke-dasharray:none"
       d="m 57.350632,99.012951 c 0,71.804309 0,68.682379 0,68.682379"
       id="path4455"
       inkscape:connector-curvature="0" />
    <path
       style="fill:none;stroke:#e4e6e6;stroke-width:2.21302867;stroke-linecap:butt;stroke-linejoin:miter;stroke-miterlimit:4;stroke-opacity:1;stroke-dasharray:none"
       d="m 71.189385,99.012951 c 0,71.804309 0,68.682379 0,68.682379"
       id="path4457"
       inkscape:connector-curvature="0" />
    <path
       style="fill:none;stroke:#e4e6e6;stroke-width:2.21302867;stroke-linecap:butt;stroke-linejoin:miter;stroke-miterlimit:4;stroke-opacity:1;stroke-dasharray:none"
       d="m 112.70563,99.012951 c 0,71.804309 0,68.682379 0,68.682379"
       id="path4459"
       inkscape:connector-curvature="0" />
    <path
       style="fill:none;stroke:#e4e6e6;stroke-width:2.21302867;stroke-linecap:butt;stroke-linejoin:miter;stroke-miterlimit:4;stroke-opacity:1;stroke-dasharray:none"
       d="m 85.028136,99.012951 c 0,71.804309 0,68.682379 0,68.682379"
       id="path4461"
       inkscape:connector-curvature="0" />
    <path
       style="fill:none;stroke:#e4e6e6;stroke-width:2.21302867;stroke-linecap:butt;stroke-linejoin:miter;stroke-miterlimit:4;stroke-opacity:1;stroke-dasharray:none"
       d="m 98.866887,99.012951 c 0,71.804309 0,68.682379 0,68.682379"
       id="path4463"
       inkscape:connector-curvature="0" />
    <path
       id="path4465"
       d="m 48.444206,127.35436 c 20.408164,20.40816 26.12245,-34.081634 37.551021,-14.08163 11.428572,20 8.979592,53.46938 16.122453,44.48979 7.14285,-8.97959 7.14285,-8.77551 7.14285,-8.77551"
       style="fill:none;stroke:#e4e6e6;stroke-width:3;stroke-linecap:butt;stroke-linejoin:miter;stroke-miterlimit:4;stroke-opacity:1;stroke-dasharray:none"
       inkscape:connector-curvature="0" />
    <g
       transform="translate(30.07686,82.252317)"
       id="g4467"
       style="fill:none;stroke:#e4e6e6;stroke-opacity:1">
      <path
         style="fill:none;stroke:#e4e6e6;stroke-width:3.0189321;stroke-linecap:butt;stroke-linejoin:miter;stroke-miterlimit:4;stroke-opacity:1;stroke-dasharray:none"
         d="m 13.682935,16.591098 c 0,72.838211 0,70.542293 0,70.542293 70.491272,0 70.491272,0 70.491272,0"
         id="path4469"
         sodipodi:nodetypes="ccc"
         inkscape:connector-curvature="0" />
      <path
         style="fill:none;stroke:#e4e6e6;stroke-width:3;stroke-linecap:butt;stroke-linejoin:miter;stroke-miterlimit:4;stroke-opacity:1;stroke-dasharray:none"
         d="m 13.656478,87.075694 c 0,4.693877 0,4.489795 0,4.489795"
         id="path4471"
         inkscape:connector-curvature="0" />
      <path
         style="fill:none;stroke:#e4e6e6;stroke-width:3;stroke-linecap:butt;stroke-linejoin:miter;stroke-miterlimit:4;stroke-opacity:1;stroke-dasharray:none"
         d="m 27.462822,87.075694 c 0,4.693877 0,4.489795 0,4.489795"
         id="path4473"
         inkscape:connector-curvature="0" />
      <path
         style="fill:none;stroke:#e4e6e6;stroke-width:3;stroke-linecap:butt;stroke-linejoin:miter;stroke-miterlimit:4;stroke-opacity:1;stroke-dasharray:none"
         d="m 41.269169,87.075694 c 0,4.693877 0,4.489795 0,4.489795"
         id="path4475"
         inkscape:connector-curvature="0" />
      <path
         style="fill:none;stroke:#e4e6e6;stroke-width:3;stroke-linecap:butt;stroke-linejoin:miter;stroke-miterlimit:4;stroke-opacity:1;stroke-dasharray:none"
         d="m 82.688201,87.075694 c 0,4.693877 0,4.489795 0,4.489795"
         id="path4477"
         inkscape:connector-curvature="0" />
      <path
         style="fill:none;stroke:#e4e6e6;stroke-width:3;stroke-linecap:butt;stroke-linejoin:miter;stroke-miterlimit:4;stroke-opacity:1;stroke-dasharray:none"
         d="m 55.075514,87.075694 c 0,4.693877 0,4.489795 0,4.489795"
         id="path4479"
         inkscape:connector-curvature="0" />
      <path
         style="fill:none;stroke:#e4e6e6;stroke-width:3;stroke-linecap:butt;stroke-linejoin:miter;stroke-miterlimit:4;stroke-opacity:1;stroke-dasharray:none"
         d="m 68.881861,87.075694 c 0,4.693877 0,4.489795 0,4.489795"
         id="path4481"
         inkscape:connector-curvature="0" />
      <g
         id="g4483"
         transform="matrix(0,1,-1,0,114.43877,-4.5408177)"
         style="fill:none;stroke:#e4e6e6;stroke-opacity:1">
        <path
           id="path4485"
           d="m 22.626996,100.81567 c 0,4.69388 0,4.4898 0,4.4898"
           style="fill:none;stroke:#e4e6e6;stroke-width:3;stroke-linecap:butt;stroke-linejoin:miter;stroke-miterlimit:4;stroke-opacity:1;stroke-dasharray:none"
           inkscape:connector-curvature="0" />
        <path
           id="path4487"
           d="m 36.43334,100.81567 c 0,4.69388 0,4.4898 0,4.4898"
           style="fill:none;stroke:#e4e6e6;stroke-width:3;stroke-linecap:butt;stroke-linejoin:miter;stroke-miterlimit:4;stroke-opacity:1;stroke-dasharray:none"
           inkscape:connector-curvature="0" />
        <path
           id="path4489"
           d="m 50.239687,100.81567 c 0,4.69388 0,4.4898 0,4.4898"
           style="fill:none;stroke:#e4e6e6;stroke-width:3;stroke-linecap:butt;stroke-linejoin:miter;stroke-miterlimit:4;stroke-opacity:1;stroke-dasharray:none"
           inkscape:connector-curvature="0" />
        <path
           id="path4491"
           d="m 91.658719,100.81567 c 0,4.69388 0,4.4898 0,4.4898"
           style="fill:none;stroke:#e4e6e6;stroke-width:3;stroke-linecap:butt;stroke-linejoin:miter;stroke-miterlimit:4;stroke-opacity:1;stroke-dasharray:none"
           inkscape:connector-curvature="0" />
        <path
           id="path4493"
           d="m 64.046032,100.81567 c 0,4.69388 0,4.4898 0,4.4898"
           style="fill:none;stroke:#e4e6e6;stroke-width:3;stroke-linecap:butt;stroke-linejoin:miter;stroke-miterlimit:4;stroke-opacity:1;stroke-dasharray:none"
           inkscape:connector-curvature="0" />
        <path
           id="path4495"
           d="m 77.852379,100.81567 c 0,4.69388 0,4.4898 0,4.4898"
           style="fill:none;stroke:#e4e6e6;stroke-width:3;stroke-linecap:butt;stroke-linejoin:miter;stroke-miterlimit:4;stroke-opacity:1;stroke-dasharray:none"
           inkscape:connector-curvature="0" />
      </g>
    </g>
    <path
       id="path4497"
       d="m 92.86998,108.55233 c 3.265306,13.46939 3.265306,13.46939 3.265306,13.46939"
       style="opacity:0.20540544;fill:#e7e7e3;fill-opacity:1;fill-rule:evenodd;stroke:#e4e6e6;stroke-width:1px;stroke-linecap:butt;stroke-linejoin:miter;stroke-opacity:1;marker-end:url(#Arrow1Lend)"
       inkscape:connector-curvature="0" />
    <path
       id="path4499"
       d="m 100.22675,131.20402 c 0.65509,13.84404 0.65509,13.84404 0.65509,13.84404"
       style="opacity:0.20540544;fill:#e7e7e3;fill-opacity:1;fill-rule:evenodd;stroke:#e4e6e6;stroke-width:1px;stroke-linecap:butt;stroke-linejoin:miter;stroke-opacity:1;marker-end:url(#Arrow1Lend)"
       inkscape:connector-curvature="0" />
  </g>
  <g
     id="g4234"
     transform="matrix(0,1.2245741,-1.2245741,0,50.815285,-97.29761)">
    <path
       style="fill:none;stroke:#b0b2ae;stroke-width:2.21302867;stroke-linecap:butt;stroke-linejoin:miter;stroke-miterlimit:4;stroke-opacity:1;stroke-dasharray:none"
       d="m 82.934744,-33.943015 c 0,71.804309 0,68.682376 0,68.682376"
       id="path4224"
       inkscape:connector-curvature="0" />
    <path
       style="fill:none;stroke:#b0b2ae;stroke-width:2.21302867;stroke-linecap:butt;stroke-linejoin:miter;stroke-miterlimit:4;stroke-opacity:1;stroke-dasharray:none"
       d="m 96.773497,-33.943015 c 0,71.804309 0,68.682376 0,68.682376"
       id="path4226"
       inkscape:connector-curvature="0" />
    <path
       style="fill:none;stroke:#b0b2ae;stroke-width:2.21302867;stroke-linecap:butt;stroke-linejoin:miter;stroke-miterlimit:4;stroke-opacity:1;stroke-dasharray:none"
       d="m 138.28975,-33.943015 c 0,71.804309 0,68.682376 0,68.682376"
       id="path4228"
       inkscape:connector-curvature="0" />
    <path
       style="fill:none;stroke:#b0b2ae;stroke-width:2.21302867;stroke-linecap:butt;stroke-linejoin:miter;stroke-miterlimit:4;stroke-opacity:1;stroke-dasharray:none"
       d="m 110.61225,-33.943015 c 0,71.804309 0,68.682376 0,68.682376"
       id="path4230"
       inkscape:connector-curvature="0" />
    <path
       style="fill:none;stroke:#b0b2ae;stroke-width:2.21302867;stroke-linecap:butt;stroke-linejoin:miter;stroke-miterlimit:4;stroke-opacity:1;stroke-dasharray:none"
       d="m 124.451,-33.943015 c 0,71.804309 0,68.682376 0,68.682376"
       id="path4232"
       inkscape:connector-curvature="0" />
  </g>
  <path
     id="path4214"
     d="m 25.063037,2.4819445 c 0,87.9296935 0,84.1066555 0,84.1066555"
     style="fill:none;stroke:#b0b2ae;stroke-width:2.71001744;stroke-linecap:butt;stroke-linejoin:miter;stroke-miterlimit:4;stroke-opacity:1;stroke-dasharray:none"
     inkscape:connector-curvature="0" />
  <path
     id="path4216"
     d="m 42.009615,2.4819445 c 0,87.9296935 0,84.1066555 0,84.1066555"
     style="fill:none;stroke:#b0b2ae;stroke-width:2.71001744;stroke-linecap:butt;stroke-linejoin:miter;stroke-miterlimit:4;stroke-opacity:1;stroke-dasharray:none"
     inkscape:connector-curvature="0" />
  <path
     id="path4218"
     d="m 92.849337,2.4819445 c 0,87.9296935 0,84.1066555 0,84.1066555"
     style="fill:none;stroke:#b0b2ae;stroke-width:2.71001744;stroke-linecap:butt;stroke-linejoin:miter;stroke-miterlimit:4;stroke-opacity:1;stroke-dasharray:none"
     inkscape:connector-curvature="0" />
  <path
     id="path4220"
     d="m 58.956191,2.4819445 c 0,87.9296935 0,84.1066555 0,84.1066555"
     style="fill:none;stroke:#b0b2ae;stroke-width:2.71001744;stroke-linecap:butt;stroke-linejoin:miter;stroke-miterlimit:4;stroke-opacity:1;stroke-dasharray:none"
     inkscape:connector-curvature="0" />
  <path
     id="path4222"
     d="m 75.902766,2.4819445 c 0,87.9296935 0,84.1066555 0,84.1066555"
     style="fill:none;stroke:#b0b2ae;stroke-width:2.71001744;stroke-linecap:butt;stroke-linejoin:miter;stroke-miterlimit:4;stroke-opacity:1;stroke-dasharray:none"
     inkscape:connector-curvature="0" />
  <path
     style="fill:none;stroke:#ff0000;stroke-width:3.67372227;stroke-linecap:butt;stroke-linejoin:miter;stroke-miterlimit:4;stroke-opacity:1;stroke-dasharray:none"
     d="M 14.156459,37.188096 C 39.147767,62.179403 46.145334,-4.5473864 60.140465,19.944095 74.135598,44.435576 71.136641,85.421319 79.883598,74.425144 88.630555,63.428969 88.630555,63.678882 88.630555,63.678882"
     id="path2221"
     inkscape:connector-curvature="0" />
  <g
     id="g4198"
     transform="matrix(1.2245741,0,0,1.2245741,-8.3357161,-18.042693)">
    <path
       sodipodi:nodetypes="ccc"
       id="path2223"
       d="m 13.682935,16.591098 c 0,72.838211 0,70.542293 0,70.542293 70.491272,0 70.491272,0 70.491272,0"
       style="fill:none;stroke:#000000;stroke-width:3.0189321;stroke-linecap:butt;stroke-linejoin:miter;stroke-miterlimit:4;stroke-opacity:1;stroke-dasharray:none"
       inkscape:connector-curvature="0" />
    <path
       id="path2225"
       d="m 13.656478,87.075694 c 0,4.693877 0,4.489795 0,4.489795"
       style="fill:none;stroke:#000000;stroke-width:3;stroke-linecap:butt;stroke-linejoin:miter;stroke-miterlimit:4;stroke-opacity:1;stroke-dasharray:none"
       inkscape:connector-curvature="0" />
    <path
       id="path2227"
       d="m 27.462822,87.075694 c 0,4.693877 0,4.489795 0,4.489795"
       style="fill:none;stroke:#000000;stroke-width:3;stroke-linecap:butt;stroke-linejoin:miter;stroke-miterlimit:4;stroke-opacity:1;stroke-dasharray:none"
       inkscape:connector-curvature="0" />
    <path
       id="path2229"
       d="m 41.269169,87.075694 c 0,4.693877 0,4.489795 0,4.489795"
       style="fill:none;stroke:#000000;stroke-width:3;stroke-linecap:butt;stroke-linejoin:miter;stroke-miterlimit:4;stroke-opacity:1;stroke-dasharray:none"
       inkscape:connector-curvature="0" />
    <path
       id="path2231"
       d="m 82.688201,87.075694 c 0,4.693877 0,4.489795 0,4.489795"
       style="fill:none;stroke:#000000;stroke-width:3;stroke-linecap:butt;stroke-linejoin:miter;stroke-miterlimit:4;stroke-opacity:1;stroke-dasharray:none"
       inkscape:connector-curvature="0" />
    <path
       id="path2233"
       d="m 55.075514,87.075694 c 0,4.693877 0,4.489795 0,4.489795"
       style="fill:none;stroke:#000000;stroke-width:3;stroke-linecap:butt;stroke-linejoin:miter;stroke-miterlimit:4;stroke-opacity:1;stroke-dasharray:none"
       inkscape:connector-curvature="0" />
    <path
       id="path2235"
       d="m 68.881861,87.075694 c 0,4.693877 0,4.489795 0,4.489795"
       style="fill:none;stroke:#000000;stroke-width:3;stroke-linecap:butt;stroke-linejoin:miter;stroke-miterlimit:4;stroke-opacity:1;stroke-dasharray:none"
       inkscape:connector-curvature="0" />
    <g
       transform="matrix(0,1,-1,0,114.43877,-4.5408177)"
       id="g4190">
      <path
         style="fill:none;stroke:#000000;stroke-width:3;stroke-linecap:butt;stroke-linejoin:miter;stroke-miterlimit:4;stroke-opacity:1;stroke-dasharray:none"
         d="m 22.626996,100.81567 c 0,4.69388 0,4.4898 0,4.4898"
         id="path4178"
         inkscape:connector-curvature="0" />
      <path
         style="fill:none;stroke:#000000;stroke-width:3;stroke-linecap:butt;stroke-linejoin:miter;stroke-miterlimit:4;stroke-opacity:1;stroke-dasharray:none"
         d="m 36.43334,100.81567 c 0,4.69388 0,4.4898 0,4.4898"
         id="path4180"
         inkscape:connector-curvature="0" />
      <path
         style="fill:none;stroke:#000000;stroke-width:3;stroke-linecap:butt;stroke-linejoin:miter;stroke-miterlimit:4;stroke-opacity:1;stroke-dasharray:none"
         d="m 50.239687,100.81567 c 0,4.69388 0,4.4898 0,4.4898"
         id="path4182"
         inkscape:connector-curvature="0" />
      <path
         style="fill:none;stroke:#000000;stroke-width:3;stroke-linecap:butt;stroke-linejoin:miter;stroke-miterlimit:4;stroke-opacity:1;stroke-dasharray:none"
         d="m 91.658719,100.81567 c 0,4.69388 0,4.4898 0,4.4898"
         id="path4184"
         inkscape:connector-curvature="0" />
      <path
         style="fill:none;stroke:#000000;stroke-width:3;stroke-linecap:butt;stroke-linejoin:miter;stroke-miterlimit:4;stroke-opacity:1;stroke-dasharray:none"
         d="m 64.046032,100.81567 c 0,4.69388 0,4.4898 0,4.4898"
         id="path4186"
         inkscape:connector-curvature="0" />
      <path
         style="fill:none;stroke:#000000;stroke-width:3;stroke-linecap:butt;stroke-linejoin:miter;stroke-miterlimit:4;stroke-opacity:1;stroke-dasharray:none"
         d="m 77.852379,100.81567 c 0,4.69388 0,4.4898 0,4.4898"
         id="path4188"
         inkscape:connector-curvature="0" />
    </g>
  </g>
  <path
     style="fill:none;stroke:#000000;stroke-width:1.22457409px;stroke-linecap:butt;stroke-linejoin:miter;stroke-opacity:1;marker-end:url(#Arrow1Lend)"
     d="m 68.55911,14.163618 c 3.998609,16.494263 3.998609,16.494263 3.998609,16.494263"
     id="path4241"
     inkscape:connector-curvature="0" />
  <path
     style="fill:none;stroke:#000000;stroke-width:1.22457409px;stroke-linecap:butt;stroke-linejoin:miter;stroke-opacity:1;marker-end:url(#Arrow1Lend)"
     d="m 77.568014,41.902295 c 0.802215,16.953053 0.802215,16.953053 0.802215,16.953053"
     id="path4441"
     inkscape:connector-curvature="0" />
</svg>
