<?xml version="1.0" encoding="UTF-8" standalone="no"?>
<!-- Created with Inkscape (http://www.inkscape.org/) -->

<svg
   xmlns:dc="http://purl.org/dc/elements/1.1/"
   xmlns:cc="http://creativecommons.org/ns#"
   xmlns:rdf="http://www.w3.org/1999/02/22-rdf-syntax-ns#"
   xmlns:svg="http://www.w3.org/2000/svg"
   xmlns="http://www.w3.org/2000/svg"
   xmlns:inkscape="http://www.inkscape.org/namespaces/inkscape"
   version="1.0"
   width="100"
   height="100"
   id="svg2">
  <metadata
     id="metadata2566">
    <rdf:RDF>
      <cc:Work
         rdf:about="">
        <dc:format>image/svg+xml</dc:format>
        <dc:type
           rdf:resource="http://purl.org/dc/dcmitype/StillImage" />
        <dc:title />
      </cc:Work>
    </rdf:RDF>
  </metadata>
  <defs
     id="defs4" />
  <rect
     width="93.023849"
     height="78.135986"
     x="6.9740982"
     y="12.061002"
     id="rect3282"
     style="fill:#d7d2d1;fill-opacity:1;stroke-width:1.25;stroke-miterlimit:4;stroke-dasharray:none" />
  <rect
     width="95.582863"
     height="72.045944"
     x="1.4145651"
     y="11.215525"
     id="rect2422"
     style="fill:#ffffff;fill-opacity:1;fill-rule:evenodd;stroke:#000000;stroke-width:2.82502556;stroke-linecap:butt;stroke-linejoin:miter;stroke-miterlimit:4;stroke-opacity:1;stroke-dasharray:none" />
  <text
     x="5.4711967"
     y="19.724657"
     transform="scale(0.93050833,1.0746814)"
     id="text3196-2"
     xml:space="preserve"
     style="font-size:7.70949125px;font-style:normal;font-weight:bold;fill:#a39a9d;fill-opacity:1;stroke:none;font-family:Bitstream Vera Sans;-inkscape-font-specification:Bitstream Vera Sans Bold"><tspan
       x="5.4711967"
       y="19.724657"
       id="tspan3198-3">&gt; selectall();</tspan><tspan
       x="5.4711967"
       y="29.361521"
       id="tspan3204-7" /></text>
  <rect
     width="95.318893"
     height="12.194745"
     x="1.5465457"
     y="75.154449"
     id="rect3194"
     style="font-weight:bold;fill:#ffffff;fill-opacity:1;fill-rule:evenodd;stroke:#000000;stroke-width:2.82502556;stroke-linecap:butt;stroke-linejoin:miter;stroke-miterlimit:4;stroke-opacity:1;stroke-dasharray:none;-inkscape-font-specification:Sans Bold" />
  <text
     x="4.6976514"
     y="19.409893"
     transform="scale(0.93050833,1.0746814)"
     id="text3196"
     xml:space="preserve"
     style="font-size:7.70949125px;font-style:normal;font-weight:bold;fill:#000000;fill-opacity:1;stroke:none;font-family:Bitstream Vera Sans;-inkscape-font-specification:Bitstream Vera Sans Bold"><tspan
       x="4.6976514"
       y="19.409893"
       id="tspan3198">&gt; selectall();</tspan><tspan
       x="4.6976514"
       y="29.046757"
       id="tspan3204" /></text>
  <g
     transform="matrix(1.0514839,0,0,1.214401,-2.993149,-3.3381851)"
     id="text3225"
     style="font-size:6.82249689px;font-style:normal;font-weight:normal;fill:#000000;fill-opacity:1;stroke:none;font-family:Bitstream Vera Sans">
    <path
       d="m 7.0968651,71.756073 0,-4.883682 0.9360945,0 0,4.883682 -0.9360945,0"
       inkscape:connector-curvature="0"
       id="path3021"
       style="fill:#0000ff;fill-opacity:1;-inkscape-font-specification:Bitstream Vera Sans Bold" />
    <path
       d="m 8.7725076,69.937185 c -2e-7,-0.310919 0.076619,-0.611846 0.2298595,-0.902782 0.1532391,-0.29093 0.3697732,-0.513016 0.649603,-0.666259 0.2820484,-0.153237 0.5963009,-0.229856 0.9427569,-0.22986 0.535226,4e-6 0.973846,0.174341 1.315863,0.523014 0.342009,0.346457 0.513016,0.785078 0.513019,1.315862 -3e-6,0.53523 -0.173231,0.979402 -0.519682,1.332519 -0.344237,0.350897 -0.778416,0.526345 -1.302537,0.526345 -0.324248,0 -0.6340585,-0.07329 -0.9294321,-0.219865 -0.293155,-0.146577 -0.5163517,-0.360891 -0.6695908,-0.642941 -0.15324,-0.28427 -0.2298597,-0.629614 -0.2298595,-1.036033 m 0.9594137,0.04997 c -1.3e-6,0.350898 0.083281,0.619623 0.2498473,0.806174 0.1665634,0.186554 0.3719934,0.27983 0.6162904,0.279829 0.244292,10e-7 0.448612,-0.09327 0.612958,-0.279829 0.166562,-0.186551 0.249845,-0.457497 0.249848,-0.812836 -3e-6,-0.346453 -0.08329,-0.612957 -0.249848,-0.799512 -0.164346,-0.18655 -0.368666,-0.279826 -0.612958,-0.279829 -0.244297,3e-6 -0.449727,0.09328 -0.6162904,0.279829 -0.1665662,0.186555 -0.2498486,0.45528 -0.2498473,0.806174"
       inkscape:connector-curvature="0"
       id="path3023"
       style="fill:#0000ff;fill-opacity:1;-inkscape-font-specification:Bitstream Vera Sans Bold" />
    <path
       d="m 13.859398,69.297576 -0.849481,-0.15324 c 0.0955,-0.34201 0.259841,-0.595189 0.493032,-0.759536 0.23319,-0.16434 0.579645,-0.246512 1.039365,-0.246516 0.41752,4e-6 0.728441,0.04997 0.932763,0.149908 0.204317,0.09772 0.347563,0.223201 0.429738,0.376437 0.08439,0.151022 0.126586,0.42974 0.126589,0.836156 l -0.01,1.092665 c -3e-6,0.310922 0.01443,0.540781 0.04331,0.689579 0.03109,0.146577 0.08772,0.304258 0.169896,0.473044 l -0.926101,0 c -0.02443,-0.06218 -0.05441,-0.15435 -0.08995,-0.276498 -0.01555,-0.05552 -0.02665,-0.09216 -0.03331,-0.109932 -0.159904,0.15546 -0.330911,0.272056 -0.513019,0.349786 -0.182113,0.07773 -0.376439,0.116595 -0.582977,0.116595 -0.364223,0 -0.651825,-0.09883 -0.862806,-0.296485 -0.208762,-0.197657 -0.313143,-0.447504 -0.313142,-0.749542 -10e-7,-0.199877 0.04775,-0.377546 0.143245,-0.533008 0.0955,-0.15768 0.228749,-0.277606 0.399756,-0.35978 0.173227,-0.08439 0.421963,-0.157679 0.746211,-0.219866 0.437508,-0.08217 0.740656,-0.158789 0.909444,-0.229859 l 0,-0.09328 c -3e-6,-0.179888 -0.04442,-0.307587 -0.133252,-0.3831 -0.08884,-0.07773 -0.256512,-0.116592 -0.503026,-0.116595 -0.166566,3e-6 -0.296487,0.03332 -0.389762,0.09994 -0.09328,0.06441 -0.168787,0.178782 -0.226528,0.343124 m 1.252568,0.759535 c -0.119929,0.03998 -0.309813,0.08773 -0.569652,0.143246 -0.259843,0.05552 -0.429739,0.109934 -0.509688,0.163234 -0.122149,0.08661 -0.183223,0.196547 -0.183222,0.329798 -10e-7,0.131032 0.04886,0.244296 0.146577,0.339792 0.09772,0.0955 0.222085,0.143247 0.373106,0.143246 0.168783,10e-7 0.329796,-0.05552 0.483038,-0.166565 0.113262,-0.08439 0.18766,-0.187662 0.223197,-0.30981 0.02443,-0.07995 0.03664,-0.232079 0.03664,-0.456388 l 0,-0.186553"
       inkscape:connector-curvature="0"
       id="path3025"
       style="fill:#0000ff;fill-opacity:1;-inkscape-font-specification:Bitstream Vera Sans Bold" />
    <path
       d="m 20.202188,71.756073 -0.869468,0 0,-0.519682 c -0.144359,0.202099 -0.315366,0.353117 -0.51302,0.453056 -0.195438,0.09772 -0.393095,0.146577 -0.592971,0.146577 -0.40642,0 -0.755095,-0.163233 -1.046027,-0.489701 -0.288713,-0.328687 -0.433069,-0.786185 -0.433069,-1.372494 0,-0.599631 0.141024,-1.054908 0.423075,-1.365832 0.282049,-0.313138 0.638497,-0.469709 1.069346,-0.469713 0.395312,4e-6 0.737325,0.164348 1.02604,0.493032 l 0,-1.758925 0.936094,0 0,4.883682 m -2.498473,-1.845539 c -10e-7,0.377549 0.05219,0.650715 0.156571,0.819499 0.151017,0.244296 0.361999,0.366444 0.632947,0.366443 0.215421,10e-7 0.398643,-0.09105 0.549664,-0.273166 0.151016,-0.184331 0.226525,-0.458607 0.226528,-0.822831 -3e-6,-0.406416 -0.07329,-0.698459 -0.219866,-0.876131 -0.146579,-0.179887 -0.334242,-0.269832 -0.562989,-0.269835 -0.222088,3e-6 -0.408641,0.08884 -0.559658,0.266504 -0.148799,0.175451 -0.223198,0.438623 -0.223197,0.789517"
       inkscape:connector-curvature="0"
       id="path3027"
       style="fill:#0000ff;fill-opacity:1;-inkscape-font-specification:Bitstream Vera Sans Bold" />
    <path
       d="m 21.058331,68.218235 0.862806,0 0,0.483038 c 0.308699,-0.375322 0.676252,-0.562985 1.10266,-0.562989 0.226525,4e-6 0.423072,0.04664 0.589639,0.139915 0.166562,0.09328 0.303145,0.234304 0.40975,0.423074 0.155457,-0.18877 0.323132,-0.329795 0.503026,-0.423074 0.179886,-0.09327 0.371991,-0.139911 0.576314,-0.139915 0.259837,4e-6 0.479702,0.0533 0.659597,0.159902 0.179885,0.104384 0.314247,0.258734 0.403087,0.463051 0.0644,0.151021 0.0966,0.395316 0.09661,0.732885 l 0,2.261951 -0.936095,0 0,-2.022097 c -4e-6,-0.350895 -0.03221,-0.577423 -0.09661,-0.679585 -0.08662,-0.133249 -0.21987,-0.199875 -0.399756,-0.199878 -0.131035,3e-6 -0.254293,0.03998 -0.369774,0.119927 -0.115489,0.07995 -0.198771,0.197659 -0.249847,0.353117 -0.05108,0.153242 -0.07662,0.396427 -0.07662,0.729554 l 0,1.698962 -0.936095,0 0,-1.938815 c -2e-6,-0.344232 -0.01666,-0.566318 -0.04997,-0.666259 -0.03332,-0.09994 -0.08551,-0.174336 -0.156571,-0.223197 -0.06885,-0.04886 -0.163236,-0.07329 -0.28316,-0.07329 -0.144359,3e-6 -0.274279,0.03887 -0.389762,0.116595 -0.115487,0.07773 -0.198769,0.189887 -0.249848,0.336461 -0.04886,0.14658 -0.07329,0.389764 -0.07329,0.729555 l 0,1.718949 -0.936095,0 0,-3.537838"
       inkscape:connector-curvature="0"
       id="path3029"
       style="fill:#0000ff;fill-opacity:1;-inkscape-font-specification:Bitstream Vera Sans Bold" />
    <path
       d="m 26.974716,69.937185 c 0,-0.310919 0.07662,-0.611846 0.229859,-0.902782 0.153239,-0.29093 0.369774,-0.513016 0.649603,-0.666259 0.282049,-0.153237 0.596301,-0.229856 0.942758,-0.22986 0.535225,4e-6 0.973846,0.174341 1.315862,0.523014 0.342009,0.346457 0.513016,0.785078 0.51302,1.315862 -4e-6,0.53523 -0.173231,0.979402 -0.519683,1.332519 -0.344237,0.350897 -0.778415,0.526345 -1.302537,0.526345 -0.324248,0 -0.634058,-0.07329 -0.929432,-0.219865 -0.293155,-0.146577 -0.516352,-0.360891 -0.669591,-0.642941 -0.15324,-0.28427 -0.229859,-0.629614 -0.229859,-1.036033 m 0.959414,0.04997 c -2e-6,0.350898 0.08328,0.619623 0.249847,0.806174 0.166563,0.186554 0.371993,0.27983 0.61629,0.279829 0.244293,10e-7 0.448612,-0.09327 0.612959,-0.279829 0.166562,-0.186551 0.249844,-0.457497 0.249847,-0.812836 -3e-6,-0.346453 -0.08329,-0.612957 -0.249847,-0.799512 -0.164347,-0.18655 -0.368666,-0.279826 -0.612959,-0.279829 -0.244297,3e-6 -0.449727,0.09328 -0.61629,0.279829 -0.166566,0.186555 -0.249849,0.45528 -0.249847,0.806174"
       inkscape:connector-curvature="0"
       id="path3031"
       style="fill:#0000ff;fill-opacity:1;-inkscape-font-specification:Bitstream Vera Sans Bold" />
    <path
       d="m 34.606718,71.756073 -0.869469,0 0,-0.519682 c -0.144359,0.202099 -0.315365,0.353117 -0.51302,0.453056 -0.195438,0.09772 -0.393095,0.146577 -0.59297,0.146577 -0.40642,0 -0.755096,-0.163233 -1.046028,-0.489701 -0.288713,-0.328687 -0.433069,-0.786185 -0.433068,-1.372494 -1e-6,-0.599631 0.141024,-1.054908 0.423074,-1.365832 0.282049,-0.313138 0.638498,-0.469709 1.069347,-0.469713 0.395311,4e-6 0.737324,0.164348 1.026039,0.493032 l 0,-1.758925 0.936095,0 0,4.883682 m -2.498473,-1.845539 c -10e-7,0.377549 0.05219,0.650715 0.156571,0.819499 0.151017,0.244296 0.361999,0.366444 0.632946,0.366443 0.215422,10e-7 0.398643,-0.09105 0.549664,-0.273166 0.151016,-0.184331 0.226526,-0.458607 0.226529,-0.822831 -3e-6,-0.406416 -0.07329,-0.698459 -0.219866,-0.876131 -0.14658,-0.179887 -0.334242,-0.269832 -0.562989,-0.269835 -0.222089,3e-6 -0.408641,0.08884 -0.559658,0.266504 -0.1488,0.175451 -0.223198,0.438623 -0.223197,0.789517"
       inkscape:connector-curvature="0"
       id="path3033"
       style="fill:#0000ff;fill-opacity:1;-inkscape-font-specification:Bitstream Vera Sans Bold" />
    <path
       d="m 37.581566,70.630095 0.932763,0.15657 c -0.11993,0.342014 -0.309813,0.602966 -0.569652,0.782855 -0.257622,0.17767 -0.580758,0.266504 -0.969407,0.266504 -0.615181,0 -1.070458,-0.200988 -1.365832,-0.602965 -0.233191,-0.322024 -0.349786,-0.728442 -0.349786,-1.219254 0,-0.586306 0.153239,-1.044915 0.459719,-1.375826 0.306478,-0.333127 0.694019,-0.499691 1.162623,-0.499695 0.526342,4e-6 0.941644,0.174341 1.245905,0.523014 0.304255,0.346457 0.449721,0.878354 0.4364,1.595691 l -2.345234,0 c 0.0067,0.27761 0.08217,0.494144 0.226529,0.649603 0.144354,0.153241 0.324244,0.22986 0.53967,0.22986 0.146575,0 0.269833,-0.03998 0.369774,-0.119927 0.09994,-0.07995 0.175446,-0.20876 0.226528,-0.38643 m 0.0533,-0.946089 c -0.0067,-0.270943 -0.07662,-0.476373 -0.209872,-0.61629 -0.133254,-0.142132 -0.295377,-0.2132 -0.486369,-0.213203 -0.204322,3e-6 -0.373107,0.0744 -0.506357,0.223197 -0.133254,0.1488 -0.198769,0.350899 -0.196547,0.606296 l 1.399145,0"
       inkscape:connector-curvature="0"
       id="path3035"
       style="fill:#0000ff;fill-opacity:1;-inkscape-font-specification:Bitstream Vera Sans Bold" />
    <path
       d="m 39.330496,71.756073 0,-4.883682 0.936095,0 0,4.883682 -0.936095,0"
       inkscape:connector-curvature="0"
       id="path3037"
       style="fill:#0000ff;fill-opacity:1;-inkscape-font-specification:Bitstream Vera Sans Bold" />
  </g>
  <text
     x="4.6976514"
     y="30.090853"
     transform="scale(0.93050833,1.0746814)"
     id="text2425"
     xml:space="preserve"
     style="font-size:7.70949125px;font-style:normal;font-weight:bold;fill:#000000;fill-opacity:1;stroke:none;font-family:Bitstream Vera Sans;-inkscape-font-specification:Bitstream Vera Sans Bold"><tspan
       x="4.6976514"
       y="30.090853"
       id="tspan2431">&gt; translate(0,3,0);</tspan></text>
  <text
     x="5.4711967"
     y="30.405619"
     transform="scale(0.93050833,1.0746814)"
     id="text2425-5"
     xml:space="preserve"
     style="font-size:7.70949125px;font-style:normal;font-weight:bold;fill:#a39a9d;fill-opacity:1;stroke:none;font-family:Bitstream Vera Sans;-inkscape-font-specification:Bitstream Vera Sans Bold"><tspan
       x="5.4711967"
       y="30.405619"
       id="tspan2431-9">&gt; translate(0,3,0);</tspan></text>
  <text
     x="4.6976514"
     y="41.928917"
     transform="scale(0.93050833,1.0746814)"
     id="text2433"
     xml:space="preserve"
     style="font-size:7.70949125px;font-style:normal;font-weight:bold;fill:#000000;fill-opacity:1;stroke:none;font-family:Bitstream Vera Sans;-inkscape-font-specification:Bitstream Vera Sans Bold"><tspan
       x="4.6976514"
       y="41.928917"
       id="tspan2439">&gt; transmute(Cl);</tspan></text>
  <text
     x="5.4711967"
     y="42.243683"
     transform="scale(0.93050833,1.0746814)"
     id="text2433-2"
     xml:space="preserve"
     style="font-size:7.70949125px;font-style:normal;font-weight:bold;fill:#a39a9d;fill-opacity:1;stroke:none;font-family:Bitstream Vera Sans;-inkscape-font-specification:Bitstream Vera Sans Bold"><tspan
       x="5.4711967"
       y="42.243683"
       id="tspan2439-2">&gt; transmute(Cl);</tspan></text>
  <g
     transform="matrix(1.0514839,0,0,1.214401,-2.993149,-3.3381851)"
     id="text3225-2"
     style="font-size:6.82249689px;font-style:normal;font-weight:normal;fill:#000000;fill-opacity:1;stroke:none;font-family:Bitstream Vera Sans">
    <path
       d="m 43.384625,68.478419 -0.176559,-0.909444 0,-0.826161 1.019377,0 0,0.826161 -0.153239,0.909444 -0.689579,0 m 1.502415,0 -0.176559,-0.909444 0,-0.826161 1.019377,0 0,0.826161 -0.153239,0.909444 -0.689579,0"
       inkscape:connector-curvature="0"
       id="path3000"
       style="fill:#ff0000;fill-opacity:1;-inkscape-font-specification:Bitstream Vera Sans Bold" />
    <path
       d="m 48.185024,68.088658 0,0.74621 -0.639609,0 0,1.425795 c -10e-7,0.288714 0.0056,0.4575 0.01666,0.506358 0.01332,0.04664 0.04108,0.0855 0.08328,0.116595 0.04442,0.03109 0.09772,0.04664 0.159902,0.04664 0.08661,10e-7 0.212091,-0.02998 0.376437,-0.08995 l 0.07995,0.726223 c -0.217647,0.09328 -0.464162,0.139914 -0.739548,0.139914 -0.168787,0 -0.320916,-0.02776 -0.456388,-0.08328 -0.135473,-0.05774 -0.235412,-0.131031 -0.299816,-0.219866 -0.06218,-0.09106 -0.105492,-0.213202 -0.129921,-0.366442 -0.01999,-0.108822 -0.02998,-0.328687 -0.02998,-0.659597 l 0,-1.542391 -0.429737,0 0,-0.74621 0.429737,0 0,-0.702904 0.939426,-0.546333 0,1.249237 0.639609,0"
       inkscape:connector-curvature="0"
       id="path3002"
       style="fill:#ff0000;fill-opacity:1;-inkscape-font-specification:Bitstream Vera Sans Bold" />
    <path
       d="m 50.890038,70.500517 0.932763,0.156571 c -0.11993,0.342014 -0.309814,0.602965 -0.569652,0.782855 -0.257623,0.177669 -0.580758,0.266503 -0.969407,0.266503 -0.615181,0 -1.070458,-0.200988 -1.365832,-0.602964 -0.233191,-0.322025 -0.349787,-0.728443 -0.349786,-1.219255 -10e-7,-0.586306 0.153239,-1.044914 0.459719,-1.375826 0.306478,-0.333126 0.694018,-0.499691 1.162622,-0.499695 0.526343,4e-6 0.941644,0.174342 1.245906,0.523014 0.304255,0.346458 0.449721,0.878354 0.436399,1.595692 l -2.345233,0 c 0.0067,0.277609 0.08217,0.494143 0.226528,0.649603 0.144355,0.15324 0.324245,0.22986 0.539671,0.229859 0.146575,10e-7 0.269832,-0.03997 0.369774,-0.119927 0.09994,-0.07995 0.175445,-0.20876 0.226528,-0.38643 m 0.0533,-0.946089 c -0.0067,-0.270943 -0.07662,-0.476373 -0.209872,-0.61629 -0.133254,-0.142132 -0.295377,-0.2132 -0.48637,-0.213203 -0.204321,3e-6 -0.373106,0.0744 -0.506357,0.223197 -0.133253,0.148801 -0.198768,0.350899 -0.196546,0.606296 l 1.399145,0"
       inkscape:connector-curvature="0"
       id="path3004"
       style="fill:#ff0000;fill-opacity:1;-inkscape-font-specification:Bitstream Vera Sans Bold" />
    <path
       d="m 52.30917,70.617112 0.939426,-0.143246 c 0.03997,0.182112 0.121036,0.320916 0.243185,0.416413 0.122146,0.09328 0.293152,0.139915 0.51302,0.139914 0.242072,10e-7 0.424183,-0.04442 0.546333,-0.133252 0.08217,-0.06218 0.123255,-0.145466 0.123258,-0.249847 -3e-6,-0.07107 -0.02221,-0.12992 -0.06663,-0.176559 -0.04664,-0.04442 -0.151022,-0.0855 -0.313142,-0.123258 -0.755096,-0.166563 -1.233692,-0.318692 -1.43579,-0.456388 -0.279829,-0.190992 -0.419743,-0.456385 -0.419743,-0.79618 0,-0.306476 0.121037,-0.564096 0.363111,-0.772861 0.242074,-0.208757 0.6174,-0.313138 1.125979,-0.313142 0.484146,4e-6 0.843926,0.07885 1.07934,0.236523 0.235409,0.157684 0.397532,0.390875 0.48637,0.699572 l -0.882794,0.163234 c -0.03776,-0.137691 -0.109935,-0.243182 -0.216534,-0.316474 -0.104383,-0.07328 -0.254291,-0.10993 -0.449726,-0.109932 -0.246517,2e-6 -0.423076,0.03443 -0.529676,0.10327 -0.07107,0.04886 -0.106603,0.112156 -0.106601,0.189884 -2e-6,0.06663 0.03109,0.12326 0.09328,0.169896 0.08439,0.06219 0.375324,0.149911 0.8728,0.263172 0.499692,0.113267 0.848367,0.25207 1.046027,0.416413 0.195433,0.166566 0.293151,0.398646 0.293154,0.696241 -3e-6,0.324247 -0.135476,0.602965 -0.406418,0.836155 -0.270948,0.233191 -0.671814,0.349786 -1.202598,0.349786 -0.481929,0 -0.863918,-0.09772 -1.145967,-0.293154 -0.279829,-0.195435 -0.46305,-0.460828 -0.549664,-0.79618"
       inkscape:connector-curvature="0"
       id="path3006"
       style="fill:#ff0000;fill-opacity:1;-inkscape-font-specification:Bitstream Vera Sans Bold" />
    <path
       d="m 58.05899,68.088658 0,0.74621 -0.639609,0 0,1.425795 c -2e-6,0.288714 0.0055,0.4575 0.01666,0.506358 0.01332,0.04664 0.04108,0.0855 0.08328,0.116595 0.04442,0.03109 0.09772,0.04664 0.159903,0.04664 0.08661,10e-7 0.21209,-0.02998 0.376436,-0.08995 l 0.07995,0.726223 c -0.217646,0.09328 -0.464162,0.139914 -0.739548,0.139914 -0.168787,0 -0.320916,-0.02776 -0.456387,-0.08328 -0.135474,-0.05774 -0.235413,-0.131031 -0.299817,-0.219866 -0.06218,-0.09106 -0.105492,-0.213202 -0.129921,-0.366442 -0.01999,-0.108822 -0.02998,-0.328687 -0.02998,-0.659597 l 0,-1.542391 -0.429738,0 0,-0.74621 0.429738,0 0,-0.702904 0.939426,-0.546333 0,1.249237 0.639609,0"
       inkscape:connector-curvature="0"
       id="path3008"
       style="fill:#ff0000;fill-opacity:1;-inkscape-font-specification:Bitstream Vera Sans Bold" />
    <path
       d="m 58.715255,71.626495 0,-0.936094 0.936095,0 0,0.936094 -0.936095,0"
       inkscape:connector-curvature="0"
       id="path3010"
       style="fill:#ff0000;fill-opacity:1;-inkscape-font-specification:Bitstream Vera Sans Bold" />
    <path
       d="m 60.157707,71.626495 1.275887,-1.822219 -1.222587,-1.715618 1.142635,0 0.626284,0.972738 0.659597,-0.972738 1.099328,0 -1.199267,1.675642 1.3092,1.862195 -1.149297,0 -0.719561,-1.095996 -0.726223,1.095996 -1.095996,0"
       inkscape:connector-curvature="0"
       id="path3012"
       style="fill:#ff0000;fill-opacity:1;-inkscape-font-specification:Bitstream Vera Sans Bold" />
    <path
       d="m 63.962049,68.088658 0.996058,0 0.84615,2.511798 0.826161,-2.511798 0.969408,0 -1.249237,3.404585 -0.223197,0.61629 c -0.08217,0.20654 -0.161014,0.364221 -0.236522,0.473045 -0.07329,0.108821 -0.158793,0.196545 -0.25651,0.263172 -0.0955,0.06885 -0.214315,0.122146 -0.356448,0.159902 -0.139916,0.03775 -0.298708,0.05663 -0.476376,0.05663 -0.179891,-2e-6 -0.356449,-0.01888 -0.529676,-0.05663 l -0.08328,-0.732885 c 0.146577,0.02887 0.278718,0.04331 0.396425,0.04331 0.217644,-1e-6 0.378656,-0.06441 0.483038,-0.193215 0.104379,-0.12659 0.18433,-0.288713 0.239853,-0.48637 l -1.345844,-3.547831"
       inkscape:connector-curvature="0"
       id="path3014"
       style="fill:#ff0000;fill-opacity:1;-inkscape-font-specification:Bitstream Vera Sans Bold" />
    <path
       d="m 67.799704,71.626495 0,-0.729554 1.325856,-1.522403 c 0.217643,-0.248734 0.378656,-0.425293 0.483038,-0.529676 -0.108824,0.0067 -0.25207,0.01111 -0.429737,0.01332 l -1.249237,0.0067 0,-0.776192 2.924879,0 0,0.662928 -1.352506,1.559047 -0.476376,0.516351 c 0.25984,-0.01555 0.420852,-0.02332 0.483038,-0.02332 l 1.449114,0 0,0.82283 -3.158069,0"
       inkscape:connector-curvature="0"
       id="path3016"
       style="fill:#ff0000;fill-opacity:1;-inkscape-font-specification:Bitstream Vera Sans Bold" />
    <path
       d="m 71.647351,68.478419 -0.176559,-0.909444 0,-0.826161 1.019377,0 0,0.826161 -0.15324,0.909444 -0.689578,0 m 1.502415,0 -0.176559,-0.909444 0,-0.826161 1.019377,0 0,0.826161 -0.15324,0.909444 -0.689578,0"
       inkscape:connector-curvature="0"
       id="path3018"
       style="fill:#ff0000;fill-opacity:1;-inkscape-font-specification:Bitstream Vera Sans Bold" />
  </g>
  <g
     transform="matrix(1.0514839,0,0,1.214401,-2.993149,-3.3381851)"
     id="text3225-9"
     style="font-size:6.82249689px;font-style:normal;font-weight:normal;fill:#000000;fill-opacity:1;stroke:none;font-family:Bitstream Vera Sans">
    <path
       d="m 74.635423,72.701826 c 0.184331,-0.395315 0.314252,-0.698463 0.389762,-0.909444 0.07551,-0.210983 0.145466,-0.454167 0.209871,-0.729554 0.0644,-0.275387 0.112153,-0.536338 0.143246,-0.782855 0.03109,-0.248736 0.04664,-0.503024 0.04664,-0.762867 -10e-7,-0.528564 -0.05663,-1.028258 -0.169896,-1.499084 -0.113265,-0.47304 -0.322026,-1.046023 -0.626284,-1.718949 l 0.636278,0 c 0.335349,0.47749 0.59519,0.983847 0.779524,1.519071 0.18655,0.535232 0.279827,1.078233 0.279829,1.629005 -2e-6,0.464162 -0.07329,0.961635 -0.219866,1.492421 -0.166566,0.595191 -0.440843,1.18261 -0.82283,1.762256 l -0.646272,0"
       inkscape:connector-curvature="0"
       id="path2995"
       style="font-weight:bold;-inkscape-font-specification:Bitstream Vera Sans Bold" />
    <path
       d="m 77.327111,68.664294 0,-0.936095 0.936095,0 0,0.936095 -0.936095,0 m 0,1.665648 0.936095,0 0,0.669591 c -2e-6,0.270946 -0.02332,0.484149 -0.06996,0.639609 -0.04664,0.157681 -0.135474,0.298706 -0.266503,0.423075 -0.128812,0.124368 -0.293155,0.222086 -0.493032,0.293154 l -0.183222,-0.38643 c 0.188773,-0.06218 0.323135,-0.148799 0.403087,-0.259841 0.07995,-0.111044 0.122147,-0.258731 0.12659,-0.443063 l -0.453057,0 0,-0.936095"
       inkscape:connector-curvature="0"
       id="path2997"
       style="font-weight:bold;-inkscape-font-specification:Bitstream Vera Sans Bold" />
  </g>
  <g
     transform="matrix(1.0514839,0,0,1.214401,-2.993149,-3.3381851)"
     id="text3225-9-6"
     style="font-size:6.82249689px;font-style:normal;font-weight:normal;fill:#000000;fill-opacity:1;stroke:none;font-family:Bitstream Vera Sans">
    <path
       d="m 42.59231,72.641737 -0.642941,0 c -0.339793,-0.513021 -0.598524,-1.046028 -0.776192,-1.599023 -0.17767,-0.552994 -0.266504,-1.088222 -0.266504,-1.605685 0,-0.641828 0.109932,-1.249233 0.329799,-1.82222 0.190993,-0.497469 0.433067,-0.956077 0.726222,-1.375825 l 0.639609,0 c -0.30426,0.672926 -0.514131,1.245909 -0.629615,1.718949 -0.113265,0.470826 -0.169897,0.97052 -0.169896,1.499084 -10e-7,0.364223 0.03331,0.737328 0.09994,1.119316 0.06884,0.381989 0.162122,0.7451 0.279829,1.089334 0.07773,0.226527 0.214312,0.551884 0.40975,0.97607"
       inkscape:connector-curvature="0"
       id="path2992"
       style="font-weight:bold;-inkscape-font-specification:Bitstream Vera Sans Bold" />
  </g>
</svg>
