<?xml version="1.0" encoding="UTF-8" standalone="no"?>
<!-- Created with Inkscape (http://www.inkscape.org/) -->
<svg
   xmlns:svg="http://www.w3.org/2000/svg"
   xmlns="http://www.w3.org/2000/svg"
   xmlns:xlink="http://www.w3.org/1999/xlink"
   version="1.0"
   width="100"
   height="100"
   id="svg2">
  <defs
     id="defs4">
    <radialGradient
       cx="58.01162"
       cy="63.345894"
       r="33.113495"
       fx="58.01162"
       fy="63.345894"
       id="radialGradient2602"
       xlink:href="#linearGradient3252"
       gradientUnits="userSpaceOnUse"
       gradientTransform="matrix(0.2134373,0,0,0.2134373,19.805211,5.9610473)" />
    <linearGradient
       x1="25.398125"
       y1="63.345894"
       x2="90.625114"
       y2="63.345894"
       id="linearGradient2600"
       xlink:href="#linearGradient3384"
       gradientUnits="userSpaceOnUse"
       gradientTransform="matrix(0.2688926,0.2688926,-0.2688926,0.2688926,38.227733,-8.4494346)" />
    <linearGradient
       id="linearGradient3384">
      <stop
         id="stop3386"
         style="stop-color:#00ffff;stop-opacity:1"
         offset="0" />
      <stop
         id="stop3388"
         style="stop-color:#000000;stop-opacity:1"
         offset="1" />
    </linearGradient>
    <linearGradient
       id="linearGradient3252">
      <stop
         id="stop3254"
         style="stop-color:#ffffff;stop-opacity:1"
         offset="0" />
      <stop
         id="stop3256"
         style="stop-color:#7f7fff;stop-opacity:0"
         offset="1" />
    </linearGradient>
    <linearGradient
       x1="25.398125"
       y1="63.345894"
       x2="90.625114"
       y2="63.345894"
       id="linearGradient4147"
       xlink:href="#linearGradient3384"
       gradientUnits="userSpaceOnUse"
       gradientTransform="matrix(0.2688926,0.2688926,-0.2688926,0.2688926,38.227733,-8.4494346)" />
    <radialGradient
       cx="58.01162"
       cy="63.345894"
       r="33.113495"
       fx="58.01162"
       fy="63.345894"
       id="radialGradient4149"
       xlink:href="#linearGradient3252"
       gradientUnits="userSpaceOnUse"
       gradientTransform="matrix(0.2134373,0,0,0.2134373,19.805211,5.9610473)" />
  </defs>
  <path
     d="M 71.968004,14.600066 C 74.601775,22.823243 70.069777,31.624381 61.846144,34.256715 C 53.622501,36.889046 44.822154,32.355504 42.191268,24.131406 C 39.557497,15.908227 44.089496,7.1070904 52.313128,4.4747576 C 60.536771,1.8424248 69.337119,6.3759659 71.968004,14.600066 L 71.968004,14.600066 z"
     id="path2746"
     style="fill:#e4e7e4;fill-opacity:1;fill-rule:evenodd;stroke:none" />
  <path
     d="M 48.403931,37.797343 C 46.004174,37.945764 45.090052,39.719965 46.362303,41.75988 C 47.634563,43.799794 50.611304,45.332749 53.010589,45.183667 C 55.410347,45.035242 56.324469,43.261041 55.052217,41.221129 C 53.779955,39.181214 50.803217,37.648257 48.403931,37.797343 L 48.403931,37.797343 L 48.403931,37.797343 z"
     id="path4969"
     style="opacity:0.71739131;fill:#e4e7e4;fill-opacity:1;fill-rule:evenodd;stroke:none" />
  <path
     d="M 47.247096,47.547803 C 44.847339,47.696224 43.933217,49.470426 45.205468,51.51034 C 46.477729,53.550255 49.454469,55.083209 51.853754,54.934127 C 54.253512,54.785703 55.167634,53.011501 53.895382,50.97159 C 52.623121,48.931674 49.646383,47.398718 47.247096,47.547803 L 47.247096,47.547803 z"
     id="path4983"
     style="opacity:0.71739131;fill:#e4e7e4;fill-opacity:1;fill-rule:evenodd;stroke:none" />
  <path
     d="M 45.925,57.133003 C 43.525243,57.281424 42.611121,59.055625 43.883372,61.09554 C 45.155632,63.135454 48.132372,64.668409 50.531658,64.519327 C 52.931416,64.370902 53.845538,62.596701 52.573286,60.556789 C 51.301024,58.516874 48.324286,56.983917 45.925,57.133003 L 45.925,57.133003 z"
     id="path4941"
     style="opacity:0.71739131;fill:#e4e7e4;fill-opacity:1;fill-rule:evenodd;stroke:none" />
  <path
     d="M 58.775506,65.801757 C 56.375749,65.950179 55.461627,67.72438 56.733878,69.764295 C 58.006139,71.804209 60.982879,73.337163 63.382164,73.188081 C 65.781923,73.039657 66.696045,71.265456 65.423792,69.225544 C 64.151531,67.185629 61.174793,65.652672 58.775506,65.801757 L 58.775506,65.801757 z"
     id="path2762"
     style="opacity:0.71739131;fill:#e4e7e4;fill-opacity:1;fill-rule:evenodd;stroke:none" />
  <path
     d="M 31.216678,57.463527 C 28.816921,57.611948 27.902799,59.386149 29.17505,61.426064 C 30.44731,63.465978 33.424051,64.998933 35.823336,64.849851 C 38.223094,64.701426 39.137216,62.927225 37.864964,60.887313 C 36.592703,58.847398 33.615965,57.314441 31.216678,57.463527 L 31.216678,57.463527 L 31.216678,57.463527 z"
     id="path4997"
     style="opacity:0.71739131;fill:#e4e7e4;fill-opacity:1;fill-rule:evenodd;stroke:none" />
  <path
     d="M 17.169404,57.463527 C 14.769647,57.611948 13.855525,59.386149 15.127777,61.426064 C 16.400037,63.465978 19.376777,64.998933 21.776062,64.849851 C 24.175821,64.701426 25.089943,62.927225 23.81769,60.887313 C 22.545429,58.847398 19.568691,57.314441 17.169404,57.463527 L 17.169404,57.463527 z"
     id="path5011"
     style="opacity:0.71739131;fill:#e4e7e4;fill-opacity:1;fill-rule:evenodd;stroke:none" />
  <path
     d="M 4.278965,57.463527 C 1.8792074,57.611948 0.96508548,59.386149 2.2373371,61.426064 C 3.5095974,63.465978 6.4863376,64.998933 8.885623,64.849851 C 11.285384,64.701432 12.199503,62.927225 10.927251,60.887313 C 9.6549895,58.847398 6.6782515,57.314441 4.278965,57.463527 L 4.278965,57.463527 z"
     id="path5025"
     style="opacity:0.71739131;fill:#e4e7e4;fill-opacity:1;fill-rule:evenodd;stroke:none" />
  <path
     d="M 40.967139,68.701345 C 38.567382,68.849766 37.65326,70.623968 38.925511,72.663882 C 40.197771,74.703797 43.174511,76.236751 45.573797,76.087669 C 47.973555,75.939244 48.887677,74.165043 47.615425,72.125132 C 46.343163,70.085216 43.366425,68.55226 40.967139,68.701345 L 40.967139,68.701345 z"
     id="path5039"
     style="opacity:0.71739131;fill:#e4e7e4;fill-opacity:1;fill-rule:evenodd;stroke:none" />
  <path
     d="M 32.373512,80.269689 C 29.973755,80.41811 29.059633,82.192311 30.331884,84.232226 C 31.604144,86.272141 34.580884,87.805095 36.98017,87.656013 C 39.379928,87.507588 40.29405,85.733387 39.021798,83.693476 C 37.749536,81.65356 34.772798,80.120603 32.373512,80.269689 L 32.373512,80.269689 L 32.373512,80.269689 z"
     id="path5053"
     style="opacity:0.71739131;fill:#e4e7e4;fill-opacity:1;fill-rule:evenodd;stroke:none" />
  <path
     d="M 23.779886,92.499079 C 21.380129,92.647501 20.466007,94.421702 21.738258,96.461617 C 23.010518,98.501531 25.987258,100.03449 28.386544,99.885403 C 30.786302,99.736979 31.700424,97.962777 30.428172,95.922866 C 29.15591,93.88295 26.179172,92.349994 23.779886,92.499079 L 23.779886,92.499079 z"
     id="path5067"
     style="opacity:0.71739131;fill:#e4e7e4;fill-opacity:1;fill-rule:evenodd;stroke:none" />
  <path
     d="M 98.242428,77.648643 C 100.8762,85.871821 96.344201,94.672958 88.120569,97.305292 C 79.896925,99.937625 71.096578,95.404082 68.465693,87.179983 C 65.831921,78.956804 70.36392,70.155667 78.587552,67.523334 C 86.811196,64.891001 95.611543,69.424542 98.242428,77.648643 L 98.242428,77.648643 L 98.242428,77.648643 z"
     id="path4137"
     style="fill:#e4e7e4;fill-opacity:1;fill-rule:evenodd;stroke:none" />
  <g
     transform="matrix(1.2004829,-0.3842667,0.3842667,1.2004829,0.7234661,0.9863751)"
     id="g3558">
    <path
       d="M 49.066773,24.22879 C 49.067973,31.079065 43.515064,36.632947 36.664788,36.632947 C 29.814513,36.632947 24.261604,31.079065 24.262803,24.22879 C 24.261603,17.378514 29.814513,11.824633 36.664788,11.824633 C 43.515064,11.824633 49.067972,17.378514 49.066773,24.22879 L 49.066773,24.22879 L 49.066773,24.22879 z"
       id="path3560"
       style="fill:#0000ff;fill-opacity:1;fill-rule:evenodd;stroke:#000000;stroke-width:0.38027155px;stroke-linecap:butt;stroke-linejoin:miter;stroke-opacity:1" />
    <path
       d="M 45.562914,32.95223 C 40.719885,37.796953 32.866199,37.797641 28.022324,32.95373 C 23.178446,28.109853 23.179135,20.256167 28.023824,15.41314 C 32.866852,10.568415 40.720538,10.567727 45.564415,15.41164 C 50.40829,20.255516 50.407602,28.109203 45.562915,32.952231 L 45.562915,32.952231 L 45.562914,32.95223 z"
       id="path3562"
       style="opacity:0.71739131;fill:url(#linearGradient2600);fill-opacity:1;fill-rule:evenodd;stroke:none" />
    <path
       d="M 39.147988,19.481422 C 39.148661,23.326315 36.031948,26.443576 32.187053,26.443576 C 28.342159,26.443576 25.225445,23.326315 25.226118,19.481422 C 25.225445,15.636527 28.342159,12.519268 32.187053,12.519268 C 36.031948,12.519268 39.148661,15.636527 39.147988,19.481422 L 39.147988,19.481422 z"
       id="path3564"
       style="fill:url(#radialGradient2602);fill-opacity:1;fill-rule:evenodd;stroke:none" />
  </g>
  <g
     transform="matrix(1.1452075,0,0,1.1452075,26.164949,-11.834749)"
     id="g4963">
    <g
       transform="matrix(-0.2577558,-0.1327556,-0.1327556,0.2577558,31.621818,31.165983)"
       id="g4965"
       style="fill:#e4e7e4;fill-opacity:1;stroke:none" />
    <g
       transform="matrix(-0.2577558,-0.1327556,-0.1327556,0.2577558,27.207239,25.14586)"
       id="g4971"
       style="fill:#4e464a;fill-opacity:1;stroke:none">
      <path
         d="M 90.625114,63.345894 C 90.628268,81.36006 76.025786,95.9651 58.011619,95.9651 C 39.997453,95.9651 25.394971,81.36006 25.398125,63.345894 C 25.394925,45.331728 39.997453,30.726688 58.011619,30.726688 C 76.025786,30.726688 90.628268,45.331728 90.625114,63.345894 L 90.625114,63.345894 L 90.625114,63.345894 z"
         transform="matrix(0,-0.2910472,0.4882663,0,-42.57093,87.178008)"
         id="path4973"
         style="fill:#4e464a;fill-opacity:1;fill-rule:evenodd;stroke:none" />
      <path
         d="M 90.625114,63.345894 C 90.628268,81.36006 76.025786,95.9651 58.011619,95.9651 C 39.997453,95.9651 25.394971,81.36006 25.398125,63.345894 C 25.394925,45.331728 39.997453,30.726688 58.011619,30.726688 C 76.025786,30.726688 90.628268,45.331728 90.625114,63.345894 L 90.625114,63.345894 L 90.625114,63.345894 z"
         transform="matrix(0.3452564,-0.2058015,0.3452564,0.2058015,-53.442293,69.13691)"
         id="path4975"
         style="opacity:0.71739131;fill:#4e464a;fill-opacity:1;fill-rule:evenodd;stroke:none" />
    </g>
  </g>
  <g
     transform="matrix(1.1452075,0,0,1.1452075,25.008114,-2.0842882)"
     id="g4977">
    <g
       transform="matrix(-0.2577558,-0.1327556,-0.1327556,0.2577558,31.621818,31.165983)"
       id="g4979"
       style="fill:#e4e7e4;fill-opacity:1;stroke:none" />
    <g
       transform="matrix(-0.2577558,-0.1327556,-0.1327556,0.2577558,27.207239,25.14586)"
       id="g4985"
       style="fill:#4e464a;fill-opacity:1;stroke:none">
      <path
         d="M 90.625114,63.345894 C 90.628268,81.36006 76.025786,95.9651 58.011619,95.9651 C 39.997453,95.9651 25.394971,81.36006 25.398125,63.345894 C 25.394925,45.331728 39.997453,30.726688 58.011619,30.726688 C 76.025786,30.726688 90.628268,45.331728 90.625114,63.345894 L 90.625114,63.345894 L 90.625114,63.345894 z"
         transform="matrix(0,-0.2910472,0.4882663,0,-42.57093,87.178008)"
         id="path4987"
         style="fill:#4e464a;fill-opacity:1;fill-rule:evenodd;stroke:none" />
      <path
         d="M 90.625114,63.345894 C 90.628268,81.36006 76.025786,95.9651 58.011619,95.9651 C 39.997453,95.9651 25.394971,81.36006 25.398125,63.345894 C 25.394925,45.331728 39.997453,30.726688 58.011619,30.726688 C 76.025786,30.726688 90.628268,45.331728 90.625114,63.345894 L 90.625114,63.345894 L 90.625114,63.345894 z"
         transform="matrix(0.3452564,-0.2058015,0.3452564,0.2058015,-53.442293,69.13691)"
         id="path4989"
         style="opacity:0.71739131;fill:#4e464a;fill-opacity:1;fill-rule:evenodd;stroke:none" />
    </g>
  </g>
  <g
     transform="matrix(1.1452075,0,0,1.1452075,23.686018,7.5009104)"
     id="g4935">
    <g
       transform="matrix(-0.2577558,-0.1327556,-0.1327556,0.2577558,31.621818,31.165983)"
       id="g4937"
       style="fill:#e4e7e4;fill-opacity:1;stroke:none" />
    <g
       transform="matrix(-0.2577558,-0.1327556,-0.1327556,0.2577558,27.207239,25.14586)"
       id="g4943"
       style="fill:#4e464a;fill-opacity:1;stroke:none">
      <path
         d="M 90.625114,63.345894 C 90.628268,81.36006 76.025786,95.9651 58.011619,95.9651 C 39.997453,95.9651 25.394971,81.36006 25.398125,63.345894 C 25.394925,45.331728 39.997453,30.726688 58.011619,30.726688 C 76.025786,30.726688 90.628268,45.331728 90.625114,63.345894 L 90.625114,63.345894 L 90.625114,63.345894 z"
         transform="matrix(0,-0.2910472,0.4882663,0,-42.57093,87.178008)"
         id="path4945"
         style="fill:#4e464a;fill-opacity:1;fill-rule:evenodd;stroke:none" />
      <path
         d="M 90.625114,63.345894 C 90.628268,81.36006 76.025786,95.9651 58.011619,95.9651 C 39.997453,95.9651 25.394971,81.36006 25.398125,63.345894 C 25.394925,45.331728 39.997453,30.726688 58.011619,30.726688 C 76.025786,30.726688 90.628268,45.331728 90.625114,63.345894 L 90.625114,63.345894 L 90.625114,63.345894 z"
         transform="matrix(0.3452564,-0.2058015,0.3452564,0.2058015,-53.442293,69.13691)"
         id="path4947"
         style="opacity:0.71739131;fill:#4e464a;fill-opacity:1;fill-rule:evenodd;stroke:none" />
    </g>
  </g>
  <g
     transform="matrix(1.1452075,0,0,1.1452075,36.536524,16.169665)"
     id="g4927">
    <g
       transform="matrix(-0.2577558,-0.1327556,-0.1327556,0.2577558,31.621818,31.165983)"
       id="g2758"
       style="fill:#e4e7e4;fill-opacity:1;stroke:none" />
    <g
       transform="matrix(-0.2577558,-0.1327556,-0.1327556,0.2577558,27.207239,25.14586)"
       id="g4151"
       style="fill:#4e464a;fill-opacity:1;stroke:none">
      <path
         d="M 90.625114,63.345894 C 90.628268,81.36006 76.025786,95.9651 58.011619,95.9651 C 39.997453,95.9651 25.394971,81.36006 25.398125,63.345894 C 25.394925,45.331728 39.997453,30.726688 58.011619,30.726688 C 76.025786,30.726688 90.628268,45.331728 90.625114,63.345894 L 90.625114,63.345894 L 90.625114,63.345894 z"
         transform="matrix(0,-0.2910472,0.4882663,0,-42.57093,87.178008)"
         id="path4153"
         style="fill:#4e464a;fill-opacity:1;fill-rule:evenodd;stroke:none" />
      <path
         d="M 90.625114,63.345894 C 90.628268,81.36006 76.025786,95.9651 58.011619,95.9651 C 39.997453,95.9651 25.394971,81.36006 25.398125,63.345894 C 25.394925,45.331728 39.997453,30.726688 58.011619,30.726688 C 76.025786,30.726688 90.628268,45.331728 90.625114,63.345894 L 90.625114,63.345894 L 90.625114,63.345894 z"
         transform="matrix(0.3452564,-0.2058015,0.3452564,0.2058015,-53.442293,69.13691)"
         id="path4155"
         style="opacity:0.71739131;fill:#4e464a;fill-opacity:1;fill-rule:evenodd;stroke:none" />
    </g>
  </g>
  <g
     transform="matrix(1.1452075,0,0,1.1452075,8.9776965,7.8314347)"
     id="g4991">
    <g
       transform="matrix(-0.2577558,-0.1327556,-0.1327556,0.2577558,31.621818,31.165983)"
       id="g4993"
       style="fill:#e4e7e4;fill-opacity:1;stroke:none" />
    <g
       transform="matrix(-0.2577558,-0.1327556,-0.1327556,0.2577558,27.207239,25.14586)"
       id="g4999"
       style="fill:#4e464a;fill-opacity:1;stroke:none">
      <path
         d="M 90.625114,63.345894 C 90.628268,81.36006 76.025786,95.9651 58.011619,95.9651 C 39.997453,95.9651 25.394971,81.36006 25.398125,63.345894 C 25.394925,45.331728 39.997453,30.726688 58.011619,30.726688 C 76.025786,30.726688 90.628268,45.331728 90.625114,63.345894 L 90.625114,63.345894 L 90.625114,63.345894 z"
         transform="matrix(0,-0.2910472,0.4882663,0,-42.57093,87.178008)"
         id="path5001"
         style="fill:#4e464a;fill-opacity:1;fill-rule:evenodd;stroke:none" />
      <path
         d="M 90.625114,63.345894 C 90.628268,81.36006 76.025786,95.9651 58.011619,95.9651 C 39.997453,95.9651 25.394971,81.36006 25.398125,63.345894 C 25.394925,45.331728 39.997453,30.726688 58.011619,30.726688 C 76.025786,30.726688 90.628268,45.331728 90.625114,63.345894 L 90.625114,63.345894 L 90.625114,63.345894 z"
         transform="matrix(0.3452564,-0.2058015,0.3452564,0.2058015,-53.442293,69.13691)"
         id="path5003"
         style="opacity:0.71739131;fill:#4e464a;fill-opacity:1;fill-rule:evenodd;stroke:none" />
    </g>
  </g>
  <g
     transform="matrix(1.1452075,0,0,1.1452075,-5.0695773,7.8314347)"
     id="g5005">
    <g
       transform="matrix(-0.2577558,-0.1327556,-0.1327556,0.2577558,31.621818,31.165983)"
       id="g5007"
       style="fill:#e4e7e4;fill-opacity:1;stroke:none" />
    <g
       transform="matrix(-0.2577558,-0.1327556,-0.1327556,0.2577558,27.207239,25.14586)"
       id="g5013"
       style="fill:#4e464a;fill-opacity:1;stroke:none">
      <path
         d="M 90.625114,63.345894 C 90.628268,81.36006 76.025786,95.9651 58.011619,95.9651 C 39.997453,95.9651 25.394971,81.36006 25.398125,63.345894 C 25.394925,45.331728 39.997453,30.726688 58.011619,30.726688 C 76.025786,30.726688 90.628268,45.331728 90.625114,63.345894 L 90.625114,63.345894 L 90.625114,63.345894 z"
         transform="matrix(0,-0.2910472,0.4882663,0,-42.57093,87.178008)"
         id="path5015"
         style="fill:#4e464a;fill-opacity:1;fill-rule:evenodd;stroke:none" />
      <path
         d="M 90.625114,63.345894 C 90.628268,81.36006 76.025786,95.9651 58.011619,95.9651 C 39.997453,95.9651 25.394971,81.36006 25.398125,63.345894 C 25.394925,45.331728 39.997453,30.726688 58.011619,30.726688 C 76.025786,30.726688 90.628268,45.331728 90.625114,63.345894 L 90.625114,63.345894 L 90.625114,63.345894 z"
         transform="matrix(0.3452564,-0.2058015,0.3452564,0.2058015,-53.442293,69.13691)"
         id="path5017"
         style="opacity:0.71739131;fill:#4e464a;fill-opacity:1;fill-rule:evenodd;stroke:none" />
    </g>
  </g>
  <g
     transform="matrix(1.1452075,0,0,1.1452075,-17.960018,7.8314347)"
     id="g5019">
    <g
       transform="matrix(-0.2577558,-0.1327556,-0.1327556,0.2577558,31.621818,31.165983)"
       id="g5021"
       style="fill:#e4e7e4;fill-opacity:1;stroke:none" />
    <g
       transform="matrix(-0.2577558,-0.1327556,-0.1327556,0.2577558,27.207239,25.14586)"
       id="g5027"
       style="fill:#4e464a;fill-opacity:1;stroke:none">
      <path
         d="M 90.625114,63.345894 C 90.628268,81.36006 76.025786,95.9651 58.011619,95.9651 C 39.997453,95.9651 25.394971,81.36006 25.398125,63.345894 C 25.394925,45.331728 39.997453,30.726688 58.011619,30.726688 C 76.025786,30.726688 90.628268,45.331728 90.625114,63.345894 L 90.625114,63.345894 L 90.625114,63.345894 z"
         transform="matrix(0,-0.2910472,0.4882663,0,-42.57093,87.178008)"
         id="path5029"
         style="fill:#4e464a;fill-opacity:1;fill-rule:evenodd;stroke:none" />
      <path
         d="M 90.625114,63.345894 C 90.628268,81.36006 76.025786,95.9651 58.011619,95.9651 C 39.997453,95.9651 25.394971,81.36006 25.398125,63.345894 C 25.394925,45.331728 39.997453,30.726688 58.011619,30.726688 C 76.025786,30.726688 90.628268,45.331728 90.625114,63.345894 L 90.625114,63.345894 L 90.625114,63.345894 z"
         transform="matrix(0.3452564,-0.2058015,0.3452564,0.2058015,-53.442293,69.13691)"
         id="path5031"
         style="opacity:0.71739131;fill:#4e464a;fill-opacity:1;fill-rule:evenodd;stroke:none" />
    </g>
  </g>
  <g
     transform="matrix(1.1452075,0,0,1.1452075,18.728157,19.069253)"
     id="g5033">
    <g
       transform="matrix(-0.2577558,-0.1327556,-0.1327556,0.2577558,31.621818,31.165983)"
       id="g5035"
       style="fill:#e4e7e4;fill-opacity:1;stroke:none" />
    <g
       transform="matrix(-0.2577558,-0.1327556,-0.1327556,0.2577558,27.207239,25.14586)"
       id="g5041"
       style="fill:#4e464a;fill-opacity:1;stroke:none">
      <path
         d="M 90.625114,63.345894 C 90.628268,81.36006 76.025786,95.9651 58.011619,95.9651 C 39.997453,95.9651 25.394971,81.36006 25.398125,63.345894 C 25.394925,45.331728 39.997453,30.726688 58.011619,30.726688 C 76.025786,30.726688 90.628268,45.331728 90.625114,63.345894 L 90.625114,63.345894 L 90.625114,63.345894 z"
         transform="matrix(0,-0.2910472,0.4882663,0,-42.57093,87.178008)"
         id="path5043"
         style="fill:#4e464a;fill-opacity:1;fill-rule:evenodd;stroke:none" />
      <path
         d="M 90.625114,63.345894 C 90.628268,81.36006 76.025786,95.9651 58.011619,95.9651 C 39.997453,95.9651 25.394971,81.36006 25.398125,63.345894 C 25.394925,45.331728 39.997453,30.726688 58.011619,30.726688 C 76.025786,30.726688 90.628268,45.331728 90.625114,63.345894 L 90.625114,63.345894 L 90.625114,63.345894 z"
         transform="matrix(0.3452564,-0.2058015,0.3452564,0.2058015,-53.442293,69.13691)"
         id="path5045"
         style="opacity:0.71739131;fill:#4e464a;fill-opacity:1;fill-rule:evenodd;stroke:none" />
    </g>
  </g>
  <g
     transform="matrix(1.1452075,0,0,1.1452075,10.13453,30.637597)"
     id="g5047">
    <g
       transform="matrix(-0.2577558,-0.1327556,-0.1327556,0.2577558,31.621818,31.165983)"
       id="g5049"
       style="fill:#e4e7e4;fill-opacity:1;stroke:none" />
    <g
       transform="matrix(-0.2577558,-0.1327556,-0.1327556,0.2577558,27.207239,25.14586)"
       id="g5055"
       style="fill:#4e464a;fill-opacity:1;stroke:none">
      <path
         d="M 90.625114,63.345894 C 90.628268,81.36006 76.025786,95.9651 58.011619,95.9651 C 39.997453,95.9651 25.394971,81.36006 25.398125,63.345894 C 25.394925,45.331728 39.997453,30.726688 58.011619,30.726688 C 76.025786,30.726688 90.628268,45.331728 90.625114,63.345894 L 90.625114,63.345894 L 90.625114,63.345894 z"
         transform="matrix(0,-0.2910472,0.4882663,0,-42.57093,87.178008)"
         id="path5057"
         style="fill:#4e464a;fill-opacity:1;fill-rule:evenodd;stroke:none" />
      <path
         d="M 90.625114,63.345894 C 90.628268,81.36006 76.025786,95.9651 58.011619,95.9651 C 39.997453,95.9651 25.394971,81.36006 25.398125,63.345894 C 25.394925,45.331728 39.997453,30.726688 58.011619,30.726688 C 76.025786,30.726688 90.628268,45.331728 90.625114,63.345894 L 90.625114,63.345894 L 90.625114,63.345894 z"
         transform="matrix(0.3452564,-0.2058015,0.3452564,0.2058015,-53.442293,69.13691)"
         id="path5059"
         style="opacity:0.71739131;fill:#4e464a;fill-opacity:1;fill-rule:evenodd;stroke:none" />
    </g>
  </g>
  <g
     transform="matrix(1.1452075,0,0,1.1452075,1.5409043,42.866987)"
     id="g5061">
    <g
       transform="matrix(-0.2577558,-0.1327556,-0.1327556,0.2577558,31.621818,31.165983)"
       id="g5063"
       style="fill:#e4e7e4;fill-opacity:1;stroke:none" />
    <g
       transform="matrix(-0.2577558,-0.1327556,-0.1327556,0.2577558,27.207239,25.14586)"
       id="g5069"
       style="fill:#4e464a;fill-opacity:1;stroke:none">
      <path
         d="M 90.625114,63.345894 C 90.628268,81.36006 76.025786,95.9651 58.011619,95.9651 C 39.997453,95.9651 25.394971,81.36006 25.398125,63.345894 C 25.394925,45.331728 39.997453,30.726688 58.011619,30.726688 C 76.025786,30.726688 90.628268,45.331728 90.625114,63.345894 L 90.625114,63.345894 L 90.625114,63.345894 z"
         transform="matrix(0,-0.2910472,0.4882663,0,-42.57093,87.178008)"
         id="path5071"
         style="fill:#4e464a;fill-opacity:1;fill-rule:evenodd;stroke:none" />
      <path
         d="M 90.625114,63.345894 C 90.628268,81.36006 76.025786,95.9651 58.011619,95.9651 C 39.997453,95.9651 25.394971,81.36006 25.398125,63.345894 C 25.394925,45.331728 39.997453,30.726688 58.011619,30.726688 C 76.025786,30.726688 90.628268,45.331728 90.625114,63.345894 L 90.625114,63.345894 L 90.625114,63.345894 z"
         transform="matrix(0.3452564,-0.2058015,0.3452564,0.2058015,-53.442293,69.13691)"
         id="path5073"
         style="opacity:0.71739131;fill:#4e464a;fill-opacity:1;fill-rule:evenodd;stroke:none" />
    </g>
  </g>
  <g
     transform="matrix(1.2004829,-0.3842667,0.3842667,1.2004829,26.997889,64.034952)"
     id="g4139">
    <path
       d="M 49.066773,24.22879 C 49.067973,31.079065 43.515064,36.632947 36.664788,36.632947 C 29.814513,36.632947 24.261604,31.079065 24.262803,24.22879 C 24.261603,17.378514 29.814513,11.824633 36.664788,11.824633 C 43.515064,11.824633 49.067972,17.378514 49.066773,24.22879 L 49.066773,24.22879 L 49.066773,24.22879 z"
       id="path4141"
       style="fill:#0000ff;fill-opacity:1;fill-rule:evenodd;stroke:#000000;stroke-width:0.38027155px;stroke-linecap:butt;stroke-linejoin:miter;stroke-opacity:1" />
    <path
       d="M 45.562914,32.95223 C 40.719885,37.796953 32.866199,37.797641 28.022324,32.95373 C 23.178446,28.109853 23.179135,20.256167 28.023824,15.41314 C 32.866852,10.568415 40.720538,10.567727 45.564415,15.41164 C 50.40829,20.255516 50.407602,28.109203 45.562915,32.952231 L 45.562915,32.952231 L 45.562914,32.95223 z"
       id="path4143"
       style="opacity:0.71739131;fill:url(#linearGradient4147);fill-opacity:1;fill-rule:evenodd;stroke:none" />
    <path
       d="M 39.147988,19.481422 C 39.148661,23.326315 36.031948,26.443576 32.187053,26.443576 C 28.342159,26.443576 25.225445,23.326315 25.226118,19.481422 C 25.225445,15.636527 28.342159,12.519268 32.187053,12.519268 C 36.031948,12.519268 39.148661,15.636527 39.147988,19.481422 L 39.147988,19.481422 z"
       id="path4145"
       style="fill:url(#radialGradient4149);fill-opacity:1;fill-rule:evenodd;stroke:none" />
  </g>
</svg>
