<?xml version="1.0" encoding="UTF-8" standalone="no"?>
<!-- Created with Inkscape (http://www.inkscape.org/) -->

<svg
   xmlns:dc="http://purl.org/dc/elements/1.1/"
   xmlns:cc="http://creativecommons.org/ns#"
   xmlns:rdf="http://www.w3.org/1999/02/22-rdf-syntax-ns#"
   xmlns:svg="http://www.w3.org/2000/svg"
   xmlns="http://www.w3.org/2000/svg"
   xmlns:xlink="http://www.w3.org/1999/xlink"
   xmlns:inkscape="http://www.inkscape.org/namespaces/inkscape"
   version="1.0"
   width="100"
   height="100"
   id="svg2">
  <metadata
     id="metadata2566">
    <rdf:RDF>
      <cc:Work
         rdf:about="">
        <dc:format>image/svg+xml</dc:format>
        <dc:type
           rdf:resource="http://purl.org/dc/dcmitype/StillImage" />
      </cc:Work>
    </rdf:RDF>
  </metadata>
  <defs
     id="defs4">
    <radialGradient
       cx="58.01162"
       cy="63.345894"
       r="33.113495"
       fx="58.01162"
       fy="63.345894"
       id="radialGradient2474"
       xlink:href="#linearGradient3252"
       gradientUnits="userSpaceOnUse"
       gradientTransform="matrix(0.2134373,0,0,0.2134373,19.805211,5.9610473)" />
    <linearGradient
       x1="25.398125"
       y1="63.345894"
       x2="90.625114"
       y2="63.345894"
       id="linearGradient2472"
       xlink:href="#linearGradient3384"
       gradientUnits="userSpaceOnUse"
       gradientTransform="matrix(0.2688926,0.2688926,-0.2688926,0.2688926,38.227733,-8.4494346)" />
    <linearGradient
       id="linearGradient3452">
      <stop
         id="stop3454"
         style="stop-color:#ffffff;stop-opacity:1"
         offset="0" />
      <stop
         id="stop3456"
         style="stop-color:#000000;stop-opacity:1"
         offset="1" />
    </linearGradient>
    <linearGradient
       id="linearGradient3458">
      <stop
         id="stop3460"
         style="stop-color:#ffffff;stop-opacity:1"
         offset="0" />
      <stop
         id="stop3462"
         style="stop-color:#a2a5aa;stop-opacity:0"
         offset="1" />
    </linearGradient>
    <linearGradient
       id="linearGradient3384">
      <stop
         id="stop3386"
         style="stop-color:#00ffff;stop-opacity:1"
         offset="0" />
      <stop
         id="stop3388"
         style="stop-color:#000000;stop-opacity:1"
         offset="1" />
    </linearGradient>
    <linearGradient
       id="linearGradient3252">
      <stop
         id="stop3254"
         style="stop-color:#ffffff;stop-opacity:1"
         offset="0" />
      <stop
         id="stop3256"
         style="stop-color:#7f7fff;stop-opacity:0"
         offset="1" />
    </linearGradient>
    <linearGradient
       x1="25.398125"
       y1="63.345894"
       x2="90.625114"
       y2="63.345894"
       id="linearGradient3984"
       xlink:href="#linearGradient3452"
       gradientUnits="userSpaceOnUse"
       gradientTransform="matrix(0.2688926,0.2688926,-0.2688926,0.2688926,-63.664049,-28.49841)" />
    <radialGradient
       cx="58.01162"
       cy="63.345894"
       r="33.113495"
       fx="58.01162"
       fy="63.345894"
       id="radialGradient3986"
       xlink:href="#linearGradient3458"
       gradientUnits="userSpaceOnUse"
       gradientTransform="matrix(0.2134373,0,0,0.2134373,-82.08657,-14.087928)" />
    <linearGradient
       x1="25.398125"
       y1="63.345894"
       x2="90.625114"
       y2="63.345894"
       id="linearGradient3756"
       xlink:href="#linearGradient3384"
       gradientUnits="userSpaceOnUse"
       gradientTransform="matrix(0.2688926,0.2688926,-0.2688926,0.2688926,38.227733,-8.4494346)" />
    <radialGradient
       cx="58.01162"
       cy="63.345894"
       r="33.113495"
       fx="58.01162"
       fy="63.345894"
       id="radialGradient3758"
       xlink:href="#linearGradient3252"
       gradientUnits="userSpaceOnUse"
       gradientTransform="matrix(0.2134373,0,0,0.2134373,19.805211,5.9610473)" />
    <linearGradient
       x1="25.398125"
       y1="63.345894"
       x2="90.625114"
       y2="63.345894"
       id="linearGradient3760"
       xlink:href="#linearGradient3452"
       gradientUnits="userSpaceOnUse"
       gradientTransform="matrix(0.2688926,0.2688926,-0.2688926,0.2688926,-63.664049,-28.49841)" />
    <radialGradient
       cx="58.01162"
       cy="63.345894"
       r="33.113495"
       fx="58.01162"
       fy="63.345894"
       id="radialGradient3762"
       xlink:href="#linearGradient3458"
       gradientUnits="userSpaceOnUse"
       gradientTransform="matrix(0.2134373,0,0,0.2134373,-82.08657,-14.087928)" />
  </defs>
  <g
     transform="matrix(0.43197221,0,0,0.43197221,72.987233,19.815424)"
     id="g5157">
    <path
       d="m -52.825009,4.179815 c 0.0012,6.850275 -5.551709,12.404157 -12.401985,12.404157 -6.850275,0 -12.403183,-5.553882 -12.401984,-12.404157 -0.0012,-6.850276 5.551709,-12.404157 12.401984,-12.404157 6.850276,0 12.403184,5.553881 12.401985,12.404157 l 0,0 z"
       inkscape:connector-curvature="0"
       id="path5159"
       style="fill:#e4e4e3;fill-opacity:1;fill-rule:evenodd;stroke:#000000;stroke-width:0.38027155px;stroke-linecap:butt;stroke-linejoin:miter;stroke-opacity:1" />
    <path
       d="m -56.328868,12.903255 c -4.843029,4.844723 -12.696715,4.845411 -17.540589,0.0015 -4.843878,-4.843877 -4.843189,-12.697563 0.0015,-17.54059 4.843027,-4.844725 12.696713,-4.845413 17.54059,-0.00154 4.843875,4.843876 4.843187,12.697563 -0.0015,17.540591 l 0,0 z"
       inkscape:connector-curvature="0"
       id="path5161"
       style="opacity:0.71739131;fill:url(#linearGradient3760);fill-opacity:1;fill-rule:evenodd;stroke:none" />
    <path
       d="m -62.743794,-0.567553 c 6.73e-4,3.844893 -3.11604,6.962154 -6.960935,6.962154 -3.844894,0 -6.961607,-3.117261 -6.960934,-6.962154 -6.73e-4,-3.844895 3.11604,-6.962154 6.960934,-6.962154 3.844895,0 6.961608,3.117259 6.960935,6.962154 l 0,0 z"
       inkscape:connector-curvature="0"
       id="path5163"
       style="fill:url(#radialGradient3762);fill-opacity:1;fill-rule:evenodd;stroke:none" />
  </g>
  <g
     transform="matrix(0.9678769,0,0,0.9678769,206.90993,27.493396)"
     id="g3253"
     style="stroke:#e8e8e8;stroke-opacity:1">
    <path
       d="m -177.57599,1.5527563 5.38551,-12.2367523 5.38552,-12.236752 53.80393,0 -21.54206,48.947009 -13.45099,0"
       inkscape:connector-curvature="0"
       id="path3239"
       style="fill:none;stroke:#e8e8e8;stroke-width:4.625;stroke-linecap:butt;stroke-linejoin:round;stroke-miterlimit:4;stroke-opacity:1;stroke-dashoffset:0" />
    <rect
       width="53.803928"
       height="53.477772"
       x="-190.10735"
       y="-9.2113724"
       transform="matrix(1,0,-0.4028229,0.9152779,0,0)"
       id="rect3241"
       style="fill:none;stroke:#e8e8e8;stroke-width:4.83431816;stroke-linecap:butt;stroke-linejoin:round;stroke-miterlimit:4;stroke-opacity:1;stroke-dasharray:none;stroke-dashoffset:0" />
    <path
       d="m -147.99408,26.026265 -40.35295,0 16.15655,-36.710262"
       inkscape:connector-curvature="0"
       id="path3243"
       style="fill:none;stroke:#e8e8e8;stroke-width:4.625;stroke-linecap:butt;stroke-linejoin:round;stroke-miterlimit:4;stroke-opacity:1;stroke-dasharray:9.25, 4.625;stroke-dashoffset:0" />
    <path
       d="M -186.18424,-8.0390707 C -166.5924,-22.732948 -166.5924,-22.732948 -166.5924,-22.732948"
       inkscape:connector-curvature="0"
       id="path3245"
       style="fill:none;stroke:#e8e8e8;stroke-width:5;stroke-linecap:butt;stroke-linejoin:miter;stroke-miterlimit:4;stroke-opacity:1;stroke-dasharray:none" />
    <path
       d="m -133.73526,-7.4268267 c 19.59184,-14.6938773 19.59184,-14.6938773 19.59184,-14.6938773"
       inkscape:connector-curvature="0"
       id="path3247"
       style="fill:none;stroke:#e8e8e8;stroke-width:5;stroke-linecap:butt;stroke-linejoin:miter;stroke-miterlimit:4;stroke-opacity:1;stroke-dasharray:none" />
    <path
       d="m -154.14342,40.328275 c 19.59183,-14.693877 19.59183,-14.693877 19.59183,-14.693877"
       inkscape:connector-curvature="0"
       id="path3249"
       style="fill:none;stroke:#e8e8e8;stroke-width:5;stroke-linecap:butt;stroke-linejoin:miter;stroke-miterlimit:4;stroke-opacity:1;stroke-dasharray:none" />
    <path
       d="M -206.18424,39.716031 C -186.5924,25.022154 -186.5924,25.022154 -186.5924,25.022154"
       inkscape:connector-curvature="0"
       id="path3251"
       style="fill:none;stroke:#e8e8e8;stroke-width:5;stroke-linecap:butt;stroke-linejoin:miter;stroke-miterlimit:4;stroke-opacity:1;stroke-dasharray:10, 5;stroke-dashoffset:0" />
  </g>
  <path
     d="m 31.848679,26.412173 5.212516,-11.843669 5.212516,-11.8436702 52.07558,0 -20.850066,47.3746782 -13.018896,0"
     inkscape:connector-curvature="0"
     id="rect3225"
     style="fill:none;stroke:#000000;stroke-width:4.47643042;stroke-linecap:butt;stroke-linejoin:round;stroke-miterlimit:4;stroke-opacity:1;stroke-dashoffset:0" />
  <use
     transform="translate(23.753148,-10.327455)"
     id="use2881"
     x="0"
     y="0"
     width="100"
     height="100"
     xlink:href="#g5157" />
  <g
     transform="matrix(0.43197221,0,0,0.43197221,31.374063,24.546491)"
     id="g5217">
    <path
       d="m 49.066773,24.22879 c 0.0012,6.850275 -5.551709,12.404157 -12.401985,12.404157 -6.850275,0 -12.403184,-5.553882 -12.401985,-12.404157 -0.0012,-6.850276 5.55171,-12.404157 12.401985,-12.404157 6.850276,0 12.403184,5.553881 12.401985,12.404157 l 0,0 z"
       inkscape:connector-curvature="0"
       id="path5219"
       style="fill:#0000ff;fill-opacity:1;fill-rule:evenodd;stroke:#000000;stroke-width:0.38027155px;stroke-linecap:butt;stroke-linejoin:miter;stroke-opacity:1" />
    <path
       d="m 45.562914,32.95223 c -4.843029,4.844723 -12.696715,4.845411 -17.54059,0.0015 -4.843878,-4.843877 -4.843189,-12.697563 0.0015,-17.54059 4.843028,-4.844725 12.696714,-4.845413 17.540591,-0.0015 4.843875,4.843876 4.843187,12.697563 -0.0015,17.540591 l 0,0 z"
       inkscape:connector-curvature="0"
       id="path5221"
       style="opacity:0.71739131;fill:url(#linearGradient3756);fill-opacity:1;fill-rule:evenodd;stroke:none" />
    <path
       d="m 39.147988,19.481422 c 6.73e-4,3.844893 -3.11604,6.962154 -6.960935,6.962154 -3.844894,0 -6.961608,-3.117261 -6.960935,-6.962154 -6.73e-4,-3.844895 3.116041,-6.962154 6.960935,-6.962154 3.844895,0 6.961608,3.117259 6.960935,6.962154 l 0,0 z"
       inkscape:connector-curvature="0"
       id="path5223"
       style="fill:url(#radialGradient3758);fill-opacity:1;fill-rule:evenodd;stroke:none" />
  </g>
  <use
     transform="translate(21.458158,-0.45899805)"
     id="use2877"
     x="0"
     y="0"
     width="100"
     height="100"
     xlink:href="#g5217" />
  <rect
     width="52.075577"
     height="51.759899"
     x="30.682699"
     y="18.299528"
     transform="matrix(1,0,-0.40282292,0.91527793,0,0)"
     id="rect2248"
     style="fill:none;stroke:#000000;stroke-width:4.67902422;stroke-linecap:butt;stroke-linejoin:round;stroke-miterlimit:4;stroke-opacity:1;stroke-dasharray:none;stroke-dashoffset:0" />
  <path
     d="m 60.480328,50.099515 -39.056684,0 15.637552,-35.531011"
     inkscape:connector-curvature="0"
     id="rect3223"
     style="fill:none;stroke:#000000;stroke-width:4.47643042;stroke-linecap:butt;stroke-linejoin:round;stroke-miterlimit:4;stroke-opacity:1;stroke-dasharray:8.95286083, 4.47643042;stroke-dashoffset:0" />
  <use
     transform="translate(-7.4587179,15.261685)"
     id="use2879"
     x="0"
     y="0"
     width="100"
     height="100"
     xlink:href="#g5217" />
  <path
     d="M 23.516956,17.128466 C 42.479441,2.906602 42.479441,2.906602 42.479441,2.906602"
     inkscape:connector-curvature="0"
     id="path3231"
     style="fill:none;stroke:#000000;stroke-width:4.83938408;stroke-linecap:butt;stroke-linejoin:miter;stroke-miterlimit:4;stroke-opacity:1;stroke-dasharray:none" />
  <path
     d="M 74.28111,17.721043 C 93.243593,3.4991788 93.243593,3.4991788 93.243593,3.4991788"
     inkscape:connector-curvature="0"
     id="path3233"
     style="fill:none;stroke:#000000;stroke-width:4.83938408;stroke-linecap:butt;stroke-linejoin:miter;stroke-miterlimit:4;stroke-opacity:1;stroke-dasharray:none" />
  <path
     d="M 54.528519,63.942101 C 73.491005,49.720237 73.491005,49.720237 73.491005,49.720237"
     inkscape:connector-curvature="0"
     id="path3235"
     style="fill:none;stroke:#000000;stroke-width:4.83938408;stroke-linecap:butt;stroke-linejoin:miter;stroke-miterlimit:4;stroke-opacity:1;stroke-dasharray:none" />
  <path
     d="M 4.1594193,63.349524 C 23.121905,49.127661 23.121905,49.127661 23.121905,49.127661"
     inkscape:connector-curvature="0"
     id="path3237"
     style="fill:none;stroke:#000000;stroke-width:4.83938408;stroke-linecap:butt;stroke-linejoin:miter;stroke-miterlimit:4;stroke-opacity:1;stroke-dasharray:9.67876846, 4.83938423;stroke-dashoffset:0" />
  <use
     transform="translate(-47.965294,42.572066)"
     id="use2883"
     x="0"
     y="0"
     width="100"
     height="100"
     xlink:href="#use2881" />
  <g
     transform="matrix(1.1245451,0,0,1.1245451,105.84798,80.650141)"
     id="g3979">
    <path
       d="m -52.825009,4.179815 c 0.0012,6.850275 -5.551709,12.404157 -12.401985,12.404157 -6.850275,0 -12.403183,-5.553882 -12.401984,-12.404157 -0.0012,-6.850276 5.551709,-12.404157 12.401984,-12.404157 6.850276,0 12.403184,5.553881 12.401985,12.404157 l 0,0 z"
       inkscape:connector-curvature="0"
       id="path3474"
       style="fill:#e4e4e3;fill-opacity:1;fill-rule:evenodd;stroke:#000000;stroke-width:0.38027155px;stroke-linecap:butt;stroke-linejoin:miter;stroke-opacity:1" />
    <path
       d="m -56.328868,12.903255 c -4.843029,4.844723 -12.696715,4.845411 -17.540589,0.0015 -4.843878,-4.843877 -4.843189,-12.697563 0.0015,-17.54059 4.843027,-4.844725 12.696713,-4.845413 17.54059,-0.00154 4.843875,4.843876 4.843187,12.697563 -0.0015,17.540591 l 0,0 z"
       inkscape:connector-curvature="0"
       id="path3476"
       style="opacity:0.71739131;fill:url(#linearGradient3984);fill-opacity:1;fill-rule:evenodd;stroke:none" />
    <path
       d="m -62.743794,-0.567553 c 6.73e-4,3.844893 -3.11604,6.962154 -6.960935,6.962154 -3.844894,0 -6.961607,-3.117261 -6.960934,-6.962154 -6.73e-4,-3.844895 3.11604,-6.962154 6.960934,-6.962154 3.844895,0 6.961608,3.117259 6.960935,6.962154 l 0,0 z"
       inkscape:connector-curvature="0"
       id="path3478"
       style="fill:url(#radialGradient3986);fill-opacity:1;fill-rule:evenodd;stroke:none" />
  </g>
  <g
     transform="matrix(1.1245451,0,0,1.1245451,30.324709,57.813863)"
     id="g2464">
    <path
       d="m 49.066773,24.22879 c 0.0012,6.850275 -5.551709,12.404157 -12.401985,12.404157 -6.850275,0 -12.403184,-5.553882 -12.401985,-12.404157 -0.0012,-6.850276 5.55171,-12.404157 12.401985,-12.404157 6.850276,0 12.403184,5.553881 12.401985,12.404157 l 0,0 z"
       inkscape:connector-curvature="0"
       id="path2466"
       style="fill:#0000ff;fill-opacity:1;fill-rule:evenodd;stroke:#000000;stroke-width:0.38027155px;stroke-linecap:butt;stroke-linejoin:miter;stroke-opacity:1" />
    <path
       d="m 45.562914,32.95223 c -4.843029,4.844723 -12.696715,4.845411 -17.54059,0.0015 -4.843878,-4.843877 -4.843189,-12.697563 0.0015,-17.54059 4.843028,-4.844725 12.696714,-4.845413 17.540591,-0.0015 4.843875,4.843876 4.843187,12.697563 -0.0015,17.540591 l 0,0 z"
       inkscape:connector-curvature="0"
       id="path2468"
       style="opacity:0.71739131;fill:url(#linearGradient2472);fill-opacity:1;fill-rule:evenodd;stroke:none" />
    <path
       d="m 39.147988,19.481422 c 6.73e-4,3.844893 -3.11604,6.962154 -6.960935,6.962154 -3.844894,0 -6.961608,-3.117261 -6.960935,-6.962154 -6.73e-4,-3.844895 3.116041,-6.962154 6.960935,-6.962154 3.844895,0 6.961608,3.117259 6.960935,6.962154 l 0,0 z"
       inkscape:connector-curvature="0"
       id="path2470"
       style="fill:url(#radialGradient2474);fill-opacity:1;fill-rule:evenodd;stroke:none" />
  </g>
</svg>
