<?xml version="1.0" encoding="UTF-8" standalone="no"?>
<!-- Created with Inkscape (http://www.inkscape.org/) -->
<svg
   xmlns:svg="http://www.w3.org/2000/svg"
   xmlns="http://www.w3.org/2000/svg"
   version="1.0"
   width="100"
   height="100"
   id="svg2">
  <defs
     id="defs4" />
  <g
     transform="matrix(0.8081731,0.8250633,-0.8250633,0.8081731,-4.8957928,-81.031378)"
     id="g3437"
     style="stroke:#282828;stroke-width:2.00024962;stroke-miterlimit:4;stroke-dasharray:none;stroke-opacity:1">
    <path
       d="M 24.293239,26.831077 L -9.2238601,31.896265 L -24.398493,1.5848381 L -0.25983245,-22.213842 L 29.833313,-6.6108075 L 24.293239,26.831077 z"
       transform="matrix(0.6874757,0,0,0.6874757,107.16222,10.199422)"
       id="path3433"
       style="fill:none;stroke:#282828;stroke-width:2.90955687;stroke-linecap:round;stroke-linejoin:round;stroke-miterlimit:4;stroke-dasharray:none;stroke-dashoffset:0;stroke-opacity:1" />
    <path
       d="M 120.22341,24.935469 L 102.83552,27.563171 M 107.48585,-0.50789738 L 123.09747,7.5865946"
       id="path3435"
       style="fill:none;stroke:#282828;stroke-width:2.00024962;stroke-linecap:round;stroke-linejoin:round;stroke-miterlimit:4;stroke-dasharray:none;stroke-dashoffset:0;stroke-opacity:1" />
  </g>
  <path
     d="M 24.293239,26.831077 L -9.2238601,31.896265 L -24.398493,1.5848381 L -0.25983245,-22.213842 L 29.833313,-6.6108075 L 24.293239,26.831077 z"
     transform="matrix(0.5555994,0.567211,-0.567211,0.5555994,73.439462,14.100104)"
     id="path3428"
     style="fill:none;stroke:#000000;stroke-width:2.90955687;stroke-linecap:round;stroke-linejoin:round;stroke-miterlimit:4;stroke-dasharray:none;stroke-dashoffset:0;stroke-opacity:1" />
  <path
     d="M 71.836991,36.785691 L 55.616545,24.563217 M 82.535227,5.7137526 L 88.473651,25.136081"
     id="path3430"
     style="fill:none;stroke:#000000;stroke-width:2.30986857;stroke-linecap:round;stroke-linejoin:round;stroke-miterlimit:4;stroke-dashoffset:0;stroke-opacity:1" />
  <path
     d="M 15.811161,44.823597 C 31.509045,58.229856 31.391341,58.088551 31.391341,58.088551"
     id="path3458"
     style="fill:none;stroke:#000000;stroke-width:3.76097584;stroke-linecap:butt;stroke-linejoin:miter;stroke-miterlimit:4;stroke-dasharray:none;stroke-opacity:1" />
  <path
     d="M 16.526206,46.541063 C 16.526206,46.541063 17.433964,44.797767 22.189426,22.89822 C 7.3930665,13.863961 6.960854,13.417304 6.960854,13.417304 M 22.189426,22.89822 L 41.669024,14.427288"
     id="path2409"
     style="fill:none;stroke:#000000;stroke-width:3.76097584;stroke-linecap:butt;stroke-linejoin:miter;stroke-miterlimit:4;stroke-dasharray:none;stroke-opacity:1" />
  <path
     d="M 23.714828,80.334044 L -4.1228382,88.639976 L -25.234819,68.684815 L -18.509134,40.423723 L 9.3285324,32.117791 L 30.440514,52.072952 L 23.714828,80.334044 z"
     transform="matrix(0.8191654,0.2339882,-0.2339882,0.8191654,70.270859,26.876553)"
     id="path3189"
     style="fill:none;stroke:#000000;stroke-width:3.5;stroke-miterlimit:4;stroke-dasharray:none;stroke-dashoffset:0;stroke-opacity:1" />
</svg>
