<?xml version="1.0" encoding="UTF-8" standalone="no"?>
<!-- Created with Inkscape (http://www.inkscape.org/) -->

<svg
   xmlns:dc="http://purl.org/dc/elements/1.1/"
   xmlns:cc="http://creativecommons.org/ns#"
   xmlns:rdf="http://www.w3.org/1999/02/22-rdf-syntax-ns#"
   xmlns:svg="http://www.w3.org/2000/svg"
   xmlns="http://www.w3.org/2000/svg"
   xmlns:xlink="http://www.w3.org/1999/xlink"
   xmlns:inkscape="http://www.inkscape.org/namespaces/inkscape"
   version="1.0"
   width="100"
   height="100"
   id="svg2">
  <metadata
     id="metadata2566">
    <rdf:RDF>
      <cc:Work
         rdf:about="">
        <dc:format>image/svg+xml</dc:format>
        <dc:type
           rdf:resource="http://purl.org/dc/dcmitype/StillImage" />
      </cc:Work>
    </rdf:RDF>
  </metadata>
  <defs
     id="defs4">
    <linearGradient
       id="linearGradient3461">
      <stop
         id="stop3463"
         style="stop-color:#ffffff;stop-opacity:1"
         offset="0" />
      <stop
         id="stop3465"
         style="stop-color:#008a00;stop-opacity:0"
         offset="1" />
    </linearGradient>
    <linearGradient
       id="linearGradient3449">
      <stop
         id="stop3451"
         style="stop-color:#00db00;stop-opacity:1"
         offset="0" />
      <stop
         id="stop3453"
         style="stop-color:#009d00;stop-opacity:0"
         offset="1" />
    </linearGradient>
    <linearGradient
       x1="8.6629601"
       y1="60.74017"
       x2="30.595095"
       y2="60.74017"
       id="linearGradient2448"
       xlink:href="#linearGradient3449"
       gradientUnits="userSpaceOnUse" />
    <radialGradient
       cx="15.556526"
       cy="56.583721"
       r="6.1542277"
       fx="15.556526"
       fy="56.583721"
       id="radialGradient2450"
       xlink:href="#linearGradient3461"
       gradientUnits="userSpaceOnUse"
       gradientTransform="matrix(1,0,0,1.0001751,0,-0.00990642)" />
    <linearGradient
       x1="8.6629601"
       y1="60.74017"
       x2="30.595095"
       y2="60.74017"
       id="linearGradient2464"
       xlink:href="#linearGradient3449"
       gradientUnits="userSpaceOnUse" />
    <radialGradient
       cx="15.556526"
       cy="56.583721"
       r="6.1542277"
       fx="15.556526"
       fy="56.583721"
       id="radialGradient2466"
       xlink:href="#linearGradient3461"
       gradientUnits="userSpaceOnUse"
       gradientTransform="matrix(1,0,0,1.0001751,0,-0.00990642)" />
    <linearGradient
       x1="8.6629601"
       y1="60.74017"
       x2="30.595095"
       y2="60.74017"
       id="linearGradient2480"
       xlink:href="#linearGradient3449"
       gradientUnits="userSpaceOnUse" />
    <radialGradient
       cx="15.556526"
       cy="56.583721"
       r="6.1542277"
       fx="15.556526"
       fy="56.583721"
       id="radialGradient2482"
       xlink:href="#linearGradient3461"
       gradientUnits="userSpaceOnUse"
       gradientTransform="matrix(1,0,0,1.0001751,0,-0.00990642)" />
  </defs>
  <path
     d="m 83.779798,29.249793 c 7.26e-4,4.154674 -3.367095,7.523088 -7.521772,7.523088 -4.154676,0 -7.522498,-3.368414 -7.521771,-7.523088 -7.27e-4,-4.154673 3.367095,-7.523087 7.521771,-7.523087 4.154677,0 7.522498,3.368414 7.521772,7.523087 l 0,0 z"
     inkscape:connector-curvature="0"
     id="path3576"
     style="fill:#e1e7e1;fill-opacity:1;fill-rule:evenodd;stroke:none" />
  <path
     d="m 83.779791,54.040703 c 7.27e-4,4.154674 -3.367095,7.523087 -7.521771,7.523087 -4.154677,0 -7.522498,-3.368413 -7.521772,-7.523087 -7.26e-4,-4.154673 3.367095,-7.523088 7.521772,-7.523088 4.154676,0 7.522498,3.368415 7.521771,7.523088 l 0,0 z"
     inkscape:connector-curvature="0"
     id="path2454"
     style="fill:#e1e7e1;fill-opacity:1;fill-rule:evenodd;stroke:none" />
  <path
     d="m 84.194442,78.799312 c 7.27e-4,4.154674 -3.367095,7.523087 -7.521771,7.523087 -4.154676,0 -7.522498,-3.368413 -7.521772,-7.523087 -7.26e-4,-4.154673 3.367096,-7.523087 7.521772,-7.523087 4.154676,0 7.522498,3.368414 7.521771,7.523087 l 0,0 z"
     inkscape:connector-curvature="0"
     id="path2470"
     style="fill:#e1e7e1;fill-opacity:1;fill-rule:evenodd;stroke:none" />
  <path
     d="M 3.3394741,12.258683 C 1.6654054,12.222008 2.9316042,9.2450652 2.5376239,7.9283019 2.3026025,6.4170087 3.399403,3.3230812 0.93393395,5.425484 0.66287748,3.6984062 4.3906322,1.6698504 3.3394741,4.8837841 c 0,2.4583 0,4.9165987 0,7.3748989 z M 10.61398,7.6988745 C 8.9839347,3.8001346 16.493004,0.7570555 16.026429,5.1062964 12.179548,0.7657542 9.3162155,9.9492413 13.37338,11.354864 15.089226,11.163016 17.942932,9.6009928 15.283604,12.107232 12.375788,13.58093 10.346719,10.264859 10.61398,7.6988745 z M 4.5912404,28.934553 C 3.3403719,28.52194 0.35833296,29.840497 0.41274,28.122607 2.9890857,25.921905 5.4546425,19.377699 0.63194268,20.70911 3.8281186,16.832252 6.1493947,24.48142 2.4827508,26.473708 c -2.24464005,1.925816 0.605009,1.325404 2.1084896,1.392549 0,0.356099 0,0.712197 0,1.068296 z M 10.61398,24.374747 c -1.6300476,-3.898742 5.879028,-6.941819 5.412449,-2.592577 -3.846879,-4.340544 -6.7102147,4.842943 -2.653049,6.248566 1.715846,-0.191848 4.569552,-1.753873 1.910224,0.752368 -2.907817,1.473697 -4.936885,-1.842373 -4.669624,-4.408358 l 0,1e-6 z m 14.517833,4.559806 c -1.674053,-0.03669 -0.40786,-3.01362 -0.801839,-4.330381 -0.235021,-1.511289 0.861778,-4.60522 -1.60369,-2.502816 -0.271054,-1.727076 3.456688,-3.755631 2.405529,-0.541699 0,2.458299 0,4.916597 0,7.374896 z m 3.047009,-1.439594 c 2.151656,1.90666 -2.085854,1.973067 -1e-6,-1e-6 l 1e-6,1e-6 z m 6.058388,-0.586262 c -1.496085,-0.589678 -0.960561,4.111469 -1.741788,0.943261 0.643412,-2.249303 -3.619556,0.407773 -2.793088,-2.024587 0.980031,-2.049743 1.960061,-4.099485 2.940092,-6.149228 1.449773,0.211967 0.275977,3.047502 0.654838,4.330381 -0.699932,2.432396 1.240451,1.082012 0.939946,2.900173 z m -1.741788,-1.081326 c -0.173261,-0.913802 0.382465,-5.068964 -0.347633,-3.506859 -0.125417,1.126222 -2.843469,3.893019 -0.578839,3.506859 0.308823,0 0.617648,0 0.926472,0 z m 10.383886,3.107182 c -1.674057,-0.03668 -0.407863,-3.01362 -0.801842,-4.330381 -0.235021,-1.511289 0.861778,-4.60522 -1.60369,-2.502816 -0.271058,-1.727076 3.456692,-3.755631 2.405532,-0.541699 0,2.458299 0,4.916597 0,7.374896 z M 3.3661928,40.555552 C 7.6304631,42.823916 0.66140127,48.613623 0.51964498,44.007979 4.0215818,46.762613 4.3718557,41.04057 1.8916965,40.574461 4.8854119,39.466423 2.679127,36.291874 0.61175687,37.385564 2.0423885,33.880648 6.4272351,38.677538 3.3661928,40.555552 z m 12.6780552,5.054876 c -1.796569,0.206479 -1.676097,-2.563642 -2.610317,-3.696137 -0.527769,-0.755988 -1.761272,-4.771447 -1.750825,-3.041656 0,2.24593 0,4.491861 0,6.737793 -1.620968,-0.07789 -0.375105,-3.022623 -0.766212,-4.330381 0.177822,-1.532691 -0.35745,-3.778477 0.270649,-4.860893 1.543394,0.186694 1.541816,2.773138 2.452911,3.941959 0.531111,0.764297 1.806086,4.961452 1.646492,2.538216 0,-2.160058 0,-4.320116 0,-6.480175 1.60757,0.08833 0.366989,3.0248 0.757302,4.33038 0,1.620299 0,3.240596 0,4.860894 z m 9.087565,0 c -1.674053,-0.03668 -0.40786,-3.01362 -0.801839,-4.330381 -0.235021,-1.511291 0.861779,-4.605221 -1.60369,-2.50282 -0.271054,-1.727076 3.456688,-3.75563 2.405529,-0.541698 0,2.4583 0,4.9166 0,7.374899 z m 3.047009,-1.439599 c 2.151656,1.906663 -2.085853,1.973068 -1e-6,1e-6 l 1e-6,-1e-6 z m 2.739642,-4.123371 c 6.22071,-1.286425 1.502312,9.552667 -1.030805,4.372451 1.438021,1.335049 5.121294,-1.216721 2.425119,-3.427915 -3.006173,1.069325 -1.899751,-2.147347 -2.08925,-3.893307 -0.210687,-1.122264 3.557913,-1.033435 3.550394,-0.138236 -0.311558,1.357227 -3.930998,-0.593428 -2.855458,2.150897 0,0.312036 0,0.624073 0,0.93611 z m 13.212608,5.56297 c -1.250869,-0.412614 -4.232907,0.905942 -4.178501,-0.811947 2.576347,-2.200695 5.041905,-8.744909 0.219215,-7.4135 3.196172,-3.876858 5.517445,3.772313 1.850805,5.764598 -2.244636,1.925813 0.605001,1.325404 2.108481,1.392548 0,0.3561 0,0.7122 0,1.068301 z m 8.887107,0 c -1.674056,-0.03668 -0.407862,-3.01362 -0.801842,-4.330381 -0.235021,-1.511292 0.86178,-4.60522 -1.603688,-2.50282 -0.271053,-1.727076 3.456688,-3.75563 2.40553,-0.541698 0,2.4583 0,4.9166 0,7.374899 z m 6.428119,-4.657519 c 1.428446,3.546724 -3.678793,7.231292 -4.08384,2.139854 -1.276082,-2.71276 1.329375,-10.032805 3.785652,-5.007646 0.244596,0.934776 0.294463,1.906167 0.298187,2.867791 l 10e-7,10e-7 z m -2.107065,3.830238 c 3.114257,-1.144843 0.524409,-11.209819 -1.203885,-5.419655 0.06468,1.669231 -0.649662,4.541329 1.203885,5.419655 z m 6.374659,-3.283064 c -4.586037,4.696566 -4.222596,-9.209581 0.245009,-4.058228 1.88639,2.591105 -0.208124,11.159411 -3.32998,7.138872 1.537685,0.759225 3.487666,-0.474558 3.084972,-3.080643 l -10e-7,-1e-6 z m -1.349771,0.09771 c 3.590386,-1.008489 -1.118194,-7.344055 -1.269586,-2.162652 -0.0041,0.803342 0.218196,2.127018 1.269586,2.162652 z m 8.419371,4.012633 c -1.674055,-0.03668 -0.407861,-3.01362 -0.801841,-4.330381 -0.235021,-1.511291 0.861778,-4.605222 -1.603691,-2.50282 -0.271057,-1.727076 3.456692,-3.755629 2.405532,-0.541698 0,2.4583 0,4.9166 0,7.374899 z M 4.8362484,60.260439 C 3.3401663,59.670763 3.8756911,64.37191 3.0944664,61.203703 3.7378781,58.954395 -0.52509614,61.611473 0.30136619,59.179115 1.2814,57.129372 2.2614339,55.079629 3.2414677,53.029885 c 1.4497731,0.211967 0.2759765,3.047502 0.654838,4.330381 -0.6999302,2.432391 1.2404469,1.082018 0.9399427,2.900173 z m -1.741782,-1.081324 c -0.1732619,-0.913801 0.3824648,-5.068964 -0.3476332,-3.506859 -0.125418,1.126222 -2.84347009,3.89302 -0.5788412,3.506859 0.3088248,0 0.6176496,0 0.9264744,0 z M 10.61398,57.726489 c -1.6300476,-3.898742 5.87903,-6.941817 5.412449,-2.592574 -3.846877,-4.340548 -6.7102158,4.842941 -2.653049,6.248563 1.715845,-0.191847 4.569553,-1.753869 1.910224,0.752369 -2.907817,1.473698 -4.936884,-1.842373 -4.669624,-4.408358 z m 14.517833,4.559808 c -1.674053,-0.03668 -0.40786,-3.013619 -0.801839,-4.33038 -0.235021,-1.511291 0.861778,-4.605222 -1.60369,-2.502818 -0.271053,-1.727075 3.456688,-3.755632 2.405529,-0.5417 0,2.4583 0,4.9166 0,7.374898 z m 3.047009,-1.439594 c 2.151656,1.906659 -2.085854,1.973067 -1e-6,-2e-6 l 1e-6,2e-6 z m 6.058388,-0.586264 c -1.496085,-0.589678 -0.960561,4.111472 -1.741788,0.943264 0.643415,-2.249307 -3.619554,0.40777 -2.793088,-2.024588 0.980031,-2.049743 1.960061,-4.099486 2.940092,-6.14923 1.449773,0.211967 0.275977,3.047502 0.654838,4.330381 -0.699931,2.432395 1.240449,1.082017 0.939946,2.900173 z m -1.741788,-1.081324 c -0.173261,-0.913801 0.382465,-5.068964 -0.347633,-3.506859 -0.125417,1.126222 -2.843469,3.89302 -0.578839,3.506859 0.308823,0 0.617648,0 0.926472,0 z m 10.41061,-1.947693 c 4.264266,2.268368 -2.704796,8.058072 -2.846543,3.452427 3.501934,2.754633 3.852197,-2.967415 1.372039,-3.433519 2.993709,-1.108027 0.78745,-4.282587 -1.279936,-3.188894 1.430617,-3.504914 5.815481,1.291964 2.75444,3.169986 z m 10.112147,5.054875 c -1.674056,-0.03668 -0.407862,-3.013619 -0.801842,-4.33038 -0.235021,-1.511293 0.86178,-4.605221 -1.603688,-2.502818 -0.271052,-1.727075 3.456689,-3.755632 2.40553,-0.5417 0,2.4583 0,4.9166 0,7.374898 z m 6.428119,-4.657518 c 1.428446,3.546724 -3.678795,7.231296 -4.08384,2.139855 -1.276082,-2.712761 1.329375,-10.032802 3.785652,-5.007644 0.244595,0.934774 0.294463,1.906165 0.298187,2.867789 l 10e-7,0 z m -2.107065,3.830238 c 3.114257,-1.144842 0.524409,-11.209818 -1.203885,-5.419653 0.06468,1.669229 -0.649662,4.541331 1.203885,5.419654 l 0,-10e-7 z m 6.374659,-3.283059 c -4.586041,4.696555 -4.222593,-9.20958 0.245009,-4.058232 1.886389,2.591105 -0.208122,11.159412 -3.32998,7.138873 1.537689,0.759225 3.487664,-0.474563 3.084972,-3.080643 l -10e-7,2e-6 z m -1.349771,0.0977 c 3.590387,-1.008486 -1.118195,-7.344054 -1.269586,-2.16265 -0.0041,0.803341 0.218196,2.127018 1.269586,2.162651 l 0,-1e-6 z m 9.671136,4.012633 c -1.250867,-0.412615 -4.232905,0.905943 -4.178497,-0.811947 2.576344,-2.2007 5.041905,-8.744906 0.21921,-7.413499 3.196178,-3.876857 5.517446,3.77231 1.850807,5.7646 -2.244635,1.925812 0.604998,1.325407 2.10848,1.39255 0,0.356099 0,0.712197 0,1.068296 z m 10.236877,-4.657517 c 1.428456,3.546722 -3.678798,7.231298 -4.083831,2.139855 -1.276071,-2.712759 1.329362,-10.032802 3.78565,-5.007644 0.244596,0.934774 0.294459,1.906167 0.298182,2.867789 l -1e-6,0 z m -2.107065,3.830238 c 3.114274,-1.144832 0.524406,-11.209821 -1.20388,-5.419652 0.06469,1.66923 -0.64967,4.541328 1.203882,5.419653 l -2e-6,-10e-7 z m 3.804301,-0.612313 c 2.151664,1.906675 -2.085868,1.973053 0,-3e-6 l 0,3e-6 z m 5.911376,-3.217925 c 1.428447,3.546721 -3.678798,7.231299 -4.083831,2.139855 -1.276079,-2.712756 1.329365,-10.032802 3.785643,-5.007644 0.244594,0.934774 0.294463,1.906166 0.298187,2.867789 l 10e-7,0 z m -2.107066,3.830238 c 3.114268,-1.144837 0.524408,-11.209818 -1.203884,-5.419652 0.06468,1.669229 -0.649662,4.541328 1.203884,5.419653 l 0,-10e-7 z m 10.896176,0.827281 c -1.674068,-0.03667 -0.407869,-3.013618 -0.80185,-4.330381 -0.235021,-1.511293 0.861779,-4.605221 -1.60369,-2.502818 -0.271055,-1.727075 3.456698,-3.755632 2.40554,-0.5417 0,2.4583 0,4.9166 0,7.374899 z M 4.8362484,76.936313 C 3.3401672,76.346637 3.8756907,81.047778 3.0944664,77.879572 3.7378737,75.630271 -0.52509705,78.287347 0.30136619,75.85499 1.2814,73.805246 2.2614339,71.755502 3.2414677,69.705759 c 1.4497731,0.211967 0.2759765,3.047503 0.654838,4.330381 -0.6999302,2.432392 1.2404469,1.082018 0.9399427,2.900173 z M 3.0944664,75.85499 C 2.9212048,74.941186 3.4769305,70.786025 2.7468335,72.348126 2.6214151,73.474349 -0.09663553,76.241149 2.167992,75.85499 c 0.3088248,0 0.6176496,0 0.9264744,0 z M 10.61398,74.402364 c -1.6300487,-3.898743 5.879027,-6.941823 5.412449,-2.592579 -3.846879,-4.340545 -6.7102147,4.842943 -2.653049,6.248566 1.715846,-0.191846 4.569552,-1.753876 1.910224,0.752367 -2.907816,1.473699 -4.936885,-1.842373 -4.669624,-4.408358 l 0,4e-6 z m 14.517833,4.559803 c -1.674053,-0.03668 -0.40786,-3.013619 -0.801839,-4.33038 -0.235021,-1.511292 0.861778,-4.605222 -1.60369,-2.502817 -0.271051,-1.727077 3.456688,-3.755628 2.405529,-0.541697 0,2.458299 0,4.916597 0,7.374894 z m 3.047009,-1.439598 c 2.151654,1.906667 -2.085852,1.97307 -1e-6,3e-6 l 1e-6,-3e-6 z m 6.058388,-0.586256 c -1.496084,-0.589677 -0.960561,4.111466 -1.741788,0.943259 0.64341,-2.2493 -3.619555,0.407774 -2.793088,-2.024582 0.980031,-2.049744 1.960061,-4.099488 2.940092,-6.149231 1.449773,0.211967 0.275977,3.047503 0.654838,4.330381 -0.699931,2.432395 1.240449,1.082017 0.939946,2.900173 z M 32.495422,75.85499 c -0.173261,-0.913804 0.382465,-5.068965 -0.347632,-3.506864 -0.125418,1.126223 -2.843469,3.893023 -0.57884,3.506864 0.308823,0 0.617648,0 0.926472,0 z m 10.41061,-1.947693 c 4.264263,2.268364 -2.70479,8.058067 -2.846543,3.452426 3.501936,2.754629 3.852195,-2.967417 1.372039,-3.433523 2.993716,-1.108027 0.787445,-4.282587 -1.279936,-3.188892 1.430622,-3.504915 5.815478,1.291967 2.75444,3.169989 z m 10.112147,5.05487 c -1.674056,-0.03668 -0.407862,-3.013618 -0.801842,-4.33038 -0.235021,-1.511294 0.86178,-4.605221 -1.603688,-2.502817 -0.271049,-1.727077 3.456688,-3.755628 2.40553,-0.541697 0,2.458299 0,4.916597 0,7.374894 z m 6.428119,-4.657514 c 1.428444,3.546724 -3.678793,7.231291 -4.08384,2.139854 -1.27608,-2.712759 1.329373,-10.032804 3.785652,-5.007647 0.244596,0.934775 0.294463,1.906166 0.298187,2.86779 l 10e-7,3e-6 z m -2.107065,3.830234 c 3.114258,-1.14484 0.524407,-11.209818 -1.203885,-5.419649 0.06468,1.669229 -0.649661,4.541327 1.203885,5.419652 l 0,-3e-6 z m 6.374659,-3.28306 c -4.58604,4.696562 -4.222593,-9.209581 0.245009,-4.058229 1.886389,2.591106 -0.208122,11.159411 -3.329981,7.138873 1.537679,0.75922 3.487669,-0.474551 3.084973,-3.080644 l -10e-7,0 z m -1.349771,0.09771 c 3.590386,-1.00849 -1.118192,-7.344056 -1.269586,-2.162654 -0.0041,0.803341 0.218195,2.127021 1.269586,2.162653 l 0,1e-6 z m 9.671136,4.012629 c -1.250867,-0.412614 -4.232905,0.905943 -4.178497,-0.811947 2.576346,-2.200698 5.041904,-8.744906 0.21921,-7.413497 3.19618,-3.876858 5.517445,3.772311 1.850806,5.7646 -2.244635,1.925811 0.605001,1.325405 2.108481,1.392548 0,0.356099 0,0.712197 0,1.068296 z m 10.236877,-4.657511 c 1.428455,3.546722 -3.678795,7.231292 -4.083831,2.139854 -1.276071,-2.712758 1.329359,-10.032804 3.78565,-5.007647 0.244597,0.934775 0.294459,1.906166 0.298182,2.86779 l -1e-6,3e-6 z m -2.107065,3.830234 c 3.114275,-1.14483 0.524405,-11.209822 -1.20388,-5.419649 0.06469,1.66923 -0.649669,4.541323 1.203882,5.419652 l -2e-6,-3e-6 z m 3.804301,-0.612318 c 2.151662,1.906684 -2.085865,1.973056 0,3e-6 l 0,-3e-6 z m 5.911376,-3.217916 c 1.428446,3.546719 -3.678796,7.231293 -4.083831,2.139854 -1.276079,-2.712756 1.329362,-10.032804 3.785643,-5.007647 0.244594,0.934775 0.294463,1.906166 0.298187,2.86779 l 10e-7,3e-6 z m -2.107066,3.830234 c 3.114269,-1.144835 0.524406,-11.209819 -1.203884,-5.419649 0.06468,1.66923 -0.649661,4.541325 1.203884,5.419652 l 0,-3e-6 z m 10.896176,0.827281 c -1.674068,-0.03667 -0.407869,-3.013618 -0.80185,-4.330381 -0.235021,-1.511294 0.861779,-4.605221 -1.60369,-2.502817 -0.271052,-1.727078 3.456698,-3.755629 2.40554,-0.541696 0,2.458298 0,4.916596 0,7.374894 z M 4.8362484,93.612183 C 3.3401672,93.022507 3.8756907,97.723648 3.0944664,94.555442 3.7378737,92.30614 -0.52509705,94.963217 0.30136619,92.53086 1.2814,90.481116 2.2614339,88.431373 3.2414677,86.381629 c 1.4497731,0.211967 0.2759765,3.047503 0.654838,4.330381 -0.6999302,2.432392 1.2404469,1.082018 0.9399427,2.900173 z M 3.0944664,92.53086 C 2.9212048,91.617056 3.4769305,87.461895 2.7468335,89.023996 2.6214151,90.150219 -0.09663553,92.917019 2.167992,92.53086 c 0.3088248,0 0.6176496,0 0.9264744,0 z M 10.61398,91.078234 c -1.6300476,-3.898743 5.879026,-6.941821 5.412449,-2.592579 -3.846881,-4.340542 -6.7102135,4.842943 -2.653049,6.248566 1.715845,-0.191841 4.569553,-1.753876 1.910224,0.752368 -2.907816,1.4737 -4.936885,-1.842371 -4.669624,-4.408357 l 0,2e-6 z m 14.517833,4.559803 c -1.674053,-0.03669 -0.40786,-3.01362 -0.801839,-4.330379 -0.235021,-1.511295 0.861778,-4.605225 -1.60369,-2.502816 -0.271052,-1.727076 3.456688,-3.75563 2.405529,-0.541699 0,2.458299 0,4.916597 0,7.374894 z m 3.047009,-1.439589 c 2.151657,1.906657 -2.085855,1.973064 -1e-6,-5e-6 l 1e-6,5e-6 z m 6.058388,-0.586265 c -1.496084,-0.589677 -0.960561,4.111466 -1.741788,0.943259 0.64341,-2.249299 -3.619555,0.407774 -2.793088,-2.024582 0.980031,-2.049744 1.960061,-4.099487 2.940092,-6.149231 1.449773,0.211967 0.275977,3.047503 0.654838,4.330381 -0.699931,2.432395 1.240449,1.082017 0.939946,2.900173 z M 32.495422,92.53086 c -0.173261,-0.913804 0.382465,-5.068965 -0.347632,-3.506864 -0.125418,1.126223 -2.843469,3.893023 -0.57884,3.506864 0.308823,0 0.617648,0 0.926472,0 z m 10.41061,-1.947693 c 4.264264,2.268365 -2.704793,8.058069 -2.846543,3.452426 3.501935,2.754634 3.852197,-2.967423 1.372039,-3.433514 2.993704,-1.108031 0.787456,-4.282594 -1.279936,-3.188899 1.43062,-3.504916 5.815479,1.291964 2.75444,3.169987 z m 10.112147,5.05487 c -1.674056,-0.03668 -0.407862,-3.013618 -0.801842,-4.330379 -0.235021,-1.511296 0.86178,-4.605223 -1.603688,-2.502816 -0.271051,-1.727076 3.456688,-3.75563 2.40553,-0.541699 0,2.458299 0,4.916597 0,7.374894 z m 6.428119,-4.657514 c 1.428446,3.546726 -3.678797,7.231294 -4.08384,2.139853 -1.276082,-2.71276 1.329377,-10.032802 3.785652,-5.007643 0.244596,0.934774 0.294463,1.906165 0.298187,2.867789 l 10e-7,1e-6 z m -2.107065,3.830235 c 3.114259,-1.144837 0.524406,-11.209819 -1.203885,-5.419649 0.06468,1.669228 -0.649661,4.541329 1.203885,5.419652 l 0,-3e-6 z m 6.374659,-3.283061 c -4.586038,4.696563 -4.222596,-9.209578 0.245009,-4.058229 1.886389,2.591107 -0.208121,11.159412 -3.32998,7.138874 1.537693,0.759226 3.487663,-0.474565 3.084972,-3.080642 l -10e-7,-3e-6 z m -1.349771,0.09771 c 3.590386,-1.008488 -1.118195,-7.344055 -1.269586,-2.162652 -0.0041,0.80334 0.218195,2.127022 1.269586,2.162651 l 0,10e-7 z m 9.671136,4.012629 c -1.250867,-0.412614 -4.232905,0.905943 -4.178497,-0.811947 2.576347,-2.200697 5.041902,-8.744907 0.21921,-7.413496 3.196179,-3.876858 5.517446,3.772311 1.850806,5.764598 -2.244635,1.925813 0.605002,1.325404 2.108481,1.392549 0,0.356099 0,0.712198 0,1.068296 z m 10.236877,-4.657511 c 1.428456,3.546724 -3.678798,7.231296 -4.083831,2.139853 -1.276072,-2.712759 1.329364,-10.032802 3.78565,-5.007643 0.244597,0.934774 0.294459,1.906167 0.298182,2.867789 l -1e-6,10e-7 z m -2.107065,3.830235 c 3.114276,-1.144828 0.524402,-11.209822 -1.20388,-5.419649 0.06469,1.669231 -0.64967,4.541327 1.203882,5.419652 l -2e-6,-3e-6 z m 3.804301,-0.61231 c 2.151665,1.906674 -2.085869,1.973051 0,-5e-6 l 0,5e-6 z m 5.911376,-3.217925 c 1.428447,3.546723 -3.678799,7.231297 -4.083831,2.139853 -1.276081,-2.712756 1.329367,-10.032802 3.785643,-5.007643 0.244594,0.934774 0.294463,1.906166 0.298187,2.867789 l 10e-7,10e-7 z M 87.77368,94.81076 c 3.11427,-1.144832 0.524404,-11.20982 -1.203884,-5.419649 0.06468,1.669229 -0.649662,4.541327 1.203884,5.419652 l 0,-3e-6 z m 10.896176,0.82728 c -1.674068,-0.03667 -0.407869,-3.013617 -0.80185,-4.33038 -0.235021,-1.511296 0.861778,-4.605223 -1.60369,-2.502816 -0.271054,-1.727076 3.456698,-3.755632 2.40554,-0.541698 0,2.458298 0,4.916596 0,7.374894 z"
     inkscape:connector-curvature="0"
     id="text2418"
     style="font-size:9.71758366px;font-style:normal;font-variant:normal;font-weight:normal;font-stretch:normal;fill:#000000;fill-opacity:1;stroke:none;font-family:Sans;-inkscape-font-specification:Adobe Helvetica" />
  <text
     x="10.479743"
     y="71.988503"
     id="text2436"
     xml:space="preserve"
     style="font-size:54.370121px;font-style:normal;font-variant:normal;font-weight:normal;font-stretch:normal;fill:#000000;fill-opacity:1;stroke:none;font-family:Zekton Dots;-inkscape-font-specification:Zekton Dots"><tspan
       x="10.479743"
       y="71.988503"
       id="tspan2438">Z</tspan></text>
  <g
     transform="matrix(0.68599811,0,0,0.68599811,61.383288,-14.730922)"
     id="g3469">
    <path
       d="m 30.480042,60.780914 c 0.0011,6.056392 -4.908317,10.96663 -10.96471,10.96663 -6.056392,0 -10.9657699,-4.910238 -10.9647089,-10.96663 -0.00106,-6.056391 4.9083169,-10.96663 10.9647089,-10.96663 6.056393,0 10.965771,4.910239 10.96471,10.96663 l 0,0 z"
       inkscape:connector-curvature="0"
       id="path3670"
       style="fill:#008a00;fill-opacity:1;fill-rule:evenodd;stroke:#000000;stroke-width:0.33620161px;stroke-linecap:butt;stroke-linejoin:miter;stroke-opacity:1" />
    <path
       d="m 27.382247,68.493388 c -4.281765,4.283266 -11.225282,4.283874 -15.507798,0.0014 -4.2825159,-4.282515 -4.2819069,-11.226032 0.0014,-15.507798 4.281766,-4.283266 11.225283,-4.283874 15.507798,-0.0014 4.282516,4.282517 4.281908,11.226034 -0.0014,15.507799 l 0,0 z"
       inkscape:connector-curvature="0"
       id="path3672"
       style="opacity:0.71739131;fill:url(#linearGradient2448);fill-opacity:1;fill-rule:evenodd;stroke:none" />
    <path
       d="m 21.710753,56.583722 c 5.95e-4,3.399307 -2.754921,6.155305 -6.154228,6.155305 -3.399306,0 -6.1548219,-2.755998 -6.1542269,-6.155305 -5.95e-4,-3.399307 2.7549209,-6.155305 6.1542269,-6.155305 3.399307,0 6.154823,2.755998 6.154228,6.155305 l 0,0 z"
       inkscape:connector-curvature="0"
       id="path3674"
       style="fill:url(#radialGradient2450);fill-opacity:1;fill-rule:evenodd;stroke:none" />
  </g>
  <g
     transform="matrix(0.68599811,0,0,0.68599811,61.383281,10.059987)"
     id="g2456">
    <path
       d="m 30.480042,60.780914 c 0.0011,6.056392 -4.908317,10.96663 -10.96471,10.96663 -6.056392,0 -10.9657699,-4.910238 -10.9647089,-10.96663 -0.00106,-6.056391 4.9083169,-10.96663 10.9647089,-10.96663 6.056393,0 10.965771,4.910239 10.96471,10.96663 l 0,0 z"
       inkscape:connector-curvature="0"
       id="path2458"
       style="fill:#008a00;fill-opacity:1;fill-rule:evenodd;stroke:#000000;stroke-width:0.33620161px;stroke-linecap:butt;stroke-linejoin:miter;stroke-opacity:1" />
    <path
       d="m 27.382247,68.493388 c -4.281765,4.283266 -11.225282,4.283874 -15.507798,0.0014 -4.2825159,-4.282515 -4.2819069,-11.226032 0.0014,-15.507798 4.281766,-4.283266 11.225283,-4.283874 15.507798,-0.0014 4.282516,4.282517 4.281908,11.226034 -0.0014,15.507799 l 0,0 z"
       inkscape:connector-curvature="0"
       id="path2460"
       style="opacity:0.71739131;fill:url(#linearGradient2464);fill-opacity:1;fill-rule:evenodd;stroke:none" />
    <path
       d="m 21.710753,56.583722 c 5.95e-4,3.399307 -2.754921,6.155305 -6.154228,6.155305 -3.399306,0 -6.1548219,-2.755998 -6.1542269,-6.155305 -5.95e-4,-3.399307 2.7549209,-6.155305 6.1542269,-6.155305 3.399307,0 6.154823,2.755998 6.154228,6.155305 l 0,0 z"
       inkscape:connector-curvature="0"
       id="path2462"
       style="fill:url(#radialGradient2466);fill-opacity:1;fill-rule:evenodd;stroke:none" />
  </g>
  <g
     transform="matrix(0.68599811,0,0,0.68599811,61.797932,34.818597)"
     id="g2472">
    <path
       d="m 30.480042,60.780914 c 0.0011,6.056392 -4.908317,10.96663 -10.96471,10.96663 -6.056392,0 -10.9657699,-4.910238 -10.9647089,-10.96663 -0.00106,-6.056391 4.9083169,-10.96663 10.9647089,-10.96663 6.056393,0 10.965771,4.910239 10.96471,10.96663 l 0,0 z"
       inkscape:connector-curvature="0"
       id="path2474"
       style="fill:#008a00;fill-opacity:1;fill-rule:evenodd;stroke:#000000;stroke-width:0.33620161px;stroke-linecap:butt;stroke-linejoin:miter;stroke-opacity:1" />
    <path
       d="m 27.382247,68.493388 c -4.281765,4.283266 -11.225282,4.283874 -15.507798,0.0014 -4.2825159,-4.282515 -4.2819069,-11.226032 0.0014,-15.507798 4.281766,-4.283266 11.225283,-4.283874 15.507798,-0.0014 4.282516,4.282517 4.281908,11.226034 -0.0014,15.507799 l 0,0 z"
       inkscape:connector-curvature="0"
       id="path2476"
       style="opacity:0.71739131;fill:url(#linearGradient2480);fill-opacity:1;fill-rule:evenodd;stroke:none" />
    <path
       d="m 21.710753,56.583722 c 5.95e-4,3.399307 -2.754921,6.155305 -6.154228,6.155305 -3.399306,0 -6.1548219,-2.755998 -6.1542269,-6.155305 -5.95e-4,-3.399307 2.7549209,-6.155305 6.1542269,-6.155305 3.399307,0 6.154823,2.755998 6.154228,6.155305 l 0,0 z"
       inkscape:connector-curvature="0"
       id="path2478"
       style="fill:url(#radialGradient2482);fill-opacity:1;fill-rule:evenodd;stroke:none" />
  </g>
  <text
     x="11.944234"
     y="73.378998"
     id="text2499"
     xml:space="preserve"
     style="font-size:54.370121px;font-style:normal;font-variant:normal;font-weight:normal;font-stretch:normal;fill:#000000;fill-opacity:0.15135133;stroke:none;font-family:Zekton Dots;-inkscape-font-specification:Zekton Dots"><tspan
       x="11.944234"
       y="73.378998"
       id="tspan2501">Z</tspan></text>
  <path
     d="M 4.2877016,13.43263 C 2.613633,13.395956 3.8798316,10.419012 3.4858515,9.1022486 3.2508295,7.5909578 4.347631,4.4970296 1.8821627,6.5994318 1.6111079,4.8723537 5.3388593,2.843799 4.2877016,6.0577319 c 0,2.4583 0,4.9165991 0,7.3748981 z M 11.562208,8.8728224 c -1.630045,-3.8987401 5.879025,-6.9418191 5.41245,-2.5925781 -3.846881,-4.340542 -6.710214,4.8429447 -2.65305,6.2485677 1.715846,-0.191848 4.569552,-1.753871 1.910224,0.752369 -2.907816,1.473697 -4.936885,-1.842374 -4.669624,-4.4083586 z M 5.5394687,30.1085 C 4.2885996,29.695886 1.3065614,31.014443 1.3609683,29.296553 3.9373156,27.095852 6.4028685,20.551647 1.580171,21.883057 c 3.1961775,-3.876856 5.5174508,3.772311 1.8508077,5.7646 -2.2446393,1.925816 0.6050091,1.325404 2.10849,1.392549 0,0.356098 0,0.712196 0,1.068294 z m 6.0227393,-4.559806 c -1.6300461,-3.898741 5.879026,-6.941817 5.41245,-2.592577 -3.846881,-4.340542 -6.710214,4.842944 -2.65305,6.248567 1.715848,-0.191848 4.569552,-1.753872 1.910224,0.752368 -2.907816,1.473697 -4.936885,-1.842372 -4.669624,-4.408358 z M 26.080041,30.1085 c -1.674053,-0.03669 -0.40786,-3.01362 -0.801839,-4.330381 -0.235021,-1.511291 0.861778,-4.605221 -1.60369,-2.502815 -0.271055,-1.727075 3.456688,-3.755632 2.405529,-0.5417 0,2.458298 0,4.916597 0,7.374896 z m 3.047009,-1.439594 c 2.151655,1.906662 -2.085853,1.973068 -1e-6,0 l 1e-6,0 z m 6.058388,-0.58626 c -1.496083,-0.589677 -0.96056,4.111466 -1.741787,0.943259 0.643409,-2.249301 -3.619558,0.407775 -2.793089,-2.024585 0.980031,-2.049743 1.960062,-4.099485 2.940092,-6.149228 1.449773,0.211967 0.275978,3.047502 0.654839,4.330381 -0.699931,2.432396 1.240451,1.082012 0.939945,2.900173 z M 33.443651,27.00132 c -0.173262,-0.913803 0.382465,-5.068964 -0.347632,-3.506861 -0.125419,1.126223 -2.843469,3.893021 -0.578841,3.506861 0.308825,0 0.617648,0 0.926473,0 z m 10.383885,3.10718 c -1.674056,-0.03668 -0.407862,-3.01362 -0.801841,-4.330381 -0.235021,-1.511291 0.861777,-4.605221 -1.603691,-2.502815 -0.271058,-1.727075 3.456692,-3.755633 2.405532,-0.5417 0,2.458298 0,4.916597 0,7.374896 z M 4.3144205,41.729499 c 4.2642721,2.268364 -2.7047922,8.058073 -2.8465472,3.452427 3.5019345,2.754635 3.8522118,-2.967406 1.3720519,-3.433519 2.9937139,-1.108036 0.7874305,-4.282585 -1.2799397,-3.188895 1.4306265,-3.504916 5.8154813,1.291974 2.754435,3.169987 z m 12.6780555,5.054875 c -1.796568,0.20648 -1.676096,-2.563642 -2.610316,-3.696137 -0.527769,-0.755987 -1.761273,-4.771447 -1.750826,-3.041655 0,2.24593 0,4.491861 0,6.737792 -1.620966,-0.0779 -0.375104,-3.022623 -0.766211,-4.330381 0.177822,-1.532691 -0.357449,-3.778476 0.270649,-4.860892 1.543393,0.186695 1.541815,2.773138 2.452911,3.941959 0.531111,0.764298 1.806085,4.961452 1.646492,2.538216 0,-2.160058 0,-4.320117 0,-6.480175 1.607569,0.08832 0.366988,3.0248 0.757301,4.330381 0,1.620297 0,3.240595 0,4.860892 z m 9.087565,0 c -1.674053,-0.03668 -0.40786,-3.01362 -0.801839,-4.330381 -0.235021,-1.51129 0.861779,-4.605221 -1.60369,-2.502818 -0.271052,-1.727075 3.456688,-3.755631 2.405529,-0.541699 0,2.4583 0,4.9166 0,7.374898 z M 29.12705,45.34478 c 2.151657,1.906657 -2.085855,1.973065 -1e-6,-2e-6 l 1e-6,2e-6 z m 2.739643,-4.123371 c 6.220707,-1.286433 1.502313,9.552667 -1.030806,4.372448 1.438019,1.335048 5.121295,-1.216719 2.425119,-3.427914 -3.006172,1.069323 -1.899751,-2.147348 -2.089249,-3.893309 -0.210688,-1.122264 3.557912,-1.033435 3.550393,-0.138236 -0.311558,1.357227 -3.930996,-0.593428 -2.855457,2.150896 0,0.312038 0,0.624077 0,0.936115 z m 13.212608,5.562965 c -1.250869,-0.412613 -4.232908,0.905943 -4.178502,-0.811946 2.576351,-2.200695 5.041904,-8.744909 0.219215,-7.4135 3.196171,-3.876856 5.517446,3.772313 1.850807,5.7646 -2.244635,1.925813 0.604997,1.325407 2.10848,1.39255 0,0.356099 0,0.712197 0,1.068296 z m 8.887107,0 c -1.674057,-0.03668 -0.407863,-3.01362 -0.801842,-4.330381 -0.235022,-1.511295 0.861779,-4.605219 -1.603693,-2.502818 -0.271052,-1.727075 3.456695,-3.755631 2.405535,-0.541699 0,2.4583 0,4.9166 0,7.374898 z m 6.428114,-4.657518 c 1.428451,3.546727 -3.678788,7.231293 -4.08384,2.139853 -1.276085,-2.71276 1.329384,-10.032802 3.785659,-5.007643 0.244592,0.934774 0.294458,1.906166 0.298182,2.86779 l -10e-7,0 z m -2.107066,3.830238 c 3.114274,-1.144837 0.524405,-11.20982 -1.203877,-5.419653 0.06468,1.66923 -0.649666,4.541324 1.203878,5.419654 l -1e-6,-1e-6 z m 6.374673,-3.283064 c -4.586054,4.696571 -4.222603,-9.209575 0.245003,-4.058227 1.886384,2.591108 -0.208127,11.159412 -3.329986,7.138872 1.537697,0.759227 3.487665,-0.474562 3.08498,-3.080643 l 3e-6,-2e-6 z m -1.349779,0.09771 c 3.590381,-1.008493 -1.118195,-7.344053 -1.269587,-2.162652 -0.0041,0.803343 0.218202,2.12702 1.269589,2.162653 l -2e-6,-10e-7 z m 8.419366,4.012633 c -1.674056,-0.03668 -0.407861,-3.01362 -0.801841,-4.330381 -0.235023,-1.511285 0.861778,-4.605222 -1.603682,-2.502819 -0.271056,-1.727076 3.456682,-3.75563 2.405523,-0.541699 0,2.4583 0,4.9166 0,7.374899 z M 5.7844767,61.434389 c -1.4960803,-0.589673 -0.9605586,4.111466 -1.7417828,0.94326 0.6434063,-2.249302 -3.61956684,0.407776 -2.793099,-2.024587 0.9800339,-2.049743 1.960068,-4.099484 2.940101,-6.149226 1.4497732,0.211967 0.2759763,3.047503 0.6548378,4.330381 -0.6999299,2.432394 1.2404517,1.08201 0.939943,2.900172 z M 4.0426939,60.353062 C 3.8694324,59.43926 4.4251584,55.284098 3.6950607,56.846203 c -0.1254172,1.126222 -2.84346939,3.893019 -0.5788408,3.506859 0.3088247,0 0.6176493,0 0.926474,0 z m 7.5195141,-1.452626 c -1.6300461,-3.898741 5.879029,-6.941815 5.41245,-2.592575 -3.846879,-4.340545 -6.710216,4.842943 -2.65305,6.248565 1.715845,-0.191846 4.569554,-1.753871 1.910224,0.752368 -2.907816,1.473698 -4.936886,-1.842372 -4.669624,-4.408357 l 0,-10e-7 z m 14.517833,4.559808 c -1.674053,-0.03668 -0.40786,-3.01362 -0.801839,-4.330381 -0.235021,-1.511292 0.861778,-4.605223 -1.60369,-2.502816 -0.271054,-1.727074 3.456688,-3.755633 2.405529,-0.5417 0,2.458299 0,4.916598 0,7.374897 z M 29.12705,62.02065 c 2.151656,1.906659 -2.085854,1.973068 -1e-6,-1e-6 l 1e-6,1e-6 z m 6.058388,-0.586261 c -1.496083,-0.589676 -0.96056,4.111467 -1.741787,0.94326 0.643409,-2.249301 -3.619559,0.407775 -2.793089,-2.024587 0.980031,-2.049743 1.960062,-4.099484 2.940092,-6.149226 1.449773,0.211967 0.275978,3.047503 0.654839,4.330381 -0.699932,2.432398 1.240454,1.082008 0.939945,2.900172 z m -1.741787,-1.081327 c -0.173262,-0.913802 0.382465,-5.068964 -0.347632,-3.506859 -0.125419,1.126222 -2.843471,3.893019 -0.578841,3.506859 0.308825,0 0.617648,0 0.926473,0 z m 10.41061,-1.947688 c 4.264263,2.268363 -2.704791,8.058066 -2.846544,3.452426 3.501938,2.754628 3.852196,-2.96742 1.372039,-3.433518 2.993704,-1.10803 0.787456,-4.282591 -1.279935,-3.188898 1.430618,-3.504915 5.815478,1.291967 2.75444,3.16999 z m 10.112147,5.05487 c -1.674057,-0.03668 -0.407863,-3.01362 -0.801842,-4.330381 -0.235022,-1.511296 0.861779,-4.60522 -1.603693,-2.502816 -0.271054,-1.727075 3.456695,-3.755634 2.405535,-0.5417 0,2.458299 0,4.916598 0,7.374897 z m 6.428114,-4.657519 c 1.428451,3.546728 -3.678787,7.231296 -4.08384,2.139856 -1.276083,-2.71276 1.329379,-10.0328 3.785659,-5.007645 0.244592,0.934776 0.294458,1.906167 0.298182,2.867791 l -10e-7,-2e-6 z m -2.107066,3.830238 c 3.114276,-1.144834 0.524404,-11.209818 -1.203877,-5.419651 0.06468,1.669231 -0.649666,4.541324 1.203878,5.419654 l -1e-6,-3e-6 z m 6.374673,-3.283059 c -4.586057,4.69656 -4.222602,-9.209573 0.245003,-4.05823 1.886383,2.591108 -0.208126,11.159412 -3.329988,7.138873 1.537695,0.759225 3.487667,-0.474557 3.084982,-3.080643 l 3e-6,0 z m -1.349779,0.09771 c 3.590379,-1.008499 -1.118195,-7.344054 -1.269587,-2.162653 -0.0041,0.803341 0.218203,2.12702 1.269589,2.162651 l -2e-6,2e-6 z m 9.67114,4.012628 c -1.25087,-0.412612 -4.23291,0.905942 -4.178506,-0.811946 2.576343,-2.200695 5.041914,-8.744908 0.219214,-7.413497 3.196167,-3.876859 5.517456,3.772304 1.850806,5.764597 -2.244642,1.925815 0.605002,1.325406 2.108486,1.39255 0,0.3561 0,0.712197 0,1.068296 z m 10.236877,-4.657521 c 1.42845,3.546723 -3.678796,7.231298 -4.083836,2.139856 -1.276074,-2.712756 1.329365,-10.0328 3.785652,-5.007645 0.244594,0.934774 0.294456,1.906167 0.298179,2.867791 l 5e-6,-2e-6 z m -2.107075,3.830238 c 3.114269,-1.144829 0.524412,-11.209824 -1.203876,-5.419651 0.0647,1.669233 -0.649673,4.541323 1.203881,5.419654 l -5e-6,-3e-6 z m 3.804311,-0.612313 c 2.151662,1.906692 -2.085881,1.973039 -10e-7,-10e-7 l 10e-7,10e-7 z m 5.911368,-3.217925 c 1.428453,3.546723 -3.67879,7.231298 -4.08383,2.139856 -1.276077,-2.712755 1.329368,-10.032801 3.785646,-5.007645 0.244593,0.934776 0.294461,1.906167 0.298185,2.867791 l -10e-7,-2e-6 z m -2.107066,3.830238 c 3.114264,-1.144831 0.52441,-11.20982 -1.203882,-5.419651 0.06469,1.669232 -0.649664,4.541323 1.203883,5.419654 l -10e-7,-3e-6 z M 99.61808,63.46024 c -1.674068,-0.03667 -0.407869,-3.013617 -0.80185,-4.330381 -0.235022,-1.511294 0.861779,-4.605219 -1.603689,-2.502816 -0.271058,-1.727072 3.456699,-3.755635 2.405539,-0.5417 0,2.458299 0,4.916598 0,7.374897 z M 5.7844767,78.110263 c -1.4960803,-0.589672 -0.9605586,4.111467 -1.7417828,0.943261 0.6434052,-2.249302 -3.61957127,0.407777 -2.793099,-2.024592 0.9800339,-2.049744 1.960068,-4.099487 2.940101,-6.14923 1.4497732,0.211966 0.2759763,3.047502 0.6548378,4.33038 -0.6999299,2.432394 1.2404529,1.082017 0.939943,2.900181 z M 4.0426939,77.028932 C 3.8694313,76.115134 4.4251596,71.95997 3.6950607,73.522076 c -0.1254172,1.126221 -2.84347076,3.893019 -0.5788408,3.506856 0.3088247,0 0.6176493,0 0.926474,0 z m 7.5195141,-1.452626 c -1.6300461,-3.898742 5.879034,-6.941811 5.41245,-2.59257 -3.846876,-4.340554 -6.710218,4.84294 -2.65305,6.248562 1.715848,-0.191849 4.569552,-1.753872 1.910224,0.752368 -2.907814,1.473697 -4.936886,-1.842373 -4.669624,-4.408358 l 0,-2e-6 z m 14.517833,4.559813 c -1.674053,-0.03668 -0.40786,-3.01362 -0.801839,-4.330381 -0.235021,-1.511291 0.861779,-4.605221 -1.60369,-2.50282 -0.271054,-1.727074 3.456688,-3.755635 2.405529,-0.541701 0,2.4583 0,4.916601 0,7.374902 z M 29.12705,78.69652 c 2.151655,1.906662 -2.085853,1.973067 -1e-6,0 l 1e-6,0 z m 6.058388,-0.586257 c -1.496083,-0.589675 -0.96056,4.111468 -1.741787,0.943261 0.643408,-2.249301 -3.619564,0.407777 -2.793089,-2.024592 0.980031,-2.049744 1.960062,-4.099487 2.940092,-6.14923 1.449773,0.211966 0.275978,3.047502 0.654839,4.33038 -0.699932,2.432399 1.240455,1.082015 0.939945,2.900181 z m -1.741787,-1.081331 c -0.173262,-0.913798 0.382466,-5.068962 -0.347634,-3.506856 -0.125417,1.126221 -2.84347,3.893019 -0.578839,3.506856 0.308825,0 0.617648,0 0.926473,0 z m 10.41061,-1.947685 c 4.26426,2.268361 -2.704786,8.058063 -2.846544,3.452428 3.501939,2.754621 3.852195,-2.967422 1.372039,-3.433523 2.993705,-1.108028 0.787455,-4.282591 -1.279934,-3.188896 1.430616,-3.504915 5.815477,1.291966 2.754439,3.169991 z m 10.112147,5.054872 c -1.674057,-0.03668 -0.407863,-3.01362 -0.801842,-4.330381 -0.235022,-1.511296 0.86178,-4.60522 -1.603693,-2.50282 -0.271054,-1.727074 3.456695,-3.755635 2.405535,-0.541701 0,2.4583 0,4.916601 0,7.374902 z m 6.428114,-4.657524 c 1.428451,3.546729 -3.678784,7.231298 -4.08384,2.139859 -1.276082,-2.712761 1.329376,-10.0328 3.785659,-5.007648 0.244592,0.934775 0.294458,1.906168 0.298182,2.867792 l -10e-7,-3e-6 z m -2.107066,3.830243 c 3.114274,-1.144839 0.524406,-11.209821 -1.203877,-5.419654 0.06468,1.669231 -0.649664,4.541322 1.203878,5.419654 l -1e-6,0 z m 6.374673,-3.283059 c -4.58606,4.696554 -4.2226,-9.209574 0.245003,-4.058233 1.886383,2.591108 -0.208126,11.159413 -3.329988,7.138873 1.537691,0.759223 3.487669,-0.474555 3.084982,-3.080644 l 3e-6,4e-6 z m -1.349779,0.09771 c 3.590379,-1.008503 -1.118193,-7.344055 -1.269587,-2.162657 -0.0041,0.803342 0.218202,2.127019 1.269589,2.162653 l -2e-6,4e-6 z m 9.67114,4.012629 c -1.25087,-0.412613 -4.23291,0.905941 -4.178506,-0.811946 2.576341,-2.200697 5.041915,-8.744912 0.219214,-7.4135 3.196163,-3.876859 5.517459,3.772304 1.850806,5.764597 -2.24464,1.925817 0.605,1.32541 2.108486,1.392553 0,0.356099 0,0.712197 0,1.068296 z m 10.236877,-4.657527 c 1.42845,3.546724 -3.678793,7.2313 -4.083836,2.139859 -1.276073,-2.712757 1.329362,-10.0328 3.785652,-5.007648 0.244594,0.934775 0.294456,1.906168 0.298179,2.867792 l 5e-6,-3e-6 z m -2.107075,3.830243 c 3.114268,-1.144832 0.524414,-11.209827 -1.203876,-5.419654 0.0647,1.669233 -0.649672,4.541319 1.203881,5.419654 l -5e-6,0 z m 3.804311,-0.612318 c 2.151662,1.906693 -2.085881,1.973039 -10e-7,0 l 10e-7,0 z m 5.911368,-3.217925 c 1.428453,3.546724 -3.678787,7.2313 -4.08383,2.139859 -1.276075,-2.712756 1.329365,-10.032801 3.785646,-5.007648 0.244593,0.934775 0.294461,1.906168 0.298185,2.867792 l -10e-7,-3e-6 z m -2.107066,3.830243 c 3.114263,-1.144836 0.524411,-11.209823 -1.203882,-5.419654 0.06468,1.669232 -0.649663,4.541321 1.203883,5.419654 l -10e-7,0 z m 10.896175,0.827281 c -1.674068,-0.03667 -0.407869,-3.013618 -0.80185,-4.330381 -0.235022,-1.511293 0.86178,-4.605219 -1.603689,-2.50282 -0.271058,-1.727071 3.456699,-3.755638 2.405539,-0.541701 0,2.4583 0,4.916601 0,7.374902 z M 5.7844767,94.786133 c -1.4960826,-0.589673 -0.9605575,4.111477 -1.7417828,0.94327 0.6434165,-2.249315 -3.6195606,0.407766 -2.793099,-2.024592 0.9800339,-2.049744 1.960068,-4.099488 2.940101,-6.14923 1.4497732,0.211965 0.2759763,3.047502 0.6548378,4.33038 -0.6999287,2.432391 1.2404472,1.082019 0.939943,2.900172 z M 4.0426939,93.704811 C 3.8694324,92.791007 4.4251573,88.635846 3.6950618,90.197948 3.5696435,91.32417 0.85159255,94.09097 3.1162199,93.704811 c 0.3088247,0 0.6176493,0 0.926474,0 z m 7.5195141,-1.452635 c -1.630045,-3.898742 5.879032,-6.94181 5.41245,-2.59257 -3.846877,-4.34055 -6.710218,4.842945 -2.65305,6.248562 1.71585,-0.191849 4.569552,-1.753869 1.910224,0.752374 -2.907818,1.473699 -4.936885,-1.842379 -4.669624,-4.408363 l 0,-3e-6 z m 14.517833,4.559822 c -1.674053,-0.03669 -0.40786,-3.01362 -0.801839,-4.330381 -0.235021,-1.511294 0.861778,-4.605228 -1.60369,-2.502827 -0.271056,-1.727072 3.456688,-3.755637 2.405529,-0.541703 0,2.458303 0,4.916606 0,7.374911 z m 3.047009,-1.439599 c 2.151666,1.906655 -2.085863,1.973063 -1e-6,-4e-6 l 1e-6,4e-6 z m 6.058388,-0.586266 c -1.496086,-0.589677 -0.960559,4.111479 -1.741787,0.94327 0.643419,-2.249312 -3.619553,0.407766 -2.793089,-2.024592 0.980031,-2.049744 1.960062,-4.099488 2.940092,-6.14923 1.449773,0.211965 0.275978,3.047502 0.654839,4.33038 -0.699931,2.432395 1.240448,1.082016 0.939945,2.900172 z m -1.741787,-1.081322 c -0.173262,-0.913804 0.382465,-5.068965 -0.347632,-3.506863 -0.125419,1.126222 -2.843469,3.893022 -0.578841,3.506863 0.308825,0 0.617648,0 0.926473,0 z m 10.41061,-1.947693 c 4.264265,2.268367 -2.704805,8.058073 -2.846544,3.452417 3.50193,2.754647 3.8522,-2.967409 1.372039,-3.433513 2.993716,-1.108029 0.787444,-4.282588 -1.279934,-3.188895 1.430613,-3.504915 5.815479,1.291964 2.754439,3.169991 z m 10.112147,5.05488 c -1.674057,-0.03668 -0.407863,-3.01362 -0.801842,-4.330381 -0.235022,-1.511299 0.861779,-4.605225 -1.603693,-2.502827 -0.271056,-1.727072 3.456695,-3.755639 2.405535,-0.541703 0,2.458303 0,4.916606 0,7.374911 z m 6.428114,-4.657533 c 1.428452,3.546734 -3.678785,7.231306 -4.08384,2.139858 -1.276083,-2.71276 1.329381,-10.032799 3.785659,-5.007643 0.244592,0.934772 0.294458,1.906164 0.298182,2.867785 l -10e-7,0 z m -2.107066,3.830243 c 3.114276,-1.144836 0.524404,-11.209821 -1.203877,-5.419651 0.06468,1.669231 -0.649664,4.54132 1.203878,5.419654 l -1e-6,-3e-6 z m 6.374673,-3.283059 c -4.586062,4.696549 -4.222599,-9.209572 0.245003,-4.058233 1.886382,2.591109 -0.208125,11.159423 -3.329986,7.138875 1.537699,0.759231 3.487663,-0.474567 3.08498,-3.080641 l 3e-6,-10e-7 z m -1.349779,0.0977 c 3.590382,-1.008479 -1.118195,-7.34405 -1.269587,-2.162647 -0.0041,0.803341 0.218197,2.127023 1.269589,2.162648 l -2e-6,-10e-7 z m 9.67114,4.012647 c -1.25087,-0.412614 -4.23291,0.905941 -4.178506,-0.811947 2.576331,-2.2007 5.041923,-8.744914 0.219214,-7.413507 3.196165,-3.876861 5.517457,3.772307 1.850805,5.764603 -2.244643,1.925813 0.605008,1.3254 2.108487,1.392546 0,0.356101 0,0.712202 0,1.068305 z m 10.236877,-4.657533 c 1.428451,3.546728 -3.678794,7.231308 -4.083836,2.139858 -1.276074,-2.712756 1.329366,-10.032799 3.785652,-5.007643 0.244594,0.934772 0.294456,1.906164 0.298179,2.867785 l 5e-6,0 z m -2.107075,3.830243 c 3.114269,-1.144829 0.524412,-11.209825 -1.203876,-5.419651 0.0647,1.669234 -0.649671,4.541319 1.203881,5.419654 l -5e-6,-3e-6 z m 3.804311,-0.612309 c 2.151673,1.906688 -2.08589,1.973036 -10e-7,-4e-6 l 10e-7,4e-6 z m 5.911368,-3.217934 c 1.428455,3.546728 -3.678789,7.231308 -4.08383,2.139858 -1.276077,-2.712755 1.329369,-10.0328 3.785646,-5.007643 0.244593,0.934772 0.294461,1.906163 0.298185,2.867785 l -10e-7,0 z m -2.107066,3.830243 c 3.114264,-1.144831 0.52441,-11.209823 -1.203882,-5.419651 0.06468,1.669232 -0.649662,4.541319 1.203883,5.419654 l -10e-7,-3e-6 z m 10.896175,0.82729 c -1.674068,-0.03667 -0.407869,-3.013618 -0.80185,-4.330381 -0.235022,-1.511298 0.86178,-4.605225 -1.603689,-2.502827 -0.271059,-1.72707 3.456699,-3.75564 2.405539,-0.541703 0,2.458303 0,4.916606 0,7.374911 z"
     inkscape:connector-curvature="0"
     id="path2425"
     style="font-size:9.71758366px;font-style:normal;font-variant:normal;font-weight:normal;font-stretch:normal;fill:#000000;fill-opacity:0.08108108;stroke:none;font-family:Sans;-inkscape-font-specification:Adobe Helvetica" />
</svg>
