<?xml version="1.0" encoding="UTF-8" standalone="no"?>
<!-- Created with Inkscape (http://www.inkscape.org/) -->
<svg
   xmlns:svg="http://www.w3.org/2000/svg"
   xmlns="http://www.w3.org/2000/svg"
   xmlns:xlink="http://www.w3.org/1999/xlink"
   version="1.0"
   width="100"
   height="100"
   id="svg2">
  <defs
     id="defs4">
    <radialGradient
       cx="58.01162"
       cy="63.345894"
       r="33.113495"
       fx="58.01162"
       fy="63.345894"
       id="radialGradient2474"
       xlink:href="#linearGradient3252"
       gradientUnits="userSpaceOnUse"
       gradientTransform="matrix(0.2134373,0,0,0.2134373,19.805211,5.9610473)" />
    <linearGradient
       x1="25.398125"
       y1="63.345894"
       x2="90.625114"
       y2="63.345894"
       id="linearGradient2472"
       xlink:href="#linearGradient3384"
       gradientUnits="userSpaceOnUse"
       gradientTransform="matrix(0.2688926,0.2688926,-0.2688926,0.2688926,38.227733,-8.4494346)" />
    <linearGradient
       id="linearGradient3452">
      <stop
         id="stop3454"
         style="stop-color:#ffffff;stop-opacity:1"
         offset="0" />
      <stop
         id="stop3456"
         style="stop-color:#000000;stop-opacity:1"
         offset="1" />
    </linearGradient>
    <linearGradient
       id="linearGradient3458">
      <stop
         id="stop3460"
         style="stop-color:#ffffff;stop-opacity:1"
         offset="0" />
      <stop
         id="stop3462"
         style="stop-color:#a2a5aa;stop-opacity:0"
         offset="1" />
    </linearGradient>
    <linearGradient
       id="linearGradient3384">
      <stop
         id="stop3386"
         style="stop-color:#00ffff;stop-opacity:1"
         offset="0" />
      <stop
         id="stop3388"
         style="stop-color:#000000;stop-opacity:1"
         offset="1" />
    </linearGradient>
    <linearGradient
       id="linearGradient3252">
      <stop
         id="stop3254"
         style="stop-color:#ffffff;stop-opacity:1"
         offset="0" />
      <stop
         id="stop3256"
         style="stop-color:#7f7fff;stop-opacity:0"
         offset="1" />
    </linearGradient>
    <linearGradient
       x1="25.398125"
       y1="63.345894"
       x2="90.625114"
       y2="63.345894"
       id="linearGradient3984"
       xlink:href="#linearGradient3452"
       gradientUnits="userSpaceOnUse"
       gradientTransform="matrix(0.2688926,0.2688926,-0.2688926,0.2688926,-63.664049,-28.49841)" />
    <radialGradient
       cx="58.01162"
       cy="63.345894"
       r="33.113495"
       fx="58.01162"
       fy="63.345894"
       id="radialGradient3986"
       xlink:href="#linearGradient3458"
       gradientUnits="userSpaceOnUse"
       gradientTransform="matrix(0.2134373,0,0,0.2134373,-82.08657,-14.087928)" />
    <linearGradient
       x1="25.398125"
       y1="63.345894"
       x2="90.625114"
       y2="63.345894"
       id="linearGradient3756"
       xlink:href="#linearGradient3384"
       gradientUnits="userSpaceOnUse"
       gradientTransform="matrix(0.2688926,0.2688926,-0.2688926,0.2688926,38.227733,-8.4494346)" />
    <radialGradient
       cx="58.01162"
       cy="63.345894"
       r="33.113495"
       fx="58.01162"
       fy="63.345894"
       id="radialGradient3758"
       xlink:href="#linearGradient3252"
       gradientUnits="userSpaceOnUse"
       gradientTransform="matrix(0.2134373,0,0,0.2134373,19.805211,5.9610473)" />
    <linearGradient
       x1="25.398125"
       y1="63.345894"
       x2="90.625114"
       y2="63.345894"
       id="linearGradient3760"
       xlink:href="#linearGradient3452"
       gradientUnits="userSpaceOnUse"
       gradientTransform="matrix(0.2688926,0.2688926,-0.2688926,0.2688926,-63.664049,-28.49841)" />
    <radialGradient
       cx="58.01162"
       cy="63.345894"
       r="33.113495"
       fx="58.01162"
       fy="63.345894"
       id="radialGradient3762"
       xlink:href="#linearGradient3458"
       gradientUnits="userSpaceOnUse"
       gradientTransform="matrix(0.2134373,0,0,0.2134373,-82.08657,-14.087928)" />
  </defs>
  <g
     transform="matrix(0.4319722,0,0,0.4319722,72.987233,19.815424)"
     id="g5157">
    <path
       d="M -52.825009,4.179815 C -52.823809,11.03009 -58.376718,16.583972 -65.226994,16.583972 C -72.077269,16.583972 -77.630177,11.03009 -77.628978,4.179815 C -77.630178,-2.670461 -72.077269,-8.224342 -65.226994,-8.224342 C -58.376718,-8.224342 -52.82381,-2.670461 -52.825009,4.179815 L -52.825009,4.179815 L -52.825009,4.179815 z"
       id="path5159"
       style="fill:#e4e4e3;fill-opacity:1;fill-rule:evenodd;stroke:#000000;stroke-width:0.38027155px;stroke-linecap:butt;stroke-linejoin:miter;stroke-opacity:1" />
    <path
       d="M -56.328868,12.903255 C -61.171897,17.747978 -69.025583,17.748666 -73.869457,12.904755 C -78.713335,8.060878 -78.712646,0.207192 -73.867957,-4.635835 C -69.02493,-9.48056 -61.171244,-9.481248 -56.327367,-4.637375 C -51.483492,0.206501 -51.48418,8.060188 -56.328867,12.903216 L -56.328867,12.903216 L -56.328868,12.903255 z"
       id="path5161"
       style="opacity:0.71739131;fill:url(#linearGradient3760);fill-opacity:1;fill-rule:evenodd;stroke:none" />
    <path
       d="M -62.743794,-0.567553 C -62.743121,3.27734 -65.859834,6.394601 -69.704729,6.394601 C -73.549623,6.394601 -76.666336,3.27734 -76.665663,-0.567553 C -76.666336,-4.412448 -73.549623,-7.529707 -69.704729,-7.529707 C -65.859834,-7.529707 -62.743121,-4.412448 -62.743794,-0.567553 L -62.743794,-0.567553 L -62.743794,-0.567553 z"
       id="path5163"
       style="fill:url(#radialGradient3762);fill-opacity:1;fill-rule:evenodd;stroke:none" />
  </g>
  <g
     transform="matrix(0.9678769,0,0,0.9678769,206.90993,27.493396)"
     id="g3253"
     style="stroke:#e8e8e8;stroke-opacity:1">
    <path
       d="M -177.57599,1.5527563 L -172.19048,-10.683996 L -166.80496,-22.920748 L -113.00103,-22.920748 L -134.54309,26.026261 L -147.99408,26.026261"
       id="path3239"
       style="fill:none;stroke:#e8e8e8;stroke-width:4.625;stroke-linecap:butt;stroke-linejoin:round;stroke-miterlimit:4;stroke-dashoffset:0;stroke-opacity:1" />
    <rect
       width="53.803928"
       height="53.477772"
       x="-190.10735"
       y="-9.2113724"
       transform="matrix(1,0,-0.4028229,0.9152779,0,0)"
       id="rect3241"
       style="fill:none;stroke:#e8e8e8;stroke-width:4.83431816;stroke-linecap:butt;stroke-linejoin:round;stroke-miterlimit:4;stroke-dasharray:none;stroke-dashoffset:0;stroke-opacity:1" />
    <path
       d="M -147.99408,26.026265 L -188.34703,26.026265 L -172.19048,-10.683997"
       id="path3243"
       style="fill:none;stroke:#e8e8e8;stroke-width:4.625;stroke-linecap:butt;stroke-linejoin:round;stroke-miterlimit:4;stroke-dasharray:9.25, 4.625;stroke-dashoffset:0;stroke-opacity:1" />
    <path
       d="M -186.18424,-8.0390707 C -166.5924,-22.732948 -166.5924,-22.732948 -166.5924,-22.732948"
       id="path3245"
       style="fill:none;stroke:#e8e8e8;stroke-width:5;stroke-linecap:butt;stroke-linejoin:miter;stroke-miterlimit:4;stroke-dasharray:none;stroke-opacity:1" />
    <path
       d="M -133.73526,-7.4268267 C -114.14342,-22.120704 -114.14342,-22.120704 -114.14342,-22.120704"
       id="path3247"
       style="fill:none;stroke:#e8e8e8;stroke-width:5;stroke-linecap:butt;stroke-linejoin:miter;stroke-miterlimit:4;stroke-dasharray:none;stroke-opacity:1" />
    <path
       d="M -154.14342,40.328275 C -134.55159,25.634398 -134.55159,25.634398 -134.55159,25.634398"
       id="path3249"
       style="fill:none;stroke:#e8e8e8;stroke-width:5;stroke-linecap:butt;stroke-linejoin:miter;stroke-miterlimit:4;stroke-dasharray:none;stroke-opacity:1" />
    <path
       d="M -206.18424,39.716031 C -186.5924,25.022154 -186.5924,25.022154 -186.5924,25.022154"
       id="path3251"
       style="fill:none;stroke:#e8e8e8;stroke-width:5;stroke-linecap:butt;stroke-linejoin:miter;stroke-miterlimit:4;stroke-dasharray:10, 5;stroke-dashoffset:0;stroke-opacity:1" />
  </g>
  <path
     d="M 31.848679,26.412173 L 37.061195,14.568504 L 42.273711,2.7248338 L 94.349291,2.7248338 L 73.499225,50.099512 L 60.480329,50.099512"
     id="rect3225"
     style="fill:none;stroke:#000000;stroke-width:4.47643042;stroke-linecap:butt;stroke-linejoin:round;stroke-miterlimit:4;stroke-dashoffset:0;stroke-opacity:1" />
  <use
     transform="translate(23.753148,-10.327455)"
     id="use2881"
     x="0"
     y="0"
     width="100"
     height="100"
     xlink:href="#g5157" />
  <g
     transform="matrix(0.4319722,0,0,0.4319722,31.374063,24.546491)"
     id="g5217">
    <path
       d="M 49.066773,24.22879 C 49.067973,31.079065 43.515064,36.632947 36.664788,36.632947 C 29.814513,36.632947 24.261604,31.079065 24.262803,24.22879 C 24.261603,17.378514 29.814513,11.824633 36.664788,11.824633 C 43.515064,11.824633 49.067972,17.378514 49.066773,24.22879 L 49.066773,24.22879 L 49.066773,24.22879 z"
       id="path5219"
       style="fill:#0000ff;fill-opacity:1;fill-rule:evenodd;stroke:#000000;stroke-width:0.38027155px;stroke-linecap:butt;stroke-linejoin:miter;stroke-opacity:1" />
    <path
       d="M 45.562914,32.95223 C 40.719885,37.796953 32.866199,37.797641 28.022324,32.95373 C 23.178446,28.109853 23.179135,20.256167 28.023824,15.41314 C 32.866852,10.568415 40.720538,10.567727 45.564415,15.41164 C 50.40829,20.255516 50.407602,28.109203 45.562915,32.952231 L 45.562915,32.952231 L 45.562914,32.95223 z"
       id="path5221"
       style="opacity:0.71739131;fill:url(#linearGradient3756);fill-opacity:1;fill-rule:evenodd;stroke:none" />
    <path
       d="M 39.147988,19.481422 C 39.148661,23.326315 36.031948,26.443576 32.187053,26.443576 C 28.342159,26.443576 25.225445,23.326315 25.226118,19.481422 C 25.225445,15.636527 28.342159,12.519268 32.187053,12.519268 C 36.031948,12.519268 39.148661,15.636527 39.147988,19.481422 L 39.147988,19.481422 z"
       id="path5223"
       style="fill:url(#radialGradient3758);fill-opacity:1;fill-rule:evenodd;stroke:none" />
  </g>
  <use
     transform="translate(21.458158,-0.458998)"
     id="use2877"
     x="0"
     y="0"
     width="100"
     height="100"
     xlink:href="#g5217" />
  <rect
     width="52.075577"
     height="51.759899"
     x="30.682699"
     y="18.299528"
     transform="matrix(1,0,-0.4028229,0.9152779,0,0)"
     id="rect2248"
     style="fill:none;stroke:#000000;stroke-width:4.67902422;stroke-linecap:butt;stroke-linejoin:round;stroke-miterlimit:4;stroke-dasharray:none;stroke-dashoffset:0;stroke-opacity:1" />
  <path
     d="M 60.480328,50.099515 L 21.423644,50.099515 L 37.061196,14.568504"
     id="rect3223"
     style="fill:none;stroke:#000000;stroke-width:4.47643042;stroke-linecap:butt;stroke-linejoin:round;stroke-miterlimit:4;stroke-dasharray:8.95286083, 4.47643042;stroke-dashoffset:0;stroke-opacity:1" />
  <use
     transform="translate(-7.4587179,15.261685)"
     id="use2879"
     x="0"
     y="0"
     width="100"
     height="100"
     xlink:href="#g5217" />
  <path
     d="M 23.516956,17.128466 C 42.479441,2.906602 42.479441,2.906602 42.479441,2.906602"
     id="path3231"
     style="fill:none;stroke:#000000;stroke-width:4.83938408;stroke-linecap:butt;stroke-linejoin:miter;stroke-miterlimit:4;stroke-dasharray:none;stroke-opacity:1" />
  <path
     d="M 74.28111,17.721043 C 93.243593,3.4991788 93.243593,3.4991788 93.243593,3.4991788"
     id="path3233"
     style="fill:none;stroke:#000000;stroke-width:4.83938408;stroke-linecap:butt;stroke-linejoin:miter;stroke-miterlimit:4;stroke-dasharray:none;stroke-opacity:1" />
  <path
     d="M 54.528519,63.942101 C 73.491005,49.720237 73.491005,49.720237 73.491005,49.720237"
     id="path3235"
     style="fill:none;stroke:#000000;stroke-width:4.83938408;stroke-linecap:butt;stroke-linejoin:miter;stroke-miterlimit:4;stroke-dasharray:none;stroke-opacity:1" />
  <path
     d="M 4.1594193,63.349524 C 23.121905,49.127661 23.121905,49.127661 23.121905,49.127661"
     id="path3237"
     style="fill:none;stroke:#000000;stroke-width:4.83938408;stroke-linecap:butt;stroke-linejoin:miter;stroke-miterlimit:4;stroke-dasharray:9.67876846, 4.83938423;stroke-dashoffset:0;stroke-opacity:1" />
  <use
     transform="translate(-47.965294,42.572066)"
     id="use2883"
     x="0"
     y="0"
     width="100"
     height="100"
     xlink:href="#use2881" />
  <g
     transform="matrix(1.1245451,0,0,1.1245451,105.84798,80.650141)"
     id="g3979">
    <path
       d="M -52.825009,4.179815 C -52.823809,11.03009 -58.376718,16.583972 -65.226994,16.583972 C -72.077269,16.583972 -77.630177,11.03009 -77.628978,4.179815 C -77.630178,-2.670461 -72.077269,-8.224342 -65.226994,-8.224342 C -58.376718,-8.224342 -52.82381,-2.670461 -52.825009,4.179815 L -52.825009,4.179815 L -52.825009,4.179815 z"
       id="path3474"
       style="fill:#e4e4e3;fill-opacity:1;fill-rule:evenodd;stroke:#000000;stroke-width:0.38027155px;stroke-linecap:butt;stroke-linejoin:miter;stroke-opacity:1" />
    <path
       d="M -56.328868,12.903255 C -61.171897,17.747978 -69.025583,17.748666 -73.869457,12.904755 C -78.713335,8.060878 -78.712646,0.207192 -73.867957,-4.635835 C -69.02493,-9.48056 -61.171244,-9.481248 -56.327367,-4.637375 C -51.483492,0.206501 -51.48418,8.060188 -56.328867,12.903216 L -56.328867,12.903216 L -56.328868,12.903255 z"
       id="path3476"
       style="opacity:0.71739131;fill:url(#linearGradient3984);fill-opacity:1;fill-rule:evenodd;stroke:none" />
    <path
       d="M -62.743794,-0.567553 C -62.743121,3.27734 -65.859834,6.394601 -69.704729,6.394601 C -73.549623,6.394601 -76.666336,3.27734 -76.665663,-0.567553 C -76.666336,-4.412448 -73.549623,-7.529707 -69.704729,-7.529707 C -65.859834,-7.529707 -62.743121,-4.412448 -62.743794,-0.567553 L -62.743794,-0.567553 L -62.743794,-0.567553 z"
       id="path3478"
       style="fill:url(#radialGradient3986);fill-opacity:1;fill-rule:evenodd;stroke:none" />
  </g>
  <g
     transform="matrix(1.1245451,0,0,1.1245451,30.324709,57.813863)"
     id="g2464">
    <path
       d="M 49.066773,24.22879 C 49.067973,31.079065 43.515064,36.632947 36.664788,36.632947 C 29.814513,36.632947 24.261604,31.079065 24.262803,24.22879 C 24.261603,17.378514 29.814513,11.824633 36.664788,11.824633 C 43.515064,11.824633 49.067972,17.378514 49.066773,24.22879 L 49.066773,24.22879 L 49.066773,24.22879 z"
       id="path2466"
       style="fill:#0000ff;fill-opacity:1;fill-rule:evenodd;stroke:#000000;stroke-width:0.38027155px;stroke-linecap:butt;stroke-linejoin:miter;stroke-opacity:1" />
    <path
       d="M 45.562914,32.95223 C 40.719885,37.796953 32.866199,37.797641 28.022324,32.95373 C 23.178446,28.109853 23.179135,20.256167 28.023824,15.41314 C 32.866852,10.568415 40.720538,10.567727 45.564415,15.41164 C 50.40829,20.255516 50.407602,28.109203 45.562915,32.952231 L 45.562915,32.952231 L 45.562914,32.95223 z"
       id="path2468"
       style="opacity:0.71739131;fill:url(#linearGradient2472);fill-opacity:1;fill-rule:evenodd;stroke:none" />
    <path
       d="M 39.147988,19.481422 C 39.148661,23.326315 36.031948,26.443576 32.187053,26.443576 C 28.342159,26.443576 25.225445,23.326315 25.226118,19.481422 C 25.225445,15.636527 28.342159,12.519268 32.187053,12.519268 C 36.031948,12.519268 39.148661,15.636527 39.147988,19.481422 L 39.147988,19.481422 z"
       id="path2470"
       style="fill:url(#radialGradient2474);fill-opacity:1;fill-rule:evenodd;stroke:none" />
  </g>
</svg>
