<?xml version="1.0" encoding="UTF-8" standalone="no"?>
<!-- Created with Inkscape (http://www.inkscape.org/) -->

<svg
   xmlns:dc="http://purl.org/dc/elements/1.1/"
   xmlns:cc="http://creativecommons.org/ns#"
   xmlns:rdf="http://www.w3.org/1999/02/22-rdf-syntax-ns#"
   xmlns:svg="http://www.w3.org/2000/svg"
   xmlns="http://www.w3.org/2000/svg"
   xmlns:inkscape="http://www.inkscape.org/namespaces/inkscape"
   version="1.0"
   width="100"
   height="100"
   id="svg2">
  <metadata
     id="metadata2566">
    <rdf:RDF>
      <cc:Work
         rdf:about="">
        <dc:format>image/svg+xml</dc:format>
        <dc:type
           rdf:resource="http://purl.org/dc/dcmitype/StillImage" />
      </cc:Work>
    </rdf:RDF>
  </metadata>
  <defs
     id="defs4">
    <marker
       refX="0"
       refY="0"
       orient="auto"
       id="Arrow1Lend"
       style="overflow:visible">
      <path
         d="M 0,0 5,-5 -12.5,0 5,5 0,0 z"
         inkscape:connector-curvature="0"
         transform="matrix(-0.8,0,0,-0.8,-10,0)"
         id="path4249"
         style="fill-rule:evenodd;stroke:#000000;stroke-width:1pt;marker-start:none" />
    </marker>
  </defs>
  <g
     transform="matrix(1.2245741,0,0,1.2245741,-42.769176,-115.11553)"
     id="g4561">
    <g
       transform="matrix(0,1,-1,0,78.380187,17.531922)"
       id="g4443"
       style="fill:none;stroke:#e4e6e6;stroke-opacity:1">
      <path
         d="m 82.934744,-33.943015 c 0,71.804309 0,68.682376 0,68.682376"
         inkscape:connector-curvature="0"
         id="path4445"
         style="fill:none;stroke:#e4e6e6;stroke-width:2.21302867;stroke-linecap:butt;stroke-linejoin:miter;stroke-miterlimit:4;stroke-opacity:1;stroke-dasharray:none" />
      <path
         d="m 96.773497,-33.943015 c 0,71.804309 0,68.682376 0,68.682376"
         inkscape:connector-curvature="0"
         id="path4447"
         style="fill:none;stroke:#e4e6e6;stroke-width:2.21302867;stroke-linecap:butt;stroke-linejoin:miter;stroke-miterlimit:4;stroke-opacity:1;stroke-dasharray:none" />
      <path
         d="m 138.28975,-33.943015 c 0,71.804309 0,68.682376 0,68.682376"
         inkscape:connector-curvature="0"
         id="path4449"
         style="fill:none;stroke:#e4e6e6;stroke-width:2.21302867;stroke-linecap:butt;stroke-linejoin:miter;stroke-miterlimit:4;stroke-opacity:1;stroke-dasharray:none" />
      <path
         d="m 110.61225,-33.943015 c 0,71.804309 0,68.682376 0,68.682376"
         inkscape:connector-curvature="0"
         id="path4451"
         style="fill:none;stroke:#e4e6e6;stroke-width:2.21302867;stroke-linecap:butt;stroke-linejoin:miter;stroke-miterlimit:4;stroke-opacity:1;stroke-dasharray:none" />
      <path
         d="m 124.451,-33.943015 c 0,71.804309 0,68.682376 0,68.682376"
         inkscape:connector-curvature="0"
         id="path4453"
         style="fill:none;stroke:#e4e6e6;stroke-width:2.21302867;stroke-linecap:butt;stroke-linejoin:miter;stroke-miterlimit:4;stroke-opacity:1;stroke-dasharray:none" />
    </g>
    <path
       d="m 57.350632,99.012951 c 0,71.804309 0,68.682379 0,68.682379"
       inkscape:connector-curvature="0"
       id="path4455"
       style="fill:none;stroke:#e4e6e6;stroke-width:2.21302867;stroke-linecap:butt;stroke-linejoin:miter;stroke-miterlimit:4;stroke-opacity:1;stroke-dasharray:none" />
    <path
       d="m 71.189385,99.012951 c 0,71.804309 0,68.682379 0,68.682379"
       inkscape:connector-curvature="0"
       id="path4457"
       style="fill:none;stroke:#e4e6e6;stroke-width:2.21302867;stroke-linecap:butt;stroke-linejoin:miter;stroke-miterlimit:4;stroke-opacity:1;stroke-dasharray:none" />
    <path
       d="m 112.70563,99.012951 c 0,71.804309 0,68.682379 0,68.682379"
       inkscape:connector-curvature="0"
       id="path4459"
       style="fill:none;stroke:#e4e6e6;stroke-width:2.21302867;stroke-linecap:butt;stroke-linejoin:miter;stroke-miterlimit:4;stroke-opacity:1;stroke-dasharray:none" />
    <path
       d="m 85.028136,99.012951 c 0,71.804309 0,68.682379 0,68.682379"
       inkscape:connector-curvature="0"
       id="path4461"
       style="fill:none;stroke:#e4e6e6;stroke-width:2.21302867;stroke-linecap:butt;stroke-linejoin:miter;stroke-miterlimit:4;stroke-opacity:1;stroke-dasharray:none" />
    <path
       d="m 98.866887,99.012951 c 0,71.804309 0,68.682379 0,68.682379"
       inkscape:connector-curvature="0"
       id="path4463"
       style="fill:none;stroke:#e4e6e6;stroke-width:2.21302867;stroke-linecap:butt;stroke-linejoin:miter;stroke-miterlimit:4;stroke-opacity:1;stroke-dasharray:none" />
    <path
       d="m 48.444206,127.35436 c 20.408164,20.40816 26.12245,-34.081634 37.551021,-14.08163 11.428572,20 8.979592,53.46938 16.122453,44.48979 7.14285,-8.97959 7.14285,-8.77551 7.14285,-8.77551"
       inkscape:connector-curvature="0"
       id="path4465"
       style="fill:none;stroke:#e4e6e6;stroke-width:3;stroke-linecap:butt;stroke-linejoin:miter;stroke-miterlimit:4;stroke-opacity:1;stroke-dasharray:none" />
    <g
       transform="translate(30.07686,82.252317)"
       id="g4467"
       style="fill:none;stroke:#e4e6e6;stroke-opacity:1">
      <path
         d="m 13.682935,16.591098 c 0,72.838211 0,70.542293 0,70.542293 70.491272,0 70.491272,0 70.491272,0"
         inkscape:connector-curvature="0"
         id="path4469"
         style="fill:none;stroke:#e4e6e6;stroke-width:3.0189321;stroke-linecap:butt;stroke-linejoin:miter;stroke-miterlimit:4;stroke-opacity:1;stroke-dasharray:none" />
      <path
         d="m 13.656478,87.075694 c 0,4.693877 0,4.489795 0,4.489795"
         inkscape:connector-curvature="0"
         id="path4471"
         style="fill:none;stroke:#e4e6e6;stroke-width:3;stroke-linecap:butt;stroke-linejoin:miter;stroke-miterlimit:4;stroke-opacity:1;stroke-dasharray:none" />
      <path
         d="m 27.462822,87.075694 c 0,4.693877 0,4.489795 0,4.489795"
         inkscape:connector-curvature="0"
         id="path4473"
         style="fill:none;stroke:#e4e6e6;stroke-width:3;stroke-linecap:butt;stroke-linejoin:miter;stroke-miterlimit:4;stroke-opacity:1;stroke-dasharray:none" />
      <path
         d="m 41.269169,87.075694 c 0,4.693877 0,4.489795 0,4.489795"
         inkscape:connector-curvature="0"
         id="path4475"
         style="fill:none;stroke:#e4e6e6;stroke-width:3;stroke-linecap:butt;stroke-linejoin:miter;stroke-miterlimit:4;stroke-opacity:1;stroke-dasharray:none" />
      <path
         d="m 82.688201,87.075694 c 0,4.693877 0,4.489795 0,4.489795"
         inkscape:connector-curvature="0"
         id="path4477"
         style="fill:none;stroke:#e4e6e6;stroke-width:3;stroke-linecap:butt;stroke-linejoin:miter;stroke-miterlimit:4;stroke-opacity:1;stroke-dasharray:none" />
      <path
         d="m 55.075514,87.075694 c 0,4.693877 0,4.489795 0,4.489795"
         inkscape:connector-curvature="0"
         id="path4479"
         style="fill:none;stroke:#e4e6e6;stroke-width:3;stroke-linecap:butt;stroke-linejoin:miter;stroke-miterlimit:4;stroke-opacity:1;stroke-dasharray:none" />
      <path
         d="m 68.881861,87.075694 c 0,4.693877 0,4.489795 0,4.489795"
         inkscape:connector-curvature="0"
         id="path4481"
         style="fill:none;stroke:#e4e6e6;stroke-width:3;stroke-linecap:butt;stroke-linejoin:miter;stroke-miterlimit:4;stroke-opacity:1;stroke-dasharray:none" />
      <g
         transform="matrix(0,1,-1,0,114.43877,-4.5408177)"
         id="g4483"
         style="fill:none;stroke:#e4e6e6;stroke-opacity:1">
        <path
           d="m 22.626996,100.81567 c 0,4.69388 0,4.4898 0,4.4898"
           inkscape:connector-curvature="0"
           id="path4485"
           style="fill:none;stroke:#e4e6e6;stroke-width:3;stroke-linecap:butt;stroke-linejoin:miter;stroke-miterlimit:4;stroke-opacity:1;stroke-dasharray:none" />
        <path
           d="m 36.43334,100.81567 c 0,4.69388 0,4.4898 0,4.4898"
           inkscape:connector-curvature="0"
           id="path4487"
           style="fill:none;stroke:#e4e6e6;stroke-width:3;stroke-linecap:butt;stroke-linejoin:miter;stroke-miterlimit:4;stroke-opacity:1;stroke-dasharray:none" />
        <path
           d="m 50.239687,100.81567 c 0,4.69388 0,4.4898 0,4.4898"
           inkscape:connector-curvature="0"
           id="path4489"
           style="fill:none;stroke:#e4e6e6;stroke-width:3;stroke-linecap:butt;stroke-linejoin:miter;stroke-miterlimit:4;stroke-opacity:1;stroke-dasharray:none" />
        <path
           d="m 91.658719,100.81567 c 0,4.69388 0,4.4898 0,4.4898"
           inkscape:connector-curvature="0"
           id="path4491"
           style="fill:none;stroke:#e4e6e6;stroke-width:3;stroke-linecap:butt;stroke-linejoin:miter;stroke-miterlimit:4;stroke-opacity:1;stroke-dasharray:none" />
        <path
           d="m 64.046032,100.81567 c 0,4.69388 0,4.4898 0,4.4898"
           inkscape:connector-curvature="0"
           id="path4493"
           style="fill:none;stroke:#e4e6e6;stroke-width:3;stroke-linecap:butt;stroke-linejoin:miter;stroke-miterlimit:4;stroke-opacity:1;stroke-dasharray:none" />
        <path
           d="m 77.852379,100.81567 c 0,4.69388 0,4.4898 0,4.4898"
           inkscape:connector-curvature="0"
           id="path4495"
           style="fill:none;stroke:#e4e6e6;stroke-width:3;stroke-linecap:butt;stroke-linejoin:miter;stroke-miterlimit:4;stroke-opacity:1;stroke-dasharray:none" />
      </g>
    </g>
    <path
       d="m 92.86998,108.55233 c 3.265306,13.46939 3.265306,13.46939 3.265306,13.46939"
       inkscape:connector-curvature="0"
       id="path4497"
       style="opacity:0.20540544;fill:#e7e7e3;fill-opacity:1;fill-rule:evenodd;stroke:#e4e6e6;stroke-width:1px;stroke-linecap:butt;stroke-linejoin:miter;stroke-opacity:1;marker-end:url(#Arrow1Lend)" />
    <path
       d="m 100.22675,131.20402 c 0.65509,13.84404 0.65509,13.84404 0.65509,13.84404"
       inkscape:connector-curvature="0"
       id="path4499"
       style="opacity:0.20540544;fill:#e7e7e3;fill-opacity:1;fill-rule:evenodd;stroke:#e4e6e6;stroke-width:1px;stroke-linecap:butt;stroke-linejoin:miter;stroke-opacity:1;marker-end:url(#Arrow1Lend)" />
  </g>
  <g
     transform="matrix(0,1.2245741,-1.2245741,0,50.815285,-97.29761)"
     id="g4234">
    <path
       d="m 82.934744,-33.943015 c 0,71.804309 0,68.682376 0,68.682376"
       inkscape:connector-curvature="0"
       id="path4224"
       style="fill:none;stroke:#b0b2ae;stroke-width:2.21302867;stroke-linecap:butt;stroke-linejoin:miter;stroke-miterlimit:4;stroke-opacity:1;stroke-dasharray:none" />
    <path
       d="m 96.773497,-33.943015 c 0,71.804309 0,68.682376 0,68.682376"
       inkscape:connector-curvature="0"
       id="path4226"
       style="fill:none;stroke:#b0b2ae;stroke-width:2.21302867;stroke-linecap:butt;stroke-linejoin:miter;stroke-miterlimit:4;stroke-opacity:1;stroke-dasharray:none" />
    <path
       d="m 138.28975,-33.943015 c 0,71.804309 0,68.682376 0,68.682376"
       inkscape:connector-curvature="0"
       id="path4228"
       style="fill:none;stroke:#b0b2ae;stroke-width:2.21302867;stroke-linecap:butt;stroke-linejoin:miter;stroke-miterlimit:4;stroke-opacity:1;stroke-dasharray:none" />
    <path
       d="m 110.61225,-33.943015 c 0,71.804309 0,68.682376 0,68.682376"
       inkscape:connector-curvature="0"
       id="path4230"
       style="fill:none;stroke:#b0b2ae;stroke-width:2.21302867;stroke-linecap:butt;stroke-linejoin:miter;stroke-miterlimit:4;stroke-opacity:1;stroke-dasharray:none" />
    <path
       d="m 124.451,-33.943015 c 0,71.804309 0,68.682376 0,68.682376"
       inkscape:connector-curvature="0"
       id="path4232"
       style="fill:none;stroke:#b0b2ae;stroke-width:2.21302867;stroke-linecap:butt;stroke-linejoin:miter;stroke-miterlimit:4;stroke-opacity:1;stroke-dasharray:none" />
  </g>
  <path
     d="m 25.063037,2.4819445 c 0,87.9296935 0,84.1066555 0,84.1066555"
     inkscape:connector-curvature="0"
     id="path4214"
     style="fill:none;stroke:#b0b2ae;stroke-width:2.71001744;stroke-linecap:butt;stroke-linejoin:miter;stroke-miterlimit:4;stroke-opacity:1;stroke-dasharray:none" />
  <path
     d="m 42.009615,2.4819445 c 0,87.9296935 0,84.1066555 0,84.1066555"
     inkscape:connector-curvature="0"
     id="path4216"
     style="fill:none;stroke:#b0b2ae;stroke-width:2.71001744;stroke-linecap:butt;stroke-linejoin:miter;stroke-miterlimit:4;stroke-opacity:1;stroke-dasharray:none" />
  <path
     d="m 92.849337,2.4819445 c 0,87.9296935 0,84.1066555 0,84.1066555"
     inkscape:connector-curvature="0"
     id="path4218"
     style="fill:none;stroke:#b0b2ae;stroke-width:2.71001744;stroke-linecap:butt;stroke-linejoin:miter;stroke-miterlimit:4;stroke-opacity:1;stroke-dasharray:none" />
  <path
     d="m 58.956191,2.4819445 c 0,87.9296935 0,84.1066555 0,84.1066555"
     inkscape:connector-curvature="0"
     id="path4220"
     style="fill:none;stroke:#b0b2ae;stroke-width:2.71001744;stroke-linecap:butt;stroke-linejoin:miter;stroke-miterlimit:4;stroke-opacity:1;stroke-dasharray:none" />
  <path
     d="m 75.902766,2.4819445 c 0,87.9296935 0,84.1066555 0,84.1066555"
     inkscape:connector-curvature="0"
     id="path4222"
     style="fill:none;stroke:#b0b2ae;stroke-width:2.71001744;stroke-linecap:butt;stroke-linejoin:miter;stroke-miterlimit:4;stroke-opacity:1;stroke-dasharray:none" />
  <path
     d="M 14.156459,37.188096 C 39.147767,62.179403 46.145334,-4.5473864 60.140465,19.944095 74.135598,44.435576 71.136641,85.421319 79.883598,74.425144 88.630555,63.428969 88.630555,63.678882 88.630555,63.678882"
     inkscape:connector-curvature="0"
     id="path2221"
     style="fill:none;stroke:#ff0000;stroke-width:3.67372227;stroke-linecap:butt;stroke-linejoin:miter;stroke-miterlimit:4;stroke-opacity:1;stroke-dasharray:none" />
  <g
     transform="matrix(1.2245741,0,0,1.2245741,-8.3357161,-18.042693)"
     id="g4198">
    <path
       d="m 13.682935,16.591098 c 0,72.838211 0,70.542293 0,70.542293 70.491272,0 70.491272,0 70.491272,0"
       inkscape:connector-curvature="0"
       id="path2223"
       style="fill:none;stroke:#000000;stroke-width:3.0189321;stroke-linecap:butt;stroke-linejoin:miter;stroke-miterlimit:4;stroke-opacity:1;stroke-dasharray:none" />
    <path
       d="m 13.656478,87.075694 c 0,4.693877 0,4.489795 0,4.489795"
       inkscape:connector-curvature="0"
       id="path2225"
       style="fill:none;stroke:#000000;stroke-width:3;stroke-linecap:butt;stroke-linejoin:miter;stroke-miterlimit:4;stroke-opacity:1;stroke-dasharray:none" />
    <path
       d="m 27.462822,87.075694 c 0,4.693877 0,4.489795 0,4.489795"
       inkscape:connector-curvature="0"
       id="path2227"
       style="fill:none;stroke:#000000;stroke-width:3;stroke-linecap:butt;stroke-linejoin:miter;stroke-miterlimit:4;stroke-opacity:1;stroke-dasharray:none" />
    <path
       d="m 41.269169,87.075694 c 0,4.693877 0,4.489795 0,4.489795"
       inkscape:connector-curvature="0"
       id="path2229"
       style="fill:none;stroke:#000000;stroke-width:3;stroke-linecap:butt;stroke-linejoin:miter;stroke-miterlimit:4;stroke-opacity:1;stroke-dasharray:none" />
    <path
       d="m 82.688201,87.075694 c 0,4.693877 0,4.489795 0,4.489795"
       inkscape:connector-curvature="0"
       id="path2231"
       style="fill:none;stroke:#000000;stroke-width:3;stroke-linecap:butt;stroke-linejoin:miter;stroke-miterlimit:4;stroke-opacity:1;stroke-dasharray:none" />
    <path
       d="m 55.075514,87.075694 c 0,4.693877 0,4.489795 0,4.489795"
       inkscape:connector-curvature="0"
       id="path2233"
       style="fill:none;stroke:#000000;stroke-width:3;stroke-linecap:butt;stroke-linejoin:miter;stroke-miterlimit:4;stroke-opacity:1;stroke-dasharray:none" />
    <path
       d="m 68.881861,87.075694 c 0,4.693877 0,4.489795 0,4.489795"
       inkscape:connector-curvature="0"
       id="path2235"
       style="fill:none;stroke:#000000;stroke-width:3;stroke-linecap:butt;stroke-linejoin:miter;stroke-miterlimit:4;stroke-opacity:1;stroke-dasharray:none" />
    <g
       transform="matrix(0,1,-1,0,114.43877,-4.5408177)"
       id="g4190">
      <path
         d="m 22.626996,100.81567 c 0,4.69388 0,4.4898 0,4.4898"
         inkscape:connector-curvature="0"
         id="path4178"
         style="fill:none;stroke:#000000;stroke-width:3;stroke-linecap:butt;stroke-linejoin:miter;stroke-miterlimit:4;stroke-opacity:1;stroke-dasharray:none" />
      <path
         d="m 36.43334,100.81567 c 0,4.69388 0,4.4898 0,4.4898"
         inkscape:connector-curvature="0"
         id="path4180"
         style="fill:none;stroke:#000000;stroke-width:3;stroke-linecap:butt;stroke-linejoin:miter;stroke-miterlimit:4;stroke-opacity:1;stroke-dasharray:none" />
      <path
         d="m 50.239687,100.81567 c 0,4.69388 0,4.4898 0,4.4898"
         inkscape:connector-curvature="0"
         id="path4182"
         style="fill:none;stroke:#000000;stroke-width:3;stroke-linecap:butt;stroke-linejoin:miter;stroke-miterlimit:4;stroke-opacity:1;stroke-dasharray:none" />
      <path
         d="m 91.658719,100.81567 c 0,4.69388 0,4.4898 0,4.4898"
         inkscape:connector-curvature="0"
         id="path4184"
         style="fill:none;stroke:#000000;stroke-width:3;stroke-linecap:butt;stroke-linejoin:miter;stroke-miterlimit:4;stroke-opacity:1;stroke-dasharray:none" />
      <path
         d="m 64.046032,100.81567 c 0,4.69388 0,4.4898 0,4.4898"
         inkscape:connector-curvature="0"
         id="path4186"
         style="fill:none;stroke:#000000;stroke-width:3;stroke-linecap:butt;stroke-linejoin:miter;stroke-miterlimit:4;stroke-opacity:1;stroke-dasharray:none" />
      <path
         d="m 77.852379,100.81567 c 0,4.69388 0,4.4898 0,4.4898"
         inkscape:connector-curvature="0"
         id="path4188"
         style="fill:none;stroke:#000000;stroke-width:3;stroke-linecap:butt;stroke-linejoin:miter;stroke-miterlimit:4;stroke-opacity:1;stroke-dasharray:none" />
    </g>
  </g>
  <path
     d="m 68.55911,14.163618 c 3.998609,16.494263 3.998609,16.494263 3.998609,16.494263"
     inkscape:connector-curvature="0"
     id="path4241"
     style="fill:none;stroke:#000000;stroke-width:1.22457409px;stroke-linecap:butt;stroke-linejoin:miter;stroke-opacity:1;marker-end:url(#Arrow1Lend)" />
  <path
     d="m 77.568014,41.902295 c 0.802215,16.953053 0.802215,16.953053 0.802215,16.953053"
     inkscape:connector-curvature="0"
     id="path4441"
     style="fill:none;stroke:#000000;stroke-width:1.22457409px;stroke-linecap:butt;stroke-linejoin:miter;stroke-opacity:1;marker-end:url(#Arrow1Lend)" />
</svg>
