<?xml version="1.0" encoding="UTF-8" standalone="no"?>
<!-- Created with Inkscape (http://www.inkscape.org/) -->

<svg
   xmlns:dc="http://purl.org/dc/elements/1.1/"
   xmlns:cc="http://creativecommons.org/ns#"
   xmlns:rdf="http://www.w3.org/1999/02/22-rdf-syntax-ns#"
   xmlns:svg="http://www.w3.org/2000/svg"
   xmlns="http://www.w3.org/2000/svg"
   xmlns:sodipodi="http://sodipodi.sourceforge.net/DTD/sodipodi-0.dtd"
   xmlns:inkscape="http://www.inkscape.org/namespaces/inkscape"
   version="1.0"
   width="100"
   height="100"
   id="svg2"
   sodipodi:version="0.32"
   inkscape:version="0.48.1 r9760"
   sodipodi:docname="stack_surfaces.svg"
   inkscape:output_extension="org.inkscape.output.svg.inkscape">
  <metadata
     id="metadata2566">
    <rdf:RDF>
      <cc:Work
         rdf:about="">
        <dc:format>image/svg+xml</dc:format>
        <dc:type
           rdf:resource="http://purl.org/dc/dcmitype/StillImage" />
      </cc:Work>
    </rdf:RDF>
  </metadata>
  <sodipodi:namedview
     inkscape:window-height="729"
     inkscape:window-width="1018"
     inkscape:pageshadow="2"
     inkscape:pageopacity="0.0"
     guidetolerance="10.0"
     gridtolerance="10.0"
     objecttolerance="10.0"
     borderopacity="1.0"
     bordercolor="#666666"
     pagecolor="#ffffff"
     id="base"
     inkscape:zoom="2.45"
     inkscape:cx="123.37756"
     inkscape:cy="18.21543"
     inkscape:window-x="0"
     inkscape:window-y="6"
     inkscape:current-layer="svg2"
     showgrid="false"
     inkscape:window-maximized="0" />
  <defs
     id="defs4" />
  <g
     id="g5168"
     transform="matrix(1.3783951,0,0,1.4488888,-21.957824,-17.391381)">
    <path
       style="fill:#0606ee"
       d="M 37.335444,78.126705 C 35.38069,77.368019 33.948268,76.616652 32.89228,75.796075 32.035163,75.130037 30.953575,74.294907 30.488751,73.940235 29.570195,73.23935 27.092344,68.654724 26.778267,67.074942 26.681097,66.586194 26.160405,64.815276 25.621169,63.139568 24.69021,60.24656 24.635927,59.895566 24.545365,56.183388 l -0.09538,-3.909438 0.816849,-0.481954 c 0.93047,-0.54899 1.224708,-1.078646 0.78363,-1.410608 -0.166252,-0.125123 -1.330552,-0.610425 -2.587332,-1.078446 -1.256781,-0.468023 -2.496438,-1.030453 -2.754794,-1.249844 -0.258356,-0.219393 -1.286631,-1.765457 -2.285056,-3.435699 l -1.815318,-3.036803 0.02734,-3.946429 0.02734,-3.946431 1.089114,-2.285055 c 0.599013,-1.25678 1.832734,-3.355211 2.741602,-4.663179 1.514978,-2.180229 1.865439,-2.51587 4.211541,-4.033449 4.100973,-2.652718 4.213421,-2.684523 8.215376,-2.323673 l 3.385069,0.305226 1.522713,1.358689 c 0.837491,0.747279 1.69344,1.35869 1.902111,1.35869 0.678418,0 2.250643,-0.772665 2.965515,-1.457393 0.553103,-0.529782 0.698211,-0.899315 0.698211,-1.778074 0,-1.066364 0.04312,-1.128375 1.113864,-1.602017 0.612623,-0.270993 2.086982,-1.103659 3.276356,-1.85037 2.447686,-1.536705 4.689475,-2.132 8.720164,-2.315592 1.237647,-0.05637 3.271017,-0.219605 4.518596,-0.362737 l 2.268327,-0.260239 2.682628,1.044405 c 2.848949,1.109158 3.206156,1.316424 6.039087,3.504115 1.531011,1.182301 2.003685,1.746805 3.082604,3.681479 0.700875,1.25678 1.354949,2.627814 1.453499,3.046741 0.09855,0.418927 0.391118,1.065081 0.650147,1.435896 0.259031,0.370817 0.858015,1.798977 1.331075,3.17369 0.787984,2.289873 0.870073,2.814718 0.978893,6.258643 L 79.627915,39.6827 78.4137,40.297987 c -1.366979,0.692702 -1.54844,1.052286 -1.495219,2.962938 0.02059,0.739366 -0.04373,1.710593 -0.142943,2.158286 -0.179607,0.810466 -0.176627,0.813373 0.690351,0.672683 0.589334,-0.09564 1.707706,0.116977 3.460552,0.657885 l 2.589817,0.799188 2.02219,2.685916 c 1.16203,1.543438 2.089064,3.042392 2.179408,3.523967 0.08647,0.460926 0.108362,2.417389 0.04865,4.347697 -0.107659,3.480262 -0.117573,3.529743 -1.183895,5.909149 -0.591431,1.319723 -1.822956,3.471819 -2.736725,4.782434 -1.523061,2.184521 -1.875467,2.521406 -4.232342,4.045952 -4.019193,2.59982 -4.245916,2.668308 -8.153976,2.463194 -1.820996,-0.09557 -3.556128,-0.301719 -3.855849,-0.4581 -0.299723,-0.156381 -1.413688,-0.99987 -2.475477,-1.874419 l -1.930529,-1.590089 0,-1.378193 c 0,-1.515368 -0.228907,-1.829177 -1.023919,-1.4037 -0.905636,0.484681 -1.513049,1.780546 -1.514083,3.23017 l -0.001,1.330423 -1.586845,0.723522 c -0.872764,0.397938 -2.370994,1.205537 -3.3294,1.794663 -1.37261,0.843734 -2.342852,1.203387 -4.570111,1.694059 -1.555156,0.342606 -3.513073,0.841172 -4.350927,1.107925 -0.846273,0.269433 -2.651866,0.546745 -4.062321,0.623911 -2.536687,0.138782 -2.541523,0.137906 -5.42372,-0.980743 z"
       id="path5156"
       inkscape:connector-curvature="0" />
    <path
       style="fill:#0202ce"
       d="M 37.335444,78.126705 C 35.38069,77.368019 33.948268,76.616652 32.89228,75.796075 32.035163,75.130037 30.953575,74.294907 30.488751,73.940235 29.570195,73.23935 27.092344,68.654724 26.778267,67.074942 26.681097,66.586194 26.160405,64.815276 25.621169,63.139568 24.69021,60.24656 24.635927,59.895566 24.545365,56.183388 l -0.09538,-3.909438 0.816849,-0.481954 c 0.93047,-0.54899 1.224708,-1.078646 0.78363,-1.410608 -0.166252,-0.125123 -1.330552,-0.610425 -2.587332,-1.078446 -1.256781,-0.468023 -2.496438,-1.030453 -2.754794,-1.249844 -0.258356,-0.219393 -1.286631,-1.765457 -2.285056,-3.435699 l -1.815318,-3.036803 0.02734,-3.946429 0.02734,-3.946431 1.089114,-2.285055 c 1.67519,-3.514694 4.111862,-6.858508 5.771514,-7.920175 1.549772,-0.991376 3.925241,-2.143304 4.086766,-1.98178 0.0583,0.0583 -0.481205,0.898085 -1.198895,1.866195 -1.547246,2.08712 -2.050222,3.281733 -1.522457,3.615972 0.753256,0.477045 1.225248,0.203279 2.049888,-1.188982 0.462425,-0.780726 1.082343,-1.716792 1.377592,-2.080147 l 0.536821,-0.660646 0.605707,0.934476 c 0.333141,0.513961 0.753078,0.93589 0.933194,0.937618 1.201919,0.01153 4.080158,-2.616102 3.765059,-3.437242 -0.110132,-0.286999 0.104089,-0.368041 0.972867,-0.368041 0.982452,0 1.278227,0.150004 2.503106,1.269475 0.763955,0.698212 1.506334,1.269476 1.649729,1.269476 0.585975,0 2.761231,-1.092489 3.413036,-1.714144 0.553539,-0.527935 0.698211,-0.895767 0.698211,-1.775218 0,-1.066364 0.04312,-1.128375 1.113864,-1.602017 0.612623,-0.270993 2.083514,-1.101482 3.268648,-1.845531 1.92377,-1.20778 2.423611,-1.398465 4.66225,-1.778599 1.379107,-0.23418 3.078729,-0.413323 3.776941,-0.398096 0.698211,0.01523 2.583382,-0.0984 4.189269,-0.252499 l 2.919793,-0.280186 1.650318,0.824298 c 0.907675,0.453364 1.61977,0.938549 1.58243,1.078192 -0.07833,0.292935 -1.349709,0.297524 -3.380926,0.0122 l -1.417651,-0.199134 -1.292803,1.148191 c -0.711041,0.631505 -1.644073,1.225344 -2.073404,1.31964 -0.774936,0.170205 -1.064334,0.755895 -0.471192,0.95361 0.2418,0.0806 0.236659,0.469168 -0.02354,1.778183 -0.183119,0.921275 -0.263263,1.894594 -0.178097,2.162931 0.108815,0.342839 -0.113377,0.772288 -0.747381,1.444527 -0.865739,0.917951 -0.899878,1.02503 -0.844122,2.647585 0.05057,1.471541 -0.03059,1.821477 -0.625509,2.696974 -0.560029,0.82416 -0.683612,1.289803 -0.683612,2.575786 l 0,1.569754 1.206001,0.883418 c 0.872031,0.63878 1.866261,1.044989 3.590267,1.466864 2.298472,0.562451 2.407066,0.62119 3.017841,1.632367 0.692316,1.146177 2.44442,2.288865 3.881208,2.531243 0.479869,0.08095 1.263892,0.273199 1.742271,0.427219 0.848868,0.273301 0.896128,0.250206 1.965346,-0.960383 0.602559,-0.682232 1.096616,-1.320179 1.097906,-1.417659 0.007,-0.527901 2.599655,-3.199543 3.498182,-3.604721 1.077175,-0.48574 1.311335,-0.913431 1.335051,-2.43847 0.0076,-0.488748 0.341136,-1.57322 0.741194,-2.409939 l 0.727376,-1.52131 0.705006,1.52131 c 0.58078,1.253241 0.738185,2.035797 0.893297,4.4411 0.103561,1.605885 0.269073,3.404834 0.367802,3.997661 l 0.179514,1.077869 -1.429696,0.654536 c -1.554797,0.71181 -1.522766,0.643901 -1.548661,3.283209 -0.0096,0.977496 -0.119429,1.993381 -0.244084,2.257521 -0.205658,0.435778 -0.145421,0.465019 0.650423,0.315716 0.837062,-0.157032 4.25988,0.788514 5.759366,1.591015 0.516624,0.27649 3.601276,4.46716 3.601276,4.892531 0,0.115713 -0.390541,0.210388 -0.867866,0.210388 -1.019331,0 -1.671085,0.212883 -1.671085,0.545831 0,0.440582 2.350493,2.754805 2.797978,2.754805 0.578726,0 0.748856,0.705579 0.753088,3.123295 0.003,1.710715 -0.132315,2.324997 -0.99244,4.505582 -0.634746,1.6092 -1.611561,3.407846 -2.693578,4.959775 -1.564042,2.243298 -1.900034,2.565861 -4.268614,4.097978 -4.019193,2.59982 -4.245916,2.668308 -8.153976,2.463194 -1.820996,-0.09557 -3.556128,-0.301719 -3.855849,-0.4581 -0.299723,-0.156382 -1.413688,-0.99987 -2.475477,-1.874419 l -1.930529,-1.590089 0,-1.378193 c 0,-1.515368 -0.228907,-1.829177 -1.023919,-1.4037 -0.905636,0.484681 -1.513049,1.780546 -1.514083,3.23017 l -0.001,1.330423 -1.586845,0.723522 c -0.872764,0.397938 -2.370994,1.205537 -3.3294,1.794663 -1.37261,0.843734 -2.342852,1.203387 -4.570111,1.694059 -1.555156,0.342606 -3.513073,0.841172 -4.350927,1.107925 -0.846273,0.269433 -2.651866,0.546745 -4.062321,0.623911 -2.536687,0.138782 -2.541523,0.137906 -5.42372,-0.980743 z M 75.39035,24.622745 c -0.272061,-0.447371 -0.44246,-0.865597 -0.378667,-0.929393 0.190335,-0.190334 1.074017,0.721696 1.212553,1.251447 0.200295,0.765934 -0.286595,0.577892 -0.833886,-0.322054 z"
       id="path5154"
       inkscape:connector-curvature="0" />
    <path
       style="fill:#0000ae"
       d="M 37.335444,78.126705 C 35.38069,77.368019 33.948268,76.616652 32.89228,75.796075 32.035163,75.130037 30.953575,74.294907 30.488751,73.940235 29.570195,73.23935 27.092344,68.654724 26.778267,67.074942 26.681097,66.586194 26.160405,64.815276 25.621169,63.139568 24.69021,60.24656 24.635927,59.895566 24.545365,56.183388 l -0.09538,-3.909438 0.816849,-0.481954 c 0.93047,-0.54899 1.224708,-1.078646 0.78363,-1.410608 -0.166252,-0.125123 -1.330552,-0.610425 -2.587332,-1.078446 -1.256781,-0.468023 -2.496438,-1.030453 -2.754794,-1.249844 -0.258356,-0.219393 -1.286631,-1.765457 -2.285056,-3.435699 l -1.815318,-3.036803 0.02734,-3.946429 0.02734,-3.946431 1.084477,-2.285055 c 0.596463,-1.25678 1.875761,-3.400535 2.842886,-4.763898 1.545165,-2.17823 1.943995,-2.572525 3.288757,-3.25136 0.841691,-0.424883 1.63416,-0.737565 1.761042,-0.694847 0.126882,0.04272 -0.110574,0.59181 -0.527681,1.2202 -0.843594,1.270913 -2.148998,4.908946 -1.948715,5.430877 0.151734,0.395411 2.794132,1.93208 3.322336,1.93208 0.200424,0 0.973362,-0.68148 1.717637,-1.5144 0.955194,-1.068959 1.705244,-1.64416 2.549991,-1.955554 1.145338,-0.422197 1.275663,-0.420686 3.033216,0.03516 l 1.836456,0.476316 1.359151,-1.504031 c 0.747536,-0.827216 1.552223,-1.822902 1.788199,-2.212633 0.256743,-0.424034 1.060042,-1.006736 2.000282,-1.450978 2.090679,-0.987798 2.623218,-1.589627 2.623218,-2.964523 0,-1.078224 0.0197,-1.102657 1.459897,-1.809694 0.802943,-0.394192 2.247733,-1.206072 3.210646,-1.804178 1.419431,-0.881668 2.164174,-1.155767 3.935374,-1.448391 1.201543,-0.19851 2.927268,-0.357485 3.834943,-0.353279 0.907675,0.0042 2.507214,-0.04688 3.554531,-0.113537 1.790842,-0.11397 1.858865,-0.09967 1.142528,0.240119 -0.418927,0.198717 -1.146626,0.366458 -1.617106,0.372756 -0.504601,0.0068 -1.44173,0.363734 -2.285056,0.870442 -0.7863,0.472444 -1.668631,0.931419 -1.96074,1.019944 -1.062906,0.322118 -1.71266,1.326836 -1.698005,2.625637 0.01714,1.518415 -1.069865,5.534587 -1.722531,6.364318 -0.623556,0.792722 -0.617181,1.236756 0.04156,2.89552 0.453455,1.141828 0.630143,2.44516 0.722527,5.32967 0.01689,0.527502 2.775066,2.806089 4.285305,3.540183 1.504189,0.731155 2.346776,2.367671 1.846452,3.586279 -0.661709,1.611683 -0.624137,2.055029 0.275121,3.246526 0.479778,0.635695 1.34734,1.3708 1.989426,1.685683 1.025749,0.50304 1.521461,0.557145 5.000563,0.545808 2.801087,-0.0091 3.935513,-0.101238 4.129781,-0.335316 0.147315,-0.177503 0.436291,-0.889953 0.642169,-1.583221 0.489274,-1.647566 0.962679,-2.021368 2.736063,-2.160422 1.240099,-0.09724 1.604165,-0.247045 2.344726,-0.964824 0.482175,-0.467342 0.950494,-0.775903 1.040708,-0.685687 0.09021,0.09021 0.177615,1.317873 0.194225,2.728133 l 0.0302,2.56411 0.765166,-0.143314 c 0.510868,-0.09568 1.381433,0.09339 2.619472,0.568905 l 1.854307,0.712224 0.981533,2.0174 0.981531,2.0174 -0.617737,0.465494 c -1.006621,0.758534 -0.859303,2.326268 0.429258,4.568111 1.201535,2.09043 1.577635,2.4563 2.524974,2.4563 0.37514,0 0.825067,0.172301 0.999844,0.382892 0.818067,0.985713 -0.791589,5.628552 -3.166118,9.132254 -1.335089,1.969966 -1.853635,2.494842 -3.700752,3.745925 -1.181458,0.800222 -2.865325,1.807269 -3.741926,2.237881 l -1.593821,0.782933 -3.357133,-0.176287 c -1.846425,-0.09696 -3.602363,-0.304233 -3.902084,-0.460615 -0.299723,-0.156382 -1.413688,-0.99987 -2.475477,-1.874419 l -1.930529,-1.590089 0,-1.378193 c 0,-1.515368 -0.228907,-1.829177 -1.023919,-1.4037 -0.905636,0.484681 -1.513049,1.780546 -1.514083,3.23017 l -10e-4,1.330423 -1.586845,0.723522 c -0.872764,0.397938 -2.370994,1.205537 -3.3294,1.794663 -1.37261,0.843734 -2.342852,1.203387 -4.570111,1.694059 -1.555156,0.342606 -3.513073,0.841172 -4.350927,1.107925 -0.846273,0.269433 -2.651866,0.546745 -4.062321,0.623911 -2.536687,0.138782 -2.541523,0.137906 -5.42372,-0.980743 z M 77.044863,40.431911 c -0.0879,-0.14223 -2.54e-4,-0.803829 0.194717,-1.470225 0.214739,-0.733863 0.307607,-1.83392 0.235516,-2.789779 -0.14894,-1.974768 0.0845,-3.276209 0.624848,-3.48356 0.681754,-0.261614 0.841546,0.151111 1.082588,2.796215 0.126273,1.385665 0.306975,2.881361 0.401558,3.323768 0.151609,0.709137 0.08603,0.848122 -0.553821,1.173836 -1.135338,0.577939 -1.811514,0.731109 -1.985406,0.449745 z"
       id="path5152"
       inkscape:connector-curvature="0" />
    <path
       style="fill:#00008f"
       d="M 37.335444,78.126705 C 35.38069,77.368019 33.948268,76.616652 32.89228,75.796075 32.035163,75.130037 30.953575,74.294907 30.488751,73.940235 29.570195,73.23935 27.092344,68.654724 26.778267,67.074942 26.681097,66.586194 26.160405,64.815276 25.621169,63.139568 24.69021,60.24656 24.635927,59.895566 24.545365,56.183388 l -0.09538,-3.909438 0.816849,-0.481954 c 0.93047,-0.54899 1.224708,-1.078646 0.78363,-1.410608 -0.166252,-0.125123 -1.330552,-0.610425 -2.587332,-1.078446 -1.256781,-0.468023 -2.496438,-1.030453 -2.754794,-1.249844 -0.258356,-0.219393 -1.286631,-1.765457 -2.285056,-3.435699 l -1.815318,-3.036803 0.02778,-3.946429 0.02778,-3.946431 1.150585,-2.412003 c 1.976018,-4.142378 5.0142,-7.814377 6.503389,-7.860106 0.27319,-0.0084 0.258337,0.124017 -0.07015,0.625356 -0.49511,0.755632 -2.280142,5.410073 -2.969357,7.74254 l -0.487647,1.650318 0.554973,1.577728 c 0.339216,0.964349 0.995731,2.081577 1.688692,2.873736 l 1.133719,1.296011 -0.456458,1.507578 c -0.251052,0.829168 -0.385899,1.578139 -0.299661,1.664377 0.08624,0.08624 0.568091,-0.08587 1.070784,-0.382468 0.626593,-0.369699 1.343551,-0.539266 2.280114,-0.539266 l 1.366129,0 2.655201,-3.998847 c 1.460362,-2.199367 3.141823,-4.955885 3.736585,-6.125595 0.594759,-1.16971 1.987305,-3.340514 3.094544,-4.824006 1.72428,-2.310212 2.201377,-2.7821 3.324787,-3.288487 2.008536,-0.905366 2.454152,-1.43101 2.454152,-2.894891 0,-1.235782 0.0036,-1.241067 1.206002,-1.764253 0.663301,-0.288617 2.132021,-1.079625 3.263824,-1.757795 1.80393,-1.080906 2.289471,-1.25334 3.935374,-1.397592 1.215972,-0.106573 1.788089,-0.0777 1.623657,0.08194 -0.139643,0.135571 -1.087281,0.909752 -2.105862,1.720401 -2.078954,1.654559 -2.203401,1.827733 -2.464664,3.42973 -0.10248,0.62839 -0.693512,2.545906 -1.313402,4.261147 -1.176788,3.256188 -1.196678,3.565568 -0.322243,5.012224 0.255283,0.422337 0.701461,1.850496 0.991508,3.173688 0.454907,2.075293 0.485046,2.572122 0.219396,3.616447 -0.230222,0.905047 -0.238341,1.545941 -0.03216,2.53895 0.22179,1.068177 0.202817,1.502336 -0.09687,2.216941 -0.275445,0.656793 -0.328817,1.369912 -0.204576,2.733353 0.154229,1.692504 0.102904,2.001326 -0.621987,3.742591 l -0.790086,1.897871 0.516646,1.012709 c 0.596111,1.168471 0.939339,1.36575 4.649264,2.672284 l 2.741173,0.965365 3.723313,-1.833341 c 4.061228,-1.999729 5.397307,-2.328741 7.296935,-1.796877 1.394443,0.39042 1.703687,0.180868 3.082365,-2.088678 0.850689,-1.400389 0.942469,-1.472028 1.70306,-1.329339 0.718767,0.134842 0.834398,0.07005 1.091741,-0.611728 0.26446,-0.700632 0.414253,-0.776849 1.844891,-0.938707 0.856383,-0.09689 1.618373,-0.275367 1.69331,-0.39662 0.07494,-0.12125 0.358015,-0.220457 0.629058,-0.220457 0.378299,0 0.492806,0.176982 0.492806,0.761685 0,0.553893 0.121212,0.763303 0.444316,0.767616 0.244374,0.0033 1.01558,0.317458 1.713792,0.698212 0.932526,0.508534 1.289015,0.860755 1.343095,1.327018 0.04049,0.349106 0.369823,1.237561 0.73185,1.974344 0.573577,1.167321 0.641956,1.567079 0.531679,3.108344 -0.107776,1.506291 -0.03473,1.966798 0.492295,3.103558 0.585845,1.263643 0.609369,1.493901 0.441133,4.318088 -0.207108,3.476687 -0.146924,3.543948 1.760569,1.967686 0.918818,-0.759265 1.454301,-1.01558 2.121718,-1.01558 0.861176,0 0.887211,0.02757 0.736714,0.78005 -0.297532,1.487667 -1.33187,3.674083 -2.767855,5.850785 -1.312467,1.989473 -1.67541,2.341757 -4.006089,3.888474 -3.990862,2.648469 -4.298715,2.74337 -8.230012,2.537034 -1.820996,-0.09557 -3.556128,-0.301719 -3.855849,-0.4581 -0.299723,-0.156382 -1.407886,-0.995109 -2.462589,-1.863839 l -1.917639,-1.579512 -0.07636,-1.447172 c -0.04747,-0.899504 -0.200366,-1.488089 -0.404033,-1.555295 -0.18022,-0.05947 -0.722921,0.310961 -1.206002,0.823176 -0.798018,0.846146 -0.878332,1.068716 -0.878332,2.43407 l 0,1.502764 -1.586845,0.723522 c -0.872764,0.397938 -2.360074,1.198852 -3.305132,1.779808 -1.298222,0.798058 -2.322361,1.186759 -4.189269,1.58999 -1.35904,0.293538 -3.327877,0.796984 -4.375194,1.118773 -1.165259,0.358025 -2.889486,0.640527 -4.443164,0.727981 l -2.538962,0.14291 -2.884769,-1.119649 z M 67.133093,52.856816 c 0,-0.186188 -0.142816,-0.386132 -0.317369,-0.444316 -0.188794,-0.06293 -0.317369,0.117074 -0.317369,0.444316 0,0.327244 0.128575,0.507247 0.317369,0.444317 0.174553,-0.05819 0.317369,-0.258128 0.317369,-0.444317 z M 77.415844,40.278894 c 0,-0.07538 0.228506,-0.584969 0.50779,-1.132413 0.279285,-0.547443 0.50779,-1.456913 0.50779,-2.021045 0,-1.512949 0.325306,-1.248087 0.795169,0.647419 l 0.414329,1.671461 -0.795171,0.48487 c -0.769965,0.469504 -1.429907,0.630904 -1.429907,0.349708 z"
       id="path5150"
       inkscape:connector-curvature="0" />
    <path
       style="fill:#00006e"
       d="m 37.300135,77.991889 c -2.133666,-0.822843 -3.165323,-1.413967 -5.165252,-2.959602 -2.493552,-1.927128 -2.502101,-1.937569 -3.871616,-4.728042 -0.754901,-1.538157 -1.372547,-2.991529 -1.372547,-3.229713 0,-0.238184 -0.477897,-1.849382 -1.061993,-3.580436 -1.060102,-3.141772 -1.062052,-3.154565 -1.095516,-7.185013 l -0.03352,-4.037635 0.715327,-0.405529 c 0.757991,-0.429714 1.162293,-1.209638 0.802712,-1.548483 -0.118603,-0.111762 -1.420418,-0.671025 -2.892922,-1.242801 l -2.677279,-1.039597 -1.892833,-3.111329 -1.892832,-3.11133 -0.08076,-3.831874 -0.08076,-3.831873 1.376773,-2.896347 c 0.83909,-1.765213 1.988187,-3.664803 2.942341,-4.864033 2.347996,-2.95108 2.55774,-2.663692 0.880175,1.206002 -0.934571,2.155808 -2.879655,7.559919 -2.879655,8.000673 0,0.144274 0.861502,1.183522 1.914448,2.30944 2.111629,2.257971 2.074729,2.086348 0.961057,4.46985 -0.677661,1.450342 -0.5509,2.175123 0.435154,2.488086 1.021084,0.324079 3.959812,0.262278 4.387268,-0.09227 0.227432,-0.188636 0.949839,-1.331164 1.605351,-2.538951 0.655511,-1.207784 1.953187,-3.338499 2.883728,-4.734923 0.93054,-1.396423 2.406501,-3.909984 3.279913,-5.585692 1.461778,-2.804527 4.651117,-7.464901 5.588741,-8.166456 0.217367,-0.16264 0.808697,-0.419592 1.31407,-0.571005 1.382997,-0.414357 2.298372,-1.45122 2.249269,-2.547795 -0.02222,-0.495939 -0.0293,-1.041064 -0.01577,-1.211388 0.01353,-0.170325 0.910059,-0.737086 1.992287,-1.259469 4.295979,-2.073637 4.175401,-2.089165 1.791938,0.230768 -1.962957,1.910634 -2.176665,2.214123 -2.343756,3.328369 -0.101121,0.674321 -0.357997,1.702087 -0.570837,2.283924 -0.212841,0.581837 -0.372863,1.658295 -0.355611,2.39213 0.01993,0.847425 -0.160322,1.779842 -0.494006,2.555514 -0.524362,1.218912 -0.524415,1.223508 -0.02829,2.380929 0.273397,0.637813 0.694071,2.115647 0.934827,3.284072 l 0.437738,2.124414 -0.669847,2.107741 c -0.368422,1.159257 -0.669853,2.353706 -0.669853,2.654328 0,0.300622 -0.351564,1.787742 -0.781253,3.304706 l -0.781253,2.758121 1.641703,2.966092 c 0.902935,1.631349 1.828697,3.33741 2.057246,3.791247 0.228551,0.453838 0.52374,0.825159 0.655976,0.825159 0.132236,0 1.585864,0.57731 3.23029,1.282907 l 2.989861,1.282909 3.140456,-0.530582 c 1.727251,-0.29182 3.816269,-0.815029 4.642263,-1.162685 1.409956,-0.593442 1.567247,-0.609983 2.571745,-0.270429 0.911732,0.308196 1.163905,0.309955 1.705464,0.01191 1.498224,-0.824578 2.66616,-2.379467 2.586244,-3.443102 -0.0313,-0.416624 0.380223,-1.369446 1.085599,-2.513533 0.624808,-1.013407 1.177898,-1.968213 1.229091,-2.121794 0.05729,-0.171858 0.586333,-0.01076 1.375781,0.418899 0.705486,0.383976 1.446832,0.698135 1.647432,0.698135 0.2006,0 0.813528,-0.339579 1.362063,-0.754622 0.548535,-0.415042 1.077297,-0.7578 1.175029,-0.761685 0.09773,-0.0039 0.691687,0.339826 1.319899,0.763803 l 1.142208,0.770866 -0.147274,1.243484 c -0.12385,1.045736 -7.62e-4,1.60982 0.774735,3.547103 1.035598,2.587422 1.090053,3.015946 0.522681,4.11312 -0.714996,1.382652 -1.121779,4.010339 -0.918694,5.934483 0.244585,2.317364 0.191448,2.500017 -0.875331,3.008726 -0.773359,0.36879 -0.855862,0.487108 -0.575339,0.825116 0.343089,0.413399 2.381117,1.875108 2.614419,1.875108 0.07429,0 0.839326,-0.628389 1.700076,-1.396423 0.860751,-0.768033 1.67681,-1.396422 1.813466,-1.396422 0.136654,0 0.815136,-0.284624 1.507736,-0.632497 l 1.259272,-0.632496 -0.172296,0.569022 c -0.200923,0.66357 -0.848485,1.785012 -2.173182,3.763492 -0.739652,1.1047 -1.520301,1.796413 -3.540212,3.136893 -3.605541,2.392756 -3.717545,2.428245 -7.658865,2.426683 -3.78176,-0.0015 -3.528883,0.08717 -6.512795,-2.283721 l -1.757484,-1.396423 -0.173627,-1.586844 c -0.159786,-1.460372 -0.222478,-1.586844 -0.786562,-1.586844 -0.429148,0 -0.847131,0.323297 -1.39398,1.078201 -0.667381,0.921291 -0.769224,1.262292 -0.699806,2.343197 0.08057,1.254514 0.07283,1.268897 -0.934339,1.735744 -0.558569,0.25891 -2.100982,1.084091 -3.427584,1.83374 -1.998929,1.12957 -2.912039,1.471074 -5.331797,1.99409 -1.605886,0.347104 -3.359398,0.815861 -3.896693,1.04168 -0.630234,0.264879 -2.026753,0.452888 -3.935374,0.529805 l -2.958474,0.119214 -2.666183,-1.028209 z M 77.923634,39.947518 c 0,-0.118 0.231205,-0.423784 0.51379,-0.679517 0.36211,-0.327705 0.593289,-0.385474 0.783081,-0.195682 0.189792,0.189792 0.09639,0.390397 -0.316389,0.679517 -0.649073,0.45463 -0.980482,0.520769 -0.980482,0.195682 z"
       id="path5148"
       inkscape:connector-curvature="0" />
    <path
       style="fill:#00004f"
       d="m 37.430581,77.864289 c -2.217202,-0.868397 -3.28523,-1.475432 -5.204849,-2.958284 -2.311286,-1.7854 -2.472162,-1.974918 -3.738471,-4.404059 -0.72779,-1.396103 -1.327618,-2.745414 -1.332949,-2.998463 -0.0053,-0.25305 -0.517135,-2.023968 -1.137338,-3.935374 -1.103552,-3.401044 -1.129012,-3.555758 -1.191824,-7.242355 l -0.06418,-3.767072 0.981424,-0.823956 c 0.639618,-0.53699 0.929075,-0.960376 0.831115,-1.215654 -0.08267,-0.215436 -1.423699,-0.881765 -2.980064,-1.480732 l -2.829754,-1.089032 -1.887438,-3.176571 -1.887438,-3.176572 0,-3.85537 0,-3.855366 1.253547,-2.637797 c 0.689451,-1.45079 1.66384,-3.094809 2.16531,-3.653378 l 0.911762,-1.015581 -0.420031,1.015581 c -0.231018,0.558569 -0.792461,1.995709 -1.247652,3.193642 -0.455192,1.197936 -1.015202,2.540804 -1.244468,2.984156 -0.322432,0.623516 -0.379225,1.17331 -0.250743,2.427367 0.162787,1.588901 0.195877,1.647477 1.657297,2.933874 1.5851,1.39526 1.803378,1.993447 1.095955,3.003435 -0.217382,0.310356 -0.617267,0.564284 -0.888633,0.564284 -0.679728,0 -0.62902,0.243719 0.415542,1.99723 0.906064,1.521017 0.913481,1.526389 2.348529,1.701255 0.791777,0.09648 1.863491,0.389193 2.381587,0.650471 1.125943,0.567819 1.216116,0.577193 1.216116,0.12644 0,-0.710086 3.340691,-7.090975 5.033082,-9.613443 0.962171,-1.434091 2.411183,-3.920966 3.220032,-5.52639 1.421417,-2.821272 4.522524,-7.2882 5.568227,-8.020637 0.552539,-0.387014 1.268785,-0.48706 1.059202,-0.147951 -0.07108,0.115009 -0.02806,1.171847 0.0956,2.34853 0.223593,2.127553 0.219774,2.150345 -0.687995,4.108226 l -0.912836,1.968804 0.819433,2.788165 c 0.450689,1.53349 0.735991,2.923183 0.634002,3.088204 -0.10199,0.165019 -0.274369,1.354096 -0.383067,2.642391 -0.1087,1.288296 -0.385789,2.989586 -0.615757,3.780645 -0.388192,1.335338 -0.388208,1.613785 -2.03e-4,3.890054 0.318743,1.869934 0.624272,2.791457 1.287477,3.883208 1.356947,2.233777 1.863229,3.528817 1.72135,4.403115 -0.209306,1.2898 0.59606,2.018961 3.285339,2.974482 1.431964,0.508786 2.596319,1.097467 2.988823,1.511103 0.353648,0.372687 1.250469,0.98544 1.992934,1.361677 0.742463,0.376235 1.281526,0.752472 1.197918,0.836083 -0.08361,0.08361 -1.145224,0.684558 -2.35914,1.335445 -1.213918,0.650885 -2.247497,1.304548 -2.296842,1.452582 -0.09707,0.291225 5.003285,3.119297 5.625577,3.119297 0.207925,0 1.712482,-0.91125 3.34346,-2.024999 2.515773,-1.717951 3.366609,-2.148184 5.611341,-2.837422 2.3383,-0.71797 2.736222,-0.926431 3.422534,-1.792967 0.749087,-0.9458 1.207908,-2.239327 1.220557,-3.44105 0.0043,-0.410531 -0.248527,-0.696775 -0.882575,-0.999131 -0.488748,-0.233068 -0.888632,-0.541489 -0.888632,-0.685382 0,-0.143892 0.540372,-0.810248 1.200829,-1.480785 1.027344,-1.043026 1.158544,-1.286872 0.90814,-1.687831 -0.502466,-0.804576 -0.07192,-2.573965 1.133108,-4.656654 0.960899,-1.660756 1.202806,-1.923867 1.582158,-1.720845 0.504253,0.26987 0.874643,1.015458 0.504451,1.015458 -0.33736,0 -0.0089,2.331308 0.388351,2.756489 0.267113,0.285883 0.585279,0.102322 1.87032,-1.079055 0.851651,-0.782946 1.649709,-1.423539 1.773468,-1.423539 0.123756,0 0.369542,0.174147 0.546189,0.386995 0.253461,0.305403 0.260017,0.757326 0.03109,2.14354 -0.159548,0.966103 -0.290088,2.140541 -0.290088,2.609866 0,0.590344 -0.483579,1.670698 -1.569155,3.505624 -2.474155,4.182005 -2.998984,5.79579 -3.178825,9.774448 -0.114492,2.532977 -0.07423,3.385645 0.166882,3.534664 0.195121,0.12059 0.890776,-0.207691 1.802295,-0.850513 0.816484,-0.575801 1.620569,-1.046911 1.786855,-1.046911 0.166286,0 1.025963,0.457011 1.910396,1.01558 0.884431,0.558569 1.867926,1.015154 2.185544,1.014631 0.649327,-0.001 1.582896,-0.525715 3.390023,-1.905125 1.377099,-1.051164 1.706906,-0.846199 0.85538,0.531596 -0.559136,0.904699 -4.992771,4.069131 -6.683184,4.770003 -0.585173,0.242622 -1.727025,0.289943 -4.354466,0.180458 l -3.56131,-0.148399 -2.024382,-1.64116 c -1.113411,-0.902638 -2.108325,-1.759533 -2.210919,-1.904213 -0.102594,-0.14468 -0.188283,-0.856137 -0.190421,-1.581018 -0.002,-0.72488 -0.124635,-1.392591 -0.272214,-1.483801 -0.550668,-0.340331 -1.537431,0.179598 -2.27608,1.199271 -0.679073,0.937434 -0.744819,1.185607 -0.601105,2.268995 l 0.161366,1.216434 -1.450175,0.641337 c -0.797599,0.352733 -2.28028,1.158716 -3.29485,1.79107 -1.430133,0.891362 -2.380772,1.265966 -4.230286,1.666968 -1.312089,0.284479 -3.242512,0.78204 -4.289829,1.105693 -1.192601,0.368549 -2.853027,0.638929 -4.443164,0.723512 -2.527876,0.134468 -2.55112,0.130291 -5.328583,-0.95754 z m 6.309032,-57.632993 c -0.326416,-0.85062 0.293383,-1.373882 2.140962,-1.807505 0.644483,-0.151257 0.61694,-0.08851 -0.444903,1.013554 -1.219696,1.265899 -1.469996,1.383067 -1.696059,0.793951 z"
       id="path5146"
       inkscape:connector-curvature="0" />
    <path
       style="fill:#000035"
       d="M 37.427367,77.674209 C 35.163646,76.789128 34.187231,76.229266 32.273626,74.719133 30.029069,72.947832 29.852363,72.735479 28.68765,70.409797 28.013856,69.064374 27.375833,67.563689 27.269821,67.074941 27.16381,66.586194 26.646514,64.872401 26.120274,63.266514 25.214339,60.501946 25.157613,60.134849 25.053252,56.361389 l -0.110221,-3.985334 0.741309,-0.30706 c 0.764909,-0.316835 1.292358,-1.231651 1.059697,-1.837955 -0.07284,-0.189819 -1.297853,-0.77968 -2.72225,-1.310802 -1.424396,-0.53112 -2.698351,-1.062322 -2.831012,-1.180447 -0.53222,-0.473905 0.737777,-0.171067 2.843623,0.678078 1.217828,0.491068 2.358702,0.837412 2.535277,0.769655 0.196717,-0.07549 0.321299,-0.59332 0.321701,-1.337169 8.89e-4,-1.622403 2.343873,-6.68291 4.617622,-9.97335 0.916706,-1.326602 2.383052,-3.840163 3.258548,-5.585692 1.42409,-2.839294 3.501618,-5.839587 4.043572,-5.839587 0.111079,0 0.264896,0.599827 0.341816,1.332949 0.149319,1.423148 0.113946,1.525316 -1.677053,4.84361 l -0.935575,1.733398 0.624891,1.066296 c 0.860933,1.469072 1.317038,5.300903 0.935951,7.863146 -0.243503,1.637197 -0.192277,2.327195 0.465786,6.273862 l 0.739378,4.434357 -0.774844,1.688206 c -0.585627,1.275945 -0.73262,1.880457 -0.60193,2.475478 0.0951,0.432997 0.112085,0.78727 0.03774,0.78727 -0.645571,0 -1.598907,-0.848761 -2.359295,-2.100497 -1.026505,-1.689812 -1.233051,-1.624269 -1.495272,0.474479 -0.11571,0.926094 -0.03021,1.716854 0.298322,2.75907 0.492617,1.562765 1.354386,2.391238 4.691014,4.509771 0.927692,0.589022 1.686811,1.334453 2.187316,2.147877 0.694782,1.129165 1.095974,1.422153 4.285983,3.130001 l 3.519448,1.884221 3.35773,0.237555 c 3.315649,0.234576 3.367606,0.247745 4.145883,1.050724 l 0.788154,0.813168 -1.738447,1.187831 c -1.509318,1.031268 -2.155372,1.284463 -4.901697,1.921014 -1.739785,0.403251 -3.56313,0.902542 -4.051878,1.109539 -0.489068,0.20713 -2.144406,0.447119 -3.681479,0.533736 l -2.792846,0.157382 -2.792846,-1.09196 z m 31.736886,-2.960432 c -1.058425,-0.133747 -1.61771,-0.43376 -3.36411,-1.804565 l -2.094634,-1.644148 0,-1.403832 c 0,-0.859653 -0.153208,-1.622564 -0.395239,-1.968111 -0.332077,-0.474106 -0.337246,-0.564284 -0.03234,-0.564284 0.43265,0 2.000709,-1.66052 3.519657,-3.727195 0.996266,-1.355513 1.164845,-1.811382 1.832746,-4.956068 l 0.73556,-3.463241 1.069927,-0.408608 c 0.588457,-0.224736 1.372303,-0.747975 1.741875,-1.162759 0.369572,-0.414783 0.842449,-0.754149 1.050834,-0.754149 0.834649,0 0.317577,1.465937 -1.829401,5.186485 -3.866132,6.69971 -3.634442,5.926582 -3.164074,10.558263 0.351292,3.459117 0.575845,4.807778 0.826274,4.962552 0.120631,0.07455 1.262361,-0.349062 2.537181,-0.941369 l 2.317852,-1.076919 1.622453,0.87477 c 0.89235,0.481126 1.622605,1.023174 1.622793,1.204554 1.86e-4,0.181381 -0.485236,0.550194 -1.078716,0.819584 -1.124697,0.51052 -4.093947,0.625981 -6.918642,0.26904 z M 68.228071,54.24331 c -0.604796,-0.32837 -0.665667,-0.478606 -0.535944,-1.322784 0.08049,-0.523789 0.26174,-1.176616 0.402786,-1.450727 0.254832,-0.495246 0.257574,-0.495246 0.435814,0 0.193605,0.537941 0.570789,3.170859 0.451849,3.154117 -0.03972,-0.0056 -0.379248,-0.176863 -0.754505,-0.380606 z M 17.509118,42.081356 C 17.076712,41.560337 16.913562,39.245041 17.194963,37.62311 l 0.242277,-1.396423 0.02968,1.471436 c 0.03148,1.560407 0.158284,1.758046 2.041274,3.181461 0.947221,0.716035 0.983428,1.008093 0.146515,1.181853 -0.349106,0.07248 -0.907297,0.187807 -1.240424,0.256277 -0.35016,0.07197 -0.732031,-0.02774 -0.905168,-0.236358 z M 43.94655,19.688686 c 0.04515,-0.228615 0.36438,-0.519895 0.709403,-0.647291 l 0.627314,-0.231627 -0.608097,0.647291 c -0.710787,0.756597 -0.840438,0.797813 -0.72862,0.231628 z"
       id="path5144"
       inkscape:connector-curvature="0" />
  </g>
</svg>
