<?xml version="1.0" encoding="UTF-8" standalone="no"?>
<!-- Created with Inkscape (http://www.inkscape.org/) -->
<svg
   xmlns:svg="http://www.w3.org/2000/svg"
   xmlns="http://www.w3.org/2000/svg"
   version="1.0"
   width="100"
   height="100"
   id="svg2">
  <defs
     id="defs4">
    <marker
       refX="0"
       refY="0"
       orient="auto"
       id="Arrow1Lend"
       style="overflow:visible">
      <path
         d="M 0,0 L 5,-5 L -12.5,0 L 5,5 L 0,0 z"
         transform="matrix(-0.8,0,0,-0.8,-10,0)"
         id="path4249"
         style="fill-rule:evenodd;stroke:#000000;stroke-width:1pt;marker-start:none" />
    </marker>
  </defs>
  <g
     transform="matrix(1.2245741,0,0,1.2245741,-42.769176,-115.11553)"
     id="g4561">
    <g
       transform="matrix(0,1,-1,0,78.380187,17.531922)"
       id="g4443"
       style="fill:none;stroke:#e4e6e6;stroke-opacity:1">
      <path
         d="M 82.934744,-33.943015 C 82.934744,37.861294 82.934744,34.739361 82.934744,34.739361"
         id="path4445"
         style="fill:none;stroke:#e4e6e6;stroke-width:2.21302867;stroke-linecap:butt;stroke-linejoin:miter;stroke-miterlimit:4;stroke-dasharray:none;stroke-opacity:1" />
      <path
         d="M 96.773497,-33.943015 C 96.773497,37.861294 96.773497,34.739361 96.773497,34.739361"
         id="path4447"
         style="fill:none;stroke:#e4e6e6;stroke-width:2.21302867;stroke-linecap:butt;stroke-linejoin:miter;stroke-miterlimit:4;stroke-dasharray:none;stroke-opacity:1" />
      <path
         d="M 138.28975,-33.943015 C 138.28975,37.861294 138.28975,34.739361 138.28975,34.739361"
         id="path4449"
         style="fill:none;stroke:#e4e6e6;stroke-width:2.21302867;stroke-linecap:butt;stroke-linejoin:miter;stroke-miterlimit:4;stroke-dasharray:none;stroke-opacity:1" />
      <path
         d="M 110.61225,-33.943015 C 110.61225,37.861294 110.61225,34.739361 110.61225,34.739361"
         id="path4451"
         style="fill:none;stroke:#e4e6e6;stroke-width:2.21302867;stroke-linecap:butt;stroke-linejoin:miter;stroke-miterlimit:4;stroke-dasharray:none;stroke-opacity:1" />
      <path
         d="M 124.451,-33.943015 C 124.451,37.861294 124.451,34.739361 124.451,34.739361"
         id="path4453"
         style="fill:none;stroke:#e4e6e6;stroke-width:2.21302867;stroke-linecap:butt;stroke-linejoin:miter;stroke-miterlimit:4;stroke-dasharray:none;stroke-opacity:1" />
    </g>
    <path
       d="M 57.350632,99.012951 C 57.350632,170.81726 57.350632,167.69533 57.350632,167.69533"
       id="path4455"
       style="fill:none;stroke:#e4e6e6;stroke-width:2.21302867;stroke-linecap:butt;stroke-linejoin:miter;stroke-miterlimit:4;stroke-dasharray:none;stroke-opacity:1" />
    <path
       d="M 71.189385,99.012951 C 71.189385,170.81726 71.189385,167.69533 71.189385,167.69533"
       id="path4457"
       style="fill:none;stroke:#e4e6e6;stroke-width:2.21302867;stroke-linecap:butt;stroke-linejoin:miter;stroke-miterlimit:4;stroke-dasharray:none;stroke-opacity:1" />
    <path
       d="M 112.70563,99.012951 C 112.70563,170.81726 112.70563,167.69533 112.70563,167.69533"
       id="path4459"
       style="fill:none;stroke:#e4e6e6;stroke-width:2.21302867;stroke-linecap:butt;stroke-linejoin:miter;stroke-miterlimit:4;stroke-dasharray:none;stroke-opacity:1" />
    <path
       d="M 85.028136,99.012951 C 85.028136,170.81726 85.028136,167.69533 85.028136,167.69533"
       id="path4461"
       style="fill:none;stroke:#e4e6e6;stroke-width:2.21302867;stroke-linecap:butt;stroke-linejoin:miter;stroke-miterlimit:4;stroke-dasharray:none;stroke-opacity:1" />
    <path
       d="M 98.866887,99.012951 C 98.866887,170.81726 98.866887,167.69533 98.866887,167.69533"
       id="path4463"
       style="fill:none;stroke:#e4e6e6;stroke-width:2.21302867;stroke-linecap:butt;stroke-linejoin:miter;stroke-miterlimit:4;stroke-dasharray:none;stroke-opacity:1" />
    <path
       d="M 48.444206,127.35436 C 68.85237,147.76252 74.566656,93.272726 85.995227,113.27273 C 97.423799,133.27273 94.974819,166.74211 102.11768,157.76252 C 109.26053,148.78293 109.26053,148.98701 109.26053,148.98701"
       id="path4465"
       style="fill:none;stroke:#e4e6e6;stroke-width:3;stroke-linecap:butt;stroke-linejoin:miter;stroke-miterlimit:4;stroke-dasharray:none;stroke-opacity:1" />
    <g
       transform="translate(30.07686,82.252317)"
       id="g4467"
       style="fill:none;stroke:#e4e6e6;stroke-opacity:1">
      <path
         d="M 13.682935,16.591098 C 13.682935,89.429309 13.682935,87.133391 13.682935,87.133391 C 84.174207,87.133391 84.174207,87.133391 84.174207,87.133391"
         id="path4469"
         style="fill:none;stroke:#e4e6e6;stroke-width:3.0189321;stroke-linecap:butt;stroke-linejoin:miter;stroke-miterlimit:4;stroke-dasharray:none;stroke-opacity:1" />
      <path
         d="M 13.656478,87.075694 C 13.656478,91.769571 13.656478,91.565489 13.656478,91.565489"
         id="path4471"
         style="fill:none;stroke:#e4e6e6;stroke-width:3;stroke-linecap:butt;stroke-linejoin:miter;stroke-miterlimit:4;stroke-dasharray:none;stroke-opacity:1" />
      <path
         d="M 27.462822,87.075694 C 27.462822,91.769571 27.462822,91.565489 27.462822,91.565489"
         id="path4473"
         style="fill:none;stroke:#e4e6e6;stroke-width:3;stroke-linecap:butt;stroke-linejoin:miter;stroke-miterlimit:4;stroke-dasharray:none;stroke-opacity:1" />
      <path
         d="M 41.269169,87.075694 C 41.269169,91.769571 41.269169,91.565489 41.269169,91.565489"
         id="path4475"
         style="fill:none;stroke:#e4e6e6;stroke-width:3;stroke-linecap:butt;stroke-linejoin:miter;stroke-miterlimit:4;stroke-dasharray:none;stroke-opacity:1" />
      <path
         d="M 82.688201,87.075694 C 82.688201,91.769571 82.688201,91.565489 82.688201,91.565489"
         id="path4477"
         style="fill:none;stroke:#e4e6e6;stroke-width:3;stroke-linecap:butt;stroke-linejoin:miter;stroke-miterlimit:4;stroke-dasharray:none;stroke-opacity:1" />
      <path
         d="M 55.075514,87.075694 C 55.075514,91.769571 55.075514,91.565489 55.075514,91.565489"
         id="path4479"
         style="fill:none;stroke:#e4e6e6;stroke-width:3;stroke-linecap:butt;stroke-linejoin:miter;stroke-miterlimit:4;stroke-dasharray:none;stroke-opacity:1" />
      <path
         d="M 68.881861,87.075694 C 68.881861,91.769571 68.881861,91.565489 68.881861,91.565489"
         id="path4481"
         style="fill:none;stroke:#e4e6e6;stroke-width:3;stroke-linecap:butt;stroke-linejoin:miter;stroke-miterlimit:4;stroke-dasharray:none;stroke-opacity:1" />
      <g
         transform="matrix(0,1,-1,0,114.43877,-4.5408177)"
         id="g4483"
         style="fill:none;stroke:#e4e6e6;stroke-opacity:1">
        <path
           d="M 22.626996,100.81567 C 22.626996,105.50955 22.626996,105.30547 22.626996,105.30547"
           id="path4485"
           style="fill:none;stroke:#e4e6e6;stroke-width:3;stroke-linecap:butt;stroke-linejoin:miter;stroke-miterlimit:4;stroke-dasharray:none;stroke-opacity:1" />
        <path
           d="M 36.43334,100.81567 C 36.43334,105.50955 36.43334,105.30547 36.43334,105.30547"
           id="path4487"
           style="fill:none;stroke:#e4e6e6;stroke-width:3;stroke-linecap:butt;stroke-linejoin:miter;stroke-miterlimit:4;stroke-dasharray:none;stroke-opacity:1" />
        <path
           d="M 50.239687,100.81567 C 50.239687,105.50955 50.239687,105.30547 50.239687,105.30547"
           id="path4489"
           style="fill:none;stroke:#e4e6e6;stroke-width:3;stroke-linecap:butt;stroke-linejoin:miter;stroke-miterlimit:4;stroke-dasharray:none;stroke-opacity:1" />
        <path
           d="M 91.658719,100.81567 C 91.658719,105.50955 91.658719,105.30547 91.658719,105.30547"
           id="path4491"
           style="fill:none;stroke:#e4e6e6;stroke-width:3;stroke-linecap:butt;stroke-linejoin:miter;stroke-miterlimit:4;stroke-dasharray:none;stroke-opacity:1" />
        <path
           d="M 64.046032,100.81567 C 64.046032,105.50955 64.046032,105.30547 64.046032,105.30547"
           id="path4493"
           style="fill:none;stroke:#e4e6e6;stroke-width:3;stroke-linecap:butt;stroke-linejoin:miter;stroke-miterlimit:4;stroke-dasharray:none;stroke-opacity:1" />
        <path
           d="M 77.852379,100.81567 C 77.852379,105.50955 77.852379,105.30547 77.852379,105.30547"
           id="path4495"
           style="fill:none;stroke:#e4e6e6;stroke-width:3;stroke-linecap:butt;stroke-linejoin:miter;stroke-miterlimit:4;stroke-dasharray:none;stroke-opacity:1" />
      </g>
    </g>
    <path
       d="M 92.86998,108.55233 C 96.135286,122.02172 96.135286,122.02172 96.135286,122.02172"
       id="path4497"
       style="opacity:0.20540544;fill:#e7e7e3;fill-opacity:1;fill-rule:evenodd;stroke:#e4e6e6;stroke-width:1px;stroke-linecap:butt;stroke-linejoin:miter;marker-end:url(#Arrow1Lend);stroke-opacity:1" />
    <path
       d="M 100.22675,131.20402 C 100.88184,145.04806 100.88184,145.04806 100.88184,145.04806"
       id="path4499"
       style="opacity:0.20540544;fill:#e7e7e3;fill-opacity:1;fill-rule:evenodd;stroke:#e4e6e6;stroke-width:1px;stroke-linecap:butt;stroke-linejoin:miter;marker-end:url(#Arrow1Lend);stroke-opacity:1" />
  </g>
  <g
     transform="matrix(0,1.2245741,-1.2245741,0,50.815285,-97.29761)"
     id="g4234">
    <path
       d="M 82.934744,-33.943015 C 82.934744,37.861294 82.934744,34.739361 82.934744,34.739361"
       id="path4224"
       style="fill:none;stroke:#b0b2ae;stroke-width:2.21302867;stroke-linecap:butt;stroke-linejoin:miter;stroke-miterlimit:4;stroke-dasharray:none;stroke-opacity:1" />
    <path
       d="M 96.773497,-33.943015 C 96.773497,37.861294 96.773497,34.739361 96.773497,34.739361"
       id="path4226"
       style="fill:none;stroke:#b0b2ae;stroke-width:2.21302867;stroke-linecap:butt;stroke-linejoin:miter;stroke-miterlimit:4;stroke-dasharray:none;stroke-opacity:1" />
    <path
       d="M 138.28975,-33.943015 C 138.28975,37.861294 138.28975,34.739361 138.28975,34.739361"
       id="path4228"
       style="fill:none;stroke:#b0b2ae;stroke-width:2.21302867;stroke-linecap:butt;stroke-linejoin:miter;stroke-miterlimit:4;stroke-dasharray:none;stroke-opacity:1" />
    <path
       d="M 110.61225,-33.943015 C 110.61225,37.861294 110.61225,34.739361 110.61225,34.739361"
       id="path4230"
       style="fill:none;stroke:#b0b2ae;stroke-width:2.21302867;stroke-linecap:butt;stroke-linejoin:miter;stroke-miterlimit:4;stroke-dasharray:none;stroke-opacity:1" />
    <path
       d="M 124.451,-33.943015 C 124.451,37.861294 124.451,34.739361 124.451,34.739361"
       id="path4232"
       style="fill:none;stroke:#b0b2ae;stroke-width:2.21302867;stroke-linecap:butt;stroke-linejoin:miter;stroke-miterlimit:4;stroke-dasharray:none;stroke-opacity:1" />
  </g>
  <path
     d="M 25.063037,2.4819445 C 25.063037,90.411638 25.063037,86.5886 25.063037,86.5886"
     id="path4214"
     style="fill:none;stroke:#b0b2ae;stroke-width:2.71001744;stroke-linecap:butt;stroke-linejoin:miter;stroke-miterlimit:4;stroke-dasharray:none;stroke-opacity:1" />
  <path
     d="M 42.009615,2.4819445 C 42.009615,90.411638 42.009615,86.5886 42.009615,86.5886"
     id="path4216"
     style="fill:none;stroke:#b0b2ae;stroke-width:2.71001744;stroke-linecap:butt;stroke-linejoin:miter;stroke-miterlimit:4;stroke-dasharray:none;stroke-opacity:1" />
  <path
     d="M 92.849337,2.4819445 C 92.849337,90.411638 92.849337,86.5886 92.849337,86.5886"
     id="path4218"
     style="fill:none;stroke:#b0b2ae;stroke-width:2.71001744;stroke-linecap:butt;stroke-linejoin:miter;stroke-miterlimit:4;stroke-dasharray:none;stroke-opacity:1" />
  <path
     d="M 58.956191,2.4819445 C 58.956191,90.411638 58.956191,86.5886 58.956191,86.5886"
     id="path4220"
     style="fill:none;stroke:#b0b2ae;stroke-width:2.71001744;stroke-linecap:butt;stroke-linejoin:miter;stroke-miterlimit:4;stroke-dasharray:none;stroke-opacity:1" />
  <path
     d="M 75.902766,2.4819445 C 75.902766,90.411638 75.902766,86.5886 75.902766,86.5886"
     id="path4222"
     style="fill:none;stroke:#b0b2ae;stroke-width:2.71001744;stroke-linecap:butt;stroke-linejoin:miter;stroke-miterlimit:4;stroke-dasharray:none;stroke-opacity:1" />
  <path
     d="M 14.156459,37.188096 C 39.147767,62.179403 46.145334,-4.5473864 60.140465,19.944095 C 74.135598,44.435576 71.136641,85.421319 79.883598,74.425144 C 88.630555,63.428969 88.630555,63.678882 88.630555,63.678882"
     id="path2221"
     style="fill:none;stroke:#ff0000;stroke-width:3.67372227;stroke-linecap:butt;stroke-linejoin:miter;stroke-miterlimit:4;stroke-dasharray:none;stroke-opacity:1" />
  <g
     transform="matrix(1.2245741,0,0,1.2245741,-8.3357161,-18.042693)"
     id="g4198">
    <path
       d="M 13.682935,16.591098 C 13.682935,89.429309 13.682935,87.133391 13.682935,87.133391 C 84.174207,87.133391 84.174207,87.133391 84.174207,87.133391"
       id="path2223"
       style="fill:none;stroke:#000000;stroke-width:3.0189321;stroke-linecap:butt;stroke-linejoin:miter;stroke-miterlimit:4;stroke-dasharray:none;stroke-opacity:1" />
    <path
       d="M 13.656478,87.075694 C 13.656478,91.769571 13.656478,91.565489 13.656478,91.565489"
       id="path2225"
       style="fill:none;stroke:#000000;stroke-width:3;stroke-linecap:butt;stroke-linejoin:miter;stroke-miterlimit:4;stroke-dasharray:none;stroke-opacity:1" />
    <path
       d="M 27.462822,87.075694 C 27.462822,91.769571 27.462822,91.565489 27.462822,91.565489"
       id="path2227"
       style="fill:none;stroke:#000000;stroke-width:3;stroke-linecap:butt;stroke-linejoin:miter;stroke-miterlimit:4;stroke-dasharray:none;stroke-opacity:1" />
    <path
       d="M 41.269169,87.075694 C 41.269169,91.769571 41.269169,91.565489 41.269169,91.565489"
       id="path2229"
       style="fill:none;stroke:#000000;stroke-width:3;stroke-linecap:butt;stroke-linejoin:miter;stroke-miterlimit:4;stroke-dasharray:none;stroke-opacity:1" />
    <path
       d="M 82.688201,87.075694 C 82.688201,91.769571 82.688201,91.565489 82.688201,91.565489"
       id="path2231"
       style="fill:none;stroke:#000000;stroke-width:3;stroke-linecap:butt;stroke-linejoin:miter;stroke-miterlimit:4;stroke-dasharray:none;stroke-opacity:1" />
    <path
       d="M 55.075514,87.075694 C 55.075514,91.769571 55.075514,91.565489 55.075514,91.565489"
       id="path2233"
       style="fill:none;stroke:#000000;stroke-width:3;stroke-linecap:butt;stroke-linejoin:miter;stroke-miterlimit:4;stroke-dasharray:none;stroke-opacity:1" />
    <path
       d="M 68.881861,87.075694 C 68.881861,91.769571 68.881861,91.565489 68.881861,91.565489"
       id="path2235"
       style="fill:none;stroke:#000000;stroke-width:3;stroke-linecap:butt;stroke-linejoin:miter;stroke-miterlimit:4;stroke-dasharray:none;stroke-opacity:1" />
    <g
       transform="matrix(0,1,-1,0,114.43877,-4.5408177)"
       id="g4190">
      <path
         d="M 22.626996,100.81567 C 22.626996,105.50955 22.626996,105.30547 22.626996,105.30547"
         id="path4178"
         style="fill:none;stroke:#000000;stroke-width:3;stroke-linecap:butt;stroke-linejoin:miter;stroke-miterlimit:4;stroke-dasharray:none;stroke-opacity:1" />
      <path
         d="M 36.43334,100.81567 C 36.43334,105.50955 36.43334,105.30547 36.43334,105.30547"
         id="path4180"
         style="fill:none;stroke:#000000;stroke-width:3;stroke-linecap:butt;stroke-linejoin:miter;stroke-miterlimit:4;stroke-dasharray:none;stroke-opacity:1" />
      <path
         d="M 50.239687,100.81567 C 50.239687,105.50955 50.239687,105.30547 50.239687,105.30547"
         id="path4182"
         style="fill:none;stroke:#000000;stroke-width:3;stroke-linecap:butt;stroke-linejoin:miter;stroke-miterlimit:4;stroke-dasharray:none;stroke-opacity:1" />
      <path
         d="M 91.658719,100.81567 C 91.658719,105.50955 91.658719,105.30547 91.658719,105.30547"
         id="path4184"
         style="fill:none;stroke:#000000;stroke-width:3;stroke-linecap:butt;stroke-linejoin:miter;stroke-miterlimit:4;stroke-dasharray:none;stroke-opacity:1" />
      <path
         d="M 64.046032,100.81567 C 64.046032,105.50955 64.046032,105.30547 64.046032,105.30547"
         id="path4186"
         style="fill:none;stroke:#000000;stroke-width:3;stroke-linecap:butt;stroke-linejoin:miter;stroke-miterlimit:4;stroke-dasharray:none;stroke-opacity:1" />
      <path
         d="M 77.852379,100.81567 C 77.852379,105.50955 77.852379,105.30547 77.852379,105.30547"
         id="path4188"
         style="fill:none;stroke:#000000;stroke-width:3;stroke-linecap:butt;stroke-linejoin:miter;stroke-miterlimit:4;stroke-dasharray:none;stroke-opacity:1" />
    </g>
  </g>
  <path
     d="M 68.55911,14.163618 C 72.557719,30.657881 72.557719,30.657881 72.557719,30.657881"
     id="path4241"
     style="fill:none;stroke:#000000;stroke-width:1.22457409px;stroke-linecap:butt;stroke-linejoin:miter;marker-end:url(#Arrow1Lend);stroke-opacity:1" />
  <path
     d="M 77.568014,41.902295 C 78.370229,58.855348 78.370229,58.855348 78.370229,58.855348"
     id="path4441"
     style="fill:none;stroke:#000000;stroke-width:1.22457409px;stroke-linecap:butt;stroke-linejoin:miter;marker-end:url(#Arrow1Lend);stroke-opacity:1" />
</svg>
