<?xml version="1.0" encoding="UTF-8" standalone="no"?>
<!-- Created with Inkscape (http://www.inkscape.org/) -->
<svg
   xmlns:svg="http://www.w3.org/2000/svg"
   xmlns="http://www.w3.org/2000/svg"
   xmlns:xlink="http://www.w3.org/1999/xlink"
   version="1.0"
   width="100"
   height="100"
   id="svg2">
  <defs
     id="defs4">
    <radialGradient
       cx="50.059151"
       cy="48.853989"
       r="42.138134"
       fx="50.059151"
       fy="48.853989"
       id="radialGradient4239"
       xlink:href="#linearGradient3189"
       gradientUnits="userSpaceOnUse"
       gradientTransform="matrix(-1.7093778,0,0,1.91594,141.7618,8.2882328)" />
    <radialGradient
       cx="50.059151"
       cy="48.853989"
       r="42.138134"
       fx="50.059151"
       fy="48.853989"
       id="radialGradient4237"
       xlink:href="#linearGradient3197"
       gradientUnits="userSpaceOnUse"
       gradientTransform="matrix(-1.7093778,0,0,1.91594,141.7618,8.2882328)" />
    <linearGradient
       id="linearGradient3189">
      <stop
         id="stop3191"
         style="stop-color:#000000;stop-opacity:1"
         offset="0" />
      <stop
         id="stop3193"
         style="stop-color:#000000;stop-opacity:0"
         offset="1" />
    </linearGradient>
    <linearGradient
       id="linearGradient3197">
      <stop
         id="stop3199"
         style="stop-color:#e4e1e1;stop-opacity:1"
         offset="0" />
      <stop
         id="stop3201"
         style="stop-color:#e4af00;stop-opacity:1"
         offset="1" />
    </linearGradient>
    <linearGradient
       id="linearGradient3384">
      <stop
         id="stop3386"
         style="stop-color:#00ffff;stop-opacity:1"
         offset="0" />
      <stop
         id="stop3388"
         style="stop-color:#000000;stop-opacity:1"
         offset="1" />
    </linearGradient>
    <linearGradient
       id="linearGradient3252">
      <stop
         id="stop3254"
         style="stop-color:#ffffff;stop-opacity:1"
         offset="0" />
      <stop
         id="stop3256"
         style="stop-color:#7f7fff;stop-opacity:0"
         offset="1" />
    </linearGradient>
    <radialGradient
       cx="50.059151"
       cy="48.853989"
       r="42.138134"
       fx="50.059151"
       fy="48.853989"
       id="radialGradient2631"
       xlink:href="#linearGradient3197"
       gradientUnits="userSpaceOnUse"
       gradientTransform="matrix(0.9573786,0,0,1.0730688,80.465469,10.134207)" />
    <radialGradient
       cx="50.059151"
       cy="48.853989"
       r="42.138134"
       fx="50.059151"
       fy="48.853989"
       id="radialGradient2633"
       xlink:href="#linearGradient3189"
       gradientUnits="userSpaceOnUse"
       gradientTransform="matrix(0.9573786,0,0,1.0730688,80.465469,10.134207)" />
    <radialGradient
       cx="58.01162"
       cy="63.345894"
       r="33.113495"
       fx="58.01162"
       fy="63.345894"
       id="radialGradient3792"
       xlink:href="#linearGradient3252"
       gradientUnits="userSpaceOnUse"
       gradientTransform="matrix(0.2460458,-7.875767e-2,7.875767e-2,0.2460458,11.457373,30.098)" />
    <linearGradient
       x1="25.398125"
       y1="63.345894"
       x2="90.625114"
       y2="63.345894"
       id="linearGradient3795"
       xlink:href="#linearGradient3384"
       gradientUnits="userSpaceOnUse"
       gradientTransform="matrix(0.409194,0.210753,-0.210753,0.409194,27.377034,6.6880597)" />
  </defs>
  <g
     transform="matrix(1.0996993,0,0,1.0996993,195.1479,56.646116)"
     id="g3840"
     style="fill:#808080;fill-opacity:1">
    <path
       d="M -126.00971,-11.530369 C -123.70989,-4.3498556 -127.66725,3.3353344 -134.84817,5.6338994 C -142.02908,7.9324624 -149.71358,3.9737544 -152.01089,-3.2075626 C -154.31071,-10.388077 -150.35335,-18.073267 -143.17243,-20.371831 C -135.99151,-22.670395 -128.30702,-18.711688 -126.00971,-11.530369 L -126.00971,-11.530369 L -126.00971,-11.530369 z"
       id="path3798"
       style="fill:#808080;fill-opacity:1;fill-rule:evenodd;stroke:none" />
    <path
       d="M -139.05373,-38.026387 L -140.08301,-45.486573 L -119.9708,-34.647679 L -140.08301,-23.808786 L -139.05373,-31.052735 C -151.7642,-31.052735 -162.083,-20.73393 -162.083,-8.0234656 C -162.083,4.6870005 -151.7642,15.005802 -139.05373,15.005804 C -126.34326,15.005804 -116.02446,4.6870021 -116.02446,-8.0234656 C -116.02446,-14.378697 -118.61337,-20.126811 -122.78187,-24.29532 L -117.83545,-29.241748 C -112.93543,-25.032389 -109.05081,-16.303718 -109.05081,-8.0234656 C -109.05081,8.5370368 -122.49323,21.979456 -139.05373,21.979456 C -155.61423,21.979456 -169.05665,8.5370383 -169.05665,-8.0234656 C -169.05665,-24.583971 -155.61423,-38.026387 -139.05373,-38.026387 L -139.05373,-38.026387 z"
       id="path3806"
       style="fill:#808080;fill-opacity:1;fill-rule:evenodd;stroke:none" />
    <path
       d="M -111.21617,26.865627 L -118.38543,36.329797 L -128.72346,1.8250827 L -94.218744,12.163113 L -103.44185,19.091307 C -102.55624,19.976916 -91.476917,31.231666 -90.526579,32.006577 L -98.300899,39.780897 L -111.21617,26.865627 L -111.21617,26.865627 z"
       id="path3812"
       style="fill:#808080;fill-opacity:1;fill-rule:evenodd;stroke:none" />
  </g>
  <path
     d="M 51.9302,40.359234 C 54.459312,48.255639 50.107405,56.707037 42.210556,59.234767 C 34.313709,61.762495 25.863072,57.409107 23.336725,49.511818 C 20.807613,41.615411 25.159522,33.164013 33.056369,30.636284 C 40.953219,28.108555 49.403853,32.461942 51.9302,40.359234 L 51.9302,40.359234 z"
     id="path3560"
     style="fill:#0000ff;fill-opacity:1;fill-rule:evenodd;stroke:#000000;stroke-width:1.09969926;stroke-linecap:butt;stroke-linejoin:miter;stroke-miterlimit:4;stroke-dasharray:none;stroke-opacity:1" />
  <path
     d="M 51.109949,51.708337 C 47.314698,59.08029 38.261394,61.979068 30.890107,58.182528 C 23.518815,54.385987 20.621625,45.332176 24.419456,37.961553 C 28.214705,30.589598 37.268008,27.690821 44.639298,31.48736 C 52.010586,35.2839 54.907778,44.337714 51.109949,51.708337 L 51.109949,51.708337 L 51.109949,51.708337 z"
     id="path3562"
     style="opacity:0.71739131;fill:url(#linearGradient3795);fill-opacity:1;fill-rule:evenodd;stroke:none" />
  <path
     d="M 38.744278,38.546571 C 40.163807,42.97863 37.721188,47.722198 33.288876,49.140952 C 28.856567,50.559706 24.113427,48.116252 22.695451,43.683695 C 21.27592,39.251632 23.718543,34.508067 28.150852,33.089314 C 32.583163,31.67056 37.3263,34.114011 38.744278,38.546571 L 38.744278,38.546571 z"
     id="path3564"
     style="fill:url(#radialGradient3792);fill-opacity:1;fill-rule:evenodd;stroke:none" />
  <g
     transform="matrix(0.841437,0,0,0.841437,-70.44726,-12.524741)"
     id="g2627">
    <path
       d="M 128.39103,28.221152 L 127.04583,18.471211 L 153.33109,32.636887 L 127.04583,46.802562 L 128.39103,37.335227 C 111.77934,37.335227 98.293388,50.821183 98.293388,67.432871 C 98.293388,84.044561 111.77934,97.530513 128.39103,97.530515 C 145.00272,97.530515 158.48868,84.044563 158.48867,67.432871 C 158.48867,59.127028 155.10515,51.614645 149.65721,46.166696 L 156.12184,39.70206 C 162.52582,45.203398 167.60275,56.611161 167.60275,67.432871 C 167.60275,89.076289 150.03445,106.64459 128.39103,106.64459 C 106.74762,106.64459 89.179312,89.076291 89.179312,67.432871 C 89.179312,45.789449 106.74761,28.221152 128.39103,28.221152 L 128.39103,28.221152 z"
       id="path3205"
       style="fill:none;stroke:#000000;stroke-width:5;stroke-linecap:round;stroke-linejoin:round;stroke-miterlimit:4;stroke-dasharray:none;stroke-dashoffset:0;stroke-opacity:1" />
    <path
       d="M 128.39103,28.221152 L 127.04583,18.471211 L 153.33109,32.636887 L 127.04583,46.802562 L 128.39103,37.335228 C 111.77934,37.335228 98.293386,50.821183 98.293386,67.432871 C 98.293386,84.044561 111.77934,97.530513 128.39103,97.530515 C 145.00272,97.530515 158.48868,84.044563 158.48867,67.432871 C 158.48867,59.127028 155.10515,51.614645 149.6572,46.166696 L 156.12184,39.702061 C 162.52583,45.203398 167.60275,56.611161 167.60275,67.432871 C 167.60275,89.076289 150.03445,106.64459 128.39103,106.64459 C 106.74761,106.64459 89.179311,89.076291 89.179311,67.432871 C 89.179311,45.789449 106.74761,28.221152 128.39103,28.221152 L 128.39103,28.221152 z"
       id="path3176"
       style="fill:url(#radialGradient2631);fill-opacity:1;fill-rule:evenodd;stroke:url(#radialGradient2633);stroke-width:2.26085615;stroke-linecap:round;stroke-linejoin:round;stroke-miterlimit:4;stroke-dashoffset:0;stroke-opacity:1" />
  </g>
  <g
     transform="matrix(0.525375,0.525375,0.525375,-0.525375,17.356085,74.38232)"
     id="g4217">
    <path
       d="M 56.191798,40.582064 L 58.593618,23.173764 L 11.661868,48.466259 L 58.593618,73.75875 L 56.191798,56.85504 C 58.045528,56.85504 81.420038,56.67144 83.225658,56.85504 L 83.225658,40.582064 L 56.191798,40.582064 z"
       id="path3242"
       style="fill:none;stroke:#000000;stroke-width:5.63700008;stroke-linecap:round;stroke-linejoin:round;stroke-miterlimit:4;stroke-dasharray:none;stroke-dashoffset:0;stroke-opacity:1" />
    <path
       d="M 56.191794,40.582064 L 58.593619,23.173764 L 11.661867,48.466259 L 58.593619,73.75875 L 56.191794,56.85504 C 58.045532,56.85504 81.420037,56.67144 83.225659,56.85504 L 83.225659,40.582064 L 56.191794,40.582064 z"
       id="path2820"
       style="fill:url(#radialGradient4237);fill-opacity:1;fill-rule:evenodd;stroke:url(#radialGradient4239);stroke-width:4.0367074;stroke-linecap:round;stroke-linejoin:round;stroke-miterlimit:4;stroke-dashoffset:0;stroke-opacity:1" />
  </g>
</svg>
