<?xml version="1.0" encoding="UTF-8" standalone="no"?>
<!-- Created with Inkscape (http://www.inkscape.org/) -->
<svg
   xmlns:svg="http://www.w3.org/2000/svg"
   xmlns="http://www.w3.org/2000/svg"
   xmlns:xlink="http://www.w3.org/1999/xlink"
   version="1.0"
   width="100"
   height="100"
   id="svg2">
  <defs
     id="defs4">
    <linearGradient
       id="linearGradient3461">
      <stop
         id="stop3463"
         style="stop-color:#ffffff;stop-opacity:1"
         offset="0" />
      <stop
         id="stop3465"
         style="stop-color:#008a00;stop-opacity:0"
         offset="1" />
    </linearGradient>
    <linearGradient
       id="linearGradient3449">
      <stop
         id="stop3451"
         style="stop-color:#00db00;stop-opacity:1"
         offset="0" />
      <stop
         id="stop3453"
         style="stop-color:#009d00;stop-opacity:0"
         offset="1" />
    </linearGradient>
    <linearGradient
       x1="8.6629601"
       y1="60.74017"
       x2="30.595095"
       y2="60.74017"
       id="linearGradient5848"
       xlink:href="#linearGradient3449"
       gradientUnits="userSpaceOnUse"
       gradientTransform="matrix(0.6042521,0,0,0.6042521,66.09726,-6.4718239)" />
    <radialGradient
       cx="15.556526"
       cy="56.583721"
       r="6.1542277"
       fx="15.556526"
       fy="56.583721"
       id="radialGradient5850"
       xlink:href="#linearGradient3461"
       gradientUnits="userSpaceOnUse"
       gradientTransform="matrix(0.6042521,0,0,0.6043579,66.09726,-6.4778099)" />
    <linearGradient
       x1="8.6629601"
       y1="60.74017"
       x2="30.595095"
       y2="60.74017"
       id="linearGradient5852"
       xlink:href="#linearGradient3449"
       gradientUnits="userSpaceOnUse"
       gradientTransform="matrix(0.6042521,0,0,0.6042521,66.09726,15.364911)" />
    <radialGradient
       cx="15.556526"
       cy="56.583721"
       r="6.1542277"
       fx="15.556526"
       fy="56.583721"
       id="radialGradient5854"
       xlink:href="#linearGradient3461"
       gradientUnits="userSpaceOnUse"
       gradientTransform="matrix(0.6042521,0,0,0.6043579,66.09726,15.358925)" />
    <linearGradient
       x1="8.6629601"
       y1="60.74017"
       x2="30.595095"
       y2="60.74017"
       id="linearGradient5856"
       xlink:href="#linearGradient3449"
       gradientUnits="userSpaceOnUse"
       gradientTransform="matrix(0.6042521,0,0,0.6042521,66.46249,37.173195)" />
    <radialGradient
       cx="15.556526"
       cy="56.583721"
       r="6.1542277"
       fx="15.556526"
       fy="56.583721"
       id="radialGradient5858"
       xlink:href="#linearGradient3461"
       gradientUnits="userSpaceOnUse"
       gradientTransform="matrix(0.6042521,0,0,0.6043579,66.46249,37.167209)" />
  </defs>
  <g
     transform="matrix(1.1741541,0,0,1.1741541,-1.7824348,-1.1904094)"
     id="g5816">
    <path
       d="M 85.999934,32.492688 C 86.000574,36.152276 83.034074,39.119297 79.374484,39.119297 C 75.714894,39.119297 72.748394,36.152276 72.749034,32.492688 C 72.748394,28.833101 75.714894,25.866079 79.374484,25.866079 C 83.034074,25.866079 86.000574,28.833101 85.999934,32.492688 L 85.999934,32.492688 z"
       id="path3576"
       style="fill:#e1e7e1;fill-opacity:1;fill-rule:evenodd;stroke:none" />
    <path
       d="M 85.999934,54.329423 C 86.000574,57.989011 83.034074,60.956032 79.374484,60.956032 C 75.714894,60.956032 72.748394,57.989011 72.749034,54.329423 C 72.748394,50.669836 75.714894,47.702814 79.374484,47.702814 C 83.034074,47.702814 86.000574,50.669836 85.999934,54.329423 L 85.999934,54.329423 z"
       id="path5714"
       style="fill:#e1e7e1;fill-opacity:1;fill-rule:evenodd;stroke:none" />
    <path
       d="M 86.365164,76.137707 C 86.365804,79.797295 83.399304,82.764316 79.739714,82.764316 C 76.080124,82.764316 73.113624,79.797295 73.114264,76.137707 C 73.113624,72.47812 76.080124,69.511098 79.739714,69.511098 C 83.399304,69.511098 86.365804,72.47812 86.365164,76.137707 L 86.365164,76.137707 z"
       id="path5730"
       style="fill:#e1e7e1;fill-opacity:1;fill-rule:evenodd;stroke:none" />
    <path
       d="M 62.564545,72.8954 C 59.83028,73.639675 55.250981,72.91171 56.307353,77.451019 C 56.705981,79.803013 64.977466,80.299928 59.364064,81.171962 C 53.714099,80.89205 54.674451,70.711122 60.444905,72.055708 C 61.19753,72.209806 61.922986,72.468877 62.564545,72.8954 L 62.564545,72.8954 z M 64.246178,78.379775 C 62.844407,76.091729 66.211886,73.362892 65.035795,77.193458 C 65.028695,81.368299 70.539037,79.09329 68.80753,75.672995 C 70.071624,73.618124 71.044942,82.231348 67.813035,80.523586 C 66.456275,82.286645 63.775552,80.19715 64.246178,78.379775 L 64.246178,78.379775 z"
       id="path3600"
       style="font-size:12px;font-style:normal;font-weight:normal;fill:#000000;fill-opacity:1;stroke:#e5e5e3;stroke-width:1.5;stroke-linecap:butt;stroke-linejoin:miter;stroke-miterlimit:4;stroke-dasharray:none;stroke-opacity:1;font-family:Bitstream Vera Sans" />
    <path
       d="M 8.5464472,12.241996 C 10.988585,12.609049 10.705227,18.416768 8.9889542,14.275351 C 7.6159462,10.401866 4.4083341,15.185751 5.1378725,15.716073 C 3.1870818,13.426979 3.7876879,5.7722359 8.0303562,7.7381349 C 10.282616,8.4662069 11.211702,11.207976 8.5464472,12.241996 z M 5.5816038,8.5681679 C 2.9342244,12.571977 11.825078,11.619184 7.5331352,8.6593079 C 6.9251422,8.3886659 6.2114392,8.3374239 5.5816038,8.5681679 z M 14.698791,10.536918 C 9.4599832,10.925642 16.467179,18.713728 16.567932,13.068168 C 16.649672,11.981455 15.981517,10.453019 14.698791,10.536918 z M 14.698791,9.6228569 C 22.146231,10.13654 13.181193,21.669676 11.682472,13.626418 C 11.432944,11.809807 12.548601,9.3904209 14.698791,9.6228569 z M 22.034729,10.536918 C 16.79592,10.925642 23.803117,18.713729 23.903869,13.068168 C 23.985609,11.981456 23.317456,10.453018 22.034729,10.536918 z M 22.034729,9.6228569 C 29.482169,10.13654 20.517132,21.669676 19.018409,13.626418 C 18.768881,11.809807 19.884541,9.3904219 22.034729,9.6228569 z M 27.894104,7.9177769 C 27.443851,9.8900869 31.314061,10.474359 27.852564,11.305392 C 26.640802,13.022366 31.168233,17.888861 27.331062,15.414478 C 26.751025,13.353987 25.365052,8.9317089 27.8941,7.9177769 L 27.894104,7.9177769 z"
       id="path3584"
       style="font-size:12px;font-style:normal;font-weight:normal;fill:none;stroke:#e5e5e3;stroke-width:1.5;stroke-linecap:butt;stroke-linejoin:miter;stroke-miterlimit:4;stroke-dasharray:none;stroke-opacity:1;font-family:Bitstream Vera Sans" />
    <path
       d="M 13.85672,33.979055 C 38.497289,33.979055 38.497289,33.701898 38.497289,33.701898"
       id="path3588"
       style="fill:none;stroke:#e5e5e3;stroke-width:3.01204705;stroke-linecap:butt;stroke-linejoin:miter;stroke-miterlimit:4;stroke-dasharray:none;stroke-opacity:1" />
    <path
       d="M 44.404544,36.619742 C 50.272218,36.344981 42.188246,27.893464 46.972041,29.248119 C 48.368303,31.447299 47.104836,36.783798 48.411712,37.474587 C 47.157476,37.684905 44.838414,38.425219 44.404544,36.619742 z"
       id="path3590"
       style="font-size:12px;font-style:normal;font-weight:normal;fill:#000000;fill-opacity:1;stroke:#e5e5e3;stroke-width:1.5;stroke-linecap:butt;stroke-linejoin:miter;stroke-miterlimit:4;stroke-dasharray:none;stroke-opacity:1;font-family:Bitstream Vera Sans" />
    <path
       d="M 45.658443,57.648558 C 48.262251,56.516657 50.621117,59.288749 46.700398,58.890535 C 42.110991,58.103421 47.276796,54.934915 48.310622,53.495142 C 48.589263,51.117365 42.305211,50.171625 46.842663,49.604109 C 51.425326,50.733119 49.465337,56.006881 46.059231,57.198334 L 45.658443,57.648558 L 45.658443,57.648558 L 45.658443,57.648558 z"
       id="path3592"
       style="font-size:12px;font-style:normal;font-weight:normal;fill:#000000;fill-opacity:1;stroke:#e5e5e3;stroke-width:1.5;stroke-linecap:butt;stroke-linejoin:miter;stroke-miterlimit:4;stroke-dasharray:none;stroke-opacity:1;font-family:Bitstream Vera Sans" />
    <path
       d="M 48.189704,76.252822 C 53.49663,77.476037 45.491752,83.793067 45.012738,80.144063 C 49.317567,81.606939 47.652751,75.230578 46.443875,76.099204 C 49.99715,75.279273 47.01926,72.62034 45.23085,72.399741 C 47.596009,71.516755 52.914292,74.244454 48.189704,76.252822 z"
       id="path3594"
       style="font-size:12px;font-style:normal;font-weight:normal;fill:#000000;fill-opacity:1;stroke:#e5e5e3;stroke-width:1.5;stroke-linecap:butt;stroke-linejoin:miter;stroke-miterlimit:4;stroke-dasharray:none;stroke-opacity:1;font-family:Bitstream Vera Sans" />
    <path
       d="M 55.50985,28.867789 C 56.338005,31.041101 59.727174,35.358528 60.914877,31.054102 C 62.336845,26.519456 62.715344,35.507432 61.799643,36.983619 C 61.888023,34.992243 58.889514,31.528632 56.658116,34.278306 C 57.096227,36.222112 55.442432,38.673073 55.454268,35.109318 C 55.378308,33.027368 55.566307,30.950927 55.509848,28.867789 L 55.50985,28.867789 z"
       id="path3596"
       style="font-size:12px;font-style:normal;font-weight:normal;fill:#000000;fill-opacity:1;stroke:#e5e5e3;stroke-width:1.5;stroke-linecap:butt;stroke-linejoin:miter;stroke-miterlimit:4;stroke-dasharray:none;stroke-opacity:1;font-family:Bitstream Vera Sans" />
    <path
       d="M 62.56453,50.400515 C 59.830269,51.144792 55.250984,50.416825 56.307349,54.956131 C 56.705974,57.308126 64.977452,57.805047 59.364054,58.677079 C 53.714096,58.397162 54.674452,48.216248 60.444897,49.560823 C 61.197521,49.714917 61.922972,49.973996 62.56453,50.400515 z"
       id="path3598"
       style="font-size:12px;font-style:normal;font-weight:normal;fill:#000000;fill-opacity:1;stroke:#e5e5e3;stroke-width:1.5;stroke-linecap:butt;stroke-linejoin:miter;stroke-miterlimit:4;stroke-dasharray:none;stroke-opacity:1;font-family:Bitstream Vera Sans" />
    <path
       d="M 84.514889,30.255171 C 84.515554,33.914759 81.549029,36.88178 77.88944,36.88178 C 74.229853,36.88178 71.263351,33.914759 71.263992,30.255171 C 71.263351,26.595584 74.229853,23.628562 77.88944,23.628562 C 81.549029,23.628562 84.51553,26.595584 84.514889,30.255171 L 84.514889,30.255171 L 84.514889,30.255171 z"
       id="path3670"
       style="fill:#008a00;fill-opacity:1;fill-rule:evenodd;stroke:#000000;stroke-width:0.20315053px;stroke-linecap:butt;stroke-linejoin:miter;stroke-opacity:1" />
    <path
       d="M 82.64304,34.91545 C 80.055775,37.503622 75.86014,37.503989 73.272421,34.916296 C 70.684702,32.328577 70.68507,28.132942 73.273267,25.545676 C 75.860533,22.957504 80.056168,22.957136 82.643886,25.54483 C 85.231605,28.13255 85.231238,32.328185 82.64304,34.91545 L 82.64304,34.91545 z"
       id="path3672"
       style="opacity:0.71739131;fill:url(#linearGradient5848);fill-opacity:1;fill-rule:evenodd;stroke:none" />
    <path
       d="M 79.216028,27.719009 C 79.216388,29.773047 77.551361,31.438365 75.497323,31.438365 C 73.443285,31.438365 71.778259,29.773047 71.778618,27.719009 C 71.778259,25.664971 73.443285,23.999653 75.497323,23.999653 C 77.551361,23.999653 79.216388,25.664971 79.216028,27.719009 L 79.216028,27.719009 z"
       id="path3674"
       style="fill:url(#radialGradient5850);fill-opacity:1;fill-rule:evenodd;stroke:none" />
    <path
       d="M 84.514889,52.091906 C 84.515554,55.751494 81.549029,58.718515 77.88944,58.718515 C 74.229853,58.718515 71.263351,55.751494 71.263992,52.091906 C 71.263351,48.432319 74.229853,45.465297 77.88944,45.465297 C 81.549029,45.465297 84.51553,48.432319 84.514889,52.091906 L 84.514889,52.091906 z"
       id="path5718"
       style="fill:#008a00;fill-opacity:1;fill-rule:evenodd;stroke:#000000;stroke-width:0.20315053px;stroke-linecap:butt;stroke-linejoin:miter;stroke-opacity:1" />
    <path
       d="M 82.64304,56.752185 C 80.055775,59.340357 75.86014,59.340724 73.272421,56.75303 C 70.684702,54.165312 70.68507,49.969677 73.273267,47.382411 C 75.860533,44.794239 80.056168,44.793871 82.643886,47.381565 C 85.231605,49.969285 85.231238,54.16492 82.64304,56.752185 L 82.64304,56.752185 z"
       id="path5720"
       style="opacity:0.71739131;fill:url(#linearGradient5852);fill-opacity:1;fill-rule:evenodd;stroke:none" />
    <path
       d="M 79.216028,49.555744 C 79.216388,51.609782 77.551361,53.2751 75.497323,53.2751 C 73.443285,53.2751 71.778259,51.609782 71.778618,49.555744 C 71.778259,47.501705 73.443285,45.836388 75.497323,45.836388 C 77.551361,45.836388 79.216388,47.501705 79.216028,49.555744 L 79.216028,49.555744 z"
       id="path5722"
       style="fill:url(#radialGradient5854);fill-opacity:1;fill-rule:evenodd;stroke:none" />
    <path
       d="M 84.880119,73.90019 C 84.880784,77.559778 81.914259,80.526799 78.25467,80.526799 C 74.595083,80.526799 71.628581,77.559778 71.629222,73.90019 C 71.628581,70.240603 74.595083,67.273581 78.25467,67.273581 C 81.914259,67.273581 84.88076,70.240603 84.880119,73.90019 L 84.880119,73.90019 z"
       id="path5734"
       style="fill:#008a00;fill-opacity:1;fill-rule:evenodd;stroke:#000000;stroke-width:0.20315053px;stroke-linecap:butt;stroke-linejoin:miter;stroke-opacity:1" />
    <path
       d="M 83.00827,78.560469 C 80.421005,81.148641 76.22537,81.149008 73.637651,78.561314 C 71.049932,75.973596 71.0503,71.777961 73.638497,69.190695 C 76.225763,66.602523 80.421398,66.602155 83.009116,69.189849 C 85.596835,71.777569 85.596468,75.973204 83.00827,78.560469 L 83.00827,78.560469 z"
       id="path5736"
       style="opacity:0.71739131;fill:url(#linearGradient5856);fill-opacity:1;fill-rule:evenodd;stroke:none" />
    <path
       d="M 79.581258,71.364028 C 79.581618,73.418066 77.916591,75.083384 75.862553,75.083384 C 73.808515,75.083384 72.143489,73.418066 72.143848,71.364028 C 72.143489,69.309989 73.808515,67.644672 75.862553,67.644672 C 77.916591,67.644672 79.581618,69.309989 79.581258,71.364028 L 79.581258,71.364028 z"
       id="path5738"
       style="fill:url(#radialGradient5858);fill-opacity:1;fill-rule:evenodd;stroke:none" />
    <path
       d="M 15.366895,20.010383 C 15.366895,34.470644 15.366895,34.470644 15.366895,34.470644"
       id="path3586"
       style="fill:none;stroke:#e5e5e3;stroke-width:3;stroke-linecap:butt;stroke-linejoin:miter;stroke-miterlimit:4;stroke-dasharray:none;stroke-opacity:1" />
    <path
       d="M 7.0614033,10.004483 C 9.5035413,10.371538 9.2201829,16.179256 7.5039096,12.037838 C 6.1309021,8.1643536 2.9232901,12.948237 3.6528281,13.47856 C 1.7020377,11.189466 2.3026432,3.5347225 6.5453115,5.5006219 C 8.7975715,6.2286936 9.7266589,8.9704608 7.0614033,10.004483 z M 4.0965595,6.3306551 C 1.4491797,10.334465 10.340034,9.3816718 6.0480918,6.4217939 C 5.4400986,6.1511518 4.7263956,6.0999081 4.0965595,6.3306551 z M 13.213747,8.2994051 C 7.9749387,8.6881301 14.982136,16.476215 15.082888,10.830655 C 15.164628,9.7439425 14.496475,8.2155037 13.213747,8.2994051 L 13.213747,8.2994051 z M 13.213747,7.3853426 C 20.661187,7.8990266 11.696151,19.432163 10.197427,11.388905 C 9.9478994,9.5722936 11.063558,7.1529096 13.213747,7.3853426 L 13.213747,7.3853426 z M 20.549685,8.2994051 C 15.310876,8.6881297 22.318074,16.476215 22.418825,10.830655 C 22.500565,9.7439436 21.832413,8.2155022 20.549685,8.2994051 z M 20.549685,7.3853426 C 27.997124,7.8990264 19.032089,19.432163 17.533365,11.388905 C 17.283837,9.5722931 18.399497,7.1529091 20.549685,7.3853426 L 20.549685,7.3853426 z M 26.40906,5.6802645 C 25.958805,7.652575 29.829018,8.2368458 26.36753,9.0678795 C 25.155768,10.784853 29.683198,15.651349 25.846026,13.176965 C 25.265988,11.116474 23.880018,6.6941969 26.409065,5.6802645 L 26.40906,5.6802645 z"
       id="text3478"
       style="font-size:12px;font-style:normal;font-weight:normal;fill:none;stroke:#000000;stroke-width:1.5;stroke-linecap:butt;stroke-linejoin:miter;stroke-miterlimit:4;stroke-dasharray:none;stroke-opacity:1;font-family:Bitstream Vera Sans" />
    <path
       d="M 13.881851,16.9981 C 13.881851,31.458361 13.881851,31.458361 13.881851,31.458361"
       id="path3482"
       style="fill:none;stroke:#000000;stroke-width:3;stroke-linecap:butt;stroke-linejoin:miter;stroke-miterlimit:4;stroke-dasharray:none;stroke-opacity:1" />
    <path
       d="M 12.371676,31.741542 C 37.012245,31.741542 37.012245,31.464385 37.012245,31.464385"
       id="path3488"
       style="fill:none;stroke:#000000;stroke-width:3.01204705;stroke-linecap:butt;stroke-linejoin:miter;stroke-miterlimit:4;stroke-dasharray:none;stroke-opacity:1" />
    <path
       d="M 42.919498,34.382229 C 48.787179,34.107472 40.703203,25.65595 45.486996,27.010606 C 46.883255,29.209788 45.619792,34.546296 46.926673,35.237075 C 45.672434,35.447393 43.353372,36.187706 42.919498,34.382229 L 42.919498,34.382229 z"
       id="text3494"
       style="font-size:12px;font-style:normal;font-weight:normal;fill:#000000;fill-opacity:1;stroke:#000000;stroke-width:1.5;stroke-linecap:butt;stroke-linejoin:miter;stroke-miterlimit:4;stroke-dasharray:none;stroke-opacity:1;font-family:Bitstream Vera Sans" />
    <path
       d="M 44.173405,55.411045 C 46.777213,54.279141 49.13608,57.051238 45.21536,56.653022 C 40.625948,55.865913 45.791746,52.697404 46.825578,51.257632 C 47.104223,48.879854 40.820171,47.934109 45.357621,47.366596 C 49.940287,48.495607 47.980291,53.769361 44.574192,54.96082 L 44.173405,55.411045 L 44.173405,55.411045 L 44.173405,55.411045 z"
       id="text3498"
       style="font-size:12px;font-style:normal;font-weight:normal;fill:#000000;fill-opacity:1;stroke:#000000;stroke-width:1.5;stroke-linecap:butt;stroke-linejoin:miter;stroke-miterlimit:4;stroke-dasharray:none;stroke-opacity:1;font-family:Bitstream Vera Sans" />
    <path
       d="M 46.704659,74.015305 C 52.011594,75.238517 44.006703,81.55556 43.527694,77.906547 C 47.832528,79.369421 46.167695,72.993059 44.958828,73.861686 C 48.512109,73.041763 45.53422,70.382825 43.745805,70.162227 C 46.11096,69.279245 51.429257,72.006943 46.704659,74.015305 z"
       id="text3502"
       style="font-size:12px;font-style:normal;font-weight:normal;fill:#000000;fill-opacity:1;stroke:#000000;stroke-width:1.5;stroke-linecap:butt;stroke-linejoin:miter;stroke-miterlimit:4;stroke-dasharray:none;stroke-opacity:1;font-family:Bitstream Vera Sans" />
    <path
       d="M 54.024808,26.630276 C 54.852962,28.803589 58.242133,33.121014 59.429833,28.816587 C 60.851805,24.281944 61.230302,33.269918 60.314601,34.746106 C 60.402981,32.75473 57.404471,29.291119 55.173072,32.040793 C 55.611183,33.984599 53.957389,36.435558 53.969226,32.871804 C 53.893266,30.789854 54.081266,28.713414 54.024806,26.630276 L 54.024808,26.630276 z"
       id="text3519"
       style="font-size:12px;font-style:normal;font-weight:normal;fill:#000000;fill-opacity:1;stroke:#000000;stroke-width:1.5;stroke-linecap:butt;stroke-linejoin:miter;stroke-miterlimit:4;stroke-dasharray:none;stroke-opacity:1;font-family:Bitstream Vera Sans" />
    <path
       d="M 61.079492,48.162998 C 58.345232,48.907283 53.765938,48.179308 54.822308,52.718619 C 55.220935,55.070614 63.492415,55.567532 57.879013,56.439564 C 52.229049,56.159651 53.189408,45.978727 58.959858,47.323309 C 59.712481,47.477405 60.437932,47.736483 61.079492,48.162998 L 61.079492,48.162998 z"
       id="text3523"
       style="font-size:12px;font-style:normal;font-weight:normal;fill:#000000;fill-opacity:1;stroke:#000000;stroke-width:1.5;stroke-linecap:butt;stroke-linejoin:miter;stroke-miterlimit:4;stroke-dasharray:none;stroke-opacity:1;font-family:Bitstream Vera Sans" />
    <path
       d="M 61.079499,70.657883 C 58.345237,71.402165 53.765938,70.674193 54.822309,75.213506 C 55.220936,77.565503 63.492421,78.062415 57.879016,78.934448 C 52.229054,78.654537 53.189407,68.473608 58.959859,69.818193 C 59.712483,69.972291 60.437939,70.231362 61.079499,70.657883 z M 62.761132,76.142258 C 61.359361,73.854212 64.72684,71.125375 63.550749,74.955941 C 63.543649,79.130785 69.053989,76.855778 67.322484,73.435479 C 68.586592,71.380593 69.559907,79.993834 66.327992,78.286073 C 64.971232,80.049144 62.290511,77.959631 62.761132,76.142258 L 62.761132,76.142258 z"
       id="text3527"
       style="font-size:12px;font-style:normal;font-weight:normal;fill:#000000;fill-opacity:1;stroke:#000000;stroke-width:1.5;stroke-linecap:butt;stroke-linejoin:miter;stroke-miterlimit:4;stroke-dasharray:none;stroke-opacity:1;font-family:Bitstream Vera Sans" />
  </g>
</svg>
