<?xml version="1.0" encoding="UTF-8" standalone="no"?>
<!-- Created with Inkscape (http://www.inkscape.org/) -->

<svg
   xmlns:dc="http://purl.org/dc/elements/1.1/"
   xmlns:cc="http://creativecommons.org/ns#"
   xmlns:rdf="http://www.w3.org/1999/02/22-rdf-syntax-ns#"
   xmlns:svg="http://www.w3.org/2000/svg"
   xmlns="http://www.w3.org/2000/svg"
   xmlns:xlink="http://www.w3.org/1999/xlink"
   xmlns:inkscape="http://www.inkscape.org/namespaces/inkscape"
   version="1.0"
   width="100"
   height="100"
   id="svg2">
  <metadata
     id="metadata2566">
    <rdf:RDF>
      <cc:Work
         rdf:about="">
        <dc:format>image/svg+xml</dc:format>
        <dc:type
           rdf:resource="http://purl.org/dc/dcmitype/StillImage" />
      </cc:Work>
    </rdf:RDF>
  </metadata>
  <defs
     id="defs4">
    <linearGradient
       id="linearGradient3189">
      <stop
         id="stop2575"
         style="stop-color:#000000;stop-opacity:1"
         offset="0" />
      <stop
         id="stop3193"
         style="stop-color:#000000;stop-opacity:0"
         offset="1" />
    </linearGradient>
    <radialGradient
       cx="50.059151"
       cy="48.853989"
       r="42.138134"
       fx="50.059151"
       fy="48.853989"
       id="radialGradient2567"
       xlink:href="#linearGradient3189"
       gradientUnits="userSpaceOnUse"
       gradientTransform="matrix(0,-1.809554,2.0282216,0,8.9085149,148.80229)" />
    <linearGradient
       id="linearGradient3197">
      <stop
         id="stop3199"
         style="stop-color:#e4e1e1;stop-opacity:1"
         offset="0" />
      <stop
         id="stop3201"
         style="stop-color:#e4af00;stop-opacity:1"
         offset="1" />
    </linearGradient>
    <radialGradient
       cx="50.059151"
       cy="48.853989"
       r="42.138134"
       fx="50.059151"
       fy="48.853989"
       id="radialGradient2565"
       xlink:href="#linearGradient3197"
       gradientUnits="userSpaceOnUse"
       gradientTransform="matrix(0,-1.809554,2.0282216,0,8.9085149,148.80229)" />
  </defs>
  <path
     d="m 80.950673,75.095454 0,21.219443 -73.6049566,0 73.6049566,-21.219443 z"
     inkscape:connector-curvature="0"
     id="rect3339"
     style="fill:#ffffff;fill-opacity:1;fill-rule:evenodd;stroke:none" />
  <g
     transform="matrix(0.63181651,0,0,0.63181651,-11.673187,-4.8229921)"
     id="g2557">
    <path
       d="M 43.094891,58.217554 24.666396,60.76013 51.44113,11.077996 78.21586,60.76013 60.321526,58.217554 c 0,1.962365 -0.194359,102.333876 0,104.245316 l -17.226635,0 0,-104.245316 z"
       inkscape:connector-curvature="0"
       id="path3242"
       style="fill:none;stroke:#000000;stroke-width:5.96735048;stroke-linecap:round;stroke-linejoin:round;stroke-miterlimit:4;stroke-opacity:1;stroke-dasharray:none;stroke-dashoffset:0" />
    <path
       d="M 43.094891,58.217549 24.666396,60.760131 51.44113,11.077995 78.21586,60.760131 60.321526,58.217549 c 0,1.962375 -0.194359,102.478481 0,104.389921 l -17.226635,0 0,-104.389921 z"
       inkscape:connector-curvature="0"
       id="path3176"
       style="fill:url(#radialGradient2565);fill-opacity:1;fill-rule:evenodd;stroke:url(#radialGradient2567);stroke-width:4.27327442;stroke-linecap:round;stroke-linejoin:round;stroke-miterlimit:4;stroke-opacity:1;stroke-dashoffset:0" />
  </g>
  <path
     d="m 57.87253,76.829215 -5.51719,0 0,-35.984331 c -2.574703,2.554287 -6.252826,3.831411 -11.034378,3.831379 l 0,-5.149376 c 5.823688,3.9e-5 10.002443,-2.104666 12.536282,-6.314118 l 4.015286,0 0,43.616446 m 7.283878,-6.773881 c 1.021692,9e-6 1.890137,0.347384 2.605342,1.042137 0.715177,0.694763 1.072773,1.563208 1.072785,2.605341 -1.2e-5,1.021702 -0.357608,1.879928 -1.072785,2.574688 -0.715205,0.694756 -1.58365,1.042132 -2.605342,1.042132 -1.042143,0 -1.910589,-0.347376 -2.605341,-1.042132 -0.69476,-0.69476 -1.042139,-1.552986 -1.042132,-2.574688 -7e-6,-1.042133 0.347372,-1.910578 1.042132,-2.605341 0.694752,-0.694753 1.563198,-1.042128 2.605341,-1.042137 m 32.817279,-15.14162 c -3.1e-5,7.764947 -1.215853,13.506904 -3.647473,17.225892 -2.411242,3.698563 -6.028062,5.537622 -10.850472,5.51719 -4.863315,0 -8.500568,-1.859497 -10.911776,-5.578492 -2.390785,-3.739421 -3.586175,-9.460945 -3.58617,-17.16459 -5e-6,-7.376657 1.205601,-12.914275 3.61682,-16.61287 2.41121,-3.69852 6.038248,-5.547796 10.881126,-5.547838 4.82241,4.2e-5 8.43923,1.849318 10.850472,5.547838 2.43162,3.698595 3.647442,9.236213 3.647473,16.61287 M 83.475742,72.936533 c 2.922044,4e-6 5.12892,-1.338422 6.620626,-4.015285 1.49166,-2.676849 2.237502,-7.264286 2.237526,-13.762325 -2.4e-5,-6.130182 -0.705,-10.605232 -2.114921,-13.42516 -1.389536,-2.840295 -3.657713,-4.260456 -6.804534,-4.260499 -2.92208,4.3e-5 -5.118739,1.481505 -6.589974,4.444405 -1.45083,2.942532 -2.176234,7.356279 -2.176226,13.241254 -8e-6,5.925888 0.735617,10.370283 2.206875,13.333206 1.471239,2.962941 3.67811,4.444408 6.620628,4.444404"
     inkscape:connector-curvature="0"
     id="text2403"
     style="font-size:16px;font-style:normal;font-weight:normal;fill:#000000;fill-opacity:1;stroke:none;font-family:Bitstream Vera Sans" />
</svg>
