<?xml version="1.0" encoding="UTF-8" standalone="no"?>
<!-- Created with Inkscape (http://www.inkscape.org/) -->
<svg
   xmlns:svg="http://www.w3.org/2000/svg"
   xmlns="http://www.w3.org/2000/svg"
   xmlns:xlink="http://www.w3.org/1999/xlink"
   version="1.0"
   width="100"
   height="100"
   id="svg2">
  <defs
     id="defs4">
    <linearGradient
       id="linearGradient3143">
      <stop
         id="stop3145"
         style="stop-color:#ffffff;stop-opacity:1"
         offset="0" />
      <stop
         id="stop3147"
         style="stop-color:#ffffff;stop-opacity:0"
         offset="1" />
    </linearGradient>
    <linearGradient
       id="linearGradient3197">
      <stop
         id="stop3199"
         style="stop-color:#e4e1e1;stop-opacity:1"
         offset="0" />
      <stop
         id="stop3201"
         style="stop-color:#14af00;stop-opacity:1"
         offset="1" />
    </linearGradient>
    <linearGradient
       id="linearGradient3189">
      <stop
         id="stop3191"
         style="stop-color:#000000;stop-opacity:1"
         offset="0" />
      <stop
         id="stop3193"
         style="stop-color:#000000;stop-opacity:0"
         offset="1" />
    </linearGradient>
    <radialGradient
       cx="8.9912443"
       cy="21.082802"
       r="22.290434"
       fx="8.9912443"
       fy="21.082802"
       id="radialGradient3149"
       xlink:href="#linearGradient3143"
       gradientUnits="userSpaceOnUse"
       gradientTransform="matrix(0.6866068,0,0,0.6866068,26.623804,7.6789753)" />
    <radialGradient
       cx="50.059151"
       cy="48.853989"
       r="42.138134"
       fx="50.059151"
       fy="48.853989"
       id="radialGradient5137"
       xlink:href="#linearGradient3197"
       gradientUnits="userSpaceOnUse"
       gradientTransform="matrix(-4.0946483,0,0,2.4019534,201.09666,50.362119)" />
    <radialGradient
       cx="50.059151"
       cy="48.853989"
       r="42.138134"
       fx="50.059151"
       fy="48.853989"
       id="radialGradient5139"
       xlink:href="#linearGradient3189"
       gradientUnits="userSpaceOnUse"
       gradientTransform="matrix(-4.0946483,0,0,2.4019534,201.09666,50.362119)" />
  </defs>
  <path
     d="M 62.340845,32.319778 C 62.340845,44.354302 52.584935,54.110212 40.550411,54.110212 C 28.515887,54.110212 18.759977,44.354302 18.759977,32.319778 C 18.759977,20.285254 28.515887,10.529344 40.550411,10.529344 C 52.584935,10.529344 62.340845,20.285254 62.340845,32.319778 L 62.340845,32.319778 z"
     transform="matrix(1.7581633,0,0,1.7581633,-21.545226,-2.1006413)"
     id="path5334"
     style="fill:#7d7b7d;fill-opacity:1;fill-rule:evenodd;stroke:none" />
  <g
     transform="matrix(-0.632551,0.632551,-0.632551,-0.632551,103.38417,193.99613)"
     id="g5324">
    <path
       d="M -81.272218,127.54476 C -81.272218,126.38297 -81.388788,126.21395 -82.551768,125.68952 C -85.948248,124.15792 -87.014618,121.16945 -85.126528,118.47383 C -84.646078,117.78789 -84.668878,117.65968 -85.454458,116.62973 C -86.567068,115.17103 -86.811038,113.56244 -86.127498,112.19225 C -85.832128,111.60018 -85.590468,110.3147 -85.590468,109.33563 C -85.590468,108.35656 -85.284958,106.47368 -84.911558,105.15145 C -82.931838,98.141119 -80.832721,120.51016 -83.914251,88.479296 L -64.555848,86.470909 C -64.773088,96.741559 -64.528888,100.47169 -63.348977,104.90653 C -62.98442,106.27674 -62.677332,108.21996 -62.66656,109.22478 C -62.65579,110.22961 -62.433348,111.42543 -62.172253,111.88217 C -61.456735,113.13383 -61.543578,115.61286 -62.33834,116.62324 C -63.12665,117.62541 -63.182352,118.49329 -62.514989,119.37562 C -61.868228,120.23072 -61.871413,122.99378 -62.520289,123.98411 C -62.803065,124.41568 -63.774671,125.08722 -64.679416,125.47643 C -66.256436,126.15485 -66.324406,126.23861 -66.324406,127.50355 L -66.324406,128.82301 L -73.798306,128.82301 L -81.272206,128.82301 L -81.272206,127.54476 L -81.272218,127.54476 z M -66.991538,121.19177 C -66.613608,120.95283 -66.588138,120.78644 -66.884178,120.49039 C -67.394128,119.98045 -68.981808,120.38378 -68.981808,121.02326 C -68.981808,121.57833 -67.765818,121.68128 -66.991538,121.19177 z M -67.154848,113.54304 C -67.035418,113.34978 -67.366318,113.21086 -67.946078,113.21086 C -68.494168,113.21086 -69.034978,113.36034 -69.147888,113.54304 C -69.267328,113.73629 -68.936428,113.87521 -68.356668,113.87521 C -67.808578,113.87521 -67.267768,113.72573 -67.154848,113.54304 z"
       id="path5309"
       style="fill:#aa8776" />
    <path
       d="M -80.338688,127.59149 C -80.433408,126.45997 -80.613158,126.26329 -82.552058,125.16963 C -83.712708,124.51495 -84.865868,123.61172 -85.114628,123.16246 C -85.783708,121.95413 -85.696718,120.07899 -84.926128,119.09934 C -84.062988,118.00204 -84.088248,117.56122 -85.092208,116.20042 C -86.050008,114.9022 -86.198648,112.77352 -85.404828,111.72334 C -85.064228,111.27274 -84.967238,110.64645 -85.096178,109.7303 C -85.222908,108.82994 -84.998468,107.31128 -84.407838,105.07262 C -82.555178,98.050469 -80.14058,116.7149 -82.96336,87.6802 L -65.391217,82.880455 C -66.900807,103.63558 -65.701968,98.364499 -64.497838,103.24566 C -64.204891,104.43318 -63.830861,106.3764 -63.666661,107.56392 C -63.502461,108.75143 -63.268727,110.21021 -63.147251,110.80565 C -63.007297,111.49167 -63.079911,112.07323 -63.345466,112.39321 C -63.691029,112.80959 -63.639452,113.03132 -63.051439,113.65723 C -62.168606,114.59696 -62.150692,115.77556 -63.002689,116.86477 C -63.359955,117.32151 -63.655586,117.96441 -63.659648,118.29346 C -63.668348,119.00115 -65.491271,119.85433 -66.994591,119.85433 C -68.256611,119.85433 -70.067011,120.74907 -69.890501,121.28555 C -69.688791,121.89868 -66.738001,121.95208 -65.280661,121.36895 C -63.553007,120.67768 -63.480716,120.6933 -62.996491,121.86233 C -62.374666,123.36354 -62.947261,124.27313 -65.178631,125.32874 L -67.068571,126.22282 L -66.894191,127.52291 C -66.726041,128.77656 -66.754281,128.823 -67.684721,128.823 C -68.215421,128.823 -68.649631,128.67352 -68.649631,128.49082 C -68.649631,128.01276 -69.559221,128.08083 -69.759271,128.57392 C -69.886061,128.88639 -70.014951,128.86583 -70.280131,128.49082 C -70.519021,128.15302 -70.634141,128.12628 -70.637591,128.40782 C -70.641391,128.72059 -71.826131,128.82304 -75.439131,128.82304 L -80.235601,128.82304 L -80.338691,127.59152 L -80.338688,127.59149 z M -66.635968,114.00306 C -65.733828,113.70799 -64.995728,113.33429 -64.995728,113.17263 C -64.995728,112.84322 -68.967708,112.76666 -69.785068,113.08033 C -70.530988,113.36657 -70.435628,113.84634 -69.563108,114.19705 C -68.533048,114.61109 -68.485118,114.60791 -66.635968,114.00308 L -66.635968,114.00306 z"
       id="path5307"
       style="fill:#92624e" />
    <path
       d="M -79.413918,128.054 C -79.240358,127.30821 -79.385398,126.92154 -80.130318,126.144 C -80.644028,125.60781 -81.316108,125.1691 -81.623818,125.1691 C -81.931528,125.1691 -82.811288,124.60856 -83.578828,123.92345 C -84.659798,122.95858 -85.012918,122.3783 -85.145398,121.34911 C -85.295218,120.18519 -85.189248,119.89943 -84.290838,119.04479 C -83.726768,118.5082 -83.265258,117.9284 -83.265258,117.75636 C -83.265258,117.58431 -83.788428,116.86446 -84.427868,116.15668 C -85.701538,114.74687 -85.959468,113.22115 -85.125428,112.03039 C -84.858078,111.64869 -84.654268,110.52293 -84.645988,109.38214 C -84.638088,108.29077 -84.387408,106.50096 -84.088948,105.40479 C -82.931448,101.15349 -82.621918,96.284809 -82.948588,87.467429 L -68.045468,81.58715 C -69.135308,82.907632 -69.699648,84.877394 -69.801568,87.716559 C -69.862478,89.413439 -69.797768,89.626559 -69.221138,89.626559 C -68.735798,89.626559 -68.615938,89.793989 -68.745798,90.290569 C -68.841298,90.655779 -68.804138,91.025849 -68.663218,91.112939 C -68.128878,91.443179 -68.012608,93.677719 -68.491728,94.408929 C -68.782568,94.852809 -68.902188,95.582189 -68.799238,96.284009 C -68.365968,99.237739 -68.410268,100.29766 -69.016668,101.48709 C -69.583088,102.59808 -69.593418,102.77841 -69.131068,103.48405 C -68.775458,104.02677 -68.691178,104.62409 -68.850418,105.47291 C -69.051198,106.54317 -68.964728,106.78041 -68.116428,107.48669 C -67.494958,108.00411 -67.404438,108.16312 -67.860508,107.93624 C -68.504008,107.61613 -68.583698,107.6933 -68.765288,108.8123 C -68.874808,109.4872 -68.818438,110.18536 -68.640018,110.36379 C -68.461588,110.54221 -67.337908,110.75045 -66.142928,110.82654 C -64.727078,110.91674 -64.012915,111.09572 -64.092723,111.34048 C -64.269068,111.8813 -66.261868,112.50593 -67.880618,112.52777 C -70.843148,112.56767 -71.976948,113.82258 -69.852528,114.71022 C -69.235248,114.96813 -68.648278,115.39267 -68.548138,115.65363 C -68.427198,115.96877 -67.573198,116.20774 -66.005218,116.36521 C -63.790448,116.58763 -63.657792,116.64638 -63.861085,117.31483 C -64.217538,118.4869 -65.016258,119.16531 -66.286978,119.37531 C -68.135228,119.68076 -70.601358,120.59622 -70.771688,121.0401 C -70.997648,121.62894 -70.084008,122.77218 -68.896848,123.38608 C -68.324208,123.6822 -67.062988,123.94294 -66.094128,123.96549 C -65.125278,123.98799 -64.332298,124.12049 -64.331978,124.25981 C -64.330878,124.74081 -68.071698,126.16562 -69.335708,126.16562 C -70.032978,126.16562 -70.696188,126.31565 -70.809508,126.49901 C -70.922838,126.68238 -71.378698,126.74126 -71.822538,126.62987 C -72.845688,126.37307 -73.363218,127.38024 -72.523598,127.99419 C -72.219868,128.21628 -71.971368,128.49362 -71.971368,128.6105 C -71.971368,128.72738 -73.540888,128.82301 -75.459188,128.82301 C -78.025278,128.82301 -78.948348,128.71328 -78.952088,128.40779 C -78.955488,128.12853 -79.067578,128.15572 -79.294358,128.49079 C -79.543088,128.85836 -79.574458,128.74379 -79.413918,128.05396 L -79.413918,128.054 z"
       id="path5305"
       style="fill:#51332b" />
    <path
       d="M -78.380848,127.57736 C -78.153248,126.10244 -78.280508,126.29854 -77.369178,126.01842 C -76.669668,125.8034 -76.621788,125.88587 -76.621788,127.30584 C -76.621788,128.76291 -76.660438,128.82301 -77.597428,128.82301 C -78.537548,128.82301 -78.566068,128.77771 -78.380848,127.57736 L -78.380848,127.57736 z M -75.293098,127.66036 C -75.293098,127.02093 -75.330468,126.38565 -75.376138,126.24862 C -75.421818,126.1116 -75.048118,125.9522 -74.545708,125.89439 C -73.667208,125.7933 -73.632228,125.84739 -73.632228,127.30612 C -73.632228,128.70264 -73.698108,128.82297 -74.462668,128.82297 C -75.190288,128.82297 -75.293098,128.67903 -75.293098,127.66036 L -75.293098,127.66036 z M -77.080688,124.67472 C -77.424438,124.41445 -78.522678,124.0319 -79.521238,123.8246 C -81.528748,123.40784 -83.433378,122.42179 -83.731498,121.64489 C -84.062018,120.78359 -82.963518,119.16876 -81.683188,118.6338 C -80.796628,118.26337 -79.923088,118.18936 -78.383518,118.35424 C -75.939628,118.61595 -75.498148,118.08488 -77.701358,117.53364 C -83.006118,116.20639 -84.381868,115.34324 -84.199368,113.45673 C -84.121708,112.65398 -83.853948,112.26969 -83.132438,111.9255 C -82.308598,111.5325 -82.248508,111.4216 -82.717218,111.15929 C -83.462088,110.74244 -83.434018,108.48021 -82.637278,104.71697 C -82.291888,103.0856 -81.892838,100.62976 -81.750498,99.259539 C -81.252278,94.463519 -81.752498,94.397492 -82.604083,87.411136 L -74.197278,83.481309 C -75.021998,87.425488 -75.059728,88.00817 -74.641748,90.346979 C -74.033008,93.753329 -74.077798,95.538509 -74.784998,96.055629 C -75.237348,96.386389 -75.331388,96.760559 -75.179598,97.625589 C -75.069998,98.250219 -74.884908,99.321419 -74.768298,100.00603 C -74.488028,101.65146 -74.837408,103.03193 -75.472428,102.78824 C -76.262488,102.48507 -76.965528,103.91352 -76.732618,105.34874 C -76.547888,106.48712 -76.451408,106.58389 -75.662208,106.42243 C -74.447708,106.17395 -73.483368,107.51439 -73.739808,109.0946 C -73.952098,110.40283 -73.349238,110.96163 -70.900578,111.72628 C -70.119298,111.97025 -69.733108,112.17986 -70.042378,112.19208 C -70.351658,112.20428 -71.173788,112.55063 -71.869338,112.96169 C -72.584758,113.3845 -73.927398,113.78121 -74.960928,113.87517 C -76.638968,114.02772 -76.787878,114.10832 -76.787878,114.86399 C -76.787878,115.58975 -76.597238,115.71869 -75.170498,115.95788 C -73.333388,116.26588 -71.997178,117.09337 -71.981798,117.93261 C -71.969128,118.62459 -71.014178,119.17773 -69.751028,119.22477 C -68.835438,119.25887 -68.840238,119.26797 -69.978328,119.65667 C -70.617758,119.87506 -71.813578,120.34254 -72.635708,120.69551 C -73.457838,121.04849 -74.793278,121.56415 -75.603338,121.84144 C -76.413408,122.11872 -77.126858,122.50534 -77.188778,122.7006 C -77.296728,123.04101 -76.486518,123.55526 -75.172648,123.98027 C -74.666578,124.14396 -74.628618,124.2704 -74.964188,124.67473 C -75.475748,125.29112 -76.266598,125.29111 -77.080688,124.67472 L -77.080688,124.67472 z M -68.175748,118.97528 C -67.823758,118.87143 -67.273828,118.46618 -66.953678,118.07472 C -66.486808,117.50389 -66.287998,117.44519 -65.949388,117.7782 C -65.361328,118.35656 -65.887558,118.76959 -67.487028,118.98509 C -68.217808,119.08359 -68.527728,119.07909 -68.175748,118.97509 L -68.175748,118.97528 z"
       id="path5303"
       style="fill:#2f2320" />
  </g>
  <path
     d="M 62.340845,32.319778 C 62.340845,44.354302 52.584935,54.110212 40.550411,54.110212 C 28.515887,54.110212 18.759977,44.354302 18.759977,32.319778 C 18.759977,20.285254 28.515887,10.529344 40.550411,10.529344 C 52.584935,10.529344 62.340845,20.285254 62.340845,32.319778 L 62.340845,32.319778 z"
     transform="matrix(1.7581633,0,0,1.7581633,-31.687576,-14.568488)"
     id="path2168"
     style="fill:#d9e3ff;fill-opacity:1;fill-rule:evenodd;stroke:#000000;stroke-width:2.07096457;stroke-linecap:butt;stroke-linejoin:miter;stroke-miterlimit:4;stroke-dasharray:none;stroke-opacity:1" />
  <path
     d="M 62.340845,32.319778 C 62.340845,44.354302 52.584935,54.110212 40.550411,54.110212 C 28.515887,54.110212 18.759977,44.354302 18.759977,32.319778 C 18.759977,20.285254 28.515887,10.529344 40.550411,10.529344 C 52.584935,10.529344 62.340845,20.285254 62.340845,32.319778 L 62.340845,32.319778 z"
     transform="matrix(1.7581633,0,0,1.7581633,-31.687576,-14.568488)"
     id="path2170"
     style="fill:url(#radialGradient3149);fill-opacity:1;fill-rule:evenodd;stroke:#b6bcae;stroke-width:0.82838589;stroke-linecap:butt;stroke-linejoin:miter;stroke-miterlimit:4;stroke-dasharray:none;stroke-opacity:1" />
  <g
     transform="matrix(0.7786887,0,0,0.7786887,109.39253,-16.65401)"
     id="g5131">
    <path
       d="M -54.404516,41.894763 L -54.404516,59.144763 L -71.685766,59.144763 L -71.685766,75.051013 C -70.502528,75.051012 -61.768433,75.040193 -54.404516,75.019763 L -54.404516,92.301013 L -38.529516,92.301013 C -38.529516,91.114165 -38.540276,82.383913 -38.560766,74.988513 C -30.079043,74.982613 -22.527327,74.982913 -21.248266,75.051013 L -21.248266,59.144763 L -38.592016,59.144763 C -38.597816,50.69141 -38.597416,43.170608 -38.529516,41.894763 L -54.404516,41.894763 z"
       id="path2209"
       style="fill:#b6b9b8;fill-opacity:1;fill-rule:evenodd;stroke:#b9b9b9;stroke-width:6;stroke-linecap:round;stroke-linejoin:round;stroke-miterlimit:4;stroke-dasharray:none;stroke-dashoffset:0;stroke-opacity:1" />
    <g
       transform="translate(-104.76725,-15.449135)"
       id="g2199">
      <path
         d="M 42.0625,47.75 L 42.0625,65 L 24.78125,65 L 24.78125,80.90625 C 25.964488,80.906249 34.698583,80.89543 42.0625,80.875 L 42.0625,98.15625 L 57.9375,98.15625 C 57.9375,96.969402 57.92674,88.23915 57.90625,80.84375 C 66.387973,80.83785 73.939689,80.83815 75.21875,80.90625 L 75.21875,65 L 57.875,65 C 57.8692,56.546647 57.8696,49.025845 57.9375,47.75 L 42.0625,47.75 L 42.0625,47.75 z"
         id="path3242"
         style="fill:none;stroke:#000000;stroke-width:6;stroke-linecap:round;stroke-linejoin:round;stroke-miterlimit:4;stroke-dasharray:none;stroke-dashoffset:0;stroke-opacity:1" />
      <path
         d="M 42.0625,47.734375 L 42.0625,65.015625 L 24.78125,65.015625 L 24.78125,80.890625 C 25.964492,80.890625 34.698582,80.879805 42.0625,80.859375 L 42.0625,98.171875 L 57.9375,98.171875 C 57.9375,96.984352 57.92675,88.229377 57.90625,80.828125 C 66.387959,80.822225 73.93969,80.822525 75.21875,80.890625 L 75.21875,65.015625 L 57.875,65.015625 C 57.8692,56.548092 57.8695,49.011828 57.9375,47.734375 L 42.0625,47.734375 L 42.0625,47.734375 z"
         id="path3176"
         style="fill:url(#radialGradient5137);fill-opacity:1;fill-rule:evenodd;stroke:url(#radialGradient5139);stroke-width:4.19999981;stroke-linecap:round;stroke-linejoin:round;stroke-miterlimit:4;stroke-dasharray:none;stroke-dashoffset:0;stroke-opacity:1" />
    </g>
  </g>
</svg>
