<?xml version="1.0" encoding="UTF-8" standalone="no"?>
<!-- Created with Inkscape (http://www.inkscape.org/) -->

<svg
   xmlns:dc="http://purl.org/dc/elements/1.1/"
   xmlns:cc="http://creativecommons.org/ns#"
   xmlns:rdf="http://www.w3.org/1999/02/22-rdf-syntax-ns#"
   xmlns:svg="http://www.w3.org/2000/svg"
   xmlns="http://www.w3.org/2000/svg"
   xmlns:xlink="http://www.w3.org/1999/xlink"
   xmlns:inkscape="http://www.inkscape.org/namespaces/inkscape"
   version="1.0"
   width="100"
   height="100"
   id="svg2">
  <metadata
     id="metadata2566">
    <rdf:RDF>
      <cc:Work
         rdf:about="">
        <dc:format>image/svg+xml</dc:format>
        <dc:type
           rdf:resource="http://purl.org/dc/dcmitype/StillImage" />
      </cc:Work>
    </rdf:RDF>
  </metadata>
  <defs
     id="defs4">
    <linearGradient
       id="linearGradient3143">
      <stop
         id="stop3145"
         style="stop-color:#ffffff;stop-opacity:1"
         offset="0" />
      <stop
         id="stop3147"
         style="stop-color:#ffffff;stop-opacity:0"
         offset="1" />
    </linearGradient>
    <radialGradient
       cx="8.9912443"
       cy="21.082802"
       r="22.290434"
       fx="8.9912443"
       fy="21.082802"
       id="radialGradient3149"
       xlink:href="#linearGradient3143"
       gradientUnits="userSpaceOnUse"
       gradientTransform="matrix(0.6866068,0,0,0.6866068,26.294147,7.7202142)" />
    <radialGradient
       cx="50.059151"
       cy="48.853989"
       r="42.138134"
       fx="50.059151"
       fy="48.853989"
       id="radialGradient5139"
       xlink:href="#linearGradient3189"
       gradientUnits="userSpaceOnUse"
       gradientTransform="matrix(-5.6623823,0,0,3.3215987,240.50024,55.28908)" />
    <radialGradient
       cx="50.059151"
       cy="48.853989"
       r="42.138134"
       fx="50.059151"
       fy="48.853989"
       id="radialGradient5137"
       xlink:href="#linearGradient3197"
       gradientUnits="userSpaceOnUse"
       gradientTransform="matrix(-5.6623823,0,0,3.3215987,240.50024,55.28908)" />
    <linearGradient
       id="linearGradient3197">
      <stop
         id="stop3199"
         style="stop-color:#e4e1e1;stop-opacity:1"
         offset="0" />
      <stop
         id="stop3201"
         style="stop-color:#14af00;stop-opacity:1"
         offset="1" />
    </linearGradient>
    <linearGradient
       id="linearGradient3189">
      <stop
         id="stop3191"
         style="stop-color:#000000;stop-opacity:1"
         offset="0" />
      <stop
         id="stop3193"
         style="stop-color:#000000;stop-opacity:0"
         offset="1" />
    </linearGradient>
  </defs>
  <g
     transform="translate(-42.399128,-95.209967)"
     id="g3148" />
  <path
     d="m 62.340845,32.319778 a 21.790434,21.790434 0 1 1 -43.580868,0 21.790434,21.790434 0 1 1 43.580868,0 z"
     transform="matrix(1.7581633,0,0,1.7581633,-20.96563,-2.1731461)"
     id="path5334"
     style="fill:#7d7b7d;fill-opacity:1;fill-rule:evenodd;stroke:none" />
  <g
     transform="matrix(-0.632551,0.632551,-0.632551,-0.632551,103.96376,193.92362)"
     id="g5324">
    <path
       d="m -81.272218,127.54476 c 0,-1.16179 -0.11657,-1.33081 -1.27955,-1.85524 -3.39648,-1.5316 -4.46285,-4.52007 -2.57476,-7.21569 0.48045,-0.68594 0.45765,-0.81415 -0.32793,-1.8441 -1.11261,-1.4587 -1.35658,-3.06729 -0.67304,-4.43748 0.29537,-0.59207 0.53703,-1.87755 0.53703,-2.85662 0,-0.97907 0.30551,-2.86195 0.67891,-4.18418 1.97972,-7.010331 4.078837,15.35871 0.997307,-16.672154 l 19.358403,-2.008387 c -0.21724,10.27065 0.02696,14.000781 1.206871,18.435621 0.364557,1.37021 0.671645,3.31343 0.682417,4.31825 0.01077,1.00483 0.233212,2.20065 0.494307,2.65739 0.715518,1.25166 0.628675,3.73069 -0.166087,4.74107 -0.78831,1.00217 -0.844012,1.87005 -0.176649,2.75238 0.646761,0.8551 0.643576,3.61816 -0.0053,4.60849 -0.282776,0.43157 -1.254382,1.10311 -2.159127,1.49232 -1.57702,0.67842 -1.64499,0.76218 -1.64499,2.02712 l 0,1.31946 -7.4739,0 -7.4739,0 0,-1.27825 z m 14.28068,-6.35299 c 0.37793,-0.23894 0.4034,-0.40533 0.10736,-0.70138 -0.50995,-0.50994 -2.09763,-0.10661 -2.09763,0.53287 0,0.55507 1.21599,0.65802 1.99027,0.16851 z m -0.16331,-7.64873 c 0.11943,-0.19326 -0.21147,-0.33218 -0.79123,-0.33218 -0.54809,0 -1.0889,0.14948 -1.20181,0.33218 -0.11944,0.19325 0.21146,0.33217 0.79122,0.33217 0.54809,0 1.0889,-0.14948 1.20182,-0.33217 z"
       inkscape:connector-curvature="0"
       id="path5309"
       style="fill:#aa8776" />
    <path
       d="m -80.338688,127.59149 c -0.09472,-1.13152 -0.27447,-1.3282 -2.21337,-2.42186 -1.16065,-0.65468 -2.31381,-1.55791 -2.56257,-2.00717 -0.66908,-1.20833 -0.58209,-3.08347 0.1885,-4.06312 0.86314,-1.0973 0.83788,-1.53812 -0.16608,-2.89892 -0.9578,-1.29822 -1.10644,-3.4269 -0.31262,-4.47708 0.3406,-0.4506 0.43759,-1.07689 0.30865,-1.99304 -0.12673,-0.90036 0.09771,-2.41902 0.68834,-4.65768 1.85266,-7.022151 4.267258,11.64228 1.444478,-17.39242 l 17.572143,-4.799745 c -1.50959,20.755125 -0.310751,15.484044 0.893379,20.365205 0.292947,1.18752 0.666977,3.13074 0.831177,4.31826 0.1642,1.18751 0.397934,2.64629 0.51941,3.24173 0.139954,0.68602 0.06734,1.26758 -0.198215,1.58756 -0.345563,0.41638 -0.293986,0.63811 0.294027,1.26402 0.882833,0.93973 0.900747,2.11833 0.04875,3.20754 -0.357266,0.45674 -0.652897,1.09964 -0.656959,1.42869 -0.0087,0.70769 -1.831623,1.56087 -3.334943,1.56087 -1.26202,0 -3.07242,0.89474 -2.89591,1.43122 0.20171,0.61313 3.1525,0.66653 4.60984,0.0834 1.727654,-0.69127 1.799945,-0.67565 2.28417,0.49338 0.621825,1.50121 0.04923,2.4108 -2.18214,3.46641 l -1.88994,0.89408 0.17438,1.30009 c 0.16815,1.25365 0.13991,1.30009 -0.79053,1.30009 -0.5307,0 -0.96491,-0.14948 -0.96491,-0.33218 0,-0.47806 -0.90959,-0.40999 -1.10964,0.0831 -0.12679,0.31247 -0.25568,0.29191 -0.52086,-0.0831 -0.23889,-0.3378 -0.35401,-0.36454 -0.35746,-0.083 -0.0038,0.31277 -1.18854,0.41522 -4.80154,0.41522 l -4.79647,0 -0.10309,-1.23152 z m 13.70272,-13.58843 c 0.90214,-0.29507 1.64024,-0.66877 1.64024,-0.83043 0,-0.32941 -3.97198,-0.40597 -4.78934,-0.0923 -0.74592,0.28624 -0.65056,0.76601 0.22196,1.11672 1.03006,0.41404 1.07799,0.41086 2.92714,-0.19397 z"
       inkscape:connector-curvature="0"
       id="path5307"
       style="fill:#92624e" />
    <path
       d="m -79.413918,128.054 c 0.17356,-0.74579 0.02852,-1.13246 -0.7164,-1.91 -0.51371,-0.53619 -1.18579,-0.9749 -1.4935,-0.9749 -0.30771,0 -1.18747,-0.56054 -1.95501,-1.24565 -1.08097,-0.96487 -1.43409,-1.54515 -1.56657,-2.57434 -0.14982,-1.16392 -0.04385,-1.44968 0.85456,-2.30432 0.56407,-0.53659 1.02558,-1.11639 1.02558,-1.28843 0,-0.17205 -0.52317,-0.8919 -1.16261,-1.59968 -1.27367,-1.40981 -1.5316,-2.93553 -0.69756,-4.12629 0.26735,-0.3817 0.47116,-1.50746 0.47944,-2.64825 0.0079,-1.09137 0.25858,-2.88118 0.55704,-3.97735 1.1575,-4.2513 1.46703,-9.119981 1.14036,-17.937361 l 14.90312,-5.880279 c -1.08984,1.320482 -1.65418,3.290244 -1.7561,6.129409 -0.06091,1.69688 0.0038,1.91 0.58043,1.91 0.48534,0 0.6052,0.16743 0.47534,0.66401 -0.0955,0.36521 -0.05834,0.73528 0.08258,0.82237 0.53434,0.33024 0.65061,2.56478 0.17149,3.29599 -0.29084,0.44388 -0.41046,1.17326 -0.30751,1.87508 0.43327,2.95373 0.38897,4.013651 -0.21743,5.203081 -0.56642,1.11099 -0.57675,1.29132 -0.1144,1.99696 0.35561,0.54272 0.43989,1.14004 0.28065,1.98886 -0.20078,1.07026 -0.11431,1.3075 0.73399,2.01378 0.62147,0.51742 0.71199,0.67643 0.25592,0.44955 -0.6435,-0.32011 -0.72319,-0.24294 -0.90478,0.87606 -0.10952,0.6749 -0.05315,1.37306 0.12527,1.55149 0.17843,0.17842 1.30211,0.38666 2.49709,0.46275 1.41585,0.0902 2.130013,0.26918 2.050205,0.51394 -0.176345,0.54082 -2.169145,1.16545 -3.787895,1.18729 -2.96253,0.0399 -4.09633,1.29481 -1.97191,2.18245 0.61728,0.25791 1.20425,0.68245 1.30439,0.94341 0.12094,0.31514 0.97494,0.55411 2.54292,0.71158 2.21477,0.22242 2.347426,0.28117 2.144133,0.94962 -0.356453,1.17207 -1.155173,1.85048 -2.425893,2.06048 -1.84825,0.30545 -4.31438,1.22091 -4.48471,1.66479 -0.22596,0.58884 0.68768,1.73208 1.87484,2.34598 0.57264,0.29612 1.83386,0.55686 2.80272,0.57941 0.96885,0.0225 1.76183,0.155 1.76215,0.29432 0.0011,0.481 -3.73972,1.90581 -5.00373,1.90581 -0.69727,0 -1.36048,0.15003 -1.4738,0.33339 -0.11333,0.18337 -0.56919,0.24225 -1.01303,0.13086 -1.02315,-0.2568 -1.54068,0.75037 -0.70106,1.36432 0.30373,0.22209 0.55223,0.49943 0.55223,0.61631 0,0.11688 -1.56952,0.21251 -3.48782,0.21251 -2.56609,0 -3.48916,-0.10973 -3.4929,-0.41522 -0.0034,-0.27926 -0.11549,-0.25207 -0.34227,0.083 -0.24873,0.36757 -0.2801,0.253 -0.11956,-0.43683 z"
       inkscape:connector-curvature="0"
       id="path5305"
       style="fill:#51332b" />
    <path
       d="m -78.380848,127.57736 c 0.2276,-1.47492 0.10034,-1.27882 1.01167,-1.55894 0.69951,-0.21502 0.74739,-0.13255 0.74739,1.28742 0,1.45707 -0.03865,1.51717 -0.97564,1.51717 -0.94012,0 -0.96864,-0.0453 -0.78342,-1.24565 z m 3.08775,0.083 c 0,-0.63943 -0.03737,-1.27471 -0.08304,-1.41174 -0.04568,-0.13702 0.32802,-0.29642 0.83043,-0.35423 0.8785,-0.10109 0.91348,-0.047 0.91348,1.41173 0,1.39652 -0.06588,1.51685 -0.83044,1.51685 -0.72762,0 -0.83043,-0.14394 -0.83043,-1.16261 z m -1.78759,-2.98564 c -0.34375,-0.26027 -1.44199,-0.64282 -2.44055,-0.85012 -2.00751,-0.41676 -3.91214,-1.40281 -4.21026,-2.17971 -0.33052,-0.8613 0.76798,-2.47613 2.04831,-3.01109 0.88656,-0.37043 1.7601,-0.44444 3.29967,-0.27956 2.44389,0.26171 2.88537,-0.26936 0.68216,-0.8206 -5.30476,-1.32725 -6.68051,-2.1904 -6.49801,-4.07691 0.07766,-0.80275 0.34542,-1.18704 1.06693,-1.53123 0.82384,-0.393 0.88393,-0.5039 0.41522,-0.76621 -0.74487,-0.41685 -0.7168,-2.67908 0.07994,-6.44232 0.34539,-1.63137 0.74444,-4.08721 0.88678,-5.457431 0.49822,-4.79602 -0.002,-4.862047 -0.853585,-11.848403 l 8.406805,-3.929827 c -0.82472,3.944179 -0.86245,4.526861 -0.44447,6.86567 0.60874,3.40635 0.56395,5.19153 -0.14325,5.70865 -0.45235,0.33076 -0.54639,0.70493 -0.3946,1.56996 0.1096,0.62463 0.29469,1.69583 0.4113,2.380441 0.28027,1.64543 -0.06911,3.0259 -0.70413,2.78221 -0.79006,-0.30317 -1.4931,1.12528 -1.26019,2.5605 0.18473,1.13838 0.28121,1.23515 1.07041,1.07369 1.2145,-0.24848 2.17884,1.09196 1.9224,2.67217 -0.21229,1.30823 0.39057,1.86703 2.83923,2.63168 0.78128,0.24397 1.16747,0.45358 0.8582,0.4658 -0.30928,0.0122 -1.13141,0.35855 -1.82696,0.76961 -0.71542,0.42281 -2.05806,0.81952 -3.09159,0.91348 -1.67804,0.15255 -1.82695,0.23315 -1.82695,0.98882 0,0.72576 0.19064,0.8547 1.61738,1.09389 1.83711,0.308 3.17332,1.13549 3.1887,1.97473 0.01267,0.69198 0.96762,1.24512 2.23077,1.29216 0.91559,0.0341 0.91079,0.0432 -0.2273,0.4319 -0.63943,0.21839 -1.83525,0.68587 -2.65738,1.03884 -0.82213,0.35298 -2.15757,0.86864 -2.96763,1.14593 -0.81007,0.27728 -1.52352,0.6639 -1.58544,0.85916 -0.10795,0.34041 0.70226,0.85466 2.01613,1.27967 0.50607,0.16369 0.54403,0.29013 0.20846,0.69446 -0.51156,0.61639 -1.30241,0.61638 -2.1165,-10e-6 z m 8.90494,-5.69944 c 0.35199,-0.10385 0.90192,-0.5091 1.22207,-0.90056 0.46687,-0.57083 0.66568,-0.62953 1.00429,-0.29652 0.58806,0.57836 0.06183,0.99139 -1.53764,1.20689 -0.73078,0.0985 -1.0407,0.094 -0.68872,-0.01 z"
       inkscape:connector-curvature="0"
       id="path5303"
       style="fill:#2f2320" />
  </g>
  <path
     d="m 62.340845,32.319778 a 21.790434,21.790434 0 1 1 -43.580868,0 21.790434,21.790434 0 1 1 43.580868,0 z"
     transform="matrix(1.7581633,0,0,1.7581633,-31.107984,-14.640993)"
     id="path2168"
     style="fill:#d9e3ff;fill-opacity:1;fill-rule:evenodd;stroke:#000000;stroke-width:2.07096457;stroke-linecap:butt;stroke-linejoin:miter;stroke-miterlimit:4;stroke-opacity:1;stroke-dasharray:none" />
  <path
     d="m 62.340845,32.319778 a 21.790434,21.790434 0 1 1 -43.580868,0 21.790434,21.790434 0 1 1 43.580868,0 z"
     transform="matrix(1.7581633,0,0,1.7581633,-31.107984,-14.640993)"
     id="path2170"
     style="fill:url(#radialGradient3149);fill-opacity:1;fill-rule:evenodd;stroke:#b6bcae;stroke-width:0.82838589;stroke-linecap:butt;stroke-linejoin:miter;stroke-miterlimit:4;stroke-opacity:1;stroke-dasharray:none" />
  <g
     transform="matrix(0.7786887,0,0,0.7786887,112.06805,-18.71712)"
     id="g5131">
    <path
       d="m -54.404516,59.144763 -17.28125,0 0,15.90625 c 1.183238,-10e-7 9.917333,-0.01082 17.28125,-0.03125 l 15.84375,-0.03125 c 8.481723,-0.0059 16.033439,-0.0056 17.3125,0.0625 l 0,-15.90625 -17.34375,0 -15.8125,0 z"
       inkscape:connector-curvature="0"
       id="path2230"
       style="fill:#b6b9b8;fill-opacity:1;fill-rule:evenodd;stroke:#b9b9b9;stroke-width:6;stroke-linecap:round;stroke-linejoin:round;stroke-miterlimit:4;stroke-opacity:1;stroke-dasharray:none;stroke-dashoffset:0" />
    <g
       transform="translate(-104.76725,-15.449135)"
       id="g2232">
      <path
         d="m 42.0625,65 -17.28125,0 0,15.90625 c 1.183238,-10e-7 9.917333,-0.01082 17.28125,-0.03125 l 15.84375,-0.03125 c 8.481723,-0.0059 16.033439,-0.0056 17.3125,0.0625 L 75.21875,65 57.875,65 42.0625,65 z"
         inkscape:connector-curvature="0"
         id="path3242"
         style="fill:none;stroke:#000000;stroke-width:6;stroke-linecap:round;stroke-linejoin:round;stroke-miterlimit:4;stroke-opacity:1;stroke-dasharray:none;stroke-dashoffset:0" />
      <path
         d="m 42.0625,65.015625 -17.28125,0 0,15.875 c 1.183242,0 9.917332,-0.01082 17.28125,-0.03125 l 15.84375,-0.03125 c 8.481709,-0.0059 16.03344,-0.0056 17.3125,0.0625 l 0,-15.875 -17.34375,0 -15.8125,0 z"
         inkscape:connector-curvature="0"
         id="path3176"
         style="fill:url(#radialGradient5137);fill-opacity:1;fill-rule:evenodd;stroke:url(#radialGradient5139);stroke-width:4.19999981;stroke-linecap:round;stroke-linejoin:round;stroke-miterlimit:4;stroke-opacity:1;stroke-dasharray:none;stroke-dashoffset:0" />
    </g>
  </g>
</svg>
