<?xml version="1.0" encoding="UTF-8" standalone="no"?>
<!-- Created with Inkscape (http://www.inkscape.org/) -->

<svg
   xmlns:dc="http://purl.org/dc/elements/1.1/"
   xmlns:cc="http://creativecommons.org/ns#"
   xmlns:rdf="http://www.w3.org/1999/02/22-rdf-syntax-ns#"
   xmlns:svg="http://www.w3.org/2000/svg"
   xmlns="http://www.w3.org/2000/svg"
   xmlns:xlink="http://www.w3.org/1999/xlink"
   xmlns:sodipodi="http://sodipodi.sourceforge.net/DTD/sodipodi-0.dtd"
   xmlns:inkscape="http://www.inkscape.org/namespaces/inkscape"
   version="1.0"
   width="100"
   height="100"
   id="svg2"
   inkscape:version="0.91 r13725"
   sodipodi:docname="aten_aboutplugins.svg">
  <metadata
     id="metadata19">
    <rdf:RDF>
      <cc:Work
         rdf:about="">
        <dc:format>image/svg+xml</dc:format>
        <dc:type
           rdf:resource="http://purl.org/dc/dcmitype/StillImage" />
        <dc:title></dc:title>
      </cc:Work>
    </rdf:RDF>
  </metadata>
  <sodipodi:namedview
     pagecolor="#ffffff"
     bordercolor="#666666"
     borderopacity="1"
     objecttolerance="10"
     gridtolerance="10"
     guidetolerance="10"
     inkscape:pageopacity="0"
     inkscape:pageshadow="2"
     inkscape:window-width="1600"
     inkscape:window-height="836"
     id="namedview17"
     showgrid="false"
     inkscape:zoom="4.72"
     inkscape:cx="-55.836165"
     inkscape:cy="42.593136"
     inkscape:window-x="0"
     inkscape:window-y="27"
     inkscape:window-maximized="1"
     inkscape:current-layer="svg2" />
  <defs
     id="defs4">
    <linearGradient
       id="linearGradient3860">
      <stop
         style="stop-color:#928784;stop-opacity:1;"
         offset="0"
         id="stop3862" />
      <stop
         style="stop-color:#ffffff;stop-opacity:0;"
         offset="1"
         id="stop3864" />
    </linearGradient>
    <radialGradient
       inkscape:collect="always"
       xlink:href="#linearGradient3860"
       id="radialGradient3866"
       cx="42.403667"
       cy="40.383984"
       fx="42.403667"
       fy="40.383984"
       r="28.891315"
       gradientUnits="userSpaceOnUse" />
  </defs>
  <path
     inkscape:connector-curvature="0"
     id="path4155"
     d="m 42.35284,99.565854 c -0.336464,-0.246182 -1.088248,-0.834672 -1.670631,-1.307757 -0.582384,-0.473085 -1.581605,-1.27877 -2.220495,-1.790412 -1.245154,-0.997156 -7.616738,-6.282453 -9.455259,-7.843239 -0.612199,-0.519717 -1.293746,-0.945439 -1.514549,-0.94605 -1.413543,-0.0039 -1.70688,-0.261022 -5.586208,-4.896463 -2.072022,-2.475878 -4.418019,-5.398387 -5.213324,-6.494468 -1.332236,-1.836069 -1.435815,-2.049357 -1.316418,-2.710733 0.164825,-0.913035 0.248923,-0.997338 0.564449,-0.56583 0.22489,0.307555 0.272527,0.227068 0.390073,-0.659041 0.08523,-0.64245 0.04255,-1.262004 -0.117397,-1.704325 -0.2122,-0.586828 -0.205778,-0.72308 0.04127,-0.875763 0.345038,-0.213244 0.347769,-0.241924 0.468045,-4.915628 0.05132,-1.99439 0.142521,-3.784802 0.202659,-3.978694 0.06014,-0.193892 0.154377,-1.499325 0.209421,-2.900963 0.05504,-1.401638 0.154098,-2.635837 0.220121,-2.742667 0.06602,-0.106828 0.112191,-1.188231 0.102592,-2.403115 -0.0104,-1.31583 0.06943,-2.313571 0.197445,-2.467819 0.215269,-0.259385 0.14375,-1.855877 -0.100874,-2.251684 -0.07152,-0.115726 -0.0384,-0.381642 0.0736,-0.590921 0.112002,-0.20928 0.250632,-2.023922 0.308064,-4.03254 0.132493,-4.63362 0.240626,-6.29748 0.520018,-8.001537 0.123134,-0.751016 0.17019,-1.701242 0.10457,-2.11161 -0.09859,-0.61656 -0.03329,-0.838939 0.376072,-1.280646 0.272459,-0.293988 0.495379,-0.75669 0.495379,-1.028226 0,-0.271534 0.223802,-0.935351 0.497337,-1.475146 0.577072,-1.138794 0.612184,-1.392543 0.192692,-1.392543 -0.167557,0 -0.3534,-0.12705 -0.412987,-0.28233 -0.138241,-0.360249 0.475118,-1.309148 0.846221,-1.309148 0.154972,0 0.338921,-0.156661 0.408777,-0.348135 0.250932,-0.687807 1.514424,-2.534593 2.123618,-3.10399 2.483809,-2.321556 3.007407,-2.358081 2.17699,-0.151865 -0.464873,1.235054 -0.48034,1.400349 -0.267351,2.857002 0.297521,2.034752 0.308156,11.592707 0.01375,12.363754 -0.120936,0.316741 -0.209681,0.943386 -0.197212,1.392542 0.03604,1.29823 -0.169049,4.834008 -0.393545,6.784694 -0.12437,1.080673 -0.138388,2.217889 -0.03536,2.868781 0.12389,0.782711 0.09787,1.252646 -0.09491,1.71402 -0.151234,0.361955 -0.312644,1.782077 -0.374871,3.298194 -0.0601,1.4644 -0.161914,3.260754 -0.226244,3.991901 -0.105799,1.202488 -0.07719,1.354196 0.299747,1.589597 0.229189,0.143132 0.416708,0.431621 0.416708,0.641087 0,0.362228 -0.01858,0.364041 -0.379851,0.03709 -0.360506,-0.326251 -0.384947,-0.325288 -0.479827,0.0189 -0.05499,0.199466 -0.111075,0.938958 -0.124643,1.643316 -0.0245,1.271822 -0.0219,1.27815 0.376212,0.917861 0.357243,-0.323301 0.414076,-0.328399 0.522122,-0.04684 0.170381,0.444008 -0.0915,0.784891 -0.517417,0.673509 -0.508599,-0.133 -0.599898,0.406722 -0.573093,3.387836 0.01257,1.397059 -0.07937,3.098289 -0.20429,3.780513 -0.18093,0.988081 -0.16955,1.554627 0.05594,2.785086 0.15569,0.849572 0.286935,1.678959 0.29166,1.84308 0.02426,0.842918 0.315471,2.411954 0.464783,2.504234 0.0938,0.05797 0.170537,0.27218 0.170537,0.476025 0,0.443984 1.571624,1.844361 1.919907,1.710711 0.243854,-0.09357 0.509865,0.538828 0.767299,1.824141 0.07122,0.355596 0.220744,0.646538 0.332274,0.646538 0.111529,0 0.472337,0.288561 0.801793,0.641246 l 0.599014,0.641246 0.376006,-0.464351 c 0.412297,-0.509164 0.518955,-1.988164 0.168643,-2.338476 -0.143865,-0.143865 -0.113404,-0.285346 0.09947,-0.462015 0.368606,-0.305916 0.398404,-1.059375 0.06313,-1.596239 -0.205309,-0.328749 -0.181799,-0.435428 0.149201,-0.67706 0.519078,-0.378933 0.746711,-3.148288 0.316952,-3.856036 -0.237056,-0.390398 -0.232757,-0.499913 0.03123,-0.795739 0.355441,-0.398315 0.652514,-1.478791 0.832715,-3.028658 0.204368,-1.757701 2.118471,-8.226723 2.588663,-8.748801 0.149953,-0.1665 0.334294,-0.549754 0.409647,-0.851677 0.07535,-0.301923 0.208529,-0.593156 0.295949,-0.647185 0.08742,-0.05403 0.273953,-0.746965 0.414516,-1.539863 0.165691,-0.934627 0.486658,-1.826426 0.912647,-2.535771 0.361391,-0.601778 0.657306,-1.246591 0.657586,-1.432917 1.99e-4,-0.186326 0.08275,-0.544408 0.183263,-0.795739 0.401518,-1.003987 0.473568,-1.266155 0.435108,-1.583213 -0.02205,-0.181783 0.05371,-0.388486 0.16836,-0.459345 0.11465,-0.07086 0.208731,-0.41449 0.209067,-0.763628 3.98e-4,-0.349139 0.30131,-1.231764 0.668828,-1.961391 0.36752,-0.729625 0.736005,-1.53531 0.818859,-1.790412 0.446225,-1.373903 0.64773,-2.258388 0.564139,-2.476222 -0.05162,-0.134519 0.09211,-0.430546 0.319396,-0.657833 0.288933,-0.288933 0.413251,-0.667991 0.413251,-1.260036 0,-1.01299 0.301621,-2.153737 0.62178,-2.351605 0.286848,-0.177283 0.777314,-1.443093 0.918688,-2.370984 0.05828,-0.382509 0.219412,-0.874873 0.358067,-1.09414 0.286532,-0.453112 1.185364,-2.732979 1.372832,-3.482155 0.683807,-2.73268 0.849951,-3.09282 1.68034,-3.642345 0.968267,-0.640769 2.730295,-1.529957 3.031783,-1.529957 0.131046,0 0.898363,-0.313322 1.70515,-0.696272 0.806786,-0.382949 1.575368,-0.700073 1.707962,-0.704718 0.132592,-0.0046 0.867721,-0.235781 1.63362,-0.513633 1.314242,-0.476781 3.186098,-0.955533 5.669639,-1.450089 0.601777,-0.119834 1.944586,-0.396027 2.98402,-0.613763 1.039434,-0.217736 2.829846,-0.579855 3.978694,-0.804709 1.148848,-0.224854 2.491657,-0.537121 2.98402,-0.693928 1.409301,-0.448828 3.857762,-0.866961 5.839879,-0.997295 1.000508,-0.06579 2.31147,-0.213648 2.913248,-0.328577 0.601777,-0.114928 1.938003,-0.222896 2.969392,-0.239931 1.098309,-0.01814 1.903931,-0.117003 1.944469,-0.23862 0.03807,-0.114208 0.348309,-0.166687 0.689425,-0.116623 0.380665,0.05587 0.573035,0.0147 0.49807,-0.106592 -0.159895,-0.258716 3.081407,-0.49188 3.338095,-0.240126 0.103943,0.101946 0.417265,0.188204 0.696271,0.191684 0.764584,0.0095 1.091785,0.358448 1.970645,2.101401 0.681972,1.352485 0.864686,1.996819 1.210388,4.268374 0.488723,3.211317 1.011902,5.953373 1.806982,9.47066 0.325439,1.439682 0.688917,3.319615 0.807728,4.177629 0.11881,0.858013 0.393059,2.634271 0.609441,3.94724 0.216383,1.312969 0.474019,2.92434 0.572526,3.580824 0.09851,0.656485 0.36145,2.117666 0.584317,3.247072 0.222866,1.129404 0.46188,2.561734 0.531141,3.182955 0.06926,0.621219 0.261319,1.28518 0.426795,1.475467 0.240365,0.276406 0.274074,0.656429 0.167634,1.889879 -0.209941,2.432872 -0.496354,6.31816 -0.642217,8.711927 l -0.133729,2.194656 1.569584,1.042121 c 0.863273,0.573167 1.776143,1.215449 2.028599,1.427295 C 99.032877,72.348288 100,74.524367 100,75.178667 c 0,0.63831 -0.945825,2.512054 -1.323179,2.621305 -1.657595,0.479904 -8.764981,1.812064 -9.692846,1.816761 -1.028468,0.0052 -1.205819,0.06561 -1.477528,0.503253 -1.125003,1.812034 -2.271848,3.446784 -3.182268,4.536105 -1.711941,2.048343 -6.119512,6.268219 -7.284455,6.974248 -1.555887,0.942964 -7.803178,3.079762 -13.743175,4.700658 -7.908219,2.15798 -10.791952,2.768675 -15.937113,3.375042 -3.577644,0.421631 -4.265059,0.402381 -5.006606,-0.140187 z m 9.405507,-3.110258 c 6.630442,-1.699313 15.123809,-4.162663 14.95038,-4.336092 -0.04941,-0.04941 -1.553521,0.264368 -3.342477,0.69728 -1.788956,0.432911 -4.505934,1.074404 -6.037731,1.425536 -4.740911,1.086756 -10.046202,2.625202 -10.046202,2.913231 0,0.256222 1.911523,-0.0427 4.47603,-0.699955 z M 86.472451,78.26791 c 0,-0.109414 -0.179042,-0.0369 -0.39787,0.161133 -0.218828,0.198038 -0.397869,0.449588 -0.397869,0.559003 0,0.109414 0.179041,0.0369 0.397869,-0.161134 0.218828,-0.198037 0.39787,-0.449588 0.39787,-0.559002 z M 43.132949,67.388168 c 0.431121,0 3.374688,-0.840991 3.278885,-0.936794 -0.05095,-0.05095 -0.592101,0.0047 -1.202554,0.123676 -0.610455,0.118973 -1.602222,0.312168 -2.203926,0.429325 -1.040916,0.202673 -1.691078,0.586696 -1.691078,0.998849 0,0.103822 0.354516,0.0079 0.787813,-0.213145 0.433298,-0.22105 0.897186,-0.401911 1.03086,-0.401911 z m 23.300617,-1.125163 c -0.134684,-0.05449 -0.403246,-0.05781 -0.596804,-0.0074 -0.193557,0.05044 -0.08336,0.09502 0.244883,0.09908 0.328242,0.0041 0.486606,-0.03721 0.351921,-0.09171 z M 65.33564,64.966924 c 0.191474,-0.01872 0.482416,-0.05396 0.646538,-0.07832 0.164121,-0.02436 0.376503,-0.05381 0.47196,-0.06544 0.386134,-0.04705 -0.356435,-0.617951 -0.803764,-0.617951 -0.538474,0 -1.458609,0.810006 -1.458609,1.284034 0,0.24716 0.07801,0.229429 0.39787,-0.09043 0.218828,-0.218828 0.55453,-0.413182 0.746005,-0.431897 z m 6.117242,-3.347862 c 0.198037,-0.218828 0.502853,-0.398685 0.67737,-0.399684 0.174516,-9.95e-4 1.212509,-0.231447 2.30665,-0.512106 1.094141,-0.280661 2.750272,-0.679397 3.680292,-0.886083 0.930019,-0.206685 2.675671,-0.603547 3.879226,-0.881917 1.203555,-0.278367 2.291431,-0.466866 2.4175,-0.418885 0.359736,0.136915 0.472389,-0.100466 0.247286,-0.521075 -0.215564,-0.402785 -0.355984,-0.400442 -2.266917,0.03785 -1.994459,0.457448 -6.279622,1.271646 -7.360583,1.398539 -0.656485,0.07706 -1.46217,0.239215 -1.790412,0.360336 -0.328243,0.12112 -0.850695,0.271168 -1.161007,0.333441 -0.702442,0.140963 -1.524612,0.939367 -1.524612,1.480543 0,0.518199 0.430491,0.522548 0.895207,0.0091 z m 14.621699,0 c 0,-0.109414 -0.08952,-0.198935 -0.198934,-0.198935 -0.109415,0 -0.198935,0.08952 -0.198935,0.198935 0,0.109414 0.08952,0.198934 0.198935,0.198934 0.109414,0 0.198934,-0.08952 0.198934,-0.198934 z m 2.208931,-0.655729 c -0.25533,-0.25533 -0.514256,-0.05799 -0.325226,0.247869 0.07322,0.118477 0.224269,0.15909 0.335656,0.09025 0.135873,-0.08398 0.132441,-0.195247 -0.01042,-0.338118 z M 68.767263,56.148358 c 0,-0.364713 -0.106098,-0.497337 -0.397869,-0.497337 -0.291772,0 -0.39787,0.132624 -0.39787,0.497337 0,0.364713 0.106098,0.497336 0.39787,0.497336 0.291771,0 0.397869,-0.132623 0.397869,-0.497336 z M 69.2646,55.076161 c 0.328242,-0.145029 0.75225,-0.343578 0.94224,-0.441219 0.189991,-0.09764 0.505995,-0.177529 0.702232,-0.177529 0.431728,0 1.63795,-1.232629 1.63795,-1.673811 0,-0.173544 0.08637,-0.315536 0.191936,-0.315536 0.298124,0 0.603803,0.704744 0.603803,1.392069 0,0.582167 0.04177,0.618449 0.644909,0.560149 0.437135,-0.04225 0.667179,-0.179817 0.714036,-0.426982 0.05868,-0.309502 0.0081,-0.331982 -0.334433,-0.148662 -0.387225,0.207237 -0.83255,-0.04337 -0.560501,-0.315419 0.156733,-0.156732 1.703812,0.137343 1.834437,0.348697 0.392478,0.635043 1.592195,-0.276696 1.436414,-1.091618 -0.05167,-0.270297 -0.02049,-0.609136 0.06928,-0.752976 0.23667,-0.379203 0.883166,0.07933 0.827854,0.58716 -0.034,0.312188 0.110316,0.419398 0.691529,0.513717 0.987174,0.160196 1.212722,-0.126743 0.345985,-0.440161 -0.763262,-0.275998 -0.925404,-0.800074 -0.298272,-0.964071 0.557556,-0.145806 0.49511,-0.428162 -0.149201,-0.674624 -0.385566,-0.147484 -0.648897,-0.146127 -0.89199,0.0046 -0.256056,0.158767 -0.546119,0.133359 -1.125894,-0.09862 -0.709961,-0.284071 -0.835982,-0.284041 -1.385881,3.98e-4 -0.332698,0.172044 -0.799353,0.312808 -1.037011,0.312808 -0.363105,0 -0.392235,-0.04804 -0.182421,-0.300854 0.189917,-0.228837 0.314802,-0.246817 0.521697,-0.07511 0.211043,0.175082 0.272007,0.153339 0.272007,-0.09708 0,-0.177518 -0.08952,-0.32276 -0.198935,-0.32276 -0.109414,0 -0.198934,-0.268562 -0.198934,-0.596804 0,-0.653864 0.213289,-0.760509 0.596804,-0.298402 0.136208,0.164121 0.326211,0.298402 0.422227,0.298402 0.09602,0 0.174577,-0.134281 0.174577,-0.298402 0,-0.164121 -0.07703,-0.298402 -0.171174,-0.298402 -0.09415,0 -0.50004,-0.223173 -0.901986,-0.495942 -0.663262,-0.450102 -0.741192,-0.463892 -0.84313,-0.149201 -0.421613,1.301556 -1.347017,2.819372 -2.103755,3.450504 -1.615447,1.347313 -3.437112,1.983441 -4.559483,1.59218 -0.349793,-0.121939 -0.682084,-0.175608 -0.738426,-0.119268 -0.173236,0.173237 1.016021,1.291898 1.373427,1.291898 0.18496,0 0.450209,0.137263 0.589442,0.305027 0.139232,0.167765 0.306854,0.276794 0.372495,0.242286 0.06564,-0.03451 0.387905,-0.181404 0.716147,-0.326434 z m 6.117242,-1.818555 c -0.463912,-0.18647 -0.58086,-0.484766 -0.26628,-0.679187 0.20313,-0.125542 1.406935,0.502567 1.408897,0.735119 0.0016,0.197318 -0.583877,0.168653 -1.142617,-0.05593 z m -1.442277,-0.590605 c 0,-0.109414 0.08952,-0.198935 0.198935,-0.198935 0.109414,0 0.198935,0.08952 0.198935,0.198935 0,0.109414 -0.08952,0.198934 -0.198935,0.198934 -0.109414,0 -0.198935,-0.08952 -0.198935,-0.198934 z m 2.287749,-0.39787 c -0.06762,-0.109414 0.0219,-0.198934 0.198935,-0.198934 0.177036,0 0.266556,0.08952 0.198934,0.198934 -0.06762,0.109414 -0.157142,0.198935 -0.198934,0.198935 -0.04179,0 -0.131313,-0.08952 -0.198935,-0.198935 z m 5.072835,0.509078 c 0,-0.04825 -0.08952,-0.143054 -0.198935,-0.210676 -0.109414,-0.06762 -0.198935,-0.02814 -0.198935,0.08773 0,0.115871 0.08952,0.210675 0.198935,0.210675 0.109414,0 0.198935,-0.03948 0.198935,-0.08773 z m -37.04164,-0.548865 c 0.405481,-0.40548 0.265349,-0.532508 -0.336734,-0.305245 -0.475241,0.179383 -0.635845,0.156824 -0.922206,-0.129536 -0.439944,-0.439946 -0.89216,-0.107441 -0.498681,0.36667 0.302064,0.363965 1.418503,0.407229 1.757621,0.06811 z m 35.649097,-0.125991 c 0,-0.259029 -0.236488,-0.431298 -0.428862,-0.312405 -0.205742,0.127157 -0.02834,0.478183 0.241668,0.478183 0.102957,0 0.187194,-0.0746 0.187194,-0.165778 z M 47.940303,50.710275 c 0.185178,-0.419714 0.336687,-0.953215 0.336687,-1.185557 0,-0.232342 0.233263,-0.638734 0.518362,-0.903092 0.350316,-0.324833 0.443967,-0.526634 0.288875,-0.622485 -0.347286,-0.214634 -0.807237,0.0344 -0.807237,0.437062 0,0.307193 -0.38954,1.481071 -0.892337,2.689054 -0.29694,0.713403 0.232143,0.318265 0.55565,-0.414982 z m -3.334207,-0.510092 c 0.202748,-1.080737 0.06305,-1.40503 -0.634562,-1.47303 -0.481647,-0.04695 -0.71811,0.06168 -1.048483,0.481684 -0.585017,0.74373 -0.215795,1.127845 0.467282,0.486127 0.504359,-0.473819 1.106898,-0.446978 1.106898,0.04931 0,0.149993 -0.228848,0.376985 -0.508555,0.504427 -0.555288,0.253007 -0.487575,0.627889 0.113411,0.627889 0.271375,0 0.412696,-0.189658 0.504009,-0.676405 z m -3.28962,0.07549 c 0.413751,-0.7731 -0.301481,-1.114786 -0.768421,-0.367096 -0.221128,0.35408 -0.220815,0.452614 0.0018,0.593759 0.399878,0.253442 0.530224,0.214899 0.766541,-0.226663 z M 51.65888,47.693633 c 0,-0.109414 -0.03948,-0.198934 -0.08773,-0.198934 -0.04825,0 -0.143054,0.08952 -0.210676,0.198934 -0.06762,0.109415 -0.02815,0.198935 0.08773,0.198935 0.115872,0 0.210676,-0.08952 0.210676,-0.198935 z m 17.788384,-1.314359 c 0.430417,-0.165166 0.394674,-0.419239 -0.09591,-0.681793 -0.541136,-0.289607 -1.111702,0.108107 -0.761118,0.530537 0.251106,0.302562 0.396065,0.328147 0.857031,0.151256 z m -15.003298,-9.129712 0.696271,-0.268132 -0.721648,-0.01514 c -0.415021,-0.0087 -0.826872,0.111654 -0.969297,0.283267 -0.31586,0.380588 0.0064,0.380588 0.994674,0 z m 1.939585,-3.19956 c -0.189575,-0.189577 -0.569648,0.117491 -0.428366,0.346087 0.08397,0.135872 0.195246,0.132441 0.338117,-0.01042 0.117125,-0.117125 0.157737,-0.26817 0.09025,-0.335657 z m 19.252344,-3.075596 c 0.07058,-0.114208 0.02431,-0.332993 -0.102833,-0.48619 -0.184061,-0.221779 -0.33957,-0.232066 -0.763132,-0.05047 -0.736287,0.315666 -0.757915,0.343701 -0.426734,0.553146 0.394183,0.249289 1.134276,0.239851 1.292699,-0.01649 z M 72.230859,27.20336 c 0.148201,-2.183151 0.0064,-2.610852 -0.701125,-2.115258 -0.25508,0.178665 -0.653791,0.324846 -0.886023,0.324846 -0.564378,0 -1.115469,0.616548 -0.884756,0.989847 0.0967,0.156471 0.127547,0.525876 0.06854,0.820902 -0.08463,0.423127 -0.01884,0.564482 0.311448,0.669314 0.230302,0.07309 0.418731,0.216387 0.418731,0.318429 0,0.10204 0.13709,0.185528 0.304645,0.185528 0.167557,0 0.360494,0.156662 0.428752,0.348136 0.06826,0.191475 0.215385,0.465692 0.326949,0.609375 0.330813,0.426044 0.471388,-0.06739 0.612838,-2.151119 z m -1.673184,0.39787 c 0,-0.109414 0.08424,-0.198935 0.187194,-0.198935 0.102957,0 0.242521,0.08952 0.310143,0.198935 0.06762,0.109414 -0.01661,0.198934 -0.187193,0.198934 -0.170579,0 -0.310144,-0.08952 -0.310144,-0.198934 z m 4.575498,1.332862 c 0,-0.251652 0.111901,-0.576164 0.248669,-0.721138 0.198934,-0.210871 0.198934,-0.281825 0,-0.354766 -0.136768,-0.05015 -0.248669,-0.262761 -0.248669,-0.47247 0,-0.312218 -0.144156,-0.381292 -0.795738,-0.381292 -0.663115,0 -0.795739,0.06631 -0.795739,0.397869 0,0.265246 0.132624,0.397869 0.397869,0.397869 0.331559,0 0.39787,0.132624 0.39787,0.795739 0,0.663115 0.06631,0.795739 0.397869,0.795739 0.282545,0 0.397869,-0.132624 0.397869,-0.45755 z m 3.182955,0.05968 c 0,-0.265246 -0.132623,-0.39787 -0.397869,-0.39787 -0.265246,0 -0.397869,0.132624 -0.397869,0.39787 0,0.265245 0.132623,0.397869 0.397869,0.397869 0.265246,0 0.397869,-0.132624 0.397869,-0.397869 z M 65.186439,28.315254 c 2.199857,-0.421369 3.978694,-0.932568 3.978694,-1.143391 0,-0.09209 -0.08952,-0.167437 -0.198935,-0.167437 -0.109414,0 -0.198935,-0.176233 -0.198935,-0.391627 0,-0.284435 0.09113,-0.356656 0.332939,-0.263865 0.266613,0.10231 0.301746,0.05153 0.176366,-0.254911 -0.08612,-0.210471 -0.199456,-0.531058 -0.251865,-0.712417 -0.05241,-0.181359 -0.243674,-0.367777 -0.425032,-0.414262 -0.580571,-0.148809 -3.658419,0.232133 -5.302449,0.656276 -2.086101,0.538194 -2.487346,0.807693 -2.487346,1.670636 0,0.624696 0.08286,0.716777 1.044407,1.160652 0.617236,0.28493 1.166455,0.421205 1.342809,0.33318 0.164121,-0.08192 1.059327,-0.294694 1.989347,-0.472834 z m 14.721167,-0.912959 c 0,-0.265246 -0.132624,-0.397869 -0.39787,-0.397869 -0.265245,0 -0.397869,0.132623 -0.397869,0.397869 0,0.265246 0.132624,0.397869 0.397869,0.397869 0.265246,0 0.39787,-0.132623 0.39787,-0.397869 z m 1.591477,0 c 0,-0.265246 -0.132623,-0.397869 -0.397869,-0.397869 -0.265246,0 -0.397869,0.132623 -0.397869,0.397869 0,0.265246 0.132623,0.397869 0.397869,0.397869 0.265246,0 0.397869,-0.132623 0.397869,-0.397869 z m 3.38189,0 c 0,-0.291771 -0.132624,-0.397869 -0.497337,-0.397869 -0.364713,0 -0.497336,0.106098 -0.497336,0.397869 0,0.291772 0.132623,0.397869 0.497336,0.397869 0.364713,0 0.497337,-0.106097 0.497337,-0.397869 z M 27.947737,63.887214 c -0.137404,-0.249801 0.333257,-8.222272 1.137196,-19.262783 0.158772,-2.180423 0.23863,-4.014454 0.177462,-4.075623 -0.06117,-0.06117 -0.26156,-0.112358 -0.445312,-0.113754 -0.183752,-0.0014 -0.334095,-0.136818 -0.334095,-0.300939 0,-0.181512 0.175338,-0.292215 0.447604,-0.282606 0.352446,0.01243 0.447718,-0.09329 0.448144,-0.497337 1.99e-4,-0.282223 0.181709,-2.833111 0.403133,-5.66864 0.41638,-5.33212 0.638741,-6.387761 1.491123,-7.078976 0.338543,-0.274532 0.355226,-0.266576 0.208567,0.09947 -0.432351,1.079095 -0.686281,2.669196 -0.889529,5.570171 -0.215838,3.080691 -1.490444,23.320561 -1.710058,27.154585 -0.160222,2.797107 -0.314639,3.923332 -0.589467,4.299182 -0.135368,0.185124 -0.290513,0.255887 -0.344768,0.157252 z m -4.139714,-2.256411 c 0,-0.102957 0.08952,-0.242521 0.198935,-0.310143 0.109414,-0.06762 0.198935,0.01661 0.198935,0.187193 0,0.170579 -0.08952,0.310143 -0.198935,0.310143 -0.109414,0 -0.198935,-0.08424 -0.198935,-0.187193 z M 45.352119,25.309526 c 0.306069,-0.174362 1.066994,-0.481412 1.690945,-0.682336 0.623953,-0.200922 2.029665,-0.720366 3.123806,-1.154321 1.09414,-0.433954 2.257908,-0.849449 2.586151,-0.923325 1.054539,-0.237335 1.690945,-0.559221 1.690945,-0.85526 0,-0.177309 0.172514,-0.27453 0.447603,-0.252245 0.892114,0.07226 1.143874,-0.01092 1.143874,-0.377944 0,-0.38207 -0.09312,-0.404745 -3.083488,-0.75083 -0.54707,-0.06332 -1.36915,-0.105147 -1.826845,-0.09296 -0.766038,0.0204 -0.837181,-0.02125 -0.895206,-0.524119 -0.06812,-0.590323 -0.759306,-0.92288 -0.759306,-0.365332 0,0.172142 -0.08952,0.312988 -0.198934,0.312988 -0.109415,0 -0.198935,-0.173556 -0.198935,-0.385681 0,-0.310891 0.183235,-0.408607 0.94494,-0.503915 0.519717,-0.06503 1.482063,-0.292659 2.138548,-0.505845 0.656484,-0.213185 2.536417,-0.65178 4.177628,-0.974653 2.785215,-0.547936 4.237987,-0.780542 7.460051,-1.194447 l 1.293075,-0.166109 -1.104109,-0.02455 c -3.342765,-0.07434 -12.671268,1.111971 -15.726893,1.999997 -0.527412,0.153278 -0.835872,0.145 -1.165232,-0.03127 -0.323946,-0.173372 -0.508107,-0.179563 -0.665304,-0.02237 -0.296046,0.296046 -0.726286,0.271122 -1.401837,-0.08121 -0.65017,-0.339094 -0.924234,-0.245226 -0.924234,0.316555 0,0.485337 -0.572001,0.736534 -0.817797,0.359141 -0.09946,-0.152712 -0.13409,-0.501459 -0.07695,-0.774994 l 0.103884,-0.497336 -0.457512,0.54707 c -0.456523,0.545887 -0.939903,0.72493 -0.939903,0.348136 0,-0.261331 -0.918752,-0.253704 -1.791725,0.01488 -0.382227,0.117594 -1.221503,0.204045 -1.865057,0.192109 -0.965989,-0.01792 -1.219543,0.04889 -1.453556,0.382993 -0.209193,0.298665 -0.502017,0.403897 -1.117651,0.401649 -0.75742,-0.0028 -1.557362,-0.270181 -1.325768,-0.443194 0.594763,-0.444319 2.280171,-0.932912 2.579644,-0.74783 0.144894,0.08955 0.533505,-0.01098 0.91693,-0.237209 0.366,-0.215946 1.182412,-0.556948 1.814248,-0.75778 1.327627,-0.421997 3.424028,-1.199634 4.431217,-1.643712 0.382949,-0.168846 1.143874,-0.36752 1.690944,-0.441498 0.547071,-0.07398 1.263236,-0.206954 1.591478,-0.295505 0.328242,-0.08855 1.223448,-0.262149 1.989347,-0.385773 6.926649,-1.118034 7.399069,-1.148308 16.283827,-1.043518 l 5.74029,0.0677 1.122957,0.531275 c 1.756812,0.831155 2.628611,1.431373 2.82348,1.943916 0.131488,0.345842 0.332555,0.47215 0.751609,0.47215 0.314655,0 1.010654,0.240627 1.546667,0.534726 0.536014,0.294101 2.11646,1.122167 3.512105,1.840146 1.395644,0.717981 2.514652,1.39494 2.486683,1.504354 -0.02797,0.109414 -0.408934,0.18112 -0.84659,0.159347 -1.219227,-0.06066 -9.100092,0.318805 -11.339277,0.545984 -3.225275,0.327224 -7.680829,0.98267 -8.774532,1.2908 -0.558844,0.157445 -1.45405,0.299943 -1.989347,0.316666 -0.535298,0.01673 -1.084936,0.118217 -1.221419,0.225542 -0.136483,0.107327 -0.760492,0.236547 -1.386685,0.287158 -0.626194,0.05061 -1.32021,0.192525 -1.542261,0.315364 -0.222051,0.122838 -0.985612,0.291505 -1.696803,0.374812 -0.711192,0.08331 -1.96448,0.292494 -2.785086,0.464855 -0.820605,0.172361 -1.974803,0.402371 -2.564881,0.511133 -0.590078,0.108764 -1.574804,0.381302 -2.188281,0.605641 -0.613477,0.22434 -1.428733,0.44819 -1.811683,0.497446 l -0.696271,0.08955 0.556486,-0.31702 z m -3.04317,-7.853965 c 0,-0.109415 -0.03948,-0.198935 -0.08773,-0.198935 -0.04825,0 -0.143054,0.08952 -0.210676,0.198935 -0.06762,0.109414 -0.02815,0.198934 0.08773,0.198934 0.115871,0 0.210675,-0.08952 0.210675,-0.198934 z m 25.807633,-1.711668 c -0.0661,-0.0661 -0.237688,-0.07317 -0.381293,-0.0157 -0.158696,0.0635 -0.111558,0.110643 0.120191,0.120188 0.209709,0.0086 0.327206,-0.03838 0.261102,-0.104484 z M 37.387285,15.149265 c 0.212765,-0.212765 5.756619,-1.67016 8.601956,-2.261323 4.793349,-0.995892 8.436989,-1.43441 12.853161,-1.546892 4.21283,-0.107305 7.139776,0.04125 7.139776,0.362378 0,0.102397 -1.413507,0.183338 -3.232689,0.18511 -6.337978,0.0062 -13.959536,1.000992 -23.524027,3.07052 -1.494372,0.323346 -2.026365,0.378395 -1.838177,0.190207 z"
     style="fill:#5772cf;fill-opacity:1" />
  <g
     id="g4164"
     transform="matrix(0.19893469,0,0,0.19893469,-11.232902,-20.669861)">
    <path
       style="fill:#909090"
       d="m 201.48685,545.12349 c -2.28581,-1.91691 -4.98581,-3.4118 -6,-3.32198 -5.71969,0.50655 -7.03243,-0.2511 -13.89514,-8.01959 -3.82187,-4.32631 -8.74885,-10.25424 -10.94885,-13.17318 -2.2,-2.91894 -4.94796,-6.24173 -6.10657,-7.38399 -2.77323,-2.73405 -5.06191,-7.29274 -5.89751,-11.74685 -1.11049,-5.91947 1.05142,-5.23002 3.96613,1.26481 1.6831,3.75045 4.45903,7.6441 7.29342,10.23013 7.82752,7.1416 16.60759,15.9915 20.25172,20.41277 1.92105,2.33073 6.30531,6.30412 9.74281,8.82977 3.4375,2.52564 6.25,5.00619 6.25,5.51231 0,1.29184 -0.0307,1.2747 -4.65601,-2.6042 z m 154.34528,-10.91765 c -2.64589,-1.41142 -9.39589,-5.43387 -15,-8.93879 -5.6041,-3.50491 -11.98927,-7.26894 -14.18927,-8.36451 -2.2,-1.09557 -7.59753,-4.08084 -11.99451,-6.63395 -4.39699,-2.5531 -9.8259,-5.34142 -12.06426,-6.19626 l -4.06975,-1.55425 -9.88761,6.56493 c -11.22537,7.45314 -14.73351,8.21666 -17.88661,3.89289 -1.59704,-2.18997 -1.7008,-2.93252 -0.64587,-4.62175 0.80195,-1.28412 1.35049,-6.75301 1.5155,-15.1094 0.16107,-8.15704 0.87013,-15.35986 1.87993,-19.09682 0.89173,-3.3 2.101,-8.54223 2.68726,-11.6494 1.27102,-6.73625 0.80241,-6.47999 19.96592,-10.91825 7.425,-1.71963 15.975,-3.73437 19,-4.4772 4.9925,-1.22598 5.73068,-1.18548 8,0.43887 4.53564,3.24655 27.75618,17.10598 28.65992,17.10598 0.48713,0 3.2772,1.575 6.20017,3.5 2.92296,1.925 5.62267,3.5 5.99935,3.5 0.37668,0 2.2499,1.272 4.16272,2.82666 3.92736,3.19201 19.30532,12.32229 28.76524,17.07865 3.5405,1.78013 6.70408,4.1297 7.24113,5.37797 0.52455,1.21919 1.8321,3.34172 2.90566,4.71672 3.88908,4.98109 3.26922,6.08214 -4.93419,8.76461 -4.125,1.34885 -8.175,2.681 -9,2.96034 -0.9576,0.32425 -1.08317,0.66501 -0.34727,0.94239 0.634,0.23896 5.03805,-0.50476 9.78678,-1.65272 4.74872,-1.14796 9.06749,-1.81931 9.59727,-1.49189 1.39872,0.86446 1.18,6.02268 -0.4175,9.84603 -1.10757,2.65079 -2.24509,3.53524 -5.75,4.47076 -4.01984,1.07296 -38.76717,9.73902 -43.36928,10.81639 -1.1,0.25752 -4.16483,-0.68659 -6.81073,-2.098 z m 18.31073,-14.55791 c 1.16887,-0.75538 0.89294,-0.97275 -1.25,-0.98469 -1.5125,-0.008 -2.75,0.43469 -2.75,0.98469 0,1.26441 2.04347,1.26441 4,0 z m 13.30918,-3.4512 3.19082,-1.40864 -3.5,0.58576 c -1.925,0.32217 -5.3,1.18435 -7.5,1.91596 l -4,1.3302 4.30918,-0.50732 c 2.37005,-0.27903 5.74505,-1.14121 7.5,-1.91596 z M 501.44255,501.2474 c -0.97328,-1.70453 -27.26661,-17.59646 -29.11641,-17.59822 -0.7242,-6.9e-4 -2.7492,-1.07788 -4.5,-2.39376 -3.915,-2.94245 -21.11962,-11.60749 -23.04694,-11.60749 -1.87286,0 -8.43472,7.3485 -9.16694,10.26588 -0.58732,2.3401 -5.89804,6.29632 -14.17304,10.55822 -2.82627,1.45562 -3.13878,0.8676 -4.25239,-8.00119 -0.74329,-5.91961 -0.64324,-7.60824 0.52745,-8.90182 1.05294,-1.1635 1.56855,-5.23365 1.90129,-15.00876 0.29559,-8.68379 1.26226,-17.10201 2.74192,-23.87799 2.69428,-12.33822 1.90889,-11.69464 18.78537,-15.39343 24.61076,-5.3939 23.83297,-5.30565 27.42344,-3.11151 7.67509,4.69025 22.82964,13.65737 32.07656,18.98007 5.5,3.1659 12.925,7.7062 16.5,10.08954 3.575,2.38335 8.25309,5.05702 10.39574,5.94149 2.14266,0.88447 4.50563,2.21801 5.25104,2.96342 0.74541,0.74541 4.75127,3.47191 8.90192,6.0589 4.88512,3.04476 7.44119,5.25117 7.24764,6.25618 -0.1991,1.03384 -3.13852,2.288 -8.79767,3.75368 -4.67427,1.21061 -12.42505,3.21298 -17.22395,4.4497 -4.79891,1.23673 -8.47354,2.65593 -8.16584,3.15378 0.30769,0.49786 1.33267,0.65978 2.27773,0.35983 0.94507,-0.29995 2.5947,0.11743 3.66585,0.92752 1.8404,1.39185 1.76201,1.47463 -1.4249,1.50469 -2.87074,0.0271 -3.18873,0.25317 -2.13752,1.5198 1.08269,1.30457 1.57909,1.24293 4.02681,-0.5 1.53554,-1.0934 3.73492,-1.988 4.88752,-1.988 1.1526,0 2.09563,-0.40718 2.09563,-0.90484 0,-0.49767 1.78365,-0.66561 3.96367,-0.37321 3.54949,0.47609 4.08873,0.25716 5.16051,-2.09515 0.74918,-1.64428 1.9971,-2.6268 3.33634,-2.6268 1.17671,0 2.57338,-0.4339 3.1037,-0.96422 0.53032,-0.53032 2.46861,-1.09282 4.30732,-1.25 2.65592,-0.22704 3.76977,0.27612 5.41881,2.44785 1.14164,1.5035 1.80339,3.00596 1.47055,3.33881 -0.64682,0.64681 -6.42698,2.0763 -13.7609,3.40319 -2.475,0.44779 -7.82025,1.72517 -11.87834,2.83863 -4.05809,1.11346 -7.99559,1.78761 -8.75,1.49812 -0.89475,-0.34335 -1.37166,0.20622 -1.37166,1.58063 0,2.41091 0.24397,2.47161 4.429,1.10186 1.68905,-0.55282 7.796,-2.17159 13.571,-3.59728 5.775,-1.42568 12.42404,-3.07683 14.77565,-3.66922 6.08212,-1.53213 6.7446,-0.35219 3.83495,6.83034 l -2.40683,5.94129 -22.35188,4.67363 c -24.307,5.08243 -28.33939,5.54988 -29.5522,3.42584 z M 480.64286,373.41173 c -1.65,-0.59307 -14.25,-7.50319 -28,-15.35584 -13.75,-7.85264 -25.84588,-14.41938 -26.87973,-14.59275 -1.39667,-0.23421 -2.22332,0.66267 -3.21679,3.49008 -0.73539,2.0929 -2.6974,5.2429 -4.36003,7 -1.66263,1.75709 -4.74757,5.01308 -6.85542,7.23553 -4.7023,4.95796 -13.81463,9.7472 -17.67796,9.29115 -5.03204,-0.594 -6.79074,-4.41768 -6.90749,-15.0179 l -0.10258,-9.31407 4.88564,-6.83344 c 2.6871,-3.75838 5.46481,-7.05568 6.17268,-7.32731 0.70787,-0.27164 1.54255,-1.15974 1.85485,-1.97356 0.40824,-1.06387 -1.25684,-2.33353 -5.92538,-4.5182 -9.2829,-4.34399 -13.23728,-4.67933 -16.98779,-1.44058 -4.53061,3.91241 -7.02975,3.44482 -8.85567,-1.65691 -4.681,-13.07895 -4.60992,-15.1672 1.35301,-39.75 1.53423,-6.325 3.55613,-15.89903 4.49312,-21.27561 0.93699,-5.37659 2.29654,-10.36853 3.02122,-11.09321 0.72467,-0.72468 6.52071,-2.31113 12.88008,-3.52544 l 11.56248,-2.20785 3.27288,3.17773 c 1.80009,1.74776 10.47288,6.85804 19.27288,11.35619 8.8,4.49814 25.675,13.30077 37.5,19.5614 11.825,6.26062 27.8,14.62358 35.5,18.58435 17.93893,9.22753 19.89972,11.3845 20.23821,22.26305 0.46752,15.02522 -3.30826,47.18344 -5.82913,49.64665 -2.00301,1.95718 -16.83669,5.52753 -22.57569,5.43379 -2.65837,-0.0434 -6.18339,-0.56418 -7.83339,-1.15725 z m -87,-8.7638 c -0.33992,-0.55 -1.06803,-1 -1.61803,-1 -0.55,0 -0.72189,0.45 -0.38197,1 0.33992,0.55 1.06803,1 1.61803,1 0.55,0 0.72189,-0.45 0.38197,-1 z m 17.46752,-8.93931 c 0.73319,-1.36998 0.7107,-2.14153 -0.0766,-2.62812 -1.17563,-0.72658 -2.84971,1.20472 -2.87559,3.31743 -0.0234,1.91052 1.78706,1.48779 2.95221,-0.68931 z m -3.96752,-2.06069 c 0,-0.55 -0.45,-1 -1,-1 -0.55,0 -1,0.45 -1,1 0,0.55 0.45,1 1,1 0.55,0 1,-0.45 1,-1 z m -4,-2.55343 c 0,-0.30438 -1.21271,-2.07327 -2.69492,-3.93086 -2.18016,-2.73232 -3.04366,-3.1908 -4.52067,-2.40033 -1.00416,0.53741 -2.26644,0.70474 -2.80508,0.37185 -0.53863,-0.3329 -0.97492,-0.0162 -0.96954,0.70375 0.0115,1.53197 6.69282,5.70032 9.24021,5.76475 0.9625,0.0243 1.75,-0.20477 1.75,-0.50916 z m 4.77749,-13.00327 c 3.13991,-2.19928 2.76828,-3.81262 -1.32824,-5.76611 -4.54772,-2.16866 -7.44925,-0.89316 -7.44925,3.27466 0,4.14224 4.56906,5.43915 8.77749,2.49145 z m 102.22251,-14.4433 c 0,-0.55 -0.42344,-1 -0.94098,-1 -0.51754,0 -1.2191,0.45 -1.55902,1 -0.33992,0.55 0.0835,1 0.94098,1 0.85746,0 1.55902,-0.45 1.55902,-1 z"
       id="path4153"
       inkscape:connector-curvature="0" />
    <path
       style="fill:#707070"
       d="m 318.20275,511.31508 c -1.89205,-1.19193 -12.46705,-6.89215 -23.5,-12.66715 -22.55069,-11.80377 -21.5592,-10.69762 -19.71966,-22 0.58185,-3.575 1.32464,-8.97888 1.65064,-12.00861 0.326,-3.02974 0.96184,-6.10586 1.41299,-6.83583 0.45114,-0.72997 8.19483,-3.07826 17.2082,-5.21844 9.01337,-2.14017 18.38621,-4.37276 20.82854,-4.96131 3.98152,-0.95946 4.75387,-0.83848 7.47078,1.17021 1.66659,1.23217 9.34332,5.95094 17.0594,10.48616 23.40869,13.75874 24.52922,14.46034 24.52922,15.35836 0,1.03319 -5.82745,2.74405 -24,7.04608 -7.425,1.75774 -13.8164,3.48247 -14.20312,3.83275 -0.38671,0.35027 -1.25078,6.82296 -1.92016,14.38375 -0.75622,8.54173 -1.62592,13.71551 -2.29688,13.66403 -0.59391,-0.0456 -2.62789,-1.05806 -4.51995,-2.25 z m 184.94011,-11.66715 c 0,-0.55 0.64844,-1 1.44098,-1 0.79254,0 1.7191,0.45 2.05902,1 0.33992,0.55 -0.30852,1 -1.44098,1 -1.13246,0 -2.05902,-0.45 -2.05902,-1 z m 12.4968,-2.99647 c 1.37049,-1.51437 2.12968,-1.72848 3.14398,-0.88669 1.84968,1.5351 0.74867,2.88316 -2.35478,2.88316 -2.5311,0 -2.55082,-0.0499 -0.7892,-1.99647 z m 0.5032,-5.00353 c 0,-0.55 0.45,-1 1,-1 0.55,0 1,0.45 1,1 0,0.55 -0.45,1 -1,1 -0.55,0 -1,-0.45 -1,-1 z m -27.7371,-1.9812 -3.2371,-1.97371 2.2371,-2.27255 2.2371,-2.27254 0.33366,2.5 c 0.18352,1.375 1.04076,3.2875 1.90499,4.25 2.07993,2.31644 0.53397,2.21361 -3.47575,-0.2312 z m -9.2629,-5.0188 c -1.925,-1.05389 -4.46651,-1.93503 -5.6478,-1.95808 -1.18128,-0.0231 -5.00628,-1.77721 -8.5,-3.89812 -3.49371,-2.12091 -14.2272,-8.01737 -23.8522,-13.10323 -9.625,-5.08587 -18.14244,-9.85909 -18.92764,-10.60716 -1.21716,-1.1596 -1.24168,-2.80301 -0.16627,-11.14677 2.13022,-16.52776 2.89829,-19.13412 6.13126,-20.80595 1.57483,-0.81438 3.75015,-1.48069 4.83403,-1.48069 1.81762,0 10.41367,-1.85391 25.77426,-5.55874 l 6.14563,-1.48226 7.35437,4.83071 c 4.0449,2.6569 10.50436,6.56564 14.35436,8.68609 6.50178,3.58096 18.80734,10.77715 24.40409,14.27131 3.26636,2.03925 2.62358,2.3022 -16.40409,6.71051 -8.8,2.03877 -16.50297,3.85789 -17.11772,4.04248 -0.61475,0.18458 -1.34433,1.52102 -1.62129,2.96986 -0.69754,3.64898 0.30198,11.60916 1.37448,10.94631 0.48393,-0.29908 1.54338,0.11973 2.35434,0.93069 0.81096,0.81096 2.04501,1.66482 2.74233,1.89747 0.8001,0.26694 1.2328,2.13099 1.17284,5.05252 -0.0523,2.54623 0.25415,4.41372 0.6809,4.14997 1.5841,-0.97902 2.01862,1.6957 0.74348,4.57646 -1.53896,3.47674 -1.32745,3.44131 -5.82936,0.97662 z m 4,-8.44098 c 0,-0.24254 -0.45,-0.7191 -1,-1.05902 -0.55,-0.33992 -1,-0.14148 -1,0.44098 0,0.58246 0.45,1.05902 1,1.05902 0.55,0 1,-0.19844 1,-0.44098 z m 36.5,-5.55902 c 0.33992,-0.55 1.2561,-1 2.03596,-1 0.77987,0 2.12524,-1.07949 2.98974,-2.39887 0.86449,-1.31938 3.01236,-2.9398 4.77305,-3.60092 1.76069,-0.66113 4.2271,-1.68982 5.48091,-2.28599 1.8294,-0.86984 3.19093,-0.6412 6.89335,1.15757 2.57603,1.25154 4.21914,2.60934 3.72034,3.07436 -0.93649,0.87308 -22.30631,6.05385 -24.97111,6.05385 -0.84715,0 -1.26216,-0.45 -0.92224,-1 z m -35.29733,-97.84245 c -1.037,-0.66672 -0.98684,-1.09179 0.25,-2.11827 0.90131,-0.74802 1.54733,-2.87589 1.54733,-5.09663 0,-2.09685 0.52075,-5.07925 1.15723,-6.62755 0.63647,-1.54831 1.31231,-5.9651 1.50186,-9.8151 0.18955,-3.85 0.6813,-11.5 1.09277,-17 l 0.74814,-10 3.5,0.27303 c 1.925,0.15017 3.99961,0.93767 4.61024,1.75 0.61064,0.81233 2.00339,1.47697 3.09502,1.47697 1.09162,0 2.75606,0.85227 3.69874,1.89393 1.56487,1.72915 1.96874,1.76683 4.64226,0.43311 1.61055,-0.80345 3.31011,-1.22483 3.7768,-0.9364 1.36364,0.84278 0.0772,15.26973 -3.01887,33.8565 -1.09449,6.57047 -1.21791,6.77324 -4.71405,7.74442 -1.97458,0.54851 -4.22971,0.9998 -5.0114,1.00286 -0.78169,0.003 -2.13169,0.63358 -3,1.40114 -1.88007,1.66193 -12.02754,2.95046 -13.87607,1.76199 z m -85.12041,-7.08555 c -1.10843,-0.70159 -0.67207,-1.35197 2,-2.98095 5.79378,-3.53209 8.31491,-2.12182 3.28288,1.83637 -2.96374,2.33128 -3.29474,2.40299 -5.28288,1.14458 z m -18.08226,-48.10275 c -4.125,-1.62904 -8.0074,-2.96355 -8.62756,-2.96558 -3.01519,-0.01 -3.28796,-2.61994 -1.83472,-17.55593 2.55892,-26.29976 4.44283,-40.46544 5.81984,-43.76108 1.30429,-3.1216 1.6553,-3.2717 12.7068,-5.43356 7.06937,-1.38288 11.71973,-1.86901 12.30268,-1.28606 1.33349,1.33349 -2.2964,2.6025 -13.11704,4.58572 -5.0875,0.93245 -9.25,1.90904 -9.25,2.1702 0,0.26117 1.65536,3.46784 3.67858,7.12594 6.37121,11.51954 6.53018,11.956 5.84074,16.03675 -0.68934,4.08014 1.07274,7.11435 4.13156,7.11435 1.1472,0 1.35411,0.70078 0.86475,2.92882 -0.37295,1.69805 -0.006,4.80625 0.87354,7.39649 2.25188,6.63275 2.10761,20.00941 -0.26358,24.44003 -1.57676,2.94619 -4.02567,2.79766 -13.12559,-0.79609 z m 96.5442,-11.05629 c -4.87953,-2.79787 -9.81064,-5.45283 -10.95803,-5.8999 -1.1474,-0.44708 -3.72389,-1.93557 -5.72555,-3.30776 -2.00166,-1.37219 -7.32048,-4.45473 -11.8196,-6.8501 -15.67564,-8.34582 -17.83893,-12.14673 -6.69499,-11.76314 3.38468,0.1165 7.53083,-0.12067 9.21365,-0.52705 2.65085,-0.64015 5.99131,0.76978 25,10.55191 12.06718,6.20993 24.63425,12.66205 27.92684,14.33804 3.29259,1.676 6.13255,3.80553 6.31103,4.7323 0.46102,2.39388 -5.39049,3.80034 -15.83951,3.80716 -8.44459,0.006 -8.64311,-0.0524 -17.41384,-5.08146 z"
       id="path4151"
       inkscape:connector-curvature="0" />
    <path
       style="fill:#4b4b4b"
       d="m 314.64286,508.5117 c -3.3,-1.72257 -8.925,-4.81073 -12.5,-6.86259 -3.575,-2.05186 -11.14853,-6.12108 -16.83007,-9.0427 l -10.33007,-5.31205 0.70165,-9.35868 c 0.3859,-5.14727 1.20944,-11.92087 1.83007,-15.05246 l 1.12842,-5.69379 8.5,-2.21124 c 16.20493,-4.21565 34.17387,-7.66443 34.84477,-6.68776 0.72736,1.05886 6.51352,5.24218 9.64116,6.97042 4.85288,2.68158 26.79501,15.52505 29.06976,17.01553 1.3787,0.90336 2.28645,1.86274 2.01722,2.13197 -0.26923,0.26923 -8.41362,2.39863 -18.09866,4.732 -9.68503,2.33336 -18.06367,4.697 -18.61918,5.25251 -0.55552,0.55552 -1.5204,6.91517 -2.14419,14.13255 -0.66375,7.67991 -1.56481,13.12163 -2.17251,13.12038 -0.5711,-10e-4 -3.73837,-1.41152 -7.03837,-3.13409 z m 152.83219,-28.74078 c -1.1923,-0.99576 -11.38858,-6.84751 -22.6584,-13.00389 -11.26982,-6.15638 -21.03963,-11.85498 -21.71068,-12.66355 -1.29956,-1.56587 -0.83568,-10.18116 1.19832,-22.25545 1.20746,-7.16777 2.64049,-8.56928 9.83857,-9.62219 2.475,-0.36204 6.75,-1.28728 9.5,-2.05609 2.75,-0.76881 8.64073,-2.15795 13.0905,-3.08698 l 8.0905,-1.68914 6.9095,4.95248 c 3.80023,2.72386 9.3845,6.21027 12.4095,7.74757 12.04719,6.12237 26.08741,14.92365 24.8098,15.55232 -0.72039,0.35448 -8.59682,2.39277 -17.50317,4.52953 -18.22407,4.37221 -17.20145,3.54278 -17.8434,14.4724 -0.731,12.44563 -1.70353,18.99892 -2.81472,18.96673 -0.63168,-0.0183 -2.12403,-0.84798 -3.31632,-1.84374 z M 371.72826,304.39793 c 0.28754,-4.5375 0.96043,-11.92657 1.49531,-16.42015 0.53489,-4.49358 0.88568,-8.54358 0.77954,-9 -0.50375,-2.16611 1.51919,-17.44632 2.38014,-17.97842 1.5672,-0.96858 -0.7479,40.06902 -2.78678,49.39857 -0.27044,1.2375 -0.91905,2.25 -1.44136,2.25 -0.56504,0 -0.73791,-3.34129 -0.42685,-8.25 z"
       id="path4149"
       inkscape:connector-curvature="0" />
  </g>
  <g
     id="g4908"
     transform="translate(-1.059322,-1.0593221)">
    <g
       transform="matrix(0.46461915,0,0,0.46461915,-0.24157223,-0.24157214)"
       id="g4864">
      <circle
         r="26.666315"
         cy="48.465099"
         cx="49.137928"
         style="fill:url(#radialGradient3866);fill-opacity:1;stroke:#000000;stroke-width:5.47299242;stroke-miterlimit:4;stroke-dasharray:none;stroke-opacity:1"
         id="path3008-3"
         transform="matrix(1.5730337,0,0,1.5730337,-27.295617,-26.237235)" />
      <g
         id="g3856"
         transform="translate(3.5e-6,-3.072032)">
        <path
           sodipodi:nodetypes="cccsscssccccsscc"
           d="m 54.157422,41.407984 -14.887542,0.87108 0,3.405129 4.038642,0 c 2.929995,0 3.405129,0.554323 3.405129,3.959452 l 0,18.926183 0,3.167562 c 0,3.167562 -0.871085,3.721885 -5.939179,3.721885 l -0.554323,0 0,2.850806 20.509964,0 0,-2.850806 -0.554324,0 c -5.147282,0 -6.018367,-0.554323 -6.018367,-3.721885 l 0,-3.167562 0,-27.161844"
           id="path3835"
           inkscape:connector-curvature="0"
           style="font-style:normal;font-variant:normal;font-weight:500;font-stretch:normal;font-size:14px;line-height:125%;font-family:'Century Schoolbook L';-inkscape-font-specification:'Century Schoolbook L Medium';letter-spacing:0px;word-spacing:0px;fill:#000000;fill-opacity:1;stroke:none" />
        <path
           sodipodi:nodetypes="csssc"
           d="m 49.799946,27.833983 c -2.534044,0 -4.592965,2.058916 -4.592965,4.592965 0,2.454861 2.058921,4.592965 4.513776,4.592965 2.613239,0 4.672154,-2.058915 4.672154,-4.592965 0,-2.534049 -2.058915,-4.592965 -4.592965,-4.592965"
           id="path3835-9"
           inkscape:connector-curvature="0"
           style="font-style:normal;font-variant:normal;font-weight:500;font-stretch:normal;font-size:14px;line-height:125%;font-family:'Century Schoolbook L';-inkscape-font-specification:'Century Schoolbook L Medium';letter-spacing:0px;word-spacing:0px;fill:#000000;fill-opacity:1;stroke:none" />
      </g>
    </g>
  </g>
  <path
     style="fill:#000000"
     d="m 51.959582,99.242297 c 0.908077,-0.27237 1.057203,-0.35461 0.498377,-0.27487 -1.399075,0.19965 -0.675631,-0.0681 2.193155,-0.81195 1.534865,-0.39793 3.418622,-0.895555 4.186132,-1.105848 0.76751,-0.210277 2.471976,-0.645193 3.787714,-0.966471 1.315722,-0.321278 3.109894,-0.777987 3.987053,-1.014901 1.650353,-0.44577 4.041234,-0.721544 3.466385,-0.399839 -0.903642,0.505705 -16.492995,4.586249 -18.517525,4.846989 -0.793497,0.1022 -0.747463,0.0707 0.398709,-0.27311 z m 2.736949,-0.71577 c -0.06625,-0.0662 -0.238198,-0.0733 -0.382103,-0.0154 -0.159038,0.0636 -0.111789,0.11093 0.12052,0.12035 0.210139,0.008 0.327886,-0.0385 0.261651,-0.10477 z m 0.7974,-0.19936 c -0.06625,-0.0662 -0.238181,-0.0733 -0.382085,-0.0154 -0.159039,0.0636 -0.11179,0.11093 0.120519,0.12052 0.210157,0.008 0.327903,-0.0385 0.261652,-0.10477 z m 9.170247,-2.392228 c -0.06625,-0.06625 -0.238198,-0.07327 -0.382103,-0.01541 -0.159038,0.06368 -0.111789,0.110933 0.120521,0.120349 0.210139,0.0085 0.327885,-0.03852 0.26165,-0.10477 z m 2.19288,-0.598062 c -0.06625,-0.06625 -0.238197,-0.07327 -0.382102,-0.01541 -0.159039,0.06368 -0.111789,0.110933 0.120519,0.12052 0.21014,0.0085 0.327886,-0.03852 0.261652,-0.104771 z m 1.395463,-0.39871 c -0.06625,-0.06625 -0.23818,-0.07327 -0.382085,-0.01541 -0.159038,0.06368 -0.11179,0.110933 0.12052,0.12052 0.210157,0.0085 0.327902,-0.03852 0.261651,-0.10477 z m -29.864029,1.978907 -0.483295,-0.533781 0.647897,0.44767 c 0.653837,0.451779 0.784886,0.61989 0.483295,0.61989 -0.09056,0 -0.382086,-0.2402 -0.647897,-0.533779 z m -3.99152,-3.307639 c -1.600587,-1.341006 -3.71833,-3.128655 -4.706132,-3.972534 -1.577355,-1.34758 -1.918611,-1.550616 -2.80356,-1.668003 -1.22148,-0.16212 -1.121725,-0.06368 -5.988984,-5.909499 -3.171539,-3.809233 -4.201676,-5.141903 -3.974657,-5.141903 0.03526,0 1.451374,1.631967 3.14682,3.626588 5.974021,7.028194 5.763813,6.815726 6.944189,7.018641 1.054584,0.181294 1.335563,0.384602 5.099721,3.689844 0.323658,0.284198 -0.147397,-0.281424 -1.046606,-1.256916 -0.899277,-0.97551 -1.635064,-1.869548 -1.635064,-1.986781 0,-0.117268 1.054087,0.834137 2.342399,2.114131 1.288314,1.280011 2.880649,2.824548 3.53851,3.432335 0.657861,0.60777 1.196126,1.195819 1.196126,1.306768 0,0.110934 0.269115,0.421598 0.598046,0.690336 0.32893,0.268722 0.508357,0.490092 0.398708,0.491906 -0.109564,0.0017 -1.508913,-1.093889 -3.109516,-2.434913 z m 2.013076,1.174368 c 0,-0.04143 -0.515822,-0.49795 -1.146274,-1.014336 l -1.146275,-0.938874 1.09644,1.012145 c 1.083498,1.000178 1.196109,1.088788 1.196109,0.941065 z m -2.392235,-1.980448 c 0,-0.03424 -0.291559,-0.325865 -0.647897,-0.647896 l -0.647897,-0.585515 0.585515,0.647897 c 0.545797,0.603918 0.710279,0.73952 0.710279,0.585514 z M 26.353398,86.521889 25.766,85.788703 l 0.736917,0.686998 c 0.761519,0.709955 0.841637,0.818234 0.587381,0.793754 -0.08218,-0.0085 -0.413842,-0.344321 -0.7369,-0.747566 z M 57.911981,85.408586 C 56.745215,84.712601 55.399587,83.875313 54.921684,83.54794 54.443781,83.220567 53.828513,82.885491 53.554399,82.803319 53.280285,82.721143 52.831742,82.462183 52.557628,82.227802 52.28353,81.993421 51.834987,81.673547 51.560873,81.516991 51.286759,81.36035 49.53744,80.33908 47.673489,79.247314 45.80954,78.155564 44.026102,77.171889 43.710302,77.06135 l -0.574199,-0.200964 0.148425,-1.416742 c 0.08166,-0.779219 0.164516,-1.82045 0.184169,-2.313846 0.07207,-1.805659 0.127539,-2.297856 0.287399,-2.549749 0.182457,-0.287587 3.003856,-1.025994 7.832801,-2.049951 1.07523,-0.227995 1.153722,-0.216405 1.794189,0.265007 0.752582,0.565707 4.985536,3.113368 5.753269,3.462704 0.642042,0.292141 2.61386,1.493745 2.995296,1.825295 0.161777,0.14055 0.921977,0.62316 1.689487,1.072422 0.767509,0.449279 1.485185,0.908025 1.594834,1.01942 0.197146,0.200348 -2.795924,-1.36345 -3.199307,-1.671528 -0.115041,-0.08782 -1.864275,0.237684 -3.887383,0.72329 -4.792926,1.150435 -4.666792,1.105103 -4.717653,1.695564 -0.0695,0.806645 -0.271872,3.622668 -0.321329,4.470364 -0.0428,0.733237 0.0085,0.816232 0.757015,1.212664 1.138777,0.603558 1.674697,0.918998 2.696804,1.587336 0.493396,0.32263 1.300777,0.802228 1.794173,1.065779 0.493394,0.263552 1.059548,0.621671 1.258132,0.795843 0.291832,0.255968 0.392134,0.266325 0.523285,0.05409 0.10186,-0.164858 0.208668,-0.187456 0.287057,-0.0606 0.08371,0.135414 0.355927,0.130963 0.827342,-0.01369 0.498959,-0.153047 0.628877,-0.267027 0.448337,-0.393042 -0.166057,-0.115898 -0.103572,-0.135243 0.180575,-0.05564 0.391244,0.109564 6.893841,-1.42436 7.964328,-1.878775 0.432982,-0.18381 0.736439,-1.377574 0.462752,-1.820398 -0.08474,-0.136955 -1.468785,0.13918 -4.010077,0.800071 -2.134452,0.555075 -3.974641,1.009233 -4.089323,1.009233 -0.1147,0 -0.492711,-0.515821 -0.840044,-1.146273 -0.347351,-0.630454 -0.737945,-1.298962 -0.867983,-1.48558 -0.308113,-0.442192 -0.14346,-0.582775 0.783003,-0.668337 l 0.760645,-0.07019 -0.795175,0.25727 c -0.43733,0.141576 -0.695472,0.294314 -0.573633,0.339595 0.121888,0.04519 0.46044,0.5566 0.752427,1.136294 0.325627,0.646477 0.617134,1.000675 0.753952,0.916123 0.138324,-0.08543 0.167084,-0.04743 0.07584,0.100319 -0.17162,0.277692 -0.360104,0.315937 4.45922,-0.904602 1.912107,-0.484254 3.606507,-0.830611 3.765323,-0.769667 0.38717,0.148596 0.185727,2.289605 -0.245079,2.6046 -0.164517,0.120178 -2.030299,0.65067 -4.146296,1.178681 -2.115998,0.528012 -4.19495,1.082009 -4.619902,1.231083 -0.424953,0.14911 -0.963201,0.268414 -1.196108,0.265179 -0.232926,-0.0034 -1.378105,-0.575329 -2.544871,-1.271314 z m -4.879327,-7.992696 0.129422,-1.196125 -0.876337,-0.548212 c -0.481994,-0.301522 -0.956473,-0.548229 -1.054395,-0.548229 -0.09792,0 -0.665924,-0.321312 -1.262224,-0.714011 -1.666701,-1.097674 -2.794093,-1.731259 -2.794093,-1.570303 0,0.08012 -0.220205,-0.07447 -0.489356,-0.34355 -0.269132,-0.269133 -0.807756,-0.587055 -1.19693,-0.706497 -0.66541,-0.204233 -0.714919,-0.188004 -0.830388,0.272077 -0.06762,0.269099 -0.07293,0.539173 -0.01199,0.600152 0.06094,0.06094 0.0291,0.325951 -0.07071,0.588784 -0.130278,0.342848 -0.112645,0.478741 0.06249,0.480932 0.152191,0.0017 0.169139,0.05821 0.04485,0.149452 -0.305974,0.224794 -0.28971,0.844187 0.02209,0.844187 0.336359,0 0.367842,0.518321 0.04365,0.718669 -0.156813,0.09689 -0.191531,0.03544 -0.105969,-0.187577 0.07002,-0.182457 0.0505,-0.331737 -0.04315,-0.331737 -0.187575,0 -0.361696,0.919957 -0.265006,1.400204 0.03356,0.167085 0.708876,0.683437 1.500524,1.147507 0.791665,0.464071 2.650445,1.549795 4.130649,2.41271 l 2.691257,1.568967 0.122917,-1.420679 c 0.06762,-0.781377 0.181191,-1.958929 0.252424,-2.616789 z m 3.853949,-2.293216 c 1.84036,-0.438922 3.562528,-0.847988 3.827039,-0.909001 0.432365,-0.09981 0.35187,-0.189545 -0.797418,-0.889416 -0.703073,-0.428137 -1.354189,-0.781616 -1.446906,-0.785485 -0.09279,-0.0034 -0.406704,-0.175713 -0.697732,-0.381864 -0.291045,-0.206151 -1.490561,-0.962619 -2.665613,-1.68103 l -2.136438,-1.306186 -2.149637,0.491941 c -2.688158,0.615199 -4.733556,1.078122 -5.638328,1.276107 -0.383747,0.08406 -0.537753,0.162976 -0.342232,0.175609 0.195519,0.01198 0.778637,0.248847 1.295793,0.524982 1.793197,0.957465 3.134666,1.732165 3.432216,1.982089 0.164517,0.138153 0.896024,0.580602 1.625683,0.983265 0.729659,0.402646 1.435882,0.863703 1.569396,1.024573 0.330745,0.39852 0.336292,0.397836 4.124177,-0.505584 z m -12.764959,-2.62831 c -0.06368,-0.159038 -0.110932,-0.111789 -0.120519,0.120349 -0.0085,0.210157 0.03852,0.327903 0.10477,0.261651 0.06625,-0.06625 0.07327,-0.238181 0.01541,-0.382086 z M 26.607517,85.240491 c -0.463985,-0.74474 -0.832085,-1.682245 -0.553536,-1.409825 0.240201,0.23491 1.026422,1.858368 0.899996,1.858368 -0.03681,0 -0.192764,-0.201853 -0.34646,-0.448543 z m 38.210324,-2.953422 c 2.215529,-0.580755 2.637742,-0.664469 2.461294,-0.48802 -0.144487,0.144487 -3.998214,1.101935 -4.350581,1.080947 -0.166913,-0.01027 0.683198,-0.276767 1.889287,-0.592927 z M 22.053747,81.599301 c -0.370359,-0.382103 -0.582861,-0.694736 -0.472219,-0.694736 0.257628,0 1.375536,1.159559 1.244368,1.290727 -0.05427,0.05427 -0.40179,-0.213871 -0.772149,-0.595991 z m 40.670882,-1.492153 c 0.274115,-0.08782 0.677805,-0.159552 0.897086,-0.159552 0.315715,0 0.294966,0.03321 -0.09963,0.159552 -0.274114,0.08782 -0.677804,0.159552 -0.897085,0.159552 -0.315715,0 -0.294966,-0.03321 0.09963,-0.159552 z M 88.59067,79.976186 c -0.191876,-0.05375 -0.348873,-0.218785 -0.348873,-0.366868 0,-0.296745 -5.17558,-3.489205 -5.656667,-3.489205 -0.165202,0 -0.354695,-0.08782 -0.421101,-0.195314 -0.15784,-0.255403 -8.815861,-5.408776 -9.299686,-5.535305 -0.434762,-0.113673 -0.453713,-0.471928 -0.171348,-3.240274 0.320457,-3.141769 0.35716,-3.276601 0.956268,-3.512162 0.295976,-0.116412 1.345543,-0.365121 2.332334,-0.552783 0.986791,-0.187644 2.586693,-0.535748 3.55532,-0.773535 1.62642,-0.399291 1.80179,-0.408382 2.292549,-0.118809 0.292278,0.172443 1.42852,0.851087 2.524965,1.508091 1.09644,0.656988 2.980314,1.762279 4.186399,2.45621 1.206094,0.693914 2.372293,1.413284 2.591592,1.598584 0.219281,0.185299 1.004235,0.670837 1.744336,1.078944 l 1.345632,0.742019 -0.0018,-0.764736 c -7.9e-4,-0.420604 0.08835,-1.437542 0.198084,-2.259868 0.109737,-0.822343 0.260185,-2.033415 0.334482,-2.691275 0.117267,-1.039022 0.153727,-1.117566 0.276716,-0.598046 0.136443,0.575894 0.143119,0.568498 0.180966,-0.199354 0.02158,-0.43858 0.08128,-0.695061 0.132678,-0.569954 0.05134,0.125143 -0.04656,1.823618 -0.217435,3.774499 -0.17248,1.968994 -0.233782,3.597246 -0.137812,3.659919 2.586367,1.688066 3.420537,2.304756 3.361155,2.48485 -0.03986,0.120863 -1.724912,0.638123 -3.744577,1.149631 -2.838792,0.718959 -3.740022,0.878665 -3.971214,0.703774 -0.164518,-0.124457 -0.115045,-0.0051 0.109902,0.266103 0.225003,0.270793 0.578945,0.823421 0.786553,1.228088 0.21805,0.42502 0.573856,0.785039 0.842527,0.852455 0.592307,0.148596 7.114713,-1.512217 6.778183,-1.726003 -0.363245,-0.230785 0.02057,-0.193653 0.466682,0.04519 0.212081,0.113501 0.3856,0.325815 0.3856,0.471791 0,0.284865 -0.787848,2.32665 -0.980423,2.540864 -0.09741,0.108366 -8.459114,1.898394 -9.684953,2.07325 -0.219281,0.03133 -0.5557,0.01369 -0.747567,-0.04074 z m 1.644664,-0.646956 c 0,-0.07344 0.156988,-0.145343 0.348864,-0.159895 1.573224,-0.11915 7.047359,-1.230484 7.373521,-1.496929 0.135579,-0.110761 0.402046,-0.141919 0.591985,-0.06899 0.18992,0.07293 0.294156,0.08131 0.231642,0.01883 -0.06245,-0.06249 0.09193,-0.538249 0.343087,-1.057151 0.421149,-0.869884 0.429405,-0.948051 0.105797,-1.002455 -0.193034,-0.03253 -1.286636,0.205568 -2.430224,0.528934 -1.143581,0.323367 -2.569194,0.69982 -3.168012,0.836569 -0.598836,0.136783 -1.226803,0.394035 -1.395482,0.571734 -0.168623,0.177698 -0.249632,0.246192 -0.1799,0.152191 0.0697,-0.09399 -0.168458,-0.634134 -0.529453,-1.200338 -0.360913,-0.566221 -0.833215,-1.310893 -1.049548,-1.654837 -0.407529,-0.647898 -0.331175,-1.171132 0.129418,-0.886524 0.2356,0.145686 6.129599,-1.210027 6.748823,-1.552258 0.232073,-0.128224 -2.879926,-2.418068 -3.286325,-2.418068 -0.09929,0 -0.790823,-0.392683 -1.536783,-0.87264 l -1.356258,-0.872622 -1.118435,0.27949 c -0.615147,0.153731 -2.344972,0.56403 -3.844056,0.911809 -2.304444,0.534618 -2.674105,0.670956 -2.392231,0.88226 0.297618,0.223133 0.288149,0.238574 -0.08835,0.143973 -0.404171,-0.101517 -0.429507,-0.0085 -0.609397,2.252644 -0.10323,1.297232 -0.150478,2.512891 -0.104942,2.701444 0.04554,0.188552 1.32719,1.085638 2.848039,1.993526 1.52084,0.907887 2.767011,1.756269 2.769271,1.88528 0.0064,0.387838 1.59892,0.471414 1.59892,0.08388 z m -7.689117,-5.950226 c 0.06677,-0.959382 0.161949,-2.118856 0.21139,-2.576592 l 0.08987,-0.832255 -2.834906,-1.625581 c -3.383408,-1.94008 -3.082228,-1.762296 -4.883761,-2.88272 l -1.45081,-0.902291 0.07139,0.69626 c 0.03937,0.382942 0.129079,0.753866 0.199422,0.824261 0.270519,0.270518 -0.11196,0.477919 -0.427144,0.231572 -0.28341,-0.221575 -0.299057,-0.215772 -0.108707,0.04023 0.285361,0.383609 0.464532,1.364221 0.262798,1.438348 -0.08491,0.03116 -0.179034,0.531639 -0.208958,1.112 -0.06249,1.212955 -0.52344,0.813596 4.009804,3.474449 1.480186,0.868823 2.780979,1.595571 2.890611,1.614985 0.109563,0.01934 0.253777,0.109563 0.320268,0.200141 0.1872,0.255198 1.247227,0.900733 1.505849,0.91703 0.150478,0.01027 0.273772,-0.595358 0.352743,-1.729769 z m 4.172986,-4.519736 c 1.722644,-0.385921 3.258316,-0.772304 3.412575,-0.858636 0.196469,-0.109906 -0.381585,-0.544668 -1.929544,-1.451118 -1.215545,-0.711769 -3.14396,-1.854825 -4.285391,-2.540094 -1.141449,-0.685269 -2.168402,-1.24596 -2.282126,-1.24596 -0.113673,0 -1.808758,0.374381 -3.766744,0.831947 l -3.559959,0.831964 1.2355,0.752599 c 0.679517,0.413927 1.639191,0.973163 2.132586,1.242724 0.493395,0.269577 1.967162,1.121845 3.275009,1.893943 1.307863,0.772081 2.435992,1.367901 2.506969,1.324041 0.07087,-0.04383 1.538481,-0.395507 3.261125,-0.78141 z m -5.454759,-3.504219 c 0,-0.109735 0.08971,-0.199355 0.199353,-0.199355 0.109735,0 0.199355,0.08971 0.199355,0.199355 0,0.109734 -0.08971,0.199354 -0.199355,0.199354 -0.109563,0 -0.199353,-0.08971 -0.199353,-0.199354 z m 13.298297,3.142128 c -0.04776,-0.247973 -0.08853,-0.0921 -0.09074,0.346546 -0.0018,0.43858 0.03683,0.641478 0.08679,0.450872 0.04978,-0.190607 0.0517,-0.549427 0.0037,-0.797418 z m 0.196504,-2.091722 c -0.05051,-0.193979 -0.09518,-0.08354 -0.09928,0.245389 -0.0037,0.32893 0.03729,0.487625 0.09193,0.352657 0.05464,-0.1349 0.05786,-0.404085 0.0064,-0.598046 z m 0.201896,-2.097012 c -0.04757,-0.24669 -0.08642,-0.04485 -0.08642,0.448543 0,0.493412 0.03885,0.695249 0.08642,0.448542 0.04757,-0.246689 0.04757,-0.650379 0,-0.897085 z M 20.984835,79.601068 c -0.19237,-0.501305 -0.135585,-0.630659 0.09946,-0.226523 0.116411,0.20009 0.169481,0.405812 0.118294,0.457136 -0.05136,0.05136 -0.14928,-0.05238 -0.21762,-0.230613 z m 43.29724,0.170507 c 0.143974,-0.05752 0.315852,-0.0505 0.382103,0.01541 0.06625,0.06625 -0.05153,0.113331 -0.261651,0.104771 -0.232241,-0.01027 -0.279473,-0.05684 -0.120521,-0.12052 z m 1.233498,-0.362193 c 0.383746,-0.147739 0.877159,-0.268705 1.09644,-0.268705 0.250798,0 0.139865,0.09964 -0.299023,0.268705 -0.383763,0.14774 -0.877159,0.268688 -1.096441,0.268688 -0.250814,0 -0.139864,-0.09964 0.299024,-0.268688 z m 2.19288,-0.598063 c 0.96303,-0.370856 1.709654,-0.364863 0.897086,0.0069 -0.32893,0.15065 -0.822326,0.271068 -1.09644,0.267678 -0.437262,-0.0051 -0.412816,-0.0392 0.199354,-0.274868 z M 20.67691,78.595359 c 0.01027,-0.23224 0.05684,-0.279472 0.120519,-0.12052 0.05752,0.143974 0.0505,0.315852 -0.01541,0.382103 -0.06625,0.06625 -0.113329,-0.05153 -0.10477,-0.261651 z m 47.629606,-0.581457 c -0.315748,-0.380442 -0.01969,-0.376591 0.486651,0.0069 0.309773,0.234295 0.324581,0.292689 0.0743,0.292689 -0.171998,0 -0.424404,-0.134558 -0.560897,-0.29904 z M 67.010721,77.211298 C 66.572142,76.941172 66.29243,76.7197 66.389137,76.719135 c 0.204181,-0.0012 1.51867,0.788463 1.51867,0.912322 0,0.126512 -0.03937,0.108023 -0.897086,-0.420159 z M 99.339112,74.39233 c -0.0731,-0.0731 -0.130106,-0.274936 -0.126855,-0.448543 0.0055,-0.25922 0.04381,-0.250609 0.217618,0.0481 0.214662,0.369144 0.152359,0.643584 -0.09073,0.40037 z m -0.503481,-1.389471 c -0.239485,-0.534362 -0.234351,-0.549787 0.08045,-0.241536 0.184988,0.181104 0.300116,0.43798 0.255832,0.570825 -0.04436,0.132846 -0.195642,-0.01541 -0.336346,-0.329289 z M 95.449984,60.769882 c 0,-0.274114 0.04518,-0.386246 0.100488,-0.249188 0.05529,0.137125 0.05529,0.36132 0,0.498377 -0.05529,0.137125 -0.100488,0.025 -0.100488,-0.249189 z m 0,-0.996771 c 0,-0.274098 0.04518,-0.386246 0.100488,-0.249189 0.05529,0.137126 0.05529,0.361337 0,0.498395 -0.05529,0.136954 -0.100488,0.02499 -0.100488,-0.249206 z m 0.224892,-1.694487 c 0.0018,-0.548228 0.04022,-0.748832 0.08614,-0.445803 0.04592,0.303029 0.04454,0.751571 -0.0037,0.996755 -0.0473,0.245199 -0.08477,-0.0034 -0.08339,-0.550952 z m -0.405454,-0.199353 c 0.0018,-0.43858 0.04298,-0.59452 0.09074,-0.346547 0.04776,0.247974 0.04583,0.606811 -0.0037,0.797417 -0.04978,0.19059 -0.0889,-0.01199 -0.0866,-0.45087 z m -11.09536,-3.717595 c -0.318493,-0.122917 -1.350152,-0.673919 -2.292571,-1.224338 -0.942417,-0.55042 -3.153735,-1.816667 -4.914028,-2.813884 -4.096187,-2.320505 -3.996621,-2.257814 -3.837719,-2.416732 0.153389,-0.153389 2.428133,1.05039 7.633977,4.040105 2.526262,1.450826 3.708896,2.026669 3.989395,1.942493 0.706415,-0.211988 1.893857,-0.259186 1.893857,-0.07532 0,0.09809 0.201859,0.177133 0.448544,0.175455 0.340167,-0.0017 0.380704,-0.04605 0.167769,-0.18078 -0.184511,-0.116753 0.05464,-0.170337 0.697736,-0.156299 0.538159,0.01199 1.302156,-0.121205 1.697802,-0.295633 0.69116,-0.304621 0.724562,-0.36673 0.852831,-1.584974 0.07347,-0.697355 0.260443,-2.165011 0.415611,-3.261451 0.155096,-1.096439 0.322066,-2.428869 0.370923,-2.960937 l 0.0889,-0.967412 -0.625717,0.141234 c -0.344143,0.07772 -0.814893,0.184649 -1.046095,0.237684 -0.493011,0.113159 -0.843583,-0.507416 -0.433629,-0.767544 0.39368,-0.249787 0.554258,-0.199234 0.426292,0.134215 -0.09707,0.252853 -0.02829,0.269288 0.417934,0.09964 0.293761,-0.111618 0.797399,-0.203069 1.119188,-0.203069 0.669864,0 0.67125,0.0085 0.382394,2.392235 -0.09964,0.822326 -0.312294,2.651369 -0.47256,4.06455 -0.172903,1.52468 -0.398832,2.670989 -0.555645,2.819276 -0.7157,0.676778 -5.308608,1.292525 -6.425197,0.861375 z M 66.357483,53.658728 C 65.972812,53.50414 65.313941,52.088306 65.333355,51.458076 l 0.01712,-0.556155 0.152019,0.499661 c 0.392067,1.28893 0.801852,1.792699 1.463513,1.799239 0.608352,0.0069 0.622047,0.02209 0.255814,0.299023 -0.410162,0.310218 -0.463505,0.320028 -0.86432,0.158867 z m 0.204696,-1.057425 c -0.356356,-0.218751 -0.647898,-0.502657 -0.647898,-0.630915 0,-0.152705 0.120349,-0.129765 0.348857,0.06643 0.864354,0.742345 1.05734,0.516148 0.279558,-0.327646 -0.842406,-0.913914 -1.063621,-1.504342 -0.534516,-1.426689 0.374468,0.05496 0.648703,0.320388 0.33102,0.320388 -0.177819,0 -0.184581,0.102887 -0.02619,0.398709 0.251003,0.469017 0.598045,0.526846 0.598045,0.09963 0,-0.164517 0.07926,-0.29904 0.176107,-0.29904 0.09689,0 0.225376,-0.188432 0.285619,-0.418755 0.06025,-0.230323 0.195844,-0.365412 0.301385,-0.300187 0.105454,0.06522 0.243316,-0.01541 0.306196,-0.179291 0.06283,-0.163831 0.04263,-0.297876 -0.04519,-0.297876 -0.08765,0 -0.276887,-0.21952 -0.420467,-0.487815 -0.14363,-0.268293 -0.395713,-0.53948 -0.560263,-0.602616 -0.25845,-0.09912 -0.261412,-0.06831 -0.02174,0.227037 0.226694,0.279403 0.227772,0.311998 0.0051,0.178382 -0.167084,-0.10049 -0.338431,-0.05769 -0.445495,0.111276 -0.129936,0.205192 -0.174771,0.164174 -0.177065,-0.16212 -0.0051,-0.776754 -0.335454,-0.669142 -0.595581,0.194184 -0.139351,0.462358 -0.280158,0.930349 -0.31301,1.039999 -0.03287,0.109734 -0.06009,-0.06984 -0.06026,-0.39871 -8.04e-4,-0.813492 0.465149,-2.006022 0.757478,-1.938744 0.130963,0.03013 0.18167,-0.03646 0.112816,-0.147911 -0.152362,-0.246586 0.9575,-1.905737 1.384455,-2.069569 0.168283,-0.06454 0.305956,-0.204884 0.305956,-0.311794 0,-0.207675 -3.379779,-2.163504 -4.902917,-2.837269 -0.860485,-0.38063 -0.909446,-0.443458 -0.807055,-1.035444 0.05992,-0.346614 0.20223,-1.841283 0.316193,-3.32147 0.429472,-5.578514 0.624855,-7.886659 0.700299,-8.273145 0.0428,-0.219298 0.08474,-0.458865 0.09313,-0.532392 0.0085,-0.07344 0.26196,-0.181499 0.563483,-0.239944 0.301522,-0.05838 1.527744,-0.294744 2.724948,-0.525084 l 2.176737,-0.418807 0.414852,0.494423 c 0.228183,0.271923 1.40166,1.009165 2.607732,1.638335 1.886462,0.984069 5.828096,3.080173 15.948247,8.481023 1.206067,0.64367 2.415788,1.284993 2.688261,1.425183 0.728181,0.374672 1.391386,1.675038 1.394793,2.734878 l 0.0037,0.897085 -0.747173,0.03184 c -0.59541,0.02534 -0.645949,0.0034 -0.248797,-0.107509 0.676301,-0.189169 0.769241,-1.25642 0.190986,-2.193 -0.406657,-0.658632 -0.422527,-0.664675 -0.701125,-0.266908 -0.317474,0.453269 -1.063994,0.611964 -3.204325,0.681212 l -1.421912,0.04605 0.292898,0.447002 c 0.161092,0.24585 0.576676,0.628809 0.923537,0.851 0.591195,0.378731 0.601343,0.404204 0.162461,0.407354 -0.542329,0.0034 -1.624966,-1.057374 -1.624966,-1.592849 0,-0.390012 -0.494582,-0.718994 -3.389007,-2.254338 -1.041624,-0.552543 -2.228472,-1.212971 -2.637469,-1.467639 -0.40898,-0.254684 -0.795003,-0.463042 -0.857814,-0.463042 -0.06283,0 -0.445872,-0.232258 -0.851223,-0.516113 -0.590565,-0.413568 -0.637968,-0.488106 -0.23861,-0.375135 0.274115,0.07755 0.640006,0.264937 0.813117,0.416444 0.173093,0.151505 0.442225,0.282006 0.598045,0.290017 0.155786,0.0085 0.552458,0.185266 0.881405,0.393916 0.32893,0.208633 1.270868,0.731251 2.093194,1.161374 0.822327,0.430139 2.078249,1.114004 2.790946,1.519714 1.280675,0.729044 1.317346,0.73673 3.141994,0.658751 1.338037,-0.05718 1.933172,-0.165886 2.162178,-0.39489 0.288398,-0.288392 0.110426,-0.426784 -2.038014,-1.585505 -1.294674,-0.698264 -2.598979,-1.40411 -2.898434,-1.568575 -0.299445,-0.164517 -0.975664,-0.518938 -1.502695,-0.787728 -0.527017,-0.268773 -1.451631,-0.771054 -2.054676,-1.116162 -1.188354,-0.680099 -5.229537,-2.931646 -8.572167,-4.775995 -1.151273,-0.635229 -2.455474,-1.358366 -2.898248,-1.606972 l -0.805034,-0.452001 -2.185263,0.475643 c -1.201878,0.261617 -2.364672,0.428274 -2.583954,0.370359 -0.219281,-0.05787 0.04981,0.152876 0.598063,0.468504 2.676946,1.541114 3.033438,1.922258 0.697732,0.746025 -0.762032,-0.383763 -1.421022,-0.697731 -1.46442,-0.697731 -0.07036,0 -0.144487,0.525476 -0.42122,2.99028 -0.04315,0.383763 -0.135243,1.325702 -0.20497,2.093212 -0.06968,0.76751 -0.209283,2.202843 -0.310338,3.189651 -0.101004,0.986792 -0.185283,2.117436 -0.187183,2.512549 l -0.0034,0.718361 2.708308,1.44843 c 2.190005,1.171218 2.690145,1.517884 2.613365,1.811463 -0.08029,0.307 -0.03903,0.328074 0.267746,0.136612 0.455647,-0.284557 1.492033,0.230357 2.398963,1.191863 0.52171,0.553125 0.589537,0.735719 0.439983,1.184416 -0.200262,0.600784 -0.842168,0.797589 -1.17358,0.359831 -0.177562,-0.234552 -0.343926,-0.248984 -0.847234,-0.07344 -0.749689,0.261343 -0.762871,0.341769 -0.160751,0.980936 0.408844,0.434008 0.428206,0.521728 0.159039,0.720397 -0.252082,0.186019 -0.21127,0.215755 0.22969,0.167428 0.472389,-0.05187 0.511969,-0.01369 0.332405,0.322013 -0.249258,0.465748 -0.479888,0.50615 -0.306247,0.05359 0.09929,-0.258621 0.06847,-0.279884 -0.146542,-0.101347 -0.149623,0.124287 -0.331121,0.166742 -0.403262,0.09467 -0.07207,-0.07207 -0.131134,0.04519 -0.131134,0.260881 0,0.215635 -0.112132,0.506732 -0.249188,0.646887 -0.137127,0.140208 0.044,0.09074 0.402492,-0.109734 0.571664,-0.319703 0.675339,-0.327733 0.844204,-0.0654 0.320233,0.497453 0.228646,0.754653 -0.449296,1.261727 -0.932985,0.697852 -2.266203,0.843673 -3.089967,0.337986 z m 1.345628,-0.273019 c 0,-0.03784 -0.201853,-0.239671 -0.448543,-0.448542 l -0.448543,-0.379775 0.379758,0.448543 c 0.356886,0.421528 0.517328,0.539309 0.517328,0.379774 z m 0.996771,-0.13062 c 0.265795,-0.171776 0.265795,-0.19326 0,-0.19326 -0.164516,0 -0.433597,0.08697 -0.598062,0.19326 -0.265812,0.171775 -0.265812,0.193243 0,0.193243 0.164516,0 0.43358,-0.08697 0.598062,-0.193243 z m 1.073672,-0.884503 c -0.06043,-0.157498 -0.244566,-0.234774 -0.409151,-0.171621 -0.243437,0.09347 -0.249651,0.146198 -0.03338,0.283392 0.397493,0.25198 0.565776,0.209473 0.4425,-0.111789 z m -1.048249,-1.457898 c 0.253075,-0.322699 0.243693,-0.326944 -0.125143,-0.05632 -0.21928,0.160922 -0.436079,0.317838 -0.48177,0.348858 -0.04571,0.03099 0.01027,0.05632 0.125141,0.05632 0.114529,0 0.331293,-0.156984 0.481772,-0.348858 z m -0.715382,-0.945277 c -0.324633,-0.265314 -0.630589,-0.442054 -0.679893,-0.39275 -0.16075,0.16075 0.625762,0.889673 0.952193,0.882312 0.219709,-0.0051 0.135585,-0.1563 -0.2723,-0.489562 z m 1.075675,-1.496792 c -0.0085,-0.247271 -0.04965,-0.241296 -0.237205,0.03441 -0.207058,0.304519 -0.245012,0.297226 -0.436834,-0.08388 -0.115555,-0.229586 -0.344629,-0.460046 -0.509093,-0.51214 -0.235014,-0.07447 -0.224332,-0.01027 0.04981,0.298988 0.357296,0.403194 0.473998,0.762186 0.190897,0.587226 -0.0868,-0.05375 -0.170509,0.06779 -0.185677,0.270143 -0.02637,0.349525 0.0012,0.351322 0.55542,0.03596 0.320712,-0.182458 0.578409,-0.466297 0.572658,-0.630761 z m -1.748583,0 C 67.592731,47.033642 67.518941,46.9148 67.2318,46.9148 c -0.207332,0 -0.476465,0.162292 -0.598063,0.36055 -0.177065,0.288768 -0.143802,0.417899 0.166914,0.64865 0.446693,0.33167 0.646167,0.194167 0.74106,-0.510806 z m 2.658662,-0.199354 c -0.06779,-0.109734 -0.21293,-0.199354 -0.322562,-0.199354 -0.109734,0 -0.143973,0.08971 -0.07618,0.199354 0.06779,0.109564 0.212912,0.199354 0.322561,0.199354 0.109564,0 0.143974,-0.08971 0.07618,-0.199354 z m -0.44856,-0.476858 c 0.471483,-0.357913 0.443391,-0.460801 -0.219469,-0.803563 -0.504249,-0.260761 -0.618058,-0.259067 -1.009406,0.01541 -0.419217,0.293613 -0.424097,0.327698 -0.09844,0.687477 0.398555,0.440412 0.836416,0.473726 1.327379,0.101004 z M 63.458876,32.823044 c -0.06368,-0.159038 -0.110932,-0.11179 -0.120519,0.12052 -0.0085,0.210139 0.03852,0.327886 0.10477,0.261651 0.06625,-0.06625 0.07327,-0.238198 0.01541,-0.382103 z M 63.65407,30.6177 c -0.0553,-0.136954 -0.10049,-0.025 -0.10049,0.249206 0,0.274097 0.04519,0.386246 0.10049,0.249189 0.0553,-0.137126 0.0553,-0.361337 0,-0.498395 z m 6.659975,20.234318 c 0.0085,-0.08218 0.08628,-0.328931 0.17472,-0.548211 0.09159,-0.227122 0.07499,-0.505945 -0.03835,-0.647898 -0.146713,-0.183621 -0.08782,-0.249189 0.223989,-0.249189 0.502434,0 0.504883,0.01712 0.134215,0.903489 -0.261617,0.626122 -0.530013,0.920163 -0.494559,0.541809 z m 1.088583,-1.245943 c 0.0719,-0.274114 0.17698,-0.741797 0.233405,-1.039296 0.09005,-0.475044 0.138152,-0.505345 0.394617,-0.248863 0.298611,0.298594 0.296729,0.959142 -0.0017,0.850144 -0.09108,-0.03321 -0.298578,0.163832 -0.461041,0.438015 l -0.295376,0.498377 0.130791,-0.498377 z m 0.628416,-0.834789 c -0.06368,-0.159038 -0.110934,-0.111789 -0.120521,0.120348 -0.0085,0.210157 0.03852,0.327904 0.10477,0.261652 0.06625,-0.06625 0.07327,-0.238181 0.01541,-0.382086 z m -1.60966,0.152533 c 0.158182,-0.412232 0.676075,-0.562951 0.676075,-0.196752 0,0.167426 -0.08971,0.249103 -0.199354,0.181344 -0.109735,-0.06779 -0.199354,-0.02825 -0.199354,0.08799 0,0.116069 -0.08697,0.211115 -0.193106,0.211115 -0.10614,0 -0.144145,-0.127709 -0.08422,-0.283615 z m 2.211249,-0.459499 c 0.154588,-1.001069 0.258998,-1.081324 0.258998,-0.198961 0,0.395559 -0.0844,0.771345 -0.187542,0.835097 -0.111789,0.06916 -0.140721,-0.187713 -0.07139,-0.636136 z m -2.810031,0.310527 c 0.09638,-0.155957 0.03629,-0.191839 -0.181209,-0.108365 -0.527839,0.202556 -0.547457,-0.142433 -0.02225,-0.390406 0.297516,-0.140378 0.526076,-0.154587 0.598714,-0.03697 0.159723,0.258519 -0.0541,0.76905 -0.322082,0.76905 -0.119493,0 -0.152534,-0.104941 -0.07327,-0.233233 z m 2.317765,-0.962892 c -0.109221,-0.274098 -0.149623,-0.580995 -0.08953,-0.681965 0.136953,-0.230426 0.483243,0.669638 0.370906,0.963919 -0.04537,0.118979 -0.172049,-0.0085 -0.281322,-0.281954 z m 16.001759,-3.894574 c -0.498669,-0.228337 -0.52757,-0.275347 -0.173913,-0.282845 0.233268,-0.0051 0.535799,0.125655 0.672288,0.290052 0.290684,0.350244 0.281987,0.350124 -0.498375,-0.0069 z M 86.36471,42.500912 c -0.104943,-0.273601 -0.07586,-0.285944 0.178027,-0.07532 0.345925,0.287107 0.381935,0.402508 0.125653,0.402508 -0.09792,0 -0.234535,-0.147225 -0.303588,-0.327234 z M 18.182079,42.370977 c 0.07481,-0.196598 0.186327,-0.30724 0.247716,-0.245867 0.06128,0.06146 1.2e-4,0.222242 -0.136098,0.357468 -0.196889,0.195416 -0.219795,0.172528 -0.111618,-0.111618 z m 57.830555,-5.945364 c -0.421529,-0.22238 -0.72418,-0.446523 -0.672583,-0.498121 0.132161,-0.13216 1.538632,0.560333 1.538632,0.757616 0,0.205945 0.03749,0.217209 -0.866049,-0.259495 z M 23.467853,33.740947 c 0.01028,-0.232224 0.05684,-0.279473 0.12052,-0.120349 0.05752,0.143973 0.0505,0.315851 -0.01541,0.382086 -0.06625,0.06625 -0.11333,-0.05153 -0.10477,-0.261652 z"
     id="path4891"
     inkscape:connector-curvature="0" />
</svg>
