<?xml version="1.0" encoding="UTF-8" standalone="no"?>
<!-- Created with Inkscape (http://www.inkscape.org/) -->

<svg
   xmlns:dc="http://purl.org/dc/elements/1.1/"
   xmlns:cc="http://creativecommons.org/ns#"
   xmlns:rdf="http://www.w3.org/1999/02/22-rdf-syntax-ns#"
   xmlns:svg="http://www.w3.org/2000/svg"
   xmlns="http://www.w3.org/2000/svg"
   xmlns:sodipodi="http://sodipodi.sourceforge.net/DTD/sodipodi-0.dtd"
   xmlns:inkscape="http://www.inkscape.org/namespaces/inkscape"
   version="1.0"
   width="100"
   height="100"
   id="svg2"
   inkscape:version="0.48.5 r10040"
   sodipodi:docname="basic_cross.svg">
  <metadata
     id="metadata13">
    <rdf:RDF>
      <cc:Work
         rdf:about="">
        <dc:format>image/svg+xml</dc:format>
        <dc:type
           rdf:resource="http://purl.org/dc/dcmitype/StillImage" />
      </cc:Work>
    </rdf:RDF>
  </metadata>
  <sodipodi:namedview
     pagecolor="#ffffff"
     bordercolor="#666666"
     borderopacity="1"
     objecttolerance="10"
     gridtolerance="10"
     guidetolerance="10"
     inkscape:pageopacity="0"
     inkscape:pageshadow="2"
     inkscape:window-width="640"
     inkscape:window-height="480"
     id="namedview11"
     showgrid="false"
     inkscape:zoom="2.36"
     inkscape:cx="50"
     inkscape:cy="50"
     inkscape:window-x="0"
     inkscape:window-y="27"
     inkscape:window-maximized="0"
     inkscape:current-layer="svg2" />
  <defs
     id="defs4" />
  <g
     id="g2218"
     transform="matrix(1.4818964,0,0,1.3941945,-15.967966,-13.232056)">
    <path
       inkscape:connector-curvature="0"
       style="fill:#010101;fill-opacity:1;fill-rule:evenodd;stroke:none"
       id="path3233"
       d="M 18.48245,76.173836 C 28.750053,59.008499 37.561029,40.501038 52.045447,26.345519 c 4.861916,-4.770861 14.454828,-9.743338 16.431346,-12.039133 0.91895,-1.067393 1.476704,4.049375 -1.748383,3.69167 -4.347692,3.777153 -7.49977,8.733063 -12.000737,12.355169 C 43.582066,41.395155 36.018982,55.454188 30.113,69.844498 c -1.327487,3.358206 -5.114156,3.969552 -8.12244,5.003819 -1.188395,0.388351 -2.37174,0.801242 -3.50811,1.325519 l 0,0 z" />
    <path
       inkscape:connector-curvature="0"
       style="fill:#010101;fill-opacity:1;fill-rule:evenodd;stroke:none"
       id="path3235"
       d="m 26.043592,14.383832 c 12.392893,2.506 22.323014,11.212548 29.894357,20.881192 6.826524,7.63938 12.391804,17.042483 15.890906,26.472487 C 71.589676,72.866367 56.700653,71.981932 56.969096,60.998788 52.254723,44.377654 38.65891,32.065429 23.974756,24.019933 c -5.817685,-0.437357 -8.955637,-4.962042 -1.79774,-7.150781 1.298398,-0.813154 2.623305,-1.587287 3.866576,-2.48532 l 0,0 z" />
  </g>
</svg>
