<?xml version="1.0" encoding="UTF-8" standalone="no"?>
<!-- Created with Inkscape (http://www.inkscape.org/) -->

<svg
   xmlns:dc="http://purl.org/dc/elements/1.1/"
   xmlns:cc="http://creativecommons.org/ns#"
   xmlns:rdf="http://www.w3.org/1999/02/22-rdf-syntax-ns#"
   xmlns:svg="http://www.w3.org/2000/svg"
   xmlns="http://www.w3.org/2000/svg"
   xmlns:sodipodi="http://sodipodi.sourceforge.net/DTD/sodipodi-0.dtd"
   xmlns:inkscape="http://www.inkscape.org/namespaces/inkscape"
   version="1.0"
   width="100"
   height="100"
   id="svg2"
   inkscape:version="0.91 r13725"
   sodipodi:docname="basic_average.svg">
  <metadata
     id="metadata21">
    <rdf:RDF>
      <cc:Work
         rdf:about="">
        <dc:format>image/svg+xml</dc:format>
        <dc:type
           rdf:resource="http://purl.org/dc/dcmitype/StillImage" />
        <dc:title />
      </cc:Work>
    </rdf:RDF>
  </metadata>
  <sodipodi:namedview
     pagecolor="#ffffff"
     bordercolor="#666666"
     borderopacity="1"
     objecttolerance="10"
     gridtolerance="10"
     guidetolerance="10"
     inkscape:pageopacity="0"
     inkscape:pageshadow="2"
     inkscape:window-width="1920"
     inkscape:window-height="1138"
     id="namedview19"
     showgrid="false"
     inkscape:zoom="4.72"
     inkscape:cx="12.68826"
     inkscape:cy="3.1058435"
     inkscape:window-x="0"
     inkscape:window-y="25"
     inkscape:window-maximized="1"
     inkscape:current-layer="svg2" />
  <defs
     id="defs4" />
  <text
     xml:space="preserve"
     style="font-size:40.60471344px;font-style:normal;font-variant:normal;font-weight:normal;font-stretch:normal;line-height:125%;letter-spacing:0px;word-spacing:0px;fill:#000000;fill-opacity:1;stroke:none;font-family:Serif;-inkscape-font-specification:Serif"
     x="-20.865898"
     y="27.28792"
     id="text3984-3"
     sodipodi:linespacing="125%"><tspan
       sodipodi:role="line"
       id="tspan3986-6"
       x="-20.865898"
       y="27.28792" /></text>
  <text
     xml:space="preserve"
     style="font-size:40.60471344px;font-style:normal;font-variant:normal;font-weight:normal;font-stretch:normal;line-height:125%;letter-spacing:0px;word-spacing:0px;fill:#000000;fill-opacity:1;stroke:none;font-family:Serif;-inkscape-font-specification:Serif"
     x="-21.103817"
     y="58.220127"
     id="text3988-6"
     sodipodi:linespacing="125%"><tspan
       sodipodi:role="line"
       id="tspan3990-3"
       x="-21.103817"
       y="58.220127" /></text>
  <text
     xml:space="preserve"
     style="font-size:40.60471344px;font-style:normal;font-variant:normal;font-weight:normal;font-stretch:normal;line-height:125%;letter-spacing:0px;word-spacing:0px;fill:#000000;fill-opacity:1;stroke:none;font-family:Serif;-inkscape-font-specification:Serif"
     x="-19.77544"
     y="89.152336"
     id="text3992-1"
     sodipodi:linespacing="125%"><tspan
       sodipodi:role="line"
       id="tspan3994-0"
       x="-19.77544"
       y="89.152336" /></text>
  <g
     id="g4146"
     transform="matrix(1.4541669,0,0,1.4495699,-23.434976,-24.394346)">
    <g
       style="font-style:normal;font-variant:normal;font-weight:normal;font-stretch:normal;font-size:62.02299881px;line-height:125%;font-family:Serif;-inkscape-font-specification:Serif;text-align:center;letter-spacing:0px;word-spacing:0px;text-anchor:middle;fill:none;fill-opacity:1;stroke:#000000;stroke-width:0.68876857px;stroke-linecap:butt;stroke-linejoin:miter;stroke-opacity:1"
       id="text3340">
      <path
         d="m 43.349158,74.770851 -0.635978,3.210175 -14.869771,0 0.635978,-3.210175 4.209568,0 15.324042,-21.047844 -1.36281,-13.840093 Q 46.34734,36.884732 45.559939,36.188185 44.469691,35.24936 43.985136,35.24936 q -1.81708,0 -2.846758,0.878256 -1.059964,0.90854 -1.635372,2.967897 l -2.846759,0 1.181102,-6.147787 q 1.605087,-0.45427 3.149605,-0.696548 1.544518,-0.242277 2.967898,-0.242277 1.81708,0 3.694729,1.393095 2.029073,1.483948 2.392489,5.118108 l 1.059963,10.993335 9.812232,-13.355539 -3.846152,0 0.635978,-3.240459 14.385217,0 -0.635978,3.240459 -3.967292,0 -15.596604,21.290122 1.393095,13.537246 q 0.302847,2.998182 1.090248,3.694729 1.090248,0.938825 1.574803,0.938825 1.81708,0 2.846759,-0.878255 1.059963,-0.90854 1.635372,-2.967898 l 2.846758,0 -1.181102,6.147788 q -1.605087,0.45427 -3.149605,0.696547 -1.544518,0.242277 -2.967897,0.242277 -1.81708,0 -3.69473,-1.393094 -2.029073,-1.483949 -2.392489,-5.118109 l -1.059963,-10.690488 -9.569955,13.113261 4.08843,0 z"
         style="font-style:normal;fill:none;stroke:#000000;stroke-width:1.0331527;stroke-miterlimit:4;stroke-dasharray:none;stroke-opacity:1"
         id="path4143"
         inkscape:connector-curvature="0" />
    </g>
    <path
       inkscape:connector-curvature="0"
       id="path3344"
       d="m 38.135593,24.576271 c 34.322034,0 34.322034,0 34.322034,0"
       style="fill:none;fill-rule:evenodd;stroke:#000000;stroke-width:2.6173203;stroke-linecap:round;stroke-linejoin:miter;stroke-miterlimit:4;stroke-dasharray:none;stroke-opacity:1" />
  </g>
</svg>
