<?xml version="1.0" encoding="UTF-8" standalone="no"?>
<!-- Created with Inkscape (http://www.inkscape.org/) -->

<svg
   xmlns:dc="http://purl.org/dc/elements/1.1/"
   xmlns:cc="http://creativecommons.org/ns#"
   xmlns:rdf="http://www.w3.org/1999/02/22-rdf-syntax-ns#"
   xmlns:svg="http://www.w3.org/2000/svg"
   xmlns="http://www.w3.org/2000/svg"
   xmlns:sodipodi="http://sodipodi.sourceforge.net/DTD/sodipodi-0.dtd"
   xmlns:inkscape="http://www.inkscape.org/namespaces/inkscape"
   version="1.0"
   width="100"
   height="100"
   id="svg2"
   inkscape:version="0.91 r13725"
   sodipodi:docname="basic_labels.svg">
  <metadata
     id="metadata21">
    <rdf:RDF>
      <cc:Work
         rdf:about="">
        <dc:format>image/svg+xml</dc:format>
        <dc:type
           rdf:resource="http://purl.org/dc/dcmitype/StillImage" />
        <dc:title />
      </cc:Work>
    </rdf:RDF>
  </metadata>
  <sodipodi:namedview
     pagecolor="#ffffff"
     bordercolor="#666666"
     borderopacity="1"
     objecttolerance="10"
     gridtolerance="10"
     guidetolerance="10"
     inkscape:pageopacity="0"
     inkscape:pageshadow="2"
     inkscape:window-width="1920"
     inkscape:window-height="1138"
     id="namedview19"
     showgrid="false"
     inkscape:zoom="2.36"
     inkscape:cx="19.339167"
     inkscape:cy="30.636413"
     inkscape:window-x="0"
     inkscape:window-y="25"
     inkscape:window-maximized="1"
     inkscape:current-layer="svg2" />
  <defs
     id="defs4" />
  <text
     xml:space="preserve"
     style="font-size:40.60471344px;font-style:normal;font-variant:normal;font-weight:normal;font-stretch:normal;line-height:125%;letter-spacing:0px;word-spacing:0px;fill:#000000;fill-opacity:1;stroke:none;font-family:Serif;-inkscape-font-specification:Serif"
     x="-20.865898"
     y="27.28792"
     id="text3984-3"
     sodipodi:linespacing="125%"><tspan
       sodipodi:role="line"
       id="tspan3986-6"
       x="-20.865898"
       y="27.28792" /></text>
  <text
     xml:space="preserve"
     style="font-size:40.60471344px;font-style:normal;font-variant:normal;font-weight:normal;font-stretch:normal;line-height:125%;letter-spacing:0px;word-spacing:0px;fill:#000000;fill-opacity:1;stroke:none;font-family:Serif;-inkscape-font-specification:Serif"
     x="-21.103817"
     y="58.220127"
     id="text3988-6"
     sodipodi:linespacing="125%"><tspan
       sodipodi:role="line"
       id="tspan3990-3"
       x="-21.103817"
       y="58.220127" /></text>
  <text
     xml:space="preserve"
     style="font-size:40.60471344px;font-style:normal;font-variant:normal;font-weight:normal;font-stretch:normal;line-height:125%;letter-spacing:0px;word-spacing:0px;fill:#000000;fill-opacity:1;stroke:none;font-family:Serif;-inkscape-font-specification:Serif"
     x="-19.77544"
     y="89.152336"
     id="text3992-1"
     sodipodi:linespacing="125%"><tspan
       sodipodi:role="line"
       id="tspan3994-0"
       x="-19.77544"
       y="89.152336" /></text>
  <path
     style="font-style:normal;font-variant:normal;font-weight:normal;font-stretch:normal;font-size:medium;line-height:125%;font-family:Serif;-inkscape-font-specification:Serif;letter-spacing:0px;word-spacing:0px;fill:#ffffff;fill-opacity:1;stroke:#000000;stroke-width:3;stroke-linecap:butt;stroke-linejoin:miter;stroke-miterlimit:4;stroke-dasharray:none;stroke-opacity:1"
     inkscape:connector-curvature="0"
     id="path3345"
     d="m 1.2771471,71.724929 4.1962626,-0.582817 19.7768323,-51.093379 6.566371,0 19.427142,51.093379 4.157411,0.582817 0,4.895639 -16.241091,0 0,-4.895639 4.273971,-0.738234 -3.730011,-10.412948 -22.652049,0 -3.846572,10.412948 4.273972,0.738234 0,4.895639 -16.2022389,0 0,-4.895639 z M 19.4221,54.162793 l 17.950678,0 -8.781068,-24.283929 -0.2331,0 -8.936485,24.283929 z" />
  <path
     style="font-style:normal;font-variant:normal;font-weight:normal;font-stretch:normal;font-size:medium;line-height:125%;font-family:Serif;-inkscape-font-specification:Serif;letter-spacing:0px;word-spacing:0px;fill:#ffffff;fill-opacity:1;stroke:#000000;stroke-width:3;stroke-linecap:butt;stroke-linejoin:miter;stroke-miterlimit:4;stroke-dasharray:none;stroke-opacity:1"
     inkscape:connector-curvature="0"
     id="path3347"
     d="m 88.310741,76.620568 q -0.349676,-1.709588 -0.54396,-3.06949 -0.194259,-1.359898 -0.271993,-2.7198 -2.214696,2.836365 -5.556165,4.740222 -3.302611,1.865006 -7.071479,1.865006 -6.566371,0 -9.985548,-3.186051 -3.419177,-3.224903 -3.419177,-9.053046 0,-5.983559 4.817931,-9.208467 4.856783,-3.26376 13.288165,-3.26376 l 7.887416,0 0,-4.89564 q 0,-3.691154 -2.331256,-5.828142 -2.331257,-2.17584 -6.488663,-2.17584 -2.875217,0 -5.089914,0.738234 -2.17584,0.738229 -3.535737,2.020423 l -0.815942,4.429388 -5.905851,0 0,-8.159399 q 2.875217,-2.292406 6.954919,-3.652303 4.079697,-1.398754 8.858776,-1.398754 7.149188,0 11.578576,3.652302 4.429389,3.652303 4.429389,10.4518 l 0,20.243084 q 0,0.815937 0,1.593023 0.03879,0.777086 0.116575,1.554171 l 3.108343,0.42741 0,4.895639 -10.024405,0 z M 75.993935,71.025552 q 3.80772,0 6.954915,-1.826154 3.147199,-1.826149 4.507096,-4.390531 l 0,-6.916063 -8.159399,0 q -4.701366,0 -7.460022,2.17584 -2.7198,2.17584 -2.7198,5.284182 0,2.758652 1.709588,4.235115 1.709589,1.437611 5.167622,1.437611 z" />
</svg>
