<?xml version="1.0" encoding="UTF-8" standalone="no"?>
<!-- Created with Inkscape (http://www.inkscape.org/) -->

<svg
   xmlns:dc="http://purl.org/dc/elements/1.1/"
   xmlns:cc="http://creativecommons.org/ns#"
   xmlns:rdf="http://www.w3.org/1999/02/22-rdf-syntax-ns#"
   xmlns:svg="http://www.w3.org/2000/svg"
   xmlns="http://www.w3.org/2000/svg"
   xmlns:xlink="http://www.w3.org/1999/xlink"
   xmlns:sodipodi="http://sodipodi.sourceforge.net/DTD/sodipodi-0.dtd"
   xmlns:inkscape="http://www.inkscape.org/namespaces/inkscape"
   version="1.0"
   width="100"
   height="100"
   id="svg2"
   inkscape:version="0.48.1 r9760"
   sodipodi:docname="build_grow.svg">
  <metadata
     id="metadata24">
    <rdf:RDF>
      <cc:Work
         rdf:about="">
        <dc:format>image/svg+xml</dc:format>
        <dc:type
           rdf:resource="http://purl.org/dc/dcmitype/StillImage" />
      </cc:Work>
    </rdf:RDF>
  </metadata>
  <sodipodi:namedview
     pagecolor="#ffffff"
     bordercolor="#666666"
     borderopacity="1"
     objecttolerance="10"
     gridtolerance="10"
     guidetolerance="10"
     inkscape:pageopacity="0"
     inkscape:pageshadow="2"
     inkscape:window-width="1440"
     inkscape:window-height="840"
     id="namedview22"
     showgrid="false"
     inkscape:zoom="0.38580493"
     inkscape:cx="-543.1149"
     inkscape:cy="-86.744842"
     inkscape:window-x="-2"
     inkscape:window-y="-3"
     inkscape:window-maximized="1"
     inkscape:current-layer="svg2" />
  <defs
     id="defs4">
    <linearGradient
       id="linearGradient3384">
      <stop
         id="stop3386"
         style="stop-color:#0000ff;stop-opacity:1"
         offset="0" />
      <stop
         id="stop3388"
         style="stop-color:#000000;stop-opacity:1"
         offset="1" />
    </linearGradient>
    <linearGradient
       id="linearGradient3252">
      <stop
         id="stop3254"
         style="stop-color:#ffffff;stop-opacity:1"
         offset="0" />
      <stop
         id="stop3256"
         style="stop-color:#7f7fff;stop-opacity:0"
         offset="1" />
    </linearGradient>
    <linearGradient
       x1="25.398125"
       y1="63.345894"
       x2="90.625114"
       y2="63.345894"
       id="linearGradient3450"
       xlink:href="#linearGradient3384"
       gradientUnits="userSpaceOnUse"
       gradientTransform="matrix(0.2688926,0.2688926,-0.2688926,0.2688926,38.227733,-8.4494346)" />
    <radialGradient
       cx="58.01162"
       cy="63.345894"
       r="33.113495"
       fx="58.01162"
       fy="63.345894"
       id="radialGradient3452"
       xlink:href="#linearGradient3252"
       gradientUnits="userSpaceOnUse"
       gradientTransform="matrix(0.2134373,0,0,0.2134373,19.805211,5.9610473)" />
    <linearGradient
       inkscape:collect="always"
       xlink:href="#linearGradient3384-3"
       id="linearGradient3001-2"
       gradientUnits="userSpaceOnUse"
       gradientTransform="matrix(0.2688926,0.2688926,-0.2688926,0.2688926,38.227733,-8.4494346)"
       x1="25.398125"
       y1="63.345894"
       x2="90.625114"
       y2="63.345894" />
    <linearGradient
       id="linearGradient3384-3">
      <stop
         id="stop3386-7"
         style="stop-color:#0000ff;stop-opacity:1"
         offset="0" />
      <stop
         id="stop3388-5"
         style="stop-color:#000000;stop-opacity:1"
         offset="1" />
    </linearGradient>
    <radialGradient
       inkscape:collect="always"
       xlink:href="#linearGradient3252-2"
       id="radialGradient3003-9"
       gradientUnits="userSpaceOnUse"
       gradientTransform="matrix(0.2134373,0,0,0.2134373,19.805211,5.9610473)"
       cx="58.01162"
       cy="63.345894"
       fx="58.01162"
       fy="63.345894"
       r="33.113495" />
    <linearGradient
       id="linearGradient3252-2">
      <stop
         id="stop3254-2"
         style="stop-color:#ffffff;stop-opacity:1"
         offset="0" />
      <stop
         id="stop3256-8"
         style="stop-color:#7f7fff;stop-opacity:0"
         offset="1" />
    </linearGradient>
    <linearGradient
       id="linearGradient3384-36">
      <stop
         id="stop3386-1"
         style="stop-color:#0000ff;stop-opacity:1"
         offset="0" />
      <stop
         id="stop3388-2"
         style="stop-color:#000000;stop-opacity:1"
         offset="1" />
    </linearGradient>
    <linearGradient
       id="linearGradient3252-1">
      <stop
         id="stop3254-9"
         style="stop-color:#ffffff;stop-opacity:1"
         offset="0" />
      <stop
         id="stop3256-4"
         style="stop-color:#ff5151;stop-opacity:0;"
         offset="1" />
    </linearGradient>
    <linearGradient
       id="linearGradient3384-1">
      <stop
         id="stop3386-0"
         style="stop-color:#0000ff;stop-opacity:1"
         offset="0" />
      <stop
         id="stop3388-6"
         style="stop-color:#000000;stop-opacity:1"
         offset="1" />
    </linearGradient>
    <linearGradient
       id="linearGradient3252-20">
      <stop
         id="stop3254-6"
         style="stop-color:#ffffff;stop-opacity:1"
         offset="0" />
      <stop
         id="stop3256-1"
         style="stop-color:#7f7fff;stop-opacity:0"
         offset="1" />
    </linearGradient>
    <radialGradient
       inkscape:collect="always"
       xlink:href="#linearGradient3252-1"
       id="radialGradient4004"
       gradientUnits="userSpaceOnUse"
       gradientTransform="matrix(0.18496243,0,0,0.18496243,33.189424,33.337485)"
       cx="58.01162"
       cy="63.345894"
       fx="58.01162"
       fy="63.345894"
       r="33.113495" />
    <linearGradient
       inkscape:collect="always"
       xlink:href="#linearGradient3252-1"
       id="linearGradient4007"
       gradientUnits="userSpaceOnUse"
       gradientTransform="matrix(0.23301938,0.23301938,-0.23301938,0.23301938,49.15418,20.849519)"
       x1="25.398125"
       y1="63.345894"
       x2="90.625114"
       y2="63.345894" />
    <linearGradient
       inkscape:collect="always"
       xlink:href="#linearGradient3384"
       id="linearGradient4015"
       gradientUnits="userSpaceOnUse"
       gradientTransform="matrix(0.2688926,0.2688926,-0.2688926,0.2688926,38.227733,-8.4494346)"
       x1="25.398125"
       y1="63.345894"
       x2="90.625114"
       y2="63.345894" />
    <radialGradient
       inkscape:collect="always"
       xlink:href="#linearGradient3252"
       id="radialGradient4017"
       gradientUnits="userSpaceOnUse"
       gradientTransform="matrix(0.2134373,0,0,0.2134373,19.805211,5.9610473)"
       cx="58.01162"
       cy="63.345894"
       fx="58.01162"
       fy="63.345894"
       r="33.113495" />
    <linearGradient
       inkscape:collect="always"
       xlink:href="#linearGradient3384"
       id="linearGradient4031"
       gradientUnits="userSpaceOnUse"
       gradientTransform="matrix(0.2688926,0.2688926,-0.2688926,0.2688926,38.227733,-8.4494346)"
       x1="25.398125"
       y1="63.345894"
       x2="90.625114"
       y2="63.345894" />
    <radialGradient
       inkscape:collect="always"
       xlink:href="#linearGradient3252"
       id="radialGradient4033"
       gradientUnits="userSpaceOnUse"
       gradientTransform="matrix(0.2134373,0,0,0.2134373,19.805211,5.9610473)"
       cx="58.01162"
       cy="63.345894"
       fx="58.01162"
       fy="63.345894"
       r="33.113495" />
    <linearGradient
       inkscape:collect="always"
       xlink:href="#linearGradient3384"
       id="linearGradient4047"
       gradientUnits="userSpaceOnUse"
       gradientTransform="matrix(0.2688926,0.2688926,-0.2688926,0.2688926,38.227733,-8.4494346)"
       x1="25.398125"
       y1="63.345894"
       x2="90.625114"
       y2="63.345894" />
    <radialGradient
       inkscape:collect="always"
       xlink:href="#linearGradient3252"
       id="radialGradient4049"
       gradientUnits="userSpaceOnUse"
       gradientTransform="matrix(0.2134373,0,0,0.2134373,19.805211,5.9610473)"
       cx="58.01162"
       cy="63.345894"
       fx="58.01162"
       fy="63.345894"
       r="33.113495" />
  </defs>
  <path
     d="m 61.485873,14.369104 c 0.001,5.936378 -4.811051,10.74931 -10.747429,10.74931 -5.936369,0 -10.74846,-4.812932 -10.74742,-10.74931 -0.001,-5.9363773 4.811051,-10.7493089 10.74742,-10.7493089 5.936378,0 10.748469,4.8129316 10.747429,10.7493089 l 0,0 z"
     id="path4021"
     style="fill:#282828;fill-opacity:1;fill-rule:evenodd;stroke:none"
     inkscape:connector-curvature="0" />
  <path
     style="fill:none;stroke:#000000;stroke-width:1.83938217;stroke-linecap:butt;stroke-linejoin:miter;stroke-miterlimit:4;stroke-opacity:1;stroke-dasharray:none"
     d="m 47.911175,15.557439 c 0,63.269498 0,63.269498 0,63.269498"
     id="path4001-6"
     inkscape:connector-curvature="0" />
  <path
     inkscape:connector-curvature="0"
     style="fill:#282828;fill-opacity:1;fill-rule:evenodd;stroke:none"
     id="path6944"
     d="m 24.88714,51.163676 c 0.001,5.936378 -4.811051,10.74931 -10.747429,10.74931 -5.9363687,0 -10.7484598,-4.812932 -10.7474198,-10.74931 -0.00104,-5.936377 4.8110511,-10.749309 10.7474198,-10.749309 5.936378,0 10.748469,4.812932 10.747429,10.749309 l 0,0 z" />
  <path
     inkscape:connector-curvature="0"
     style="fill:#282828;fill-opacity:1;fill-rule:evenodd;stroke:none"
     id="path6944-8"
     d="m 61.485874,51.163676 c 10e-4,5.936378 -4.811051,10.74931 -10.747429,10.74931 -5.936369,0 -10.74846,-4.812932 -10.74742,-10.74931 -10e-4,-5.936377 4.811051,-10.749309 10.74742,-10.749309 5.936378,0 10.748469,4.812932 10.747429,10.749309 l 0,0 z" />
  <path
     style="fill:none;stroke:#000000;stroke-width:1.83938217;stroke-linecap:butt;stroke-linejoin:miter;stroke-miterlimit:4;stroke-opacity:1;stroke-dasharray:none"
     d="m 9.9658996,48.918111 c 63.2694984,0 63.2694984,0 63.2694984,0"
     id="path4001"
     inkscape:connector-curvature="0" />
  <g
     id="g6912"
     transform="matrix(0.86658905,0,0,0.86658905,-20.572289,28.171707)">
    <path
       inkscape:connector-curvature="0"
       style="fill:#0000ff;fill-opacity:1;fill-rule:evenodd;stroke:#000000;stroke-width:0.38027155px;stroke-linecap:butt;stroke-linejoin:miter;stroke-opacity:1"
       id="path6914"
       d="m 49.066773,24.22879 c 0.0012,6.850275 -5.551709,12.404157 -12.401985,12.404157 -6.850275,0 -12.403184,-5.553882 -12.401985,-12.404157 -0.0012,-6.850276 5.55171,-12.404157 12.401985,-12.404157 6.850276,0 12.403184,5.553881 12.401985,12.404157 l 0,0 0,0 z" />
    <path
       inkscape:connector-curvature="0"
       style="opacity:0.71739131;fill:url(#linearGradient4015);fill-opacity:1;fill-rule:evenodd;stroke:none"
       id="path6916"
       d="m 45.562914,32.95223 c -4.843029,4.844723 -12.696715,4.845411 -17.54059,0.0015 -4.843878,-4.843877 -4.843189,-12.697563 0.0015,-17.54059 4.843028,-4.844725 12.696714,-4.845413 17.540591,-0.0015 4.843875,4.843876 4.843187,12.697563 -0.0015,17.540591 l 0,0 -10e-7,-10e-7 z" />
    <path
       inkscape:connector-curvature="0"
       style="fill:url(#radialGradient4017);fill-opacity:1;fill-rule:evenodd;stroke:none"
       id="path6918"
       d="m 39.147988,19.481422 c 6.73e-4,3.844893 -3.11604,6.962154 -6.960935,6.962154 -3.844894,0 -6.961608,-3.117261 -6.960935,-6.962154 -6.73e-4,-3.844895 3.116041,-6.962154 6.960935,-6.962154 3.844895,0 6.961608,3.117259 6.960935,6.962154 l 0,0 z" />
  </g>
  <g
     transform="matrix(0.86658905,0,0,0.86658905,16.026444,-8.6228654)"
     id="g4023">
    <path
       d="m 49.066773,24.22879 c 0.0012,6.850275 -5.551709,12.404157 -12.401985,12.404157 -6.850275,0 -12.403184,-5.553882 -12.401985,-12.404157 -0.0012,-6.850276 5.55171,-12.404157 12.401985,-12.404157 6.850276,0 12.403184,5.553881 12.401985,12.404157 l 0,0 0,0 z"
       id="path4025"
       style="fill:#0000ff;fill-opacity:1;fill-rule:evenodd;stroke:#000000;stroke-width:0.38027155px;stroke-linecap:butt;stroke-linejoin:miter;stroke-opacity:1"
       inkscape:connector-curvature="0" />
    <path
       d="m 45.562914,32.95223 c -4.843029,4.844723 -12.696715,4.845411 -17.54059,0.0015 -4.843878,-4.843877 -4.843189,-12.697563 0.0015,-17.54059 4.843028,-4.844725 12.696714,-4.845413 17.540591,-0.0015 4.843875,4.843876 4.843187,12.697563 -0.0015,17.540591 l 0,0 -10e-7,-10e-7 z"
       id="path4027"
       style="opacity:0.71739131;fill:url(#linearGradient4031);fill-opacity:1;fill-rule:evenodd;stroke:none"
       inkscape:connector-curvature="0" />
    <path
       d="m 39.147988,19.481422 c 6.73e-4,3.844893 -3.11604,6.962154 -6.960935,6.962154 -3.844894,0 -6.961608,-3.117261 -6.960935,-6.962154 -6.73e-4,-3.844895 3.116041,-6.962154 6.960935,-6.962154 3.844895,0 6.961608,3.117259 6.960935,6.962154 l 0,0 z"
       id="path4029"
       style="fill:url(#radialGradient4033);fill-opacity:1;fill-rule:evenodd;stroke:none"
       inkscape:connector-curvature="0" />
  </g>
  <path
     d="m 61.485873,87.95825 c 0.001,5.936378 -4.811051,10.74931 -10.747429,10.74931 -5.936369,0 -10.74846,-4.812932 -10.74742,-10.74931 -0.001,-5.936377 4.811051,-10.749309 10.74742,-10.749309 5.936378,0 10.748469,4.812932 10.747429,10.749309 l 0,0 z"
     id="path4037"
     style="fill:#282828;fill-opacity:1;fill-rule:evenodd;stroke:none"
     inkscape:connector-curvature="0" />
  <g
     transform="matrix(0.86658905,0,0,0.86658905,16.026444,64.966281)"
     id="g4039">
    <path
       d="m 49.066773,24.22879 c 0.0012,6.850275 -5.551709,12.404157 -12.401985,12.404157 -6.850275,0 -12.403184,-5.553882 -12.401985,-12.404157 -0.0012,-6.850276 5.55171,-12.404157 12.401985,-12.404157 6.850276,0 12.403184,5.553881 12.401985,12.404157 l 0,0 0,0 z"
       id="path4041"
       style="fill:#0000ff;fill-opacity:1;fill-rule:evenodd;stroke:#000000;stroke-width:0.38027155px;stroke-linecap:butt;stroke-linejoin:miter;stroke-opacity:1"
       inkscape:connector-curvature="0" />
    <path
       d="m 45.562914,32.95223 c -4.843029,4.844723 -12.696715,4.845411 -17.54059,0.0015 -4.843878,-4.843877 -4.843189,-12.697563 0.0015,-17.54059 4.843028,-4.844725 12.696714,-4.845413 17.540591,-0.0015 4.843875,4.843876 4.843187,12.697563 -0.0015,17.540591 l 0,0 -10e-7,-10e-7 z"
       id="path4043"
       style="opacity:0.71739131;fill:url(#linearGradient4047);fill-opacity:1;fill-rule:evenodd;stroke:none"
       inkscape:connector-curvature="0" />
    <path
       d="m 39.147988,19.481422 c 6.73e-4,3.844893 -3.11604,6.962154 -6.960935,6.962154 -3.844894,0 -6.961608,-3.117261 -6.960935,-6.962154 -6.73e-4,-3.844895 3.116041,-6.962154 6.960935,-6.962154 3.844895,0 6.961608,3.117259 6.960935,6.962154 l 0,0 z"
       id="path4045"
       style="fill:url(#radialGradient4049);fill-opacity:1;fill-rule:evenodd;stroke:none"
       inkscape:connector-curvature="0" />
  </g>
  <path
     d="m 58.547173,49.168111 c 10e-4,5.936373 -4.81105,10.749306 -10.747424,10.749306 -5.936374,0 -10.748464,-4.812933 -10.747425,-10.749306 -10e-4,-5.936374 4.811051,-10.749307 10.747425,-10.749307 5.936374,0 10.748463,4.812933 10.747424,10.749307 l 0,0 0,0 z"
     id="path6914-5"
     style="fill:#ff0000;fill-opacity:1;fill-rule:evenodd;stroke:#000000;stroke-width:0.32953915px;stroke-linecap:butt;stroke-linejoin:miter;stroke-opacity:1"
     inkscape:connector-curvature="0" />
  <path
     d="m 55.510767,56.727748 c -4.196916,4.198384 -11.002834,4.19898 -15.200483,0.0013 -4.197652,-4.197651 -4.197054,-11.003569 0.0013,-15.200483 4.196915,-4.198386 11.002833,-4.198982 15.200484,-0.0013 4.197649,4.19765 4.197053,11.003569 -0.0013,15.200484 l 0,0 -10e-7,-1e-6 z"
     id="path6916-0"
     style="opacity:0.71739131;fill:url(#linearGradient4007);fill-opacity:1;fill-rule:evenodd;stroke:none"
     inkscape:connector-curvature="0" />
  <path
     d="m 49.951663,45.054094 c 5.83e-4,3.331942 -2.700326,6.033326 -6.03227,6.033326 -3.331943,0 -6.032854,-2.701384 -6.03227,-6.033326 -5.84e-4,-3.331944 2.700327,-6.033327 6.03227,-6.033327 3.331944,0 6.032853,2.701383 6.03227,6.033327 l 0,0 z"
     id="path6918-3"
     style="fill:url(#radialGradient4004);fill-opacity:1;fill-rule:evenodd;stroke:none"
     inkscape:connector-curvature="0" />
  <path
     d="m 94.895914,48.918111 c 10e-4,5.936373 -4.81105,10.749307 -10.747424,10.749307 -5.936374,0 -10.748464,-4.812934 -10.747425,-10.749307 -0.001,-5.936374 4.811051,-10.749307 10.747425,-10.749307 5.936374,0 10.748463,4.812933 10.747424,10.749307 l 0,0 0,0 z"
     id="path6914-7"
     style="fill:none;stroke:#000000;stroke-width:1;stroke-linecap:butt;stroke-linejoin:miter;stroke-opacity:1;stroke-miterlimit:4;stroke-dasharray:1,1;stroke-dashoffset:0"
     inkscape:connector-curvature="0" />
  <path
     d="m 91.859508,56.477749 c -4.196916,4.198384 -11.002834,4.19898 -15.200483,0.0013 -4.197652,-4.197651 -4.197054,-11.003569 0.0013,-15.200484 4.196915,-4.198385 11.002833,-4.198981 15.200484,-0.0013 4.197649,4.19765 4.197053,11.00357 -0.0013,15.200485 l 0,0 -10e-7,-10e-7 z"
     id="path6916-6"
     style="opacity:0.71739131;fill:none;stroke:none"
     inkscape:connector-curvature="0" />
  <g
     id="g3906"
     transform="translate(-55.900678,9.1640456)">
    <path
       inkscape:connector-curvature="0"
       style="fill:#282828;fill-opacity:1;fill-rule:evenodd;stroke:none"
       id="path6940"
       d="m 110.59946,38.71708 6.93554,43.258844 10.31584,-5.95585 6.92788,11.99943 6.42827,-3.71136 -6.92788,-11.99944 10.31584,-5.95585 -33.99549,-27.635774 0,0 z" />
    <path
       inkscape:connector-curvature="0"
       style="fill:#ffffff;fill-opacity:1;fill-rule:evenodd;stroke:#000000;stroke-width:1.69662297;stroke-linecap:round;stroke-linejoin:round;stroke-miterlimit:4;stroke-opacity:1;stroke-dashoffset:0"
       id="path6783"
       d="m 107.20836,36.414297 6.93554,43.258844 10.31584,-5.955854 6.92787,11.999435 6.42827,-3.711363 -6.92788,-11.999434 10.31584,-5.955853 -33.99548,-27.635775 0,0 z" />
  </g>
</svg>
