<?xml version="1.0" encoding="UTF-8" standalone="no"?>
<!-- Created with Inkscape (http://www.inkscape.org/) -->

<svg
   xmlns:dc="http://purl.org/dc/elements/1.1/"
   xmlns:cc="http://creativecommons.org/ns#"
   xmlns:rdf="http://www.w3.org/1999/02/22-rdf-syntax-ns#"
   xmlns:svg="http://www.w3.org/2000/svg"
   xmlns="http://www.w3.org/2000/svg"
   xmlns:sodipodi="http://sodipodi.sourceforge.net/DTD/sodipodi-0.dtd"
   xmlns:inkscape="http://www.inkscape.org/namespaces/inkscape"
   version="1.0"
   width="100"
   height="100"
   id="svg2"
   inkscape:version="0.48.5 r10040"
   sodipodi:docname="build_nofold.svg">
  <metadata
     id="metadata34">
    <rdf:RDF>
      <cc:Work
         rdf:about="">
        <dc:format>image/svg+xml</dc:format>
        <dc:type
           rdf:resource="http://purl.org/dc/dcmitype/StillImage" />
      </cc:Work>
    </rdf:RDF>
  </metadata>
  <sodipodi:namedview
     pagecolor="#ffffff"
     bordercolor="#666666"
     borderopacity="1"
     objecttolerance="10"
     gridtolerance="10"
     guidetolerance="10"
     inkscape:pageopacity="0"
     inkscape:pageshadow="2"
     inkscape:window-width="1600"
     inkscape:window-height="834"
     id="namedview32"
     showgrid="false"
     inkscape:zoom="0.295"
     inkscape:cx="-793.55771"
     inkscape:cy="-229.6521"
     inkscape:window-x="0"
     inkscape:window-y="27"
     inkscape:window-maximized="1"
     inkscape:current-layer="svg2" />
  <defs
     id="defs4" />
  <g
     id="g3831"
     transform="matrix(1.1022469,0,0,1.1022469,-2.923664,-6.8818218)">
    <path
       sodipodi:nodetypes="ccccc"
       inkscape:connector-curvature="0"
       id="path3000"
       d="M 25.168212,85.318545 C 5.0935619,44.120586 5.0935619,44.120586 5.0935619,44.120586 54.531112,17.30446 54.531112,17.30446 54.531112,17.30446 70.111435,63.446174 70.111435,63.296363 70.111435,63.296363 z"
       style="fill:#bdc4ff;fill-opacity:1;stroke:#000000;stroke-width:4.5361886;stroke-linecap:round;stroke-linejoin:round;stroke-miterlimit:4;stroke-opacity:1;stroke-dasharray:none" />
    <path
       sodipodi:nodetypes="ccccc"
       inkscape:connector-curvature="0"
       id="path2998"
       d="M 25.31802,85.168734 C 39.99947,47.116802 39.99947,46.81718 39.99947,46.81718 90.93513,18.353136 90.93513,18.353136 90.93513,18.353136 70.86049,62.996742 70.86049,62.996742 70.86049,62.996742 z"
       style="fill:#ffffff;fill-opacity:1;stroke:#000000;stroke-width:4.5361886;stroke-linecap:round;stroke-linejoin:round;stroke-miterlimit:4;stroke-opacity:1;stroke-dasharray:none" />
  </g>
  <path
     style="fill:#bd0d00;fill-opacity:1;stroke:#111314;stroke-width:5;stroke-linecap:round;stroke-linejoin:round;stroke-miterlimit:4;stroke-opacity:1;stroke-dasharray:none;stroke-dashoffset:0"
     d="m 52.658712,55.496734 c -1.55072,1.550724 -1.55072,4.047556 0,5.59828 L 66.071252,74.507558 52.658712,87.9201 c -1.55072,1.55073 -1.55072,4.04756 0,5.59828 l 2.81858,2.81858 c 1.55073,1.55072 4.04756,1.55072 5.59828,0 l 13.41254,-13.412544 13.41255,13.412544 c 1.55072,1.55072 4.047555,1.55072 5.598278,0 l 2.838017,-2.83802 c 1.550724,-1.55072 1.550724,-4.04755 0,-5.59828 L 82.924422,74.48812 96.336957,61.075575 c 1.550724,-1.550724 1.550724,-4.047556 0,-5.59828 L 93.51838,52.658717 c -1.550725,-1.550723 -4.047548,-1.550723 -5.598278,0 L 74.507552,66.071263 61.095012,52.658717 c -1.55072,-1.550723 -4.04756,-1.550723 -5.59828,0 l -2.83802,2.838017 z"
     id="rect3810"
     inkscape:connector-curvature="0" />
</svg>
