<?xml version="1.0" encoding="UTF-8" standalone="no"?>
<!-- Created with Inkscape (http://www.inkscape.org/) -->

<svg
   xmlns:dc="http://purl.org/dc/elements/1.1/"
   xmlns:cc="http://creativecommons.org/ns#"
   xmlns:rdf="http://www.w3.org/1999/02/22-rdf-syntax-ns#"
   xmlns:svg="http://www.w3.org/2000/svg"
   xmlns="http://www.w3.org/2000/svg"
   xmlns:xlink="http://www.w3.org/1999/xlink"
   xmlns:sodipodi="http://sodipodi.sourceforge.net/DTD/sodipodi-0.dtd"
   xmlns:inkscape="http://www.inkscape.org/namespaces/inkscape"
   version="1.0"
   width="100"
   height="100"
   id="svg2"
   inkscape:version="0.48.5 r10040"
   sodipodi:docname="edit_cut.svg">
  <metadata
     id="metadata3991">
    <rdf:RDF>
      <cc:Work
         rdf:about="">
        <dc:format>image/svg+xml</dc:format>
        <dc:type
           rdf:resource="http://purl.org/dc/dcmitype/StillImage" />
      </cc:Work>
    </rdf:RDF>
  </metadata>
  <sodipodi:namedview
     pagecolor="#ffffff"
     bordercolor="#666666"
     borderopacity="1"
     objecttolerance="10"
     gridtolerance="10"
     guidetolerance="10"
     inkscape:pageopacity="0"
     inkscape:pageshadow="2"
     inkscape:window-width="1920"
     inkscape:window-height="1139"
     id="namedview3989"
     showgrid="false"
     inkscape:zoom="0.84852815"
     inkscape:cx="-103.40648"
     inkscape:cy="-207.34206"
     inkscape:window-x="0"
     inkscape:window-y="0"
     inkscape:window-maximized="1"
     inkscape:current-layer="svg2" />
  <defs
     id="defs4">
    <linearGradient
       id="linearGradient4249">
      <stop
         id="stop4251"
         style="stop-color:#ffffff;stop-opacity:1"
         offset="0" />
      <stop
         id="stop4253"
         style="stop-color:#000089;stop-opacity:0.99215686"
         offset="1" />
    </linearGradient>
    <linearGradient
       id="linearGradient3186">
      <stop
         id="stop3188"
         style="stop-color:#d9d9d9;stop-opacity:1"
         offset="0" />
      <stop
         id="stop3190"
         style="stop-color:#5c5c5c;stop-opacity:0.50196081"
         offset="1" />
    </linearGradient>
    <linearGradient
       x1="47.022163"
       y1="35.538288"
       x2="54.146122"
       y2="35.538288"
       id="linearGradient3347"
       xlink:href="#linearGradient3186"
       gradientUnits="userSpaceOnUse"
       gradientTransform="matrix(0.4940958,0.9109764,-0.9100541,0.4945965,71.132177,-30.275602)" />
    <radialGradient
       cx="73.659416"
       cy="67.149292"
       r="12.988102"
       fx="73.659416"
       fy="67.149292"
       id="radialGradient3350"
       xlink:href="#linearGradient4249"
       gradientUnits="userSpaceOnUse"
       gradientTransform="matrix(0.4940958,0.9109764,-1.1256512,0.6117693,85.609371,-38.143672)" />
    <linearGradient
       x1="31.697084"
       y1="36.826233"
       x2="61.910172"
       y2="36.826233"
       id="linearGradient3352"
       xlink:href="#linearGradient3186"
       gradientUnits="userSpaceOnUse"
       gradientTransform="matrix(0.4940958,0.9109764,-0.9100541,0.4945965,71.132177,-30.275602)" />
    <radialGradient
       cx="41.704872"
       cy="77.127258"
       r="13.920598"
       fx="41.704872"
       fy="77.127258"
       id="radialGradient3354"
       xlink:href="#linearGradient4249"
       gradientUnits="userSpaceOnUse"
       gradientTransform="matrix(0.4940958,0.9109764,-1.3534545,0.7355759,105.33043,-48.861682)" />
    <linearGradient
       inkscape:collect="always"
       xlink:href="#linearGradient3186"
       id="linearGradient4007"
       gradientUnits="userSpaceOnUse"
       gradientTransform="matrix(0.4940958,0.9109764,-0.9100541,0.4945965,71.132177,-30.275602)"
       x1="47.022163"
       y1="35.538288"
       x2="54.146122"
       y2="35.538288" />
    <radialGradient
       inkscape:collect="always"
       xlink:href="#linearGradient4249"
       id="radialGradient4009"
       gradientUnits="userSpaceOnUse"
       gradientTransform="matrix(0.4940958,0.9109764,-1.1256512,0.6117693,85.609371,-38.143672)"
       cx="73.659416"
       cy="67.149292"
       fx="73.659416"
       fy="67.149292"
       r="12.988102" />
    <linearGradient
       inkscape:collect="always"
       xlink:href="#linearGradient3186"
       id="linearGradient4011"
       gradientUnits="userSpaceOnUse"
       gradientTransform="matrix(0.4940958,0.9109764,-0.9100541,0.4945965,71.132177,-30.275602)"
       x1="31.697084"
       y1="36.826233"
       x2="61.910172"
       y2="36.826233" />
    <radialGradient
       inkscape:collect="always"
       xlink:href="#linearGradient4249"
       id="radialGradient4013"
       gradientUnits="userSpaceOnUse"
       gradientTransform="matrix(0.4940958,0.9109764,-1.3534545,0.7355759,105.33043,-48.861682)"
       cx="41.704872"
       cy="77.127258"
       fx="41.704872"
       fy="77.127258"
       r="13.920598" />
    <radialGradient
       inkscape:collect="always"
       xlink:href="#linearGradient4249"
       id="radialGradient4017"
       gradientUnits="userSpaceOnUse"
       gradientTransform="matrix(0.52130501,0.96114269,-1.4279875,0.77608311,112.13969,-55.539244)"
       cx="41.704872"
       cy="77.127258"
       fx="41.704872"
       fy="77.127258"
       r="13.920598" />
    <linearGradient
       inkscape:collect="always"
       xlink:href="#linearGradient3186"
       id="linearGradient4020"
       gradientUnits="userSpaceOnUse"
       gradientTransform="matrix(0.52130501,0.96114269,-0.9601696,0.52183329,75.321615,-27.59632)"
       x1="31.697084"
       y1="36.826233"
       x2="61.910172"
       y2="36.826233" />
    <radialGradient
       inkscape:collect="always"
       xlink:href="#linearGradient4249"
       id="radialGradient4024"
       gradientUnits="userSpaceOnUse"
       gradientTransform="matrix(0.52130501,0.96114269,-1.1876393,0.64545864,91.332619,-44.231007)"
       cx="73.659416"
       cy="67.149292"
       fx="73.659416"
       fy="67.149292"
       r="12.988102" />
    <linearGradient
       inkscape:collect="always"
       xlink:href="#linearGradient3186"
       id="linearGradient4027"
       gradientUnits="userSpaceOnUse"
       gradientTransform="matrix(0.52130501,0.96114269,-0.9601696,0.52183329,75.321615,-27.59632)"
       x1="47.022163"
       y1="35.538288"
       x2="54.146122"
       y2="35.538288" />
    <linearGradient
       id="linearGradient4249-0">
      <stop
         id="stop4251-7"
         style="stop-color:#ffffff;stop-opacity:1"
         offset="0" />
      <stop
         id="stop4253-2"
         style="stop-color:#000089;stop-opacity:0.99215686"
         offset="1" />
    </linearGradient>
    <radialGradient
       inkscape:collect="always"
       xlink:href="#linearGradient4249-0"
       id="radialGradient4017-0"
       gradientUnits="userSpaceOnUse"
       gradientTransform="matrix(0.54384686,1.0027037,-1.4897354,0.80964187,8.2409947,-26.781741)"
       cx="41.704872"
       cy="77.127258"
       fx="41.704872"
       fy="77.127258"
       r="13.920598" />
    <radialGradient
       r="12.988102"
       fy="67.149292"
       fx="73.659416"
       cy="67.149292"
       cx="73.659416"
       gradientTransform="matrix(0.52130501,0.96114269,-1.1876393,0.64545864,-16.38871,-11.152264)"
       gradientUnits="userSpaceOnUse"
       id="radialGradient4560"
       xlink:href="#linearGradient4249-0"
       inkscape:collect="always" />
    <radialGradient
       inkscape:collect="always"
       xlink:href="#linearGradient4249-0"
       id="radialGradient4597"
       gradientUnits="userSpaceOnUse"
       gradientTransform="matrix(0.52130501,0.96114269,-1.1876393,0.64545864,-16.38871,-11.152264)"
       cx="73.659416"
       cy="67.149292"
       fx="73.659416"
       fy="67.149292"
       r="12.988102" />
    <radialGradient
       inkscape:collect="always"
       xlink:href="#linearGradient4249-0"
       id="radialGradient4599"
       gradientUnits="userSpaceOnUse"
       gradientTransform="matrix(0.54384686,1.0027037,-1.4897354,0.80964187,8.2409947,-26.781741)"
       cx="41.704872"
       cy="77.127258"
       fx="41.704872"
       fy="77.127258"
       r="13.920598" />
    <radialGradient
       inkscape:collect="always"
       xlink:href="#linearGradient4249"
       id="radialGradient4601"
       gradientUnits="userSpaceOnUse"
       gradientTransform="matrix(0.52130501,0.96114269,-1.1876393,0.64545864,91.332619,-44.231007)"
       cx="73.659416"
       cy="67.149292"
       fx="73.659416"
       fy="67.149292"
       r="12.988102" />
    <radialGradient
       inkscape:collect="always"
       xlink:href="#linearGradient4249"
       id="radialGradient4603"
       gradientUnits="userSpaceOnUse"
       gradientTransform="matrix(0.52130501,0.96114269,-1.4279875,0.77608311,112.13969,-55.539244)"
       cx="41.704872"
       cy="77.127258"
       fx="41.704872"
       fy="77.127258"
       r="13.920598" />
  </defs>
  <path
     d="M 36.872691,60.619706 94.601199,29.30838 C 97.395433,25.884294 99.43207,20.6676 98.238123,18.466292 L 43.319125,48.565614"
     id="rect3184"
     style="fill:url(#linearGradient4027);fill-opacity:1;stroke:#817f7f;stroke-width:5;stroke-miterlimit:4;stroke-opacity:1;stroke-dasharray:none"
     inkscape:connector-curvature="0" />
  <path
     d="M 43.283685,65.878756 76.283137,11.88885 C 79.526379,9.2388613 84.228104,7.2694437 85.99068,8.3506961 L 53.43064,61.185296"
     id="path3359"
     style="fill:#ffffff;fill-opacity:1;stroke:#000000;stroke-width:0.7651785;stroke-miterlimit:4;stroke-opacity:1;stroke-dasharray:none"
     inkscape:connector-curvature="0" />
  <path
     d="M 43.283685,65.878756 76.283137,11.88885 C 79.526379,9.2388614 84.228104,7.2694442 85.99068,8.3506957 L 53.43064,61.185296"
     id="path3210"
     style="fill:url(#linearGradient4020);fill-opacity:1;stroke:#817f7f;stroke-width:5;stroke-miterlimit:4;stroke-opacity:1;stroke-dasharray:none"
     inkscape:connector-curvature="0" />
  <g
     id="g4593"
     transform="translate(-0.73656956,8.3333333)">
    <path
       inkscape:connector-curvature="0"
       style="fill:url(#radialGradient4601);fill-opacity:1;stroke:#323232;stroke-width:5;stroke-miterlimit:4;stroke-opacity:1;stroke-dasharray:none"
       id="path3206"
       d="m 54.6525,52.657188 -10.352861,4.714838 c -1.680256,1.557342 -3.583874,3.698329 -4.912664,5.86882 -5.315162,8.681964 -4.937194,18.589105 0.824272,22.123472 5.761466,3.534365 14.731143,-0.648801 20.046306,-9.330764 5.315161,-8.681959 4.970161,-18.589107 -0.791302,-22.123472 -1.440367,-0.883594 -3.077709,-1.283196 -4.813751,-1.252894 z m -2.20905,6.956859 c 1.077033,0.0022 2.095989,0.269492 3.000352,0.824272 3.617449,2.219121 3.954085,8.232075 0.75833,13.452126 -3.195753,5.220051 -8.713666,7.659323 -12.331115,5.440198 -3.61745,-2.21912 -3.954084,-8.232075 -0.758331,-13.452126 2.396816,-3.915038 6.099664,-6.270977 9.330764,-6.26447 z" />
    <path
       inkscape:connector-curvature="0"
       style="fill:url(#radialGradient4603);fill-opacity:1;stroke:#323232;stroke-width:5;stroke-miterlimit:4;stroke-opacity:1;stroke-dasharray:none"
       id="path3180"
       d="m 30.682658,27.73119 c -4.351919,-0.018 -9.261987,1.212639 -13.946689,3.758682 C 6.028077,37.309401 0.47699591,47.81187 4.3389116,54.93218 8.2008283,62.052488 20.040709,63.125612 30.7486,57.306084 c 2.676973,-1.454881 5.353196,-3.558989 7.319539,-5.473169 l 6.26447,-12.13329 C 44.477729,37.622849 44.111137,35.643857 43.145657,33.863777 40.97333,29.858604 36.277983,27.754332 30.682658,27.73119 z m -4.385129,6.594179 c 3.892281,-0.230298 7.287741,1.129395 8.803229,3.923537 2.424781,4.470625 -0.848423,10.942248 -7.286568,14.441253 -6.438145,3.499005 -13.632047,2.723169 -16.056827,-1.747458 -2.42478,-4.470626 0.848424,-10.942248 7.286569,-14.441253 2.414304,-1.312125 4.918229,-2.0379 7.253597,-2.176079 l 0,0 z" />
  </g>
  <path
     d="m 62.581769,45.109024 c -1.487329,0.808304 -3.347667,0.256668 -4.155181,-1.232113 -0.807517,-1.488783 -0.256419,-3.35094 1.23091,-4.159244 1.487329,-0.808305 3.347665,-0.256669 4.155181,1.232114 0.807517,1.488781 0.256419,3.350938 -1.23091,4.159243 l 0,0 z"
     id="path5309"
     style="fill:#ffffff;fill-opacity:1;stroke:#003232;stroke-width:0.21862245;stroke-miterlimit:4;stroke-opacity:1;stroke-dasharray:none"
     inkscape:connector-curvature="0" />
  <g
     id="g4589"
     transform="translate(107.43071,-24.385143)"
     style="stroke:#000058;stroke-opacity:1">
    <path
       inkscape:connector-curvature="0"
       style="fill:url(#radialGradient4597);fill-opacity:1;stroke:#000058;stroke-width:2.50000000000000000;stroke-miterlimit:4;stroke-opacity:1;stroke-dasharray:none"
       id="path3206-6"
       d="m -53.068829,85.735931 -10.352861,4.714838 c -1.680256,1.557342 -3.583874,3.698329 -4.912664,5.86882 -5.315162,8.681961 -4.937194,18.589101 0.824272,22.123471 5.761466,3.53437 14.731143,-0.6488 20.046306,-9.33076 5.315161,-8.68196 4.970161,-18.58911 -0.791302,-22.123475 -1.440367,-0.883594 -3.077709,-1.283196 -4.813751,-1.252894 z m -2.20905,6.956859 c 1.077033,0.0022 2.095989,0.269492 3.000352,0.824272 3.617449,2.219121 3.954085,8.232078 0.75833,13.452128 -3.195753,5.22005 -8.713666,7.65932 -12.331115,5.4402 -3.61745,-2.21912 -3.954084,-8.23208 -0.758331,-13.45213 2.396816,-3.915038 6.099664,-6.270977 9.330764,-6.26447 z" />
    <path
       inkscape:connector-curvature="0"
       style="fill:url(#radialGradient4599);fill-opacity:1;stroke:#000058;stroke-width:2.50000000000000000;stroke-miterlimit:4;stroke-opacity:1;stroke-dasharray:none"
       id="path3180-5"
       d="m -76.73834,60.089407 c -4.540101,-0.01878 -9.662487,1.265075 -14.549761,3.921212 -11.170909,6.071172 -16.962029,17.02778 -12.933119,24.455981 4.02891,7.428199 16.38076,8.547726 27.551673,2.476555 2.792729,-1.517792 5.584675,-3.712884 7.636045,-5.709836 l 6.535353,-12.657948 c 0.151395,-2.166578 -0.231049,-4.231144 -1.238277,-6.088197 -2.266261,-4.178361 -7.164641,-6.373625 -13.001914,-6.397767 z m -4.574748,6.879319 c 4.060588,-0.240256 7.602872,1.178231 9.183892,4.093195 2.529631,4.663941 -0.88511,11.415404 -7.601648,15.065711 -6.716538,3.650306 -14.221513,2.840922 -16.751144,-1.823021 -2.52963,-4.663941 0.885111,-11.415404 7.601649,-15.06571 2.518702,-1.368863 5.130899,-2.126021 7.567251,-2.270175 l 0,0 z" />
  </g>
</svg>
