<?xml version="1.0" encoding="UTF-8" standalone="no"?>
<!-- Created with Inkscape (http://www.inkscape.org/) -->
<svg
   xmlns:dc="http://purl.org/dc/elements/1.1/"
   xmlns:cc="http://web.resource.org/cc/"
   xmlns:rdf="http://www.w3.org/1999/02/22-rdf-syntax-ns#"
   xmlns:svg="http://www.w3.org/2000/svg"
   xmlns="http://www.w3.org/2000/svg"
   xmlns:xlink="http://www.w3.org/1999/xlink"
   xmlns:sodipodi="http://sodipodi.sourceforge.net/DTD/sodipodi-0.dtd"
   xmlns:inkscape="http://www.inkscape.org/namespaces/inkscape"
   version="1.0"
   width="100"
   height="100"
   id="svg2"
   sodipodi:version="0.32"
   inkscape:version="0.45.1"
   sodipodi:docname="file_save.svg"
   sodipodi:docbase="/home/tris/src/aten/src/gui-qt/icons"
   inkscape:output_extension="org.inkscape.output.svg.inkscape">
  <metadata
     id="metadata2566">
    <rdf:RDF>
      <cc:Work
         rdf:about="">
        <dc:format>image/svg+xml</dc:format>
        <dc:type
           rdf:resource="http://purl.org/dc/dcmitype/StillImage" />
      </cc:Work>
    </rdf:RDF>
  </metadata>
  <sodipodi:namedview
     inkscape:window-height="845"
     inkscape:window-width="1440"
     inkscape:pageshadow="2"
     inkscape:pageopacity="0.0"
     guidetolerance="10.0"
     gridtolerance="10.0"
     objecttolerance="10.0"
     borderopacity="1.0"
     bordercolor="#666666"
     pagecolor="#ffffff"
     id="base"
     inkscape:zoom="2.9584167"
     inkscape:cx="68.419358"
     inkscape:cy="39.380338"
     inkscape:window-x="0"
     inkscape:window-y="6"
     inkscape:current-layer="svg2" />
  <defs
     id="defs4">
    <linearGradient
       id="linearGradient5072">
      <stop
         style="stop-color:#862bff;stop-opacity:1;"
         offset="0"
         id="stop5074" />
      <stop
         style="stop-color:#9b50ff;stop-opacity:1;"
         offset="1"
         id="stop5076" />
    </linearGradient>
    <linearGradient
       id="linearGradient5064">
      <stop
         style="stop-color:#dadada;stop-opacity:1;"
         offset="0"
         id="stop5066" />
      <stop
         style="stop-color:#898989;stop-opacity:1;"
         offset="1"
         id="stop5068" />
    </linearGradient>
    <linearGradient
       inkscape:collect="always"
       xlink:href="#linearGradient5064"
       id="linearGradient2188"
       gradientUnits="userSpaceOnUse"
       x1="32.942781"
       y1="25.952554"
       x2="66.236531"
       y2="25.952554"
       gradientTransform="matrix(1.3775501,0,0,1.3775501,-18.349145,-15.472925)" />
    <linearGradient
       inkscape:collect="always"
       xlink:href="#linearGradient5072"
       id="linearGradient2191"
       gradientUnits="userSpaceOnUse"
       x1="15.350921"
       y1="46.012269"
       x2="80.354601"
       y2="46.012269"
       gradientTransform="matrix(1.3775501,0,0,1.3775501,-18.349145,-15.472925)" />
  </defs>
  <g
     id="g2244"
     transform="matrix(1.2779915,0,0,1.2779915,-104.02209,-17.713247)"
     style="fill:#282828;fill-opacity:1">
    <path
       style="fill:#282828;fill-opacity:1;fill-rule:evenodd;stroke:none;stroke-width:1.20000005;stroke-linecap:round;stroke-linejoin:round;stroke-miterlimit:4;stroke-dashoffset:0;stroke-opacity:1"
       d="M 88.982804,21.695016 L 148.71931,21.695016 L 157.75694,30.291784 L 157.75694,90.469153 L 88.982804,90.469153 L 88.982804,21.695016 z "
       id="path5144"
       sodipodi:nodetypes="cccccc" />
    <rect
       style="fill:#282828;fill-opacity:1;fill-rule:evenodd;stroke:none;stroke-width:0.58104563;stroke-linecap:round;stroke-linejoin:round;stroke-miterlimit:4;stroke-dasharray:none;stroke-dashoffset:0;stroke-opacity:1"
       id="rect5150"
       width="4.4322443"
       height="3.9189899"
       x="91.684052"
       y="84.238586" />
  </g>
  <path
     style="fill:url(#linearGradient2191);fill-opacity:1;fill-rule:evenodd;stroke:#000000;stroke-width:1.6530602;stroke-linecap:round;stroke-linejoin:round;stroke-miterlimit:4;stroke-dashoffset:0;stroke-opacity:1"
     d="M 3.6240475,3.9648981 L 79.966805,3.9648981 L 91.516815,14.951493 L 91.516815,91.857665 L 3.6240475,91.857665 L 3.6240475,3.9648981 z "
     id="rect5048"
     sodipodi:nodetypes="cccccc" />
  <path
     style="fill:url(#linearGradient2188);fill-opacity:1;fill-rule:evenodd;stroke:#000000;stroke-width:1.6530602;stroke-linecap:round;stroke-linejoin:round;stroke-miterlimit:4;stroke-dashoffset:0;stroke-opacity:1"
     d="M 27.857716,3.9411351 L 27.857716,36.614902 L 72.068466,36.614902 L 72.068466,3.9411351 L 27.857716,3.9411351 z M 56.140543,9.9248694 L 66.515217,9.9248694 L 66.515217,31.061653 L 56.140543,31.061653 L 56.140543,9.9248694 z "
     id="rect5051" />
  <rect
     style="fill:#ffffff;fill-opacity:1;fill-rule:evenodd;stroke:#000000;stroke-width:1.6530602;stroke-linecap:round;stroke-linejoin:round;stroke-miterlimit:4;stroke-dasharray:none;stroke-dashoffset:0;stroke-opacity:1"
     id="rect5080"
     width="62.547966"
     height="46.213783"
     x="16.427879"
     y="45.673618" />
  <rect
     style="fill:#ffffff;fill-opacity:1;fill-rule:evenodd;stroke:#000000;stroke-width:0.80041945;stroke-linecap:round;stroke-linejoin:round;stroke-miterlimit:4;stroke-dasharray:none;stroke-dashoffset:0;stroke-opacity:1"
     id="rect5082"
     width="5.6643705"
     height="5.0084357"
     x="7.07621"
     y="83.895042" />
  <path
     style="font-size:8.88496017px;font-style:normal;font-weight:normal;line-height:125%;fill:#000000;fill-opacity:1;stroke:none;stroke-width:1px;stroke-linecap:butt;stroke-linejoin:miter;stroke-opacity:1;font-family:Bitstream Vera Sans"
     d="M 25.831618,52.314179 C 28.775387,54.687601 21.32721,57.939281 23.87607,53.757303 C 25.380198,50.826914 19.584954,53.753473 22.909332,53.285321 C 21.007384,57.545958 26.613974,58.671173 26.891747,54.224501 C 27.161168,53.524146 27.14854,51.334911 25.831618,52.314179 z M 27.204007,56.142811 C 29.648478,58.897429 29.569724,50.871171 28.013265,55.0691 C 29.150414,56.723894 28.796323,56.098707 27.204007,56.142811 z M 32.792021,55.683377 C 30.932515,57.067174 31.804149,51.362287 30.46971,55.817526 C 30.28528,57.777459 32.440795,56.799401 32.792021,55.683377 z M 30.957917,55.326037 C 30.605837,53.31638 33.186337,54.886847 30.957917,55.326037 z M 35.42297,54.194467 C 34.39886,52.948711 36.67857,50.003522 34.515558,52.971086 C 33.541962,54.683227 32.289463,61.267332 34.22778,56.32925 C 34.424585,55.537394 34.680693,54.654499 35.42297,54.194467 z M 35.873799,54.296562 C 35.046725,57.595573 40.777274,56.989727 38.587867,54.069742 C 37.666769,58.0334 36.981028,52.504489 35.873799,54.296562 L 35.873799,54.296562 z M 41.684974,55.751439 C 39.041585,55.381202 43.052339,49.161267 40.282968,53.663868 C 39.938802,54.793189 39.692391,58.485632 41.684974,55.751439 z M 45.950746,54.194467 C 44.926622,52.948714 47.206355,50.003521 45.04333,52.971088 C 44.069734,54.683228 42.817236,61.267329 44.755552,56.329245 C 44.952358,55.53739 45.208469,54.654498 45.950746,54.194467 z M 47.760167,52.645997 C 49.192738,52.099966 46.506447,51.723299 47.760167,52.645997 z M 48.346064,55.862046 C 46.785343,54.228819 47.014023,52.980007 46.756886,56.384956 C 47.048275,57.230748 48.188676,56.264864 48.346064,55.862046 z M 50.342028,55.751439 C 47.698638,55.381203 51.709395,49.161268 48.940022,53.663869 C 48.595852,54.793192 48.34945,58.485631 50.342028,55.751439 z M 52.991813,55.683377 C 51.132308,57.067172 52.003948,51.362285 50.669503,55.817522 C 50.485073,57.777454 52.640585,56.799402 52.991813,55.683377 z M 51.157714,55.326037 C 50.805632,53.31638 53.386134,54.886845 51.157714,55.326037 z M 53.015965,56.142811 C 55.460437,58.897426 55.381678,50.871174 53.825218,55.069098 C 54.962356,56.723879 54.60829,56.098719 53.015965,56.142811 z "
     id="text5084" />
  <path
     style="font-size:8.88496017px;font-style:normal;font-weight:normal;line-height:125%;fill:#000000;fill-opacity:1;stroke:none;stroke-width:1px;stroke-linecap:butt;stroke-linejoin:miter;stroke-opacity:1;font-family:Bitstream Vera Sans"
     d="M 25.325982,66.329097 C 23.955662,67.548738 22.099617,65.946641 23.24177,64.43243 C 23.285596,63.548481 24.598993,62.102356 24.260022,61.844782 C 22.232336,61.996855 21.611992,64.583402 22.085338,66.225669 C 22.744393,67.911835 24.446642,67.58857 25.325982,66.329097 z M 25.889056,66.941679 C 25.677462,65.1657 28.232165,65.540671 28.723671,65.001659 C 28.234614,64.16485 28.233002,62.095956 27.546653,62.034483 C 26.369656,63.337081 26.327999,65.209643 25.905794,66.83344 L 25.89318,66.91501 L 25.889056,66.941679 z M 32.220313,65.699505 C 30.896789,66.571593 30.955406,62.61887 30.104446,64.75791 C 28.655747,66.191111 31.693703,67.860107 32.159688,65.896347 C 32.179895,65.830733 32.200104,65.765119 32.220313,65.699505 z M 30.386212,65.342167 C 29.509192,64.222679 32.155486,64.033267 31.075018,65.117176 C 30.862572,65.237589 30.622263,65.291445 30.386212,65.342167 z M 33.263405,66.720474 C 33.011088,64.434586 35.724605,65.440973 36.87765,65.807919 C 37.936871,64.355853 35.588295,62.517793 34.170013,63.546768 C 32.90749,64.072347 32.236582,65.646685 33.263405,66.720474 z M 39.208046,62.66212 C 40.533263,62.191449 38.16631,61.991567 39.208046,62.66212 z M 39.793942,65.878174 C 39.894768,64.788031 37.898529,63.604676 38.14944,65.383299 C 37.927656,66.764548 39.268544,67.449448 39.793942,65.878174 z M 42.43524,65.784587 C 41.062367,66.767314 41.124186,62.67543 40.386891,64.719496 C 39.003479,66.042426 41.632478,68.008166 42.322465,66.110998 C 42.383138,66.011583 42.395505,65.892372 42.43524,65.784587 z M 46.246467,65.75906 C 46.444207,63.719827 43.545443,62.675396 43.129097,65.031134 C 42.666603,67.356855 45.166724,66.812757 46.246467,65.75906 z M 44.59068,65.810109 C 42.650916,66.172659 44.677331,63.371377 45.151047,64.80395 C 45.054837,65.182573 44.808537,65.495255 44.59068,65.810109 z M 48.237923,65.767567 C 46.656448,65.246179 47.862537,62.699139 47.655164,62.340722 C 46.596755,63.355194 46.340166,65.017107 46.780288,66.367751 C 47.250774,67.052939 48.0373,66.279969 48.237923,65.767567 z M 52.614077,65.793093 C 51.608418,65.660895 51.791434,62.3705 51.002329,64.244021 C 50.23352,65.329829 51.314402,68.296243 52.614077,65.793093 z M 55.484903,65.699505 C 54.161379,66.571599 54.219994,62.61887 53.369034,64.757911 C 51.920338,66.191115 54.95829,67.860104 55.424277,65.896346 C 55.444485,65.830733 55.464694,65.765119 55.484903,65.699505 z M 53.650797,65.342167 C 52.77378,64.222678 55.42007,64.033268 54.3396,65.117176 C 54.127155,65.237589 53.886846,65.291446 53.650797,65.342167 z M 55.509049,66.158944 C 56.601293,67.958489 58.155753,64.7539 56.992093,64.176641 C 55.939455,64.725648 56.815186,65.82463 56.970252,66.365246 C 56.485888,66.511708 55.981309,66.249878 55.509049,66.158944 z M 60.95271,65.793093 C 59.947055,65.660892 60.130073,62.370503 59.340968,64.244022 C 58.572161,65.329827 59.653032,68.296242 60.95271,65.793093 z M 60.961993,66.158944 C 62.054236,67.958492 63.6087,64.753902 62.44504,64.176642 C 61.392398,64.725652 62.268139,65.824635 62.4232,66.365249 C 61.938834,66.511707 61.434256,66.249876 60.961993,66.158944 z "
     id="text5092" />
</svg>
