<?xml version="1.0" encoding="UTF-8" standalone="no"?>
<!-- Created with Inkscape (http://www.inkscape.org/) -->
<svg
   xmlns:dc="http://purl.org/dc/elements/1.1/"
   xmlns:cc="http://creativecommons.org/ns#"
   xmlns:rdf="http://www.w3.org/1999/02/22-rdf-syntax-ns#"
   xmlns:svg="http://www.w3.org/2000/svg"
   xmlns="http://www.w3.org/2000/svg"
   xmlns:xlink="http://www.w3.org/1999/xlink"
   xmlns:sodipodi="http://sodipodi.sourceforge.net/DTD/sodipodi-0.dtd"
   xmlns:inkscape="http://www.inkscape.org/namespaces/inkscape"
   version="1.0"
   width="100"
   height="100"
   id="svg2"
   sodipodi:version="0.32"
   inkscape:version="0.46"
   sodipodi:docname="file_close.svg"
   sodipodi:docbase="/home/tris/src/aten/src/gui/icons"
   inkscape:output_extension="org.inkscape.output.svg.inkscape">
  <metadata
     id="metadata2566">
    <rdf:RDF>
      <cc:Work
         rdf:about="">
        <dc:format>image/svg+xml</dc:format>
        <dc:type
           rdf:resource="http://purl.org/dc/dcmitype/StillImage" />
      </cc:Work>
    </rdf:RDF>
  </metadata>
  <sodipodi:namedview
     inkscape:window-height="725"
     inkscape:window-width="1024"
     inkscape:pageshadow="2"
     inkscape:pageopacity="0.0"
     guidetolerance="10.0"
     gridtolerance="10.0"
     objecttolerance="10.0"
     borderopacity="1.0"
     bordercolor="#666666"
     pagecolor="#ffffff"
     id="base"
     inkscape:zoom="0.26630826"
     inkscape:cx="-770.95798"
     inkscape:cy="-152.58415"
     inkscape:window-x="0"
     inkscape:window-y="0"
     inkscape:current-layer="svg2"
     showgrid="false" />
  <defs
     id="defs4">
    <linearGradient
       inkscape:collect="always"
       xlink:href="#linearGradient5072"
       id="linearGradient2191"
       gradientUnits="userSpaceOnUse"
       x1="15.350921"
       y1="46.012269"
       x2="80.354601"
       y2="46.012269"
       gradientTransform="matrix(0.5862815,0,0,0.5862815,48.276596,51.265049)" />
    <linearGradient
       inkscape:collect="always"
       xlink:href="#linearGradient5064"
       id="linearGradient2188"
       gradientUnits="userSpaceOnUse"
       x1="32.942781"
       y1="25.952554"
       x2="66.236531"
       y2="25.952554"
       gradientTransform="matrix(0.5862815,0,0,0.5862815,48.276596,51.265049)" />
    <inkscape:perspective
       sodipodi:type="inkscape:persp3d"
       inkscape:vp_x="0 : 50 : 1"
       inkscape:vp_y="0 : 1000 : 0"
       inkscape:vp_z="100 : 50 : 1"
       inkscape:persp3d-origin="50 : 33.333333 : 1"
       id="perspective22" />
    <linearGradient
       id="linearGradient5064">
      <stop
         style="stop-color:#dadada;stop-opacity:1;"
         offset="0"
         id="stop5066" />
      <stop
         style="stop-color:#898989;stop-opacity:1;"
         offset="1"
         id="stop5068" />
    </linearGradient>
    <linearGradient
       inkscape:collect="always"
       xlink:href="#linearGradient5064"
       id="linearGradient6168"
       gradientUnits="userSpaceOnUse"
       x1="32.942781"
       y1="25.952554"
       x2="66.236531"
       y2="25.952554" />
    <linearGradient
       id="linearGradient5072">
      <stop
         style="stop-color:#862bff;stop-opacity:1;"
         offset="0"
         id="stop5074" />
      <stop
         style="stop-color:#9b50ff;stop-opacity:1;"
         offset="1"
         id="stop5076" />
    </linearGradient>
    <linearGradient
       inkscape:collect="always"
       xlink:href="#linearGradient5072"
       id="linearGradient6166"
       gradientUnits="userSpaceOnUse"
       x1="15.350921"
       y1="46.012269"
       x2="80.354601"
       y2="46.012269" />
    <linearGradient
       inkscape:collect="always"
       xlink:href="#linearGradient5064"
       id="linearGradient2194"
       gradientUnits="userSpaceOnUse"
       x1="32.942781"
       y1="25.952554"
       x2="66.236531"
       y2="25.952554"
       gradientTransform="matrix(0.6189743,0,0,0.6189743,46.374033,49.74404)" />
    <linearGradient
       inkscape:collect="always"
       xlink:href="#linearGradient5072"
       id="linearGradient2197"
       gradientUnits="userSpaceOnUse"
       x1="15.350921"
       y1="46.012269"
       x2="80.354601"
       y2="46.012269"
       gradientTransform="matrix(0.6189743,0,0,0.6189743,46.374033,49.74404)" />
  </defs>
  <g
     id="g2222"
     transform="matrix(1.4729505,0,0,1.3857781,-14.783037,-10.951583)"
     style="fill:#282828;fill-opacity:1">
    <path
       sodipodi:nodetypes="ccsccccc"
       id="path2224"
       d="M 18.48245,76.173836 C 28.750053,59.008499 37.561029,40.501038 52.045447,26.345519 C 56.907363,21.574658 66.500275,16.602181 68.476793,14.306386 C 69.395743,13.238993 69.953497,18.355761 66.72841,17.998056 C 62.380718,21.775209 59.22864,26.731119 54.727673,30.353225 C 43.582066,41.395155 36.018982,55.454188 30.113,69.844498 C 28.785513,73.202704 24.998844,73.81405 21.99056,74.848317 C 20.802165,75.236668 19.61882,75.649559 18.48245,76.173836 z "
       style="fill:#282828;fill-opacity:1;fill-rule:evenodd;stroke:none;stroke-width:1.25;stroke-linecap:butt;stroke-linejoin:round;stroke-miterlimit:4;stroke-dasharray:none;stroke-dashoffset:0;stroke-opacity:1" />
    <path
       id="path2226"
       d="M 26.043592,14.383832 C 38.436485,16.889832 48.366606,25.59638 55.937949,35.265024 C 62.764473,42.904404 68.329753,52.307507 71.828855,61.737511 C 71.589676,72.866367 56.700653,71.981932 56.969096,60.998788 C 52.254723,44.377654 38.65891,32.065429 23.974756,24.019933 C 18.157071,23.582576 15.019119,19.057891 22.177016,16.869152 C 23.475414,16.055998 24.800321,15.281865 26.043592,14.383832 z "
       style="fill:#282828;fill-opacity:1;fill-rule:evenodd;stroke:none;stroke-width:1.25;stroke-linecap:butt;stroke-linejoin:round;stroke-miterlimit:4;stroke-dasharray:none;stroke-dashoffset:0;stroke-opacity:1" />
  </g>
  <g
     id="g2218"
     transform="matrix(1.4729505,0,0,1.3857781,-18.154375,-13.676637)">
    <path
       sodipodi:nodetypes="ccsccccc"
       id="path3233"
       d="M 18.48245,76.173836 C 28.750053,59.008499 37.561029,40.501038 52.045447,26.345519 C 56.907363,21.574658 66.500275,16.602181 68.476793,14.306386 C 69.395743,13.238993 69.953497,18.355761 66.72841,17.998056 C 62.380718,21.775209 59.22864,26.731119 54.727673,30.353225 C 43.582066,41.395155 36.018982,55.454188 30.113,69.844498 C 28.785513,73.202704 24.998844,73.81405 21.99056,74.848317 C 20.802165,75.236668 19.61882,75.649559 18.48245,76.173836 z "
       style="fill:#010101;fill-opacity:1;fill-rule:evenodd;stroke:none;stroke-width:1.25;stroke-linecap:butt;stroke-linejoin:round;stroke-miterlimit:4;stroke-dasharray:none;stroke-dashoffset:0;stroke-opacity:1" />
    <path
       id="path3235"
       d="M 26.043592,14.383832 C 38.436485,16.889832 48.366606,25.59638 55.937949,35.265024 C 62.764473,42.904404 68.329753,52.307507 71.828855,61.737511 C 71.589676,72.866367 56.700653,71.981932 56.969096,60.998788 C 52.254723,44.377654 38.65891,32.065429 23.974756,24.019933 C 18.157071,23.582576 15.019119,19.057891 22.177016,16.869152 C 23.475414,16.055998 24.800321,15.281865 26.043592,14.383832 z "
       style="fill:#010101;fill-opacity:1;fill-rule:evenodd;stroke:none;stroke-width:1.25;stroke-linecap:butt;stroke-linejoin:round;stroke-miterlimit:4;stroke-dasharray:none;stroke-dashoffset:0;stroke-opacity:1" />
  </g>
  <g
     id="g2244"
     transform="matrix(0.5439097,0,0,0.5439097,11.814421,50.311576)"
     style="fill:#282828;fill-opacity:1">
    <path
       style="fill:#282828;fill-opacity:1;fill-rule:evenodd;stroke:none;stroke-width:1.20000005;stroke-linecap:round;stroke-linejoin:round;stroke-miterlimit:4;stroke-dashoffset:0;stroke-opacity:1"
       d="M 88.982804,21.695016 L 148.71931,21.695016 L 157.75694,30.291784 L 157.75694,90.469153 L 88.982804,90.469153 L 88.982804,21.695016 z"
       id="path5144"
       sodipodi:nodetypes="cccccc" />
    <rect
       style="fill:#282828;fill-opacity:1;fill-rule:evenodd;stroke:none;stroke-width:0.58104563;stroke-linecap:round;stroke-linejoin:round;stroke-miterlimit:4;stroke-dasharray:none;stroke-dashoffset:0;stroke-opacity:1"
       id="rect5150"
       width="4.4322443"
       height="3.9189899"
       x="91.684052"
       y="84.238586" />
  </g>
  <path
     style="fill:url(#linearGradient2191);fill-opacity:1;fill-rule:evenodd;stroke:#000000;stroke-width:0.703538;stroke-linecap:round;stroke-linejoin:round;stroke-miterlimit:4;stroke-dashoffset:0;stroke-opacity:1"
     d="M 57.628331,59.537737 L 90.119603,59.537737 L 95.035255,64.213602 L 95.035255,96.944662 L 57.628331,96.944662 L 57.628331,59.537737 z"
     id="rect5048"
     sodipodi:nodetypes="cccccc" />
  <path
     style="fill:url(#linearGradient2188);fill-opacity:1;fill-rule:evenodd;stroke:#000000;stroke-width:0.703538;stroke-linecap:round;stroke-linejoin:round;stroke-miterlimit:4;stroke-dashoffset:0;stroke-opacity:1"
     d="M 67.942115,59.527623 L 67.942115,73.433486 L 86.758088,73.433486 L 86.758088,59.527623 L 67.942115,59.527623 z M 79.97921,62.074284 L 84.394642,62.074284 L 84.394642,71.07004 L 79.97921,71.07004 L 79.97921,62.074284 z"
     id="rect5051" />
  <rect
     style="fill:#ffffff;fill-opacity:1;fill-rule:evenodd;stroke:#000000;stroke-width:0.703538;stroke-linecap:round;stroke-linejoin:round;stroke-miterlimit:4;stroke-dasharray:none;stroke-dashoffset:0;stroke-opacity:1"
     id="rect5080"
     width="26.620247"
     height="19.668463"
     x="63.077602"
     y="77.288857" />
  <rect
     style="fill:#ffffff;fill-opacity:1;fill-rule:evenodd;stroke:#000000;stroke-width:0.34065637;stroke-linecap:round;stroke-linejoin:round;stroke-miterlimit:4;stroke-dasharray:none;stroke-dashoffset:0;stroke-opacity:1"
     id="rect5082"
     width="2.4107411"
     height="2.131577"
     x="59.097557"
     y="93.555786" />
  <path
     style="font-size:8.88496017px;font-style:normal;font-weight:normal;line-height:125%;fill:#000000;fill-opacity:1;stroke:none;stroke-width:1px;stroke-linecap:butt;stroke-linejoin:miter;stroke-opacity:1;font-family:Bitstream Vera Sans"
     d="M 67.079813,80.115057 C 68.332678,81.125188 65.162745,82.50909 66.247536,80.729255 C 66.88769,79.48208 64.421247,80.727624 65.8361,80.528378 C 65.026636,82.341688 67.412785,82.820583 67.530999,80.928093 C 67.645661,80.630019 67.640291,79.698284 67.079813,80.115057 z M 67.663899,81.744514 C 68.704253,82.916876 68.670744,79.500924 68.008317,81.287551 C 68.492284,81.991823 68.341587,81.725747 67.663899,81.744514 z M 70.042142,81.548985 C 69.25074,82.137922 69.621709,79.709939 69.053777,81.606079 C 68.97528,82.440219 69.892658,82.023965 70.042142,81.548985 z M 69.261556,81.396899 C 69.111709,80.541599 70.209963,81.209981 69.261556,81.396899 z M 71.161864,80.915302 C 70.726005,80.385113 71.696244,79.131653 70.775679,80.39464 C 70.36131,81.123325 69.828254,83.925497 70.653198,81.82386 C 70.736954,81.486851 70.84596,81.111097 71.161864,80.915302 z M 71.353733,80.958757 C 71.00174,82.362804 73.440639,82.104964 72.508839,80.862222 C 72.11682,82.549148 71.824976,80.196056 71.353733,80.958757 L 71.353733,80.958757 z M 73.826957,81.577951 C 72.701943,81.420374 74.408904,78.773187 73.230268,80.689484 C 73.083795,81.170121 72.978923,82.741613 73.826957,81.577951 z M 75.642462,80.915302 C 75.206592,80.385113 76.176841,79.131653 75.256265,80.39464 C 74.841907,81.123325 74.308851,83.925497 75.133785,81.82386 C 75.217552,81.486851 75.326547,81.111097 75.642462,80.915302 z M 76.412539,80.256282 C 77.022239,80.023891 75.878965,79.86358 76.412539,80.256282 z M 76.6619,81.625022 C 75.997663,80.929923 76.094993,80.398433 75.985546,81.847577 C 76.109569,82.207542 76.594915,81.796459 76.6619,81.625022 z M 77.511378,81.577951 C 76.386363,81.420374 78.093325,78.773187 76.914689,80.689484 C 76.768204,81.170121 76.663344,82.741613 77.511378,81.577951 z M 78.639116,81.548985 C 77.847713,82.137922 78.218683,79.709939 77.65075,81.606079 C 77.572254,82.440219 78.489632,82.023965 78.639116,81.548985 z M 77.85853,81.396899 C 77.708683,80.541599 78.806936,81.209981 77.85853,81.396899 z M 78.649404,81.744514 C 79.689758,82.916876 79.656238,79.500924 78.99381,81.287551 C 79.477777,81.991812 79.327092,81.725747 78.649404,81.744514 z"
     id="text5084" />
  <path
     style="font-size:8.88496017px;font-style:normal;font-weight:normal;line-height:125%;fill:#000000;fill-opacity:1;stroke:none;stroke-width:1px;stroke-linecap:butt;stroke-linejoin:miter;stroke-opacity:1;font-family:Bitstream Vera Sans"
     d="M 66.864612,86.079774 C 66.281409,86.598849 65.491483,85.917004 65.977578,85.27256 C 65.996235,84.896353 66.555214,84.280886 66.410946,84.171262 C 65.547971,84.235987 65.283946,85.33681 65.485408,86.035757 C 65.765895,86.753382 66.490368,86.615807 66.864612,86.079774 z M 67.104258,86.340491 C 67.014206,85.584637 68.101478,85.744221 68.310658,85.514819 C 68.102525,85.15868 68.101831,84.278163 67.809722,84.251997 C 67.308796,84.806378 67.291066,85.603338 67.111381,86.294423 L 67.106011,86.329134 L 67.104258,86.340491 z M 69.798824,85.811824 C 69.235534,86.18298 69.260487,84.500707 68.898317,85.411083 C 68.281758,86.021048 69.574704,86.731363 69.773023,85.89559 C 69.781623,85.867672 69.790224,85.839742 69.798824,85.811824 z M 69.018239,85.659738 C 68.644976,85.183291 69.771237,85.102677 69.311384,85.563985 C 69.220968,85.615235 69.118699,85.638148 69.018239,85.659738 z M 70.242766,86.246337 C 70.135381,85.273475 71.290244,85.701792 71.78097,85.857958 C 72.231781,85.239966 71.232223,84.457693 70.62861,84.895625 C 70.091286,85.119305 69.805749,85.789341 70.242766,86.246337 z M 72.772787,84.519121 C 73.336794,84.318806 72.32943,84.233727 72.772787,84.519121 z M 73.022136,85.887861 C 73.06505,85.423896 72.215462,84.920269 72.32224,85.677247 C 72.227855,86.265104 72.798533,86.556585 73.022136,85.887861 z M 74.146268,85.848034 C 73.561984,86.266273 73.588293,84.524777 73.274495,85.394731 C 72.685723,85.957768 73.804618,86.794378 74.098271,85.986954 C 74.124094,85.944635 74.129354,85.893903 74.146268,85.848034 z M 75.768316,85.837162 C 75.85248,84.96927 74.618768,84.524766 74.441575,85.527367 C 74.244733,86.517188 75.308783,86.285613 75.768316,85.837162 z M 75.063624,85.858895 C 74.238062,86.013197 75.100496,84.820977 75.302113,85.430677 C 75.261161,85.591815 75.156334,85.724892 75.063624,85.858895 z M 76.615876,85.84079 C 75.942808,85.618885 76.456115,84.534877 76.367861,84.382328 C 75.917403,84.814085 75.808198,85.52139 75.995513,86.096225 C 76.195751,86.387838 76.530488,86.058868 76.615876,85.84079 z M 78.478352,85.851651 C 78.050355,85.795383 78.128245,84.395008 77.792405,85.192365 C 77.4652,85.654489 77.925217,86.91698 78.478352,85.851651 z M 79.700167,85.811824 C 79.136888,86.18298 79.161829,84.500707 78.799659,85.411083 C 78.183101,86.021048 79.476046,86.731363 79.674366,85.89559 C 79.682966,85.867672 79.691567,85.839742 79.700167,85.811824 z M 78.919581,85.659738 C 78.54633,85.183291 79.672579,85.102677 79.212738,85.563985 C 79.122322,85.615235 79.020042,85.638148 78.919581,85.659738 z M 79.710444,86.007353 C 80.175302,86.773241 80.836881,85.409374 80.341623,85.163697 C 79.893624,85.397344 80.266335,85.86507 80.332328,86.095156 C 80.126191,86.157487 79.911442,86.046055 79.710444,86.007353 z M 82.027259,85.851651 C 81.599251,85.795383 81.677141,84.395008 81.341301,85.192365 C 81.014096,85.654489 81.474113,86.91698 82.027259,85.851651 z M 82.031207,86.007353 C 82.496065,86.773241 83.157633,85.409374 82.662386,85.163697 C 82.214387,85.397355 82.587098,85.865081 82.653091,86.095156 C 82.446943,86.157487 82.232206,86.046055 82.031207,86.007353 z"
     id="text5092" />
</svg>
