<?xml version="1.0" encoding="UTF-8" standalone="no"?>
<!-- Created with Inkscape (http://www.inkscape.org/) -->
<svg
   xmlns:dc="http://purl.org/dc/elements/1.1/"
   xmlns:cc="http://web.resource.org/cc/"
   xmlns:rdf="http://www.w3.org/1999/02/22-rdf-syntax-ns#"
   xmlns:svg="http://www.w3.org/2000/svg"
   xmlns="http://www.w3.org/2000/svg"
   xmlns:xlink="http://www.w3.org/1999/xlink"
   xmlns:sodipodi="http://sodipodi.sourceforge.net/DTD/sodipodi-0.dtd"
   xmlns:inkscape="http://www.inkscape.org/namespaces/inkscape"
   version="1.0"
   width="100"
   height="100"
   id="svg2"
   sodipodi:version="0.32"
   inkscape:version="0.45.1"
   sodipodi:docname="file_close.svg"
   sodipodi:docbase="/home/tris/src/aten/src/gui/icons"
   inkscape:output_extension="org.inkscape.output.svg.inkscape">
  <metadata
     id="metadata2566">
    <rdf:RDF>
      <cc:Work
         rdf:about="">
        <dc:format>image/svg+xml</dc:format>
        <dc:type
           rdf:resource="http://purl.org/dc/dcmitype/StillImage" />
      </cc:Work>
    </rdf:RDF>
  </metadata>
  <sodipodi:namedview
     inkscape:window-height="714"
     inkscape:window-width="1024"
     inkscape:pageshadow="2"
     inkscape:pageopacity="0.0"
     guidetolerance="10.0"
     gridtolerance="10.0"
     objecttolerance="10.0"
     borderopacity="1.0"
     bordercolor="#666666"
     pagecolor="#ffffff"
     id="base"
     inkscape:zoom="4.2609322"
     inkscape:cx="53.280307"
     inkscape:cy="48.464749"
     inkscape:window-x="0"
     inkscape:window-y="44"
     inkscape:current-layer="svg2" />
  <defs
     id="defs4">
    <linearGradient
       id="linearGradient5064">
      <stop
         style="stop-color:#dadada;stop-opacity:1;"
         offset="0"
         id="stop5066" />
      <stop
         style="stop-color:#898989;stop-opacity:1;"
         offset="1"
         id="stop5068" />
    </linearGradient>
    <linearGradient
       inkscape:collect="always"
       xlink:href="#linearGradient5064"
       id="linearGradient6168"
       gradientUnits="userSpaceOnUse"
       x1="32.942781"
       y1="25.952554"
       x2="66.236531"
       y2="25.952554" />
    <linearGradient
       id="linearGradient5072">
      <stop
         style="stop-color:#862bff;stop-opacity:1;"
         offset="0"
         id="stop5074" />
      <stop
         style="stop-color:#9b50ff;stop-opacity:1;"
         offset="1"
         id="stop5076" />
    </linearGradient>
    <linearGradient
       inkscape:collect="always"
       xlink:href="#linearGradient5072"
       id="linearGradient6166"
       gradientUnits="userSpaceOnUse"
       x1="15.350921"
       y1="46.012269"
       x2="80.354601"
       y2="46.012269" />
    <linearGradient
       inkscape:collect="always"
       xlink:href="#linearGradient5064"
       id="linearGradient2194"
       gradientUnits="userSpaceOnUse"
       x1="32.942781"
       y1="25.952554"
       x2="66.236531"
       y2="25.952554"
       gradientTransform="matrix(0.6189743,0,0,0.6189743,46.374033,49.74404)" />
    <linearGradient
       inkscape:collect="always"
       xlink:href="#linearGradient5072"
       id="linearGradient2197"
       gradientUnits="userSpaceOnUse"
       x1="15.350921"
       y1="46.012269"
       x2="80.354601"
       y2="46.012269"
       gradientTransform="matrix(0.6189743,0,0,0.6189743,46.374033,49.74404)" />
  </defs>
  <g
     id="g2222"
     transform="matrix(1.4729505,0,0,1.3857781,-14.783037,-10.951583)"
     style="fill:#282828;fill-opacity:1">
    <path
       sodipodi:nodetypes="ccsccccc"
       id="path2224"
       d="M 18.48245,76.173836 C 28.750053,59.008499 37.561029,40.501038 52.045447,26.345519 C 56.907363,21.574658 66.500275,16.602181 68.476793,14.306386 C 69.395743,13.238993 69.953497,18.355761 66.72841,17.998056 C 62.380718,21.775209 59.22864,26.731119 54.727673,30.353225 C 43.582066,41.395155 36.018982,55.454188 30.113,69.844498 C 28.785513,73.202704 24.998844,73.81405 21.99056,74.848317 C 20.802165,75.236668 19.61882,75.649559 18.48245,76.173836 z "
       style="fill:#282828;fill-opacity:1;fill-rule:evenodd;stroke:none;stroke-width:1.25;stroke-linecap:butt;stroke-linejoin:round;stroke-miterlimit:4;stroke-dasharray:none;stroke-dashoffset:0;stroke-opacity:1" />
    <path
       id="path2226"
       d="M 26.043592,14.383832 C 38.436485,16.889832 48.366606,25.59638 55.937949,35.265024 C 62.764473,42.904404 68.329753,52.307507 71.828855,61.737511 C 71.589676,72.866367 56.700653,71.981932 56.969096,60.998788 C 52.254723,44.377654 38.65891,32.065429 23.974756,24.019933 C 18.157071,23.582576 15.019119,19.057891 22.177016,16.869152 C 23.475414,16.055998 24.800321,15.281865 26.043592,14.383832 z "
       style="fill:#282828;fill-opacity:1;fill-rule:evenodd;stroke:none;stroke-width:1.25;stroke-linecap:butt;stroke-linejoin:round;stroke-miterlimit:4;stroke-dasharray:none;stroke-dashoffset:0;stroke-opacity:1" />
  </g>
  <g
     id="g2218"
     transform="matrix(1.4729505,0,0,1.3857781,-18.154375,-13.676637)">
    <path
       sodipodi:nodetypes="ccsccccc"
       id="path3233"
       d="M 18.48245,76.173836 C 28.750053,59.008499 37.561029,40.501038 52.045447,26.345519 C 56.907363,21.574658 66.500275,16.602181 68.476793,14.306386 C 69.395743,13.238993 69.953497,18.355761 66.72841,17.998056 C 62.380718,21.775209 59.22864,26.731119 54.727673,30.353225 C 43.582066,41.395155 36.018982,55.454188 30.113,69.844498 C 28.785513,73.202704 24.998844,73.81405 21.99056,74.848317 C 20.802165,75.236668 19.61882,75.649559 18.48245,76.173836 z "
       style="fill:#010101;fill-opacity:1;fill-rule:evenodd;stroke:none;stroke-width:1.25;stroke-linecap:butt;stroke-linejoin:round;stroke-miterlimit:4;stroke-dasharray:none;stroke-dashoffset:0;stroke-opacity:1" />
    <path
       id="path3235"
       d="M 26.043592,14.383832 C 38.436485,16.889832 48.366606,25.59638 55.937949,35.265024 C 62.764473,42.904404 68.329753,52.307507 71.828855,61.737511 C 71.589676,72.866367 56.700653,71.981932 56.969096,60.998788 C 52.254723,44.377654 38.65891,32.065429 23.974756,24.019933 C 18.157071,23.582576 15.019119,19.057891 22.177016,16.869152 C 23.475414,16.055998 24.800321,15.281865 26.043592,14.383832 z "
       style="fill:#010101;fill-opacity:1;fill-rule:evenodd;stroke:none;stroke-width:1.25;stroke-linecap:butt;stroke-linejoin:round;stroke-miterlimit:4;stroke-dasharray:none;stroke-dashoffset:0;stroke-opacity:1" />
  </g>
</svg>
