<?xml version="1.0" encoding="UTF-8" standalone="no"?>
<!-- Created with Inkscape (http://www.inkscape.org/) -->

<svg
   xmlns:dc="http://purl.org/dc/elements/1.1/"
   xmlns:cc="http://creativecommons.org/ns#"
   xmlns:rdf="http://www.w3.org/1999/02/22-rdf-syntax-ns#"
   xmlns:svg="http://www.w3.org/2000/svg"
   xmlns="http://www.w3.org/2000/svg"
   xmlns:sodipodi="http://sodipodi.sourceforge.net/DTD/sodipodi-0.dtd"
   xmlns:inkscape="http://www.inkscape.org/namespaces/inkscape"
   version="1.0"
   width="100"
   height="100"
   id="svg2"
   inkscape:version="0.48.5 r10040"
   sodipodi:docname="forcefield_forces.svg">
  <metadata
     id="metadata12">
    <rdf:RDF>
      <cc:Work
         rdf:about="">
        <dc:format>image/svg+xml</dc:format>
        <dc:type
           rdf:resource="http://purl.org/dc/dcmitype/StillImage" />
      </cc:Work>
    </rdf:RDF>
  </metadata>
  <sodipodi:namedview
     pagecolor="#ffffff"
     bordercolor="#666666"
     borderopacity="1"
     objecttolerance="10"
     gridtolerance="10"
     guidetolerance="10"
     inkscape:pageopacity="0"
     inkscape:pageshadow="2"
     inkscape:window-width="640"
     inkscape:window-height="480"
     id="namedview10"
     showgrid="false"
     inkscape:zoom="2.36"
     inkscape:cx="42.279712"
     inkscape:cy="50"
     inkscape:window-x="0"
     inkscape:window-y="27"
     inkscape:window-maximized="0"
     inkscape:current-layer="svg2" />
  <defs
     id="defs4">
    <filter
       id="filter5661"
       color-interpolation-filters="sRGB"
       height="1.5171098"
       width="1.5446575"
       y="-0.25855491"
       x="-0.27232876">
      <feGaussianBlur
         stdDeviation="0.8946"
         id="feGaussianBlur5663" />
    </filter>
  </defs>
  <text
     x="-115.73404"
     y="39.02792"
     id="text4511"
     xml:space="preserve"
     style="fill:#000000;fill-opacity:1;stroke:none;font-family:B"><tspan
       x="-115.73404"
       y="39.02792"
       id="tspan4513"
       style="font-family:Cranberry Gin">d</tspan></text>
  <g
     id="g2989"
     transform="matrix(1.161892,0,0,1.161892,-0.79697642,-7.8612451)">
    <path
       id="flowRoot3405"
       transform="matrix(6.4405034,0,0,6.4405034,-138.72104,-153.06433)"
       d="m 25.95075,27.16475 -0.072,0.348 0.708,0.072 c 0.276,0.024 0.348,0.192 0.264,0.54 l -1.44,6.384 c -0.084,0.36 -0.204,0.528 -0.492,0.552 l -0.672,0.06 -0.072,0.348 3.492,0 0.072,-0.348 -0.9,-0.06 c -0.288,-0.024 -0.36,-0.192 -0.276,-0.552 l 0.672,-2.964 1.584,0 c 1.055999,0 1.092,0.252001 1.044,1.032 l 0.36,0 0.552,-2.52 -0.36,0 c -0.312,0.839999 -0.444001,1.032 -1.5,1.032 l -1.584,0 0.72,-3.144 c 0.072,-0.3 0.132,-0.36 0.348,-0.36 l 1.476,0 c 1.511998,0 1.476,0.504001 1.368,1.56 l 0.36,0 0.456,-1.98 -6.108,0"
       inkscape:connector-curvature="0" />
    <path
       inkscape:connector-curvature="0"
       style="fill:#000000;fill-opacity:0.64044949;filter:url(#filter5661)"
       id="flowRoot4515"
       transform="matrix(6.4405034,0,0,6.4405034,-134.3293,-149.21104)"
       d="m 25.95075,27.16475 -0.072,0.348 0.708,0.072 c 0.276,0.024 0.348,0.192 0.264,0.54 l -1.44,6.384 c -0.084,0.36 -0.204,0.528 -0.492,0.552 l -0.672,0.06 -0.072,0.348 3.492,0 0.072,-0.348 -0.9,-0.06 c -0.288,-0.024 -0.36,-0.192 -0.276,-0.552 l 0.672,-2.964 1.584,0 c 1.055999,0 1.092,0.252001 1.044,1.032 l 0.36,0 0.552,-2.52 -0.36,0 c -0.312,0.839999 -0.444001,1.032 -1.5,1.032 l -1.584,0 0.72,-3.144 c 0.072,-0.3 0.132,-0.36 0.348,-0.36 l 1.476,0 c 1.511998,0 1.476,0.504001 1.368,1.56 l 0.36,0 0.456,-1.98 -6.108,0" />
  </g>
</svg>
