<?xml version="1.0" encoding="UTF-8" standalone="no"?>
<!-- Created with Inkscape (http://www.inkscape.org/) -->
<svg
   xmlns:svg="http://www.w3.org/2000/svg"
   xmlns="http://www.w3.org/2000/svg"
   xmlns:xlink="http://www.w3.org/1999/xlink"
   version="1.0"
   width="100"
   height="100"
   id="svg2">
  <defs
     id="defs4">
    <radialGradient
       cx="58.01162"
       cy="63.345894"
       r="33.113495"
       fx="58.01162"
       fy="63.345894"
       id="radialGradient3369"
       xlink:href="#linearGradient3252"
       gradientUnits="userSpaceOnUse"
       gradientTransform="matrix(0.2740521,0,0,0.2740521,28.80419,13.981316)" />
    <linearGradient
       x1="25.398125"
       y1="63.345894"
       x2="90.625114"
       y2="63.345894"
       id="linearGradient3367"
       xlink:href="#linearGradient3384"
       gradientUnits="userSpaceOnUse"
       gradientTransform="matrix(0.3452564,0.3452564,-0.3452564,0.3452564,52.458591,-4.5216519)" />
    <linearGradient
       id="linearGradient3384">
      <stop
         id="stop3386"
         style="stop-color:#0000ff;stop-opacity:1"
         offset="0" />
      <stop
         id="stop3388"
         style="stop-color:#000000;stop-opacity:1"
         offset="1" />
    </linearGradient>
    <linearGradient
       id="linearGradient3252">
      <stop
         id="stop3254"
         style="stop-color:#ffffff;stop-opacity:1"
         offset="0" />
      <stop
         id="stop3256"
         style="stop-color:#7f7fff;stop-opacity:0"
         offset="1" />
    </linearGradient>
  </defs>
  <g
     transform="matrix(1.5215343,0,0,1.5215343,-12.933513,-10.008492)"
     id="g3376">
    <path
       d="M 35.79613,34.309543 C 31.514364,38.592808 24.570847,38.593416 20.288332,34.310943 C 16.005816,30.028428 16.006424,23.084911 20.289732,18.803145 C 24.571497,14.519879 31.515014,14.519271 35.79753,18.801745 C 40.080045,23.084261 40.079437,30.027778 35.79613,34.309544 L 35.79613,34.309544 L 35.79613,34.309543 z"
       id="path3390"
       style="fill:#c5c1c2;fill-opacity:1;fill-rule:evenodd;stroke:none" />
    <g
       transform="matrix(0.688562,0,0,0.688562,-8.9406523,-2.1904593)"
       id="g3651">
      <path
         d="M 66.37585,37.436982 C 66.37735,46.232692 59.24749,53.363841 50.451779,53.363841 C 41.656069,53.363841 34.526169,46.232692 34.527709,37.436982 C 34.526209,28.641272 41.656069,21.510123 50.451779,21.510123 C 59.24749,21.510123 66.37739,28.641272 66.37585,37.436982 L 66.37585,37.436982 z"
         id="path3393"
         style="fill:#0000ff;fill-opacity:1;fill-rule:evenodd;stroke:#000000;stroke-width:0.48826629px;stroke-linecap:butt;stroke-linejoin:miter;stroke-opacity:1" />
      <path
         d="M 61.876916,48.637824 C 55.658499,54.858419 45.574415,54.859302 39.354909,48.639824 C 33.135402,42.420318 33.136286,32.336234 39.356909,26.117817 C 45.575326,19.897221 55.65941,19.896338 61.878916,26.115817 C 68.098422,32.335324 68.097539,42.419408 61.876916,48.637825 L 61.876916,48.637825 L 61.876916,48.637824 z"
         id="path3395"
         style="opacity:0.71739131;fill:url(#linearGradient3367);fill-opacity:1;fill-rule:evenodd;stroke:none" />
      <path
         d="M 53.640193,31.341391 C 53.641057,36.278211 49.639216,40.280753 44.702396,40.280753 C 39.765576,40.280753 35.763735,36.278211 35.764599,31.341391 C 35.763735,26.404571 39.765576,22.402029 44.702396,22.402029 C 49.639216,22.402029 53.641057,26.404571 53.640193,31.341391 L 53.640193,31.341391 L 53.640193,31.341391 z"
         id="path3397"
         style="fill:url(#radialGradient3369);fill-opacity:1;fill-rule:evenodd;stroke:none" />
    </g>
  </g>
  <use
     transform="translate(44.848481,15.640271)"
     id="use3383"
     x="0"
     y="0"
     width="100"
     height="100"
     xlink:href="#g3376" />
  <use
     transform="translate(-36.298796,28.871839)"
     id="use3385"
     x="0"
     y="0"
     width="100"
     height="100"
     xlink:href="#use3383" />
  <rect
     width="95.778549"
     height="96.045403"
     x="1.884855"
     y="1.8539581"
     id="rect4688"
     style="fill:none;stroke:#000000;stroke-width:3.28844762;stroke-linecap:round;stroke-linejoin:round;stroke-miterlimit:4;stroke-dasharray:6.57689519, 3.2884476;stroke-dashoffset:0;stroke-opacity:1" />
</svg>
