<?xml version="1.0" encoding="UTF-8" standalone="no"?>
<!-- Created with Inkscape (http://www.inkscape.org/) -->

<svg
   xmlns:dc="http://purl.org/dc/elements/1.1/"
   xmlns:cc="http://creativecommons.org/ns#"
   xmlns:rdf="http://www.w3.org/1999/02/22-rdf-syntax-ns#"
   xmlns:svg="http://www.w3.org/2000/svg"
   xmlns="http://www.w3.org/2000/svg"
   xmlns:xlink="http://www.w3.org/1999/xlink"
   xmlns:sodipodi="http://sodipodi.sourceforge.net/DTD/sodipodi-0.dtd"
   xmlns:inkscape="http://www.inkscape.org/namespaces/inkscape"
   version="1.0"
   width="100"
   height="100"
   id="svg2"
   inkscape:version="0.48.5 r10040"
   sodipodi:docname="selection_resetcolour.svg">
  <metadata
     id="metadata28">
    <rdf:RDF>
      <cc:Work
         rdf:about="">
        <dc:format>image/svg+xml</dc:format>
        <dc:type
           rdf:resource="http://purl.org/dc/dcmitype/StillImage" />
      </cc:Work>
    </rdf:RDF>
  </metadata>
  <sodipodi:namedview
     pagecolor="#ffffff"
     bordercolor="#666666"
     borderopacity="1"
     objecttolerance="10"
     gridtolerance="10"
     guidetolerance="10"
     inkscape:pageopacity="0"
     inkscape:pageshadow="2"
     inkscape:window-width="640"
     inkscape:window-height="480"
     id="namedview26"
     showgrid="false"
     inkscape:zoom="2.36"
     inkscape:cx="50"
     inkscape:cy="50"
     inkscape:window-x="0"
     inkscape:window-y="27"
     inkscape:window-maximized="0"
     inkscape:current-layer="svg2" />
  <defs
     id="defs4" />
  <rect
     width="20.313745"
     height="20.314035"
     x="1.6872503"
     y="30.363125"
     id="rect3191"
     style="fill:#004fe1;fill-opacity:1;fill-rule:evenodd;stroke:#000000;stroke-width:1.5;stroke-linecap:round;stroke-linejoin:round;stroke-miterlimit:4;stroke-opacity:1;stroke-dasharray:none;stroke-dashoffset:0" />
  <rect
     width="20.313745"
     height="20.314035"
     x="53.642101"
     y="53.437523"
     id="rect3211"
     style="fill:#e80000;fill-opacity:1;fill-rule:evenodd;stroke:#000000;stroke-width:1.5;stroke-linecap:round;stroke-linejoin:round;stroke-miterlimit:4;stroke-opacity:1;stroke-dasharray:none;stroke-dashoffset:0" />
  <rect
     width="20.313745"
     height="20.314035"
     x="1.6872497"
     y="76.511909"
     id="rect3227"
     style="fill:#86b1ff;fill-opacity:1;fill-rule:evenodd;stroke:#000000;stroke-width:1.5;stroke-linecap:round;stroke-linejoin:round;stroke-miterlimit:4;stroke-opacity:1;stroke-dasharray:none;stroke-dashoffset:0" />
  <rect
     width="20.313745"
     height="20.314035"
     x="53.642101"
     y="76.511909"
     id="rect3231"
     style="fill:#ff6f6f;fill-opacity:1;fill-rule:evenodd;stroke:#000000;stroke-width:1.5;stroke-linecap:round;stroke-linejoin:round;stroke-miterlimit:4;stroke-opacity:1;stroke-dasharray:none;stroke-dashoffset:0" />
  <use
     transform="translate(23.938554,0)"
     id="use2528"
     x="0"
     y="0"
     width="100"
     height="100"
     xlink:href="#rect3227" />
  <use
     transform="translate(23.938554,0)"
     id="use2530"
     x="0"
     y="0"
     width="100"
     height="100"
     xlink:href="#rect3231" />
  <use
     transform="translate(23.938554,0)"
     id="use2532"
     x="0"
     y="0"
     width="100"
     height="100"
     xlink:href="#rect3211" />
  <use
     transform="translate(23.938554,-0.21566568)"
     id="use2522"
     x="0"
     y="0"
     width="100"
     height="100"
     xlink:href="#rect3191" />
  <use
     transform="translate(0,22.860566)"
     id="use2524"
     x="0"
     y="0"
     width="100"
     height="100"
     xlink:href="#rect3191" />
  <use
     transform="translate(23.938554,23.076232)"
     id="use2526"
     x="0"
     y="0"
     width="100"
     height="100"
     xlink:href="#rect3191" />
  <path
     d="m 61.678713,59.557158 -1.696574,4.600631 3.39934,0 -1.702766,-4.600631 m -0.705874,-1.2322 1.41794,0 3.523177,9.244603 -1.300294,0 -0.842095,-2.371522 -4.167133,0 -0.842095,2.371522 -1.31887,0 3.52937,-9.244603 m 6.235219,-0.390094 1.139306,0 0,9.634697 -1.139306,0 0,-9.634697"
     id="text3318"
     style="font-size:12px;font-style:normal;font-weight:normal;fill:#000000;fill-opacity:1;stroke:none;font-family:Bitstream Vera Sans"
     inkscape:connector-curvature="0" />
  <rect
     width="20.313745"
     height="20.314035"
     x="1.9288009"
     y="2.1611035"
     id="rect2217"
     style="fill:#e4e7e1;fill-opacity:1;fill-rule:evenodd;stroke:#000000;stroke-width:1.5;stroke-linecap:round;stroke-linejoin:round;stroke-miterlimit:4;stroke-opacity:1;stroke-dasharray:none;stroke-dashoffset:0" />
  <path
     d="m 7.8738719,6.6979932 1.2507584,0 0,3.7894828 4.5448387,0 0,-3.7894828 1.250758,0 0,9.2446028 -1.250758,0 0,-4.402486 -4.5448387,0 0,4.402486 -1.2507584,0 0,-9.2446028"
     id="text3300"
     style="font-size:12px;font-style:normal;font-weight:normal;fill:#000000;fill-opacity:1;stroke:none;font-family:Bitstream Vera Sans"
     inkscape:connector-curvature="0" />
  <path
     d="m 4.4576415,58.037402 1.6841906,0 4.0990219,7.733764 0,-7.733764 1.213609,0 0,9.244603 -1.684191,0 -4.0990226,-7.733764 0,7.733764 -1.2136079,0 0,-9.244603 m 12.5880865,5.758527 c -0.920529,4e-6 -1.558292,0.105264 -1.91329,0.31579 -0.355004,0.21053 -0.532504,0.569663 -0.532502,1.077403 -2e-6,0.404543 0.132092,0.726525 0.39628,0.965946 0.268312,0.235295 0.631569,0.352942 1.08977,0.352942 0.631568,0 1.137237,-0.22291 1.51701,-0.668732 0.383892,-0.449947 0.575839,-1.04644 0.575845,-1.789478 l 0,-0.253871 -1.133113,0 m 2.272418,-0.470589 0,3.956665 -1.139305,0 0,-1.052633 c -0.260064,0.421054 -0.584106,0.732715 -0.972125,0.934986 -0.388028,0.198143 -0.862738,0.297214 -1.424132,0.297214 -0.710004,0 -1.275528,-0.198143 -1.696574,-0.594428 -0.416921,-0.400413 -0.62538,-0.934985 -0.62538,-1.603719 0,-0.780184 0.260058,-1.36842 0.780177,-1.76471 0.524244,-0.396282 1.304419,-0.594425 2.340529,-0.594429 l 1.597505,0 0,-0.111455 c -6e-6,-0.524248 -0.173378,-0.92879 -0.520117,-1.213625 -0.342622,-0.288953 -0.825588,-0.433431 -1.4489,-0.433437 -0.396283,6e-6 -0.782243,0.04748 -1.157881,0.142414 -0.375643,0.09495 -0.736835,0.237365 -1.083579,0.427246 l 0,-1.052633 c 0.416919,-0.160985 0.821454,-0.280696 1.213609,-0.359135 0.392149,-0.08255 0.773981,-0.123832 1.145497,-0.123839 1.003079,7e-6 1.752295,0.26007 2.247651,0.780188 0.495344,0.520131 0.743019,1.308573 0.743025,2.36533"
     id="text3310"
     style="font-size:12px;font-style:normal;font-weight:normal;fill:#000000;fill-opacity:1;stroke:none;font-family:Bitstream Vera Sans"
     inkscape:connector-curvature="0" />
  <path
     d="m 27.317882,58.18118 1.863754,0 2.359105,6.291037 2.371489,-6.291037 1.863755,0 0,9.244603 -1.2198,0 0,-8.117665 -2.383872,6.340572 -1.256952,0 -2.383872,-6.340572 0,8.117665 -1.213607,0 0,-9.244603 m 15.461116,5.696608 c -6e-6,-0.825591 -0.171315,-1.465427 -0.513926,-1.91951 -0.338494,-0.454072 -0.815268,-0.68111 -1.430324,-0.681116 -0.610935,6e-6 -1.087708,0.227044 -1.430323,0.681116 -0.338492,0.454083 -0.507736,1.093919 -0.507734,1.91951 -2e-6,0.82147 0.169242,1.459241 0.507734,1.913316 0.342615,0.454079 0.819388,0.681118 1.430323,0.681117 0.615056,10e-7 1.09183,-0.227038 1.430324,-0.681117 0.342611,-0.454075 0.51392,-1.091846 0.513926,-1.913316 m 1.139305,2.687312 c -7e-6,1.180602 -0.262129,2.057796 -0.786368,2.631586 -0.524252,0.577913 -1.327131,0.866872 -2.408641,0.866874 -0.400411,-2e-6 -0.778114,-0.03096 -1.133113,-0.09288 -0.355003,-0.05779 -0.699683,-0.14861 -1.034043,-0.272447 l 0,-1.108361 c 0.33436,0.18163 0.664592,0.315789 0.9907,0.402477 0.326103,0.08669 0.6584,0.13003 0.996893,0.130031 0.747148,-10e-7 1.30648,-0.19608 1.677998,-0.588236 0.371507,-0.388031 0.557263,-0.976267 0.557269,-1.76471 l 0,-0.563468 c -0.235297,0.40867 -0.536635,0.714139 -0.904014,0.91641 -0.367389,0.202271 -0.807013,0.303406 -1.31887,0.303406 -0.850354,0 -1.535588,-0.324046 -2.055703,-0.972138 -0.520119,-0.648091 -0.780177,-1.506709 -0.780176,-2.575857 -1e-6,-1.07327 0.260057,-1.933952 0.780176,-2.58205 0.520115,-0.648086 1.205349,-0.972131 2.055703,-0.972139 0.511857,8e-6 0.951481,0.101143 1.31887,0.303407 0.367379,0.202277 0.668717,0.507747 0.904014,0.91641 l 0,-1.052634 1.139305,0 0,6.074318"
     id="text3314"
     style="font-size:12px;font-style:normal;font-weight:normal;fill:#000000;fill-opacity:1;stroke:none;font-family:Bitstream Vera Sans"
     inkscape:connector-curvature="0" />
  <path
     d="m 88.500577,58.772142 0,1.219817 C 88.02586,59.764928 87.577982,59.59568 87.15694,59.484217 86.735887,59.37277 86.329288,59.317043 85.937141,59.317035 c -0.681111,8e-6 -1.20742,0.132103 -1.578929,0.396285 -0.367387,0.264198 -0.551079,0.639844 -0.551077,1.126938 -2e-6,0.408676 0.121771,0.718274 0.36532,0.928794 0.247672,0.206405 0.714127,0.373588 1.399365,0.50155 l 0.755408,0.154799 c 0.932905,0.177508 1.620203,0.491233 2.061895,0.941178 0.445809,0.445826 0.668716,1.044382 0.668724,1.79567 -8e-6,0.895773 -0.301346,1.574824 -0.904015,2.037156 -0.598554,0.462334 -1.477799,0.6935 -2.63774,0.6935 -0.437562,0 -0.904016,-0.04953 -1.399363,-0.148607 -0.491225,-0.09907 -1.001022,-0.245613 -1.529394,-0.439629 l 0,-1.287928 c 0.507732,0.284831 1.005146,0.499486 1.492242,0.643964 0.487092,0.14448 0.96593,0.21672 1.436515,0.216719 0.714126,10e-7 1.265202,-0.140351 1.653231,-0.421054 0.388019,-0.280701 0.582031,-0.681114 0.582038,-1.201241 -7e-6,-0.454075 -0.140355,-0.80908 -0.421049,-1.065018 -0.276576,-0.255931 -0.73271,-0.447881 -1.368404,-0.575853 l -0.761601,-0.148607 c -0.932912,-0.185755 -1.607826,-0.476776 -2.024744,-0.873067 -0.416921,-0.39628 -0.62538,-0.947364 -0.625379,-1.653255 -10e-7,-0.817331 0.286889,-1.461296 0.860671,-1.931893 0.577906,-0.47058 1.372529,-0.705875 2.383872,-0.705884 0.433427,9e-6 0.875113,0.03923 1.325061,0.117648 0.449938,0.07844 0.910201,0.196088 1.380789,0.352942 m 2.458176,2.006196 1.139305,0 0,6.935 -1.139305,0 0,-6.935 m 0,-2.699696 1.139305,0 0,1.442727 -1.139305,0 0,-1.442727"
     id="text3322"
     style="font-size:12px;font-style:normal;font-weight:normal;fill:#000000;fill-opacity:1;stroke:none;font-family:Bitstream Vera Sans"
     inkscape:connector-curvature="0" />
  <path
     d="m 7.9082437,82.155863 1.2507583,0 0,3.90713 4.148558,-3.90713 1.609888,0 -4.588181,4.309607 4.91635,4.934996 -1.647039,0 -4.439576,-4.452022 0,4.452022 -1.2507583,0 0,-9.244603"
     id="text3326"
     style="font-size:12px;font-style:normal;font-weight:normal;fill:#000000;fill-opacity:1;stroke:none;font-family:Bitstream Vera Sans"
     inkscape:connector-curvature="0" />
  <path
     d="m 35.534377,82.688372 0,1.318888 c -0.421056,-0.39215 -0.870998,-0.685236 -1.34983,-0.879259 -0.474717,-0.194006 -0.980386,-0.291013 -1.51701,-0.291021 -1.056751,8e-6 -1.865822,0.324054 -2.427215,0.972137 -0.561399,0.643972 -0.842098,1.576894 -0.842096,2.798769 -2e-6,1.217756 0.280697,2.150679 0.842096,2.798767 0.561393,0.643967 1.370464,0.965948 2.427215,0.965947 0.536624,10e-7 1.042293,-0.09701 1.51701,-0.291022 0.478832,-0.194013 0.928774,-0.4871 1.34983,-0.879259 l 0,1.306504 c -0.437567,0.297216 -0.901958,0.520126 -1.393172,0.668733 -0.487101,0.148607 -1.003091,0.22291 -1.54797,0.22291 -1.399368,0 -2.50152,-0.427244 -3.306462,-1.281736 -0.804945,-0.858618 -1.207417,-2.028897 -1.207417,-3.510844 0,-1.486065 0.402472,-2.656346 1.207417,-3.510845 0.804942,-0.858609 1.907094,-1.287919 3.306462,-1.287928 0.553136,9e-6 1.073253,0.07431 1.560353,0.222911 0.491215,0.144488 0.951478,0.36327 1.380789,0.656348 m 5.04638,5.046451 c -0.920529,4e-6 -1.558292,0.105264 -1.91329,0.31579 -0.355004,0.21053 -0.532503,0.569664 -0.532502,1.077403 -1e-6,0.404543 0.132092,0.726525 0.39628,0.965946 0.268312,0.235295 0.631569,0.352943 1.08977,0.352941 0.631568,2e-6 1.137237,-0.222909 1.51701,-0.668731 0.383892,-0.449947 0.57584,-1.04644 0.575845,-1.789478 l 0,-0.253871 -1.133113,0 m 2.272418,-0.470589 0,3.956665 -1.139305,0 0,-1.052633 c -0.260065,0.421054 -0.584105,0.732715 -0.972125,0.934986 -0.388028,0.198143 -0.862738,0.297214 -1.424131,0.297214 -0.710004,0 -1.275529,-0.198143 -1.696575,-0.594428 -0.41692,-0.400413 -0.62538,-0.934985 -0.62538,-1.603719 0,-0.780184 0.260058,-1.368421 0.780178,-1.76471 0.524242,-0.396282 1.304419,-0.594425 2.340528,-0.594429 l 1.597505,0 0,-0.111455 c -5e-6,-0.524248 -0.173377,-0.92879 -0.520117,-1.213625 -0.342622,-0.288953 -0.825588,-0.433431 -1.4489,-0.433437 -0.396283,6e-6 -0.782243,0.04748 -1.157881,0.142414 -0.375643,0.09495 -0.736834,0.237365 -1.083578,0.427246 l 0,-1.052634 c 0.416918,-0.160984 0.821453,-0.280695 1.213608,-0.359134 0.392149,-0.08255 0.77398,-0.123832 1.145497,-0.123839 1.003079,7e-6 1.752296,0.260069 2.247651,0.780187 0.495344,0.520131 0.743019,1.308574 0.743025,2.365331"
     id="text3330"
     style="font-size:12px;font-style:normal;font-weight:normal;fill:#000000;fill-opacity:1;stroke:none;font-family:Bitstream Vera Sans"
     inkscape:connector-curvature="0" />
  <path
     d="m 81.892788,82.155863 7.820341,0 0,1.052634 -3.281695,0 0,8.191969 -1.256951,0 0,-8.191969 -3.281695,0 0,-1.052634 m 8.594326,2.309603 1.139305,0 0,6.935 -1.139305,0 0,-6.935 m 0,-2.699696 1.139305,0 0,1.442727 -1.139305,0 0,-1.442727"
     id="text3338"
     style="font-size:12px;font-style:normal;font-weight:normal;fill:#000000;fill-opacity:1;stroke:none;font-family:Bitstream Vera Sans"
     inkscape:connector-curvature="0" />
  <path
     d="m 6.9418359,35.923231 1.2507593,0 0,8.191969 4.5014938,0 0,1.052635 -5.7522531,0 0,-9.244604 m 7.0092051,2.309603 1.139305,0 0,6.935001 -1.139305,0 0,-6.935001 m 0,-2.699697 1.139305,0 0,1.442728 -1.139305,0 0,-1.442728"
     id="text3342"
     style="font-size:12px;font-style:normal;font-weight:normal;fill:#000000;fill-opacity:1;stroke:none;font-family:Bitstream Vera Sans"
     inkscape:connector-curvature="0" />
  <path
     d="m 30.049619,40.752963 0,3.387006 2.006169,0 c 0.672845,10e-7 1.170258,-0.138287 1.492242,-0.414863 0.326099,-0.2807 0.489152,-0.707945 0.489158,-1.281736 -6e-6,-0.577913 -0.163059,-1.003094 -0.489158,-1.275544 -0.321984,-0.276571 -0.819397,-0.414858 -1.492242,-0.414863 l -2.006169,0 m 0,-3.801866 0,2.786384 1.851372,0 c 0.610927,6e-6 1.064997,-0.113514 1.362213,-0.340558 0.301332,-0.231161 0.452001,-0.582038 0.452006,-1.052633 -5e-6,-0.466455 -0.150674,-0.815269 -0.452006,-1.046443 -0.297216,-0.231158 -0.751286,-0.346742 -1.362213,-0.34675 l -1.851372,0 m -1.250758,-1.027866 3.195008,0 c 0.953544,9e-6 1.688313,0.198152 2.204308,0.594429 0.515982,0.396294 0.773978,0.959761 0.773985,1.690406 -7e-6,0.565539 -0.132101,1.015488 -0.39628,1.349848 -0.264194,0.334371 -0.652218,0.542835 -1.164073,0.625389 0.615053,0.1321 1.091827,0.408674 1.430324,0.829723 0.342609,0.416929 0.513917,0.939118 0.513925,1.566567 -8e-6,0.825597 -0.280706,1.463369 -0.842095,1.913317 -0.561403,0.449949 -1.360155,0.674925 -2.396256,0.674925 l -3.318846,0 0,-9.244604 m 14.575677,5.492273 0,0.557276 -5.238327,0 c 0.04953,0.784318 0.284824,1.382875 0.705874,1.79567 0.425173,0.408671 1.015464,0.613006 1.770876,0.613005 0.437555,10e-7 0.860666,-0.05366 1.269335,-0.160992 0.412786,-0.107325 0.82145,-0.268317 1.225992,-0.482973 l 0,1.077402 c -0.408671,0.173375 -0.827654,0.305471 -1.256951,0.396286 -0.429309,0.09082 -0.864804,0.136224 -1.306486,0.136224 -1.106285,0 -1.983467,-0.321983 -2.631547,-0.965947 -0.643957,-0.643963 -0.965934,-1.514965 -0.965934,-2.613009 0,-1.13519 0.305466,-2.035087 0.916399,-2.699697 0.615057,-0.668726 1.442703,-1.003092 2.482942,-1.003098 0.932905,6e-6 1.669737,0.301348 2.2105,0.904026 0.544878,0.598563 0.817321,1.413838 0.817327,2.445827 m -1.139305,-0.334367 c -0.0082,-0.623319 -0.183698,-1.12074 -0.526309,-1.492263 -0.338495,-0.371512 -0.788438,-0.557271 -1.349829,-0.557277 -0.635703,6e-6 -1.1455,0.179573 -1.529394,0.538701 -0.379771,0.35914 -0.59855,0.864816 -0.656339,1.517032 l 4.061871,-0.0062"
     id="text3346"
     style="font-size:12px;font-style:normal;font-weight:normal;fill:#000000;fill-opacity:1;stroke:none;font-family:Bitstream Vera Sans"
     inkscape:connector-curvature="0" />
  <path
     d="m 63.052382,82.279702 0,1.219818 c -0.474716,-0.227031 -0.922595,-0.396279 -1.343637,-0.507742 -0.421053,-0.111447 -0.827652,-0.167174 -1.2198,-0.167183 -0.681109,9e-6 -1.207419,0.132104 -1.578928,0.396286 -0.367388,0.264198 -0.55108,0.639844 -0.551078,1.126937 -2e-6,0.408677 0.121772,0.718274 0.365321,0.928795 0.247673,0.206405 0.714127,0.373588 1.399364,0.50155 l 0.75541,0.154798 c 0.932903,0.177509 1.620201,0.491234 2.061895,0.941179 0.445807,0.445826 0.668714,1.044381 0.668722,1.79567 -8e-6,0.895773 -0.301345,1.574824 -0.904014,2.037156 -0.598554,0.462334 -1.4778,0.6935 -2.637739,0.6935 -0.437563,0 -0.904018,-0.04953 -1.399365,-0.148607 -0.491224,-0.09907 -1.001021,-0.245613 -1.529394,-0.439629 l 0,-1.287928 c 0.507733,0.284831 1.005146,0.499486 1.492243,0.643964 0.487092,0.144479 0.965929,0.21672 1.436516,0.216719 0.714125,10e-7 1.265202,-0.140351 1.653231,-0.421055 0.388018,-0.2807 0.58203,-0.681113 0.582036,-1.201241 -6e-6,-0.454074 -0.140355,-0.809079 -0.421047,-1.065017 -0.276576,-0.255931 -0.73271,-0.447881 -1.368405,-0.575853 l -0.761601,-0.148607 c -0.932912,-0.185755 -1.607827,-0.476777 -2.024744,-0.873068 -0.41692,-0.39628 -0.625381,-0.947363 -0.62538,-1.653254 -10e-7,-0.817332 0.286889,-1.461296 0.860671,-1.931893 0.577906,-0.47058 1.37253,-0.705875 2.383873,-0.705884 0.433427,9e-6 0.875114,0.03923 1.325062,0.117647 0.449937,0.07844 0.910199,0.196088 1.380788,0.352942 m 7.448829,2.272451 0,1.065018 c -0.321984,-0.177496 -0.646026,-0.309592 -0.972125,-0.396285 -0.321983,-0.09081 -0.648088,-0.136217 -0.978318,-0.136223 -0.7389,6e-6 -1.31268,0.2353 -1.721341,0.705883 -0.408666,0.466466 -0.612998,1.122815 -0.612996,1.969046 -2e-6,0.846237 0.20433,1.504649 0.612996,1.975236 0.408661,0.466463 0.982441,0.699692 1.721341,0.699692 0.33023,0 0.656335,-0.04335 0.978318,-0.130031 0.326099,-0.09082 0.650141,-0.224974 0.972125,-0.402478 l 0,1.052634 c -0.317856,0.148607 -0.64809,0.260063 -0.990701,0.334366 -0.338494,0.0743 -0.699687,0.111455 -1.083579,0.111455 -1.044366,0 -1.874077,-0.328173 -2.489134,-0.984521 -0.615061,-0.656348 -0.92259,-1.541798 -0.92259,-2.656353 0,-1.131061 0.309593,-2.020639 0.928782,-2.668738 0.623313,-0.648085 1.475727,-0.972131 2.557244,-0.972138 0.350869,7e-6 0.693486,0.03715 1.027853,0.111455 0.334356,0.07018 0.658397,0.17751 0.972125,0.321982"
     id="text3350"
     style="font-size:12px;font-style:normal;font-weight:normal;fill:#000000;fill-opacity:1;stroke:none;font-family:Bitstream Vera Sans"
     inkscape:connector-curvature="0" />
</svg>
