<?xml version="1.0" encoding="UTF-8" standalone="no"?>
<!-- Created with Inkscape (http://www.inkscape.org/) -->
<svg
   xmlns:svg="http://www.w3.org/2000/svg"
   xmlns="http://www.w3.org/2000/svg"
   version="1.0"
   width="100"
   height="100"
   id="svg2">
  <defs
     id="defs4" />
  <g
     transform="matrix(1.3783951,0,0,1.4488888,-21.957824,-17.391381)"
     id="g5168">
    <path
       d="M 37.335444,78.126705 C 35.38069,77.368019 33.948268,76.616652 32.89228,75.796075 C 32.035163,75.130037 30.953575,74.294907 30.488751,73.940235 C 29.570195,73.23935 27.092344,68.654724 26.778267,67.074942 C 26.681097,66.586194 26.160405,64.815276 25.621169,63.139568 C 24.69021,60.24656 24.635927,59.895566 24.545365,56.183388 L 24.449985,52.27395 L 25.266834,51.791996 C 26.197304,51.243006 26.491542,50.71335 26.050464,50.381388 C 25.884212,50.256265 24.719912,49.770963 23.463132,49.302942 C 22.206351,48.834919 20.966694,48.272489 20.708338,48.053098 C 20.449982,47.833705 19.421707,46.287641 18.423282,44.617399 L 16.607964,41.580596 L 16.635304,37.634167 L 16.662644,33.687736 L 17.751758,31.402681 C 18.350771,30.145901 19.584492,28.04747 20.49336,26.739502 C 22.008338,24.559273 22.358799,24.223632 24.704901,22.706053 C 28.805874,20.053335 28.918322,20.02153 32.920277,20.38238 L 36.305346,20.687606 L 37.828059,22.046295 C 38.66555,22.793574 39.521499,23.404985 39.73017,23.404985 C 40.408588,23.404985 41.980813,22.63232 42.695685,21.947592 C 43.248788,21.41781 43.393896,21.048277 43.393896,20.169518 C 43.393896,19.103154 43.437016,19.041143 44.50776,18.567501 C 45.120383,18.296508 46.594742,17.463842 47.784116,16.717131 C 50.231802,15.180426 52.473591,14.585131 56.50428,14.401539 C 57.741927,14.345169 59.775297,14.181934 61.022876,14.038802 L 63.291203,13.778563 L 65.973831,14.822968 C 68.82278,15.932126 69.179987,16.139392 72.012918,18.327083 C 73.543929,19.509384 74.016603,20.073888 75.095522,22.008562 C 75.796397,23.265342 76.450471,24.636376 76.549021,25.055303 C 76.647571,25.47423 76.940139,26.120384 77.199168,26.491199 C 77.458199,26.862016 78.057183,28.290176 78.530243,29.664889 C 79.318227,31.954762 79.400316,32.479607 79.509136,35.923532 L 79.627915,39.6827 L 78.4137,40.297987 C 77.046721,40.990689 76.86526,41.350273 76.918481,43.260925 C 76.939071,44.000291 76.874751,44.971518 76.775538,45.419211 C 76.595931,46.229677 76.598911,46.232584 77.465889,46.091894 C 78.055223,45.996254 79.173595,46.208871 80.926441,46.749779 L 83.516258,47.548967 L 85.538448,50.234883 C 86.700478,51.778321 87.627512,53.277275 87.717856,53.75885 C 87.804326,54.219776 87.826218,56.176239 87.766506,58.106547 C 87.658847,61.586809 87.648933,61.63629 86.582611,64.015696 C 85.99118,65.335419 84.759655,67.487515 83.845886,68.79813 C 82.322825,70.982651 81.970419,71.319536 79.613544,72.844082 C 75.594351,75.443902 75.367628,75.51239 71.459568,75.307276 C 69.638572,75.211706 67.90344,75.005557 67.603719,74.849176 C 67.303996,74.692795 66.190031,73.849306 65.128242,72.974757 L 63.197713,71.384668 L 63.197713,70.006475 C 63.197713,68.491107 62.968806,68.177298 62.173794,68.602775 C 61.268158,69.087456 60.660745,70.383321 60.659711,71.832945 L 60.658711,73.163368 L 59.071866,73.88689 C 58.199102,74.284828 56.700872,75.092427 55.742466,75.681553 C 54.369856,76.525287 53.399614,76.88494 51.172355,77.375612 C 49.617199,77.718218 47.659282,78.216784 46.821428,78.483537 C 45.975155,78.75297 44.169562,79.030282 42.759107,79.107448 C 40.22242,79.24623 40.217584,79.245354 37.335387,78.126705 L 37.335444,78.126705 z"
       id="path5156"
       style="fill:#0606ee" />
    <path
       d="M 37.335444,78.126705 C 35.38069,77.368019 33.948268,76.616652 32.89228,75.796075 C 32.035163,75.130037 30.953575,74.294907 30.488751,73.940235 C 29.570195,73.23935 27.092344,68.654724 26.778267,67.074942 C 26.681097,66.586194 26.160405,64.815276 25.621169,63.139568 C 24.69021,60.24656 24.635927,59.895566 24.545365,56.183388 L 24.449985,52.27395 L 25.266834,51.791996 C 26.197304,51.243006 26.491542,50.71335 26.050464,50.381388 C 25.884212,50.256265 24.719912,49.770963 23.463132,49.302942 C 22.206351,48.834919 20.966694,48.272489 20.708338,48.053098 C 20.449982,47.833705 19.421707,46.287641 18.423282,44.617399 L 16.607964,41.580596 L 16.635304,37.634167 L 16.662644,33.687736 L 17.751758,31.402681 C 19.426948,27.887987 21.86362,24.544173 23.523272,23.482506 C 25.073044,22.49113 27.448513,21.339202 27.610038,21.500726 C 27.668338,21.559026 27.128833,22.398811 26.411143,23.366921 C 24.863897,25.454041 24.360921,26.648654 24.888686,26.982893 C 25.641942,27.459938 26.113934,27.186172 26.938574,25.793911 C 27.400999,25.013185 28.020917,24.077119 28.316166,23.713764 L 28.852987,23.053118 L 29.458694,23.987594 C 29.791835,24.501555 30.211772,24.923484 30.391888,24.925212 C 31.593807,24.936742 34.472046,22.30911 34.156947,21.48797 C 34.046815,21.200971 34.261036,21.119929 35.129814,21.119929 C 36.112266,21.119929 36.408041,21.269933 37.63292,22.389404 C 38.396875,23.087616 39.139254,23.65888 39.282649,23.65888 C 39.868624,23.65888 42.04388,22.566391 42.695685,21.944736 C 43.249224,21.416801 43.393896,21.048969 43.393896,20.169518 C 43.393896,19.103154 43.437016,19.041143 44.50776,18.567501 C 45.120383,18.296508 46.591274,17.466019 47.776408,16.72197 C 49.700178,15.51419 50.200019,15.323505 52.438658,14.943371 C 53.817765,14.709191 55.517387,14.530048 56.215599,14.545275 C 56.91381,14.560505 58.798981,14.446875 60.404868,14.292776 L 63.324661,14.01259 L 64.974979,14.836888 C 65.882654,15.290252 66.594749,15.775437 66.557409,15.91508 C 66.479079,16.208015 65.2077,16.212604 63.176483,15.92728 L 61.758832,15.728146 L 60.466029,16.876337 C 59.754988,17.507842 58.821956,18.101681 58.392625,18.195977 C 57.617689,18.366182 57.328291,18.951872 57.921433,19.149587 C 58.163233,19.230187 58.158092,19.618755 57.897893,20.92777 C 57.714774,21.849045 57.63463,22.822364 57.719796,23.090701 C 57.828611,23.43354 57.606419,23.862989 56.972415,24.535228 C 56.106676,25.453179 56.072537,25.560258 56.128293,27.182813 C 56.178863,28.654354 56.097703,29.00429 55.502784,29.879787 C 54.942755,30.703947 54.819172,31.16959 54.819172,32.455573 L 54.819172,34.025327 L 56.025173,34.908745 C 56.897204,35.547525 57.891434,35.953734 59.61544,36.375609 C 61.913912,36.93806 62.022506,36.996799 62.633281,38.007976 C 63.325597,39.154153 65.077701,40.296841 66.514489,40.539219 C 66.994358,40.620169 67.778381,40.812418 68.25676,40.966438 C 69.105628,41.239739 69.152888,41.216644 70.222106,40.006055 C 70.824665,39.323823 71.318722,38.685876 71.320012,38.588396 C 71.327012,38.060495 73.919667,35.388853 74.818194,34.983675 C 75.895369,34.497935 76.129529,34.070244 76.153245,32.545205 C 76.160845,32.056457 76.494381,30.971985 76.894439,30.135266 L 77.621815,28.613956 L 78.326821,30.135266 C 78.907601,31.388507 79.065006,32.171063 79.220118,34.576366 C 79.323679,36.182251 79.489191,37.9812 79.58792,38.574027 L 79.767434,39.651896 L 78.337738,40.306432 C 76.782941,41.018242 76.814972,40.950333 76.789077,43.589641 C 76.779477,44.567137 76.669648,45.583022 76.544993,45.847162 C 76.339335,46.28294 76.399572,46.312181 77.195416,46.162878 C 78.032478,46.005846 81.455296,46.951392 82.954782,47.753893 C 83.471406,48.030383 86.556058,52.221053 86.556058,52.646424 C 86.556058,52.762137 86.165517,52.856812 85.688192,52.856812 C 84.668861,52.856812 84.017107,53.069695 84.017107,53.402643 C 84.017107,53.843225 86.3676,56.157448 86.815085,56.157448 C 87.393811,56.157448 87.563941,56.863027 87.568173,59.280743 C 87.571173,60.991458 87.435858,61.60574 86.575733,63.786325 C 85.940987,65.395525 84.964172,67.194171 83.882155,68.7461 C 82.318113,70.989398 81.982121,71.311961 79.613541,72.844078 C 75.594348,75.443898 75.367625,75.512386 71.459565,75.307272 C 69.638569,75.211702 67.903437,75.005553 67.603716,74.849172 C 67.303993,74.69279 66.190028,73.849302 65.128239,72.974753 L 63.19771,71.384664 L 63.19771,70.006471 C 63.19771,68.491103 62.968803,68.177294 62.173791,68.602771 C 61.268155,69.087452 60.660742,70.383317 60.659708,71.832941 L 60.658708,73.163364 L 59.071863,73.886886 C 58.199099,74.284824 56.700869,75.092423 55.742463,75.681549 C 54.369853,76.525283 53.399611,76.884936 51.172352,77.375608 C 49.617196,77.718214 47.659279,78.21678 46.821425,78.483533 C 45.975152,78.752966 44.169559,79.030278 42.759104,79.107444 C 40.222417,79.246226 40.217581,79.24535 37.335384,78.126701 L 37.335444,78.126705 z M 75.39035,24.622745 C 75.118289,24.175374 74.94789,23.757148 75.011683,23.693352 C 75.202018,23.503018 76.0857,24.415048 76.224236,24.944799 C 76.424531,25.710733 75.937641,25.522691 75.39035,24.622745 L 75.39035,24.622745 z"
       id="path5154"
       style="fill:#0202ce" />
    <path
       d="M 37.335444,78.126705 C 35.38069,77.368019 33.948268,76.616652 32.89228,75.796075 C 32.035163,75.130037 30.953575,74.294907 30.488751,73.940235 C 29.570195,73.23935 27.092344,68.654724 26.778267,67.074942 C 26.681097,66.586194 26.160405,64.815276 25.621169,63.139568 C 24.69021,60.24656 24.635927,59.895566 24.545365,56.183388 L 24.449985,52.27395 L 25.266834,51.791996 C 26.197304,51.243006 26.491542,50.71335 26.050464,50.381388 C 25.884212,50.256265 24.719912,49.770963 23.463132,49.302942 C 22.206351,48.834919 20.966694,48.272489 20.708338,48.053098 C 20.449982,47.833705 19.421707,46.287641 18.423282,44.617399 L 16.607964,41.580596 L 16.635304,37.634167 L 16.662644,33.687736 L 17.747121,31.402681 C 18.343584,30.145901 19.622882,28.002146 20.590007,26.638783 C 22.135172,24.460553 22.534002,24.066258 23.878764,23.387423 C 24.720455,22.96254 25.512924,22.649858 25.639806,22.692576 C 25.766688,22.735296 25.529232,23.284386 25.112125,23.912776 C 24.268531,25.183689 22.963127,28.821722 23.16341,29.343653 C 23.315144,29.739064 25.957542,31.275733 26.485746,31.275733 C 26.68617,31.275733 27.459108,30.594253 28.203383,29.761333 C 29.158577,28.692374 29.908627,28.117173 30.753374,27.805779 C 31.898712,27.383582 32.029037,27.385093 33.78659,27.840939 L 35.623046,28.317255 L 36.982197,26.813224 C 37.729733,25.986008 38.53442,24.990322 38.770396,24.600591 C 39.027139,24.176557 39.830438,23.593855 40.770678,23.149613 C 42.861357,22.161815 43.393896,21.559986 43.393896,20.18509 C 43.393896,19.106866 43.413596,19.082433 44.853793,18.375396 C 45.656736,17.981204 47.101526,17.169324 48.064439,16.571218 C 49.48387,15.68955 50.228613,15.415451 51.999813,15.122827 C 53.201356,14.924317 54.927081,14.765342 55.834756,14.769548 C 56.742431,14.773748 58.34197,14.722668 59.389287,14.656011 C 61.180129,14.542041 61.248152,14.556341 60.531815,14.89613 C 60.112888,15.094847 59.385189,15.262588 58.914709,15.268886 C 58.410108,15.275686 57.472979,15.63262 56.629653,16.139328 C 55.843353,16.611772 54.961022,17.070747 54.668913,17.159272 C 53.606007,17.48139 52.956253,18.486108 52.970908,19.784909 C 52.988048,21.303324 51.901043,25.319496 51.248377,26.149227 C 50.624821,26.941949 50.631196,27.385983 51.289937,29.044747 C 51.743392,30.186575 51.92008,31.489907 52.012464,34.374417 C 52.029354,34.901919 54.78753,37.180506 56.297769,37.9146 C 57.801958,38.645755 58.644545,40.282271 58.144221,41.500879 C 57.482512,43.112562 57.520084,43.555908 58.419342,44.747405 C 58.89912,45.3831 59.766682,46.118205 60.408768,46.433088 C 61.434517,46.936128 61.930229,46.990233 65.409331,46.978896 C 68.210418,46.969796 69.344844,46.877658 69.539112,46.64358 C 69.686427,46.466077 69.975403,45.753627 70.181281,45.060359 C 70.670555,43.412793 71.14396,43.038991 72.917344,42.899937 C 74.157443,42.802697 74.521509,42.652892 75.26207,41.935113 C 75.744245,41.467771 76.212564,41.15921 76.302778,41.249426 C 76.392988,41.339636 76.480393,42.567299 76.497003,43.977559 L 76.527203,46.541669 L 77.292369,46.398355 C 77.803237,46.302675 78.673802,46.491745 79.911841,46.96726 L 81.766148,47.679484 L 82.747681,49.696884 L 83.729212,51.714284 L 83.111475,52.179778 C 82.104854,52.938312 82.252172,54.506046 83.540733,56.747889 C 84.742268,58.838319 85.118368,59.204189 86.065707,59.204189 C 86.440847,59.204189 86.890774,59.37649 87.065551,59.587081 C 87.883618,60.572794 86.273962,65.215633 83.899433,68.719335 C 82.564344,70.689301 82.045798,71.214177 80.198681,72.46526 C 79.017223,73.265482 77.333356,74.272529 76.456755,74.703141 L 74.862934,75.486074 L 71.505801,75.309787 C 69.659376,75.212827 67.903438,75.005554 67.603717,74.849172 C 67.303994,74.69279 66.190029,73.849302 65.12824,72.974753 L 63.197711,71.384664 L 63.197711,70.006471 C 63.197711,68.491103 62.968804,68.177294 62.173792,68.602771 C 61.268156,69.087452 60.660743,70.383317 60.659709,71.832941 L 60.658709,73.163364 L 59.071864,73.886886 C 58.1991,74.284824 56.70087,75.092423 55.742464,75.681549 C 54.369854,76.525283 53.399612,76.884936 51.172353,77.375608 C 49.617197,77.718214 47.65928,78.21678 46.821426,78.483533 C 45.975153,78.752966 44.16956,79.030278 42.759105,79.107444 C 40.222418,79.246226 40.217582,79.24535 37.335385,78.126701 L 37.335444,78.126705 z M 77.044863,40.431911 C 76.956963,40.289681 77.044609,39.628082 77.23958,38.961686 C 77.454319,38.227823 77.547187,37.127766 77.475096,36.171907 C 77.326156,34.197139 77.559596,32.895698 78.099944,32.688347 C 78.781698,32.426733 78.94149,32.839458 79.182532,35.484562 C 79.308805,36.870227 79.489507,38.365923 79.58409,38.80833 C 79.735699,39.517467 79.67012,39.656452 79.030269,39.982166 C 77.894931,40.560105 77.218755,40.713275 77.044863,40.431911 z"
       id="path5152"
       style="fill:#0000ae" />
    <path
       d="M 37.335444,78.126705 C 35.38069,77.368019 33.948268,76.616652 32.89228,75.796075 C 32.035163,75.130037 30.953575,74.294907 30.488751,73.940235 C 29.570195,73.23935 27.092344,68.654724 26.778267,67.074942 C 26.681097,66.586194 26.160405,64.815276 25.621169,63.139568 C 24.69021,60.24656 24.635927,59.895566 24.545365,56.183388 L 24.449985,52.27395 L 25.266834,51.791996 C 26.197304,51.243006 26.491542,50.71335 26.050464,50.381388 C 25.884212,50.256265 24.719912,49.770963 23.463132,49.302942 C 22.206351,48.834919 20.966694,48.272489 20.708338,48.053098 C 20.449982,47.833705 19.421707,46.287641 18.423282,44.617399 L 16.607964,41.580596 L 16.635744,37.634167 L 16.663524,33.687736 L 17.814109,31.275733 C 19.790127,27.133355 22.828309,23.461356 24.317498,23.415627 C 24.590688,23.407227 24.575835,23.539644 24.247348,24.040983 C 23.752238,24.796615 21.967206,29.451056 21.277991,31.783523 L 20.790344,33.433841 L 21.345317,35.011569 C 21.684533,35.975918 22.341048,37.093146 23.034009,37.885305 L 24.167728,39.181316 L 23.71127,40.688894 C 23.460218,41.518062 23.325371,42.267033 23.411609,42.353271 C 23.497849,42.439511 23.9797,42.267401 24.482393,41.970803 C 25.108986,41.601104 25.825944,41.431537 26.762507,41.431537 L 28.128636,41.431537 L 30.783837,37.43269 C 32.244199,35.233323 33.92566,32.476805 34.520422,31.307095 C 35.115181,30.137385 36.507727,27.966581 37.614966,26.483089 C 39.339246,24.172877 39.816343,23.700989 40.939753,23.194602 C 42.948289,22.289236 43.393905,21.763592 43.393905,20.299711 C 43.393905,19.063929 43.397505,19.058644 44.599907,18.535458 C 45.263208,18.246841 46.731928,17.455833 47.863731,16.777663 C 49.667661,15.696757 50.153202,15.524323 51.799105,15.380071 C 53.015077,15.273498 53.587194,15.302371 53.422762,15.462011 C 53.283119,15.597582 52.335481,16.371763 51.3169,17.182412 C 49.237946,18.836971 49.113499,19.010145 48.852236,20.612142 C 48.749756,21.240532 48.158724,23.158048 47.538834,24.873289 C 46.362046,28.129477 46.342156,28.438857 47.216591,29.885513 C 47.471874,30.30785 47.918052,31.736009 48.208099,33.059201 C 48.663006,35.134494 48.693145,35.631323 48.427495,36.675648 C 48.197273,37.580695 48.189154,38.221589 48.395335,39.214598 C 48.617125,40.282775 48.598152,40.716934 48.298465,41.431539 C 48.02302,42.088332 47.969648,42.801451 48.093889,44.164892 C 48.248118,45.857396 48.196793,46.166218 47.471902,47.907483 L 46.681816,49.805354 L 47.198462,50.818063 C 47.794573,51.986534 48.137801,52.183813 51.847726,53.490347 L 54.588899,54.455712 L 58.312212,52.622371 C 62.37344,50.622642 63.709519,50.29363 65.609147,50.825494 C 67.00359,51.215914 67.312834,51.006362 68.691512,48.736816 C 69.542201,47.336427 69.633981,47.264788 70.394572,47.407477 C 71.113339,47.542319 71.22897,47.477527 71.486313,46.795749 C 71.750773,46.095117 71.900566,46.0189 73.331204,45.857042 C 74.187587,45.760152 74.949577,45.581675 75.024514,45.460422 C 75.099454,45.339172 75.382529,45.239965 75.653572,45.239965 C 76.031871,45.239965 76.146378,45.416947 76.146378,46.00165 C 76.146378,46.555543 76.26759,46.764953 76.590694,46.769266 C 76.835068,46.772566 77.606274,47.086724 78.304486,47.467478 C 79.237012,47.976012 79.593501,48.328233 79.647581,48.794496 C 79.688071,49.143602 80.017404,50.032057 80.379431,50.76884 C 80.953008,51.936161 81.021387,52.335919 80.91111,53.877184 C 80.803334,55.383475 80.87638,55.843982 81.403405,56.980742 C 81.98925,58.244385 82.012774,58.474643 81.844538,61.29883 C 81.63743,64.775517 81.697614,64.842778 83.605107,63.266516 C 84.523925,62.507251 85.059408,62.250936 85.726825,62.250936 C 86.588001,62.250936 86.614036,62.278506 86.463539,63.030986 C 86.166007,64.518653 85.131669,66.705069 83.695684,68.881771 C 82.383217,70.871244 82.020274,71.223528 79.689595,72.770245 C 75.698733,75.418714 75.39088,75.513615 71.459583,75.307279 C 69.638587,75.211709 67.903455,75.00556 67.603734,74.849179 C 67.304011,74.692797 66.195848,73.85407 65.141145,72.98534 L 63.223506,71.405828 L 63.147146,69.958656 C 63.099676,69.059152 62.94678,68.470567 62.743113,68.403361 C 62.562893,68.343891 62.020192,68.714322 61.537111,69.226537 C 60.739093,70.072683 60.658779,70.295253 60.658779,71.660607 L 60.658779,73.163371 L 59.071934,73.886893 C 58.19917,74.284831 56.71186,75.085745 55.766802,75.666701 C 54.46858,76.464759 53.444441,76.85346 51.577533,77.256691 C 50.218493,77.550229 48.249656,78.053675 47.202339,78.375464 C 46.03708,78.733489 44.312853,79.015991 42.759175,79.103445 L 40.220213,79.246355 L 37.335444,78.126706 L 37.335444,78.126705 z M 67.133093,52.856816 C 67.133093,52.670628 66.990277,52.470684 66.815724,52.4125 C 66.62693,52.34957 66.498355,52.529574 66.498355,52.856816 C 66.498355,53.18406 66.62693,53.364063 66.815724,53.301133 C 66.990277,53.242943 67.133093,53.043005 67.133093,52.856816 z M 77.415844,40.278894 C 77.415844,40.203514 77.64435,39.693925 77.923634,39.146481 C 78.202919,38.599038 78.431424,37.689568 78.431424,37.125436 C 78.431424,35.612487 78.75673,35.877349 79.226593,37.772855 L 79.640922,39.444316 L 78.845751,39.929186 C 78.075786,40.39869 77.415844,40.56009 77.415844,40.278894 z"
       id="path5150"
       style="fill:#00008f" />
    <path
       d="M 37.300135,77.991889 C 35.166469,77.169046 34.134812,76.577922 32.134883,75.032287 C 29.641331,73.105159 29.632782,73.094718 28.263267,70.304245 C 27.508366,68.766088 26.89072,67.312716 26.89072,67.074532 C 26.89072,66.836348 26.412823,65.22515 25.828727,63.494096 C 24.768625,60.352324 24.766675,60.339531 24.733211,56.309083 L 24.699691,52.271448 L 25.415018,51.865919 C 26.173009,51.436205 26.577311,50.656281 26.21773,50.317436 C 26.099127,50.205674 24.797312,49.646411 23.324808,49.074635 L 20.647529,48.035038 L 18.754696,44.923709 L 16.861864,41.812379 L 16.781104,37.980505 L 16.700344,34.148632 L 18.077117,31.252285 C 18.916207,29.487072 20.065304,27.587482 21.019458,26.388252 C 23.367454,23.437172 23.577198,23.72456 21.899633,27.594254 C 20.965062,29.750062 19.019978,35.154173 19.019978,35.594927 C 19.019978,35.739201 19.88148,36.778449 20.934426,37.904367 C 23.046055,40.162338 23.009155,39.990715 21.895483,42.374217 C 21.217822,43.824559 21.344583,44.54934 22.330637,44.862303 C 23.351721,45.186382 26.290449,45.124581 26.717905,44.770033 C 26.945337,44.581397 27.667744,43.438869 28.323256,42.231082 C 28.978767,41.023298 30.276443,38.892583 31.206984,37.496159 C 32.137524,36.099736 33.613485,33.586175 34.486897,31.910467 C 35.948675,29.10594 39.138014,24.445566 40.075638,23.744011 C 40.293005,23.581371 40.884335,23.324419 41.389708,23.173006 C 42.772705,22.758649 43.68808,21.721786 43.638977,20.625211 C 43.616757,20.129272 43.609677,19.584147 43.623207,19.413823 C 43.636737,19.243498 44.533266,18.676737 45.615494,18.154354 C 49.911473,16.080717 49.790895,16.065189 47.407432,18.385122 C 45.444475,20.295756 45.230767,20.599245 45.063676,21.713491 C 44.962555,22.387812 44.705679,23.415578 44.492839,23.997415 C 44.279998,24.579252 44.119976,25.65571 44.137228,26.389545 C 44.157158,27.23697 43.976906,28.169387 43.643222,28.945059 C 43.11886,30.163971 43.118807,30.168567 43.614932,31.325988 C 43.888329,31.963801 44.309003,33.441635 44.549759,34.61006 L 44.987497,36.734474 L 44.31765,38.842215 C 43.949228,40.001472 43.647797,41.195921 43.647797,41.496543 C 43.647797,41.797165 43.296233,43.284285 42.866544,44.801249 L 42.085291,47.55937 L 43.726994,50.525462 C 44.629929,52.156811 45.555691,53.862872 45.78424,54.316709 C 46.012791,54.770547 46.30798,55.141868 46.440216,55.141868 C 46.572452,55.141868 48.02608,55.719178 49.670506,56.424775 L 52.660367,57.707684 L 55.800823,57.177102 C 57.528074,56.885282 59.617092,56.362073 60.443086,56.014417 C 61.853042,55.420975 62.010333,55.404434 63.014831,55.743988 C 63.926563,56.052184 64.178736,56.053943 64.720295,55.755898 C 66.218519,54.93132 67.386455,53.376431 67.306539,52.312796 C 67.275239,51.896172 67.686762,50.94335 68.392138,49.799263 C 69.016946,48.785856 69.570036,47.83105 69.621229,47.677469 C 69.678519,47.505611 70.207562,47.666709 70.99701,48.096368 C 71.702496,48.480344 72.443842,48.794503 72.644442,48.794503 C 72.845042,48.794503 73.45797,48.454924 74.006505,48.039881 C 74.55504,47.624839 75.083802,47.282081 75.181534,47.278196 C 75.279264,47.274296 75.873221,47.618022 76.501433,48.041999 L 77.643641,48.812865 L 77.496367,50.056349 C 77.372517,51.102085 77.495605,51.666169 78.271102,53.603452 C 79.3067,56.190874 79.361155,56.619398 78.793783,57.716572 C 78.078787,59.099224 77.672004,61.726911 77.875089,63.651055 C 78.119674,65.968419 78.066537,66.151072 76.999758,66.659781 C 76.226399,67.028571 76.143896,67.146889 76.424419,67.484897 C 76.767508,67.898296 78.805536,69.360005 79.038838,69.360005 C 79.113128,69.360005 79.878164,68.731616 80.738914,67.963582 C 81.599665,67.195549 82.415724,66.56716 82.55238,66.56716 C 82.689034,66.56716 83.367516,66.282536 84.060116,65.934663 L 85.319388,65.302167 L 85.147092,65.871189 C 84.946169,66.534759 84.298607,67.656201 82.97391,69.634681 C 82.234258,70.739381 81.453609,71.431094 79.433698,72.771574 C 75.828157,75.16433 75.716153,75.199819 71.774833,75.198257 C 67.993073,75.196757 68.24595,75.285427 65.262038,72.914536 L 63.504554,71.518113 L 63.330927,69.931269 C 63.171141,68.470897 63.108449,68.344425 62.544365,68.344425 C 62.115217,68.344425 61.697234,68.667722 61.150385,69.422626 C 60.483004,70.343917 60.381161,70.684918 60.450579,71.765823 C 60.531149,73.020337 60.523409,73.03472 59.51624,73.501567 C 58.957671,73.760477 57.415258,74.585658 56.088656,75.335307 C 54.089727,76.464877 53.176617,76.806381 50.756859,77.329397 C 49.150973,77.676501 47.397461,78.145258 46.860166,78.371077 C 46.229932,78.635956 44.833413,78.823965 42.924792,78.900882 L 39.966318,79.020096 L 37.300135,77.991887 L 37.300135,77.991889 z M 77.923634,39.947518 C 77.923634,39.829518 78.154839,39.523734 78.437424,39.268001 C 78.799534,38.940296 79.030713,38.882527 79.220505,39.072319 C 79.410297,39.262111 79.316895,39.462716 78.904116,39.751836 C 78.255043,40.206466 77.923634,40.272605 77.923634,39.947518 z"
       id="path5148"
       style="fill:#00006e" />
    <path
       d="M 37.430581,77.864289 C 35.213379,76.995892 34.145351,76.388857 32.225732,74.906005 C 29.914446,73.120605 29.75357,72.931087 28.487261,70.501946 C 27.759471,69.105843 27.159643,67.756532 27.154312,67.503483 C 27.149012,67.250433 26.637177,65.479515 26.016974,63.568109 C 24.913422,60.167065 24.887962,60.012351 24.82515,56.325754 L 24.76097,52.558682 L 25.742394,51.734726 C 26.382012,51.197736 26.671469,50.77435 26.573509,50.519072 C 26.490839,50.303636 25.14981,49.637307 23.593445,49.03834 L 20.763691,47.949308 L 18.876253,44.772737 L 16.988815,41.596165 L 16.988815,37.740795 L 16.988815,33.885429 L 18.242362,31.247632 C 18.931813,29.796842 19.906202,28.152823 20.407672,27.594254 L 21.319434,26.578673 L 20.899403,27.594254 C 20.668385,28.152823 20.106942,29.589963 19.651751,30.787896 C 19.196559,31.985832 18.636549,33.3287 18.407283,33.772052 C 18.084851,34.395568 18.028058,34.945362 18.15654,36.199419 C 18.319327,37.78832 18.352417,37.846896 19.813837,39.133293 C 21.398937,40.528553 21.617215,41.12674 20.909792,42.136728 C 20.69241,42.447084 20.292525,42.701012 20.021159,42.701012 C 19.341431,42.701012 19.392139,42.944731 20.436701,44.698242 C 21.342765,46.219259 21.350182,46.224631 22.78523,46.399497 C 23.577007,46.495977 24.648721,46.78869 25.166817,47.049968 C 26.29276,47.617787 26.382933,47.627161 26.382933,47.176408 C 26.382933,46.466322 29.723624,40.085433 31.416015,37.562965 C 32.378186,36.128874 33.827198,33.641999 34.636047,32.036575 C 36.057464,29.215303 39.158571,24.748375 40.204274,24.015938 C 40.756813,23.628924 41.473059,23.528878 41.263476,23.867987 C 41.192396,23.982996 41.235416,25.039834 41.359076,26.216517 C 41.582669,28.34407 41.57885,28.366862 40.671081,30.324743 L 39.758245,32.293547 L 40.577678,35.081712 C 41.028367,36.615202 41.313669,38.004895 41.21168,38.169916 C 41.10969,38.334935 40.937311,39.524012 40.828613,40.812307 C 40.719913,42.100603 40.442824,43.801893 40.212856,44.592952 C 39.824664,45.92829 39.824648,46.206737 40.212653,48.483006 C 40.531396,50.35294 40.836925,51.274463 41.50013,52.366214 C 42.857077,54.599991 43.363359,55.895031 43.22148,56.769329 C 43.012174,58.059129 43.81754,58.78829 46.506819,59.743811 C 47.938783,60.252597 49.103138,60.841278 49.495642,61.254914 C 49.84929,61.627601 50.746111,62.240354 51.488576,62.616591 C 52.231039,62.992826 52.770102,63.369063 52.686494,63.452674 C 52.602884,63.536284 51.54127,64.137232 50.327354,64.788119 C 49.113436,65.439004 48.079857,66.092667 48.030512,66.240701 C 47.933442,66.531926 53.033797,69.359998 53.656089,69.359998 C 53.864014,69.359998 55.368571,68.448748 56.999549,67.334999 C 59.515322,65.617048 60.366158,65.186815 62.61089,64.497577 C 64.94919,63.779607 65.347112,63.571146 66.033424,62.70461 C 66.782511,61.75881 67.241332,60.465283 67.253981,59.26356 C 67.258281,58.853029 67.005454,58.566785 66.371406,58.264429 C 65.882658,58.031361 65.482774,57.72294 65.482774,57.579047 C 65.482774,57.435155 66.023146,56.768799 66.683603,56.098262 C 67.710947,55.055236 67.842147,54.81139 67.591743,54.410431 C 67.089277,53.605855 67.519823,51.836466 68.724851,49.753777 C 69.68575,48.093021 69.927657,47.82991 70.307009,48.032932 C 70.811262,48.302802 71.181652,49.04839 70.81146,49.04839 C 70.4741,49.04839 70.80256,51.379698 71.199811,51.804879 C 71.466924,52.090762 71.78509,51.907201 73.070131,50.725824 C 73.921782,49.942878 74.71984,49.302285 74.843599,49.302285 C 74.967355,49.302285 75.213141,49.476432 75.389788,49.68928 C 75.643249,49.994683 75.649805,50.446606 75.420878,51.83282 C 75.26133,52.798923 75.13079,53.973361 75.13079,54.442686 C 75.13079,55.03303 74.647211,56.113384 73.561635,57.94831 C 71.08748,62.130315 70.562651,63.7441 70.38281,67.722758 C 70.268318,70.255735 70.30858,71.108403 70.549692,71.257422 C 70.744813,71.378012 71.440468,71.049731 72.351987,70.406909 C 73.168471,69.831108 73.972556,69.359998 74.138842,69.359998 C 74.305128,69.359998 75.164805,69.817009 76.049238,70.375578 C 76.933669,70.934147 77.917164,71.390732 78.234782,71.390209 C 78.884109,71.389209 79.817678,70.864494 81.624805,69.485084 C 83.001904,68.43392 83.331711,68.638885 82.480185,70.01668 C 81.921049,70.921379 77.487414,74.085811 75.797001,74.786683 C 75.211828,75.029305 74.069976,75.076626 71.442535,74.967141 L 67.881225,74.818742 L 65.856843,73.177582 C 64.743432,72.274944 63.748518,71.418049 63.645924,71.273369 C 63.54333,71.128689 63.457641,70.417232 63.455503,69.692351 C 63.453503,68.967471 63.330868,68.29976 63.183289,68.20855 C 62.632621,67.868219 61.645858,68.388148 60.907209,69.407821 C 60.228136,70.345255 60.16239,70.593428 60.306104,71.676816 L 60.46747,72.89325 L 59.017295,73.534587 C 58.219696,73.88732 56.737015,74.693303 55.722445,75.325657 C 54.292312,76.217019 53.341673,76.591623 51.492159,76.992625 C 50.18007,77.277104 48.249647,77.774665 47.20233,78.098318 C 46.009729,78.466867 44.349303,78.737247 42.759166,78.82183 C 40.23129,78.956298 40.208046,78.952121 37.430583,77.86429 L 37.430581,77.864289 z M 43.739613,20.231296 C 43.413197,19.380676 44.032996,18.857414 45.880575,18.423791 C 46.525058,18.272534 46.497515,18.335281 45.435672,19.437345 C 44.215976,20.703244 43.965676,20.820412 43.739613,20.231296 z"
       id="path5146"
       style="fill:#00004f" />
    <path
       d="M 37.427367,77.674209 C 35.163646,76.789128 34.187231,76.229266 32.273626,74.719133 C 30.029069,72.947832 29.852363,72.735479 28.68765,70.409797 C 28.013856,69.064374 27.375833,67.563689 27.269821,67.074941 C 27.16381,66.586194 26.646514,64.872401 26.120274,63.266514 C 25.214339,60.501946 25.157613,60.134849 25.053252,56.361389 L 24.943031,52.376055 L 25.68434,52.068995 C 26.449249,51.75216 26.976698,50.837344 26.744037,50.23104 C 26.671197,50.041221 25.446184,49.45136 24.021787,48.920238 C 22.597391,48.389118 21.323436,47.857916 21.190775,47.739791 C 20.658555,47.265886 21.928552,47.568724 24.034398,48.417869 C 25.252226,48.908937 26.3931,49.255281 26.569675,49.187524 C 26.766392,49.112034 26.890974,48.594204 26.891376,47.850355 C 26.892265,46.227952 29.235249,41.167445 31.508998,37.877005 C 32.425704,36.550403 33.89205,34.036842 34.767546,32.291313 C 36.191636,29.452019 38.269164,26.451726 38.811118,26.451726 C 38.922197,26.451726 39.076014,27.051553 39.152934,27.784675 C 39.302253,29.207823 39.26688,29.309991 37.475881,32.628285 L 36.540306,34.361683 L 37.165197,35.427979 C 38.02613,36.897051 38.482235,40.728882 38.101148,43.291125 C 37.857645,44.928322 37.908871,45.61832 38.566934,49.564987 L 39.306312,53.999344 L 38.531468,55.68755 C 37.945841,56.963495 37.798848,57.568007 37.929538,58.163028 C 38.024638,58.596025 38.041623,58.950298 37.967278,58.950298 C 37.321707,58.950298 36.368371,58.101537 35.607983,56.849801 C 34.581478,55.159989 34.374932,55.225532 34.112711,57.32428 C 33.997001,58.250374 34.082501,59.041134 34.411033,60.08335 C 34.90365,61.646115 35.765419,62.474588 39.102047,64.593121 C 40.029739,65.182143 40.788858,65.927574 41.289363,66.740998 C 41.984145,67.870163 42.385337,68.163151 45.575346,69.870999 L 49.094794,71.75522 L 52.452524,71.992775 C 55.768173,72.227351 55.82013,72.24052 56.598407,73.043499 L 57.386561,73.856667 L 55.648114,75.044498 C 54.138796,76.075766 53.492742,76.328961 50.746417,76.965512 C 49.006632,77.368763 47.183287,77.868054 46.694539,78.075051 C 46.205471,78.282181 44.550133,78.52217 43.01306,78.608787 L 40.220214,78.766169 L 37.427368,77.674209 L 37.427367,77.674209 z M 69.164253,74.713777 C 68.105828,74.58003 67.546543,74.280017 65.800143,72.909212 L 63.705509,71.265064 L 63.705509,69.861232 C 63.705509,69.001579 63.552301,68.238668 63.31027,67.893121 C 62.978193,67.419015 62.973024,67.328837 63.27793,67.328837 C 63.71058,67.328837 65.278639,65.668317 66.797587,63.601642 C 67.793853,62.246129 67.962432,61.79026 68.630333,58.645574 L 69.365893,55.182333 L 70.43582,54.773725 C 71.024277,54.548989 71.808123,54.02575 72.177695,53.610966 C 72.547267,53.196183 73.020144,52.856817 73.228529,52.856817 C 74.063178,52.856817 73.546106,54.322754 71.399128,58.043302 C 67.532996,64.743012 67.764686,63.969884 68.235054,68.601565 C 68.586346,72.060682 68.810899,73.409343 69.061328,73.564117 C 69.181959,73.638667 70.323689,73.215055 71.598509,72.622748 L 73.916361,71.545829 L 75.538814,72.420599 C 76.431164,72.901725 77.161419,73.443773 77.161607,73.625153 C 77.161793,73.806534 76.676371,74.175347 76.082891,74.444737 C 74.958194,74.955257 71.988944,75.070718 69.164249,74.713777 L 69.164253,74.713777 z M 68.228071,54.24331 C 67.623275,53.91494 67.562404,53.764704 67.692127,52.920526 C 67.772617,52.396737 67.953867,51.74391 68.094913,51.469799 C 68.349745,50.974553 68.352487,50.974553 68.530727,51.469799 C 68.724332,52.00774 69.101516,54.640658 68.982576,54.623916 C 68.942856,54.618316 68.603328,54.447053 68.228071,54.24331 z M 17.509118,42.081356 C 17.076712,41.560337 16.913562,39.245041 17.194963,37.62311 L 17.43724,36.226687 L 17.46692,37.698123 C 17.4984,39.25853 17.625204,39.456169 19.508194,40.879584 C 20.455415,41.595619 20.491622,41.887677 19.654709,42.061437 C 19.305603,42.133917 18.747412,42.249244 18.414285,42.317714 C 18.064125,42.389684 17.682254,42.289974 17.509117,42.081356 L 17.509118,42.081356 z M 43.94655,19.688686 C 43.9917,19.460071 44.31093,19.168791 44.655953,19.041395 L 45.283267,18.809768 L 44.67517,19.457059 C 43.964383,20.213656 43.834732,20.254872 43.94655,19.688687 L 43.94655,19.688686 z"
       id="path5144"
       style="fill:#000035" />
  </g>
</svg>
