<?xml version="1.0" encoding="UTF-8" standalone="no"?>
<!-- Created with Inkscape (http://www.inkscape.org/) -->
<svg
   xmlns:dc="http://purl.org/dc/elements/1.1/"
   xmlns:cc="http://web.resource.org/cc/"
   xmlns:rdf="http://www.w3.org/1999/02/22-rdf-syntax-ns#"
   xmlns:svg="http://www.w3.org/2000/svg"
   xmlns="http://www.w3.org/2000/svg"
   xmlns:sodipodi="http://sodipodi.sourceforge.net/DTD/sodipodi-0.dtd"
   xmlns:inkscape="http://www.inkscape.org/namespaces/inkscape"
   version="1.0"
   width="100"
   height="100"
   id="svg2"
   sodipodi:version="0.32"
   inkscape:version="0.45.1"
   sodipodi:docname="stack_surfaces.svg"
   sodipodi:docbase="/home/tris/src/aten/src/gui/icons"
   inkscape:output_extension="org.inkscape.output.svg.inkscape">
  <metadata
     id="metadata2566">
    <rdf:RDF>
      <cc:Work
         rdf:about="">
        <dc:format>image/svg+xml</dc:format>
        <dc:type
           rdf:resource="http://purl.org/dc/dcmitype/StillImage" />
      </cc:Work>
    </rdf:RDF>
  </metadata>
  <sodipodi:namedview
     inkscape:window-height="729"
     inkscape:window-width="1018"
     inkscape:pageshadow="2"
     inkscape:pageopacity="0.0"
     guidetolerance="10.0"
     gridtolerance="10.0"
     objecttolerance="10.0"
     borderopacity="1.0"
     bordercolor="#666666"
     pagecolor="#ffffff"
     id="base"
     inkscape:zoom="3.4648232"
     inkscape:cx="32.033259"
     inkscape:cy="42.704369"
     inkscape:window-x="0"
     inkscape:window-y="6"
     inkscape:current-layer="svg2" />
  <defs
     id="defs4" />
  <g
     id="g2170"
     transform="matrix(1.0993351,0,0,1.0993351,-4.2794004,-3.7711097)">
    <path
       style="fill:none;fill-rule:evenodd;stroke:#000000;stroke-width:0.26063856;stroke-opacity:1"
       d="M 44.711155,66.195396 C 45.947671,67.606084 45.868089,74.643478 44.758016,69.780321 C 44.54249,68.726387 44.340252,67.669283 44.085384,66.623877"
       id="path3918" />
    <path
       style="fill:none;fill-rule:evenodd;stroke:#000000;stroke-width:0.26063856;stroke-opacity:1"
       d="M 43.442051,67.132042 C 45.202055,68.448243 44.207504,75.233064 43.397834,70.228348 C 43.223183,69.359717 43.047151,68.489896 42.798716,67.638643"
       id="path3922" />
    <path
       style="fill:none;fill-rule:evenodd;stroke:#000000;stroke-width:0.26063856;stroke-opacity:1"
       d="M 42.154694,68.226097 C 44.258239,69.568996 42.567251,75.780371 41.995563,70.587061 C 41.844717,69.993615 41.683873,69.40279 41.528921,68.810418"
       id="path3926" />
    <path
       style="fill:none;fill-rule:evenodd;stroke:#000000;stroke-width:0.26063856;stroke-opacity:1"
       d="M 41.528919,68.811989 C 44.060511,69.892633 41.56995,76.14163 41.283775,70.971874 C 41.142535,70.449418 41.00746,69.925218 40.885587,69.397873"
       id="path3928" />
    <path
       style="fill:none;fill-rule:evenodd;stroke:#000000;stroke-width:0.26063856;stroke-opacity:1"
       d="M 40.884892,69.397881 C 43.423145,70.336112 40.840398,76.40093 40.675932,71.588223 L 40.443091,70.809179 L 40.241559,70.021647"
       id="path3930" />
    <path
       style="fill:none;fill-rule:evenodd;stroke:#000000;stroke-width:0.26063856;stroke-opacity:1"
       d="M 40.241558,70.023216 C 42.805756,70.847839 40.106242,76.731441 40.030033,72.117426 L 39.797819,71.40711 L 39.598047,70.687231"
       id="path3932" />
    <path
       style="fill:none;fill-rule:evenodd;stroke:#000000;stroke-width:0.26063856;stroke-opacity:1"
       d="M 39.598045,70.687233 C 42.138092,71.694801 39.510972,76.902792 39.315181,72.420864 C 39.19213,72.067578 39.086035,71.708784 38.97245,71.352417"
       id="path3934" />
    <path
       style="fill:none;fill-rule:evenodd;stroke:#000000;stroke-width:0.26063856;stroke-opacity:1"
       d="M 38.971764,71.350853 C 41.512413,72.113891 38.73529,77.127185 38.72009,73.059535 L 38.521249,72.518957 L 38.32843,71.976189"
       id="path3936" />
    <path
       style="fill:none;fill-rule:evenodd;stroke:#000000;stroke-width:0.26063856;stroke-opacity:1"
       d="M 38.32843,71.976189 C 40.81316,74.038153 37.983099,76.764919 37.684917,72.641373"
       id="path3938" />
    <path
       style="fill:none;fill-rule:evenodd;stroke:#000000;stroke-width:0.26063856;stroke-opacity:1"
       d="M 37.684917,72.64019 C 40.325474,74.665366 37.374472,77.653205 37.041585,73.265536"
       id="path3940" />
    <path
       style="fill:none;fill-rule:evenodd;stroke:#000000;stroke-width:0.26063856;stroke-opacity:1"
       d="M 37.041584,73.265533 C 39.670695,75.034294 36.843293,77.755305 36.398251,73.852989"
       id="path3942" />
    <path
       style="fill:none;fill-rule:evenodd;stroke:#000000;stroke-width:0.26063856;stroke-opacity:1"
       d="M 36.398251,73.851433 C 39.075592,75.312123 36.196382,78.010692 35.772485,74.437321"
       id="path3944" />
    <path
       style="fill:none;fill-rule:evenodd;stroke:#000000;stroke-width:0.26063856;stroke-opacity:1"
       d="M 35.77179,74.437325 C 38.604187,75.463288 35.295664,77.841119 35.128456,74.945475"
       id="path3946" />
    <path
       style="fill:none;fill-rule:evenodd;stroke:#000000;stroke-width:0.2;stroke-miterlimit:4;stroke-dasharray:none;stroke-opacity:1"
       d="M 72.060905,26.655155 C 77.175894,27.022055 69.420578,29.470419 71.417564,26.772337 M 71.417564,26.772337 C 76.839739,27.599063 68.108691,29.459327 70.774055,26.92662 M 70.774055,26.928185 C 76.36278,28.241587 66.432959,30.162041 70.148468,27.16293 M 70.147774,27.16293 C 74.708254,28.372702 66.252689,29.666607 69.50444,27.47423 M 69.50444,27.475794 C 74.800117,28.845593 65.092801,31.249798 68.860924,27.828112 M 68.860924,27.826939 C 73.244007,28.793844 65.123862,30.726999 68.217598,28.217531 M 68.217598,28.217531 C 72.57095,29.034979 64.542069,31.292209 67.592003,28.646015 M 67.591301,28.647577 C 72.957919,29.300858 63.650591,32.981481 66.9478,29.154179 M 66.9478,29.154179 C 72.357509,29.751872 63.005105,33.464292 66.304466,29.662344 M 66.304466,29.662344 C 71.702825,30.010691 62.473019,33.985355 65.661125,30.168936 M 65.661125,30.170509 C 69.977157,30.48168 62.298118,33.630619 65.017799,30.716557 M 65.017097,30.716557 C 69.288905,30.963691 61.835044,34.095059 64.391335,31.262602 M 64.391335,31.264166 C 68.676244,31.407876 61.242174,34.62525 63.747993,31.810602 M 63.747993,31.810602 C 68.098763,32.046022 60.428595,35.28258 63.104668,32.358223 M 63.103973,32.358223 C 67.295851,32.654747 59.839684,35.79904 62.460636,32.90583 M 62.460636,32.904659 C 66.719992,33.222356 59.182237,36.220743 61.834866,33.412434 M 61.834866,33.412434 C 66.887036,33.596097 58.4,36.720114 61.19154,33.882317 M 61.190842,33.881145 C 66.368185,33.738863 58.128568,37.204512 60.547502,34.349463 M 60.547501,34.349464 C 66.353638,32.231908 58.978613,38.27835 59.903998,34.779509 M 59.903999,34.77951 C 63.133032,34.4535 57.286009,37.735221 59.278403,35.171664 M 59.277706,35.170113 C 61.815103,34.673616 58.204373,37.651086 58.634374,35.560692 M 58.634373,35.560692 C 60.564259,35.178677 58.048745,37.222161 57.990869,35.873567 M 57.990868,35.873566 C 59.146459,35.779181 57.171569,37.10911 57.347535,36.18643 M 57.347534,36.184868 C 57.312098,36.69776 56.780502,35.929275 56.704195,36.418441 M 56.704193,36.420006 C 57.289478,35.982161 55.354066,36.392319 56.078429,36.65475 M 56.07774,36.654751 C 59.663648,36.500486 53.058262,36.393134 55.434406,36.851612 M 55.434406,36.850052 C 57.469702,36.336083 54.002427,35.809869 54.791066,37.005896 M 54.791065,37.005898 C 57.545977,36.533019 52.841825,35.427953 54.14774,37.124631 M 54.147038,37.123077 C 56.723003,36.399985 51.980456,35.704875 53.521272,37.240642 M 53.521271,37.240643 C 57.980296,36.669568 51.58399,34.913041 52.877938,37.319932 M 52.877937,37.318371 C 57.248905,36.61469 50.899635,35.0481 52.234603,37.39766 M 52.23391,37.396488 C 56.390482,36.45812 49.873157,35.218923 51.590575,37.435943 M 51.590576,37.435944 C 55.206947,37.227878 49.42993,35.089798 50.94707,37.437506 M 50.947071,37.435944 C 55.330041,36.530911 48.621757,35.231058 50.321475,37.475778 M 50.320782,37.474216 C 54.753306,36.410839 47.645897,35.118995 49.677446,37.474216 M 49.677444,37.474216 C 54.083932,36.368977 46.960381,35.121004 49.033942,37.475778 M 49.033943,37.474216 C 53.351842,36.386634 46.33681,35.131308 48.390609,37.474216 M 48.39061,37.474216 C 52.008016,37.043483 45.994703,35.1935 47.765012,37.474216 M 47.764313,37.474216 C 51.760779,36.398609 45.034556,35.255076 47.120807,37.474216 M 47.120808,37.474216 C 50.714133,37.04604 44.734343,35.175645 46.477472,37.474216 M 46.47747,37.474216 C 50.06268,36.895769 44.077189,35.254919 45.834139,37.512108 M 45.834141,37.513672 C 49.362257,37.122134 43.518739,35.275552 45.208373,37.512108 M 45.20768,37.513672 C 49.334625,36.429892 42.690464,35.397049 44.564344,37.553506 M 44.564342,37.551945 C 48.649842,36.496534 42.07587,35.445124 43.921003,37.590226 M 43.921009,37.591778 C 47.623899,37.137933 41.593149,35.34535 43.277677,37.629681 M 43.276981,37.631233 C 47.205416,36.633125 40.986701,35.509164 42.633647,37.707409 M 42.633648,37.708961 C 46.685759,36.715429 40.379376,35.556786 42.007875,37.787079 M 42.007874,37.787079 C 45.96235,36.808468 39.745137,35.639378 41.364547,37.864807 M 41.363846,37.864807 C 45.33582,36.773193 39.100532,35.861263 40.720512,37.980818 M 40.720512,37.98238 C 44.666049,36.919783 38.485972,35.97035 40.077007,38.09799 M 40.077007,38.099564 C 44.192676,37.106794 37.94731,35.975471 39.451412,38.215564 M 39.450718,38.217125 C 43.447319,37.054562 37.211787,36.226424 38.807383,38.37141 M 38.807384,38.372971 C 42.818007,37.217173 36.581305,36.360491 38.163872,38.528427 M 38.163872,38.528427 C 42.14659,37.367331 35.932621,36.537206 37.520545,38.683882 M 37.520546,38.685455 C 41.648337,37.52889 35.258488,36.729273 36.89495,38.879184 M 36.894257,38.880745 C 40.904106,37.558456 34.595874,36.941586 36.250744,39.076036 M 36.250744,39.076035 C 40.210355,37.719271 33.916645,37.184872 35.60741,39.269775 M 35.60741,39.271336 C 39.498636,37.780974 33.286002,37.37026 34.964075,39.506474 M 34.964073,39.50491 C 39.334094,39.048663 33.367499,37.198001 34.320742,39.738495 M 34.320045,39.740047 C 38.23506,38.171063 31.958572,37.852173 33.694281,39.974803 M 33.694283,39.974804 C 37.462281,38.428485 31.358929,38.09282 33.050947,40.208377 M 33.050945,40.208378 C 36.823163,38.662509 30.714547,38.324046 32.407614,40.44156 M 32.40691,40.443123 C 36.398631,39.026666 30.085259,38.537815 31.763584,40.676696 M 31.763584,40.676697 C 35.851658,39.320504 29.48953,38.714774 31.137812,40.908717 M 31.137812,40.911831 C 35.173431,39.648756 28.885779,38.940217 30.494478,41.107133 M 30.493784,41.107132 C 34.548122,39.99263 28.426088,39.083723 29.850449,41.340316 M 29.850449,41.341877 C 33.817085,40.226495 27.676179,39.383277 29.206945,41.53718 M 29.206945,41.537182 C 32.10111,40.550371 27.17687,40.045808 28.581349,41.730908 M 28.580654,41.732471 C 31.423369,40.969869 27.10583,40.327485 27.937321,41.926209 M 27.937321,41.927773 C 30.866394,41.24281 26.344304,40.350032 27.293816,42.083617 M 27.293816,42.083618 C 29.702596,41.577114 25.943423,40.749779 26.650482,42.199227 M 26.650482,42.20079 C 28.78703,41.755643 25.624563,41.117688 26.007142,42.318363 M 26.007141,42.318363 C 27.382585,41.809881 24.582147,41.542974 25.381376,42.39609 M 25.380688,42.396091 C 26.923307,42.780614 25.356195,41.507395 24.799809,42.120301 L 24.737347,42.434372 M 24.737347,42.434372 C 25.848093,42.28314 24.252899,42.228844 24.094013,42.4328 M 24.094013,42.434372 C 24.793734,42.559759 22.877256,42.933984 23.450679,42.39609 M 23.449984,42.396091 C 26.026024,41.03376 21.956833,44.211081 22.824219,42.356647 M 22.824219,42.356647 C 24.964513,42.588032 21.421227,43.602146 22.180884,42.278908 M 22.180883,42.278908 C 24.846755,43.039972 20.188027,43.676801 21.537552,42.121498 M 21.536856,42.123074 C 24.67236,43.270228 18.672408,43.293437 20.893522,41.966044 M 20.893522,41.966045 C 25.395083,42.918106 18.78972,44.136766 20.267756,41.770753 M 20.267756,41.770752 C 24.349254,43.184888 17.954935,43.684098 19.624422,41.535607 M 19.62372,41.537182 C 24.121917,42.698988 17.41466,43.635915 18.980393,41.302424 M 18.980392,41.302425 C 23.257598,41.612184 17.237925,43.446071 18.336889,41.029015 M 18.336889,41.029015 C 22.77036,41.861099 16.244477,43.105221 17.693548,40.71653 M 17.693548,40.71653 C 22.010894,41.428114 15.704518,42.751048 17.067959,40.403667 M 17.067259,40.403667 C 21.402132,41.109635 15.082701,42.460146 16.423754,40.090805 M 16.423754,40.090805 C 20.795723,41.324861 14.109493,42.033486 15.78042,39.776379 M 15.78042,39.779503 C 20.28113,40.841026 13.534244,41.804624 15.137086,39.466637 M 15.137086,39.466637 C 19.715632,40.319569 12.99003,41.626831 14.51132,39.193611 M 14.510625,39.193611 C 19.022219,40.295614 12.239596,41.200182 13.867284,38.920582 M 13.867284,38.919029 C 18.462593,39.4099 11.879915,41.202993 13.223957,38.685455 M 13.223957,38.685455 C 17.756093,39.183311 11.438318,40.967582 12.580623,38.452263 M 12.579921,38.450699 C 17.229273,38.483548 10.873882,40.933597 11.954155,38.294853 M 11.954155,38.294853 C 16.573213,39.196483 9.7285886,40.564011 11.310822,38.177681 M 11.310822,38.177681 C 15.933987,37.420615 10.068131,40.930076 10.667495,38.139397 M 10.666793,38.137836 C 14.351124,39.300146 7.7816531,40.60849 10.023459,38.137836 M 10.023459,38.137836 C 14.494322,37.016875 8.914451,40.978515 9.3799546,38.177681 M 9.3799543,38.177681 C 13.379393,39.215453 6.5034614,40.89494 8.7543591,38.296417 M 74.478752,33.177689 C 78.560991,32.776624 71.79978,36.901521 73.835411,33.841309 M 73.835411,33.841309 C 77.897881,33.470205 71.14462,37.654086 73.209648,34.543201 M 73.208954,34.544765 C 77.29711,34.348161 70.390977,38.216941 72.565628,35.208385 M 72.565628,35.208385 C 76.565432,34.946597 69.832849,38.883144 71.922287,35.872005 M 71.922287,35.873566 C 76.303583,35.756555 68.946151,39.362181 71.278954,36.459457 M 71.278259,36.459457 C 75.838302,36.13686 68.40958,40.00967 70.652497,37.045341 M 70.652496,37.045341 C 75.881898,36.957371 67.258082,40.528683 70.009156,37.553506 M 70.009155,37.551945 C 74.315274,36.72895 67.847336,41.131897 69.365821,37.98238 M 69.365128,37.98238 C 71.991488,37.402817 68.372453,40.534567 68.721786,38.374144 M 68.721786,38.372971 C 70.545162,38.289096 67.876382,39.99681 68.078281,38.646 M 68.078278,38.646 C 69.294853,38.556481 67.196338,39.81969 67.452686,38.880746 M 67.451996,38.880745 C 68.016632,38.672447 66.175696,38.580923 66.808657,38.996757 M 66.808655,38.99831 C 68.114311,38.621833 64.707373,38.364815 66.165154,39.07761 M 66.165154,39.076035 C 68.330549,38.811016 64.678397,37.591147 65.521819,39.038154 M 65.52182,39.036591 C 70.379876,40.269086 63.539537,36.24108 64.896224,38.919029 M 64.895531,38.919029 C 68.796396,39.488532 62.518846,36.308039 64.252025,38.763574 M 64.252022,38.763573 C 67.912039,39.594152 62.615578,35.995862 63.608691,38.52999 M 63.608692,38.528427 C 69.359028,38.511648 60.908872,35.572694 62.965351,38.255409 M 62.965351,38.255409 C 66.865228,40.119269 62.897804,35.254567 62.339584,37.904262 M 62.338898,37.904263 C 68.781884,39.187515 60.48338,34.180479 61.695562,37.553506 M 61.69556,37.551945 C 66.642402,38.529029 60.02575,34.372073 61.052221,37.161352 M 61.052219,37.16135 C 64.97978,37.820857 58.632456,33.89963 60.408888,36.732477 M 60.408199,36.732475 C 63.445262,37.45469 58.475864,33.582436 59.764858,36.341886 M 59.764858,36.341885 C 62.122995,36.86188 58.801051,33.927138 59.139093,35.911839 M 59.139091,35.911839 C 60.926343,36.165629 58.361576,34.107568 58.495759,35.521248 M 58.495064,35.521248 C 59.680407,35.623539 57.847981,34.137114 57.85173,35.092384 M 57.85173,35.092384 C 57.919846,34.518746 57.231473,35.257006 57.208225,34.741628 M 57.208225,34.740055 C 57.62018,35.37526 55.813299,34.499204 56.58263,34.387356 M 56.581936,34.38892 C 59.217472,35.362661 54.662257,35.503446 55.938601,34.076445 M 55.938602,34.076447 C 58.48075,35.449051 53.645093,35.085955 55.295097,33.762008 M 55.295097,33.76358 C 59.34978,35.309225 52.892538,35.643092 54.651763,33.528434 M 54.651764,33.530006 C 58.265676,35.298596 52.052676,35.254976 54.026169,33.296425 M 54.025467,33.295254 C 58.568121,33.110557 52.442922,35.778004 53.381962,33.137844 M 53.381962,33.139404 C 57.992591,33.006925 51.749519,35.643514 52.738628,32.983952 M 52.738628,32.982388 C 57.34113,32.810768 51.183131,35.531528 52.095295,32.863262 M 52.095295,32.864815 C 56.635145,32.958112 50.556947,35.402857 51.451962,32.787086 M 51.451263,32.787086 C 56.484966,35.17933 47.119972,34.4284 50.8255,32.747253 M 50.8255,32.748814 C 55.862933,35.451777 45.727259,34.690057 50.182159,32.747253 M 50.182159,32.748814 C 54.319871,35.259112 45.56435,34.103591 49.53883,32.748814 M 49.538136,32.748814 C 54.032094,35.259127 44.600755,34.760715 48.894794,32.788658 M 48.894794,32.787086 C 54.110073,35.201162 44.014094,34.977727 48.269032,32.824978 M 48.269032,32.826542 C 52.993485,35.206502 43.256324,35.096145 47.625702,32.904659 M 47.625,32.904659 C 51.971338,35.161981 42.899583,35.119501 46.981667,32.980824 M 46.981667,32.982388 C 50.730103,35.008281 42.755365,34.937208 46.338161,33.060116 M 46.338161,33.060116 C 50.161999,34.97454 42.188779,35.231838 45.712566,33.176125 M 45.711872,33.177689 C 49.58179,35.149023 41.41348,35.333452 45.068539,33.293697 M 45.068539,33.295254 C 48.556444,35.219263 41.031862,35.366431 44.425034,33.372978 M 44.425034,33.372978 C 47.890787,35.024379 40.630821,35.550815 43.7817,33.488991 M 43.7817,33.490551 C 47.627529,35.468562 39.480059,35.62476 43.138359,33.607735 M 43.138359,33.607735 C 46.918255,35.531658 39.001039,35.750851 42.512592,33.723736 M 42.511906,33.7253 C 46.359386,35.709057 38.205215,35.855121 41.868565,33.841309 M 41.868565,33.841309 C 46.100328,35.986823 37.222359,36.294094 41.225231,33.958874 M 41.225231,33.958874 C 44.850203,35.736533 37.226385,36.224067 40.581898,34.114326 M 40.581203,34.115891 C 44.420633,36.075957 36.318378,36.257071 39.955437,34.235023 M 39.955437,34.231899 C 43.792816,36.179862 35.68556,36.378747 39.312103,34.351025 M 39.312103,34.349464 C 43.962854,36.47728 34.509045,37.211602 38.66877,34.504917 M 38.668076,34.506481 C 43.091841,36.717291 33.926438,36.906605 38.024738,34.663509 M 38.024738,34.662327 C 42.071188,36.729842 33.616955,36.682095 37.398968,34.817783 M 37.398968,34.817783 C 41.462146,36.680735 33.279263,36.772991 36.755634,35.014656 M 36.754936,35.013084 C 41.665967,37.056624 31.980678,37.502783 36.111603,35.208385 M 36.111603,35.208385 C 41.3275,36.905325 31.447371,38.303216 35.468102,35.441959 M 35.468102,35.44352 C 39.825343,37.138051 31.359141,37.627905 34.824768,35.678265 M 34.824768,35.678265 C 39.280338,36.915565 30.918922,38.179462 34.199177,35.992691 M 34.198475,35.989578 C 38.711515,37.229553 30.283503,38.503312 33.55497,36.302429 M 33.55497,36.302429 C 37.57014,37.135349 30.378329,39.394601 32.911636,36.615307 M 32.911636,36.615307 C 37.485953,37.463158 29.176683,39.513624 32.268295,37.005898 M 32.268295,37.005898 C 36.864128,37.588682 28.713561,40.099837 31.64253,37.435944 M 31.641844,37.435944 C 35.519288,37.674297 29.093445,40.939833 30.998502,37.867932 M 30.998503,37.864807 C 35.10665,37.621281 28.452856,41.577174 30.355168,38.372972 M 30.355167,38.372971 C 35.094868,36.376749 29.300686,42.050966 29.711835,38.880746 M 29.71114,38.880745 C 32.74641,38.048614 27.788205,42.457007 29.067806,39.428746 M 29.067806,39.427185 C 31.092609,38.831076 28.450212,41.77692 28.44204,40.013076 M 28.442039,40.013077 C 30.097913,39.650908 27.927961,42.026735 27.798705,40.638413 M 27.798012,40.638412 C 28.903197,40.448062 27.35517,42.126594 27.154677,41.262589 M 27.154676,41.262589 C 28.207469,39.267857 27.068652,43.2576 26.511171,41.927773 M 26.511171,41.927773 C 26.718563,42.507687 25.772975,42.04239 25.885577,42.591391 M 25.884876,42.591393 C 26.145976,41.92364 24.891183,43.039465 25.241548,43.215556 M 25.241549,43.215557 C 25.905284,42.401733 24.167071,43.51713 24.598037,43.879176 M 24.598038,43.880737 C 26.279268,42.668234 22.916817,43.978206 23.954704,44.506466 M 23.954704,44.504906 C 25.582933,43.691694 22.980399,44.081934 23.066695,44.86129 L 23.329115,45.089233 M 23.328413,45.090797 C 25.018503,44.719382 21.117646,44.917908 22.68491,45.676689 M 22.68491,45.676689 C 24.822167,46.037809 20.446205,44.679922 22.041574,46.183292 M 22.041574,46.184853 C 23.989987,45.183682 20.395435,45.998204 21.398241,46.653172 M 21.398241,46.653172 C 22.280594,45.957178 20.315052,46.582504 20.754907,47.042201 M 20.754206,47.043762 C 20.576004,47.130807 20.40887,47.565701 20.128439,47.39452 M 20.128439,47.396084 L 19.485106,47.669102 M 19.485106,47.669102 C 20.488781,47.282866 18.560351,48.712295 18.841778,47.823395 M 18.841078,47.824947 C 20.499101,46.850973 18.702475,48.985463 18.129686,48.374163 L 18.197742,47.94252 M 18.197742,47.94252 C 20.355365,47.65816 17.283117,49.395919 17.571977,47.980403 M 17.571978,47.981976 C 19.836928,48.951974 14.950247,49.110293 16.92865,47.902676 M 16.927948,47.902676 C 21.129731,48.202858 15.220914,50.161187 16.284614,47.785112 M 16.284615,47.786674 C 18.736696,48.957075 13.885292,48.838137 15.64111,47.550367 M 15.64111,47.551929 C 19.747328,48.689057 13.503245,49.493119 15.015514,47.276947 M 15.014819,47.278511 C 18.693108,49.132646 12.504321,48.86928 14.371485,46.966036 M 14.371485,46.966038 C 18.497185,48.367647 12.312785,48.830896 13.727981,46.575445 M 13.727981,46.575443 C 17.152185,48.661872 11.242378,48.028646 13.084641,46.184853 M 13.084641,46.184853 C 17.008491,48.099158 10.892956,47.8582 12.441307,45.714581 M 12.441307,45.716133 C 16.555169,47.200038 10.115071,47.402163 11.815541,45.287649 M 11.814853,45.286098 C 15.871955,46.823728 9.4347991,46.924583 11.171512,44.85566 M 76.896072,40.79427 C 82.760642,40.081214 73.636293,45.513531 76.270311,41.224305 M 76.270309,41.224304 C 79.779237,40.670919 73.722034,44.545949 75.626977,41.53718 M 75.626282,41.537182 C 77.838099,41.588117 74.338509,43.379501 74.982941,41.734032 M 74.982941,41.732471 C 76.380159,42.054947 73.784032,42.744812 74.339437,41.772306 M 74.339439,41.770752 C 75.226642,42.264204 73.912571,41.574616 73.713848,41.73247 M 73.713158,41.732471 C 75.769285,43.027068 72.655546,39.793483 73.069817,41.538731 M 73.069817,41.537182 C 74.559074,41.841576 72.088553,40.06688 72.426308,41.262589 M 72.426308,41.262589 C 74.487789,41.340013 70.271985,39.194427 71.782981,40.871997 M 71.782982,40.871998 C 74.461413,42.083417 70.315571,37.64464 71.157379,40.363832 M 71.156685,40.365395 C 73.750467,41.819236 70.100842,37.189129 70.513173,39.819348 M 70.513176,39.817776 C 73.159088,41.102658 69.250822,36.524176 69.869853,39.231882 M 69.86985,39.23188 C 72.364586,40.525914 68.834821,35.97838 69.226512,38.568273 M 69.226509,38.568272 C 71.772939,39.153815 67.26289,35.402637 68.583179,37.904262 M 68.582481,37.904263 C 70.292724,38.42965 68.092346,35.827024 67.956717,37.280477 M 67.956718,37.278927 C 69.323746,37.547127 67.582189,35.533972 67.313376,36.616467 M 67.313377,36.615307 C 68.427414,37.022048 66.899998,36.014636 66.670049,36.02785 M 66.669357,36.029411 C 67.121148,36.677524 65.235202,35.587035 66.026014,35.521248 M 66.026016,35.521248 C 68.500583,36.7947 64.114481,36.285097 65.400241,35.052929 M 65.400238,35.052929 C 67.721655,36.544239 62.929048,35.8059 64.756914,34.701782 M 64.756218,34.701782 C 69.141087,34.684324 63.143614,36.944491 64.112885,34.427191 M 64.112885,34.427193 C 68.662085,34.228659 62.566918,36.916101 63.469379,34.270172 M 63.469379,34.271736 C 69.638659,35.112045 60.801056,37.673922 62.843784,34.231899 M 62.84309,34.231899 C 68.2017,36.399715 58.0266,36.725235 62.199749,34.309628 M 62.199749,34.311192 C 66.260248,36.109637 57.968884,36.501366 61.556252,34.506481 M 61.556252,34.506481 C 65.756742,35.882715 57.526653,37.180916 60.912918,34.77951 M 60.912918,34.77951 C 65.048037,35.671793 57.292824,37.778516 60.269577,35.168537 M 60.269577,35.170113 C 65.456943,35.932396 56.269228,39.226144 59.64381,35.638821 M 59.643116,35.638821 C 64.083919,36.259046 56.238008,39.624659 58.999783,36.224705 M 58.999783,36.224705 C 63.033888,36.462348 55.936514,40.010523 58.356441,36.848488 M 58.356449,36.850052 C 62.305927,37.014249 55.464402,40.722423 57.713116,37.551945 M 57.712421,37.551945 C 61.640428,37.600486 54.928287,41.543383 57.086655,38.293289 M 57.086655,38.294853 C 60.935326,38.277026 54.369328,42.328913 56.443314,39.076035 M 56.443314,39.076035 C 60.277348,39.062673 53.700656,43.092192 55.799988,39.855667 M 55.799294,39.857231 C 60.266515,40.295692 52.52151,44.516952 55.155952,40.63686 M 55.155952,40.638412 C 59.102663,40.582272 52.383728,44.793805 54.512455,41.457878 M 54.512455,41.457878 C 58.285797,41.428987 51.813969,45.183336 53.88686,42.20079 M 53.886154,42.20079 C 58.42714,42.28485 50.724765,46.609395 53.242821,42.981983 M 53.242821,42.981983 C 57.212431,42.956572 50.325014,46.716757 52.599319,43.685448 M 52.599319,43.685448 C 56.428836,43.650302 49.771462,47.29904 51.955986,44.35062 M 51.955986,44.349056 C 55.835944,44.341816 49.147447,47.950835 51.330387,45.01424 M 51.329693,45.013069 C 55.409194,45.021036 48.373096,48.451902 50.686192,45.598949 M 50.686192,45.598949 C 54.779127,45.971112 47.4999,48.737056 50.042854,46.106735 M 50.042854,46.106735 C 53.960573,46.15995 47.505312,49.801302 49.399515,46.616452 M 49.399513,46.614899 C 54.771309,46.007685 46.868388,49.857624 48.773749,47.043764 M 48.77306,47.043762 C 52.508208,46.404295 46.557906,50.11027 48.129727,47.396083 M 48.129726,47.396084 C 52.024998,45.611871 46.59766,50.670643 47.486386,47.710509 M 47.486385,47.707382 C 49.671568,47.576588 46.362692,49.671817 46.84306,47.981975 M 46.842358,47.981976 C 48.751211,47.918072 45.906865,49.622706 46.199024,48.217111 M 46.199024,48.215549 C 47.8276,48.191483 45.288813,49.539393 45.573251,48.372567 M 45.573257,48.372566 C 47.036521,48.48106 44.358935,49.541295 44.929924,48.488577 M 44.92923,48.488579 C 47.252749,47.216567 44.933954,50.087788 44.285896,48.566303 M 44.285896,48.56786 C 46.182904,48.868333 43.065181,49.794366 43.64239,48.566305 M 43.642391,48.56786 C 46.33599,48.527197 41.976568,50.409622 43.016795,48.566305 M 43.016094,48.56786 C 47.218124,48.890831 41.288546,50.821264 42.372759,48.450294 M 42.372761,48.450294 C 46.701068,49.380962 40.292433,50.626809 41.729262,48.333112 M 41.729263,48.333111 C 45.502141,49.90386 39.194419,50.218683 41.085921,48.137821 M 41.085922,48.137821 C 45.430871,48.599333 39.253037,50.286796 40.460333,47.862839 M 40.459633,47.864403 C 44.897264,48.184873 38.644518,50.078442 39.816128,47.591373 M 39.816128,47.591373 C 44.069407,48.329649 37.818094,49.543495 39.172794,47.239063 M 39.172794,47.239063 C 43.312135,48.888808 36.681688,48.924313 38.529461,46.848473 M 38.529461,46.848473 C 42.483469,48.546561 36.036024,48.337576 37.886124,46.378593 M 37.885422,46.380142 C 41.833096,48.388704 35.248425,47.819442 37.259663,45.90987 M 37.259663,45.911434 C 39.876586,48.588169 34.274753,46.691577 36.616322,45.40366 M 36.616322,45.40366 C 39.112904,48.135028 33.606696,46.039898 35.972988,44.857224 M 35.972294,44.857224 C 37.997967,47.193758 33.129218,45.398739 35.32896,44.309605 M 35.32896,44.309612 C 37.637298,47.139312 32.491017,44.91702 34.703194,43.723721 M 34.703194,43.723721 C 37.381033,46.546864 31.621559,44.497359 34.05986,43.177284 M 34.059166,43.177284 C 36.535692,45.810809 31.074279,43.889831 33.415833,42.670681 M 33.415833,42.669498 C 35.96207,45.351594 30.492173,43.46045 32.77232,42.161346 M 32.77232,42.161346 C 35.527214,44.841982 29.766246,43.111166 32.146732,41.693027 M 32.14603,41.693027 C 34.860865,44.064145 29.019776,42.650443 31.502703,41.303604 M 31.502703,41.302425 C 34.267134,43.6876 28.496269,42.444527 30.859192,40.949726 M 30.8592,40.951286 C 33.949263,42.969408 27.78233,42.567045 30.215858,40.717712 M 30.215858,40.71653 C 33.506925,42.696898 27.252285,42.543208 29.572525,40.560684 M 29.572525,40.560684 C 32.980388,42.342676 26.616457,42.587848 28.946758,40.484531 M 28.946064,40.481407 C 32.698685,41.681739 25.92716,43.096395 28.302731,40.560684 M 28.302731,40.560684 C 32.110563,41.494319 25.298737,43.308128 27.659395,40.71653 M 27.659395,40.71653 C 31.567871,41.289381 24.752203,43.76059 27.016062,40.989571 M 27.01536,40.989571 C 30.990849,41.366912 24.177983,44.31766 26.389601,41.381725 M 26.389601,41.38015 C 31.029607,41.496096 23.085145,44.784471 25.74626,41.889488 M 25.74626,41.888317 C 31.038784,41.320759 22.593552,45.721623 25.102933,42.474209 M 25.102232,42.474209 C 29.874609,41.085576 22.787422,46.906044 24.458897,43.177284 M 24.458897,43.177284 C 27.005854,41.974647 23.567444,46.576259 23.833132,43.920574 M 23.833132,43.919022 C 26.09321,42.49339 23.486165,47.149523 23.189798,44.739649 M 23.189102,44.739651 C 25.038063,43.952922 23.018766,47.187502 22.545769,45.63528 M 22.545769,45.638405 C 24.454958,43.608205 22.955956,47.927454 21.902265,46.497327 M 21.902266,46.497326 C 23.515824,45.651996 21.822881,48.552513 21.258931,47.396083 M 21.25893,47.396084 C 22.789599,46.434118 21.126599,49.581999 20.633336,48.293276 M 20.632641,48.293278 C 21.949598,47.806698 20.498571,49.907058 19.989136,49.112743 M 19.989136,49.114304 C 21.606327,47.443962 20.007071,51.376555 19.345797,49.93338 M 19.345797,49.934944 C 20.775312,47.546084 19.499283,52.402209 18.702461,50.638397 M 18.702461,50.636837 C 20.552641,48.920066 18.732242,52.877607 18.076696,51.261001 M 18.076008,51.262573 C 20.236267,50.18249 16.603332,54.235285 17.432667,51.770348 M 17.432667,51.770348 C 19.433647,51.8366 15.254793,53.836782 16.789333,52.199212 M 16.789333,52.199211 C 18.920402,52.505969 14.319489,53.87797 16.145999,52.470678 M 16.145304,52.473804 C 19.241445,52.438603 13.319182,54.461582 15.519538,52.669094 M 15.519538,52.669094 C 19.922511,51.678017 14.557961,55.4469 14.876205,52.707377 M 14.876205,52.707378 C 19.436067,53.057519 13.01935,55.102424 14.232871,52.628076 M 14.232169,52.62965 C 18.506882,53.661915 12.078295,54.733422 13.588842,52.473804 M 79.330971,44.857224 C 80.665456,45.535908 78.025818,45.373921 78.687464,44.622477 M 78.687462,44.622478 C 79.940272,45.248231 78.034952,44.635996 78.044136,44.233058 M 78.044136,44.231876 C 78.840098,44.923345 77.738066,43.347408 77.400796,43.725284 M 77.400795,43.723721 C 78.325938,45.167244 76.531442,41.305344 76.775024,43.099556 M 76.77433,43.099556 C 77.529794,42.777228 76.036622,41.260264 76.131004,42.396091 M 76.131004,42.396091 C 77.761933,44.091752 76.084001,40.724274 75.487663,41.654743 M 75.487663,41.653179 C 76.746717,41.954176 75.226983,39.943979 74.844334,40.873559 M 74.843636,40.871998 C 76.778287,42.563809 74.901886,39.473459 74.217873,40.090804 M 74.217873,40.090805 C 75.194675,40.54627 72.782441,37.901291 73.574532,39.311183 M 73.574532,39.30962 C 74.531628,40.287384 73.303332,38.498097 72.931198,38.646 M 72.930511,38.646 C 73.40642,39.344032 71.769423,38.269164 72.287169,38.061671 M 72.28717,38.060108 C 74.529225,39.12111 70.905609,38.712878 71.643661,37.591778 M 71.643661,37.591778 C 74.248918,38.701635 69.601291,38.67002 71.018069,37.277352 M 71.01738,37.278927 C 74.996632,38.443193 68.796158,39.304527 70.37404,37.121506 M 70.374039,37.123077 C 74.838821,36.188506 69.249592,39.864856 69.73053,37.123077 M 69.73053,37.123077 C 75.391016,38.038287 65.770845,40.180171 69.087204,37.358204 M 69.087204,37.356651 C 74.619441,37.836152 65.288728,41.064111 68.461609,37.745682 M 68.460907,37.747246 C 72.866048,37.780046 65.232359,41.368067 67.817398,38.333138 M 67.817398,38.333138 C 72.304452,38.342474 64.786411,42.769556 67.174072,39.114319 M 67.174072,39.114319 C 71.929901,38.790291 64.218397,44.260352 66.530731,40.050968 M 66.530731,40.052532 C 71.25706,39.226575 64.13618,45.669417 65.904961,41.145016 M 65.904274,41.146576 C 70.645936,40.320343 63.542096,46.965773 65.260941,42.318363 M 65.260941,42.318363 C 69.907484,40.960117 63.314438,48.385653 64.617599,43.606148 M 64.617599,43.606148 C 69.070968,42.063801 62.961165,49.646373 63.97427,44.973225 M 63.973576,44.973225 C 68.505741,43.40085 62.228242,51.128621 63.330242,46.340309 M 63.330242,46.340309 C 67.863541,45.332164 61.232478,52.36986 62.704468,47.667549 M 62.704468,47.669102 C 66.902472,46.060478 61.179397,53.328722 62.061142,48.996742 M 62.060448,48.996742 C 66.641679,48.323725 59.641568,54.866492 61.417107,50.246246 M 61.417107,50.246246 C 65.348071,49.032534 59.335087,55.121028 60.773609,51.340302 M 60.773609,51.340302 C 64.472637,50.35342 58.734473,55.752643 60.148014,52.356232 M 60.14732,52.356232 C 63.769028,51.546326 58.215086,56.654747 59.503978,53.216714 M 59.503979,53.215542 C 61.52695,52.708292 58.889219,55.692179 58.860473,53.880725 M 58.860474,53.879162 C 58.677299,54.094064 57.397546,53.916529 58.21714,54.385754 M 58.21714,54.387325 C 63.948053,56.61363 57.918829,49.702286 57.591544,54.701352 M 57.590851,54.699799 C 62.02024,55.398905 56.359695,52.126684 56.947346,54.817364 M 56.947346,54.817364 C 62.082783,52.310643 51.909406,52.676806 56.304012,54.779079 M 56.304012,54.77792 C 59.803719,53.748887 52.960189,52.246026 55.660671,54.582619 M 55.660671,54.582619 C 59.644071,53.764171 52.273576,51.301164 55.017342,54.229919 M 55.016647,54.231468 C 55.882551,52.602115 55.830225,45.985831 54.914752,50.737891 C 54.781689,51.76642 54.617962,52.791857 54.390882,53.804158 M 54.390881,53.801434 C 57.279961,52.669424 52.764009,48.454423 53.850414,52.798332 C 53.81838,52.951023 53.779745,53.102331 53.74754,53.254986 M 53.74754,53.254986 C 53.884937,51.666393 54.430162,45.358046 53.494154,49.942157 C 53.413466,50.857643 53.299946,51.771967 53.104207,52.670657 M 53.103512,52.669094 C 52.869796,47.844992 54.982775,43.189785 54.370882,38.355889 C 52.257414,42.638394 53.846945,47.600043 52.460178,52.04493 M 52.460178,52.043758 C 52.096175,45.954305 55.093871,39.932773 53.409302,33.878409 C 52.567218,39.69493 52.733014,45.60791 51.834413,51.418029 M 51.834412,51.41803 C 52.070309,42.648359 54.322799,33.986483 53.647225,25.184477 C 52.169876,33.661918 52.191516,42.302618 51.191079,50.8337 M 51.190384,50.832138 C 51.545048,41.147831 53.64455,31.543712 53.005867,21.824619 C 51.715839,31.280163 51.50544,40.837776 50.54705,50.325534 M 50.54705,50.325535 C 50.895366,40.671132 52.730483,31.101175 52.462891,21.419604 C 50.657432,30.809604 51.074821,40.435276 49.903546,49.89666 M 49.903545,49.895496 C 50.252097,39.849784 52.085385,29.885953 51.831407,19.814422 C 50.104612,29.649033 50.4338,39.689144 49.27795,49.584187 M 49.277256,49.582626 C 50.082973,38.450701 50.888691,27.318775 51.694408,16.18685 C 49.14303,27.088354 50.166054,38.399588 48.633915,49.426779 M 48.633915,49.426781 C 49.178372,38.344747 50.638106,27.31344 50.702033,16.207472 C 48.906843,27.183079 49.266375,38.360907 47.990417,49.388896 M 47.990417,49.387325 C 48.550251,38.202276 49.959107,27.064782 50.076806,15.857271 C 48.289353,26.990035 48.635455,38.320714 47.347076,49.503334 M 47.347076,49.504906 C 47.927795,38.34037 49.271248,27.219702 49.457541,16.034345 C 47.745879,27.207917 47.935396,38.557241 46.703743,49.777926 M 46.703743,49.777927 C 47.298633,38.761514 48.616486,27.788076 48.840716,16.751329 C 47.134375,27.828657 47.295652,39.08074 46.077977,50.206399 M 46.077282,50.207973 C 46.642596,39.630337 47.957857,29.098001 48.159998,18.50033 C 46.492247,29.165202 46.593532,40.000188 45.433948,50.716126 M 45.433949,50.716125 C 46.010126,40.546592 47.278806,30.421134 47.525366,20.232307 C 45.908865,30.544376 45.929337,41.018482 44.790607,51.379746 M 44.790615,51.379745 C 45.406858,41.556779 46.600356,31.773196 46.931785,21.932015 C 45.43389,31.93695 45.270424,42.077177 44.147281,52.121485 M 44.146584,52.121487 C 44.80007,42.895159 45.878378,33.701745 46.364099,24.463072 C 44.782594,33.883885 44.601097,43.461624 43.520819,52.939388 M 43.520821,52.942123 C 44.176825,44.377677 45.222759,35.845663 45.724752,27.268999 C 44.209687,36.046131 43.973189,44.974711 42.877479,53.802606 M 42.87748,53.801434 C 42.839939,49.319435 44.361874,44.930218 43.875048,40.435898 C 43.000522,45.136023 43.007293,49.945018 42.234151,54.658782 M 42.233452,54.660343 C 43.151478,51.67378 40.619473,54.522448 41.590116,55.479421 M 41.590115,55.480984 C 42.905511,53.048449 39.429712,55.549058 40.964352,56.262177 M 40.964352,56.262177 C 43.073982,53.329655 38.548514,55.727843 40.321014,56.964069 M 40.32032,56.96563 C 43.688326,54.307547 37.981168,55.483175 39.676987,57.51207 M 39.676987,57.51207 C 42.058472,55.421978 37.09476,56.699242 39.033482,57.980389 M 39.033482,57.980389 C 42.670942,56.336731 36.678125,56.277876 38.39015,58.253416 M 38.390148,58.253414 C 40.422891,57.582217 37.247829,57.078176 37.764553,58.329581 M 37.763859,58.332706 C 39.015928,58.077817 37.302516,57.919689 37.120348,58.254979 M 37.12035,58.253414 C 37.353859,58.269576 35.545595,57.88068 36.477013,57.980389 M 36.477013,57.980389 C 38.582825,59.729238 33.995021,58.460361 35.83368,57.549962 M 35.833679,57.551525 C 37.722543,59.518338 33.444551,57.732027 35.207914,56.965631 M 35.207218,56.96563 C 38.41919,58.940126 34.11303,58.843753 34.355875,56.531104 L 34.563885,56.182877 M 34.563885,56.184448 C 36.215931,58.705967 32.163714,55.953891 33.920551,55.28569 M 33.920551,55.28569 C 37.330747,58.260449 31.143147,55.63323 33.277218,54.309196 M 33.276524,54.309196 C 35.417841,56.797304 31.490739,55.065677 32.349438,53.399205 L 32.63319,53.215542 M 32.63319,53.215542 C 33.176387,55.489952 30.698149,52.36642 32.007416,52.083202 M 32.007416,52.083202 C 32.862766,54.640567 29.570728,51.097099 31.364088,50.951263 M 31.363386,50.949699 C 31.861885,53.124006 29.256422,50.001125 30.720053,49.857216 M 30.720053,49.855652 C 31.393244,52.058067 28.616231,49.019368 30.076548,48.801441 M 30.076548,48.801441 C 32.361257,51.036504 28.328645,49.675489 29.158824,48.015542 L 29.450953,47.824947 M 29.450258,47.824947 C 32.819016,50.622709 26.775381,48.492602 28.806925,47.005489 M 28.806925,47.005489 C 30.293965,49.196217 26.51828,46.9564 28.16342,46.302026 M 28.16342,46.302025 C 31.002591,48.760326 25.511078,47.158675 27.520087,45.755979 M 27.520086,45.754417 C 31.420044,47.37663 25.239033,47.485875 26.894491,45.40366 M 26.893797,45.40366 C 30.357888,46.880578 24.257776,47.324124 26.250292,45.247814 M 26.250292,45.247814 C 30.030279,46.264249 23.72877,47.629283 25.606951,45.247814 M 25.606951,45.247814 C 29.741881,45.399204 23.003113,48.406117 24.963617,45.48295 M 24.963617,45.481388 C 30.700519,44.990914 21.8442,49.758471 24.32029,45.873552 M 24.319588,45.87199 C 29.905771,44.055076 22.760608,49.917238 23.693822,46.419599 M 23.693823,46.419598 C 28.583832,44.929458 21.48572,50.713158 23.050488,47.121492 M 23.050488,47.12149 C 27.446009,44.869296 21.758875,51.530682 22.407155,47.940958 M 22.40646,47.94252 C 27.109958,45.120384 21.298032,52.995734 21.763126,48.880731 M 21.763126,48.879169 C 25.55611,44.019408 22.930743,53.081444 21.13736,49.854091 M 21.13736,49.855652 C 25.623051,47.0909 20.157483,55.121634 20.494026,50.871972 M 20.493324,50.871983 C 24.487159,46.42308 21.16968,55.490315 19.849997,51.886349 M 19.849997,51.887913 C 23.889451,47.95456 20.104072,56.873215 19.206493,52.902668 M 19.206493,52.902668 C 23.672812,49.568079 18.693117,57.931189 18.580897,53.839316 M 18.580194,53.840878 C 23.195337,50.016336 18.443787,58.594881 17.936862,54.660345 M 17.936863,54.660343 C 22.952249,51.492272 17.14333,59.422244 17.293357,55.401692 M 17.293358,55.403255 C 22.793921,51.798627 16.776727,59.979721 16.650024,56.027421 M 16.650024,56.02742 C 22.103861,53.421916 16.692311,59.890384 16.00669,56.49575 M 81.748825,47.434364 C 83.288308,48.633087 80.826323,48.10776 80.889797,47.130714 L 81.105492,46.850025 M 81.10479,46.848473 C 82.887782,47.673872 78.928524,46.701652 80.461456,46.146568 M 80.461456,46.145008 C 80.76874,47.061238 79.512211,45.511113 79.835687,45.323979 M 79.835686,45.325542 C 80.140361,46.320985 78.993944,44.750872 79.19236,44.506467 M 79.191666,44.504906 C 79.477083,45.417991 78.308962,43.90076 78.548324,43.645993 M 78.548325,43.645992 C 78.898384,44.615501 77.56451,43.037603 77.90482,42.826527 M 77.904823,42.824966 C 79.355135,44.323949 76.441853,42.506393 77.279228,42.083618 M 77.278534,42.083618 C 78.713606,43.166705 76.867097,42.731005 76.548621,42.045462 L 76.429256,41.725484 L 76.635193,41.459454 M 76.635193,41.457878 C 78.560817,42.661868 75.111829,41.77698 75.991684,40.951286 M 75.991684,40.951286 C 78.090222,41.317304 75.924393,42.276724 75.420224,41.120171 L 75.348357,40.600531 M 75.348358,40.598969 C 79.86797,41.253213 73.388529,42.89882 74.722762,40.482957 M 74.722061,40.481407 C 79.301714,40.002234 73.485896,43.187739 74.078556,40.559133 M 74.078552,40.560684 C 80.390191,39.565529 71.378141,44.815945 73.435226,40.871998 M 73.435226,40.871998 C 78.889081,40.183159 70.533015,44.510332 72.791885,41.418045 M 72.791885,41.419605 C 77.314463,40.369604 70.244851,45.795144 72.148555,42.200789 M 72.147865,42.20079 C 76.670144,40.668193 70.074723,47.298663 71.5221,43.175721 M 71.522102,43.177284 C 76.719097,41.916113 69.237417,49.481077 70.878759,44.388904 M 70.878761,44.387329 C 76.18504,42.761238 68.812313,51.705954 70.235425,45.754416 M 70.234734,45.754417 C 75.541675,44.004809 68.366053,53.333856 69.591396,47.237502 M 69.591393,47.239063 C 74.75186,45.317882 68.117807,54.739766 68.96563,48.801441 M 68.96563,48.801441 C 74.255993,46.910004 67.377871,56.464776 68.322296,50.401699 M 68.321602,50.403263 C 73.742732,48.637656 66.4739,58.273439 67.678261,51.965637 M 67.678261,51.965637 C 72.984965,50.215996 65.810016,59.544441 67.034757,53.448725 M 67.03476,53.450287 C 72.336365,51.769053 65.008685,60.822544 66.409162,54.817363 M 66.408478,54.817364 C 72.046831,53.326838 63.669081,61.886113 65.765133,55.949693 M 65.765137,55.949692 C 70.242095,54.428699 63.741237,60.865949 65.121628,56.886342 M 65.121628,56.886341 C 69.978199,56.291171 62.153974,60.806203 64.478294,57.510506 M 64.478294,57.51207 C 69.40806,56.287281 62.695275,61.006862 63.834954,57.785097 M 63.834953,57.785095 C 66.178284,58.805899 61.438011,58.955307 63.209188,57.667524 M 63.2085,57.667522 C 65.863897,58.962216 61.851751,58.426771 62.565166,57.200768 M 62.565166,57.199203 C 63.383232,58.404228 61.798562,56.610658 61.921825,56.302011 M 61.921825,56.300449 C 62.51365,58.145699 62.005307,54.392149 61.278499,55.012664 M 61.277802,55.012665 C 62.55267,55.421349 61.459917,52.662235 60.652038,53.294822 M 60.652039,53.29327 C 61.935135,56.024012 61.407088,50.267355 60.008697,51.224291 M 60.008698,51.222729 C 61.662735,53.840625 60.813015,47.865194 59.365368,48.840885 M 59.36467,48.840885 C 61.39259,51.337852 60.240374,45.23384 58.721333,46.106735 M 58.721333,46.106735 C 60.79656,48.565493 59.538098,42.087657 58.07783,43.178836 M 58.077831,43.177284 C 60.383935,45.211523 58.96145,39.197458 57.452234,40.052531 M 57.451538,40.052532 C 59.875034,42.019304 58.198032,36.100597 56.808205,36.811767 M 56.808205,36.810596 C 59.231943,38.776728 57.554512,32.858709 56.164701,33.569843 M 56.1647,33.568279 C 58.589167,35.531933 56.907607,29.621016 55.521368,30.325964 M 55.521366,30.325964 C 57.746351,32.663336 56.379862,26.243657 54.895772,27.241047 M 54.895069,27.241047 C 57.065831,30.115162 55.769765,23.345173 54.251566,24.35105 M 54.251572,24.351049 C 56.160721,26.499587 55.052562,20.523285 53.608238,21.734463 M 53.608238,21.732901 C 55.410118,23.277063 54.158471,18.201174 52.964898,19.468621 M 52.964897,19.46862 C 54.407151,20.817343 53.31521,16.596196 52.339132,17.594943 M 52.338436,17.59338 C 53.154796,17.325656 52.409567,15.812344 51.695103,16.188413 M 51.695103,16.18685 C 52.499166,17.462368 51.081607,15.48864 51.051762,15.249821 M 51.051769,15.249821 C 53.886032,16.677024 49.661809,16.0595 50.408436,14.819775 M 50.407742,14.819775 C 54.06893,14.647905 48.327296,17.345268 49.764407,14.935785 M 49.764408,14.937348 C 54.327513,14.200571 47.127019,18.833223 49.138634,15.600958 M 49.138634,15.600958 C 54.767678,14.138194 46.436273,22.804631 48.495306,16.772742 M 48.494606,16.772741 C 53.909787,14.908654 46.85323,24.707016 47.851273,18.411283 M 47.851273,18.412846 C 52.235455,16.048465 47.812446,25.763602 47.207766,20.52127 M 47.207767,20.522833 C 51.468797,18.015439 47.857169,28.089752 46.582176,23.022247 M 46.581478,23.022247 C 50.613956,20.606188 47.522529,30.642974 45.938141,25.87241 M 45.938141,25.873972 C 49.981235,23.490143 47.267198,33.621878 45.29464,28.998724 M 45.29464,28.998724 C 49.300687,26.737747 46.834666,36.858371 44.651302,32.358223 M 44.651302,32.358223 C 48.659736,30.059408 46.329361,40.231214 44.025707,35.794277 M 44.025013,35.794277 C 48.042087,33.535459 45.714101,43.677001 43.381512,39.269775 M 43.381512,39.271336 C 47.390262,37.024802 45.068613,47.14551 42.738174,42.747238 M 42.738174,42.747238 C 46.727409,40.510438 44.267208,50.592945 42.094837,46.105171 M 42.094837,46.106735 C 46.116511,43.734579 43.493192,53.877335 41.451508,49.309605 M 41.450806,49.309605 C 45.47291,46.858019 42.530676,56.978104 40.825039,52.239059 M 40.825039,52.239059 C 44.933182,49.813992 41.467623,59.845234 40.181705,54.893528 M 40.181705,54.895088 C 44.390131,52.586606 40.283348,62.334929 39.538373,57.199205 M 39.537678,57.199203 C 44.700013,55.010215 38.762694,65.180001 38.894344,59.112335 M 38.894344,59.113899 C 44.323131,57.340484 37.034758,67.031296 38.268578,60.676266 M 38.268578,60.676266 C 43.044091,59.173329 36.277614,66.517711 37.625244,61.808606 M 37.624542,61.808605 C 42.181118,61.007352 34.991147,65.843596 36.981216,62.510109 M 36.981216,62.511669 C 43.252299,61.641422 34.170073,66.736317 36.337704,62.822971 M 36.337704,62.824535 C 40.678322,62.939213 34.681099,65.258849 35.712108,62.786262 M 35.711414,62.785091 C 38.335481,63.613932 34.708762,64.057272 35.06808,62.394489 M 35.068081,62.394489 C 35.996469,63.012496 32.597632,61.840279 34.424576,61.732052 M 34.424576,61.730488 C 35.230002,62.93532 33.679411,61.084394 33.781241,60.79384 M 33.781242,60.792278 C 34.546781,61.463146 33.290785,59.749819 33.137908,59.699792 M 33.137909,59.699791 C 34.227237,61.37717 32.8473,58.473217 32.512135,58.45027 M 32.511448,58.448715 C 33.381863,60.207112 32.358174,56.80587 31.868113,57.081642 M 31.868113,57.081642 C 32.293561,56.687821 31.951377,55.202274 31.224772,55.754392 M 31.224771,55.754391 C 31.860867,56.874842 31.022172,53.675357 30.581439,54.387327 M 30.580744,54.387325 C 31.671873,55.776191 30.277837,53.225413 29.954977,53.137424 M 29.954977,53.137424 C 30.742345,53.316114 28.850826,51.888733 29.311643,52.044929 M 29.311644,52.043758 C 29.096904,51.718457 28.88248,51.392948 28.668308,51.067272 M 28.667616,51.067272 C 30.216479,52.468235 27.062576,50.712384 28.024281,50.325535 M 28.024281,50.325535 C 29.996849,51.754222 26.651045,50.601286 27.398516,49.779488 M 27.398516,49.777927 C 29.557539,49.952702 27.444724,51.141545 26.850446,49.99418 L 26.755181,49.466624 M 26.754478,49.46505 C 31.068742,50.162886 24.749963,51.724004 26.111152,49.387324 M 26.111153,49.387325 C 29.721573,49.21643 23.973361,51.939469 25.467648,49.542779 M 25.467648,49.544353 C 31.395652,49.065131 22.386692,53.80401 24.824308,49.895496 M 24.824308,49.895496 C 29.980072,49.33958 21.720914,53.715838 24.198717,50.48138 M 24.198017,50.48138 C 28.623966,49.633505 21.648509,54.591527 23.554514,51.222729 M 23.554514,51.222729 C 27.975354,50.113955 21.133383,55.842472 22.911179,52.080074 M 22.911179,52.083202 C 27.46954,50.510688 20.983299,57.329413 22.267845,53.099531 M 22.267845,53.097969 C 26.773517,51.446835 20.419658,58.428607 21.642079,54.15219 M 21.641384,54.152191 C 26.33167,52.653021 19.686035,59.68588 20.99805,55.204839 M 20.998051,55.207954 C 25.563321,53.59686 19.226448,60.653593 20.354716,56.302011 M 20.354715,56.300449 C 24.959686,54.699801 18.505855,61.593226 19.711382,57.315206 M 19.71068,57.316769 C 24.100166,55.73167 17.780894,62.163258 19.084915,58.253416 M 19.084915,58.253414 C 23.498604,57.045194 16.736928,62.841448 18.441581,59.112337 M 84.16597,51.222729 C 86.045638,53.078308 82.149599,51.49671 83.522649,50.598563 M 83.522652,50.598564 C 85.086117,52.602145 81.401281,50.565183 82.897046,49.895498 M 82.896355,49.895496 C 84.175363,51.993477 80.74978,49.647464 82.25284,49.115477 M 82.252838,49.114304 C 83.228158,51.195365 80.08925,48.575803 81.609512,48.255005 M 81.609512,48.255005 C 83.881912,50.312476 79.002373,48.456874 80.966171,47.435921 M 80.966171,47.434364 C 82.005401,49.499916 78.832487,46.979397 80.340408,46.614899 M 80.339714,46.614899 C 81.493466,48.719128 78.146258,46.284869 79.696381,45.833706 M 79.696381,45.833706 C 81.650841,47.893916 77.500368,46.14654 79.053043,45.209542 M 79.05304,45.20837 C 81.564796,47.318882 76.584769,45.930898 78.409714,44.700207 M 78.409019,44.700207 C 81.926143,46.824237 75.830962,46.182392 77.783256,44.349058 M 77.783257,44.349056 C 81.520641,45.702741 75.238901,46.293333 77.139915,44.231875 M 77.139915,44.231876 C 81.254449,45.011301 74.554781,46.79881 76.496581,44.309613 M 76.495895,44.309612 C 82.345443,44.198672 72.998326,48.265659 75.852554,44.62365 M 75.852554,44.622478 C 81.925399,42.943301 73.857601,48.428529 75.209041,45.170087 M 75.209038,45.168526 C 79.641315,43.93752 72.863566,49.580708 74.583452,45.949717 M 74.582756,45.949718 C 78.708378,43.892869 73.127512,50.962514 73.939417,46.964474 M 73.939415,46.966038 C 77.645511,44.335175 73.320102,52.052577 73.295912,48.137821 M 73.295914,48.137821 C 75.939976,45.235376 73.739425,52.535056 72.652585,49.504897 M 72.652588,49.504906 C 74.923834,46.841232 73.052761,53.714239 72.02699,50.987592 M 72.026291,50.989155 C 73.936529,49.709125 72.385171,54.051717 71.382784,52.549969 M 71.382782,52.551533 C 73.169841,51.183591 71.740739,55.587974 70.739456,54.153743 M 70.739456,54.152191 C 72.374282,53.039119 70.966393,57.018628 70.096117,55.712994 M 70.096115,55.714558 C 71.68566,54.722612 70.296168,58.456193 69.470343,57.197642 M 69.46965,57.199203 C 70.957895,56.478217 69.52183,59.73912 68.826321,58.566281 M 68.826324,58.56628 C 70.228237,58.210192 68.755812,60.868904 68.18298,59.738065 M 68.182983,59.738064 C 69.636429,58.063119 68.162726,61.980652 67.539658,60.63525 M 67.538956,60.636822 C 68.662578,58.779186 67.476777,63.109722 66.895615,61.262157 M 66.895615,61.262157 C 66.904768,58.94515 67.776378,62.68306 66.269852,61.533625 M 66.269852,61.535187 C 67.745136,62.128128 64.262107,61.318396 65.626518,61.457458 M 65.625832,61.457458 C 68.007206,61.268973 64.059103,62.863289 64.918526,61.110928 L 64.982491,60.949295 M 64.982491,60.949295 C 66.195842,62.578138 63.243304,60.482112 64.338982,60.05093 M 64.338982,60.05093 C 64.860064,62.246893 62.841658,59.037422 63.71339,58.761581 M 63.712696,58.761581 C 62.765243,59.282075 62.219693,57.425631 63.069361,57.080069 M 63.069363,57.081642 C 62.659174,58.668567 61.412334,54.959021 62.425858,55.011101 M 62.425858,55.012665 C 61.596204,55.999692 61.536926,52.884611 61.78252,52.589806 M 61.78252,52.589806 C 61.707265,54.771729 60.779496,50.111983 61.156927,49.895488 M 61.156223,49.895496 C 60.800999,52.128323 60.226556,46.874564 60.512721,46.926201 M 60.51273,46.926201 C 60.492595,49.591197 59.686115,44.040839 59.869392,43.803013 M 59.869392,43.801449 C 59.7281,45.922654 61.272456,51.648068 60.279636,51.371533 C 59.836198,47.776935 59.795709,44.141037 59.226053,40.560685 M 59.226051,40.560684 C 58.959397,44.047197 60.987846,50.475691 59.961302,52.268637 C 59.073446,47.327739 59.590513,42.24373 58.58272,37.31837 M 58.582024,37.318371 C 59.13935,45.914361 60.49209,54.452169 60.65096,63.074659 C 58.817441,53.523965 59.234248,43.731054 57.956258,34.115889 M 57.956257,34.115891 C 58.537007,43.728856 59.871147,53.291553 60.061748,62.928436 C 58.333447,52.363579 58.554911,41.608163 57.312924,30.99271 M 57.312923,30.991137 C 57.891228,41.412728 59.233994,51.787439 59.415552,62.231354 C 57.670089,50.931738 57.923646,39.449156 56.669591,28.101531 M 56.668896,28.099968 C 57.245181,39.254875 58.593685,50.365454 58.774126,61.54117 C 57.051369,49.605153 57.27701,37.500753 56.025561,25.521262 M 56.025562,25.522825 C 56.596026,37.328367 57.984345,49.089597 58.138063,60.915689 C 56.384058,48.421147 56.671813,35.757922 55.399789,23.220663 M 55.399788,23.217539 C 56.205513,36.015607 57.011224,48.813675 57.816949,61.611743 C 55.445503,48.314786 56.274132,34.72393 54.756462,21.342298 M 54.755768,21.342299 C 55.561485,34.622488 56.367202,47.902678 57.17292,61.182868 C 54.780355,47.560154 55.645778,33.644799 54.112426,19.938513 M 54.112427,19.936951 C 54.918151,33.581302 55.723861,47.225654 56.529586,60.870005 C 54.151583,47.035356 55.001757,32.915768 53.468922,19.000301 M 53.468922,18.998739 C 54.280555,32.903488 55.092187,46.808238 55.90382,60.712987 C 53.46862,46.805295 54.405021,32.599791 52.843333,18.608147 M 52.842632,18.608147 C 53.648349,32.630336 54.454074,46.652525 55.259785,60.674714 C 52.79999,46.82146 53.780231,32.662634 52.199298,18.724148 M 52.199299,18.72571 C 53.005022,32.747899 53.810733,46.770088 54.616457,60.792277 C 52.131577,47.113102 53.151827,33.11793 51.555793,19.351058 M 51.555794,19.351057 C 52.361487,33.255808 53.167372,47.160547 53.973116,61.065295 C 51.455298,47.692241 52.535763,33.986762 50.912459,20.522832 M 50.91246,20.522833 C 51.718144,34.167193 52.524038,47.811541 53.329783,61.455897 C 50.821565,48.515568 51.893673,35.234181 50.269119,22.201219 M 50.269119,22.202782 C 51.080751,35.469824 51.892391,48.736865 52.704017,62.003907 C 50.132134,49.585219 51.29497,36.793516 49.643353,24.273323 M 49.642666,24.271761 C 50.448437,37.069825 51.254216,49.86789 52.059988,62.665954 C 49.465984,50.882829 50.671608,38.699735 48.999331,26.809058 M 48.999332,26.810619 C 49.533597,38.704754 51.030515,50.549774 51.058059,62.466984 C 49.175326,51.626884 49.703671,40.556651 48.35599,29.660782 M 48.355991,29.662344 C 49.161714,41.18486 49.967425,52.707377 50.773149,64.229893 C 48.39455,53.914202 49.062158,43.231184 47.712664,32.787087 M 47.71196,32.787086 C 48.523593,43.554329 49.335226,54.321572 50.14686,65.088814 C 47.685037,55.620182 48.482144,45.722647 47.086196,36.10714 M 47.086197,36.10714 C 47.594969,45.760746 49.146131,55.350779 49.107914,65.033724 C 47.134785,56.67274 47.834337,47.983331 46.442861,39.543194 M 46.44286,39.544758 C 46.95212,48.328564 48.49161,57.043493 48.458168,65.859265 C 46.395046,58.42641 47.233447,50.590524 45.799527,43.060101 M 45.798832,43.060101 C 45.293521,48.065979 48.047555,52.948696 46.751886,57.936182 C 45.248039,54.307171 46.310372,50.238141 45.155499,46.535599 M 45.155499,46.535599 C 44.913445,51.615667 47.577868,56.663013 45.952842,61.698887 C 45.308293,57.784512 45.367581,53.780284 44.529726,49.893926 M 44.529732,49.895496 C 44.520793,54.895141 46.911845,59.819694 45.60823,64.818685 C 44.934039,60.913272 44.639602,56.950941 43.886399,53.058123 M 43.885704,53.059696 C 46.845625,52.409418 44.257288,60.442146 43.242371,55.989147 M 43.242371,55.989147 C 47.189304,54.249332 43.478192,63.723664 42.598866,58.644009 M 42.598866,58.644009 C 46.750336,56.917683 42.385124,66.189487 41.955524,60.947731 M 41.955524,60.949295 C 46.106844,59.716136 40.846894,68.216207 41.329937,62.903824 M 41.329235,62.902264 C 45.283603,61.517981 39.951238,68.786155 40.685731,64.426757 M 40.68573,64.425194 C 44.600694,63.185464 38.723981,69.518651 40.042396,65.557133 M 40.042397,65.558693 C 42.206588,64.893771 39.458897,68.224517 39.399063,66.262151 M 39.399063,66.260597 C 40.399873,66.149071 38.963676,67.112737 38.77329,66.611345 M 38.772602,66.612907 C 40.028816,65.670082 36.414711,66.01393 38.129269,66.575012 M 38.129269,66.573456 C 41.120275,67.067939 35.483114,63.910906 37.485927,66.182861 M 37.485928,66.182861 C 42.743284,69.058479 36.275006,61.394428 36.842594,65.480968 M 36.8419,65.479408 C 42.026612,67.423645 34.901269,59.769796 36.198565,64.582212 M 36.198566,64.582214 C 40.510138,66.767349 35.083688,59.170093 35.572799,63.450263 M 35.5728,63.448711 C 40.137573,65.338055 33.924006,57.398889 34.929464,62.199198 M 34.928768,62.1992 C 39.198944,64.374753 33.773406,56.348409 34.285436,60.871567 M 34.285435,60.871567 C 38.317957,63.449173 33.607192,55.200333 33.641932,59.504491 M 33.641933,59.50449 C 37.147636,62.296829 33.412169,54.338532 33.016336,58.178814 M 33.01564,58.17569 C 34.984454,59.656067 33.270455,54.882604 32.372307,56.927348 M 32.372307,56.926186 C 34.238855,58.030339 32.568069,54.540305 31.728803,55.793847 M 31.728804,55.793846 C 33.118313,56.904428 31.726188,54.437479 31.085463,54.857208 M 31.085463,54.855644 C 31.407223,54.339549 30.225201,54.577476 30.459874,54.074463 M 30.459171,54.074463 C 32.220772,55.216663 28.904109,54.468481 29.815668,53.526451 M 29.815668,53.528015 C 33.655038,54.946066 27.620089,55.272643 29.172334,53.215542 M 29.172335,53.215542 C 33.14434,54.341148 26.746012,55.305691 28.529,53.135851 M 28.528999,53.137424 C 33.790575,53.339544 25.458565,56.302782 27.885666,53.29327 M 27.884972,53.29327 C 33.381471,53.711452 24.033988,57.33156 27.259205,53.682297 M 27.259205,53.683861 C 31.779484,53.695571 24.122342,57.132148 26.615871,54.229919 M 26.615871,54.231468 C 30.716399,53.73098 23.992038,58.150381 25.972538,54.97438 M 25.971834,54.973209 C 30.059491,54.106329 23.571888,59.364668 25.328508,55.87001 M 25.328508,55.871574 C 30.125064,54.619371 23.045578,61.297352 24.702736,56.846497 M 24.702736,56.848068 C 29.329668,56.338558 22.203224,62.306484 24.059408,57.90266 M 24.058706,57.90266 C 29.135507,57.206467 21.372945,63.784785 23.415373,58.994766 M 23.415373,58.996326 C 27.52357,57.66375 21.407756,63.902676 22.77187,60.05093 M 22.77187,60.05093 C 26.649526,58.933218 20.685911,64.631293 22.146273,61.065296 M 22.145578,61.066868 C 26.080428,60.039597 19.961846,65.549494 21.502245,62.04179 M 21.502245,62.04335 C 25.568477,61.471272 18.948424,66.204967 20.85874,62.86438 M 86.600868,56.144993 C 90.696711,57.392454 84.336227,58.078055 85.957539,55.909847 M 85.957542,55.909847 C 88.449218,57.430688 83.522689,56.733799 85.314198,55.519266 M 85.314201,55.519264 C 87.533981,57.37541 83.016954,56.07724 84.670865,55.011101 M 84.670174,55.012665 C 86.979692,57.255982 82.312264,55.489065 84.026835,54.387327 M 84.026833,54.387325 C 85.615984,56.500733 81.751068,54.328917 83.40107,53.683861 M 83.40107,53.683861 C 87.071519,56.577481 81.2479,54.863073 82.757736,52.942123 M 82.757042,52.942123 C 85.756231,54.9827 81.547121,54.735352 81.902515,52.501452 L 82.113701,52.162502 M 82.113701,52.160931 C 83.415255,54.434951 79.725057,51.853125 81.470196,51.379746 M 81.4702,51.379745 C 83.412772,52.889405 82.31273,54.404291 80.878348,52.059776 C 80.600298,51.636568 80.520571,51.018339 80.844607,50.598563 M 80.84391,50.598564 C 84.853325,53.419739 78.655659,52.325243 80.200572,49.936506 M 80.200569,49.934944 C 84.123832,52.233754 77.996868,51.537608 79.557067,49.349051 M 79.557068,49.349052 C 83.287853,51.410301 76.947248,50.708856 78.913742,48.882294 M 78.913742,48.879169 C 83.015201,50.579038 76.487681,50.675262 78.288139,48.566303 M 78.287445,48.56786 C 82.911749,48.539135 76.587678,51.05779 77.643936,48.412403 M 77.643936,48.410851 C 81.545588,49.780055 74.715903,50.733799 77.00061,48.410851 M 77.00061,48.410851 C 81.225833,49.329053 73.796281,51.399557 76.357269,48.645596 M 76.357269,48.645596 C 81.873324,49.362036 72.434936,51.62072 75.713936,49.036186 M 75.713242,49.036186 C 80.335494,48.765482 72.622422,52.724967 75.087477,49.623631 M 75.087479,49.622082 C 79.187978,48.710487 72.646154,53.789621 74.444136,50.403263 M 74.444138,50.403263 C 77.649826,48.997884 73.234801,54.716977 73.800808,51.341864 M 73.800117,51.340302 C 76.392957,49.294525 73.632816,55.245465 73.156773,52.396075 M 73.156776,52.394512 C 75.123028,51.291902 73.457763,54.942119 72.531007,53.604571 M 72.531006,53.606133 C 74.122413,52.801609 72.655793,55.74535 71.887672,54.895088 M 71.886986,54.895088 C 72.480891,55.09347 71.72864,56.943313 71.243644,56.222721 M 71.243645,56.222721 C 72.140173,56.292755 70.321728,57.191808 70.600133,57.588234 M 70.600136,57.589794 C 70.000529,57.828078 70.356595,58.567149 69.974545,58.956883 M 69.973846,58.956882 C 70.560214,57.279791 69.183663,60.066867 69.330516,60.284112 M 69.330513,60.285675 C 69.610311,58.589231 67.922886,61.19284 68.687004,61.495731 M 68.687004,61.495731 C 69.619533,59.2607 66.897785,62.393918 68.043678,62.627682 M 68.043678,62.629246 C 68.743505,60.513219 66.068972,63.356545 67.400337,63.644001 M 67.400337,63.644001 C 68.48435,61.53688 65.254783,64.141978 66.774567,64.502922 M 66.773872,64.502922 C 68.536391,62.338014 64.513214,64.343316 66.130542,65.166542 M 66.130539,65.168098 C 69.154281,62.885548 63.492461,64.229842 65.487201,65.674707 M 65.487198,65.674706 C 69.421404,63.956628 63.058266,63.905418 64.843875,65.987561 M 64.843178,65.987564 C 68.369425,64.609704 62.292553,63.877255 64.217415,66.105133 M 64.217415,66.105133 C 67.930564,65.431731 61.722684,63.555309 63.574073,66.065299 M 63.574074,66.0653 C 67.760178,65.77986 61.222982,63.018272 62.930745,65.869997 M 62.93005,65.869995 C 66.767141,66.380184 60.538043,62.743635 62.28671,65.517678 M 62.286709,65.519249 C 64.819369,66.010715 61.237221,62.959267 61.643213,65.088814 M 61.643211,65.088814 C 63.415952,65.62387 61.207855,63.143338 61.017617,64.541195 M 61.016922,64.542755 C 62.347669,64.853864 60.654318,62.991638 60.373581,63.958047 M 60.373581,63.956863 C 61.584964,64.318036 59.831582,63.552219 59.730077,63.331137 M 59.730076,63.331139 C 61.098413,64.338792 58.042947,63.134919 59.086742,62.70541 M 59.086742,62.70697 C 60.687435,63.656996 57.383348,63.035816 58.461155,62.119518 M 58.460453,62.121078 C 60.811357,63.937547 56.245531,62.774191 57.816949,61.614478 M 57.816948,61.613304 C 61.20438,63.613016 55.311133,62.879795 57.173614,61.181306 M 57.173615,61.182869 C 60.997212,63.017537 54.668508,62.938582 56.530275,60.870005 M 56.530273,60.871567 C 61.064044,60.551437 55.108812,63.385003 55.904507,60.71455 M 55.90382,60.71455 C 60.438534,59.914008 54.721876,63.437881 55.260487,60.674713 M 55.260487,60.676266 C 59.876878,60.013582 53.899644,63.56453 54.617146,60.792278 M 54.617146,60.792278 C 60.351545,62.227162 50.360492,63.221168 53.97382,61.065296 M 53.973118,61.066868 C 58.684789,61.648139 50.354787,64.214694 53.329783,61.45746 M 53.329784,61.457458 C 57.803458,61.346306 50.354847,64.857258 52.704018,62.00507 M 52.704018,62.003906 C 56.974607,61.546116 49.955063,65.782081 52.060684,62.669079 M 52.059986,62.667519 C 56.200749,62.014792 49.473538,66.636545 51.416654,63.408865 M 51.416653,63.410427 C 55.604791,62.307773 49.098482,67.771791 50.773149,64.231456 M 50.773148,64.229897 C 54.041257,62.611831 49.643864,68.447925 50.147554,65.090367 M 50.146858,65.088814 C 52.163227,64.180533 49.960184,67.682276 49.503525,65.949287 M 49.503525,65.94928 C 50.808301,65.78573 49.276622,67.755379 48.860021,66.768753 M 48.86002,66.768753 C 50.043925,66.177711 48.425522,67.467851 48.216687,67.549936 M 48.216686,67.549934 C 48.620046,66.761362 46.764355,68.275311 47.591092,68.253402 M 47.590389,68.253403 C 49.704635,66.636823 45.490001,67.826968 46.946886,68.801011 M 46.946884,68.799446 C 50.270846,66.846809 44.450914,67.571348 46.303552,69.229886 M 46.303551,69.229889 C 50.658362,68.821876 44.471132,67.067297 45.660219,69.504478 M 45.660217,69.502907 C 50.163914,70.201376 44.448868,66.886983 45.016884,69.620476 M 45.01619,69.620476 C 49.328967,70.688051 44.056647,66.814826 44.390423,69.542358 M 44.390423,69.542358 C 49.865393,68.298819 40.056776,66.273083 43.747082,69.269333 M 43.747082,69.269333 C 48.443638,68.555957 39.987278,66.214327 43.103756,68.840469 M 43.103054,68.839294 C 47.355526,68.788786 40.034279,65.360085 42.459721,68.254578 M 42.459721,68.253403 C 46.381928,68.633751 39.877386,64.310551 41.833954,67.472206 M 41.833954,67.472206 C 45.855645,68.244102 39.394118,63.12452 41.19062,66.573456 M 41.189926,66.573456 C 44.977863,67.580111 39.08401,62.103466 40.546593,65.558693 M 40.546593,65.558693 C 44.668501,66.829545 38.471524,60.635351 39.903087,64.504485 M 39.903088,64.502922 C 43.818928,66.053401 38.239384,59.51652 39.277491,63.370983 M 39.276798,63.370983 C 43.274362,64.901217 37.4507,58.23988 38.633463,62.240216 M 38.633465,62.238644 C 42.255054,63.778244 37.157798,57.420167 37.989951,61.143033 M 37.989952,61.144596 C 40.194932,62.206229 37.766288,57.924929 37.346624,60.090384 M 37.346622,60.090385 C 38.847141,60.470964 37.231614,57.996571 36.703284,59.115463 M 36.703285,59.113899 C 37.911449,59.489172 36.249264,58.435379 36.077518,58.293263 M 36.076824,58.293262 C 35.746803,58.991637 34.427091,57.427632 35.433491,57.589794 M 35.433491,57.589794 C 37.531053,59.407888 33.308773,58.06189 34.790155,57.041796 M 34.790154,57.043358 C 38.370154,58.998961 32.244993,58.518643 34.146822,56.691041 M 34.146126,56.69104 C 38.551337,56.206262 32.833139,59.17769 33.520359,56.535583 M 33.520359,56.535583 C 36.989599,56.5945 35.20031,59.116208 32.774701,58.005838 C 32.126605,57.70665 32.510483,56.876867 32.877026,56.534023 M 32.877026,56.535583 C 38.198392,57.770751 28.434961,59.924535 32.233692,56.77034 M 32.23299,56.77034 C 36.693615,57.645162 28.488544,59.681463 31.589663,57.15937 M 31.589663,57.160923 C 35.903487,57.705898 28.261616,60.847178 30.96389,57.707371 M 30.96389,57.707371 C 34.991068,57.508303 28.156406,61.440199 30.320557,58.408871 M 30.319862,58.410435 C 34.319325,57.989746 27.668051,62.485802 29.676529,59.231464 M 29.676529,59.2299 C 34.607633,58.880073 26.823839,64.441761 29.033024,60.16655 M 29.033024,60.168114 C 33.040883,59.244378 26.691227,64.776489 28.38969,61.143032 M 28.38969,61.144596 C 33.029755,60.163306 26.034474,66.442979 27.764101,62.159363 M 27.763399,62.159363 C 32.549708,61.626925 25.07767,67.637536 27.119896,63.174118 M 27.119896,63.175682 C 30.871827,62.169152 25.027852,67.62396 26.476561,64.19162 M 26.476561,64.19162 C 30.355103,63.509956 24.095426,68.419833 25.833221,65.088814 M 25.833221,65.088814 C 29.688532,64.235989 23.558737,69.257073 25.207455,65.947723 M 25.206766,65.94928 C 29.305514,65.441845 22.578057,69.875402 24.563425,66.691025 M 24.563425,66.691025 C 28.888093,66.351677 21.739719,70.360729 23.920092,67.31636 M 23.920092,67.31636 C 29.482046,66.644146 20.997972,71.839471 23.276758,67.784692 M 89.018196,59.620491 C 90.597939,59.364769 88.278417,61.357424 88.374856,60.050929 M 88.374855,60.05093 C 90.265482,59.387966 87.789547,61.674414 87.731351,60.323957 M 87.731354,60.323956 C 89.647411,59.908292 86.750081,61.935192 87.088025,60.519258 M 87.088028,60.519257 C 89.776543,60.164825 85.725958,62.500177 86.462429,60.596986 M 86.461723,60.596985 C 88.916894,61.255689 84.319659,61.996471 85.818222,60.517685 M 85.818222,60.519257 C 88.165853,61.439727 83.499321,61.638992 85.174895,60.36184 M 85.174896,60.363403 C 89.215104,61.336727 83.212463,62.264976 84.531555,60.050929 M 84.531555,60.05093 C 86.899159,61.54858 82.136142,60.829505 83.905789,59.658775 M 83.90509,59.660336 C 88.073543,61.349249 82.003773,61.554677 83.261767,59.191628 M 83.261765,59.191628 C 86.358169,61.67184 80.685483,60.221106 82.618426,58.644008 M 82.618423,58.644009 C 84.413723,60.847471 80.080748,58.73447 81.975093,58.018281 M 81.974396,58.019844 C 86.024506,60.585605 79.868226,59.681583 81.348632,57.394506 M 81.348633,57.394505 C 85.208057,60.134761 79.053221,58.931237 80.705292,56.729324 M 80.705292,56.730885 C 84.586283,59.279273 78.40803,58.198275 80.061966,56.068439 M 80.061272,56.066875 C 83.709457,58.481296 77.584392,57.259658 79.417931,55.443089 M 79.417931,55.44154 C 83.145756,57.929614 77.103755,56.931989 78.774422,54.855644 M 78.774422,54.855644 C 82.442388,57.287184 76.456132,56.358713 78.148827,54.309196 M 78.14814,54.309196 C 82.006693,56.224001 75.546038,55.771821 77.504799,53.880726 M 77.504799,53.879162 C 81.590595,55.608453 75.053081,55.642389 76.86129,53.528015 M 76.86129,53.528015 C 80.438961,55.346128 74.338047,55.263186 76.217972,53.254986 M 76.217972,53.254986 C 79.51233,55.230243 73.328532,55.145055 75.592369,53.099529 M 75.591667,53.097969 C 79.318239,54.856204 72.348493,55.100672 74.948158,53.058132 M 74.948158,53.059696 C 78.770427,54.176881 71.854325,55.651141 74.304832,53.138977 M 74.304832,53.137424 C 78.137989,54.083251 71.269643,55.911787 73.661491,53.294823 M 73.661491,53.29327 C 78.196328,54.53979 69.777624,55.857845 73.035728,53.606133 M 73.035034,53.606133 C 77.739848,54.37864 69.309355,56.512398 72.391701,53.996735 M 72.391701,53.996735 C 76.618634,54.559195 68.951531,57.193561 71.74836,54.466618 M 71.74836,54.465042 C 75.909564,54.661938 68.643869,57.766325 71.105026,55.012665 M 71.10434,55.012665 C 75.31851,54.681397 68.32053,58.741278 70.460999,55.677845 M 70.460999,55.676273 C 74.740449,55.127034 67.698461,59.721155 69.835235,56.379739 M 69.835236,56.379738 C 74.44935,55.305719 67.302196,60.687325 69.191901,57.122649 M 69.191208,57.121475 C 72.220907,56.109302 67.557522,61.102161 68.547865,57.864388 M 68.547867,57.862823 C 70.823644,56.75235 68.168199,60.872176 67.904361,58.683854 M 67.904358,58.683853 C 69.627199,58.017974 67.643419,60.899749 67.278766,59.465037 M 67.278076,59.465038 C 68.382,59.401804 67.022553,61.039634 66.634737,60.247402 M 66.634735,60.246231 C 67.813057,59.532216 66.256277,61.00671 65.991232,61.027413 M 65.991234,61.027412 C 66.172955,60.495194 64.97913,61.662927 65.347898,61.770323 M 65.3479,61.768761 C 65.740821,60.9769 63.882942,62.564794 64.722303,62.510109 M 64.721611,62.511669 C 66.661694,60.82014 63.114659,62.23216 64.078094,63.176853 M 64.078094,63.175682 C 65.704242,61.3654 61.957146,63.108046 63.434769,63.799458 M 63.434769,63.801018 C 65.431729,61.892283 61.295276,63.424325 62.791429,64.385349 M 62.791428,64.386909 C 65.004348,62.611127 60.665396,63.846729 62.148103,64.933359 M 62.147408,64.933357 C 66.321518,63.084441 60.203165,62.996539 61.521641,65.401678 M 61.521641,65.40168 C 65.425115,63.693975 59.328487,63.742312 60.8783,65.831715 M 60.8783,65.831718 C 65.051873,64.704213 58.664792,64.032563 60.234974,66.220741 M 60.23428,66.222313 C 64.485097,64.927705 57.895983,64.319167 59.590939,66.533615 M 59.590939,66.535172 C 63.877646,65.987656 57.710358,64.430233 58.965172,66.806648 M 58.965172,66.808205 C 63.405717,66.640587 57.20787,64.520678 58.321838,67.043343 M 58.321144,67.041779 C 62.867034,67.054296 56.65334,64.584381 57.677811,67.196068 M 57.677811,67.198799 C 62.184546,67.357841 56.085054,64.690868 57.034306,67.314812 M 57.034306,67.31636 C 61.392743,68.051476 55.841519,64.717232 56.40871,67.394089 M 56.408016,67.394089 C 60.895397,68.228469 55.230341,64.637624 55.764675,67.39254 M 55.764675,67.394089 C 59.552612,66.224015 52.886838,64.94482 55.121178,67.354645 M 55.121178,67.354645 C 59.553993,68.542239 54.14621,64.478776 54.477842,67.275356 M 54.47784,67.276917 C 59.84089,66.104802 50.583283,64.570117 53.834503,67.119507 M 53.834503,67.121071 C 57.897043,66.360089 50.916806,64.227733 53.208736,66.92421 M 53.208042,66.925774 C 58.831689,65.711489 48.835921,63.772435 52.564709,66.691025 M 52.564709,66.691025 C 56.786983,66.190423 49.660463,63.397177 51.921373,66.378162 M 51.921371,66.378159 C 58.166476,66.123692 48.274078,63.286163 51.278042,66.027016 M 51.277344,66.027016 C 55.24862,66.032391 48.858729,62.556642 50.651579,65.636424 M 50.651581,65.636421 C 56.454865,66.457361 47.580015,60.915072 50.008238,65.204815 M 50.00824,65.206375 C 56.066103,66.683323 48.154101,61.3232 49.36491,64.738058 M 49.364216,64.73806 C 52.460834,65.46951 47.148384,61.171197 48.720875,64.190058 M 48.720875,64.19162 C 50.72758,64.698895 48.018722,61.979759 48.095109,63.683446 M 48.095108,63.683445 C 49.699561,63.965258 47.541355,61.759426 47.451782,63.096001 M 47.45108,63.097565 C 48.927121,64.097163 47.215973,61.490844 46.807747,62.551517 M 46.807747,62.549946 C 47.184597,61.992224 45.909558,62.530867 46.164242,62.002334 M 46.164242,62.003906 C 45.910888,62.664243 44.49445,60.985345 45.520908,61.455898 M 45.520908,61.457458 C 48.062327,62.827443 43.679871,62.214297 44.895313,60.949294 M 44.894619,60.949295 C 47.160782,62.738228 42.478344,61.528779 44.251113,60.479413 M 44.251114,60.480976 C 48.18317,62.101634 41.833315,62.097494 43.607779,60.090384 M 43.60778,60.090385 C 47.923553,60.54297 41.770757,62.176583 42.964439,59.77752 M 42.964439,59.777519 C 47.289751,60.09265 41.207147,61.939158 42.338673,59.50449 M 42.337986,59.50449 C 46.989859,59.48405 40.612403,61.994134 41.694645,59.347473 M 41.694645,59.347473 C 46.51117,59.661855 39.558441,62.022335 41.051311,59.307636 M 41.051311,59.309193 C 44.701206,60.860206 37.92891,61.625624 40.407978,59.347473 M 40.40728,59.347473 C 45.197273,61.266467 36.189063,61.265699 39.763947,59.542767 M 39.763947,59.542767 C 44.066116,60.982907 35.861902,61.829477 39.138184,59.815792 M 39.138184,59.815792 C 43.33681,60.689179 35.609255,62.52658 38.494846,60.204823 M 38.494152,60.206387 C 43.241757,61.260368 34.439881,63.747315 37.850819,60.674713 M 37.850819,60.676266 C 42.88042,60.981696 34.19914,65.022996 37.20731,61.302006 M 37.20731,61.300442 C 41.172093,61.256151 34.313881,64.910004 36.581711,61.962498 M 36.581017,61.964062 C 41.393214,61.652392 33.491984,66.657748 35.937683,62.745247 M 35.937683,62.745247 C 39.782071,62.380985 33.379233,66.725144 35.294178,63.566273 M 35.294178,63.566273 C 39.273025,63.01281 32.764159,67.750971 34.650845,64.425194 M 34.650845,64.425194 C 38.547921,63.776297 32.254874,68.682232 34.025249,65.322388 M 34.024555,65.323952 C 38.755469,64.576842 31.332206,70.389429 33.381042,66.222313 M 33.381042,66.222313 C 37.31171,65.583154 30.865694,70.400049 32.737717,67.081619 M 32.737717,67.081619 C 36.611103,66.329321 30.35806,71.242295 32.094376,67.940536 M 32.094376,67.940536 C 36.108414,67.45869 29.449742,71.958772 31.45105,68.721725 M 31.450348,68.721725 C 35.596328,68.242663 28.780258,72.591351 30.824581,69.425179 M 30.824581,69.425179 C 35.241655,69.008682 28.025836,73.08974 30.181247,70.052097 M 30.181248,70.050522 C 36.011845,68.379738 28.439085,74.020395 29.537914,70.596962 M 29.537218,70.596962 C 32.842335,69.844617 27.307369,74.06393 28.893885,70.988735 M 28.893885,70.987556 C 31.041307,70.84314 27.753018,73.012234 28.268119,71.300037 M 28.26812,71.300034 C 30.05252,71.257378 27.448729,72.673204 27.624785,71.455883 M 27.62409,71.455879 C 29.318469,70.982093 26.968438,72.573207 26.980757,71.535172 M 26.980757,71.533607 C 27.902486,71.839515 26.231018,70.780491 26.337251,71.455883 M 26.337252,71.455879 C 28.331198,72.745175 25.424524,69.553238 25.711657,71.260582 M 91.43605,59.50449 C 93.59433,58.171035 91.374083,61.960973 90.79271,60.206385 M 90.792709,60.206387 C 92.387781,59.699658 90.386768,62.190696 90.166944,60.870005 M 90.166245,60.871567 C 91.555912,60.495171 89.822547,62.614552 89.522916,61.533625 M 89.522919,61.535187 C 91.463633,59.929506 89.439563,63.170728 88.879581,62.199198 M 88.879578,62.1992 C 89.535613,62.602769 87.655358,63.897508 88.236248,62.822972 M 88.23555,62.824535 C 89.243137,61.314798 88.537601,63.829439 87.780153,63.657043 L 87.592209,63.370983 M 87.592209,63.370983 C 88.536047,62.538865 87.245958,64.638514 86.966446,63.878746 M 86.966446,63.878746 C 87.72557,63.592006 86.544002,64.720899 86.323112,64.347456 M 86.322426,64.347458 C 86.107979,64.46386 85.893532,64.580261 85.679085,64.696663 M 85.679085,64.698212 C 86.521594,64.068606 85.273033,65.538025 85.035579,65.011087 M 85.035576,65.011086 C 85.903509,64.46828 84.622232,65.641248 84.409984,65.204815 M 84.409294,65.206375 C 85.468673,64.900086 83.526236,66.15378 83.765955,65.32395 M 83.765953,65.323952 C 85.332415,64.50897 83.529622,66.438136 83.048431,65.812156 L 83.122444,65.40168 M 83.122444,65.40168 C 85.39454,64.884526 81.529012,66.830803 82.479118,65.361832 M 82.479126,65.363396 C 84.847158,65.418977 80.67711,66.303615 81.853523,65.245834 M 81.852821,65.245834 C 83.965995,65.652838 80.391189,66.318977 81.209315,65.087252 M 81.209312,65.088814 C 84.032401,65.71685 79.507187,66.468649 80.565988,64.853668 M 80.565987,64.85524 C 83.089508,66.018346 78.227022,65.927716 79.922647,64.582212 M 79.922646,64.582214 C 83.842241,66.053902 77.66978,66.365083 79.279321,64.267786 M 79.278625,64.269348 C 82.984062,66.105434 76.826095,65.746835 78.652859,63.878746 M 78.652863,63.878746 C 82.7791,65.287277 76.570902,65.743264 78.009519,63.488155 M 78.009521,63.488155 C 81.983308,65.291121 75.482845,65.090636 77.366184,63.096001 M 77.365494,63.097565 C 81.246909,64.794711 74.922213,64.629988 76.722156,62.66908 M 76.722153,62.667519 C 80.48607,64.537068 74.276853,64.144162 76.09639,62.237091 M 76.09639,62.238644 C 80.27916,63.600314 73.71674,63.979951 75.453056,61.846489 M 75.452362,61.848049 C 79.425879,63.571209 72.93249,63.393426 74.809021,61.419178 M 74.809021,61.418007 C 79.184594,62.767077 72.422701,63.292789 74.16552,61.065296 M 74.16552,61.066868 C 78.530407,62.281103 71.862276,62.976042 73.539925,60.71455 M 73.53923,60.71455 C 76.241806,62.413692 70.880743,62.057733 72.895889,60.400124 M 72.895889,60.401688 C 76.176386,62.80434 69.759764,61.694291 72.252388,60.088821 M 72.252388,60.090385 C 75.427399,62.299682 69.120458,61.453706 71.609062,59.855637 M 71.609062,59.855637 C 74.726437,62.06225 68.508637,61.254387 70.965721,59.620491 M 70.965721,59.620491 C 74.371768,61.628205 67.731866,61.213372 70.339951,59.463474 M 70.339249,59.465038 C 73.668759,61.202177 67.225753,61.227664 69.695923,59.307636 M 69.695923,59.309193 C 74.31159,60.301154 67.305363,61.5302 69.052589,59.191628 M 69.052589,59.191628 C 72.389436,60.788276 65.814886,61.013006 68.409256,59.113899 M 68.408562,59.113899 C 72.139335,60.72862 64.950499,61.188671 67.782799,59.074444 M 67.782799,59.074444 C 72.184179,61.551092 63.27202,60.709389 67.139458,59.074444 M 67.139458,59.074444 C 71.540562,61.550948 62.628904,60.70934 66.496124,59.074444 M 66.495438,59.074444 C 70.063591,60.64105 62.98997,61.18333 65.852097,59.113899 M 65.852097,59.113899 C 69.576119,61.255774 61.578765,60.858324 65.208588,59.152172 M 65.208588,59.152172 C 69.698687,61.781077 60.339239,60.911346 64.582993,59.2299 M 64.582298,59.2299 C 68.751567,61.493921 60.086671,60.888311 63.938965,59.306065 M 63.938965,59.309193 C 67.860563,61.437225 59.576826,60.982833 63.29546,59.386917 M 63.29546,59.386917 C 67.204749,61.457915 58.980523,61.12412 62.652126,59.50293 M 62.652126,59.50449 C 66.524246,61.501677 58.476757,61.28436 62.026531,59.622066 M 62.025829,59.620491 C 66.237487,61.825228 57.582001,61.318912 61.382332,59.736504 M 61.382332,59.738064 C 65.915495,62.094246 56.817534,61.548962 60.738998,59.814232 M 60.738998,59.815792 C 65.749748,61.97517 55.81122,62.240106 60.095657,59.933365 M 60.095657,59.933365 C 65.140066,62.110661 55.158204,62.34311 59.469891,60.049366 M 59.469196,60.05093 C 64.224036,62.471888 54.518842,62.154003 58.825863,60.16655 M 58.825863,60.168114 C 63.001435,62.234437 54.381793,62.115878 58.182529,60.323956 M 58.182529,60.323956 C 62.925031,62.73153 53.245407,62.434204 57.539196,60.441532 M 57.538498,60.441532 C 62.278506,62.851601 52.607128,62.548613 56.895164,60.55714 M 56.895164,60.558704 C 61.089171,62.582049 52.648473,62.444605 56.269394,60.71611 M 56.269394,60.71455 C 60.887617,62.976124 51.646468,62.732992 55.626064,60.830551 M 55.62537,60.832111 C 60.552018,63.117559 50.641276,63.16193 54.982029,60.98914 M 54.982029,60.987568 C 59.973231,63.12519 50.081739,63.466407 54.338531,61.143032 M 54.338531,61.144596 C 58.302603,63.019114 50.121869,63.210493 53.712936,61.339897 M 53.712234,61.339897 C 58.810747,63.34685 48.857467,64.170255 53.068901,61.533627 M 53.068901,61.535187 C 57.097311,63.121508 48.986067,63.876415 52.425396,61.768761 M 52.425396,61.768761 C 56.308836,63.201663 48.598881,64.142465 51.782063,62.04179 M 51.782063,62.04335 C 55.655126,63.40809 47.984301,64.662417 51.156467,62.314819 M 51.155773,62.316368 C 55.177797,63.684013 47.332685,64.826363 50.512268,62.627682 M 50.512268,62.629246 C 54.537998,63.941658 46.6693,65.167306 49.868935,62.942108 M 49.868935,62.940544 C 53.847919,63.974618 46.228047,65.791665 49.225594,63.329575 M 49.225594,63.331139 C 53.223663,64.265981 45.640207,66.347292 48.582268,63.761574 M 47.955799,64.19162 C 51.886801,64.702399 44.742694,67.276383 47.312466,64.699783 M 46.668434,65.206375 C 50.637377,65.568832 43.562578,68.5377 46.025101,65.792267 M 38.998871,72.510094 C 42.164362,72.062921 36.527118,75.642102 38.355538,72.978413 M 38.355537,72.979973 C 40.803451,72.503754 37.333988,75.383478 37.712205,73.37214 M 37.711502,73.370567 C 39.373903,73.169945 36.995432,75.010948 37.085737,73.721714 M 37.085735,73.72171 C 38.312422,73.642847 36.214007,74.959673 36.442402,73.996305 M 36.442402,73.994743 C 37.521363,73.79986 36.002086,74.36776 35.799069,74.190033 M 35.798374,74.190033 C 36.667822,73.993291 34.622844,73.718571 35.155039,74.269324 M 35.155041,74.267769 C 37.451521,74.811319 33.566412,72.788603 34.529274,74.308777 M 34.529274,74.30761 C 36.711297,75.412169 35.262121,73.341347 34.113812,73.861662 L 33.885941,74.229485 M 33.885246,74.229485 C 35.828841,74.138222 32.685289,72.748683 33.241911,74.112306 M 33.241913,74.112305 C 35.372811,74.298864 32.16621,72.279017 32.598407,73.878732 M 32.598408,73.877167 C 34.877469,74.161721 31.474846,71.841237 31.955074,73.602578 M 31.955074,73.604149 C 34.162954,73.999024 30.955675,71.547882 31.329477,73.29284 M 31.328783,73.29129 C 33.173117,73.622001 30.57317,71.451546 30.685278,72.902248 M 30.685278,72.900696 C 32.384263,73.161426 29.932568,71.175253 30.041937,72.510094 M 30.041937,72.510094 C 31.582983,72.846181 29.491305,70.829149 29.398604,72.041775 M 29.398603,72.041779 C 31.325418,72.937235 29.162529,70.919512 28.772838,71.61289 M 28.772142,71.612892 C 29.743892,72.047642 28.390204,70.915285 28.128809,71.181291"
       id="path2200" />
  </g>
</svg>
