<?xml version="1.0" encoding="UTF-8" standalone="no"?>
<!-- Created with Inkscape (http://www.inkscape.org/) -->

<svg
   xmlns:dc="http://purl.org/dc/elements/1.1/"
   xmlns:cc="http://creativecommons.org/ns#"
   xmlns:rdf="http://www.w3.org/1999/02/22-rdf-syntax-ns#"
   xmlns:svg="http://www.w3.org/2000/svg"
   xmlns="http://www.w3.org/2000/svg"
   xmlns:xlink="http://www.w3.org/1999/xlink"
   xmlns:sodipodi="http://sodipodi.sourceforge.net/DTD/sodipodi-0.dtd"
   xmlns:inkscape="http://www.inkscape.org/namespaces/inkscape"
   version="1.0"
   width="100"
   height="100"
   id="svg2"
   inkscape:version="0.91 r13725"
   sodipodi:docname="traj_remove.svg">
  <metadata
     id="metadata24">
    <rdf:RDF>
      <cc:Work
         rdf:about="">
        <dc:format>image/svg+xml</dc:format>
        <dc:type
           rdf:resource="http://purl.org/dc/dcmitype/StillImage" />
      </cc:Work>
    </rdf:RDF>
  </metadata>
  <sodipodi:namedview
     pagecolor="#ffffff"
     bordercolor="#666666"
     borderopacity="1"
     objecttolerance="10"
     gridtolerance="10"
     guidetolerance="10"
     inkscape:pageopacity="0"
     inkscape:pageshadow="2"
     inkscape:window-width="852"
     inkscape:window-height="750"
     id="namedview22"
     showgrid="false"
     inkscape:zoom="1.63"
     inkscape:cx="-52.453677"
     inkscape:cy="61.673832"
     inkscape:window-x="783"
     inkscape:window-y="33"
     inkscape:window-maximized="0"
     inkscape:current-layer="svg2" />
  <defs
     id="defs4">
    <filter
       id="filter3239"
       color-interpolation-filters="sRGB">
      <feGaussianBlur
         stdDeviation="2.1418293"
         id="feGaussianBlur3241" />
    </filter>
    <linearGradient
       id="linearGradient3384">
      <stop
         id="stop3386"
         style="stop-color:#ff0000;stop-opacity:1"
         offset="0" />
      <stop
         id="stop3388"
         style="stop-color:#000000;stop-opacity:1"
         offset="1" />
    </linearGradient>
    <linearGradient
       id="linearGradient3252">
      <stop
         id="stop3254"
         style="stop-color:#ffffff;stop-opacity:1"
         offset="0" />
      <stop
         id="stop3256"
         style="stop-color:#ff0000;stop-opacity:0"
         offset="1" />
    </linearGradient>
    <linearGradient
       x1="25.398125"
       y1="63.345894"
       x2="90.625114"
       y2="63.345894"
       id="linearGradient3219"
       xlink:href="#linearGradient3384"
       gradientUnits="userSpaceOnUse"
       gradientTransform="matrix(0.04333013,0.79128686,-0.79131659,0.04330836,102.72419,22.802367)" />
    <radialGradient
       cx="58.01162"
       cy="63.345894"
       r="33.113495"
       fx="58.01162"
       fy="63.345894"
       id="radialGradient3221"
       xlink:href="#linearGradient3252"
       gradientUnits="userSpaceOnUse"
       gradientTransform="matrix(0.33125623,0.29685917,-0.29686233,0.33123579,54.089265,19.543205)" />
    <linearGradient
       x1="25.398125"
       y1="63.345894"
       x2="90.625114"
       y2="63.345894"
       id="linearGradient3257"
       xlink:href="#linearGradient3384"
       gradientUnits="userSpaceOnUse"
       gradientTransform="matrix(0.04331007,0.79128575,-0.7913177,0.04332842,155.42964,99.424882)" />
    <radialGradient
       cx="58.01162"
       cy="63.345894"
       r="33.113495"
       fx="58.01162"
       fy="63.345894"
       id="radialGradient3259"
       xlink:href="#linearGradient3252"
       gradientUnits="userSpaceOnUse"
       gradientTransform="matrix(0.33124871,0.29685077,-0.29687073,0.33124331,106.7948,96.166965)" />
    <linearGradient
       inkscape:collect="always"
       xlink:href="#linearGradient3384"
       id="linearGradient3866"
       gradientUnits="userSpaceOnUse"
       gradientTransform="matrix(0.04333764,0.79130072,-0.79130273,0.04330085,137.72692,-50.373077)"
       x1="25.398125"
       y1="63.345894"
       x2="90.625114"
       y2="63.345894" />
    <radialGradient
       inkscape:collect="always"
       xlink:href="#linearGradient3252"
       id="radialGradient3868"
       gradientUnits="userSpaceOnUse"
       gradientTransform="matrix(0.33125371,0.29686765,-0.29685385,0.33123831,89.092762,-53.632801)"
       cx="58.01162"
       cy="63.345894"
       fx="58.01162"
       fy="63.345894"
       r="33.113495" />
  </defs>
  <g
     id="g3375"
     transform="matrix(0.85777884,-0.76877217,0.76873642,0.85781872,-32.897546,45.755799)">
    <rect
       style="fill:#989696;fill-opacity:1;fill-rule:evenodd;stroke:none"
       id="rect3231"
       y="27.619064"
       x="4.3234658"
       height="51.986679"
       width="95.421112" />
    <rect
       style="fill:#000000;fill-opacity:1;fill-rule:evenodd;stroke:#000000;stroke-width:0.86815435;stroke-linecap:butt;stroke-linejoin:miter;stroke-miterlimit:4;stroke-dasharray:none;stroke-opacity:1"
       id="rect2408"
       y="24.033932"
       x="1.4814345"
       ry="0"
       rx="0"
       height="52.334156"
       width="98.027168" />
    <rect
       style="fill:#ffffff;fill-opacity:1;fill-rule:evenodd;stroke:#000000;stroke-width:0.77263904;stroke-linecap:butt;stroke-linejoin:miter;stroke-miterlimit:4;stroke-dasharray:none;stroke-opacity:1"
       id="rect3188"
       y="28.496065"
       x="5.6583457"
       height="43.409885"
       width="89.624107" />
    <rect
       style="fill:#000000;fill-opacity:1;fill-rule:evenodd;stroke:#000000;stroke-width:0.85979939;stroke-linecap:butt;stroke-linejoin:miter;stroke-miterlimit:4;stroke-dasharray:none;stroke-opacity:1"
       id="rect2412"
       y="24.162849"
       x="37.754673"
       height="52.076313"
       width="4.826767" />
    <rect
       style="fill:#000000;fill-opacity:1;fill-rule:evenodd;stroke:#000000;stroke-width:0.85979939;stroke-linecap:butt;stroke-linejoin:miter;stroke-miterlimit:4;stroke-dasharray:none;stroke-opacity:1"
       id="rect2414"
       y="24.162849"
       x="74.069"
       height="52.076313"
       width="4.826767" />
    <g
       id="g3190"
       transform="translate(0.4986333,-28.123385)">
      <path
         style="fill:#282828;fill-opacity:1;fill-rule:evenodd;stroke:none"
         id="path3289"
         d="m 32.357643,77.450556 c 8.54e-4,4.878525 -3.953732,8.833804 -8.832257,8.833804 -4.878525,0 -8.833111,-3.955279 -8.832257,-8.833804 -8.54e-4,-4.878525 3.953732,-8.833804 8.832257,-8.833804 4.878525,0 8.833111,3.955279 8.832257,8.833804 z"
         inkscape:connector-curvature="0" />
      <use
         xlink:href="#path3289"
         height="100"
         width="100"
         y="0"
         x="0"
         style="fill:#282828;fill-opacity:1"
         id="use2393"
         transform="matrix(0.4676798,0,0,0.4676798,4.3954852,48.700837)" />
      <g
         id="g2386"
         transform="matrix(0.2966739,0,0,0.2966739,7.5970587,62.707097)">
        <path
           style="fill:#ff0000;fill-rule:evenodd;stroke:#000000;stroke-width:0.79248667px;stroke-linecap:butt;stroke-linejoin:miter;stroke-opacity:1"
           id="path2277"
           d="m 80.278556,46.028995 c 0.0029,16.444064 -13.326861,29.776139 -29.770926,29.776139 -16.444064,0 -29.773803,-13.332075 -29.770924,-29.776139 -0.0029,-16.444064 13.32686,-29.776139 29.770924,-29.776139 16.444065,0 29.773805,13.332075 29.770926,29.776139 z"
           inkscape:connector-curvature="0" />
        <path
           style="opacity:0.71739131;fill:url(#linearGradient3866);fill-opacity:1;fill-rule:evenodd;stroke:none"
           id="path3262"
           d="M 71.867547,66.969583 C 60.241875,78.599327 41.389126,78.600978 29.761417,66.973269 18.133709,55.345561 18.13536,36.492812 29.765104,24.86714 c 11.625673,-11.629744 30.478421,-11.631396 42.10613,-0.0037 11.627709,11.627709 11.626057,30.480457 -0.0037,42.10613 l 1.3e-5,1.3e-5 z"
           inkscape:connector-curvature="0" />
        <path
           style="fill:url(#radialGradient3868);fill-opacity:1;fill-rule:evenodd;stroke:none"
           id="path2279"
           d="m 56.468543,34.632946 c 0.0016,9.229656 -7.480045,16.712627 -16.709701,16.712627 -9.229655,0 -16.711315,-7.482971 -16.7097,-16.712627 -0.0016,-9.229655 7.480045,-16.712626 16.7097,-16.712626 9.229656,0 16.711317,7.482971 16.709701,16.712626 l 0,0 z"
           inkscape:connector-curvature="0" />
      </g>
      <use
         xlink:href="#g2386"
         height="100"
         width="100"
         y="0"
         x="0"
         id="use2391"
         transform="matrix(0.4553966,0,0,0.4553966,4.4983481,49.679336)" />
    </g>
    <g
       id="g3203"
       transform="matrix(0.9038262,0.4278997,-0.4278997,0.9038262,72.964903,-29.708471)">
      <path
         style="fill:#282828;fill-opacity:1;fill-rule:evenodd;stroke:none"
         id="path3205"
         d="m 32.357643,77.450556 c 8.54e-4,4.878525 -3.953732,8.833804 -8.832257,8.833804 -4.878525,0 -8.833111,-3.955279 -8.832257,-8.833804 -8.54e-4,-4.878525 3.953732,-8.833804 8.832257,-8.833804 4.878525,0 8.833111,3.955279 8.832257,8.833804 z"
         inkscape:connector-curvature="0" />
      <use
         xlink:href="#path3289"
         height="100"
         width="100"
         y="0"
         x="0"
         style="fill:#282828;fill-opacity:1"
         id="use3207"
         transform="matrix(0.4676798,0,0,0.4676798,4.3954852,48.700837)" />
      <g
         id="g3209"
         transform="matrix(0.2966739,0,0,0.2966739,7.5970587,62.707097)">
        <path
           style="fill:#ff0000;fill-rule:evenodd;stroke:#000000;stroke-width:0.79248667px;stroke-linecap:butt;stroke-linejoin:miter;stroke-opacity:1"
           id="path3211"
           d="m 80.278556,46.028995 c 0.0029,16.444064 -13.326861,29.776139 -29.770926,29.776139 -16.444064,0 -29.773803,-13.332075 -29.770924,-29.776139 -0.0029,-16.444064 13.32686,-29.776139 29.770924,-29.776139 16.444065,0 29.773805,13.332075 29.770926,29.776139 z"
           inkscape:connector-curvature="0" />
        <path
           style="opacity:0.71739131;fill:url(#linearGradient3219);fill-opacity:1;fill-rule:evenodd;stroke:none"
           id="path3213"
           d="M 71.867547,66.969583 C 60.241875,78.599327 41.389126,78.600978 29.761417,66.973269 18.133709,55.345561 18.13536,36.492812 29.765104,24.86714 c 11.625673,-11.629744 30.478421,-11.631396 42.10613,-0.0037 11.627709,11.627709 11.626057,30.480457 -0.0037,42.10613 l 1.3e-5,1.3e-5 z"
           inkscape:connector-curvature="0" />
        <path
           style="fill:url(#radialGradient3221);fill-opacity:1;fill-rule:evenodd;stroke:none"
           id="path3215"
           d="m 56.468543,34.632946 c 0.0016,9.229656 -7.480045,16.712627 -16.709701,16.712627 -9.229655,0 -16.711315,-7.482971 -16.7097,-16.712627 -0.0016,-9.229655 7.480045,-16.712626 16.7097,-16.712626 9.229656,0 16.711317,7.482971 16.709701,16.712626 l 0,0 z"
           inkscape:connector-curvature="0" />
      </g>
      <use
         xlink:href="#g2386"
         height="100"
         width="100"
         y="0"
         x="0"
         id="use3217"
         transform="matrix(0.4553966,0,0,0.4553966,4.4983481,49.679336)" />
    </g>
    <g
       id="g3241"
       transform="matrix(0.5244703,0.8514287,-0.8514287,0.5244703,154.09032,-9.2546463)">
      <path
         style="fill:#282828;fill-opacity:1;fill-rule:evenodd;stroke:none"
         id="path3243"
         d="m 32.357643,77.450556 c 8.54e-4,4.878525 -3.953732,8.833804 -8.832257,8.833804 -4.878525,0 -8.833111,-3.955279 -8.832257,-8.833804 -8.54e-4,-4.878525 3.953732,-8.833804 8.832257,-8.833804 4.878525,0 8.833111,3.955279 8.832257,8.833804 z"
         inkscape:connector-curvature="0" />
      <use
         xlink:href="#path3289"
         height="100"
         width="100"
         y="0"
         x="0"
         style="fill:#282828;fill-opacity:1"
         id="use3245"
         transform="matrix(0.4676798,0,0,0.4676798,4.3954852,48.700837)" />
      <g
         id="g3247"
         transform="matrix(0.2966739,0,0,0.2966739,7.5970587,62.707097)">
        <path
           style="fill:#ff0000;fill-rule:evenodd;stroke:#000000;stroke-width:0.79248667px;stroke-linecap:butt;stroke-linejoin:miter;stroke-opacity:1"
           id="path3249"
           d="m 80.278556,46.028995 c 0.0029,16.444064 -13.326861,29.776139 -29.770926,29.776139 -16.444064,0 -29.773803,-13.332075 -29.770924,-29.776139 -0.0029,-16.444064 13.32686,-29.776139 29.770924,-29.776139 16.444065,0 29.773805,13.332075 29.770926,29.776139 z"
           inkscape:connector-curvature="0" />
        <path
           style="opacity:0.71739131;fill:url(#linearGradient3257);fill-opacity:1;fill-rule:evenodd;stroke:none"
           id="path3251"
           d="M 71.867547,66.969583 C 60.241875,78.599327 41.389126,78.600978 29.761417,66.973269 18.133709,55.345561 18.13536,36.492812 29.765104,24.86714 c 11.625673,-11.629744 30.478421,-11.631396 42.10613,-0.0037 11.627709,11.627709 11.626057,30.480457 -0.0037,42.10613 l 1.3e-5,1.3e-5 z"
           inkscape:connector-curvature="0" />
        <path
           style="fill:url(#radialGradient3259);fill-opacity:1;fill-rule:evenodd;stroke:none"
           id="path3253"
           d="m 56.468543,34.632946 c 0.0016,9.229656 -7.480045,16.712627 -16.709701,16.712627 -9.229655,0 -16.711315,-7.482971 -16.7097,-16.712627 -0.0016,-9.229655 7.480045,-16.712626 16.7097,-16.712626 9.229656,0 16.711317,7.482971 16.709701,16.712626 l 0,0 z"
           inkscape:connector-curvature="0" />
      </g>
      <use
         xlink:href="#g2386"
         height="100"
         width="100"
         y="0"
         x="0"
         id="use3255"
         transform="matrix(0.4553966,0,0,0.4553966,4.4983481,49.679336)" />
    </g>
  </g>
  <g
     style="fill:#ffffff;fill-opacity:1;filter:url(#filter3239)"
     id="g3157"
     transform="matrix(1.0193542,0,0,1.1542086,-63.402984,-10.863227)" />
  <g
     id="g2180"
     transform="matrix(1.1075798,0,0,1.1075798,-68.808913,-9.527964)" />
  <g
     id="g4161"
     transform="matrix(0.79143478,0,0,0.79143478,37.192125,36.776397)">
    <circle
       r="24.868586"
       cy="50"
       cx="50"
       id="path4157"
       style="opacity:1;fill:#ffffff;fill-opacity:1;stroke:#000000;stroke-width:6.31763983;stroke-linecap:round;stroke-linejoin:round;stroke-miterlimit:4;stroke-dasharray:none;stroke-dashoffset:0;stroke-opacity:1" />
    <path
       inkscape:connector-curvature="0"
       id="path4159"
       d="m 38.796677,50 c 22.406646,0 22.406646,0 22.406646,0"
       style="fill:none;fill-rule:evenodd;stroke:#000000;stroke-width:6.31763983;stroke-linecap:round;stroke-linejoin:miter;stroke-miterlimit:4;stroke-dasharray:none;stroke-opacity:1" />
  </g>
</svg>
