/* XPM */
const char *icon_geometry_angle[] = {
/* columns rows colors chars-per-pixel */
"25 25 94 2",
"   c #3D211A",
".  c #322F2E",
"X  c gray20",
"o  c #343333",
"O  c #343434",
"+  c gray21",
"@  c #373737",
"#  c gray23",
"$  c gray24",
"%  c #443531",
"&  c gray25",
"*  c #464646",
"=  c gray28",
"-  c gray30",
";  c gray34",
":  c #615A59",
">  c #645D5B",
",  c #626262",
"<  c #656565",
"1  c #6C6C6C",
"2  c #6D6D6D",
"3  c gray47",
"4  c #A43F27",
"5  c #AD3E24",
"6  c #E8451F",
"7  c #E84923",
"8  c #E94B26",
"9  c #E94C27",
"0  c #E94E2A",
"q  c #EA5431",
"w  c #EB5C3B",
"e  c #8D6157",
"r  c #8F746D",
"t  c #EC6647",
"y  c #ED6B4C",
"u  c #ED6B4E",
"i  c #ED6F51",
"p  c #EE7458",
"a  c #EE765A",
"s  c #EF8067",
"d  c #F0836A",
"f  c #F18A71",
"g  c #F29078",
"h  c gray53",
"j  c #939393",
"k  c #9D9D9D",
"l  c gray63",
"z  c gray66",
"x  c #B2B2B2",
"c  c gray71",
"v  c gray74",
"b  c #F39D8A",
"n  c #F39E8A",
"m  c #F3A18E",
"M  c #F3A18F",
"N  c #F5B09F",
"B  c #F6B4A4",
"V  c #F7BAAC",
"C  c gray78",
"Z  c #D6D0CE",
"A  c #DCD0CD",
"S  c LightGray",
"D  c #D7D7D7",
"F  c gray87",
"G  c #DFDFDF",
"H  c #F9CBC0",
"J  c #F9D0C6",
"K  c #FBDBD4",
"L  c #FBDCD5",
"P  c #FBE1DB",
"I  c #E4E4E4",
"U  c gray90",
"Y  c #E6E6E6",
"T  c gray91",
"R  c #ECECEC",
"E  c #EEEEEE",
"W  c #FCE7E2",
"Q  c #FCE9E4",
"!  c #F3EEED",
"~  c #FDF1EE",
"^  c #F1F1F1",
"/  c gray95",
"(  c #F4F4F4",
")  c gray96",
"_  c gray97",
"`  c #F8F8F8",
"'  c #F9F9F9",
"]  c #FEFAF9",
"[  c #FEFCFB",
"{  c #FFFCFB",
"}  c #FDFDFD",
"|  c #FEFEFE",
" . c #FFFEFE",
".. c none",
/* pixels */
"..................................................",
"......` ..........................................",
"....I 2 R ........................................",
"....R @ S ........................................",
"...._ * x ........................................",
"......2 h ........................................",
"......k ; ........................................",
"......C $ ^ ......................................",
"......F . A { ....................................",
"......!   5 y n K ................................",
"........: r g y 0 f K ............................",
"........j < ..] H p q M Q ........................",
"........x * _ ....] H a w N ......................",
"........D X I ........] V 9 H ....................",
"........^ # C ..........] s t ~ ..................",
"..........; l ............L 0 n ..................",
"..........3 3 ..............M 6 P ................",
"..........z * T _ ..........W 7 B ................",
"..........I - @ * 2 k C F _ ] i d ................",
"............R S x h ; $ X $ , e 4 Z ^ ............",
"......................^ F v j > % @ # ; 3 z F ....",
"................................_ I C l 3 , c ....",
"..................................................",
"....................` ............................",
"^ ` ................_ ^ .........................."
};
