/* XPM */
const char *xpm_geometry_torsion[] = {
/* columns rows colors chars-per-pixel */
"24 25 121 2",
"   c #151515",
".  c #181818",
"X  c #191919",
"o  c gray10",
"O  c #1B1B1B",
"+  c #1E1E1E",
"@  c #251F1D",
"#  c #3B231D",
"$  c #222222",
"%  c #282828",
"&  c #2D2D2D",
"*  c gray19",
"=  c #393939",
"-  c #3C3C3C",
";  c #773627",
":  c #464646",
">  c gray29",
",  c #565656",
"<  c #575656",
"1  c #5B5453",
"2  c #5D5D5D",
"3  c #656565",
"4  c gray40",
"5  c gray42",
"6  c #717171",
"7  c #777777",
"8  c gray47",
"9  c #833A2A",
"0  c #923C28",
"q  c #E1411C",
"w  c #E64925",
"e  c #E94924",
"r  c #E94B26",
"t  c #E65F3F",
"y  c #E95331",
"u  c #D5735D",
"i  c #EC6545",
"p  c #E97053",
"a  c #EE7458",
"s  c #BB8376",
"d  c #D8826E",
"f  c #E1806A",
"g  c #F18F79",
"h  c #818181",
"j  c #898989",
"k  c #939393",
"l  c gray60",
"z  c gray62",
"x  c #9F9F9F",
"c  c gray63",
"v  c #A2A2A2",
"b  c #A9A9A9",
"n  c #AEAEAE",
"m  c gray70",
"M  c #B6B6B6",
"N  c #D59485",
"B  c #C0BEBD",
"V  c #E69C8B",
"C  c #F29680",
"Z  c #EABCB1",
"A  c #F0B9AC",
"S  c #F7BAAC",
"D  c #EFC1B6",
"F  c #F8C8BD",
"G  c gray77",
"H  c #C5C5C5",
"J  c #C6C6C6",
"K  c gray78",
"L  c #CDC6C5",
"P  c #C8C8C8",
"I  c gray79",
"U  c #CACACA",
"Y  c #CBCBCB",
"T  c gray80",
"R  c #CECECE",
"E  c #D2CBC9",
"W  c #D3CFCE",
"Q  c #D0D0D0",
"!  c gray82",
"~  c #D2D1D1",
"^  c #D2D2D2",
"/  c LightGray",
"(  c #D5D5D5",
")  c gray84",
"_  c #D8D8D8",
"`  c gray85",
"'  c gray86",
"]  c #DDDDDD",
"[  c gray87",
"{  c #DFDFDF",
"}  c #F9CBC0",
"|  c #FBE3DD",
" . c gray88",
".. c #E1E1E1",
"X. c #E2E1E1",
"o. c #E2E2E2",
"O. c #E3E2E2",
"+. c #E6E6E6",
"@. c #EAE3E1",
"#. c #E9E9E9",
"$. c gray93",
"%. c #EEEEEE",
"&. c #EFEFEF",
"*. c #F1F1F1",
"=. c gray95",
"-. c #F3F3F3",
";. c #F4F4F4",
":. c gray96",
">. c gray97",
",. c #F9F7F6",
"<. c #FEF7F5",
"1. c #F9F9F9",
"2. c gray98",
"3. c #FBFBFB",
"4. c #FCFAFA",
"5. c #FEFAF9",
"6. c #FEFCFB",
"7. c #FDFCFC",
"8. c #FDFDFD",
"9. c #FEFEFE",
"0. c none",
/* pixels */
"0.0.0.0.0.0.0.0.0.0.0.0.0.0.0.0.0.0.0.0.0.0.0.0.",
"0.0.0.0.0.{ ;.0.0.0.0.0.0.0.0.0.0.0.n z 0.0.0.0.",
"0.0.0.0.;.K R 0.0.0.0.0.0.0.0.0.0.R = x ;.0.0.0.",
"0.0.0.0.;.J K { 0.0.0.0.0.0.0.0.-.< 2 J ;.0.0.0.",
"0.0.0.0.;.J { J $.0.0.5.| <.0.0.j O J J ;.0.0.0.",
"0.0.0.0.;.J -.` R ,.} a e i S M + k -.J ;.0.0.0.",
"0.0.0.0.;.J ;.;.L f y g F C r 9 < ,.;.J ;.0.0.0.",
"0.0.0.0.;.J ;.0.@.d D 0.0.0.s ; R 0.;.J ;.0.0.0.",
"0.0.0.0.;.J ;.0.0.] K ;.0.b X b 0.0.;.J ;.0.0.0.",
"0.0.0.0.;.J ;.0.0.1.R ( ( & 4 1.0.0.;.J ;.0.0.0.",
"0.0.0.0.;.J ;.0.0.0.$.J 5 - { 0.0.0.;.K ;.0.0.0.",
"0.0.0.0.;.J ;.0.0.0.0.] 4 K 0.0.0.0.;.K ;.0.0.0.",
"0.0.0.0.;.J -.0.0.0.0.( X R 0.0.0.0.-.K ;.0.0.0.",
"0.0.0.0.#.7 m 0.0.0.0.R X ( 0.0.0.0.{ R 1.0.0.0.",
"0.0.0.0.0.j * ` 0.0.0.R X R 0.0.0.$.K $.0.0.0.0.",
"0.0.0.0.0.$.> < ;.0.0.~ # E 0.0.;.R ] 0.0.0.0.0.",
"0.0.0.0.0.0.R % k 0.} p q t S 0.` R 1.0.0.0.0.0.",
"0.0.0.0.0.0.0.l @ u y g F C r V P -.0.0.0.0.0.0.",
"0.0.0.0.0.0.0.;.1 0 Z { 6 O.A N O.0.0.0.0.0.0.0.",
"0.0.0.0.0.0.0.0.R $ 4 R X R R R 5.0.0.0.0.0.0.0.",
"0.0.0.0.0.0.0.0.0.z   h X m J -.0.0.0.0.0.0.0.0.",
"0.0.0.0.0.0.0.0.0.1.4 X   x +.0.0.0.0.0.0.0.0.0.",
"0.0.0.0.0.0.0.0.0.0.` : 8 R 0.0.0.0.0.0.0.0.0.0.",
"0.0.0.0.0.0.0.0.0.0.0.-.0.0.0.0.0.0.0.0.0.0.0.0.",
"0.0.0.0.0.0.0.0.0.0.0.0.0.0.0.0.0.0.0.0.0.0.0.0."
};
