/* XPM */
const char *xpm_hidepanel[] = {
/* columns rows colors chars-per-pixel */
"16 16 61 1",
"  c gray1",
". c gray4",
"X c #0E0E0E",
"o c gray9",
"O c #191919",
"+ c gray10",
"@ c #1B1B1B",
"# c gray11",
"$ c #252525",
"% c gray15",
"& c #272727",
"* c gray16",
"= c #2D2D2D",
"- c #2F2F2F",
"; c #353535",
": c gray21",
"> c #373737",
", c gray23",
"< c #3C3C3C",
"1 c #3F3F3F",
"2 c gray26",
"3 c #444444",
"4 c gray29",
"5 c #565656",
"6 c gray34",
"7 c #585858",
"8 c #5A5A5A",
"9 c #5F5F5F",
"0 c #686868",
"q c #6A6A6A",
"w c gray43",
"e c gray47",
"r c gray48",
"t c #8D8D8D",
"y c #A4A4A4",
"u c #A9A9A9",
"i c gray67",
"p c #B2B2B2",
"a c #B6B6B6",
"s c gray74",
"d c #C3C3C3",
"f c #C6C6C6",
"g c #C8C8C8",
"h c #CACACA",
"j c gray81",
"k c gray82",
"l c #D2D2D2",
"z c gray84",
"x c #DDDDDD",
"c c gray89",
"v c #E6E6E6",
"b c #E7E7E7",
"n c #E9E9E9",
"m c #EEEEEE",
"M c gray94",
"N c gray95",
"B c #F6F6F6",
"V c gray97",
"C c gray99",
"Z c #FEFEFE",
"A c none",
/* pixels */
"AAAAAAAANCAAAAAA",
"AAAAAAAz$tAAAAAA",
"AAAAAAAkX+sAAAAA",
"AAAAAAAk+5*kAAAA",
"Ackkkkkiof42xAAA",
"c<;,,,,;5mx<5nBA",
"k+fNNNNNCAAf$=rA",
"k+kAAAAAAAAAw 0A",
"koukkkkkcAAu+9yA",
"m8;,,,,;,cs$rAAA",
"ACNNNNNfop=0NAAA",
"AAAAAAAko;3nAAAA",
"AAAAAAAh.=xAAAAA",
"AAAAAAAv8pAAAAAA",
"AAAAAAAAAAAAAAAA",
"AAAAAAAAAAAAAAAA"
};
