/* XPM */
const char *icon_traj_rewind[] = {
/* columns rows colors chars-per-pixel */
"16 16 60 1",
"  c gray2",
". c gray4",
"X c gray5",
"o c gray7",
"O c #151515",
"+ c #191919",
"@ c gray10",
"# c gray11",
"$ c gray14",
"% c #252525",
"& c #272727",
"* c #2C2C2C",
"= c #2D2D2D",
"- c gray18",
"; c gray19",
": c #343434",
"> c #3A3A3A",
", c gray23",
"< c #414141",
"1 c #464646",
"2 c gray28",
"3 c gray29",
"4 c #555555",
"5 c #565656",
"6 c #5A5A5A",
"7 c gray39",
"8 c #6A6A6A",
"9 c #6D6D6D",
"0 c gray43",
"q c gray46",
"w c #767676",
"e c #797979",
"r c gray50",
"t c gray51",
"y c #888888",
"u c gray56",
"i c #A2A2A2",
"p c #A9A9A9",
"a c gray67",
"s c gray72",
"d c gray73",
"f c #BBBBBB",
"g c gray74",
"h c gray75",
"j c #C0C0C0",
"k c #C1C1C1",
"l c gray80",
"z c #D0D0D0",
"x c gray82",
"c c #D2D2D2",
"v c gray88",
"b c #E4E4E4",
"n c gray91",
"m c gray93",
"M c #EEEEEE",
"N c #F3F3F3",
"B c #F6F6F6",
"V c #F9F9F9",
"C c gray99",
"Z c none",
/* pixels */
"ZZZZZZZZZZZZZZZZ",
"ZZZZZZZZNBZZZNBZ",
"ZZZZZZVk<,cZk2,c",
"ZZZZZbw#3Oke#3@c",
"ZZZVp;;pl@2;pl@c",
"ZZc6#wk0dOwk0d@c",
"By$2gd,Xp@i,Xp@l",
"n-:gt.#oa@-#oa@c",
"Vk2$38- w@0- w@c",
"ZZmu$2i5r@5i5r@l",
"ZZZZc6#wd@7#wg@c",
"ZZZZZVp-$olp;$oc",
"ZZZZZZZbe0mZbe0m",
"ZZZZZZZZZZZZZZZZ",
"ZZZZZZZZZZZZZZZZ",
"ZZZZZZZZZZZZZZZZ"
};
