/* XPM */
const char *icon_traj_end[] = {
/* columns rows colors chars-per-pixel */
"16 16 61 1",
"  c gray1",
". c #090909",
"X c gray5",
"o c gray6",
"O c #111111",
"+ c gray8",
"@ c #151515",
"# c #181818",
"$ c #191919",
"% c gray10",
"& c gray11",
"* c #1E1E1E",
"= c #252525",
"- c gray15",
"; c #272727",
": c gray19",
"> c #3A3A3A",
", c gray25",
"< c gray28",
"1 c gray29",
"2 c gray30",
"3 c #505050",
"4 c #585858",
"5 c #5A5A5A",
"6 c #5D5D5D",
"7 c #606060",
"8 c #656565",
"9 c gray40",
"0 c gray42",
"q c #727272",
"w c #767676",
"e c #898989",
"r c gray56",
"t c #989898",
"y c gray63",
"u c gray66",
"i c #A9A9A9",
"p c #AAAAAA",
"a c gray67",
"s c #ACACAC",
"d c #B7B7B7",
"f c gray73",
"g c #BBBBBB",
"h c #C0C0C0",
"j c #C3C3C3",
"k c #CACACA",
"l c gray80",
"z c #CECECE",
"x c gray81",
"c c #D0D0D0",
"v c gray82",
"b c #D2D2D2",
"n c gray84",
"m c gray89",
"M c #E4E4E4",
"N c #E6E6E6",
"B c #EEEEEE",
"V c gray94",
"C c #F9F9F9",
"Z c gray99",
"A c none",
/* pixels */
"AAAAAAAAAAAAAAAA",
"AAAAVCAAAAAAAAAA",
"AAAn-3vAAAAmqmAA",
"AAAx+>-rBAAv%vAA",
"AAAv%jr-1gAv%vAA",
"AAAv%f0d5*wg%vAA",
"AAAv%y.2vu:-OxAA",
"AAAv%uoo%uu*.xAA",
"AAAv%6 >72%1+vAA",
"AAAv%99t::ux%vAA",
"AAAv%s5*wmAv%vAA",
"AAAko*1gAAAx%vAA",
"AAAN5eBAAAABuBAA",
"AAAAAAAAAAAAAAAA",
"AAAAAAAAAAAAAAAA",
"AAAAAAAAAAAAAAAA"
};
