/* XPM */
const char *icon_exclaim[] = {
/* columns rows colors chars-per-pixel */
"16 16 10 1",
"  c #C00000",
". c #D34D4D",
"X c #D86161",
"o c #DF7E7E",
"O c #E79D9D",
"+ c #E79E9E",
"@ c #F0C3C3",
"# c #FDF7F7",
"$ c #FEFBFB",
"% c none",
/* pixels */
"%%%%%%%OXO%%%%%%",
"%%%%%%%X X%%%%%%",
"%%%%%%%X X%%%%%%",
"%%%%%%%X X%%%%%%",
"%%%%%%%X X%%%%%%",
"%%%%%%%X X%%%%%%",
"%%%%%%%X X%%%%%%",
"%%%%%%%X X%%%%%%",
"%%%%%%%X X%%%%%%",
"%%%%%%%X X%%%%%%",
"%%%%%%%X X%%%%%%",
"%%%%%%%@O@%%%%%%",
"%%%%%%%%$#%%%%%%",
"%%%%%%%O.o%%%%%%",
"%%%%%%%X X%%%%%%",
"%%%%%%%@O@%%%%%%"
};
