/* XPM */
const char *icon_add[] = {
/* columns rows colors chars-per-pixel */
"16 16 23 1",
"  c black",
". c gray8",
"X c #353535",
"o c #373737",
"O c #393939",
"+ c #3C3C3C",
"@ c #565656",
"# c gray34",
"$ c #585858",
"% c gray38",
"& c #8D8D8D",
"* c #939393",
"= c #959595",
"- c #9D9D9D",
"; c gray62",
": c #A0A0A0",
"> c #B1B1B1",
", c #B2B2B2",
"< c #C3C3C3",
"1 c #D5D5D5",
"2 c gray91",
"3 c #EFEFEF",
"4 c none",
/* pixels */
"444-%-4444444444",
"443$ #2222222344",
"4*O. .o#&&&&&=34",
"4$     $22221&24",
"4,#o +-<44442&24",
"42&# %4444442&24",
"42&,-<4444442&24",
"42&2444444442&24",
"42&2444444442&24",
"42&2444444442&24",
"42&2444444442&24",
"42&2444444442&24",
"42&2444444442&24",
"42&2444444442&24",
"42&1222222221&24",
"43:--:-------:34"
};
