/* XPM */
const char *xpm_pat_cross[] = {
/* columns rows colors chars-per-pixel */
"16 16 27 1",
"  c red",
". c #FF0303",
"X c #FF0909",
"o c #FF1B1B",
"O c #FF2323",
"+ c #FF2626",
"@ c #FF4242",
"# c #FF4D4D",
"$ c #FF5454",
"% c #FF6A6A",
"& c #FF6B6B",
"* c #FF7070",
"= c #FF9797",
"- c #FFA4A4",
"; c #FFBDBD",
": c #FFD2D2",
"> c #FFD7D7",
", c #FFDDDD",
"< c #FFE4E4",
"1 c #FFF0F0",
"2 c #FFF2F2",
"3 c #FFF6F6",
"4 c #FFF7F7",
"5 c #FFFBFB",
"6 c #FFFCFC",
"7 c #FFFEFE",
"8 c none",
/* pixels */
"8888888888888888",
"8888888888888888",
"8888888888888888",
"888<<88888>28888",
"88<@@,888;+%3888",
"88<@ @,8;+.%3888",
"888,@ @-O %28888",
"8888,@ X.%288888",
"88888-X o:888888",
"8888;+ o @,88888",
"888;O %:@ @,8888",
"88>+.%28,@ #2888",
"882*&3888,$=5888",
"8885588888388888",
"8888888888888888",
"8888888888888888"
};
