<?xml version="1.0" encoding="UTF-8" standalone="no"?>
<!-- Created with Inkscape (http://www.inkscape.org/) -->
<svg
   xmlns:svg="http://www.w3.org/2000/svg"
   xmlns="http://www.w3.org/2000/svg"
   xmlns:xlink="http://www.w3.org/1999/xlink"
   version="1.0"
   width="100"
   height="100"
   id="svg2">
  <defs
     id="defs4">
    <linearGradient
       id="linearGradient3186">
      <stop
         id="stop3188"
         style="stop-color:#f5f5f5;stop-opacity:1"
         offset="0" />
      <stop
         id="stop3190"
         style="stop-color:#fffffd;stop-opacity:1"
         offset="1" />
    </linearGradient>
    <filter
       id="filter3239"
       color-interpolation-filters="sRGB">
      <feGaussianBlur
         stdDeviation="2.1418293"
         id="feGaussianBlur3241" />
    </filter>
    <linearGradient
       x1="18.799059"
       y1="7.9464054"
       x2="78.915184"
       y2="89.205368"
       id="linearGradient3243"
       xlink:href="#linearGradient3186"
       gradientUnits="userSpaceOnUse" />
    <linearGradient
       x1="18.799059"
       y1="7.9464054"
       x2="78.915184"
       y2="89.205368"
       id="linearGradient3245"
       xlink:href="#linearGradient3186"
       gradientUnits="userSpaceOnUse" />
    <linearGradient
       x1="18.799059"
       y1="7.9464054"
       x2="78.915184"
       y2="89.205368"
       id="linearGradient3247"
       xlink:href="#linearGradient3186"
       gradientUnits="userSpaceOnUse" />
  </defs>
  <g
     id="layer1">
    <path
       d="M 20.824401,97.817918 L 60.530085,97.817918 L 81.190204,74.527638 L 81.190204,4.9088369 L 20.824401,4.9088369 L 20.824401,97.817918"
       id="path3228"
       style="fill:#282828;fill-opacity:1;stroke:none" />
    <g
       transform="matrix(1.0193542,0,0,1.1542086,3.5461687,-1.5411934)"
       id="g3157"
       style="fill:#ffffff;fill-opacity:1;filter:url(#filter3239)" />
    <g
       transform="matrix(1.0193542,0,0,1.1542086,-1.7047721,-7.0536273)"
       id="g3149"
       style="fill:#ffffff;fill-opacity:1">
      <path
         d="M 19.163479,88.735485 L 58.11528,88.735485 L 78.383137,68.556914 L 78.383137,8.2395668 L 19.163479,8.2395668 L 19.163479,88.735485"
         id="path3151"
         style="fill:#ffffff;fill-opacity:1;stroke:#000000;stroke-opacity:1" />
      <path
         d="M 58.639205,69.080838 L 77.579566,69.080838 L 58.639205,88.021199 L 58.639205,69.080838 z"
         id="path3153"
         style="fill:#ffffff;fill-opacity:1;stroke:#000000;stroke-opacity:1" />
    </g>
    <g
       transform="matrix(1.0193542,0,0,1.1542086,-1.7047721,-7.0536273)"
       id="g2163"
       style="fill:url(#linearGradient3243);fill-opacity:1">
      <path
         d="M 19.163479,88.735485 L 58.11528,88.735485 L 78.383137,68.556914 L 78.383137,8.2395668 L 19.163479,8.2395668 L 19.163479,88.735485"
         id="rect2160"
         style="fill:url(#linearGradient3245);fill-opacity:1;stroke:#000000;stroke-opacity:1" />
      <path
         d="M 58.639205,69.080838 L 77.579566,69.080838 L 58.639205,88.021199 L 58.639205,69.080838 z"
         id="rect3134"
         style="fill:url(#linearGradient3247);fill-opacity:1;stroke:#000000;stroke-opacity:1" />
    </g>
    <g
       transform="matrix(1.1075798,0,0,1.1075798,-1.8597601,-0.2059301)"
       id="g2180" />
  </g>
</svg>
