/* XPM */
const char *icon_ds_scaled[] = {
/* columns rows colors chars-per-pixel */
"16 16 87 1",
"  c #860009",
". c #8C000A",
"X c #88020C",
"o c #800710",
"O c #8B0610",
"+ c #850E17",
"@ c #920913",
"# c #AE000C",
"$ c #B4000D",
"% c #A60C16",
"& c #AD0519",
"* c #A5081C",
"= c #9B1E27",
"- c #B91D28",
"; c #A82C35",
": c #A92F38",
"> c #C8000E",
", c #D6000F",
"< c #DC0010",
"1 c #D00D15",
"2 c #D10E16",
"3 c #F00011",
"4 c #F1141F",
"5 c #CA211E",
"6 c #CA1725",
"7 c #CC1A28",
"8 c #F11E27",
"9 c #F21E27",
"0 c #F01E28",
"q c #D02421",
"w c #F2282F",
"e c #EA3D38",
"r c #F43D3F",
"t c #913C56",
"y c #933D57",
"u c #BE6A77",
"i c #D94447",
"p c #F54541",
"a c #E45751",
"s c #F65C5C",
"d c #F65D5C",
"f c #D56C71",
"g c #E1686B",
"h c #E96F6B",
"j c #F66663",
"k c #F77364",
"l c #F87F67",
"z c #F77D68",
"x c #F4786D",
"c c #F47A6E",
"v c #F77D7A",
"b c #ED867D",
"n c #BF7D8C",
"m c #C07B85",
"M c #C07588",
"N c #DF8D91",
"B c #CD9298",
"V c #DA9398",
"C c #EF9893",
"Z c #F99590",
"A c #FAA488",
"S c #FAA498",
"D c #FAA598",
"F c #DA9EA2",
"G c #DC9FA4",
"H c #CC9FB0",
"J c #D8A7AA",
"K c #D9ACB2",
"L c #FAAFAA",
"P c #FAB5A4",
"I c #F6C3BD",
"U c #D8B6C4",
"Y c #E3BDC0",
"T c #EFC9CC",
"R c #F5C2C1",
"E c #E1C6D1",
"W c #F0DADC",
"Q c #F6E9EA",
"! c #FDF1EF",
"~ c #F8EFF0",
"^ c #F9F3F5",
"/ c #FCF4F5",
"( c #FDF5F6",
") c #FAF6F8",
"_ c #FDFAFA",
"` c #FFFCFC",
"' c none",
/* pixels */
"''''''''''''''''",
"''''''''''''''''",
"''''`IChgNT'''''",
"'''!Szkp4,-V`'''",
"'''SAPZjw3>%F'''",
"''IlP'Ljw3,#=W''",
"''bkZLZjw3,#XK''",
"'(apjjjr83,# n''",
"'(i4www4332q*n`'",
"''f,33333ecs87G'",
"''T->,,,1x`v8>;~",
"'''V%###5svs8>@J",
"'''`F=X &888<$oH",
"'''''WBmu6>>$.t/",
"'''''''''G;@+yU'",
"''''''''''QYE)''"
};
