/* XPM */
const char *icon_togglelist[] = {
/* columns rows colors chars-per-pixel */
"16 16 39 1",
"  c #1E1E3B",
". c gray23",
"X c #2E2E49",
"o c #494949",
"O c #434386",
"+ c #747486",
"@ c #787889",
"# c #6969D1",
"$ c #7474D4",
"% c #7272E3",
"& c #7979F2",
"* c #7C7CF7",
"= c #868686",
"- c #898989",
"; c #8E8EB6",
": c #B4B4B4",
"> c #B6B6B6",
", c #8282F3",
"< c #8080FF",
"1 c #A3A3E3",
"2 c #A5A5E3",
"3 c #AAAAEE",
"4 c #ACACF7",
"5 c #AFAFF7",
"6 c #B0B0FA",
"7 c #B1B1FF",
"8 c #B3B3FF",
"9 c gray82",
"0 c LightGray",
"q c gray83",
"w c gray89",
"e c gray93",
"r c #EEEEEE",
"t c gray95",
"y c #F3F3F3",
"u c #F6F6F6",
"i c gray97",
"p c gray98",
"a c none",
/* pixels */
"aarwwwrr090999wa",
"aa>--->:o.....=a",
"aapiiippttttttia",
"aaaaaaaaaaaaaaaa",
"77322211$%%###%*",
"78;@@@@+XOO   O<",
"77655555,**&&&*<",
"aaaaaaaaaaaaaaaa",
"aarwwwrrq00999wa",
"aa>--=>>o.....=a",
"aapiiippttttttia",
"aaaaaaaaaaaaaaaa",
"aarwwwww0ww999wa",
"aa>----=o==...=a",
"aapiitiitiitttia",
"aaaaaaaaaaaaaaaa"
};
