/* XPM */
const char *xpm_caesious[] = {
/* columns rows colors chars-per-pixel */
"24 24 250 2",
"   c #0E3479",
".  c #13387E",
"X  c #0F3A87",
"o  c #144091",
"O  c #164292",
"+  c #12439D",
"@  c #1347A5",
"#  c #1447A5",
"$  c #1648A6",
"%  c #174AA7",
"&  c #174BA7",
"*  c #144AAC",
"=  c #144DB3",
"-  c #154EB7",
";  c #1650B7",
":  c #1652BF",
">  c #1D53B7",
",  c #1C54BE",
"<  c #1E56BF",
"1  c #274885",
"2  c #244B9B",
"3  c #26509A",
"4  c #2B529D",
"5  c #365494",
"6  c #3C5E9E",
"7  c #2954AA",
"8  c #2A56AF",
"9  c #2358BB",
"0  c #3E65BB",
"q  c #1653C3",
"w  c #1753C3",
"e  c #1755C7",
"r  c #1757CB",
"t  c #1955C4",
"y  c #1D56C0",
"u  c #1858CF",
"i  c #185AD3",
"p  c #1B5BD0",
"a  c #185CD7",
"s  c #195DD7",
"d  c #195EDC",
"f  c #1960E0",
"g  c #1A62E5",
"h  c #1B64EA",
"j  c #1C68F3",
"k  c #1D69F3",
"l  c #1C6AF7",
"z  c #1C6AF9",
"x  c #1D6BF9",
"c  c #1F6EFF",
"v  c #2E5FC2",
"b  c #215DD1",
"n  c #2F65C8",
"m  c #2663D3",
"M  c #2263DE",
"N  c #2E65D5",
"B  c #3865C5",
"V  c #386CCC",
"C  c #2268EB",
"Z  c #2369EB",
"A  c #2B68E0",
"S  c #2B6DEC",
"D  c #246CF4",
"F  c #2C73F4",
"G  c #3770E2",
"H  c #3572ED",
"J  c #3A74E9",
"K  c #3579F4",
"L  c #347CFF",
"P  c #357CFF",
"I  c #367DFF",
"U  c #3879FA",
"Y  c #556C99",
"T  c #4563A9",
"R  c #4E64A0",
"E  c #4B66AC",
"W  c #4162B1",
"Q  c #426BB5",
"!  c #5367A5",
"~  c #5469A8",
"^  c #526BB1",
"/  c #5B70A8",
"(  c #5A71B3",
")  c #5E74B2",
"_  c #677999",
"`  c #6B7CAB",
"'  c #6678B0",
"]  c #6C7EB6",
"[  c #406DCE",
"{  c #4771D0",
"}  c #4B76DB",
"|  c #647ECA",
" . c #788498",
".. c #6F80A1",
"X. c #7986A9",
"o. c #7D94BF",
"O. c #4880E7",
"+. c #4C8AF9",
"@. c #4E8BF9",
"#. c #5789E3",
"$. c #5F85E6",
"%. c #5882E8",
"&. c #5A88F5",
"*. c #5A95FF",
"=. c #5F97FF",
"-. c #6887C0",
";. c #6B8FD0",
":. c #6790DB",
">. c #7A88C8",
",. c #7B91DF",
"<. c #6285E1",
"1. c #6B98EC",
"2. c #7292EF",
"3. c #7C97ED",
"4. c #7B98EF",
"5. c #7398F8",
"6. c #6EA1FF",
"7. c #7AA0E6",
"8. c #73A0F0",
"9. c #74A3F8",
"0. c #8B9099",
"q. c #8F939B",
"w. c #94979F",
"e. c #979A9E",
"r. c #999CA4",
"t. c #9D9EA8",
"y. c #97A3B7",
"u. c gray64",
"i. c gray70",
"p. c #879DC4",
"a. c #909AD9",
"s. c #919BDC",
"d. c #949CDB",
"f. c #8098EC",
"g. c #8999E1",
"h. c #949FE2",
"j. c #8AACEC",
"k. c #8EB2F3",
"l. c #9EA5E4",
"z. c #99A4EA",
"x. c #9AA5EB",
"c. c #9BA6EB",
"v. c #9CA6E8",
"b. c #9EA7EA",
"n. c #97B1E2",
"m. c #92B6F9",
"M. c #A0A2CC",
"N. c #AAAACC",
"B. c #A9A9D0",
"V. c #B5B5C3",
"C. c #A1A7E5",
"Z. c #A1A7E6",
"A. c #A0A8E9",
"S. c #A8ABE7",
"D. c #AFAFE7",
"F. c #A8ADEC",
"G. c #A9AFEF",
"H. c #A2BBE7",
"J. c #AEB0EC",
"K. c #ADB2F2",
"L. c #AEB1F1",
"P. c #B3B3EB",
"I. c #B4B4E9",
"U. c #B5B5EF",
"Y. c #BDBDE3",
"T. c #BEBEE5",
"R. c #B8B8EA",
"E. c #BABAE9",
"W. c #BABAEE",
"Q. c #BFBFEA",
"!. c #BDBDED",
"~. c #BDBDEE",
"^. c #BEBEEE",
"/. c #B2B4F4",
"(. c #B6B6F0",
"). c #B5B6F4",
"_. c #B4B6F6",
"`. c #B6B7F5",
"'. c #B7B8F6",
"]. c #BABAF2",
"[. c #B9B9F6",
"{. c #BBBBF5",
"}. c #BBBBF7",
"|. c #BCBCF1",
" X c #BFBFF1",
".X c #BCBCF7",
"XX c #BEBEF7",
"oX c #BABBF9",
"OX c #BCBCF9",
"+X c #BDBEFD",
"@X c #BEBEFC",
"#X c #BEBEFD",
"$X c #BFBFFE",
"%X c #A6C0EF",
"&X c #AEC5EE",
"*X c #A9C5F8",
"=X c #ADC7F8",
"-X c #BCCDEB",
";X c #BBD3FF",
":X c gray79",
">X c #CACDD4",
",X c #C2C2E9",
"<X c #C2C2EA",
"1X c #CBCBEB",
"2X c #CFCFEE",
"3X c #C6C6F4",
"4X c #C0C0FF",
"5X c #CACAF2",
"6X c #C8C8F5",
"7X c #C8DAFC",
"8X c #DBDFE7",
"9X c #D0D0F4",
"0X c #D1D1F5",
"qX c #D6D6F1",
"wX c #D1DDF4",
"eX c #D2DEF6",
"rX c #D9D9F6",
"tX c #DFDFF7",
"yX c #D9D9F8",
"uX c #D6E3FB",
"iX c #DCE7FC",
"pX c gray88",
"aX c #E1E1F8",
"sX c #E1E1F9",
"dX c #E3E3F8",
"fX c #E4E4F9",
"gX c #E3ECFE",
"hX c #E5ECF9",
"jX c #E9E9FC",
"kX c #E9F0FE",
"lX c #EEF3FA",
"zX c gray95",
"xX c #F3F3FF",
"cX c #F2F5FB",
"vX c #F3F7FD",
"bX c #F4F4FF",
"nX c #F6F6FE",
"mX c #F6F6FF",
"MX c #F7F7FF",
"NX c #F8F9FB",
"BX c #F8F8FE",
"VX c #F8FAFD",
"CX c #FAFCFE",
"ZX c #FAFCFF",
"AX c #FBFCFE",
"SX c #FCFCFF",
"DX c #FDFDFF",
"FX c #FEFEFE",
"GX c #FEFEFF",
"HX c none",
/* pixels */
"HXHXHXHXHXHXHXHXHXvXCXHXHXHXHXHXHXHXHXHXHXHXHXHX",
"HXHXHXHXHXHXiX*X8.O.#.3.&XhXHXHXHXHXHXHXHXHXHXHX",
"HXHXHXHXkXm.K k k h g a u V H.CXHXHXHXHXHXHXHXHX",
"HXHXHX7X@.z z z l j h f p r , ;.lXHXHXHXHXHXHXHX",
"HXHXgX+.c L L L D z D h d u q ; o.lXZXHXHXHXHXHX",
"HXZX9.z L *.6.*.L z D H G N t ; & o.HXHXHXHXHXHX",
"HXuXF z L 6.;X6.L &.h.).).L.g.B @ 2 8XHXHXHXHXHX",
"HX=Xk z L *.6.=.4._.$X_.G.[.;Xd.8 O y.HXHXHXHXHX",
"HXk.j z D L L 5.#X#Xf.J A } v.$Xa.2 ..zXHXHXHXHX",
"HX1.h j z z U L.#X3.C f i r [ `.+XE Y pXHXHXHXHX",
"HXj.g h l l 2.$Xz.S g a r w y Z.4X! _ :XHXHXHXHX",
"HXH.a f g C c.$X$.f a u e : > C.4X!  .:XHXHXHXHX",
"HXeXm i d A c.$X} i u t w - # W ^ 5 w.pXHXHXHXHX",
"HXVX:.r r b c.$X<.r w : - * X X . ` N.1XbXHXHXHX",
"HXHXeXn t w ,.4XL.{ , - % 7 + . / U.4X4XI.tXHXHX",
"HXHXHXn.9 - v Z.4XoXh.| >.G.R 1 M.4X.X|.$X}.dXHX",
"HXHXHXHX-XQ # 0 s.).$X4X4XS.' 0.B.[.W.bX<X4XE.HX",
"HXHXHXHXHXcXp.6 4 T ( ) ] X.t.V.2XP.(.fXaX+X].bX",
"HXHXHXHXHXHXHXHX>Xr.w.w.u.i.Y.}.jX6X4X.X5XqXrXHX",
"HXHXHXHXHXHXHXHXHXHXHXHXHXHX~.+X5XxX X4X XHXHXHX",
"HXHXHXHXHXHXHXHXHXHXHXHXHXHXrX+X$XQ.3X$X.XbXHXHX",
"HXHXHXHXHXHXHXHXHXHXHXHXHXHXHX0X.X[.D.+X<XHXHXHX",
"HXHXHXHXHXHXHXHXHXHXHXHXHXHXHXHXaX~.R.Y.VXHXHXHX",
"HXHXHXHXHXHXHXHXHXHXHXHXHXHXHXHXHXSXVXHXHXHXHXHX"
};
