/* XPM */
const char *xpm_remove[] = {
/* columns rows colors chars-per-pixel */
"16 16 12 1",
"  c black",
". c gray38",
"X c gray52",
"o c gray56",
"O c #9D9D9D",
"+ c #A5A5A5",
"@ c #C0C0C0",
"# c #C3C3C3",
"$ c #D8D8D8",
"% c #E7E7E7",
"& c gray94",
"* c none",
/* pixels */
"****************",
"****************",
"****************",
"****************",
"****************",
"****************",
"**O.........O***",
"**.         .***",
"**@oXXXXXXXX+%**",
"***$@@@@@@@@@$**",
"***&%%%%%%%%%&**",
"****************",
"****************",
"****************",
"****************",
"****************"
};
