/* XPM */
const char *xpm_cell[] = {
/* columns rows colors chars-per-pixel */
"16 16 73 1",
"  c gray1",
". c gray4",
"X c gray7",
"o c #131313",
"O c #161616",
"+ c #181818",
"@ c #191919",
"# c gray10",
"$ c gray12",
"% c #222222",
"& c #252525",
"* c gray15",
"= c gray17",
"- c #2C2C2C",
"; c #343434",
": c gray21",
"> c gray22",
", c gray23",
"< c gray24",
"1 c gray26",
"2 c #434343",
"3 c #464646",
"4 c gray34",
"5 c gray37",
"6 c gray38",
"7 c gray39",
"8 c #646464",
"9 c #656565",
"0 c #6A6A6A",
"q c gray42",
"w c #767676",
"e c #777777",
"r c #838383",
"t c #868686",
"y c gray57",
"u c gray60",
"i c #9B9B9B",
"p c #9D9D9D",
"a c #A4A4A4",
"s c #A5A5A5",
"d c gray66",
"f c #AAAAAA",
"g c #ACACAC",
"h c gray68",
"j c gray71",
"k c #B6B6B6",
"l c gray74",
"z c #C0C0C0",
"x c #C6C6C6",
"c c gray79",
"v c #CACACA",
"b c gray82",
"n c LightGray",
"m c gray83",
"M c #D7D7D7",
"N c #DDDDDD",
"B c #DFDFDF",
"V c #E2E2E2",
"C c #E6E6E6",
"Z c #EAEAEA",
"A c gray92",
"S c #ECECEC",
"D c #EEEEEE",
"F c gray94",
"G c gray95",
"H c #F4F4F4",
"J c gray96",
"K c #F6F6F6",
"L c gray97",
"P c #F9F9F9",
"I c #FBFBFB",
"U c gray99",
"Y c none",
/* pixels */
"YYYYICZbKZMKYKCY",
"YYYG61r<fi<fG61Z",
"YYG0*jYGYIGS0*wY",
"YG0*lIYYYYG0*p=N",
"K5$iz6zbbc5*lKjG",
"M+O+O O++++dYKfI",
"b+fbcycbbf+MYM=B",
"b+bYZwZYYb+vYKjK",
"b+bYb=MYYb+bYYYY",
"b+bYSaIYSf+zMGNY",
"b+bG6:BYr;X013:Z",
"b$c0*jYYIx+z9*jY",
"b+4*lYYYYb+4*lYY",
"c.+pbbbbbs.$lYYY",
"M%-<,,,,,,%sYYYY",
"YKGGGGGGGGKYYYYY"
};
