/* XPM */
const char *icon_translate_right[] = {
/* columns rows colors chars-per-pixel */
"16 16 66 1",
"  c black",
". c #010101",
"X c gray1",
"o c #040404",
"O c gray2",
"+ c #060606",
"@ c #090909",
"# c gray4",
"$ c #0E0E0E",
"% c #101010",
"& c #111111",
"* c #161616",
"= c gray9",
"- c #181818",
"; c #1B1B1B",
": c gray11",
"> c #202020",
", c #222222",
"< c #232323",
"1 c #272727",
"2 c gray17",
"3 c #2F2F2F",
"4 c #343434",
"5 c gray21",
"6 c #393939",
"7 c #3F3F3F",
"8 c gray25",
"9 c gray33",
"0 c #565656",
"q c gray34",
"w c #585858",
"e c #5B5B5B",
"r c #5D5D5D",
"t c #5F5F5F",
"y c gray40",
"u c gray44",
"i c #717171",
"p c gray49",
"a c #7E7E7E",
"s c gray52",
"d c gray53",
"f c #8E8E8E",
"g c gray56",
"h c #909090",
"j c gray57",
"k c gray60",
"l c gray66",
"z c gray70",
"x c gray72",
"c c #C0C0C0",
"v c #C3C3C3",
"b c #C6C6C6",
"n c gray83",
"m c #E4E4E4",
"M c gray90",
"N c #E7E7E7",
"B c gray91",
"V c #ECECEC",
"C c #EEEEEE",
"Z c #EFEFEF",
"A c #F1F1F1",
"S c #F9F9F9",
"D c gray98",
"F c gray99",
"G c #FEFEFE",
"H c none",
/* pixels */
"HHHHvxHHHHHHHHHH",
"HHHA2+5bHHHHHHHH",
"HHHV>  -inHHHHHH",
"HHHHt >+ -dNHHHH",
"VBNBw tl7+ 2fVHH",
"daaa3 wHAk2  8lA",
"a2**% wHHHNf< +0",
"a*  @ wHHHHDj- 7",
"a2**% 0HHDv0@ -a",
"jddd5 wHny$ %inH",
"DDDDt 0i- $0xHHH",
"HHHH0 % +8xDHHHH",
"HHHN-  6lAHHHHHH",
"HHHS> 5BHHHHHHHH",
"HHHHzfvHHHHHHHHH",
"HHHHHHHHHHHHHHHH"
};
