/* XPM */
const char *icon_ds_individual[] = {
/* columns rows colors chars-per-pixel */
"16 16 126 2",
"   c #050303",
".  c #190002",
"X  c #130C0E",
"o  c #120E0F",
"O  c #161214",
"+  c #191616",
"@  c #191718",
"#  c gray10",
"$  c #280003",
"%  c #320003",
"&  c gray19",
"*  c gray23",
"=  c #5E040B",
"-  c #5E1210",
";  c #5F1210",
":  c #650C0B",
">  c #7E0009",
",  c #670A1C",
"<  c #7E1D1A",
"1  c #621633",
"2  c #7A1332",
"3  c #78153B",
"4  c #7C2828",
"5  c #7E2C28",
"6  c #7B1F45",
"7  c #703259",
"8  c #774F59",
"9  c #727272",
"0  c #8F000A",
"q  c #93000A",
"w  c #98000A",
"e  c #860A1D",
"r  c #8C0A1D",
"t  c #920A1E",
"y  c #8E1F1B",
"u  c #A0000B",
"i  c #AE000C",
"p  c #AF000C",
"a  c #BE000D",
"s  c #A60C16",
"d  c #89211E",
"f  c #89221F",
"g  c #801920",
"h  c #A21422",
"j  c #AA1720",
"k  c #B91D28",
"l  c #8F2625",
"z  c #812D29",
"x  c #902523",
"c  c #962F2B",
"v  c #96342F",
"b  c #9B352F",
"n  c #993230",
"m  c #9A3630",
"M  c #C8000E",
"N  c #D6000F",
"B  c #E80010",
"V  c #F00011",
"C  c #F1141F",
"Z  c #F2282F",
"A  c #F43D3F",
"S  c #A74039",
"D  c #A4443D",
"F  c #B34942",
"G  c #B64D45",
"H  c #BF4E46",
"J  c #B6534B",
"K  c #B25752",
"L  c #985266",
"P  c #B06563",
"I  c #A9717F",
"U  c #D94447",
"Y  c #C5574E",
"T  c #CF5D54",
"R  c #D05E55",
"E  c #F54541",
"W  c #E45751",
"Q  c #CA635E",
"!  c #EA675D",
"~  c #EC6A5F",
"^  c #CF6E67",
"/  c #CC6C69",
"(  c #D56C71",
")  c #E1686B",
"_  c #E96F6B",
"`  c #F66663",
"'  c #F77364",
"]  c #F87F67",
"[  c #F77D68",
"{  c #ED867D",
"}  c #868686",
"|  c #B28184",
" . c #BC8490",
".. c gray67",
"X. c #DF8D91",
"o. c #DA9398",
"O. c #EC8F87",
"+. c #EF9893",
"@. c #EE9A94",
"#. c #F99590",
"$. c #FAA488",
"%. c #F3A09A",
"&. c #FAA498",
"*. c #FAA598",
"=. c #DCA6A4",
"-. c #DDA7A5",
";. c #DCB8B8",
":. c #FAAFAA",
">. c #FAB5A4",
",. c #F6C3BD",
"<. c #C6C6C6",
"1. c gray82",
"2. c #EAC4C3",
"3. c #EFC9CC",
"4. c #F5C2C1",
"5. c #EBD7DB",
"6. c #E1DFDF",
"7. c #F2DDDC",
"8. c gray89",
"9. c #FBE4E3",
"0. c #FDF1EF",
"q. c gray95",
"w. c gray97",
"e. c #FCF5F5",
"r. c #FFFCFC",
"t. c none",
/* pixels */
"t.t.t.,.+._ ) X.3.t.t.t.t.t.t.t.",
"t.0.&.[ ' E C N k o.6.9 8.t.t.t.",
"r.&.$.>.#.` Z V M s | # 1.t.t.t.",
",.[ >.t.:.` Z V N i y O 1.t.t.t.",
"{ ' #.:.#.` Z N i 0 = o ..1.1.8.",
"W E ` ` ` A C > $ $ .   & * * } ",
"U C Z Z Z C V B a w , o <.q.q.w.",
"( N V V V V V N i q 1 O 1.t.t.t.",
"3.k M N N N M i u 3 7 @ 1.t.t.t.",
"t.o.j h t t r e 2 6 L 8 I  .5.t.",
"t.^ R T c ; ; ; ; ; ; ; ; ; 4 ;.",
"7.G J J F 5 5 5 5 5 5 5 5 5 5 P ",
"=.m v v b S D D D D D D D D D K ",
"2.f < < d H Y Y Y Y Y Y Y Y Y ^ ",
"e.l : : d ! ~ ~ ~ ~ ~ ~ ~ ~ ~ %.",
"t.=.n l Q O.O.O.O.O.O.O.O.O.+.9."
};
