/* XPM */
const char *xpm_ds_tube[] = {
/* columns rows colors chars-per-pixel */
"16 16 49 1",
"  c #5E1210",
". c #5F1210",
"X c #650C0B",
"o c #7E1D1A",
"O c #7C2828",
"+ c #7E2C28",
"@ c #8E1F1B",
"# c #89211E",
"$ c #89221F",
"% c #812D29",
"& c #8F2625",
"* c #902523",
"= c #962F2B",
"- c #96342F",
"; c #9B352F",
": c #993230",
"> c #9A3630",
", c #A74039",
"< c #A4443D",
"1 c #B34942",
"2 c #B64D45",
"3 c #BF4E46",
"4 c #B6534B",
"5 c #B25752",
"6 c #B06563",
"7 c #BF707A",
"8 c #C5574E",
"9 c #CF5D54",
"0 c #D05E55",
"q c #CA635E",
"w c #CF6E67",
"e c #CC6D69",
"r c #EA675D",
"t c #EC6A5F",
"y c #B57987",
"u c #BC8490",
"i c #DDA4A7",
"p c #DCA6A4",
"a c #DDA7A5",
"s c #DCB8B8",
"d c #EC8F87",
"f c #EE9A94",
"g c #F3A09A",
"h c #EAC4C3",
"j c #EBD7DB",
"k c #F2DDDC",
"l c #FBE4E3",
"z c #FCF5F5",
"x c none",
/* pixels */
"xxxxxxxxxxxxxxxx",
"xxxxxxxxxxxxxxxx",
"xxxxxxxxxxxxxxxx",
"xxxxxxxxxxxxxxxx",
"xxp7yyyyyyyyyujx",
"xe09=... .....Os",
"k2441%++O++++++6",
"p>-->,<<<<<<<<<5",
"h#oo#3888888888w",
"z&XX@rtttttttttg",
"xp:&qdddddddddfl",
"xxxxxxxxxxxxxxxx",
"xxxxxxxxxxxxxxxx",
"xxxxxxxxxxxxxxxx",
"xxxxxxxxxxxxxxxx",
"xxxxxxxxxxxxxxxx"
};
