/* XPM */
const char *xpm_ds_stick[] = {
/* columns rows colors chars-per-pixel */
"16 16 17 1",
"  c #060606",
". c #151515",
"X c #191919",
"o c gray10",
"O c gray19",
"+ c gray23",
"@ c #727272",
"# c #868686",
"$ c gray66",
"% c gray67",
"& c #C6C6C6",
"* c gray82",
"= c gray89",
"- c #EEEEEE",
"; c gray95",
": c gray97",
"> c none",
/* pixels */
">>>>>>>>>>>>>>>>",
">>>>>>>>>>>>>>>>",
">>>>>>>>>>>>>>>>",
">>>>>>>>>>>>>>>>",
">>>>>>>=@=>>>>>>",
">>>>>>>*o*>>>>>>",
">>>>>>>*o*>>>>>>",
">>>>=**%.%**=>>>",
">>>>#++O O++#>>>",
">>>>:;;&o&;;:>>>",
">>>>>>>*o*>>>>>>",
">>>>>>>*o*>>>>>>",
">>>>>>>-%->>>>>>",
">>>>>>>>>>>>>>>>",
">>>>>>>>>>>>>>>>",
">>>>>>>>>>>>>>>>"
};
