/* XPM */
const char *icon_bond_delete[] = {
/* columns rows colors chars-per-pixel */
"24 24 67 1",
"  c #0E0E0E",
". c #181818",
"X c #1B1B1B",
"o c gray11",
"O c gray12",
"+ c #202020",
"@ c gray13",
"# c #222222",
"$ c gray15",
"% c #2F2F2F",
"& c #3F3F3F",
"* c gray25",
"= c gray26",
"- c gray28",
"; c #515151",
": c #565656",
"> c gray34",
", c #585858",
"< c gray37",
"1 c gray38",
"2 c #656565",
"3 c #6D6D6D",
"4 c gray43",
"5 c gray44",
"6 c #7C7C7C",
"7 c gray50",
"8 c #8B8B8B",
"9 c #8D8D8D",
"0 c #909090",
"q c #979797",
"w c gray62",
"e c gray63",
"r c #ACACAC",
"t c #AEAEAE",
"y c #AFAFAF",
"u c gray71",
"i c #B9B9B9",
"p c gray73",
"a c gray74",
"s c #C0C0C0",
"d c #C8C8C8",
"f c #CDCDCD",
"g c #D0D0D0",
"h c LightGray",
"j c gray83",
"k c #D7D7D7",
"l c #D8D8D8",
"z c gray85",
"x c gray87",
"c c #DFDFDF",
"v c #E2E2E2",
"b c #E7E7E7",
"n c gray91",
"m c #ECECEC",
"M c gray94",
"N c #F1F1F1",
"B c gray95",
"V c #F6F6F6",
"C c gray97",
"Z c #F8F8F8",
"A c #F9F9F9",
"S c gray98",
"D c #FBFBFB",
"F c gray99",
"G c #FDFDFD",
"H c #FEFEFE",
"J c none",
/* pixels */
"JJJJJJJJJJJJJJJJJJJJJJJJ",
"JJJJJJJJJJJJJJJJJJJJJJJJ",
"JJJJJJJJJJJJJJJJJJJJJJJJ",
"JJJJJJJJJJJJJJJJJJJJJJJJ",
"JJJJJJJJJJJJJvaZJJJJJJJJ",
"JJJJJJJJJJJJJiiJJJJJJJJJ",
"JJJJJJJJJJJJCwvJJJJJJJJJ",
"JJJJJJJZJJJJZzZJCJJJJJJJ",
"JJJJJJZtfJJJJJJZrdJJJJJJ",
"JJJJJJJfhJMiMJJJhhJJJJJJ",
"JJJJJJJJJJb9nJJJJJJJJJJJ",
"JJJJJJJJCCChCJJmZJJJJJJJ",
"JJJJJJJz>7ZJJJM,4bJJJJJJ",
"JJZxxJu%*dJJJJJu%&dZxxJJ",
"JM5#o;o4bJJJJJJJz>o-##qZ",
"Z4#u8 2ZJJJJJJJJJm*Xt9Xe",
"zXuJZ7*CJJJJJJJJJkXtJZ7*",
"x#0ZM<;ZJJJJJJJJJx#0JM<;",
"Jqo7<$sJJJJJJJJJJJqo7<$s",
"JZe12sJJJJJJJJJJJJZe12sJ",
"JJJJJJJJJJJJJJJJJJJJJJJJ",
"JJJJJJJJJJJJJJJJJJJJJJJJ",
"JJJJJJJJJJJJJJJJJJJJJJJJ",
"JJJJJJJJJJJJJJJJJJJJJJJJ"
};
