/* XPM */
const char *xpm_bond_clear[] = {
/* columns rows colors chars-per-pixel */
"24 24 99 2",
"   c #323232",
".  c gray20",
"X  c #373737",
"o  c #393939",
"O  c #3A3A3A",
"+  c gray24",
"@  c #3E3E3E",
"#  c gray25",
"$  c gray27",
"%  c #464646",
"&  c #484848",
"*  c gray29",
"=  c #505050",
"-  c gray32",
";  c #555555",
":  c #585858",
">  c gray35",
",  c gray37",
"<  c #5F5F5F",
"1  c #606060",
"2  c #6C6C6C",
"3  c #6F6F6F",
"4  c #727272",
"5  c gray45",
"6  c gray47",
"7  c #797979",
"8  c gray48",
"9  c #FF0707",
"0  c #FF0A0A",
"q  c #FF1414",
"w  c #FF1717",
"e  c #FF1919",
"r  c #FF1A1A",
"t  c #FF2525",
"y  c #FF2727",
"u  c #FF2F2F",
"i  c #FF4646",
"p  c #FF5050",
"a  c #FF5C5C",
"s  c #FF7777",
"d  c gray51",
"f  c #838383",
"g  c #848484",
"h  c gray53",
"j  c #898989",
"k  c gray54",
"l  c gray55",
"z  c #909090",
"x  c #959595",
"c  c gray59",
"v  c #9B9B9B",
"b  c gray61",
"n  c #9D9D9D",
"m  c #9F9F9F",
"M  c gray63",
"N  c #A4A4A4",
"B  c gray65",
"V  c #AFAFAF",
"C  c gray70",
"Z  c #FF9999",
"A  c #FFA4A4",
"S  c #C0C0C0",
"D  c #C1C1C1",
"F  c #C8C8C8",
"G  c gray79",
"H  c #CECECE",
"J  c gray84",
"K  c #D7D7D7",
"L  c gray85",
"P  c #DADADA",
"I  c #FFC7C7",
"U  c #FDCFCF",
"Y  c #FFCCCC",
"T  c #FFD1D1",
"R  c #FFD6D6",
"E  c #E1E1E1",
"W  c gray90",
"Q  c #E6E6E6",
"!  c #E7E7E7",
"~  c #EAEAEA",
"^  c gray92",
"/  c gray93",
"(  c #EFEFEF",
")  c #FFE6E6",
"_  c #FFE7E7",
"`  c gray94",
"'  c #F3F3F3",
"]  c gray96",
"[  c #F6F6F6",
"{  c #FFF0F0",
"}  c #FFF5F5",
"|  c #F8F8F8",
" . c gray98",
".. c #FFFBFB",
"X. c gray99",
"o. c #FFFCFC",
"O. c #FEFEFE",
"+. c #FFFEFE",
"@. c none",
/* pixels */
"@.@.@.@.@.@.@.m l @.@.@.@.@.@.@./ 6 M d m @.^ 2 ",
"@.@.@.@.@.@.P # m @.@.@.@.@.@.@./ P c B ' @./ 6 ",
"@.@.@.@.@. .6 : / @.@.@.@.@.@.H 4 6 Q @.@.@.@.Q ",
"@.@.@.@.@.D O D @.@.@.@.@.@.Q 2 F m h  .@.@.@.@.",
"@.@.@.@.] ; 6  .@.@.@.@.@.@./ 6 M h v @.@.@.@.@.",
"@.@.@.@.^ * V @.@.@.@.@.@.@.@.^ c M ] @.@.@.@.@.",
"@.@.@.@. .3 , ' @.@.@.@.@.@.@.@.@.@./ ' @.@.@./ ",
"@.@.@.@.@.J + B @.@.@.{ ..@.@.@.@.H 4 6 Q @.H 4 ",
"@.@.@.@.@.@.c % E @.R t A @.@.@.Q 2 F m h Q 3 F ",
"@.@.@.@.@.@.^ - d ] U 0 u ) @.@.' 6 M d v / 6 M ",
"@.@.@.@.@.@.@.D 4 l U w t s @.@.@.Q c B ] @.Q c ",
"@.@.@.@.@.@.@.P @ m T r p p ..@./ / @.@.@.@.@.@.",
"@.@.@.@.@.@. .6 : ( T w r Z @.H 4 6 Q @.@.@.@.@.",
"@.@.@.@.@.@.D O D @.I 9 i } Q 2 F m k  .@.@.@.@.",
"] P J J K H = 6  .@.) a I @.( 6 m d v @.@.@.@.@.",
"k X X X X X   M @.@.@.@.@.@.@.! c B ] @.@.@.@.@.",
"= D J P J J l : / @.@.@.@.@.@.@.@.@.@./ ' @.@.@.",
"h @.@.@.@.@.^ * m @.@.@.@.@.@.@.@.@.H 4 6 Q @.@.",
"Q @.@.@.@.@.@.m + P @.@.@.@.@.@.@.^ 2 F m h  .@.",
"@.@.@.@.@.@.@.Q % d @.@.@.@.@.@.@./ 6 M d v @.@.",
"@.@.@.@.@.@.@. ., 1  .@.@.@.@.@.@.@.^ l B ] @.@.",
" .@.@.@.@.@.@.F   C @.@.@.@.@.@.@.@.@.@.@.@.@.@.",
"D @.@.@.@.@. .2 , ' @.@.@.@.@.@./ / @.@.@.@.@.@.",
"; ' @.@.@.@.F O F @.@.@.@.@.@.H 5 6 Q @.@.@.@.@."
};
