/* XPM */
const char *xpm_bond_augment[] = {
/* columns rows colors chars-per-pixel */
"24 24 121 2",
"   c #323232",
".  c gray20",
"X  c #373737",
"o  c #393939",
"O  c #3A3A3A",
"+  c gray24",
"@  c #3E3E3E",
"#  c gray25",
"$  c gray26",
"%  c #434343",
"&  c gray27",
"*  c #464646",
"=  c #484848",
"-  c #494949",
";  c gray29",
":  c gray30",
">  c #505050",
",  c gray32",
"<  c gray33",
"1  c #555555",
"2  c gray34",
"3  c #585858",
"4  c gray35",
"5  c #5A5A5A",
"6  c gray36",
"7  c gray37",
"8  c #5F5F5F",
"9  c #606060",
"0  c #6A6A6A",
"q  c #6C6C6C",
"w  c #6D6D6D",
"e  c gray43",
"r  c #6F6F6F",
"t  c #717171",
"y  c #727272",
"u  c #747474",
"i  c gray46",
"p  c #777777",
"a  c gray47",
"s  c #797979",
"d  c gray49",
"f  c #FF0707",
"g  c #FF0A0A",
"h  c #FF1414",
"j  c #FF1717",
"k  c #FF1919",
"l  c #FF1A1A",
"z  c #FF2525",
"x  c #FF2727",
"c  c #FF2F2F",
"v  c #FF4646",
"b  c #FF5050",
"n  c #FF5C5C",
"m  c #FF7777",
"M  c #818181",
"N  c gray51",
"B  c #838383",
"V  c gray52",
"C  c #868686",
"Z  c #898989",
"A  c gray54",
"S  c gray55",
"D  c #8D8D8D",
"F  c #909090",
"G  c gray57",
"H  c #929292",
"J  c #959595",
"K  c gray59",
"L  c #9A9A9A",
"P  c gray61",
"I  c #9D9D9D",
"U  c #9F9F9F",
"Y  c gray63",
"T  c gray65",
"R  c #AFAFAF",
"E  c #B2B2B2",
"W  c gray70",
"Q  c #B6B6B6",
"!  c gray",
"~  c #FF9999",
"^  c #FFA4A4",
"/  c #C0C0C0",
"(  c #C1C1C1",
")  c #C8C8C8",
"_  c #CECECE",
"`  c gray83",
"'  c gray84",
"]  c #D7D7D7",
"[  c gray85",
"{  c #DADADA",
"}  c gray87",
"|  c #FFC7C7",
" . c #FDCFCF",
".. c #FFCCCC",
"X. c #FFD1D1",
"o. c #FFD6D6",
"O. c #E1E1E1",
"+. c gray89",
"@. c #E4E4E4",
"#. c #E7E7E7",
"$. c #EAEAEA",
"%. c gray92",
"&. c gray93",
"*. c #FFE6E6",
"=. c #FFE7E7",
"-. c gray94",
";. c #F3F3F3",
":. c #F4F4F4",
">. c gray96",
",. c #F6F6F6",
"<. c gray97",
"1. c #FFF0F0",
"2. c #FFF5F5",
"3. c #F8F8F8",
"4. c gray98",
"5. c #FFFBFB",
"6. c gray99",
"7. c #FFFCFC",
"8. c #FEFEFE",
"9. c #FFFEFE",
"0. c none",
/* pixels */
"0.0.0.0.0.0.0.U S 0.0.0.0.0.0.4.y a * Q 0.4.a 3 ",
"0.0.0.0.0.0.{ # U 0.0.0.0.0.0.Q : 3 p >.0.0.} ; ",
"0.0.0.0.0.4.a 3 &.0.0.0.0.0.;.3 r 1 +.0.0.0.0.! ",
"0.0.0.0.0.( O ( 0.0.0.0.0.0.+.# Q +.0.0.0.0.0.0.",
"0.0.0.0.>.1 a 4.0.0.0.0.0.0.0.N r 4.0.0.0.0.0.0.",
"0.0.0.0.%.; R 0.0.0.0.0.0.0.0.{ * ( 0.;.;.;.>.4.",
"0.0.0.0.4.r 7 ;.0.0.0.0.0.0.0.0.K 3 ' 9 , 1 p ( ",
"0.0.0.0.0.' + T 0.0.0.1.5.0.0.0.+.; N K D D K 7 ",
"0.0.0.0.0.0.K * O.0.o.z ^ 0.0.0.0.p * y p p y p ",
"0.0.0.0.0.0.%., N >. .g c *.0.0.{ # U 0.0.0.0.0.",
"0.0.0.0.0.0.0.( y A  .j z m 0.4.a 3 ;.0.0.0.0.0.",
"0.0.0.0.0.0.0.{ # U X.l b b 5.( X ( 0.0.0.0.0.0.",
"0.0.0.0.0.0.4.a 2 -.X.h l ~ >.1 p &.4.0.0.0.0.0.",
"0.0.0.0.0.0.( O ( 0.| f v 2.%.; T r ) 0.0.0.0.0.",
">.{ ' ' ' _ > a 4.0.*.n | 0.4.r 7 0 7 ;.0.0.0.0.",
"A X X X X X . Y 0.0.0.0.0.0.0.' + S + T 0.0.0.0.",
", ! ' { ' ' D 3 &.0.0.0.0.0.0.0.K * C * O.0.0.0.",
"A 0.0.0.0.0.%.; U 0.0.0.0.0.0.0.%., a : C 0.0.0.",
"+.0.0.0.0.0.0.L + { 0.0.0.0.0.0.0.( y r R 0.0.0.",
"0.0.0.0.0.0.0.+.* N 0.0.0.0.0.0.0.{ + U 0.0.0.0.",
"0.0.0.0.0.0.0.4.7 7 4.0.0.0.0.0.4.a 3 &.0.0.0.0.",
"4.0.0.0.0.0.0.) . E 0.0.0.0.0.0.( O ( 0.0.0.0.0.",
"( 0.0.0.0.0.4.r 7 ;.0.0.0.0.0.>.3 a 4.0.0.0.0.0.",
"1 ;.0.0.0.0.) O ) 0.0.0.0.0.0.4.L O.0.0.0.0.0.0."
};
