<?xml version="1.0" encoding="UTF-8" standalone="no"?>
<!-- Created with Inkscape (http://www.inkscape.org/) -->
<svg
   xmlns:svg="http://www.w3.org/2000/svg"
   xmlns="http://www.w3.org/2000/svg"
   xmlns:xlink="http://www.w3.org/1999/xlink"
   version="1.0"
   width="100"
   height="100"
   id="svg2">
  <defs
     id="defs4" />
  <rect
     width="19.222904"
     height="19.222904"
     x="4.2703981"
     y="31.390678"
     id="rect3191"
     style="fill:#004fe1;fill-opacity:1;fill-rule:evenodd;stroke:#000000;stroke-width:1.5;stroke-linecap:round;stroke-linejoin:round;stroke-miterlimit:4;stroke-dasharray:none;stroke-dashoffset:0;stroke-opacity:1" />
  <rect
     width="19.222904"
     height="19.222904"
     x="53.435287"
     y="53.225677"
     id="rect3211"
     style="fill:#e80000;fill-opacity:1;fill-rule:evenodd;stroke:#000000;stroke-width:1.5;stroke-linecap:round;stroke-linejoin:round;stroke-miterlimit:4;stroke-dasharray:none;stroke-dashoffset:0;stroke-opacity:1" />
  <rect
     width="19.222904"
     height="19.222904"
     x="4.2703977"
     y="75.060669"
     id="rect3227"
     style="fill:#86b1ff;fill-opacity:1;fill-rule:evenodd;stroke:#000000;stroke-width:1.5;stroke-linecap:round;stroke-linejoin:round;stroke-miterlimit:4;stroke-dasharray:none;stroke-dashoffset:0;stroke-opacity:1" />
  <rect
     width="19.222904"
     height="19.222904"
     x="53.435287"
     y="75.060669"
     id="rect3231"
     style="fill:#ff6f6f;fill-opacity:1;fill-rule:evenodd;stroke:#000000;stroke-width:1.5;stroke-linecap:round;stroke-linejoin:round;stroke-miterlimit:4;stroke-dasharray:none;stroke-dashoffset:0;stroke-opacity:1" />
  <use
     transform="translate(22.653061,0)"
     id="use2528"
     x="0"
     y="0"
     width="100"
     height="100"
     xlink:href="#rect3227" />
  <use
     transform="translate(22.653061,0)"
     id="use2530"
     x="0"
     y="0"
     width="100"
     height="100"
     xlink:href="#rect3231" />
  <use
     transform="translate(22.653061,0)"
     id="use2532"
     x="0"
     y="0"
     width="100"
     height="100"
     xlink:href="#rect3211" />
  <use
     transform="translate(22.653061,-0.2040816)"
     id="use2522"
     x="0"
     y="0"
     width="100"
     height="100"
     xlink:href="#rect3191" />
  <use
     transform="translate(0,21.632653)"
     id="use2524"
     x="0"
     y="0"
     width="100"
     height="100"
     xlink:href="#rect3191" />
  <use
     transform="translate(22.653061,21.836735)"
     id="use2526"
     x="0"
     y="0"
     width="100"
     height="100"
     xlink:href="#rect3191" />
  <path
     d="M 61.040337,59.016609 L 59.434868,63.370125 L 62.651665,63.370125 L 61.040337,59.016609 M 60.372368,57.850594 L 61.714165,57.850594 L 65.048149,66.59864 L 63.81768,66.59864 L 63.020805,64.3545 L 59.077446,64.3545 L 58.280571,66.59864 L 57.032524,66.59864 L 60.372368,57.850594 M 66.272758,57.481453 L 67.350883,57.481453 L 67.350883,66.59864 L 66.272758,66.59864 L 66.272758,57.481453"
     id="text3318"
     style="font-size:12px;font-style:normal;font-weight:normal;fill:#000000;fill-opacity:1;stroke:none;font-family:Bitstream Vera Sans" />
  <rect
     width="19.222904"
     height="19.222904"
     x="4.4989777"
     y="4.7034764"
     id="rect2217"
     style="fill:#e4e7e1;fill-opacity:1;fill-rule:evenodd;stroke:#000000;stroke-width:1.5;stroke-linecap:round;stroke-linejoin:round;stroke-miterlimit:4;stroke-dasharray:none;stroke-dashoffset:0;stroke-opacity:1" />
  <path
     d="M 10.1248,8.9966755 L 11.308393,8.9966755 L 11.308393,12.582613 L 15.609175,12.582613 L 15.609175,8.9966755 L 16.792768,8.9966755 L 16.792768,17.744722 L 15.609175,17.744722 L 15.609175,13.578707 L 11.308393,13.578707 L 11.308393,17.744722 L 10.1248,17.744722 L 10.1248,8.9966755"
     id="text3300"
     style="font-size:12px;font-style:normal;font-weight:normal;fill:#000000;fill-opacity:1;stroke:none;font-family:Bitstream Vera Sans" />
  <path
     d="M 6.8920202,57.578484 L 8.4857702,57.578484 L 12.364676,64.896843 L 12.364676,57.578484 L 13.513114,57.578484 L 13.513114,66.32653 L 11.919364,66.32653 L 8.0404577,59.008171 L 8.0404577,66.32653 L 6.8920202,66.32653 L 6.8920202,57.578484 M 18.80413,63.027702 C 17.933033,63.027706 17.329518,63.127312 16.993583,63.32653 C 16.657643,63.525752 16.489675,63.865595 16.489676,64.346062 C 16.489675,64.728876 16.614675,65.033563 16.864676,65.260124 C 17.11858,65.482781 17.46233,65.594109 17.895926,65.594109 C 18.493579,65.594109 18.972094,65.383172 19.331473,64.961296 C 19.69475,64.535517 19.87639,63.971064 19.876395,63.267937 L 19.876395,63.027702 L 18.80413,63.027702 M 20.95452,62.58239 L 20.95452,66.32653 L 19.876395,66.32653 L 19.876395,65.330437 C 19.630297,65.728875 19.323656,66.023796 18.956473,66.215202 C 18.589282,66.402702 18.140064,66.496452 17.608817,66.496452 C 16.93694,66.496452 16.401784,66.308952 16.003348,65.933952 C 15.608816,65.555047 15.411551,65.049188 15.411551,64.416374 C 15.411551,63.678096 15.657644,63.121456 16.149833,62.746452 C 16.645925,62.371456 17.384205,62.183956 18.364676,62.183952 L 19.876395,62.183952 L 19.876395,62.078484 C 19.87639,61.582395 19.712328,61.199582 19.384208,60.930046 C 19.059985,60.656614 18.602954,60.519896 18.013114,60.51989 C 17.638111,60.519896 17.272877,60.56482 16.917411,60.654655 C 16.56194,60.744505 16.220144,60.87927 15.89202,61.058952 L 15.89202,60.062859 C 16.28655,59.910521 16.669362,59.79724 17.040458,59.723015 C 17.411549,59.644895 17.772877,59.605834 18.124442,59.605827 C 19.073656,59.605834 19.78264,59.851928 20.251395,60.344109 C 20.720139,60.836302 20.954514,61.582395 20.95452,62.58239"
     id="text3310"
     style="font-size:12px;font-style:normal;font-weight:normal;fill:#000000;fill-opacity:1;stroke:none;font-family:Bitstream Vera Sans" />
  <path
     d="M 28.524672,57.714539 L 30.288343,57.714539 L 32.520765,63.667664 L 34.764906,57.714539 L 36.528578,57.714539 L 36.528578,66.462585 L 35.374281,66.462585 L 35.374281,58.780945 L 33.118422,64.780945 L 31.928968,64.780945 L 29.673109,58.780945 L 29.673109,66.462585 L 28.524672,66.462585 L 28.524672,57.714539 M 43.155531,63.105164 C 43.155525,62.323918 42.993416,61.71845 42.669203,61.288757 C 42.348886,60.859075 41.897714,60.644232 41.315687,60.644226 C 40.737559,60.644232 40.286388,60.859075 39.962172,61.288757 C 39.641857,61.71845 39.481701,62.323918 39.481703,63.105164 C 39.481701,63.88251 39.641857,64.486025 39.962172,64.91571 C 40.286388,65.345399 40.737559,65.560243 41.315687,65.560242 C 41.897714,65.560243 42.348886,65.345399 42.669203,64.91571 C 42.993416,64.486025 43.155525,63.88251 43.155531,63.105164 M 44.233656,65.648132 C 44.233649,66.76532 43.985603,67.595397 43.489515,68.138367 C 42.993416,68.685239 42.233651,68.958677 41.210218,68.958679 C 40.831309,68.958677 40.473888,68.929379 40.137953,68.870789 C 39.802013,68.816099 39.475842,68.730161 39.159437,68.612976 L 39.159437,67.564148 C 39.475842,67.736022 39.788341,67.862975 40.096937,67.945007 C 40.405528,68.027037 40.719981,68.068053 41.040297,68.068054 C 41.747324,68.068053 42.27662,67.882506 42.628187,67.511414 C 42.979744,67.144225 43.155525,66.587585 43.155531,65.841492 L 43.155531,65.308289 C 42.932869,65.695008 42.647713,65.98407 42.300062,66.175476 C 41.952402,66.366882 41.536386,66.462585 41.052015,66.462585 C 40.247325,66.462585 39.598888,66.155945 39.106703,65.542664 C 38.614514,64.929384 38.368421,64.116885 38.368422,63.105164 C 38.368421,62.089543 38.614514,61.275091 39.106703,60.661804 C 39.598888,60.048529 40.247325,59.741889 41.052015,59.741882 C 41.536386,59.741889 41.952402,59.837592 42.300062,60.028992 C 42.647713,60.220404 42.932869,60.509466 43.155531,60.896179 L 43.155531,59.900085 L 44.233656,59.900085 L 44.233656,65.648132"
     id="text3314"
     style="font-size:12px;font-style:normal;font-weight:normal;fill:#000000;fill-opacity:1;stroke:none;font-family:Bitstream Vera Sans" />
  <path
     d="M 86.421875,58.273758 L 86.421875,59.428055 C 85.97265,59.213219 85.548823,59.053062 85.150391,58.947586 C 84.751948,58.842125 84.367183,58.789391 83.996094,58.789383 C 83.351559,58.789391 82.853513,58.914391 82.501953,59.164383 C 82.154295,59.41439 81.980467,59.769859 81.980469,60.230789 C 81.980467,60.617514 82.095701,60.910483 82.326172,61.109695 C 82.560544,61.305013 83.00195,61.463216 83.650391,61.584305 L 84.365234,61.730789 C 85.248042,61.898763 85.898432,62.195637 86.316406,62.621414 C 86.738275,63.043293 86.949212,63.609699 86.949219,64.320633 C 86.949212,65.168291 86.664056,65.810868 86.09375,66.248367 C 85.527338,66.685867 84.695308,66.904617 83.597656,66.904617 C 83.183591,66.904617 82.742185,66.857747 82.273438,66.763992 C 81.808592,66.670242 81.326171,66.531571 80.826172,66.347977 L 80.826172,65.129227 C 81.306639,65.398759 81.777342,65.601884 82.238281,65.738602 C 82.699216,65.875321 83.152341,65.943681 83.597656,65.94368 C 84.273433,65.943681 84.794917,65.810868 85.162109,65.545242 C 85.529291,65.279619 85.712885,64.900713 85.712891,64.408524 C 85.712885,63.978839 85.580073,63.642902 85.314453,63.400711 C 85.052729,63.158527 84.621089,62.976887 84.019531,62.855789 L 83.298828,62.715164 C 82.416013,62.539387 81.777342,62.263997 81.382812,61.888992 C 80.98828,61.513998 80.791015,60.992514 80.791016,60.324539 C 80.791015,59.551109 81.062499,58.941734 81.605469,58.496414 C 82.152342,58.05111 82.904294,57.828454 83.861328,57.828445 C 84.27148,57.828454 84.689448,57.865565 85.115234,57.939774 C 85.54101,58.014004 85.976557,58.125329 86.421875,58.273758 M 88.748047,60.172195 L 89.826172,60.172195 L 89.826172,66.734695 L 88.748047,66.734695 L 88.748047,60.172195 M 88.748047,57.617508 L 89.826172,57.617508 L 89.826172,58.982742 L 88.748047,58.982742 L 88.748047,57.617508"
     id="text3322"
     style="font-size:12px;font-style:normal;font-weight:normal;fill:#000000;fill-opacity:1;stroke:none;font-family:Bitstream Vera Sans" />
  <path
     d="M 10.157326,80.401466 L 11.340919,80.401466 L 11.340919,84.098732 L 15.266701,80.401466 L 16.790138,80.401466 L 12.448341,84.479591 L 17.100685,89.149513 L 15.542091,89.149513 L 11.340919,84.936623 L 11.340919,89.149513 L 10.157326,89.149513 L 10.157326,80.401466"
     id="text3326"
     style="font-size:12px;font-style:normal;font-weight:normal;fill:#000000;fill-opacity:1;stroke:none;font-family:Bitstream Vera Sans" />
  <path
     d="M 36.299944,80.905373 L 36.299944,82.153419 C 35.901499,81.782333 35.475718,81.504989 35.0226,81.321388 C 34.573375,81.137802 34.09486,81.046006 33.587053,81.045998 C 32.587049,81.046006 31.821425,81.352646 31.290178,81.965919 C 30.758926,82.575301 30.493301,83.458113 30.493303,84.614357 C 30.493301,85.766704 30.758926,86.649516 31.290178,87.262794 C 31.821425,87.872171 32.587049,88.176858 33.587053,88.176857 C 34.09486,88.176858 34.573375,88.085057 35.0226,87.901466 C 35.475718,87.717874 35.901499,87.44053 36.299944,87.069435 L 36.299944,88.305763 C 35.885874,88.587014 35.446421,88.797951 34.981585,88.938576 C 34.520641,89.079201 34.03236,89.149513 33.516741,89.149513 C 32.192518,89.149513 31.149551,88.745217 30.387835,87.936623 C 29.626115,87.124124 29.245256,86.016704 29.245256,84.614357 C 29.245256,83.208113 29.626115,82.100692 30.387835,81.292091 C 31.149551,80.4796 32.192518,80.07335 33.516741,80.073341 C 34.040173,80.07335 34.53236,80.143661 34.993303,80.284279 C 35.45814,80.421006 35.893687,80.628037 36.299944,80.905373 M 41.075335,85.680763 C 40.204238,85.680767 39.600723,85.780373 39.264788,85.979591 C 38.928848,86.178813 38.76088,86.518656 38.760881,86.999123 C 38.76088,87.381937 38.88588,87.686624 39.135881,87.913185 C 39.389785,88.135842 39.733535,88.24717 40.167131,88.247169 C 40.764784,88.24717 41.243299,88.036233 41.602678,87.614357 C 41.965955,87.188578 42.147595,86.624125 42.1476,85.920998 L 42.1476,85.680763 L 41.075335,85.680763 M 43.225725,85.235451 L 43.225725,88.979591 L 42.1476,88.979591 L 42.1476,87.983498 C 41.901501,88.381936 41.594861,88.676857 41.227678,88.868263 C 40.860487,89.055763 40.411269,89.149513 39.880022,89.149513 C 39.208145,89.149513 38.672989,88.962013 38.274553,88.587013 C 37.880021,88.208108 37.682756,87.702249 37.682756,87.069435 C 37.682756,86.331157 37.928849,85.774516 38.421038,85.399513 C 38.917129,85.024517 39.65541,84.837017 40.635881,84.837013 L 42.1476,84.837013 L 42.1476,84.731544 C 42.147595,84.235455 41.983533,83.852643 41.655413,83.583107 C 41.33119,83.309675 40.874159,83.172957 40.284319,83.172951 C 39.909316,83.172957 39.544082,83.217881 39.188616,83.307716 C 38.833145,83.397566 38.491349,83.532331 38.163225,83.712013 L 38.163225,82.715919 C 38.557755,82.563582 38.940567,82.450301 39.311663,82.376076 C 39.682754,82.297956 40.044081,82.258895 40.395647,82.258888 C 41.344861,82.258895 42.053845,82.504988 42.5226,82.997169 C 42.991344,83.489362 43.225719,84.235455 43.225725,85.235451"
     id="text3330"
     style="font-size:12px;font-style:normal;font-weight:normal;fill:#000000;fill-opacity:1;stroke:none;font-family:Bitstream Vera Sans" />
  <path
     d="M 80.168922,80.401466 L 87.569313,80.401466 L 87.569313,81.39756 L 84.463844,81.39756 L 84.463844,89.149513 L 83.274391,89.149513 L 83.274391,81.39756 L 80.168922,81.39756 L 80.168922,80.401466 M 88.301735,82.587013 L 89.37986,82.587013 L 89.37986,89.149513 L 88.301735,89.149513 L 88.301735,82.587013 M 88.301735,80.032326 L 89.37986,80.032326 L 89.37986,81.39756 L 88.301735,81.39756 L 88.301735,80.032326"
     id="text3338"
     style="font-size:12px;font-style:normal;font-weight:normal;fill:#000000;fill-opacity:1;stroke:none;font-family:Bitstream Vera Sans" />
  <path
     d="M 9.2428141,36.652134 L 10.426408,36.652134 L 10.426408,44.404087 L 14.686173,44.404087 L 14.686173,45.400181 L 9.2428141,45.400181 L 9.2428141,36.652134 M 15.875627,38.837681 L 16.953752,38.837681 L 16.953752,45.400181 L 15.875627,45.400181 L 15.875627,38.837681 M 15.875627,36.282993 L 16.953752,36.282993 L 16.953752,37.648228 L 15.875627,37.648228 L 15.875627,36.282993"
     id="text3342"
     style="font-size:12px;font-style:normal;font-weight:normal;fill:#000000;fill-opacity:1;stroke:none;font-family:Bitstream Vera Sans" />
  <path
     d="M 31.109716,41.222446 L 31.109716,44.427525 L 33.008154,44.427525 C 33.644868,44.427526 34.11557,44.296666 34.420263,44.034946 C 34.728851,43.769323 34.883148,43.365027 34.883154,42.822056 C 34.883148,42.275184 34.728851,41.872841 34.420263,41.615025 C 34.11557,41.35331 33.644868,41.222451 33.008154,41.222446 L 31.109716,41.222446 M 31.109716,37.62479 L 31.109716,40.261509 L 32.86167,40.261509 C 33.43979,40.261514 33.869477,40.154092 34.150732,39.939243 C 34.435883,39.720499 34.578461,39.388468 34.578466,38.94315 C 34.578461,38.50175 34.435883,38.171672 34.150732,37.952915 C 33.869477,37.734173 33.43979,37.624798 32.86167,37.62479 L 31.109716,37.62479 M 29.926123,36.652134 L 32.94956,36.652134 C 33.851899,36.652143 34.547211,36.839643 35.035498,37.214634 C 35.523772,37.589642 35.767913,38.122844 35.76792,38.814243 C 35.767913,39.349406 35.642913,39.775186 35.39292,40.091587 C 35.142913,40.407998 34.775726,40.605264 34.291357,40.683384 C 34.873382,40.808389 35.324554,41.070107 35.644873,41.46854 C 35.969084,41.863075 36.131193,42.357215 36.131201,42.950962 C 36.131193,43.732214 35.865569,44.335729 35.334326,44.761509 C 34.80307,45.18729 34.047211,45.400181 33.066748,45.400181 L 29.926123,45.400181 L 29.926123,36.652134 M 43.719091,41.8494 L 43.719091,42.376743 L 38.76206,42.376743 C 38.80893,43.118933 39.031589,43.685339 39.430029,44.075962 C 39.83237,44.462682 40.390963,44.656041 41.10581,44.65604 C 41.519868,44.656041 41.920258,44.60526 42.306982,44.503696 C 42.697601,44.402135 43.08432,44.249791 43.467138,44.046665 L 43.467138,45.066196 C 43.080413,45.230259 42.683929,45.355259 42.277685,45.441196 C 41.87143,45.527136 41.459321,45.570103 41.041357,45.570103 C 39.994479,45.570103 39.164402,45.265415 38.551123,44.65604 C 37.941747,44.046667 37.63706,43.222449 37.63706,42.183384 C 37.63706,41.109169 37.926122,40.257608 38.504248,39.628696 C 39.086277,38.99589 39.869479,38.679484 40.853857,38.679478 C 41.736665,38.679484 42.43393,38.96464 42.945654,39.534946 C 43.461272,40.101358 43.719085,40.872842 43.719091,41.8494 M 42.640966,41.532993 C 42.633166,40.943154 42.467133,40.472451 42.14292,40.120884 C 41.822602,39.769327 41.396821,39.593546 40.865576,39.59354 C 40.26401,39.593546 39.781589,39.763468 39.41831,40.103306 C 39.058933,40.443155 38.851902,40.92167 38.797216,41.538853 L 42.640966,41.532953"
     id="text3346"
     style="font-size:12px;font-style:normal;font-weight:normal;fill:#000000;fill-opacity:1;stroke:none;font-family:Bitstream Vera Sans" />
  <path
     d="M 62.34024,80.518654 L 62.34024,81.672951 C 61.891016,81.458115 61.467188,81.297958 61.068756,81.192482 C 60.670314,81.087021 60.285549,81.034287 59.914459,81.034279 C 59.269925,81.034287 58.771878,81.159287 58.420319,81.409279 C 58.07266,81.659286 57.898832,82.014755 57.898834,82.475685 C 57.898832,82.86241 58.014067,83.155378 58.244537,83.354591 C 58.47891,83.549909 58.920316,83.708112 59.568756,83.829201 L 60.2836,83.975685 C 61.166407,84.143659 61.816797,84.440533 62.234772,84.86631 C 62.65664,85.288189 62.867577,85.854594 62.867584,86.565529 C 62.867577,87.413187 62.582421,88.055764 62.012115,88.493263 C 61.445704,88.930763 60.613673,89.149513 59.516022,89.149513 C 59.101956,89.149513 58.66055,89.102643 58.191803,89.008888 C 57.726957,88.915138 57.244536,88.776467 56.744537,88.592873 L 56.744537,87.374123 C 57.225005,87.643655 57.695707,87.84678 58.156647,87.983498 C 58.617582,88.120217 59.070706,88.188577 59.516022,88.188576 C 60.191799,88.188577 60.713283,88.055764 61.080475,87.790138 C 61.447657,87.524515 61.63125,87.145609 61.631256,86.653419 C 61.63125,86.223735 61.498438,85.887798 61.232819,85.645607 C 60.971095,85.403423 60.539455,85.221783 59.937897,85.100685 L 59.217194,84.96006 C 58.334379,84.784283 57.695707,84.508893 57.301178,84.133888 C 56.906646,83.758893 56.70938,83.23741 56.709381,82.569435 C 56.70938,81.796005 56.980864,81.18663 57.523834,80.74131 C 58.070707,80.296006 58.822659,80.07335 59.779694,80.073341 C 60.189846,80.07335 60.607814,80.110461 61.0336,80.184669 C 61.459376,80.258899 61.894922,80.370225 62.34024,80.518654 M 69.389069,82.669044 L 69.389069,83.676857 C 69.084376,83.508894 68.777735,83.383894 68.469147,83.301857 C 68.164455,83.215927 67.855861,83.172957 67.543365,83.172951 C 66.844143,83.172957 66.301175,83.395613 65.914459,83.840919 C 65.527738,84.28233 65.334379,84.903424 65.334381,85.704201 C 65.334379,86.504984 65.527738,87.128031 65.914459,87.573341 C 66.301175,88.014749 66.844143,88.235451 67.543365,88.235451 C 67.855861,88.235451 68.164455,88.194431 68.469147,88.112404 C 68.777735,88.026464 69.084376,87.899514 69.389069,87.731544 L 69.389069,88.727638 C 69.088282,88.868263 68.775782,88.973732 68.451569,89.044044 C 68.131252,89.114354 67.789455,89.149513 67.426178,89.149513 C 66.437894,89.149513 65.652738,88.838967 65.070709,88.217873 C 64.488677,87.59678 64.197662,86.75889 64.197662,85.704201 C 64.197662,84.633893 64.49063,83.792097 65.076569,83.17881 C 65.66641,82.565535 66.47305,82.258895 67.49649,82.258888 C 67.828517,82.258895 68.152736,82.294048 68.469147,82.364357 C 68.785548,82.430767 69.092188,82.532332 69.389069,82.669044"
     id="text3350"
     style="font-size:12px;font-style:normal;font-weight:normal;fill:#000000;fill-opacity:1;stroke:none;font-family:Bitstream Vera Sans" />
</svg>
