<?xml version="1.0" encoding="UTF-8" standalone="no"?>
<!-- Created with Inkscape (http://www.inkscape.org/) -->
<svg
   xmlns:svg="http://www.w3.org/2000/svg"
   xmlns="http://www.w3.org/2000/svg"
   xmlns:xlink="http://www.w3.org/1999/xlink"
   version="1.0"
   width="100"
   height="100"
   id="svg2">
  <defs
     id="defs4">
    <linearGradient
       id="linearGradient3187">
      <stop
         id="stop3189"
         style="stop-color:#cccdff;stop-opacity:1"
         offset="0" />
      <stop
         id="stop3191"
         style="stop-color:#cccdca;stop-opacity:0.33333334"
         offset="1" />
    </linearGradient>
    <linearGradient
       id="linearGradient3384">
      <stop
         id="stop3386"
         style="stop-color:#0000ff;stop-opacity:1"
         offset="0" />
      <stop
         id="stop3388"
         style="stop-color:#000000;stop-opacity:1"
         offset="1" />
    </linearGradient>
    <linearGradient
       id="linearGradient3252">
      <stop
         id="stop3254"
         style="stop-color:#ffffff;stop-opacity:1"
         offset="0" />
      <stop
         id="stop3256"
         style="stop-color:#7f7fff;stop-opacity:0"
         offset="1" />
    </linearGradient>
    <linearGradient
       x1="3.5899789"
       y1="36.400818"
       x2="97.023521"
       y2="36.400818"
       id="linearGradient3217"
       xlink:href="#linearGradient3187"
       gradientUnits="userSpaceOnUse" />
    <linearGradient
       x1="25.398125"
       y1="63.345894"
       x2="90.625114"
       y2="63.345894"
       id="linearGradient3554"
       xlink:href="#linearGradient3384"
       gradientUnits="userSpaceOnUse"
       gradientTransform="matrix(0.2688926,0.2688926,-0.2688926,0.2688926,38.227733,-8.4494346)" />
    <radialGradient
       cx="58.01162"
       cy="63.345894"
       r="33.113495"
       fx="58.01162"
       fy="63.345894"
       id="radialGradient3556"
       xlink:href="#linearGradient3252"
       gradientUnits="userSpaceOnUse"
       gradientTransform="matrix(0.2134373,0,0,0.2134373,19.805211,5.9610473)" />
  </defs>
  <path
     d="M 26.65819,28.427684 C 26.65904,33.311317 22.70032,37.270737 17.81668,37.270737 C 12.93305,37.270737 8.97432,33.311317 8.97518,28.427684 C 8.97432,23.54405 12.93305,19.58463 17.81668,19.58463 C 22.70032,19.58463 26.65904,23.54405 26.65819,28.427684 L 26.65819,28.427684 z"
     id="path3691"
     style="fill:#eaede8;fill-opacity:1;fill-rule:evenodd;stroke:none" />
  <use
     transform="translate(21.837569,39.568928)"
     id="use2515"
     x="0"
     y="0"
     width="100"
     height="100"
     xlink:href="#path3691" />
  <use
     transform="translate(75.031646,22.957444)"
     id="use2517"
     x="0"
     y="0"
     width="100"
     height="100"
     xlink:href="#path3691" />
  <g
     transform="matrix(0.3686705,0.6772687,-0.6772687,0.3686705,65.198663,12.433035)"
     id="g3669"
     style="fill:#eef3f1;fill-opacity:1;stroke:none">
    <path
       d="M 96.52352,59.509204 C 67.068177,59.509204 45.054405,59.509204 4.089979,59.509204 C 4.089979,33.997547 24.795092,13.292434 50.306749,13.292434 C 75.818406,13.292434 96.52352,33.997547 96.52352,59.509204 z"
       id="path3671"
       style="fill:#eef3f1;fill-opacity:1;fill-rule:evenodd;stroke:none" />
    <path
       d="M 49.946865,59.191757 L 16.406253,44.970273 M 50.235165,58.898277 L 50.306755,21.911679 M 50.611846,59.057108 L 84.207245,44.970273 M 87.000381,59.26463 L 49.946865,59.337502 L 13.613118,59.26463 M 24.360434,32.852106 L 50.10289,58.954052 L 36.264704,24.755004 M 64.348795,24.755004 L 50.51061,58.954052 L 76.253065,32.852106"
       id="path3673"
       style="fill:#eef3f1;fill-opacity:1;fill-rule:evenodd;stroke:none" />
    <text
       x="16.601501"
       y="32.732803"
       id="text3675"
       xml:space="preserve"
       style="font-size:6.36857796px;font-style:normal;font-weight:normal;fill:#eef3f1;fill-opacity:1;stroke:none;font-family:Bitstream Vera Sans"><tspan
         x="16.601501"
         y="32.732803"
         id="tspan3677">45</tspan></text>
    <text
       x="45.530113"
       y="19.400709"
       id="text3679"
       xml:space="preserve"
       style="font-size:6.36857796px;font-style:normal;font-weight:normal;fill:#eef3f1;fill-opacity:1;stroke:none;font-family:Bitstream Vera Sans"><tspan
         x="45.530113"
         y="19.400709"
         id="tspan3681">90</tspan></text>
    <text
       x="72.773872"
       y="32.981483"
       id="text3683"
       xml:space="preserve"
       style="font-size:6.36857796px;font-style:normal;font-weight:normal;fill:#eef3f1;fill-opacity:1;stroke:none;font-family:Bitstream Vera Sans"><tspan
         x="72.773872"
         y="32.981483"
         id="tspan3685">135</tspan></text>
  </g>
  <path
     d="M 18.4239,28.683634 C 41.42722,70.513443 40.77595,70.923693 40.77595,70.923693"
     id="path3687"
     style="fill:none;stroke:#e8edea;stroke-width:3;stroke-linecap:round;stroke-linejoin:round;stroke-miterlimit:4;stroke-dasharray:3, 3;stroke-dashoffset:0;stroke-opacity:1" />
  <path
     d="M 91.209695,53.226538 C 39.58218,69.316272 41.04386,69.474074 41.04386,69.474074"
     id="path3697"
     style="fill:none;stroke:#e8edea;stroke-width:2.78739214;stroke-linecap:round;stroke-linejoin:round;stroke-miterlimit:4;stroke-dasharray:2.78739208, 2.78739208;stroke-dashoffset:0;stroke-opacity:1" />
  <g
     transform="matrix(0.3686705,0.6772687,-0.6772687,0.3686705,59.897473,-0.7809528)"
     id="g3207">
    <path
       d="M 96.52352,59.509204 C 67.068177,59.509204 45.054405,59.509204 4.089979,59.509204 C 4.089979,33.997547 24.795092,13.292434 50.306749,13.292434 C 75.818406,13.292434 96.52352,33.997547 96.52352,59.509204 z"
       id="path2200"
       style="fill:url(#linearGradient3217);fill-opacity:1;fill-rule:evenodd;stroke:#000000;stroke-width:1px;stroke-linecap:butt;stroke-linejoin:miter;stroke-opacity:1" />
    <path
       d="M 49.946865,59.191757 L 16.406253,44.970273 M 50.235165,58.898277 L 50.306755,21.911679 M 50.611846,59.057108 L 84.207245,44.970273 M 87.000381,59.26463 L 49.946865,59.337502 L 13.613118,59.26463 M 24.360434,32.852106 L 50.10289,58.954052 L 36.264704,24.755004 M 64.348795,24.755004 L 50.51061,58.954052 L 76.253065,32.852106"
       id="path3183"
       style="fill:none;stroke:#000000;stroke-width:0.64609098;stroke-linecap:round;stroke-linejoin:round;stroke-miterlimit:4;stroke-dasharray:none;stroke-dashoffset:0;stroke-opacity:1" />
    <text
       x="16.601501"
       y="32.732803"
       id="text3195"
       xml:space="preserve"
       style="font-size:6.36857796px;font-style:normal;font-weight:normal;fill:#000000;fill-opacity:1;stroke:none;font-family:Bitstream Vera Sans"><tspan
         x="16.601501"
         y="32.732803"
         id="tspan3197">45</tspan></text>
    <text
       x="45.530113"
       y="19.400709"
       id="text3199"
       xml:space="preserve"
       style="font-size:6.36857796px;font-style:normal;font-weight:normal;fill:#000000;fill-opacity:1;stroke:none;font-family:Bitstream Vera Sans"><tspan
         x="45.530113"
         y="19.400709"
         id="tspan3201">90</tspan></text>
    <text
       x="72.773872"
       y="32.981483"
       id="text3203"
       xml:space="preserve"
       style="font-size:6.36857796px;font-style:normal;font-weight:normal;fill:#000000;fill-opacity:1;stroke:none;font-family:Bitstream Vera Sans"><tspan
         x="72.773872"
         y="32.981483"
         id="tspan3205">135</tspan></text>
  </g>
  <path
     d="M 13.12271,15.469647 C 36.126035,57.299456 35.474761,57.709706 35.474761,57.709706"
     id="path2696"
     style="fill:none;stroke:#000000;stroke-width:3;stroke-linecap:round;stroke-linejoin:round;stroke-miterlimit:4;stroke-dasharray:3, 3;stroke-dashoffset:0;stroke-opacity:1" />
  <g
     transform="matrix(0.7129105,0,0,0.7129105,-13.623221,-2.0592625)"
     id="g3546">
    <path
       d="M 49.066773,24.22879 C 49.067973,31.079065 43.515064,36.632947 36.664788,36.632947 C 29.814513,36.632947 24.261604,31.079065 24.262803,24.22879 C 24.261603,17.378514 29.814513,11.824633 36.664788,11.824633 C 43.515064,11.824633 49.067972,17.378514 49.066773,24.22879 L 49.066773,24.22879 L 49.066773,24.22879 z"
       id="path3548"
       style="fill:#0000ff;fill-opacity:1;fill-rule:evenodd;stroke:#000000;stroke-width:0.38027155px;stroke-linecap:butt;stroke-linejoin:miter;stroke-opacity:1" />
    <path
       d="M 45.562914,32.95223 C 40.719885,37.796953 32.866199,37.797641 28.022324,32.95373 C 23.178446,28.109853 23.179135,20.256167 28.023824,15.41314 C 32.866852,10.568415 40.720538,10.567727 45.564415,15.41164 C 50.40829,20.255516 50.407602,28.109203 45.562915,32.952231 L 45.562915,32.952231 L 45.562914,32.95223 z"
       id="path3550"
       style="opacity:0.71739131;fill:url(#linearGradient3554);fill-opacity:1;fill-rule:evenodd;stroke:none" />
    <path
       d="M 39.147988,19.481422 C 39.148661,23.326315 36.031948,26.443576 32.187053,26.443576 C 28.342159,26.443576 25.225445,23.326315 25.226118,19.481422 C 25.225445,15.636527 28.342159,12.519268 32.187053,12.519268 C 36.031948,12.519268 39.148661,15.636527 39.147988,19.481422 L 39.147988,19.481422 z"
       id="path3552"
       style="fill:url(#radialGradient3556);fill-opacity:1;fill-rule:evenodd;stroke:none" />
  </g>
  <path
     d="M 85.908505,40.012551 C 34.280987,56.102285 35.742674,56.260087 35.742674,56.260087"
     id="path3667"
     style="fill:none;stroke:#000000;stroke-width:2.78739214;stroke-linecap:round;stroke-linejoin:round;stroke-miterlimit:4;stroke-dasharray:2.78739208, 2.78739208;stroke-dashoffset:0;stroke-opacity:1" />
  <use
     transform="translate(73.725125,24.637257)"
     id="use2508"
     x="0"
     y="0"
     width="100"
     height="100"
     xlink:href="#g3546" />
  <use
     transform="translate(22.584152,40.688803)"
     id="use2506"
     x="0"
     y="0"
     width="100"
     height="100"
     xlink:href="#g3546" />
</svg>
