<?xml version="1.0" encoding="UTF-8" standalone="no"?>
<!-- Created with Inkscape (http://www.inkscape.org/) -->
<svg
   xmlns:dc="http://purl.org/dc/elements/1.1/"
   xmlns:cc="http://web.resource.org/cc/"
   xmlns:rdf="http://www.w3.org/1999/02/22-rdf-syntax-ns#"
   xmlns:svg="http://www.w3.org/2000/svg"
   xmlns="http://www.w3.org/2000/svg"
   xmlns:xlink="http://www.w3.org/1999/xlink"
   xmlns:sodipodi="http://sodipodi.sourceforge.net/DTD/sodipodi-0.dtd"
   xmlns:inkscape="http://www.inkscape.org/namespaces/inkscape"
   version="1.0"
   width="100"
   height="100"
   id="svg2"
   sodipodi:version="0.32"
   inkscape:version="0.45.1"
   sodipodi:docname="stack_transform.svg"
   sodipodi:docbase="/home/tris/src/aten/src/gui-qt/icons"
   inkscape:output_extension="org.inkscape.output.svg.inkscape">
  <metadata
     id="metadata2566">
    <rdf:RDF>
      <cc:Work
         rdf:about="">
        <dc:format>image/svg+xml</dc:format>
        <dc:type
           rdf:resource="http://purl.org/dc/dcmitype/StillImage" />
      </cc:Work>
    </rdf:RDF>
  </metadata>
  <sodipodi:namedview
     inkscape:window-height="714"
     inkscape:window-width="1024"
     inkscape:pageshadow="2"
     inkscape:pageopacity="0.0"
     guidetolerance="10.0"
     gridtolerance="10.0"
     objecttolerance="10.0"
     borderopacity="1.0"
     bordercolor="#666666"
     pagecolor="#ffffff"
     id="base"
     inkscape:zoom="4.9"
     inkscape:cx="50"
     inkscape:cy="49.897959"
     inkscape:window-x="60"
     inkscape:window-y="52"
     inkscape:current-layer="svg2" />
  <defs
     id="defs4">
    <radialGradient
       inkscape:collect="always"
       xlink:href="#linearGradient3189"
       id="radialGradient4239"
       gradientUnits="userSpaceOnUse"
       gradientTransform="matrix(-1.7093778,0,0,1.91594,141.7618,8.2882328)"
       cx="50.059151"
       cy="48.853989"
       fx="50.059151"
       fy="48.853989"
       r="42.138133" />
    <radialGradient
       inkscape:collect="always"
       xlink:href="#linearGradient3197"
       id="radialGradient4237"
       gradientUnits="userSpaceOnUse"
       gradientTransform="matrix(-1.7093778,0,0,1.91594,141.7618,8.2882328)"
       cx="50.059151"
       cy="48.853989"
       fx="50.059151"
       fy="48.853989"
       r="42.138133" />
    <linearGradient
       inkscape:collect="always"
       id="linearGradient3189">
      <stop
         style="stop-color:#000000;stop-opacity:1;"
         offset="0"
         id="stop3191" />
      <stop
         style="stop-color:#000000;stop-opacity:0;"
         offset="1"
         id="stop3193" />
    </linearGradient>
    <linearGradient
       id="linearGradient3197">
      <stop
         style="stop-color:#e4e1e1;stop-opacity:1;"
         offset="0"
         id="stop3199" />
      <stop
         style="stop-color:#e4af00;stop-opacity:1;"
         offset="1"
         id="stop3201" />
    </linearGradient>
    <linearGradient
       id="linearGradient3384">
      <stop
         style="stop-color:#00ffff;stop-opacity:1;"
         offset="0"
         id="stop3386" />
      <stop
         style="stop-color:#000000;stop-opacity:1"
         offset="1"
         id="stop3388" />
    </linearGradient>
    <linearGradient
       id="linearGradient3252">
      <stop
         style="stop-color:#ffffff;stop-opacity:1"
         offset="0"
         id="stop3254" />
      <stop
         style="stop-color:#7f7fff;stop-opacity:0;"
         offset="1"
         id="stop3256" />
    </linearGradient>
    <radialGradient
       inkscape:collect="always"
       xlink:href="#linearGradient3197"
       id="radialGradient2631"
       gradientUnits="userSpaceOnUse"
       gradientTransform="matrix(0.9573786,0,0,1.0730688,80.465469,10.134207)"
       cx="50.059151"
       cy="48.853989"
       fx="50.059151"
       fy="48.853989"
       r="42.138133" />
    <radialGradient
       inkscape:collect="always"
       xlink:href="#linearGradient3189"
       id="radialGradient2633"
       gradientUnits="userSpaceOnUse"
       gradientTransform="matrix(0.9573786,0,0,1.0730688,80.465469,10.134207)"
       cx="50.059151"
       cy="48.853989"
       fx="50.059151"
       fy="48.853989"
       r="42.138133" />
    <radialGradient
       inkscape:collect="always"
       xlink:href="#linearGradient3252"
       id="radialGradient3792"
       gradientUnits="userSpaceOnUse"
       gradientTransform="matrix(0.2237392,-7.1617456e-2,7.1617456e-2,0.2237392,19.937628,29.084819)"
       cx="58.01162"
       cy="63.345894"
       fx="58.01162"
       fy="63.345894"
       r="33.113495" />
    <linearGradient
       inkscape:collect="always"
       xlink:href="#linearGradient3384"
       id="linearGradient3795"
       gradientUnits="userSpaceOnUse"
       gradientTransform="matrix(0.3720963,0.191646,-0.191646,0.3720963,34.414004,7.797236)"
       x1="25.398125"
       y1="63.345894"
       x2="90.625114"
       y2="63.345894" />
  </defs>
  <g
     id="g3840"
     transform="translate(187.34695,64.081632)">
    <path
       d="M -126.00971,-11.530369 C -123.70989,-4.3498556 -127.66725,3.3353344 -134.84817,5.6338994 C -142.02908,7.9324624 -149.71358,3.9737544 -152.01089,-3.2075626 C -154.31071,-10.388077 -150.35335,-18.073267 -143.17243,-20.371831 C -135.99151,-22.670395 -128.30702,-18.711688 -126.00971,-11.530369 L -126.00971,-11.530369 z "
       style="fill:#e7e7e8;fill-opacity:1;fill-rule:evenodd;stroke:none;stroke-width:1;stroke-linecap:butt;stroke-linejoin:miter;stroke-miterlimit:4;stroke-dasharray:none;stroke-opacity:1"
       id="path3798" />
    <path
       sodipodi:nodetypes="cccccsssccsssc"
       id="path3806"
       d="M -139.05373,-38.026387 L -140.08301,-45.486573 L -119.9708,-34.647679 L -140.08301,-23.808786 L -139.05373,-31.052735 C -151.7642,-31.052735 -162.083,-20.73393 -162.083,-8.0234656 C -162.083,4.6870005 -151.7642,15.005802 -139.05373,15.005804 C -126.34326,15.005804 -116.02446,4.6870021 -116.02446,-8.0234656 C -116.02446,-14.378697 -118.61337,-20.126811 -122.78187,-24.29532 L -117.83545,-29.241748 C -112.93543,-25.032389 -109.05081,-16.303718 -109.05081,-8.0234656 C -109.05081,8.5370368 -122.49323,21.979456 -139.05373,21.979456 C -155.61423,21.979456 -169.05665,8.5370383 -169.05665,-8.0234656 C -169.05665,-24.583971 -155.61423,-38.026387 -139.05373,-38.026387 z "
       style="fill:#e7e7e8;fill-opacity:1;fill-rule:evenodd;stroke:none;stroke-width:3.82575941;stroke-linecap:round;stroke-linejoin:round;stroke-miterlimit:4;stroke-dasharray:none;stroke-dashoffset:0;stroke-opacity:1" />
    <path
       sodipodi:nodetypes="cccccccc"
       id="path3812"
       d="M -111.21617,26.865627 L -118.38543,36.329797 L -128.72346,1.8250827 L -94.218744,12.163113 L -103.44185,19.091307 C -102.55624,19.976916 -91.476917,31.231666 -90.526579,32.006577 L -98.300899,39.780897 L -111.21617,26.865627 z "
       style="fill:#e7e7e8;fill-opacity:1;fill-rule:evenodd;stroke:none;stroke-width:3.80853939;stroke-linecap:round;stroke-linejoin:round;stroke-miterlimit:4;stroke-dasharray:none;stroke-dashoffset:0;stroke-opacity:1" />
  </g>
  <path
     id="path3560"
     style="fill:#0000ff;fill-opacity:1;fill-rule:evenodd;stroke:#000000;stroke-width:1;stroke-linecap:butt;stroke-linejoin:miter;stroke-miterlimit:4;stroke-dasharray:none;stroke-opacity:1"
     d="M 56.741168,38.415764 C 59.040989,45.596277 55.083628,53.281467 47.902712,55.580032 C 40.721797,57.878595 33.037299,53.919887 30.739992,46.73857 C 28.440171,39.558056 32.397533,31.872866 39.578448,29.574302 C 46.759365,27.275738 54.443861,31.234445 56.741168,38.415764 L 56.741168,38.415764 z " />
  <path
     id="path3562"
     style="opacity:0.71739131;fill:url(#linearGradient3795);fill-opacity:1;fill-rule:evenodd;stroke:none;stroke-width:1px;stroke-linecap:butt;stroke-linejoin:miter;stroke-opacity:1"
     d="M 55.995281,48.735952 C 52.544109,55.43956 44.311583,58.075533 37.60858,54.623189 C 30.905574,51.170845 28.271044,42.937857 31.724562,36.235458 C 35.175732,29.531849 43.408258,26.895876 50.111263,30.348219 C 56.814266,33.800563 59.448797,42.033553 55.995281,48.735952 L 55.995281,48.735952 z " />
  <path
     id="path3564"
     style="fill:url(#radialGradient3792);fill-opacity:1;fill-rule:evenodd;stroke:none;stroke-width:1px;stroke-linecap:butt;stroke-linejoin:miter;stroke-opacity:1"
     d="M 44.750688,36.767438 C 46.041522,40.797685 43.820352,45.111198 39.789876,46.401327 C 35.759402,47.691456 31.446278,45.469527 30.156856,41.438828 C 28.866021,37.408578 31.087194,33.095067 35.117668,31.804939 C 39.148143,30.51481 43.461265,32.736737 44.750688,36.767438 L 44.750688,36.767438 z " />
  <g
     id="g2627"
     transform="matrix(0.7651519,0,0,0.7651519,-54.541488,-9.6737223)">
    <path
       sodipodi:nodetypes="cccccsssccsssc"
       id="path3205"
       d="M 128.39103,28.221152 L 127.04583,18.471211 L 153.33109,32.636887 L 127.04583,46.802562 L 128.39103,37.335227 C 111.77934,37.335227 98.293388,50.821183 98.293388,67.432871 C 98.293388,84.044561 111.77934,97.530513 128.39103,97.530515 C 145.00272,97.530515 158.48868,84.044563 158.48867,67.432871 C 158.48867,59.127028 155.10515,51.614645 149.65721,46.166696 L 156.12184,39.70206 C 162.52582,45.203398 167.60275,56.611161 167.60275,67.432871 C 167.60275,89.076289 150.03445,106.64459 128.39103,106.64459 C 106.74762,106.64459 89.179312,89.076291 89.179312,67.432871 C 89.179312,45.789449 106.74761,28.221152 128.39103,28.221152 z "
       style="fill:none;fill-opacity:1;fill-rule:evenodd;stroke:#000000;stroke-width:5;stroke-linecap:round;stroke-linejoin:round;stroke-miterlimit:4;stroke-dasharray:none;stroke-dashoffset:0;stroke-opacity:1" />
    <path
       sodipodi:nodetypes="cccccsssccsssc"
       id="path3176"
       d="M 128.39103,28.221152 L 127.04583,18.471211 L 153.33109,32.636887 L 127.04583,46.802562 L 128.39103,37.335228 C 111.77934,37.335228 98.293386,50.821183 98.293386,67.432871 C 98.293386,84.044561 111.77934,97.530513 128.39103,97.530515 C 145.00272,97.530515 158.48868,84.044563 158.48867,67.432871 C 158.48867,59.127028 155.10515,51.614645 149.6572,46.166696 L 156.12184,39.702061 C 162.52583,45.203398 167.60275,56.611161 167.60275,67.432871 C 167.60275,89.076289 150.03445,106.64459 128.39103,106.64459 C 106.74761,106.64459 89.179311,89.076291 89.179311,67.432871 C 89.179311,45.789449 106.74761,28.221152 128.39103,28.221152 z "
       style="fill:url(#radialGradient2631);fill-opacity:1;fill-rule:evenodd;stroke:url(#radialGradient2633);stroke-width:2.26085615;stroke-linecap:round;stroke-linejoin:round;stroke-miterlimit:4;stroke-dashoffset:0;stroke-opacity:1" />
  </g>
  <g
     id="g4217"
     transform="matrix(0.4777442,0.4777442,0.4777442,-0.4777442,25.30156,69.3543)">
    <path
       sodipodi:nodetypes="cccccccc"
       id="path3242"
       d="M 56.191798,40.582064 L 58.593618,23.173764 L 11.661868,48.466259 L 58.593618,73.75875 L 56.191798,56.85504 C 58.045528,56.85504 81.420038,56.67144 83.225658,56.85504 L 83.225658,40.582064 L 56.191798,40.582064 z "
       style="fill:none;fill-opacity:1;fill-rule:evenodd;stroke:#000000;stroke-width:5.63700008;stroke-linecap:round;stroke-linejoin:round;stroke-miterlimit:4;stroke-dasharray:none;stroke-dashoffset:0;stroke-opacity:1" />
    <path
       sodipodi:nodetypes="cccccccc"
       id="path2820"
       d="M 56.191794,40.582064 L 58.593619,23.173764 L 11.661867,48.466259 L 58.593619,73.75875 L 56.191794,56.85504 C 58.045532,56.85504 81.420037,56.67144 83.225659,56.85504 L 83.225659,40.582064 L 56.191794,40.582064 z "
       style="fill:url(#radialGradient4237);fill-opacity:1;fill-rule:evenodd;stroke:url(#radialGradient4239);stroke-width:4.0367074;stroke-linecap:round;stroke-linejoin:round;stroke-miterlimit:4;stroke-dashoffset:0;stroke-opacity:1" />
  </g>
</svg>
