/* XPM */
const char *icon_select_element[] = {
/* columns rows colors chars-per-pixel */
"24 24 154 2",
"   c gray4",
".  c gray9",
"X  c gray10",
"o  c gray11",
"O  c #272727",
"+  c #2A2A2A",
"@  c #2F2F2F",
"#  c #373737",
"$  c gray22",
"%  c #393939",
"&  c #397913",
"*  c gray33",
"=  c gray34",
"-  c #585858",
";  c gray40",
":  c #6D6D6D",
">  c #767676",
",  c #FF1010",
"<  c #FF1111",
"1  c #FF1616",
"2  c #FF1717",
"3  c #FF1818",
"4  c #FF1919",
"5  c #FF1A1A",
"6  c #C33314",
"7  c #DB3623",
"8  c #FF2525",
"9  c #FF2828",
"0  c #FF2A2A",
"q  c #FF2B2B",
"w  c #FF2C2C",
"e  c #FF7C7C",
"r  c #18830F",
"t  c #198310",
"y  c #1A8311",
"u  c #188714",
"i  c #188B17",
"p  c #188B18",
"a  c #188C18",
"s  c #188D18",
"d  c #198D19",
"f  c #1A8C1A",
"g  c #1A8D1A",
"h  c #1E9119",
"j  c #189618",
"k  c #1A951A",
"l  c #21B713",
"z  c #2C952C",
"x  c #40BD2E",
"c  c #19C215",
"v  c #1AC216",
"b  c #18C318",
"n  c #19C619",
"m  c #1AC61A",
"M  c #3ACB38",
"N  c #3ACE3A",
"B  c #3BCE3B",
"V  c #40D040",
"C  c #4D4DFF",
"Z  c #5050FF",
"A  c #5151FF",
"S  c #5252FF",
"D  c #5353FF",
"F  c #6161FF",
"G  c #6464FF",
"H  c #6666FF",
"J  c #8B8B8B",
"K  c #8D8D8D",
"L  c #929292",
"P  c #959595",
"I  c #9D9D9D",
"U  c gray62",
"Y  c #A0A0A0",
"T  c gray63",
"R  c #A4A4A4",
"E  c gray65",
"W  c gray67",
"Q  c gray71",
"!  c gray72",
"~  c #FF8787",
"^  c #FF8888",
"/  c #FF8B8B",
"(  c #FF8D8D",
")  c #FF9999",
"_  c #FF9B9B",
"`  c #FF9D9D",
"'  c #FF9E9E",
"]  c #D1A28B",
"[  c #DFA189",
"{  c #FFA0A0",
"}  c #FFAAAA",
"|  c #FFABAB",
" . c #FFBCBC",
".. c #A1D1A1",
"X. c #AAD5AA",
"o. c #A1E5A1",
"O. c #AAEAAA",
"+. c #D3C6A6",
"@. c #D1C2AB",
"#. c #D1D1AF",
"$. c #D1E1BE",
"%. c #A8A8FF",
"&. c #BFBFFF",
"*. c gray80",
"=. c gray82",
"-. c #D5D5D5",
";. c gray84",
":. c #FFC3C3",
">. c #FFC6C6",
",. c #FFCACA",
"<. c #FFD1D1",
"1. c #FFD5D5",
"2. c #FFDCDC",
"3. c #FFDFDF",
"4. c #C6E3C6",
"5. c #C6EEC6",
"6. c #D1E8D1",
"7. c #DFEFDF",
"8. c #D1F4D1",
"9. c #C1C1FF",
"0. c #C6C6FF",
"q. c #CECEFF",
"w. c #D0D0FF",
"e. c #D2D2FF",
"r. c #DDDDFF",
"t. c #E4E4E4",
"y. c #E7E7E7",
"u. c gray91",
"i. c #EEEEEE",
"p. c #EFEFEF",
"a. c #FFE8E8",
"s. c #FFEFEF",
"d. c #F4F7EF",
"f. c #E0E0FF",
"g. c #E1E1FF",
"h. c #E7E7FF",
"j. c #EAEAFF",
"k. c #EBEBFF",
"l. c gray94",
"z. c #F6F6F6",
"x. c gray97",
"c. c #FFF4F4",
"v. c #F2FCF2",
"b. c #F4FCF4",
"n. c #F4F4FF",
"m. c #F7F7FF",
"M. c #F9F9F9",
"N. c gray98",
"B. c #FFF9F9",
"V. c snow",
"C. c gray99",
"Z. c #FCFCFF",
"A. c #FEFEFE",
"S. c none",
/* pixels */
"S.S.S.S.S.S.S.S.S.S.S.S.S.S.S.S.S.S.S.S.S.S.S.S.",
"p.u.u.u.p.S.S.S.S.S.S.S.S.S.S.S.S.S.S.S.S.S.S.S.",
"P K K K P p.S.S.S.S.l.S.S.S.S.S.S.S.S.S.S.S.S.S.",
"K -.u.-.K u.S.S.S.-.O R S.S.S.S.S.S.S.S.S.S.S.S.",
"K u.S.y.K u.S.S.S.*.  @ y.S.S.S.S.S.S.S.S.S.S.S.",
"K -.y.-.K u.S.S.S.-.. O > N.S.S.S.S.S.S.S.S.S.S.",
"Y I I I Y p.S.S.S.*.X K o Q S.S.S.S.S.S.S.S.S.S.",
"N.N.N.N.N.S.S.S.S.-.X *.; % y.S.S.S.S.S.S.S.S.S.",
"h.r.r.r.h.S.S.S.S.*.. W Q O : S.S.S.S.7.6.6.6.7.",
"F D D S F h.S.S.S.p.= # # + = S.S.S.7.z f f f z ",
"D &.r.&.S r.S.S.S.S.x.t.= L x.S.S.S.6.f X.6.X.s ",
"D r.S.r.S r.S.S.S.S.S.S.Y R N.S.S.S.6.f 6.S.6.f ",
"S %.&.%.A r.S.3.<.<.,.:.<.<.<.:.<.<.@.i X.6.X.a ",
"S C C C S e.3.w 3 5 3 2 3 3 2 2 3 3 6 u f f f i ",
"S &.r.&.D r.<.3 | <./ , | <./ < | <.] r ..4...d ",
"S r.S.r.D r.<.3 <.S.| < <.S.| < <.S.@.t 6.S.6.f ",
"S 9.r.&.S r.<.3 | <./ , | ,./ , | ,.] r X.6.X.d ",
"G G G G G g.<.w 0 0 8 2 0 w 8 2 0 w 7 & g k k j ",
"9.g.k.g.9.n.a.^ ,.2. .e ,.3. .e ,.3.+.l o.5.o.c ",
"0.n.S.n.0.n.a.( a.S.1./ a.S.<./ a.S.$.c 8.S.8.m ",
"0.j.n.j.0.n.a.( 1.a.:./ 1.a.:./ 1.a.#.c O.8.O.m ",
"q.q.q.q.w.n.s.{ ' ' ) ( ) ' ) / ) ' [ x M B B V ",
"Z.Z.Z.Z.S.S.S.V.V.c.V.c.V.V.V.c.V.V.V.d.v.v.v.v.",
"S.S.S.S.S.S.S.S.S.S.S.S.S.S.S.S.S.S.S.S.S.S.S.S."
};
