<?xml version="1.0" encoding="UTF-8" standalone="no"?>
<!-- Created with Inkscape (http://www.inkscape.org/) -->
<svg
   xmlns:dc="http://purl.org/dc/elements/1.1/"
   xmlns:cc="http://web.resource.org/cc/"
   xmlns:rdf="http://www.w3.org/1999/02/22-rdf-syntax-ns#"
   xmlns:svg="http://www.w3.org/2000/svg"
   xmlns="http://www.w3.org/2000/svg"
   xmlns:xlink="http://www.w3.org/1999/xlink"
   xmlns:sodipodi="http://sodipodi.sourceforge.net/DTD/sodipodi-0.dtd"
   xmlns:inkscape="http://www.inkscape.org/namespaces/inkscape"
   version="1.0"
   width="100"
   height="100"
   id="svg2"
   sodipodi:version="0.32"
   inkscape:version="0.45.1"
   sodipodi:docname="basic_define.svg"
   sodipodi:docbase="/home/tris/src/aten/src/gui/icons"
   inkscape:output_extension="org.inkscape.output.svg.inkscape">
  <metadata
     id="metadata2566">
    <rdf:RDF>
      <cc:Work
         rdf:about="">
        <dc:format>image/svg+xml</dc:format>
        <dc:type
           rdf:resource="http://purl.org/dc/dcmitype/StillImage" />
      </cc:Work>
    </rdf:RDF>
  </metadata>
  <sodipodi:namedview
     inkscape:window-height="714"
     inkscape:window-width="1024"
     inkscape:pageshadow="2"
     inkscape:pageopacity="0.0"
     guidetolerance="10.0"
     gridtolerance="10.0"
     objecttolerance="10.0"
     borderopacity="1.0"
     bordercolor="#666666"
     pagecolor="#ffffff"
     id="base"
     inkscape:zoom="3.4648232"
     inkscape:cx="-11.35493"
     inkscape:cy="59.319796"
     inkscape:window-x="0"
     inkscape:window-y="44"
     inkscape:current-layer="svg2" />
  <defs
     id="defs4">
    <linearGradient
       id="linearGradient3384">
      <stop
         style="stop-color:#0000ff;stop-opacity:1;"
         offset="0"
         id="stop3386" />
      <stop
         style="stop-color:#000000;stop-opacity:1"
         offset="1"
         id="stop3388" />
    </linearGradient>
    <linearGradient
       id="linearGradient3252">
      <stop
         style="stop-color:#ffffff;stop-opacity:1"
         offset="0"
         id="stop3254" />
      <stop
         style="stop-color:#7f7fff;stop-opacity:0;"
         offset="1"
         id="stop3256" />
    </linearGradient>
    <linearGradient
       inkscape:collect="always"
       xlink:href="#linearGradient3384"
       id="linearGradient2206"
       gradientUnits="userSpaceOnUse"
       gradientTransform="matrix(0.2377304,0.2377304,-0.2377304,0.2377304,39.711053,40.887748)"
       x1="25.398125"
       y1="63.345894"
       x2="90.625114"
       y2="63.345894" />
    <radialGradient
       inkscape:collect="always"
       xlink:href="#linearGradient3252"
       id="radialGradient2208"
       gradientUnits="userSpaceOnUse"
       gradientTransform="matrix(0.1887019,0,0,0.1887019,23.423531,53.628189)"
       cx="58.01162"
       cy="63.345894"
       fx="58.01162"
       fy="63.345894"
       r="33.113495" />
    <linearGradient
       inkscape:collect="always"
       xlink:href="#linearGradient3384"
       id="linearGradient2193"
       gradientUnits="userSpaceOnUse"
       gradientTransform="matrix(0.2377304,0.2377304,-0.2377304,0.2377304,39.711053,40.887748)"
       x1="25.398125"
       y1="63.345894"
       x2="90.625114"
       y2="63.345894" />
    <radialGradient
       inkscape:collect="always"
       xlink:href="#linearGradient3252"
       id="radialGradient2195"
       gradientUnits="userSpaceOnUse"
       gradientTransform="matrix(0.1887019,0,0,0.1887019,23.423531,53.628189)"
       cx="58.01162"
       cy="63.345894"
       fx="58.01162"
       fy="63.345894"
       r="33.113495" />
    <linearGradient
       inkscape:collect="always"
       xlink:href="#linearGradient3384"
       id="linearGradient2211"
       gradientUnits="userSpaceOnUse"
       gradientTransform="matrix(0.2377304,0.2377304,-0.2377304,0.2377304,39.711053,40.887748)"
       x1="25.398125"
       y1="63.345894"
       x2="90.625114"
       y2="63.345894" />
    <radialGradient
       inkscape:collect="always"
       xlink:href="#linearGradient3252"
       id="radialGradient2213"
       gradientUnits="userSpaceOnUse"
       gradientTransform="matrix(0.1887019,0,0,0.1887019,23.423531,53.628189)"
       cx="58.01162"
       cy="63.345894"
       fx="58.01162"
       fy="63.345894"
       r="33.113495" />
  </defs>
  <path
     sodipodi:type="arc"
     style="fill:#9da29f;fill-opacity:1;fill-rule:evenodd;stroke:none;stroke-width:1px;stroke-linecap:butt;stroke-linejoin:miter;stroke-opacity:1"
     id="path3265"
     sodipodi:cx="105.54481"
     sodipodi:cy="47.27103"
     sodipodi:rx="16.939291"
     sodipodi:ry="16.939291"
     d="M 122.4841 47.27103 A 16.939291 16.939291 0 1 1  88.605516,47.27103 A 16.939291 16.939291 0 1 1  122.4841 47.27103 z"
     transform="translate(-48.967353,34.967367)" />
  <path
     sodipodi:type="arc"
     style="fill:#afafff;fill-opacity:1;fill-rule:evenodd;stroke:#000000;stroke-width:1px;stroke-linecap:butt;stroke-linejoin:miter;stroke-opacity:1"
     id="path4651"
     sodipodi:cx="105.54481"
     sodipodi:cy="47.27103"
     sodipodi:rx="16.939291"
     sodipodi:ry="16.939291"
     d="M 122.4841 47.27103 A 16.939291 16.939291 0 1 1  88.605516,47.27103 A 16.939291 16.939291 0 1 1  122.4841 47.27103 z"
     transform="translate(-56.620773,26.230146)" />
  <g
     id="use2628"
     transform="translate(10.705886,3.722307)">
    <path
       d="M 49.293948,69.778869 C 49.295009,75.835261 44.385631,80.745499 38.329238,80.745499 C 32.272846,80.745499 27.363468,75.835261 27.364529,69.778869 C 27.363468,63.722478 32.272846,58.812239 38.329238,58.812239 C 44.385631,58.812239 49.295009,63.722478 49.293948,69.778869 L 49.293948,69.778869 z "
       style="fill:#0000ff;fill-opacity:1;fill-rule:evenodd;stroke:#000000;stroke-width:0.33620161px;stroke-linecap:butt;stroke-linejoin:miter;stroke-opacity:1"
       id="path2200" />
    <path
       d="M 46.196153,77.491343 C 41.914388,81.774609 34.970871,81.775217 30.688355,77.492701 C 26.405839,73.210186 26.406448,66.266669 30.689713,61.984903 C 34.971479,57.701637 41.914996,57.701029 46.197511,61.983544 C 50.480027,66.266061 50.479419,73.209578 46.196153,77.491343 L 46.196153,77.491343 z "
       style="opacity:0.71739131;fill:url(#linearGradient2206);fill-opacity:1;fill-rule:evenodd;stroke:none;stroke-width:1px;stroke-linecap:butt;stroke-linejoin:miter;stroke-opacity:1"
       id="path2202" />
    <path
       d="M 40.524659,65.581677 C 40.525254,68.980984 37.769738,71.736982 34.370431,71.736982 C 30.971125,71.736982 28.215609,68.980984 28.216204,65.581677 C 28.215609,62.18237 30.971125,59.426372 34.370431,59.426372 C 37.769738,59.426372 40.525254,62.18237 40.524659,65.581677 L 40.524659,65.581677 z "
       style="fill:url(#radialGradient2208);fill-opacity:1;fill-rule:evenodd;stroke:none;stroke-width:1px;stroke-linecap:butt;stroke-linejoin:miter;stroke-opacity:1"
       id="path2204" />
  </g>
  <path
     transform="translate(-80.233047,-18.630964)"
     d="M 122.4841 47.27103 A 16.939291 16.939291 0 1 1  88.605516,47.27103 A 16.939291 16.939291 0 1 1  122.4841 47.27103 z"
     sodipodi:ry="16.939291"
     sodipodi:rx="16.939291"
     sodipodi:cy="47.27103"
     sodipodi:cx="105.54481"
     id="path2181"
     style="fill:#9da29f;fill-opacity:1;fill-rule:evenodd;stroke:none;stroke-width:1px;stroke-linecap:butt;stroke-linejoin:miter;stroke-opacity:1"
     sodipodi:type="arc" />
  <path
     transform="translate(-87.886467,-27.368185)"
     d="M 122.4841 47.27103 A 16.939291 16.939291 0 1 1  88.605516,47.27103 A 16.939291 16.939291 0 1 1  122.4841 47.27103 z"
     sodipodi:ry="16.939291"
     sodipodi:rx="16.939291"
     sodipodi:cy="47.27103"
     sodipodi:cx="105.54481"
     id="path2183"
     style="fill:#afafff;fill-opacity:1;fill-rule:evenodd;stroke:#000000;stroke-width:1px;stroke-linecap:butt;stroke-linejoin:miter;stroke-opacity:1"
     sodipodi:type="arc" />
  <g
     transform="translate(-20.559808,-49.876024)"
     id="g2185">
    <path
       id="path2187"
       style="fill:#0000ff;fill-opacity:1;fill-rule:evenodd;stroke:#000000;stroke-width:0.33620161px;stroke-linecap:butt;stroke-linejoin:miter;stroke-opacity:1"
       d="M 49.293948,69.778869 C 49.295009,75.835261 44.385631,80.745499 38.329238,80.745499 C 32.272846,80.745499 27.363468,75.835261 27.364529,69.778869 C 27.363468,63.722478 32.272846,58.812239 38.329238,58.812239 C 44.385631,58.812239 49.295009,63.722478 49.293948,69.778869 L 49.293948,69.778869 z " />
    <path
       id="path2189"
       style="opacity:0.71739131;fill:url(#linearGradient2193);fill-opacity:1;fill-rule:evenodd;stroke:none;stroke-width:1px;stroke-linecap:butt;stroke-linejoin:miter;stroke-opacity:1"
       d="M 46.196153,77.491343 C 41.914388,81.774609 34.970871,81.775217 30.688355,77.492701 C 26.405839,73.210186 26.406448,66.266669 30.689713,61.984903 C 34.971479,57.701637 41.914996,57.701029 46.197511,61.983544 C 50.480027,66.266061 50.479419,73.209578 46.196153,77.491343 L 46.196153,77.491343 z " />
    <path
       id="path2191"
       style="fill:url(#radialGradient2195);fill-opacity:1;fill-rule:evenodd;stroke:none;stroke-width:1px;stroke-linecap:butt;stroke-linejoin:miter;stroke-opacity:1"
       d="M 40.524659,65.581677 C 40.525254,68.980984 37.769738,71.736982 34.370431,71.736982 C 30.971125,71.736982 28.215609,68.980984 28.216204,65.581677 C 28.215609,62.18237 30.971125,59.426372 34.370431,59.426372 C 37.769738,59.426372 40.525254,62.18237 40.524659,65.581677 L 40.524659,65.581677 z " />
  </g>
  <path
     transform="translate(-19.449431,-18.630964)"
     d="M 122.4841 47.27103 A 16.939291 16.939291 0 1 1  88.605516,47.27103 A 16.939291 16.939291 0 1 1  122.4841 47.27103 z"
     sodipodi:ry="16.939291"
     sodipodi:rx="16.939291"
     sodipodi:cy="47.27103"
     sodipodi:cx="105.54481"
     id="path2199"
     style="fill:#9da29f;fill-opacity:1;fill-rule:evenodd;stroke:none;stroke-width:1px;stroke-linecap:butt;stroke-linejoin:miter;stroke-opacity:1"
     sodipodi:type="arc" />
  <path
     transform="translate(-27.102851,-27.368185)"
     d="M 122.4841 47.27103 A 16.939291 16.939291 0 1 1  88.605516,47.27103 A 16.939291 16.939291 0 1 1  122.4841 47.27103 z"
     sodipodi:ry="16.939291"
     sodipodi:rx="16.939291"
     sodipodi:cy="47.27103"
     sodipodi:cx="105.54481"
     id="path2201"
     style="fill:#afafff;fill-opacity:1;fill-rule:evenodd;stroke:#000000;stroke-width:1px;stroke-linecap:butt;stroke-linejoin:miter;stroke-opacity:1"
     sodipodi:type="arc" />
  <g
     transform="translate(40.223808,-49.876024)"
     id="g2203">
    <path
       id="path2205"
       style="fill:#0000ff;fill-opacity:1;fill-rule:evenodd;stroke:#000000;stroke-width:0.33620161px;stroke-linecap:butt;stroke-linejoin:miter;stroke-opacity:1"
       d="M 49.293948,69.778869 C 49.295009,75.835261 44.385631,80.745499 38.329238,80.745499 C 32.272846,80.745499 27.363468,75.835261 27.364529,69.778869 C 27.363468,63.722478 32.272846,58.812239 38.329238,58.812239 C 44.385631,58.812239 49.295009,63.722478 49.293948,69.778869 L 49.293948,69.778869 z " />
    <path
       id="path2207"
       style="opacity:0.71739131;fill:url(#linearGradient2211);fill-opacity:1;fill-rule:evenodd;stroke:none;stroke-width:1px;stroke-linecap:butt;stroke-linejoin:miter;stroke-opacity:1"
       d="M 46.196153,77.491343 C 41.914388,81.774609 34.970871,81.775217 30.688355,77.492701 C 26.405839,73.210186 26.406448,66.266669 30.689713,61.984903 C 34.971479,57.701637 41.914996,57.701029 46.197511,61.983544 C 50.480027,66.266061 50.479419,73.209578 46.196153,77.491343 L 46.196153,77.491343 z " />
    <path
       id="path2209"
       style="fill:url(#radialGradient2213);fill-opacity:1;fill-rule:evenodd;stroke:none;stroke-width:1px;stroke-linecap:butt;stroke-linejoin:miter;stroke-opacity:1"
       d="M 40.524659,65.581677 C 40.525254,68.980984 37.769738,71.736982 34.370431,71.736982 C 30.971125,71.736982 28.215609,68.980984 28.216204,65.581677 C 28.215609,62.18237 30.971125,59.426372 34.370431,59.426372 C 37.769738,59.426372 40.525254,62.18237 40.524659,65.581677 L 40.524659,65.581677 z " />
  </g>
  <g
     id="g5143"
     transform="translate(-1.7316901,-0.57723)">
    <path
       style="fill:none;fill-opacity:1;fill-rule:evenodd;stroke:#000000;stroke-width:3.19749999;stroke-linecap:round;stroke-linejoin:round;stroke-miterlimit:4;stroke-dasharray:6.395, 3.1975;stroke-dashoffset:0;stroke-opacity:1"
       d="M 49.935183,53.626362 L 49.935183,42.489802"
       id="use2648"
       sodipodi:nodetypes="cc" />
    <path
       transform="translate(-59.591837,-15.714286)"
       d="M 112.82837 53.975346 A 3.3013465 3.3013465 0 1 1  106.22568,53.975346 A 3.3013465 3.3013465 0 1 1  112.82837 53.975346 z"
       sodipodi:ry="3.3013465"
       sodipodi:rx="3.3013465"
       sodipodi:cy="53.975346"
       sodipodi:cx="109.52702"
       id="path3185"
       style="fill:none;fill-rule:evenodd;stroke:#000000;stroke-width:3.19749999;stroke-linecap:butt;stroke-linejoin:miter;stroke-miterlimit:4;stroke-dasharray:6.395, 3.1975;stroke-dashoffset:0;stroke-opacity:1"
       sodipodi:type="arc" />
    <path
       style="fill:none;fill-opacity:1;fill-rule:evenodd;stroke:#000000;stroke-width:3.19749999;stroke-linecap:round;stroke-linejoin:round;stroke-miterlimit:4;stroke-dasharray:6.395, 3.1975;stroke-dashoffset:0;stroke-opacity:1"
       d="M 49.935183,22.885838 L 49.935183,34.022398"
       id="path4156"
       sodipodi:nodetypes="cc" />
    <path
       style="fill:none;fill-opacity:1;fill-rule:evenodd;stroke:#000000;stroke-width:3.19749999;stroke-linecap:round;stroke-linejoin:round;stroke-miterlimit:4;stroke-dasharray:6.395, 3.1975;stroke-dashoffset:0;stroke-opacity:1"
       d="M 34.511418,38.26106 L 45.647973,38.26106"
       id="path4158"
       sodipodi:nodetypes="cc" />
    <path
       style="fill:none;fill-opacity:1;fill-rule:evenodd;stroke:#000000;stroke-width:3.19749999;stroke-linecap:round;stroke-linejoin:round;stroke-miterlimit:4;stroke-dasharray:6.395, 3.1975;stroke-dashoffset:0;stroke-opacity:1"
       d="M 65.310413,38.26106 L 54.173853,38.26106"
       id="path4160"
       sodipodi:nodetypes="cc" />
  </g>
</svg>
