<?xml version="1.0" encoding="UTF-8" standalone="no"?>
<!-- Created with Inkscape (http://www.inkscape.org/) -->
<svg
   xmlns:dc="http://purl.org/dc/elements/1.1/"
   xmlns:cc="http://creativecommons.org/ns#"
   xmlns:rdf="http://www.w3.org/1999/02/22-rdf-syntax-ns#"
   xmlns:svg="http://www.w3.org/2000/svg"
   xmlns="http://www.w3.org/2000/svg"
   xmlns:xlink="http://www.w3.org/1999/xlink"
   xmlns:sodipodi="http://sodipodi.sourceforge.net/DTD/sodipodi-0.dtd"
   xmlns:inkscape="http://www.inkscape.org/namespaces/inkscape"
   version="1.0"
   width="100"
   height="100"
   id="svg2"
   sodipodi:version="0.32"
   inkscape:version="0.46"
   sodipodi:docname="stack_zmatrix.svg"
   sodipodi:docbase="/home/tris/src/aten/src/gui/icons"
   inkscape:output_extension="org.inkscape.output.svg.inkscape">
  <metadata
     id="metadata2566">
    <rdf:RDF>
      <cc:Work
         rdf:about="">
        <dc:format>image/svg+xml</dc:format>
        <dc:type
           rdf:resource="http://purl.org/dc/dcmitype/StillImage" />
      </cc:Work>
    </rdf:RDF>
  </metadata>
  <sodipodi:namedview
     inkscape:window-height="840"
     inkscape:window-width="1440"
     inkscape:pageshadow="2"
     inkscape:pageopacity="0.0"
     guidetolerance="10.0"
     gridtolerance="10.0"
     objecttolerance="10.0"
     borderopacity="1.0"
     bordercolor="#666666"
     pagecolor="#ffffff"
     id="base"
     inkscape:zoom="5.4759972"
     inkscape:cx="36.952838"
     inkscape:cy="55.728847"
     inkscape:window-x="0"
     inkscape:window-y="0"
     inkscape:current-layer="svg2"
     showgrid="false" />
  <defs
     id="defs4">
    <inkscape:perspective
       sodipodi:type="inkscape:persp3d"
       inkscape:vp_x="0 : 50 : 1"
       inkscape:vp_y="0 : 1000 : 0"
       inkscape:vp_z="100 : 50 : 1"
       inkscape:persp3d-origin="50 : 33.333333 : 1"
       id="perspective51" />
    <linearGradient
       id="linearGradient3461">
      <stop
         style="stop-color:#ffffff;stop-opacity:1;"
         offset="0"
         id="stop3463" />
      <stop
         style="stop-color:#008a00;stop-opacity:0;"
         offset="1"
         id="stop3465" />
    </linearGradient>
    <linearGradient
       id="linearGradient3449">
      <stop
         style="stop-color:#00db00;stop-opacity:1;"
         offset="0"
         id="stop3451" />
      <stop
         style="stop-color:#009d00;stop-opacity:0;"
         offset="1"
         id="stop3453" />
    </linearGradient>
    <linearGradient
       inkscape:collect="always"
       xlink:href="#linearGradient3449"
       id="linearGradient2448"
       gradientUnits="userSpaceOnUse"
       x1="8.6629602"
       y1="60.740168"
       x2="30.595094"
       y2="60.740168" />
    <radialGradient
       inkscape:collect="always"
       xlink:href="#linearGradient3461"
       id="radialGradient2450"
       gradientUnits="userSpaceOnUse"
       gradientTransform="matrix(1,0,0,1.0001751,0,-9.906416e-3)"
       cx="15.556526"
       cy="56.583721"
       fx="15.556526"
       fy="56.583721"
       r="6.1542277" />
    <linearGradient
       inkscape:collect="always"
       xlink:href="#linearGradient3449"
       id="linearGradient2464"
       gradientUnits="userSpaceOnUse"
       x1="8.6629602"
       y1="60.740168"
       x2="30.595094"
       y2="60.740168" />
    <radialGradient
       inkscape:collect="always"
       xlink:href="#linearGradient3461"
       id="radialGradient2466"
       gradientUnits="userSpaceOnUse"
       gradientTransform="matrix(1,0,0,1.0001751,0,-9.906416e-3)"
       cx="15.556526"
       cy="56.583721"
       fx="15.556526"
       fy="56.583721"
       r="6.1542277" />
    <linearGradient
       inkscape:collect="always"
       xlink:href="#linearGradient3449"
       id="linearGradient2480"
       gradientUnits="userSpaceOnUse"
       x1="8.6629602"
       y1="60.740168"
       x2="30.595094"
       y2="60.740168" />
    <radialGradient
       inkscape:collect="always"
       xlink:href="#linearGradient3461"
       id="radialGradient2482"
       gradientUnits="userSpaceOnUse"
       gradientTransform="matrix(1,0,0,1.0001751,0,-9.906416e-3)"
       cx="15.556526"
       cy="56.583721"
       fx="15.556526"
       fy="56.583721"
       r="6.1542277" />
  </defs>
  <path
     id="path3576"
     style="fill:#e1e7e1;fill-opacity:1;fill-rule:evenodd;stroke:none;stroke-width:0.20315053px;stroke-linecap:butt;stroke-linejoin:miter;stroke-opacity:1"
     d="M 84.708646,36.883054 C 84.709286,40.542642 81.742786,43.509663 78.083196,43.509663 C 74.423606,43.509663 71.457106,40.542642 71.457746,36.883054 C 71.457106,33.223467 74.423606,30.256445 78.083196,30.256445 C 81.742786,30.256445 84.709286,33.223467 84.708646,36.883054 L 84.708646,36.883054 z" />
  <path
     d="M 84.70864,58.719789 C 84.70928,62.379377 81.74278,65.346398 78.08319,65.346398 C 74.4236,65.346398 71.4571,62.379377 71.45774,58.719789 C 71.4571,55.060202 74.4236,52.09318 78.08319,52.09318 C 81.74278,52.09318 84.70928,55.060202 84.70864,58.719789 L 84.70864,58.719789 z"
     style="fill:#e1e7e1;fill-opacity:1;fill-rule:evenodd;stroke:none;stroke-width:0.20315053px;stroke-linecap:butt;stroke-linejoin:miter;stroke-opacity:1"
     id="path2454" />
  <path
     d="M 85.07388,80.528073 C 85.07452,84.187661 82.10802,87.154682 78.44843,87.154682 C 74.78884,87.154682 71.82234,84.187661 71.82298,80.528073 C 71.82234,76.868486 74.78884,73.901464 78.44843,73.901464 C 82.10802,73.901464 85.07452,76.868486 85.07388,80.528073 L 85.07388,80.528073 z"
     style="fill:#e1e7e1;fill-opacity:1;fill-rule:evenodd;stroke:none;stroke-width:0.20315053px;stroke-linecap:butt;stroke-linejoin:miter;stroke-opacity:1"
     id="path2470" />
  <path
     style="font-size:9.71758366px;font-style:normal;font-variant:normal;font-weight:normal;font-stretch:normal;fill:#000000;fill-opacity:1;stroke:none;stroke-width:1px;stroke-linecap:butt;stroke-linejoin:miter;stroke-opacity:1;font-family:Sans;-inkscape-font-specification:Adobe Helvetica"
     d="M 9.2885027,14.977291 C 7.8139221,14.944987 8.9292361,12.322787 8.5822039,11.162934 C 8.3751885,9.831732 9.3412903,7.106488 7.1696155,8.9583609 C 6.9308591,7.4370879 10.214401,5.6502622 9.2885027,8.4812119 C 9.2885027,10.646572 9.2885027,12.811931 9.2885027,14.977291 z M 15.696152,10.960846 C 14.260349,7.526694 20.874611,4.8462392 20.463634,8.6772089 C 17.075162,4.8539014 14.553034,12.943051 18.126732,14.181175 C 19.638112,14.012188 22.15176,12.636301 19.809327,14.843888 C 17.248017,16.141974 15.460739,13.221059 15.696152,10.960846 z M 10.391104,29.666004 C 9.2892935,29.302559 6.6626052,30.463992 6.7105289,28.950812 C 8.9798679,27.012354 11.15162,21.247979 6.9036106,22.420734 C 9.7189186,19.005857 11.763583,25.743522 8.5338697,27.498402 C 6.5567091,29.194731 9.0667836,28.665866 10.391104,28.72501 C 10.391104,29.038675 10.391104,29.352339 10.391104,29.666004 z M 15.696152,25.649561 C 14.260347,22.215407 20.874614,19.534954 20.463634,23.365925 C 17.075163,19.542616 14.553033,27.631765 18.126732,28.869889 C 19.638112,28.700902 22.15176,27.325014 19.809327,29.532602 C 17.248016,30.830688 15.460739,27.909773 15.696152,25.64956 L 15.696152,25.649561 z M 28.483988,29.666004 C 27.009421,29.633689 28.12473,27.011498 27.777699,25.851647 C 27.570684,24.520448 28.536784,21.795201 26.36511,23.647075 C 26.126356,22.125804 29.409887,20.338979 28.483988,23.169927 C 28.483988,25.335286 28.483988,27.500645 28.483988,29.666004 z M 31.167904,28.397957 C 33.063161,30.077413 29.330608,30.135906 31.167903,28.397956 L 31.167904,28.397957 z M 36.504353,27.881556 C 35.186547,27.362146 35.658256,31.503088 34.970123,28.712415 C 35.536863,26.731147 31.781886,29.071596 32.509869,26.929085 C 33.373116,25.123597 34.236362,23.318109 35.099609,21.512621 C 36.376622,21.699329 35.3427,24.196972 35.676414,25.326978 C 35.059889,27.469521 36.769049,26.280054 36.504353,27.881556 z M 34.970123,26.929085 C 34.817508,26.124175 35.307012,22.464157 34.663915,23.840116 C 34.553443,24.832133 32.159284,27.269229 34.154052,26.929085 C 34.426075,26.929085 34.698099,26.929085 34.970123,26.929085 z M 44.116627,29.666004 C 42.642057,29.633691 43.757367,27.011498 43.410336,25.851647 C 43.203321,24.520448 44.169421,21.795201 41.997747,23.647075 C 41.758989,22.125804 45.042527,20.338979 44.116627,23.169927 C 44.116627,25.335286 44.116627,27.500645 44.116627,29.666004 z M 9.3120375,39.902203 C 13.068162,41.90026 6.9295588,47.000045 6.8046947,42.943226 C 9.889328,45.369608 10.197862,40.329424 8.0132475,39.918858 C 10.650221,38.942858 8.706845,36.1466 6.8858302,37.109962 C 8.1459825,34.022704 12.008315,38.24798 9.3120375,39.902203 z M 20.47933,44.354721 C 18.896847,44.536596 19.002963,42.096572 18.180068,41.099029 C 17.71519,40.433128 16.628675,36.896165 16.637877,38.419828 C 16.637877,40.398125 16.637877,42.376423 16.637877,44.354721 C 15.21007,44.286107 16.307471,41.692285 15.96297,40.540364 C 16.119602,39.190314 15.648115,37.212144 16.201367,36.258713 C 17.560845,36.42316 17.559455,38.701394 18.361981,39.730934 C 18.829803,40.404154 19.952847,44.101161 19.812271,41.966687 C 19.812271,40.064029 19.812271,38.161371 19.812271,36.258713 C 21.228277,36.336512 20.135528,38.923067 20.47933,40.073069 C 20.47933,41.500287 20.47933,42.927504 20.47933,44.354721 z M 28.483988,44.354721 C 27.009421,44.322406 28.12473,41.700215 27.777699,40.540364 C 27.570684,39.209164 28.536785,36.483918 26.36511,38.335789 C 26.126356,36.814518 29.409887,35.027694 28.483988,37.858642 C 28.483988,40.024002 28.483988,42.189362 28.483988,44.354721 z M 31.167904,43.08667 C 33.063161,44.766128 29.330609,44.82462 31.167903,43.086671 L 31.167904,43.08667 z M 33.581081,39.454655 C 39.060508,38.321525 34.904372,47.868992 32.67311,43.306069 C 33.939771,44.482029 37.184132,42.234337 34.809243,40.286637 C 32.161297,41.228537 33.135873,38.395175 32.968956,36.85727 C 32.783375,35.868739 36.102895,35.946983 36.096272,36.735507 C 35.82184,37.931002 32.633706,36.212794 33.581081,38.630095 C 33.581081,38.904948 33.581081,39.179801 33.581081,39.454655 z M 45.219227,44.354721 C 44.117416,43.991276 41.490728,45.152708 41.538651,43.639529 C 43.807991,41.701077 45.979744,35.936695 41.731743,37.109448 C 44.547048,33.694571 46.59171,40.432239 43.362,42.187116 C 41.384843,43.883442 43.894907,43.35458 45.219227,43.413723 C 45.219227,43.727389 45.219227,44.041055 45.219227,44.354721 z M 53.047314,44.354721 C 51.572744,44.322408 52.688054,41.700215 52.341022,40.540364 C 52.134007,39.209163 53.100109,36.483919 50.928435,38.335789 C 50.689682,36.814518 53.973212,35.027694 53.047314,37.858642 C 53.047314,40.024002 53.047314,42.189362 53.047314,44.354721 z M 58.709435,40.252209 C 59.967662,43.376293 55.46902,46.621794 55.11224,42.13707 C 53.988221,39.747573 56.283202,33.299811 58.44678,37.726154 C 58.662229,38.549538 58.706154,39.405175 58.709434,40.252208 L 58.709435,40.252209 z M 56.853455,43.626022 C 59.596606,42.617603 57.315374,33.752006 55.79303,38.852193 C 55.849999,40.322512 55.220784,42.852361 56.853455,43.626022 z M 62.468487,40.73418 C 58.428939,44.871086 58.749071,32.622046 62.6843,37.159545 C 64.345901,39.441885 62.500977,46.98916 59.751132,43.447723 C 61.105581,44.116476 62.823195,43.029715 62.468488,40.734181 L 62.468487,40.73418 z M 61.27956,40.820248 C 64.442102,39.931934 60.294614,34.351337 60.161262,38.915305 C 60.157661,39.622918 60.353457,40.78886 61.27956,40.820248 z M 68.695648,44.354721 C 67.221079,44.322408 68.336389,41.700215 67.989357,40.540364 C 67.782342,39.209164 68.748443,36.483917 66.576768,38.335789 C 66.338011,36.814518 69.621548,35.027694 68.695648,37.858642 C 68.695648,40.024002 68.695648,42.189362 68.695648,44.354721 z M 10.606916,57.258984 C 9.2891124,56.739576 9.7608222,60.880517 9.072691,58.089845 C 9.6394315,56.108573 5.8844487,58.449024 6.6124268,56.306515 C 7.4756762,54.501026 8.3389257,52.695538 9.2021751,50.890049 C 10.479188,51.076757 9.4452653,53.5744 9.7789803,54.704406 C 9.1624563,56.846945 10.871611,55.657487 10.606916,57.258984 z M 9.072691,56.306515 C 8.9200756,55.501605 9.4095799,51.841587 8.7664831,53.217546 C 8.6560103,54.209563 6.2618512,56.646659 8.2566187,56.306515 C 8.5286428,56.306515 8.8006669,56.306515 9.072691,56.306515 z M 15.696152,55.026989 C 14.260347,51.592835 20.874616,48.912384 20.463634,52.743355 C 17.075165,48.920043 14.553032,57.009194 18.126732,58.247317 C 19.638111,58.078331 22.151761,56.702445 19.809327,58.910031 C 17.248016,60.208118 15.46074,57.287202 15.696152,55.026989 z M 28.483988,59.043434 C 27.009421,59.011119 28.12473,56.388928 27.777699,55.229077 C 27.570684,53.897877 28.536784,51.17263 26.36511,53.024504 C 26.126357,51.503234 29.409887,49.716407 28.483988,52.547355 C 28.483988,54.712715 28.483988,56.878075 28.483988,59.043434 z M 31.167904,57.775387 C 33.063161,59.454841 29.330608,59.513336 31.167903,57.775385 L 31.167904,57.775387 z M 36.504353,57.258984 C 35.186547,56.739574 35.658256,60.880518 34.970123,58.089845 C 35.536866,56.108574 31.781888,58.449024 32.509869,56.306515 C 33.373116,54.501026 34.236362,52.695538 35.099609,50.890049 C 36.376622,51.076757 35.3427,53.5744 35.676414,54.704406 C 35.05989,56.846948 36.769047,55.657486 36.504353,57.258984 z M 34.970123,56.306515 C 34.817508,55.501605 35.307012,51.841587 34.663915,53.217546 C 34.553443,54.209563 32.159284,56.646659 34.154052,56.306515 C 34.426075,56.306515 34.698099,56.306515 34.970123,56.306515 z M 44.140167,54.590916 C 47.896287,56.588977 41.757684,61.688759 41.632828,57.631939 C 44.717459,60.05832 45.025983,55.018132 42.84137,54.607571 C 45.478338,53.63158 43.534985,50.835312 41.713956,51.798677 C 42.974095,48.711421 46.836443,52.936686 44.140167,54.590916 z M 53.047314,59.043434 C 51.572744,59.011121 52.688054,56.388928 52.341022,55.229077 C 52.134007,53.897875 53.100109,51.172631 50.928435,53.024504 C 50.689683,51.503234 53.973213,49.716407 53.047314,52.547355 C 53.047314,54.712715 53.047314,56.878075 53.047314,59.043434 z M 58.709435,54.940922 C 59.967662,58.065006 55.469018,61.310511 55.11224,56.825784 C 53.988221,54.436286 56.283202,47.988527 58.44678,52.414869 C 58.662228,53.238252 58.706154,54.093889 58.709434,54.940922 L 58.709435,54.940922 z M 56.853455,58.314735 C 59.596606,57.306317 57.315374,48.44072 55.79303,53.540908 C 55.849999,55.011225 55.220784,57.541077 56.853455,58.314736 L 56.853455,58.314735 z M 62.468487,55.422897 C 58.428935,59.559794 58.749073,47.310764 62.6843,51.848259 C 64.3459,54.130599 62.500978,61.677875 59.751132,58.136438 C 61.105585,58.805191 62.823194,57.718426 62.468488,55.422896 L 62.468487,55.422897 z M 61.27956,55.508961 C 64.442103,54.62065 60.294613,49.040051 60.161262,53.60402 C 60.157661,54.311632 60.353457,55.477575 61.27956,55.508962 L 61.27956,55.508961 z M 69.798248,59.043434 C 68.696439,58.679988 66.069751,59.841422 66.117676,58.328242 C 68.387013,56.389785 70.558769,50.62541 66.310764,51.798162 C 69.126074,48.383285 71.170731,55.12095 67.941022,56.875831 C 65.963866,58.572157 68.473926,58.043298 69.798248,58.10244 C 69.798248,58.416105 69.798248,58.729769 69.798248,59.043434 z M 78.815262,54.940922 C 80.073498,58.065004 75.574843,61.310512 75.218075,56.825784 C 74.094065,54.436287 76.389025,47.988527 78.552613,52.414869 C 78.768062,53.238252 78.811983,54.09389 78.815263,54.940922 L 78.815262,54.940922 z M 76.959282,58.314735 C 79.702448,57.306325 77.421198,48.440717 75.898861,53.540908 C 75.955842,55.011227 75.326608,57.541075 76.959284,58.314736 L 76.959282,58.314735 z M 80.310249,57.775387 C 82.205513,59.454856 78.472941,59.513324 80.310249,57.775385 L 80.310249,57.775387 z M 85.517204,54.940922 C 86.775432,58.065003 82.276785,61.310513 81.920017,56.825784 C 80.796,54.43629 83.09097,47.988527 85.254549,52.414869 C 85.469997,53.238252 85.513923,54.093889 85.517203,54.940922 L 85.517204,54.940922 z M 83.661224,58.314735 C 86.404384,57.306321 84.123141,48.440719 82.600799,53.540908 C 82.657768,55.011226 82.028553,57.541075 83.661224,58.314736 L 83.661224,58.314735 z M 93.258972,59.043434 C 91.784392,59.01113 92.899706,56.38893 92.552673,55.229077 C 92.345658,53.897875 93.31176,51.172631 91.140085,53.024504 C 90.90133,51.503233 94.18487,49.716406 93.258972,52.547355 C 93.258972,54.712715 93.258972,56.878075 93.258972,59.043434 z M 10.606916,71.947701 C 9.2891132,71.428293 9.7608218,75.569229 9.072691,72.778558 C 9.6394276,70.797291 5.8844479,73.137741 6.6124268,70.995232 C 7.4756762,69.189743 8.3389257,67.384254 9.2021751,65.578766 C 10.479188,65.765474 9.4452653,68.263117 9.7789803,69.393123 C 9.1624563,71.535662 10.871611,70.346204 10.606916,71.947701 z M 9.072691,70.995232 C 8.9200759,70.19032 9.4095793,66.530303 8.7664833,67.906259 C 8.6560102,68.898277 6.2618524,71.335375 8.2566187,70.995232 C 8.5286428,70.995232 8.8006669,70.995232 9.072691,70.995232 z M 15.696152,69.715706 C 14.260346,66.281552 20.874613,63.601096 20.463634,67.432068 C 17.075163,63.608758 14.553033,71.697909 18.126732,72.936033 C 19.638112,72.767048 22.15176,71.391155 19.809327,73.598745 C 17.248017,74.896833 15.460739,71.975916 15.696152,69.715703 L 15.696152,69.715706 z M 28.483988,73.732147 C 27.009421,73.699832 28.12473,71.077641 27.777699,69.91779 C 27.570684,68.586589 28.536784,65.861343 26.36511,67.713218 C 26.126359,66.191946 29.409887,64.405124 28.483988,67.236072 C 28.483988,69.401431 28.483988,71.566789 28.483988,73.732147 z M 31.167904,72.464096 C 33.063159,74.143558 29.33061,74.202048 31.167903,72.464099 L 31.167904,72.464096 z M 36.504353,71.947701 C 35.186548,71.428292 35.658256,75.56923 34.970123,72.778558 C 35.536862,70.797292 31.781887,73.13774 32.509869,70.995232 C 33.373116,69.189743 34.236362,67.384254 35.099609,65.578766 C 36.376622,65.765474 35.3427,68.263117 35.676414,69.393123 C 35.05989,71.535665 36.769047,70.346203 36.504353,71.947701 z M 34.970123,70.995232 C 34.817508,70.19032 35.307012,66.530303 34.663916,67.906259 C 34.553443,68.898277 32.159285,71.335375 34.154052,70.995232 C 34.426075,70.995232 34.698099,70.995232 34.970123,70.995232 z M 44.140167,69.279633 C 47.896285,71.277691 41.757689,76.377472 41.632828,72.320656 C 44.717461,74.747033 45.025982,69.706847 42.84137,69.296284 C 45.478344,68.320293 43.53498,65.524025 41.713956,66.487392 C 42.9741,63.400135 46.83644,67.625403 44.140167,69.279633 z M 53.047314,73.732147 C 51.572744,73.699834 52.688054,71.077642 52.341022,69.91779 C 52.134007,68.586588 53.100109,65.861344 50.928435,67.713218 C 50.689686,66.191946 53.973212,64.405124 53.047314,67.236072 C 53.047314,69.401431 53.047314,71.566789 53.047314,73.732147 z M 58.709435,69.629639 C 59.96766,72.753722 55.46902,75.999223 55.11224,71.5145 C 53.988222,69.125003 56.2832,62.677241 58.44678,67.103582 C 58.662229,67.926966 58.706154,68.782603 58.709434,69.629636 L 58.709435,69.629639 z M 56.853455,73.003448 C 59.596607,71.995032 57.315372,63.129433 55.79303,68.229624 C 55.849999,69.699942 55.220785,72.22979 56.853455,73.003451 L 56.853455,73.003448 z M 62.468487,70.11161 C 58.428936,74.248512 58.749073,61.999476 62.6843,66.536974 C 64.3459,68.819314 62.500978,76.366589 59.751131,72.825153 C 61.105575,73.493902 62.823197,72.407151 62.468488,70.11161 L 62.468487,70.11161 z M 61.27956,70.197678 C 64.442102,69.309363 60.294615,63.728766 60.161262,68.292733 C 60.157661,69.000345 60.353456,70.166291 61.27956,70.197677 L 61.27956,70.197678 z M 69.798248,73.732147 C 68.696439,73.368702 66.069751,74.530135 66.117676,73.016955 C 68.387015,71.0785 70.558768,65.314123 66.310764,66.486877 C 69.126076,63.071999 71.17073,69.809666 67.941021,71.564546 C 65.963865,73.260871 68.473928,72.732011 69.798248,72.791153 C 69.798248,73.104818 69.798248,73.418482 69.798248,73.732147 z M 78.815262,69.629639 C 80.073497,72.75372 75.574845,75.999224 75.218075,71.5145 C 74.094065,69.125004 76.389023,62.677241 78.552613,67.103582 C 78.768063,67.926966 78.811983,68.782603 78.815263,69.629636 L 78.815262,69.629639 z M 76.959282,73.003448 C 79.702449,71.99504 77.421197,63.129429 75.898861,68.229624 C 75.955842,69.699943 75.326609,72.229787 76.959284,73.003451 L 76.959282,73.003448 z M 80.310249,72.464096 C 82.205511,74.143573 78.472943,74.202036 80.310249,72.464099 L 80.310249,72.464096 z M 85.517204,69.629639 C 86.775431,72.753718 82.276787,75.999225 81.920017,71.5145 C 80.796,69.125006 83.090968,62.677241 85.254549,67.103582 C 85.469997,67.926966 85.513923,68.782603 85.517203,69.629636 L 85.517204,69.629639 z M 83.661224,73.003448 C 86.404385,71.995036 84.12314,63.129432 82.600799,68.229624 C 82.657767,69.699943 82.028554,72.229788 83.661224,73.003451 L 83.661224,73.003448 z M 93.258972,73.732147 C 91.784392,73.699843 92.899706,71.077643 92.552673,69.91779 C 92.345658,68.586587 93.31176,65.861344 91.140085,67.713218 C 90.901332,66.191945 94.18487,64.405123 93.258972,67.236072 C 93.258972,69.401431 93.258972,71.566789 93.258972,73.732147 z M 10.606916,86.636414 C 9.2891132,86.117006 9.7608218,90.257942 9.072691,87.467271 C 9.6394276,85.486004 5.8844479,87.826454 6.6124268,85.683945 C 7.4756762,83.878456 8.3389257,82.072968 9.2021751,80.267479 C 10.479188,80.454187 9.4452653,82.95183 9.7789803,84.081836 C 9.1624563,86.224375 10.871611,85.034917 10.606916,86.636414 z M 9.072691,85.683945 C 8.9200759,84.879033 9.4095793,81.219016 8.7664833,82.594972 C 8.6560102,83.58699 6.2618524,86.024088 8.2566187,85.683945 C 8.5286428,85.683945 8.8006669,85.683945 9.072691,85.683945 z M 15.696152,84.404419 C 14.260347,80.970265 20.874612,78.289811 20.463634,82.120781 C 17.075162,78.297474 14.553034,86.386622 18.126732,87.624746 C 19.638111,87.455765 22.151761,86.079868 19.809327,88.287459 C 17.248017,89.585547 15.460739,86.664631 15.696152,84.404418 L 15.696152,84.404419 z M 28.483988,88.42086 C 27.009421,88.388545 28.12473,85.766354 27.777699,84.606504 C 27.570684,83.275301 28.536784,80.550055 26.36511,82.401933 C 26.126358,80.880662 29.409887,79.093837 28.483988,81.924785 C 28.483988,84.090144 28.483988,86.255502 28.483988,88.42086 z M 31.167904,87.152817 C 33.063162,88.83227 29.330607,88.890764 31.167903,87.152813 L 31.167904,87.152817 z M 36.504353,86.636414 C 35.186548,86.117005 35.658256,90.257943 34.970123,87.467271 C 35.536862,85.486006 31.781887,87.826453 32.509869,85.683945 C 33.373116,83.878456 34.236362,82.072968 35.099609,80.267479 C 36.376622,80.454187 35.3427,82.95183 35.676414,84.081836 C 35.05989,86.224378 36.769047,85.034916 36.504353,86.636414 z M 34.970123,85.683945 C 34.817508,84.879033 35.307012,81.219016 34.663916,82.594972 C 34.553443,83.58699 32.159285,86.024088 34.154052,85.683945 C 34.426075,85.683945 34.698099,85.683945 34.970123,85.683945 z M 44.140167,83.968346 C 47.896286,85.966405 41.757687,91.066187 41.632828,87.009369 C 44.71746,89.435751 45.025983,84.395555 42.84137,83.985005 C 45.478333,83.009011 43.53499,80.21274 41.713956,81.176106 C 42.974098,78.088849 46.836441,82.314115 44.140167,83.968346 z M 53.047314,88.42086 C 51.572744,88.388547 52.688054,85.766355 52.341022,84.606504 C 52.134007,83.2753 53.100109,80.550056 50.928435,82.401933 C 50.689684,80.880662 53.973212,79.093837 53.047314,81.924785 C 53.047314,84.090144 53.047314,86.255502 53.047314,88.42086 z M 58.709435,84.318352 C 59.967662,87.442437 55.469017,90.687939 55.11224,86.203212 C 53.988221,83.813715 56.283204,77.365955 58.44678,81.792298 C 58.662229,82.615681 58.706154,83.471318 58.709434,84.318351 L 58.709435,84.318352 z M 56.853455,87.692162 C 59.596608,86.683748 57.315371,77.818146 55.79303,82.918338 C 55.849999,84.388655 55.220785,86.918506 56.853455,87.692165 L 56.853455,87.692162 z M 62.468487,84.800323 C 58.428938,88.937226 58.749071,76.688191 62.6843,81.225687 C 64.3459,83.508028 62.500979,91.055303 59.751132,87.513867 C 61.105588,88.182621 62.823193,87.095853 62.468488,84.800325 L 62.468487,84.800323 z M 61.27956,84.886391 C 64.442102,83.998078 60.294613,78.41748 60.161262,82.981448 C 60.157661,83.689059 60.353456,84.855007 61.27956,84.88639 L 61.27956,84.886391 z M 69.798248,88.42086 C 68.696439,88.057415 66.069751,89.218848 66.117676,87.705668 C 68.387016,85.767214 70.558767,80.002836 66.310764,81.175591 C 69.126075,77.760713 71.170731,84.49838 67.941021,86.253259 C 65.963865,87.949585 68.473929,87.420723 69.798248,87.479866 C 69.798248,87.793531 69.798248,88.107196 69.798248,88.42086 z M 78.815262,84.318352 C 80.073498,87.442435 75.574843,90.68794 75.218075,86.203212 C 74.094064,83.813715 76.389027,77.365955 78.552613,81.792298 C 78.768063,82.615681 78.811983,83.471319 78.815263,84.318351 L 78.815262,84.318352 z M 76.959282,87.692162 C 79.70245,86.683756 77.421195,77.818143 75.898861,82.918338 C 75.955842,84.388657 75.326608,86.918504 76.959284,87.692165 L 76.959282,87.692162 z M 80.310249,87.152817 C 82.205514,88.832285 78.47294,88.890752 80.310249,87.152813 L 80.310249,87.152817 z M 85.517204,84.318352 C 86.775432,87.442434 82.276784,90.687941 81.920017,86.203212 C 80.795999,83.813718 83.090972,77.365955 85.254549,81.792298 C 85.469997,82.615681 85.513923,83.471318 85.517203,84.318351 L 85.517204,84.318352 z M 83.661224,87.692162 C 86.404386,86.683752 84.123138,77.818145 82.600799,82.918338 C 82.657768,84.388656 82.028553,86.918504 83.661224,87.692165 L 83.661224,87.692162 z M 93.258972,88.42086 C 91.784392,88.388556 92.899706,85.766357 92.552673,84.606504 C 92.345658,83.2753 93.311759,80.550056 91.140085,82.401933 C 90.901331,80.880661 94.18487,79.093835 93.258972,81.924785 C 93.258972,84.090144 93.258972,86.255502 93.258972,88.42086 z"
     id="text2418" />
  <text
     xml:space="preserve"
     style="font-size:47.89118195px;font-style:normal;font-variant:normal;font-weight:normal;font-stretch:normal;fill:#000000;fill-opacity:1;stroke:none;stroke-width:1px;stroke-linecap:butt;stroke-linejoin:miter;stroke-opacity:1;font-family:Zekton Dots;-inkscape-font-specification:Zekton Dots"
     x="15.577912"
     y="67.589493"
     id="text2436"><tspan
       sodipodi:role="line"
       id="tspan2438"
       x="15.577912"
       y="67.589493">Z</tspan></text>
  <g
     id="g3469"
     transform="matrix(0.6042521,0,0,0.6042521,60.415606,-8.7961352)">
    <path
       d="M 30.480042,60.780914 C 30.481103,66.837306 25.571725,71.747544 19.515332,71.747544 C 13.45894,71.747544 8.5495621,66.837306 8.5506231,60.780914 C 8.5495621,54.724523 13.45894,49.814284 19.515332,49.814284 C 25.571725,49.814284 30.481103,54.724523 30.480042,60.780914 L 30.480042,60.780914 z"
       style="fill:#008a00;fill-opacity:1;fill-rule:evenodd;stroke:#000000;stroke-width:0.33620161px;stroke-linecap:butt;stroke-linejoin:miter;stroke-opacity:1"
       id="path3670" />
    <path
       d="M 27.382247,68.493388 C 23.100482,72.776654 16.156965,72.777262 11.874449,68.494746 C 7.5919331,64.212231 7.5925421,57.268714 11.875807,52.986948 C 16.157573,48.703682 23.10109,48.703074 27.383605,52.985589 C 31.666121,57.268106 31.665513,64.211623 27.382247,68.493388 L 27.382247,68.493388 z"
       style="opacity:0.71739131;fill:url(#linearGradient2448);fill-opacity:1;fill-rule:evenodd;stroke:none;stroke-width:1px;stroke-linecap:butt;stroke-linejoin:miter;stroke-opacity:1"
       id="path3672" />
    <path
       d="M 21.710753,56.583722 C 21.711348,59.983029 18.955832,62.739027 15.556525,62.739027 C 12.157219,62.739027 9.4017031,59.983029 9.4022981,56.583722 C 9.4017031,53.184415 12.157219,50.428417 15.556525,50.428417 C 18.955832,50.428417 21.711348,53.184415 21.710753,56.583722 L 21.710753,56.583722 z"
       style="fill:url(#radialGradient2450);fill-opacity:1;fill-rule:evenodd;stroke:none;stroke-width:1px;stroke-linecap:butt;stroke-linejoin:miter;stroke-opacity:1"
       id="path3674" />
  </g>
  <g
     transform="matrix(0.6042521,0,0,0.6042521,60.4156,13.0406)"
     id="g2456">
    <path
       id="path2458"
       style="fill:#008a00;fill-opacity:1;fill-rule:evenodd;stroke:#000000;stroke-width:0.33620161px;stroke-linecap:butt;stroke-linejoin:miter;stroke-opacity:1"
       d="M 30.480042,60.780914 C 30.481103,66.837306 25.571725,71.747544 19.515332,71.747544 C 13.45894,71.747544 8.5495621,66.837306 8.5506231,60.780914 C 8.5495621,54.724523 13.45894,49.814284 19.515332,49.814284 C 25.571725,49.814284 30.481103,54.724523 30.480042,60.780914 L 30.480042,60.780914 z" />
    <path
       id="path2460"
       style="opacity:0.71739131;fill:url(#linearGradient2464);fill-opacity:1;fill-rule:evenodd;stroke:none;stroke-width:1px;stroke-linecap:butt;stroke-linejoin:miter;stroke-opacity:1"
       d="M 27.382247,68.493388 C 23.100482,72.776654 16.156965,72.777262 11.874449,68.494746 C 7.5919331,64.212231 7.5925421,57.268714 11.875807,52.986948 C 16.157573,48.703682 23.10109,48.703074 27.383605,52.985589 C 31.666121,57.268106 31.665513,64.211623 27.382247,68.493388 L 27.382247,68.493388 z" />
    <path
       id="path2462"
       style="fill:url(#radialGradient2466);fill-opacity:1;fill-rule:evenodd;stroke:none;stroke-width:1px;stroke-linecap:butt;stroke-linejoin:miter;stroke-opacity:1"
       d="M 21.710753,56.583722 C 21.711348,59.983029 18.955832,62.739027 15.556525,62.739027 C 12.157219,62.739027 9.4017031,59.983029 9.4022981,56.583722 C 9.4017031,53.184415 12.157219,50.428417 15.556525,50.428417 C 18.955832,50.428417 21.711348,53.184415 21.710753,56.583722 L 21.710753,56.583722 z" />
  </g>
  <g
     transform="matrix(0.6042521,0,0,0.6042521,60.78084,34.848884)"
     id="g2472">
    <path
       id="path2474"
       style="fill:#008a00;fill-opacity:1;fill-rule:evenodd;stroke:#000000;stroke-width:0.33620161px;stroke-linecap:butt;stroke-linejoin:miter;stroke-opacity:1"
       d="M 30.480042,60.780914 C 30.481103,66.837306 25.571725,71.747544 19.515332,71.747544 C 13.45894,71.747544 8.5495621,66.837306 8.5506231,60.780914 C 8.5495621,54.724523 13.45894,49.814284 19.515332,49.814284 C 25.571725,49.814284 30.481103,54.724523 30.480042,60.780914 L 30.480042,60.780914 z" />
    <path
       id="path2476"
       style="opacity:0.71739131;fill:url(#linearGradient2480);fill-opacity:1;fill-rule:evenodd;stroke:none;stroke-width:1px;stroke-linecap:butt;stroke-linejoin:miter;stroke-opacity:1"
       d="M 27.382247,68.493388 C 23.100482,72.776654 16.156965,72.777262 11.874449,68.494746 C 7.5919331,64.212231 7.5925421,57.268714 11.875807,52.986948 C 16.157573,48.703682 23.10109,48.703074 27.383605,52.985589 C 31.666121,57.268106 31.665513,64.211623 27.382247,68.493388 L 27.382247,68.493388 z" />
    <path
       id="path2478"
       style="fill:url(#radialGradient2482);fill-opacity:1;fill-rule:evenodd;stroke:none;stroke-width:1px;stroke-linecap:butt;stroke-linejoin:miter;stroke-opacity:1"
       d="M 21.710753,56.583722 C 21.711348,59.983029 18.955832,62.739027 15.556525,62.739027 C 12.157219,62.739027 9.4017031,59.983029 9.4022981,56.583722 C 9.4017031,53.184415 12.157219,50.428417 15.556525,50.428417 C 18.955832,50.428417 21.711348,53.184415 21.710753,56.583722 L 21.710753,56.583722 z" />
  </g>
  <text
     xml:space="preserve"
     style="font-size:47.89118195px;font-style:normal;font-variant:normal;font-weight:normal;font-stretch:normal;fill:#000000;fill-opacity:0.15135133;stroke:none;stroke-width:1px;stroke-linecap:butt;stroke-linejoin:miter;stroke-opacity:1;font-family:Zekton Dots;-inkscape-font-specification:Zekton Dots"
     x="20.154963"
     y="73.197052"
     id="text2499"><tspan
       sodipodi:role="line"
       id="tspan2501"
       x="20.154963"
       y="73.197052">Z</tspan></text>
  <path
     style="font-size:9.71758366px;font-style:normal;font-variant:normal;font-weight:normal;font-stretch:normal;fill:#000000;fill-opacity:0.08108108;stroke:none;stroke-width:1px;stroke-linecap:butt;stroke-linejoin:miter;stroke-opacity:1;font-family:Sans;-inkscape-font-specification:Adobe Helvetica"
     d="M 11.036812,17.472267 C 9.5622312,17.439963 10.677545,14.817763 10.330513,13.65791 C 10.123497,12.32671 11.0896,9.6014656 8.9179255,11.453338 C 8.6791706,9.9320647 11.96271,8.1452399 11.036812,10.976189 C 11.036812,13.141549 11.036812,15.306908 11.036812,17.472267 z M 17.444462,13.455823 C 16.008659,10.021671 22.622921,7.3412162 22.211945,11.172186 C 18.823472,7.3488786 16.301344,15.438028 19.875042,16.676152 C 21.386422,16.507165 23.90007,15.131278 21.557637,17.338865 C 18.996327,18.636951 17.209049,15.716036 17.444462,13.455823 z M 12.139414,32.16098 C 11.037603,31.797535 8.410915,32.958968 8.4588385,31.445788 C 10.728179,29.50733 12.899928,23.742956 8.6519202,24.915711 C 11.46723,21.500835 13.511892,28.238499 10.282179,29.99338 C 8.3050191,31.689709 10.815093,31.160844 12.139414,31.219988 C 12.139414,31.533652 12.139414,31.847316 12.139414,32.16098 z M 17.444462,28.144537 C 16.008658,24.710384 22.622922,22.029932 22.211945,25.860901 C 18.823472,22.037594 16.301344,30.126742 19.875042,31.364866 C 21.386423,31.195879 23.90007,29.819992 21.557637,32.027579 C 18.996327,33.325665 17.209049,30.404751 17.444462,28.144537 z M 30.232298,32.16098 C 28.757731,32.128665 29.87304,29.506474 29.526009,28.346623 C 29.318994,27.015423 30.285094,24.290177 28.11342,26.142052 C 27.874665,24.620782 31.158197,22.833955 30.232298,25.664903 C 30.232298,27.830262 30.232298,29.995621 30.232298,32.16098 z M 32.916214,30.892933 C 34.81147,32.572391 31.078919,32.630883 32.916213,30.892933 L 32.916214,30.892933 z M 38.252663,30.376534 C 36.934858,29.857125 37.406566,33.998063 36.718433,31.207391 C 37.285171,29.226125 33.530195,31.566574 34.258179,29.424063 C 35.121426,27.618575 35.984673,25.813087 36.847919,24.007599 C 38.124932,24.194307 37.09101,26.69195 37.424725,27.821956 C 36.8082,29.964499 38.517359,28.775032 38.252663,30.376534 z M 36.718433,29.424063 C 36.565818,28.619152 37.055322,24.959135 36.412226,26.335092 C 36.301753,27.32711 33.907595,29.764207 35.902362,29.424063 C 36.174386,29.424063 36.446409,29.424063 36.718433,29.424063 z M 45.864937,32.16098 C 44.390368,32.128667 45.505677,29.506474 45.158646,28.346623 C 44.951631,27.015423 45.917731,24.290177 43.746057,26.142052 C 43.507299,24.620782 46.790837,22.833954 45.864937,25.664903 C 45.864937,27.830262 45.864937,29.995621 45.864937,32.16098 z M 11.060347,42.397179 C 14.816473,44.395236 8.6778673,49.495023 8.5530043,45.438202 C 11.637636,47.864585 11.946173,42.824403 9.7615576,42.413834 C 12.39853,41.437835 10.455155,38.641577 8.6341401,39.604939 C 9.894288,36.517681 13.756628,40.742957 11.060347,42.397179 z M 22.22764,46.849697 C 20.645157,47.031572 20.751273,44.591548 19.928378,43.594005 C 19.4635,42.928104 18.376985,39.391141 18.386187,40.914804 C 18.386187,42.893101 18.386187,44.871399 18.386187,46.849697 C 16.958381,46.781082 18.055782,44.18726 17.711281,43.03534 C 17.867913,41.68529 17.396426,39.70712 17.949678,38.753689 C 19.309155,38.918137 19.307765,41.19637 20.110291,42.22591 C 20.578113,42.899131 21.701157,46.596137 21.560581,44.461663 C 21.560581,42.559005 21.560581,40.656347 21.560581,38.753689 C 22.976587,38.831488 21.883838,41.418043 22.22764,42.568046 C 22.22764,43.995263 22.22764,45.42248 22.22764,46.849697 z M 30.232298,46.849697 C 28.757731,46.817382 29.87304,44.195191 29.526009,43.03534 C 29.318994,41.70414 30.285095,38.978893 28.11342,40.830766 C 27.874668,39.309496 31.158197,37.52267 30.232298,40.353618 C 30.232298,42.518978 30.232298,44.684338 30.232298,46.849697 z M 32.916214,45.58165 C 34.811472,47.261103 31.078917,47.319597 32.916213,45.581648 L 32.916214,45.58165 z M 35.329391,41.949635 C 40.808816,40.816498 36.652683,50.363971 34.42142,45.801046 C 35.688079,46.977005 38.932443,44.729316 36.557553,42.781615 C 33.909607,43.723513 34.884183,40.890152 34.717266,39.352246 C 34.531685,38.363715 37.851205,38.441959 37.844582,39.230483 C 37.57015,40.425978 34.382017,38.70777 35.329391,41.125071 C 35.329391,41.399925 35.329391,41.67478 35.329391,41.949635 z M 46.967537,46.849697 C 45.865726,46.486252 43.239038,47.647684 43.286961,46.134505 C 45.556304,44.196053 47.728053,38.431671 43.480053,39.604425 C 46.295357,36.189549 48.34002,42.927215 45.110311,44.682094 C 43.133155,46.37842 45.643215,45.849561 46.967537,45.908703 C 46.967537,46.222368 46.967537,46.536032 46.967537,46.849697 z M 54.795624,46.849697 C 53.321054,46.817384 54.436364,44.195191 54.089333,43.03534 C 53.882317,41.704136 54.848419,38.978895 52.676742,40.830766 C 52.437989,39.309496 55.721524,37.52267 54.795624,40.353618 C 54.795624,42.518978 54.795624,44.684338 54.795624,46.849697 z M 60.457741,42.747185 C 61.715973,45.871272 57.217331,49.116771 56.860546,44.632046 C 55.736524,42.242548 58.031516,35.794789 60.195092,40.221132 C 60.410538,41.044515 60.454462,41.900152 60.457742,42.747185 L 60.457741,42.747185 z M 58.601761,46.120998 C 61.344927,45.112584 59.063676,36.246981 57.541342,41.347171 C 57.59831,42.817489 56.969093,45.347334 58.601762,46.120999 L 58.601761,46.120998 z M 64.216805,43.229156 C 60.177241,47.366067 60.497382,35.117027 64.432612,39.654522 C 66.094208,41.936864 64.249286,49.484138 61.499439,45.9427 C 62.853899,46.611455 64.571502,45.524689 64.216802,43.229158 L 64.216805,43.229156 z M 63.02787,43.315224 C 66.190408,42.426907 62.042923,36.846315 61.909572,41.410282 C 61.905966,42.117895 62.101772,43.283838 63.027872,43.315225 L 63.02787,43.315224 z M 70.443954,46.849697 C 68.969385,46.817384 70.084695,44.195191 69.737663,43.03534 C 69.530647,41.704145 70.496749,38.978893 68.325082,40.830766 C 68.086326,39.309495 71.369853,37.522671 70.443954,40.353618 C 70.443954,42.518978 70.443954,44.684338 70.443954,46.849697 z M 12.355226,59.753963 C 11.037424,59.234558 11.509131,63.375492 10.821,60.584821 C 11.387736,58.603554 7.6327539,60.944005 8.3607368,58.801491 C 9.2239863,56.996003 10.087236,55.190516 10.950485,53.385029 C 12.227498,53.571737 11.193575,56.06938 11.52729,57.199386 C 10.910766,59.341927 12.619925,58.15246 12.355226,59.753963 z M 10.821,58.801491 C 10.668385,57.996581 11.157889,54.336563 10.514792,55.712522 C 10.40432,56.704539 8.0101608,59.141635 10.004928,58.801491 C 10.276952,58.801491 10.548976,58.801491 10.821,58.801491 z M 17.444462,57.521965 C 16.008658,54.087812 22.622925,51.407362 22.211945,55.238331 C 18.823474,51.415021 16.301342,59.504171 19.875042,60.742294 C 21.386421,60.573309 23.900071,59.197421 21.557637,61.405007 C 18.996327,62.703094 17.209048,59.782179 17.444462,57.521966 L 17.444462,57.521965 z M 30.232298,61.53841 C 28.757731,61.506095 29.87304,58.883904 29.526009,57.724053 C 29.318994,56.392852 30.285094,53.667605 28.11342,55.519481 C 27.874666,53.998212 31.158197,52.211383 30.232298,55.042332 C 30.232298,57.207691 30.232298,59.373051 30.232298,61.53841 z M 32.916214,60.270363 C 34.811471,61.949818 31.078918,62.008313 32.916213,60.270362 L 32.916214,60.270363 z M 38.252663,59.753963 C 36.934858,59.234555 37.406566,63.375493 36.718433,60.584821 C 37.285171,58.603555 33.530194,60.944004 34.258179,58.801491 C 35.121426,56.996003 35.984673,55.190516 36.847919,53.385029 C 38.124932,53.571737 37.09101,56.06938 37.424725,57.199386 C 36.808199,59.341931 38.517362,58.152458 38.252663,59.753963 z M 36.718433,58.801491 C 36.565818,57.996581 37.055322,54.336563 36.412226,55.712522 C 36.301753,56.704539 33.907594,59.141635 35.902362,58.801491 C 36.174386,58.801491 36.446409,58.801491 36.718433,58.801491 z M 45.888477,57.085896 C 49.644595,59.083953 43.505999,64.183734 43.381138,60.126919 C 46.465772,62.553295 46.774292,57.513107 44.58968,57.102551 C 47.226643,56.126558 45.2833,53.330289 43.462266,54.293654 C 44.722407,51.206397 48.584751,55.431665 45.888477,57.085896 z M 54.795624,61.53841 C 53.321054,61.506097 54.436364,58.883904 54.089333,57.724053 C 53.882317,56.392848 54.848419,53.667607 52.676742,55.519481 C 52.437987,53.998211 55.721524,52.211382 54.795624,55.042332 C 54.795624,57.207691 54.795624,59.373051 54.795624,61.53841 z M 60.457741,57.435898 C 61.715973,60.559985 57.217332,63.805486 56.860546,59.320761 C 55.736526,56.931263 58.031512,50.483505 60.195092,54.909845 C 60.410538,55.733229 60.454462,56.588866 60.457742,57.435899 L 60.457741,57.435898 z M 58.601761,60.809711 C 61.344928,59.801299 59.063675,50.935695 57.541342,56.035885 C 57.59831,57.506204 56.969093,60.036048 58.601762,60.809713 L 58.601761,60.809711 z M 64.216805,57.917873 C 60.177239,62.054774 60.497383,49.805746 64.432612,54.343236 C 66.094207,56.625578 64.249287,64.172852 61.499438,60.631415 C 62.853895,61.300168 64.571502,60.213408 64.216802,57.917873 L 64.216805,57.917873 z M 63.02787,58.003941 C 66.190407,57.115618 62.042923,51.535031 61.909572,56.098997 C 61.905965,56.806609 62.101773,57.972554 63.027872,58.003939 L 63.02787,58.003941 z M 71.546562,61.53841 C 70.44475,61.174966 67.818061,62.336396 67.865982,60.823218 C 70.135319,58.884766 72.307083,53.120385 68.059074,54.29314 C 70.874374,50.878262 72.91905,57.615923 69.689331,59.370807 C 67.712169,61.067135 70.222239,60.538273 71.546562,60.597416 C 71.546562,60.911081 71.546562,61.224745 71.546562,61.53841 z M 80.563576,57.435898 C 81.821807,60.55998 77.323159,63.805488 76.966385,59.320761 C 75.842372,56.931266 78.137338,50.483505 80.300925,54.909845 C 80.516372,55.733228 80.560292,56.588866 80.563572,57.435899 L 80.563576,57.435898 z M 78.707588,60.809711 C 81.450749,59.801304 79.169509,50.93569 77.64717,56.035885 C 77.704161,57.506206 77.074914,60.036047 78.707592,60.809713 L 78.707588,60.809711 z M 82.058563,60.270363 C 83.953825,61.949847 80.221243,62.008288 82.058562,60.270362 L 82.058563,60.270363 z M 87.265511,57.435898 C 88.523745,60.55998 84.025099,63.805488 83.668325,59.320761 C 82.54431,56.931267 84.839281,50.483504 87.00286,54.909845 C 87.218306,55.733229 87.262232,56.588866 87.265512,57.435899 L 87.265511,57.435898 z M 85.409531,60.809711 C 88.152688,59.801302 85.87145,50.935693 84.349108,56.035885 C 84.406083,57.506205 83.77686,60.036047 85.409532,60.809713 L 85.409531,60.809711 z M 95.007278,61.53841 C 93.532698,61.506106 94.648012,58.883906 94.30098,57.724053 C 94.093964,56.39285 95.060066,53.667608 92.888392,55.519481 C 92.649634,53.998213 95.933179,52.211381 95.007278,55.042332 C 95.007278,57.207691 95.007278,59.373051 95.007278,61.53841 z M 12.355226,74.44268 C 11.037424,73.923275 11.509131,78.064209 10.821,75.273538 C 11.387735,73.292271 7.63275,75.632723 8.3607368,73.490204 C 9.2239863,71.684715 10.087236,69.879227 10.950485,68.073738 C 12.227498,68.260446 11.193575,70.758089 11.52729,71.888095 C 10.910766,74.030636 12.619926,72.841175 12.355226,74.44268 z M 10.821,73.490204 C 10.668384,72.685297 11.15789,69.025278 10.514792,70.401238 C 10.40432,71.393254 8.0101596,73.83035 10.004928,73.490204 C 10.276952,73.490204 10.548976,73.490204 10.821,73.490204 z M 17.444462,72.210678 C 16.008658,68.776524 22.622929,66.096078 22.211945,69.927048 C 18.823477,66.10373 16.301341,74.192886 19.875042,75.431009 C 21.386423,75.262021 23.90007,73.886135 21.557637,76.093722 C 18.996328,77.391808 17.209048,74.470893 17.444462,72.21068 L 17.444462,72.210678 z M 30.232298,76.227127 C 28.757731,76.194812 29.87304,73.572621 29.526009,72.41277 C 29.318994,71.08157 30.285095,68.356324 28.11342,70.208195 C 27.874666,68.686926 31.158197,66.900095 30.232298,69.731045 C 30.232298,71.896405 30.232298,74.061766 30.232298,76.227127 z M 32.916214,74.959076 C 34.81147,76.638533 31.078919,76.697025 32.916213,74.959076 L 32.916214,74.959076 z M 38.252663,74.44268 C 36.934858,73.923272 37.406566,78.06421 36.718433,75.273538 C 37.28517,73.292272 33.53019,75.632723 34.258179,73.490204 C 35.121426,71.684715 35.984673,69.879227 36.847919,68.073738 C 38.124932,68.260446 37.09101,70.758089 37.424725,71.888095 C 36.808199,74.03064 38.517363,72.841173 38.252663,74.44268 z M 36.718433,73.490204 C 36.565818,72.685297 37.055323,69.025278 36.412225,70.401238 C 36.301753,71.393254 33.907593,73.83035 35.902362,73.490204 C 36.174386,73.490204 36.446409,73.490204 36.718433,73.490204 z M 45.888477,71.774612 C 49.644593,73.772667 43.506003,78.872447 43.381138,74.815636 C 46.465773,77.242007 46.774291,72.201823 44.58968,71.791264 C 47.226644,70.815273 45.283299,68.019002 43.462267,68.982369 C 44.722406,65.895112 48.584751,70.120379 45.888477,71.774612 z M 54.795624,76.227127 C 53.321054,76.194814 54.436364,73.572621 54.089333,72.41277 C 53.882317,71.081566 54.84842,68.356325 52.676742,70.208195 C 52.437987,68.686926 55.721524,66.900095 54.795624,69.731045 C 54.795624,71.896405 54.795624,74.061766 54.795624,76.227127 z M 60.457741,72.124611 C 61.715973,75.248699 57.217334,78.494201 56.860546,74.009476 C 55.736527,71.619978 58.031509,65.172221 60.195092,69.598558 C 60.410538,70.421942 60.454462,71.27758 60.457742,72.124613 L 60.457741,72.124611 z M 58.601761,75.498428 C 61.344927,74.490012 59.063677,65.62441 57.541342,70.7246 C 57.59831,72.194919 56.969094,74.724761 58.601762,75.498428 L 58.601761,75.498428 z M 64.216805,72.60659 C 60.177236,76.743486 60.497385,64.494462 64.432612,69.031951 C 66.094207,71.314293 64.249287,78.861568 61.499438,75.32013 C 62.853892,75.988881 64.571503,74.902125 64.216802,72.606587 L 64.216805,72.60659 z M 63.02787,72.692657 C 66.190407,71.804331 62.042925,66.223746 61.909572,70.78771 C 61.905966,71.495323 62.101772,72.661266 63.027872,72.692654 L 63.02787,72.692657 z M 71.546562,76.227127 C 70.44475,75.863682 67.818061,77.025113 67.865982,75.511935 C 70.135317,73.573481 72.307084,67.809099 68.059074,68.981855 C 70.87437,65.566976 72.919052,72.304637 69.689331,74.059522 C 67.71217,75.755851 70.222237,75.226991 71.546562,75.286133 C 71.546562,75.599798 71.546562,75.913462 71.546562,76.227127 z M 80.563576,72.124611 C 81.821807,75.248694 77.323161,78.494203 76.966385,74.009476 C 75.842373,71.619981 78.137335,65.172221 80.300925,69.598558 C 80.516372,70.421942 80.560292,71.27758 80.563572,72.124613 L 80.563576,72.124611 z M 78.707588,75.498428 C 81.450748,74.490018 79.169511,65.624405 77.64717,70.7246 C 77.70416,72.194921 77.074915,74.724759 78.707592,75.498428 L 78.707588,75.498428 z M 82.058563,74.959076 C 83.953825,76.638561 80.221243,76.697001 82.058562,74.959076 L 82.058563,74.959076 z M 87.265511,72.124611 C 88.523745,75.248694 84.025102,78.494203 83.668325,74.009476 C 82.544312,71.619982 84.839278,65.17222 87.00286,69.598558 C 87.218306,70.421942 87.262232,71.27758 87.265512,72.124613 L 87.265511,72.124611 z M 85.409531,75.498428 C 88.152687,74.490015 85.871451,65.624408 84.349108,70.7246 C 84.406082,72.19492 83.776861,74.72476 85.409532,75.498428 L 85.409531,75.498428 z M 95.007278,76.227127 C 93.532698,76.194822 94.648012,73.572623 94.30098,72.41277 C 94.093964,71.081568 95.060067,68.356326 92.888392,70.208195 C 92.649634,68.686928 95.933178,66.900093 95.007278,69.731045 C 95.007278,71.896405 95.007278,74.061766 95.007278,76.227127 z M 12.355226,89.131393 C 11.037422,88.611987 11.509132,92.752931 10.821,89.962259 C 11.387745,87.980981 7.6327594,90.321434 8.3607368,88.178925 C 9.2239863,86.373436 10.087236,84.567947 10.950485,82.762459 C 12.227498,82.949166 11.193575,85.44681 11.52729,86.576816 C 10.910767,88.719354 12.619921,87.529897 12.355226,89.131393 z M 10.821,88.178925 C 10.668385,87.374013 11.157888,83.713996 10.514793,85.089952 C 10.40432,86.08197 8.0101619,88.519068 10.004928,88.178925 C 10.276952,88.178925 10.548976,88.178925 10.821,88.178925 z M 17.444462,86.899391 C 16.008659,83.465237 22.622927,80.784792 22.211945,84.615761 C 18.823476,80.792447 16.301341,88.881603 19.875042,90.119722 C 21.386425,89.950734 23.90007,88.57485 21.557637,90.78244 C 18.996325,92.080528 17.209049,89.159606 17.444462,86.899394 L 17.444462,86.899391 z M 30.232298,90.915848 C 28.757731,90.883532 29.87304,88.261342 29.526009,87.101491 C 29.318994,85.770288 30.285094,83.045039 28.11342,84.89691 C 27.874664,83.375642 31.158197,81.588808 30.232298,84.419758 C 30.232298,86.585121 30.232298,88.750484 30.232298,90.915848 z M 32.916214,89.647797 C 34.81148,91.327248 31.07891,91.385743 32.916213,89.647794 L 32.916214,89.647797 z M 38.252663,89.131393 C 36.934856,88.611984 37.406567,92.752933 36.718433,89.962259 C 37.28518,87.980983 33.530199,90.321434 34.258179,88.178925 C 35.121426,86.373436 35.984673,84.567947 36.847919,82.762459 C 38.124932,82.949166 37.09101,85.44681 37.424725,86.576816 C 36.8082,88.719358 38.517357,87.529895 38.252663,89.131393 z M 36.718433,88.178925 C 36.565818,87.374013 37.055322,83.713996 36.412226,85.089952 C 36.301753,86.08197 33.907595,88.519068 35.902362,88.178925 C 36.174386,88.178925 36.446409,88.178925 36.718433,88.178925 z M 45.888477,86.463326 C 49.644597,88.461386 43.505987,93.56117 43.381138,89.504341 C 46.465765,91.930734 46.774296,86.890539 44.58968,86.479977 C 47.226654,85.503985 45.283289,82.707718 43.462267,83.671083 C 44.722403,80.583826 48.584753,84.809092 45.888477,86.463326 z M 54.795624,90.915848 C 53.321054,90.883534 54.436364,88.261342 54.089333,87.101491 C 53.882317,85.770284 54.848419,83.045041 52.676742,84.89691 C 52.437986,83.375642 55.721524,81.588807 54.795624,84.419758 C 54.795624,86.585121 54.795624,88.750484 54.795624,90.915848 z M 60.457741,86.813324 C 61.715974,89.937416 57.217333,93.182921 56.860546,88.698189 C 55.736526,86.308691 58.031513,79.860934 60.195092,84.287274 C 60.410538,85.110656 60.454462,85.966293 60.457742,86.813324 L 60.457741,86.813324 z M 58.601761,90.187141 C 61.344928,89.178728 59.063675,80.313123 57.541342,85.413315 C 57.59831,86.883635 56.969094,89.413475 58.601762,90.187144 L 58.601761,90.187141 z M 64.216805,87.295303 C 60.177234,91.432195 60.497386,79.183177 64.432612,83.720664 C 66.094206,86.003007 64.249288,93.55029 61.499439,90.008845 C 62.853901,90.677603 64.5715,89.590829 64.216802,87.295304 L 64.216805,87.295303 z M 63.02787,87.381363 C 66.190409,86.493058 62.042923,80.912456 61.909572,85.476425 C 61.905967,86.184037 62.101768,87.349984 63.027872,87.381364 L 63.02787,87.381363 z M 71.546562,90.915848 C 70.44475,90.552403 67.818061,91.713834 67.865982,90.200656 C 70.135308,88.262199 72.307091,82.497817 68.059074,83.670569 C 70.874372,80.255689 72.919051,86.993354 69.68933,88.748241 C 67.712167,90.444567 70.222243,89.915702 71.546562,89.974846 C 71.546562,90.288513 71.546562,90.60218 71.546562,90.915848 z M 80.563576,86.813324 C 81.821808,89.937411 77.32316,93.182923 76.966385,88.698189 C 75.842372,86.308694 78.137339,79.860934 80.300925,84.287274 C 80.516372,85.110656 80.560292,85.966293 80.563572,86.813324 L 80.563576,86.813324 z M 78.707588,90.187141 C 81.450749,89.178734 79.169509,80.313119 77.64717,85.413315 C 77.70416,86.883637 77.074916,89.413474 78.707592,90.187144 L 78.707588,90.187141 z M 82.058563,89.647797 C 83.953835,91.327277 80.221235,91.385719 82.058562,89.647794 L 82.058563,89.647797 z M 87.265511,86.813324 C 88.523746,89.937411 84.0251,93.182923 83.668325,88.698189 C 82.54431,86.308695 84.839282,79.860933 87.00286,84.287274 C 87.218306,85.110656 87.262232,85.966292 87.265512,86.813324 L 87.265511,86.813324 z M 85.409531,90.187141 C 88.152688,89.178732 85.87145,80.313121 84.349108,85.413315 C 84.406082,86.883636 83.776862,89.413474 85.409532,90.187144 L 85.409531,90.187141 z M 95.007278,90.915848 C 93.532698,90.883543 94.648012,88.261344 94.30098,87.101491 C 94.093964,85.770285 95.060067,83.045041 92.888392,84.89691 C 92.649633,83.375644 95.933178,81.588806 95.007278,84.419758 C 95.007278,86.585121 95.007278,88.750484 95.007278,90.915848 z"
     id="path2425" />
</svg>
