/* XPM */
const char *icon_epsr_restraint[] = {
/* columns rows colors chars-per-pixel */
"24 24 60 1",
"  c #1B1B1B",
". c #1E1B1B",
"X c #2A211F",
"o c gray13",
"O c #222222",
"+ c gray15",
"@ c gray26",
"# c #515151",
"$ c gray37",
"% c gray38",
"& c #656565",
"* c gray43",
"= c gray44",
"- c #7C7C7C",
"; c #E52F05",
": c #E63208",
"> c #E8441E",
", c #CD4D2F",
"< c #E94B26",
"1 c #E94C28",
"2 c #9A6A5E",
"3 c #EC6141",
"4 c #EB7255",
"5 c #EE7559",
"6 c #EE795E",
"7 c #EF8066",
"8 c #EF8067",
"9 c #F0856D",
"0 c #E1907E",
"q c #F2937E",
"w c #909090",
"e c #979291",
"r c #979797",
"t c #A1A0A0",
"y c gray63",
"u c #AFAFAF",
"i c #F29D8A",
"p c #F4A28F",
"a c #F5AC9B",
"s c #F8C3B7",
"d c #F8C4B8",
"f c #C0C0C0",
"g c #D7D5D4",
"h c #D7D7D7",
"j c gray87",
"k c #FBDCD5",
"l c #FDF1EE",
"z c #FCF2EF",
"x c gray95",
"c c gray97",
"v c #FDF3F0",
"b c #FEF8F6",
"n c #F9F9F9",
"m c #FBFBFB",
"M c #FEFAF9",
"N c gray99",
"B c #FFFDFC",
"V c #FEFEFE",
"C c #FFFEFE",
"Z c none",
/* pixels */
"ZZZZZZZZZZZZZZZZZZZZZZZZ",
"ZZZZZZZZZZZZZZZZZZZZZZZZ",
"ZZZZZZZZZZZZZZZZZZZZZZZZ",
"ZZZZZZZZZZZZZZZZZZZZZZZZ",
"ZZZZZZZZZZZZZZZZZZZZZZZZ",
"ZZZZZZZZZZZZZZZZZZmjjZZZ",
"ZZZZZZZZZZZZZZZZZx=o.rZZ",
"ZZZZZZZZZZZZZZZZm*+uw yZ",
"ZZZZZZZZZZZZZZZvg uZZ-@c",
"ZZZZZZZZZZZZZZv50Xwmx$#m",
"ZZZZZZZZZZZZZZb9:,.-$+fZ",
"ZZZZZZZZZZZZZk8>3it%%fZZ",
"ZZZZZZZZZZZlp<3dMZZZZZZZ",
"ZZZZZZZvZMd3<plZZZZZZZZZ",
"ZZZmjjv5q6>8kZZZZZZZZZZZ",
"ZZx=ooe4:1sMZZZZZZZZZZZZ",
"Zm*+uw 26aZZZZZZZZZZZZZZ",
"Zh uZZ-@cZZZZZZZZZZZZZZZ",
"Zj.wZc$#mZZZZZZZZZZZZZZZ",
"ZZr -&+uZZZZZZZZZZZZZZZZ",
"ZZNy%&fZZZZZZZZZZZZZZZZZ",
"ZZZZZZZZZZZZZZZZZZZZZZZZ",
"ZZZZZZZZZZZZZZZZZZZZZZZZ",
"ZZZZZZZZZZZZZZZZZZZZZZZZ"
};
