<?xml version="1.0" encoding="UTF-8" standalone="no"?>
<!-- Created with Inkscape (http://www.inkscape.org/) -->
<svg
   xmlns:svg="http://www.w3.org/2000/svg"
   xmlns="http://www.w3.org/2000/svg"
   xmlns:xlink="http://www.w3.org/1999/xlink"
   version="1.0"
   width="100"
   height="100"
   id="svg2">
  <defs
     id="defs4">
    <linearGradient
       id="linearGradient3189">
      <stop
         id="stop3191"
         style="stop-color:#000000;stop-opacity:1"
         offset="0" />
      <stop
         id="stop3193"
         style="stop-color:#000000;stop-opacity:0"
         offset="1" />
    </linearGradient>
    <linearGradient
       id="linearGradient3197">
      <stop
         id="stop3199"
         style="stop-color:#e4e1e1;stop-opacity:1"
         offset="0" />
      <stop
         id="stop3201"
         style="stop-color:#e4af00;stop-opacity:1"
         offset="1" />
    </linearGradient>
    <linearGradient
       id="linearGradient3384">
      <stop
         id="stop3386"
         style="stop-color:#0000ff;stop-opacity:1"
         offset="0" />
      <stop
         id="stop3388"
         style="stop-color:#000000;stop-opacity:1"
         offset="1" />
    </linearGradient>
    <linearGradient
       id="linearGradient3252">
      <stop
         id="stop3254"
         style="stop-color:#ffffff;stop-opacity:1"
         offset="0" />
      <stop
         id="stop3256"
         style="stop-color:#7f7fff;stop-opacity:0"
         offset="1" />
    </linearGradient>
    <radialGradient
       cx="-18.344072"
       cy="32.509941"
       r="33.113495"
       fx="-18.344072"
       fy="32.509941"
       id="radialGradient2186"
       xlink:href="#linearGradient3252"
       gradientUnits="userSpaceOnUse"
       gradientTransform="matrix(0.3309716,0,0,0.3309716,18.654134,1.4081537)" />
    <linearGradient
       x1="-30.658974"
       y1="81.411858"
       x2="61.59734"
       y2="81.411858"
       id="linearGradient2189"
       xlink:href="#linearGradient3384"
       gradientUnits="userSpaceOnUse"
       gradientTransform="matrix(0.4169648,0.4169648,-0.4169648,0.4169648,47.221459,-20.937807)" />
    <radialGradient
       cx="50.059151"
       cy="48.853989"
       r="42.138134"
       fx="50.059151"
       fy="48.853989"
       id="radialGradient4224"
       xlink:href="#linearGradient3197"
       gradientUnits="userSpaceOnUse"
       gradientTransform="matrix(-1.9965364,-1.9965364,-2.2377992,2.2377992,219.7134,115.81698)" />
    <radialGradient
       cx="50.059151"
       cy="48.853989"
       r="42.138134"
       fx="50.059151"
       fy="48.853989"
       id="radialGradient4226"
       xlink:href="#linearGradient3189"
       gradientUnits="userSpaceOnUse"
       gradientTransform="matrix(-1.9965364,-1.9965364,-2.2377992,2.2377992,219.7134,115.81698)" />
  </defs>
  <path
     d="M 43.692796,23.899029 C 43.694696,34.521572 35.083904,43.133831 24.461369,43.133831 C 13.838818,43.133831 5.228065,34.521572 5.2299258,23.899029 C 5.2280603,13.276484 13.838818,4.6642256 24.461369,4.6642256 C 35.083904,4.6642256 43.694657,13.276484 43.692796,23.899029 L 43.692796,23.899029 L 43.692796,23.899029 z"
     id="path6824"
     style="fill:#282828;fill-opacity:1;fill-rule:evenodd;stroke:none" />
  <path
     d="M 38.757709,19.529641 C 38.759609,30.152184 30.148819,38.764445 19.526273,38.764445 C 8.903731,38.764445 0.29298049,30.152184 0.29483891,19.529641 C 0.29298049,8.9070974 8.903731,0.2948386 19.526273,0.2948386 C 30.148819,0.2948386 38.759568,8.9070974 38.757709,19.529641 L 38.757709,19.529641 L 38.757709,19.529641 z"
     id="path3474"
     style="fill:#0000ff;fill-opacity:1;fill-rule:evenodd;stroke:#000000;stroke-width:0.58967721px;stroke-linecap:butt;stroke-linejoin:miter;stroke-opacity:1" />
  <path
     d="M 33.324366,33.056852 C 25.814407,40.569438 13.6359,40.570505 6.1246305,33.059252 C -1.3866448,25.547978 -1.3855766,13.369472 6.1270105,5.8595165 C 13.63697,-1.6530671 25.815477,-1.654133 33.326752,5.8571365 C 40.838022,13.368409 40.836955,25.546917 33.324352,33.056874 L 33.324352,33.056874 L 33.324366,33.056852 z"
     id="path3476"
     style="opacity:0.71739131;fill:url(#linearGradient2189);fill-opacity:1;fill-rule:evenodd;stroke:none" />
  <path
     d="M 23.376907,12.168021 C 23.377907,18.130197 18.544946,22.964052 12.582766,22.964052 C 6.6205905,22.964052 1.7875835,18.130197 1.7886268,12.168021 C 1.7875835,6.2058435 6.6205905,1.3719905 12.582766,1.3719905 C 18.544946,1.3719905 23.377951,6.2058435 23.376907,12.168021 L 23.376907,12.168021 L 23.376907,12.168021 z"
     id="path3478"
     style="fill:url(#radialGradient2186);fill-opacity:1;fill-rule:evenodd;stroke:none" />
  <path
     d="M 41.67148,100.8643 L 41.67148,44.738964 L 100.65981,44.738964"
     id="rect2192"
     style="fill:#ffffff;fill-opacity:0.64606742;fill-rule:evenodd;stroke:#000100;stroke-width:3.75;stroke-linecap:butt;stroke-linejoin:round;stroke-miterlimit:4;stroke-dasharray:3.75, 3.75;stroke-dashoffset:0;stroke-opacity:1" />
  <path
     d="M 40.948827,44.785277 L 99.746467,10.838447"
     id="path2195"
     style="fill:#ffffff;fill-opacity:0.64606742;fill-rule:evenodd;stroke:#000100;stroke-width:3.75;stroke-linecap:butt;stroke-linejoin:round;stroke-miterlimit:4;stroke-dasharray:3.75, 3.75;stroke-dashoffset:0;stroke-opacity:1" />
  <path
     d="M 68.042453,57.992243 L 76.123185,47.324828 L 87.775556,86.216363 L 48.884027,74.563985 L 59.27973,66.754966 C 58.281523,65.75676 45.793612,53.071118 44.722451,52.197688 L 53.485174,43.434965 L 68.042453,57.992243 L 68.042453,57.992243 z"
     id="path4225"
     style="fill:#282828;fill-opacity:1;fill-rule:evenodd;stroke:none" />
  <g
     transform="matrix(-0.538483,-0.538483,-0.538483,0.538483,112.95527,58.586597)"
     id="g4220">
    <path
       d="M 56.191798,40.582064 L 58.593618,23.173764 L 11.661868,48.466259 L 58.593618,73.75875 L 56.191798,56.85504 C 58.045528,56.85504 81.420038,56.67144 83.225658,56.85504 L 83.225658,40.582064 L 56.191798,40.582064 z"
       id="path3242"
       style="fill:none;stroke:#000000;stroke-width:5.63700008;stroke-linecap:round;stroke-linejoin:round;stroke-miterlimit:4;stroke-dasharray:none;stroke-dashoffset:0;stroke-opacity:1" />
    <path
       d="M 56.191794,40.582064 L 58.593619,23.173764 L 11.661867,48.466259 L 58.593619,73.75875 L 56.191794,56.85504 C 58.045532,56.85504 81.420037,56.67144 83.225659,56.85504 L 83.225659,40.582064 L 56.191794,40.582064 z"
       id="path3176"
       style="fill:url(#radialGradient4224);fill-opacity:1;fill-rule:evenodd;stroke:url(#radialGradient4226);stroke-width:4.0367074;stroke-linecap:round;stroke-linejoin:round;stroke-miterlimit:4;stroke-dashoffset:0;stroke-opacity:1" />
  </g>
</svg>
