<?xml version="1.0" encoding="UTF-8" standalone="no"?>
<!-- Created with Inkscape (http://www.inkscape.org/) -->
<svg
   xmlns:svg="http://www.w3.org/2000/svg"
   xmlns="http://www.w3.org/2000/svg"
   version="1.0"
   width="100"
   height="100"
   id="svg2">
  <defs
     id="defs4" />
  <g
     transform="matrix(1.0870167,-0.2135695,0.2135695,1.0870167,222.62569,9.0712512)"
     id="g3253"
     style="stroke:#e8e8e8;stroke-opacity:1">
    <path
       d="M -177.57599,1.5527563 L -172.19048,-10.683996 L -166.80496,-22.920748 L -113.00103,-22.920748 L -134.54309,26.026261 L -147.99408,26.026261"
       id="path3239"
       style="fill:none;stroke:#e8e8e8;stroke-width:4.625;stroke-linecap:butt;stroke-linejoin:round;stroke-miterlimit:4;stroke-dashoffset:0;stroke-opacity:1" />
    <rect
       width="53.803928"
       height="53.477772"
       x="-190.10735"
       y="-9.2113724"
       transform="matrix(1,0,-0.4028229,0.9152779,0,0)"
       id="rect3241"
       style="fill:none;stroke:#e8e8e8;stroke-width:4.83431816;stroke-linecap:butt;stroke-linejoin:round;stroke-miterlimit:4;stroke-dasharray:none;stroke-dashoffset:0;stroke-opacity:1" />
    <path
       d="M -147.99408,26.026265 L -188.34703,26.026265 L -172.19048,-10.683997"
       id="path3243"
       style="fill:none;stroke:#e8e8e8;stroke-width:4.625;stroke-linecap:butt;stroke-linejoin:round;stroke-miterlimit:4;stroke-dasharray:9.25, 4.625;stroke-dashoffset:0;stroke-opacity:1" />
    <path
       d="M -186.18424,-8.0390707 C -166.5924,-22.732948 -166.5924,-22.732948 -166.5924,-22.732948"
       id="path3245"
       style="fill:none;stroke:#e8e8e8;stroke-width:5;stroke-linecap:butt;stroke-linejoin:miter;stroke-miterlimit:4;stroke-dasharray:none;stroke-opacity:1" />
    <path
       d="M -133.73526,-7.4268267 C -114.14342,-22.120704 -114.14342,-22.120704 -114.14342,-22.120704"
       id="path3247"
       style="fill:none;stroke:#e8e8e8;stroke-width:5;stroke-linecap:butt;stroke-linejoin:miter;stroke-miterlimit:4;stroke-dasharray:none;stroke-opacity:1" />
    <path
       d="M -154.14342,40.328275 C -134.55159,25.634398 -134.55159,25.634398 -134.55159,25.634398"
       id="path3249"
       style="fill:none;stroke:#e8e8e8;stroke-width:5;stroke-linecap:butt;stroke-linejoin:miter;stroke-miterlimit:4;stroke-dasharray:none;stroke-opacity:1" />
    <path
       d="M -206.18424,39.716031 C -186.5924,25.022154 -186.5924,25.022154 -186.5924,25.022154"
       id="path3251"
       style="fill:none;stroke:#e8e8e8;stroke-width:5;stroke-linecap:butt;stroke-linejoin:miter;stroke-miterlimit:4;stroke-dasharray:10, 5;stroke-dashoffset:0;stroke-opacity:1" />
  </g>
  <path
     d="M 28.703932,45.163036 L 31.944681,30.7113 L 35.185429,16.259564 L 93.671199,4.7686842 L 80.708206,62.575628 L 66.086763,65.448348"
     id="rect3225"
     style="fill:none;stroke:#000000;stroke-width:5.12356758;stroke-linecap:butt;stroke-linejoin:round;stroke-miterlimit:4;stroke-dashoffset:0;stroke-opacity:1" />
  <rect
     width="59.603905"
     height="59.242588"
     x="26.758621"
     y="42.380138"
     transform="matrix(0.9812405,-0.1927874,-0.2188121,0.975767,0,0)"
     id="rect2248"
     style="fill:none;stroke:#000000;stroke-width:5.35544968;stroke-linecap:butt;stroke-linejoin:round;stroke-miterlimit:4;stroke-dasharray:none;stroke-dashoffset:0;stroke-opacity:1" />
  <path
     d="M 66.086762,65.448353 L 22.222434,74.066513 L 31.944681,30.711299"
     id="rect3223"
     style="fill:none;stroke:#000000;stroke-width:5.12356758;stroke-linecap:butt;stroke-linejoin:round;stroke-miterlimit:4;stroke-dasharray:10.24713486, 5.12356743;stroke-dashoffset:0;stroke-opacity:1" />
  <path
     d="M 17.298102,36.57502 C 35.456591,16.418311 35.456591,16.418311 35.456591,16.418311"
     id="path3231"
     style="fill:none;stroke:#000000;stroke-width:5.53899193;stroke-linecap:butt;stroke-linejoin:miter;stroke-miterlimit:4;stroke-dasharray:none;stroke-opacity:1" />
  <path
     d="M 74.441775,26.039034 C 92.600262,5.8823262 92.600262,5.8823262 92.600262,5.8823262"
     id="path3233"
     style="fill:none;stroke:#000000;stroke-width:5.53899193;stroke-linecap:butt;stroke-linejoin:miter;stroke-miterlimit:4;stroke-dasharray:none;stroke-opacity:1" />
  <path
     d="M 62.456796,82.308189 C 80.615285,62.15148 80.615285,62.15148 80.615285,62.15148"
     id="path3235"
     style="fill:none;stroke:#000000;stroke-width:5.53899193;stroke-linecap:butt;stroke-linejoin:miter;stroke-miterlimit:4;stroke-dasharray:none;stroke-opacity:1" />
  <path
     d="M 5.7568038,92.757003 C 23.915293,72.600294 23.915293,72.600294 23.915293,72.600294"
     id="path3237"
     style="fill:none;stroke:#000000;stroke-width:5.53899193;stroke-linecap:butt;stroke-linejoin:miter;stroke-miterlimit:4;stroke-dasharray:11.07798363, 5.53899181;stroke-dashoffset:0;stroke-opacity:1" />
</svg>
