<?xml version="1.0" encoding="UTF-8" standalone="no"?>
<!-- Created with Inkscape (http://www.inkscape.org/) -->
<svg
   xmlns:svg="http://www.w3.org/2000/svg"
   xmlns="http://www.w3.org/2000/svg"
   xmlns:xlink="http://www.w3.org/1999/xlink"
   version="1.0"
   width="100"
   height="100"
   id="svg2">
  <defs
     id="defs4">
    <linearGradient
       id="linearGradient3189">
      <stop
         id="stop2575"
         style="stop-color:#000000;stop-opacity:1"
         offset="0" />
      <stop
         id="stop3193"
         style="stop-color:#000000;stop-opacity:0"
         offset="1" />
    </linearGradient>
    <radialGradient
       cx="50.059151"
       cy="48.853989"
       r="42.138134"
       fx="50.059151"
       fy="48.853989"
       id="radialGradient2567"
       xlink:href="#linearGradient3189"
       gradientUnits="userSpaceOnUse"
       gradientTransform="matrix(0,-1.809554,2.0282216,0,8.9085149,148.80229)" />
    <linearGradient
       id="linearGradient3197">
      <stop
         id="stop3199"
         style="stop-color:#e4e1e1;stop-opacity:1"
         offset="0" />
      <stop
         id="stop3201"
         style="stop-color:#e4af00;stop-opacity:1"
         offset="1" />
    </linearGradient>
    <radialGradient
       cx="50.059151"
       cy="48.853989"
       r="42.138134"
       fx="50.059151"
       fy="48.853989"
       id="radialGradient2565"
       xlink:href="#linearGradient3197"
       gradientUnits="userSpaceOnUse"
       gradientTransform="matrix(0,-1.809554,2.0282216,0,8.9085149,148.80229)" />
    <radialGradient
       cx="50.059151"
       cy="48.853989"
       r="42.138134"
       fx="50.059151"
       fy="48.853989"
       id="radialGradient2597"
       xlink:href="#linearGradient3197"
       gradientUnits="userSpaceOnUse"
       gradientTransform="matrix(0,-1.809554,2.0282216,0,8.9085149,148.80229)" />
    <radialGradient
       cx="50.059151"
       cy="48.853989"
       r="42.138134"
       fx="50.059151"
       fy="48.853989"
       id="radialGradient2599"
       xlink:href="#linearGradient3189"
       gradientUnits="userSpaceOnUse"
       gradientTransform="matrix(0,-1.809554,2.0282216,0,8.9085149,148.80229)" />
    <radialGradient
       cx="50.059151"
       cy="48.853989"
       r="42.138134"
       fx="50.059151"
       fy="48.853989"
       id="radialGradient3372"
       xlink:href="#linearGradient3197"
       gradientUnits="userSpaceOnUse"
       gradientTransform="matrix(0.9654242,0,0,1.0820866,24.573611,58.83532)" />
    <radialGradient
       cx="50.059151"
       cy="48.853989"
       r="42.138134"
       fx="50.059151"
       fy="48.853989"
       id="radialGradient3374"
       xlink:href="#linearGradient3189"
       gradientUnits="userSpaceOnUse"
       gradientTransform="matrix(0.9654242,0,0,1.0820866,24.573611,58.83532)" />
  </defs>
  <path
     d="M 62.772451,85.242121 L 16.841501,85.24212 L 16.841501,39.311179 C 42.195381,39.311179 62.772451,59.888241 62.772451,85.242121 L 62.772451,85.242121 z"
     id="path3235"
     style="fill:none;stroke:#3200bd;stroke-width:4.67999983;stroke-miterlimit:4;stroke-dasharray:4.68, 4.68;stroke-dashoffset:0;stroke-opacity:1" />
  <path
     d="M 75.399891,67.715312 L 75.399891,85.633317 L 13.246801,85.633317 L 75.399891,67.715312 L 75.399891,67.715312 z"
     id="rect3339"
     style="fill:#ffffff;fill-opacity:1;fill-rule:evenodd;stroke:none" />
  <g
     transform="matrix(0.533515,0,0,0.533515,-11.211474,-1.7221058)"
     id="g2557">
    <path
       d="M 43.094891,58.217554 L 24.666396,60.76013 L 51.44113,11.077996 L 78.21586,60.76013 L 60.321526,58.217554 C 60.321526,60.179919 60.127167,160.55143 60.321526,162.46287 L 43.094891,162.46287 L 43.094891,58.217554 L 43.094891,58.217554 z"
       id="path3242"
       style="fill:none;stroke:#000000;stroke-width:5.96735048;stroke-linecap:round;stroke-linejoin:round;stroke-miterlimit:4;stroke-dasharray:none;stroke-dashoffset:0;stroke-opacity:1" />
    <path
       d="M 43.094891,58.217549 L 24.666396,60.760131 L 51.44113,11.077995 L 78.21586,60.760131 L 60.321526,58.217549 C 60.321526,60.179924 60.127167,160.69603 60.321526,162.60747 L 43.094891,162.60747 L 43.094891,58.217549 L 43.094891,58.217549 z"
       id="path3176"
       style="fill:url(#radialGradient2565);fill-opacity:1;fill-rule:evenodd;stroke:url(#radialGradient2567);stroke-width:4.27327442;stroke-linecap:round;stroke-linejoin:round;stroke-miterlimit:4;stroke-dashoffset:0;stroke-opacity:1" />
  </g>
  <g
     transform="matrix(0.1380838,0.5153359,-0.5153359,0.1380838,91.921621,30.344131)"
     id="g2591">
    <path
       d="M 43.094891,58.217554 L 24.666396,60.76013 L 51.44113,11.077996 L 78.21586,60.76013 L 60.321526,58.217554 C 60.321526,60.179919 60.127167,160.55143 60.321526,162.46287 L 43.094891,162.46287 L 43.094891,58.217554 L 43.094891,58.217554 z"
       id="path2593"
       style="fill:none;stroke:#000000;stroke-width:5.96735048;stroke-linecap:round;stroke-linejoin:round;stroke-miterlimit:4;stroke-dasharray:none;stroke-dashoffset:0;stroke-opacity:1" />
    <path
       d="M 43.094891,58.217549 L 24.666396,60.760131 L 51.44113,11.077995 L 78.21586,60.760131 L 60.321526,58.217549 C 60.321526,60.179924 60.127167,160.69603 60.321526,162.60747 L 43.094891,162.60747 L 43.094891,58.217549 L 43.094891,58.217549 z"
       id="path2595"
       style="fill:url(#radialGradient2597);fill-opacity:1;fill-rule:evenodd;stroke:url(#radialGradient2599);stroke-width:4.27327442;stroke-linecap:round;stroke-linejoin:round;stroke-miterlimit:4;stroke-dashoffset:0;stroke-opacity:1" />
  </g>
  <path
     d="M 72.901921,77.074265 L 71.545421,67.242386 L 98.051581,81.527108 L 71.545421,95.811829 L 72.901921,86.264933 C 71.854971,86.264933 18.305261,86.16124 17.285481,86.264933 L 17.285481,77.074265 L 72.901921,77.074265 L 72.901921,77.074265 z"
     id="path2583"
     style="fill:none;stroke:#000000;stroke-width:3.183671;stroke-linecap:round;stroke-linejoin:round;stroke-miterlimit:4;stroke-dasharray:none;stroke-dashoffset:0;stroke-opacity:1" />
  <path
     d="M 72.901921,77.074265 L 71.545421,67.242386 L 98.051581,81.527108 L 71.545421,95.811829 L 72.901921,86.264933 C 71.854971,86.264933 18.228121,86.16124 17.208341,86.264933 L 17.208341,77.074265 L 72.901921,77.074265 L 72.901921,77.074265 z"
     id="path2585"
     style="opacity:0.359375;fill:url(#radialGradient3372);fill-opacity:1;fill-rule:evenodd;stroke:url(#radialGradient3374);stroke-width:2.27985597;stroke-linecap:round;stroke-linejoin:round;stroke-miterlimit:4;stroke-dashoffset:0;stroke-opacity:1" />
</svg>
