<?xml version="1.0" encoding="UTF-8" standalone="no"?>
<!-- Created with Inkscape (http://www.inkscape.org/) -->
<svg
   xmlns:dc="http://purl.org/dc/elements/1.1/"
   xmlns:cc="http://web.resource.org/cc/"
   xmlns:rdf="http://www.w3.org/1999/02/22-rdf-syntax-ns#"
   xmlns:svg="http://www.w3.org/2000/svg"
   xmlns="http://www.w3.org/2000/svg"
   xmlns:xlink="http://www.w3.org/1999/xlink"
   xmlns:sodipodi="http://sodipodi.sourceforge.net/DTD/sodipodi-0.dtd"
   xmlns:inkscape="http://www.inkscape.org/namespaces/inkscape"
   version="1.0"
   width="100"
   height="100"
   id="svg2"
   sodipodi:version="0.32"
   inkscape:version="0.45.1"
   sodipodi:docname="bond_delete.svg"
   sodipodi:docbase="/home/tris/src/aten/src/gui-qt/icons"
   inkscape:output_extension="org.inkscape.output.svg.inkscape">
  <metadata
     id="metadata2566">
    <rdf:RDF>
      <cc:Work
         rdf:about="">
        <dc:format>image/svg+xml</dc:format>
        <dc:type
           rdf:resource="http://purl.org/dc/dcmitype/StillImage" />
      </cc:Work>
    </rdf:RDF>
  </metadata>
  <sodipodi:namedview
     inkscape:window-height="714"
     inkscape:window-width="1024"
     inkscape:pageshadow="2"
     inkscape:pageopacity="0.0"
     guidetolerance="10.0"
     gridtolerance="10.0"
     objecttolerance="10.0"
     borderopacity="1.0"
     bordercolor="#666666"
     pagecolor="#ffffff"
     id="base"
     inkscape:zoom="5.6037128"
     inkscape:cx="48.539356"
     inkscape:cy="48.958985"
     inkscape:window-x="50"
     inkscape:window-y="6"
     inkscape:current-layer="svg2" />
  <defs
     id="defs4">
    <linearGradient
       id="linearGradient6541">
      <stop
         id="stop6543"
         offset="0"
         style="stop-color:#000000;stop-opacity:1;" />
      <stop
         id="stop6545"
         offset="1"
         style="stop-color:#dbd6d4;stop-opacity:1;" />
    </linearGradient>
    <linearGradient
       id="linearGradient6448">
      <stop
         id="stop6450"
         offset="0"
         style="stop-color:#7e797c;stop-opacity:1;" />
      <stop
         id="stop6452"
         offset="1"
         style="stop-color:#ffffff;stop-opacity:1;" />
    </linearGradient>
    <linearGradient
       id="linearGradient6410">
      <stop
         style="stop-color:#d90000;stop-opacity:0.42424244;"
         offset="0"
         id="stop6412" />
      <stop
         style="stop-color:#dbd6d4;stop-opacity:1;"
         offset="1"
         id="stop6414" />
    </linearGradient>
    <linearGradient
       id="linearGradient3613">
      <stop
         style="stop-color:#aa0000;stop-opacity:1;"
         offset="0"
         id="stop3615" />
      <stop
         style="stop-color:#bababa;stop-opacity:1;"
         offset="1"
         id="stop3617" />
    </linearGradient>
    <linearGradient
       id="linearGradient3252">
      <stop
         style="stop-color:#ffffff;stop-opacity:1"
         offset="0"
         id="stop3254" />
      <stop
         style="stop-color:#bababa;stop-opacity:0;"
         offset="1"
         id="stop3256" />
    </linearGradient>
    <radialGradient
       inkscape:collect="always"
       xlink:href="#linearGradient6448"
       id="radialGradient6446"
       cx="52.697197"
       cy="124.21634"
       fx="52.697197"
       fy="124.21634"
       r="30.460808"
       gradientTransform="matrix(1,0,0,0.405,0,73.908722)"
       gradientUnits="userSpaceOnUse" />
    <linearGradient
       inkscape:collect="always"
       xlink:href="#linearGradient6410"
       id="linearGradient6516"
       gradientUnits="userSpaceOnUse"
       gradientTransform="matrix(-1,0,0,-1,85.972349,98.899253)"
       x1="3.1110499"
       y1="36.230339"
       x2="23.543489"
       y2="36.230339" />
    <linearGradient
       inkscape:collect="always"
       xlink:href="#linearGradient6410"
       id="linearGradient6520"
       gradientUnits="userSpaceOnUse"
       gradientTransform="translate(59.31781,26.438572)"
       x1="-12.244898"
       y1="-5.9183674"
       x2="3.0612245"
       y2="15.510204" />
    <linearGradient
       inkscape:collect="always"
       xlink:href="#linearGradient6410"
       id="linearGradient6524"
       gradientUnits="userSpaceOnUse"
       gradientTransform="translate(59.31781,26.438572)"
       x1="20.408163"
       y1="2.0408163"
       x2="5.3061223"
       y2="12.448979" />
    <linearGradient
       inkscape:collect="always"
       xlink:href="#linearGradient6410"
       id="linearGradient6528"
       gradientUnits="userSpaceOnUse"
       gradientTransform="translate(59.31781,26.438572)"
       x1="-23.087931"
       y1="36.786045"
       x2="2.7227142"
       y2="36.786045" />
    <linearGradient
       inkscape:collect="always"
       xlink:href="#linearGradient6541"
       id="linearGradient6539"
       x1="54.795918"
       y1="24.387754"
       x2="53.359184"
       y2="37.424217"
       gradientUnits="userSpaceOnUse" />
    <radialGradient
       inkscape:collect="always"
       xlink:href="#linearGradient3252"
       id="radialGradient3608"
       gradientUnits="userSpaceOnUse"
       gradientTransform="matrix(0.6826552,0,0,5.1776585e-2,80.691791,-24.424885)"
       cx="-89.470657"
       cy="6.2001209"
       fx="-89.470657"
       fy="6.2001209"
       r="33.767956" />
    <linearGradient
       inkscape:collect="always"
       xlink:href="#linearGradient3613"
       id="linearGradient3614"
       gradientUnits="userSpaceOnUse"
       gradientTransform="matrix(-8.3944451e-2,-0.2622498,-0.2622498,8.3944451e-2,53.370799,27.221152)"
       x1="40.687019"
       y1="39.968079"
       x2="73.02729"
       y2="39.968079" />
    <linearGradient
       inkscape:collect="always"
       xlink:href="#linearGradient3613"
       id="linearGradient3655"
       gradientUnits="userSpaceOnUse"
       gradientTransform="matrix(-8.3944451e-2,-0.2622498,-0.2622498,8.3944451e-2,1.9626519,-27.44728)"
       x1="40.687019"
       y1="39.968079"
       x2="73.02729"
       y2="39.968079" />
    <radialGradient
       inkscape:collect="always"
       xlink:href="#linearGradient3252"
       id="radialGradient3657"
       gradientUnits="userSpaceOnUse"
       gradientTransform="matrix(0.6826552,0,0,5.1776585e-2,48.396786,43.313344)"
       cx="-89.470657"
       cy="6.2001209"
       fx="-89.470657"
       fy="6.2001209"
       r="33.767956" />
    <linearGradient
       inkscape:collect="always"
       xlink:href="#linearGradient3613"
       id="linearGradient3673"
       gradientUnits="userSpaceOnUse"
       gradientTransform="matrix(-8.3944451e-2,-0.2622498,-0.2622498,8.3944451e-2,1.9626519,-27.44728)"
       x1="40.687019"
       y1="39.968079"
       x2="73.02729"
       y2="39.968079" />
    <radialGradient
       inkscape:collect="always"
       xlink:href="#linearGradient3252"
       id="radialGradient3675"
       gradientUnits="userSpaceOnUse"
       gradientTransform="matrix(0.6826552,0,0,5.1776585e-2,48.396786,43.313344)"
       cx="-89.470657"
       cy="6.2001209"
       fx="-89.470657"
       fy="6.2001209"
       r="33.767956" />
  </defs>
  <path
     sodipodi:type="arc"
     style="fill:url(#radialGradient6446);fill-opacity:1;fill-rule:evenodd;stroke:none;stroke-width:1px;stroke-linecap:butt;stroke-linejoin:miter;stroke-opacity:1"
     id="path6438"
     sodipodi:cx="52.697197"
     sodipodi:cy="124.21634"
     sodipodi:rx="30.460808"
     sodipodi:ry="12.336627"
     d="M 83.158005 124.21634 A 30.460808 12.336627 0 1 1  22.236389,124.21634 A 30.460808 12.336627 0 1 1  83.158005 124.21634 z"
     transform="matrix(1.2439519,0,0,1,-7.2496304,-38.863662)" />
  <path
     style="fill:#d70000;fill-opacity:1;fill-rule:evenodd;stroke:none;stroke-width:2.27916169;stroke-linecap:round;stroke-linejoin:round;stroke-miterlimit:4;stroke-dashoffset:0;stroke-opacity:1"
     d="M 40.116515,84.736668 L 61.521909,86.777486 C 61.437082,71.346217 61.352256,55.914948 61.26743,40.48368 L 35.711265,39.650986 C 37.179675,54.679547 38.648095,69.708108 40.116515,84.736668 z "
     id="path5358"
     sodipodi:nodetypes="ccccc" />
  <path
     style="fill:url(#linearGradient6528);fill-opacity:1;fill-rule:evenodd;stroke:none;stroke-width:2.27916169;stroke-linecap:round;stroke-linejoin:round;stroke-miterlimit:4;stroke-dashoffset:0;stroke-opacity:1"
     d="M 40.63513,84.747048 L 62.040524,86.787866 C 61.955697,71.356597 61.870871,55.925328 61.786045,40.49406 L 36.22988,39.661366 C 37.69829,54.689927 39.16671,69.718488 40.63513,84.747048 z "
     id="path6343"
     sodipodi:nodetypes="ccccc" />
  <path
     style="fill:#d70000;fill-opacity:1;fill-rule:evenodd;stroke:none;stroke-width:2.27916169;stroke-linecap:round;stroke-linejoin:round;stroke-miterlimit:4;stroke-dashoffset:0;stroke-opacity:1"
     d="M 71.891118,22.423345 C 68.560665,28.377005 65.230211,34.330664 61.899758,40.284324 L 84.421494,38.829533 C 80.329624,33.2953 76.237753,27.761067 72.145882,22.226834"
     id="path5360"
     sodipodi:nodetypes="cccc" />
  <path
     style="fill:url(#linearGradient6524);fill-opacity:1;fill-rule:evenodd;stroke:none;stroke-width:2.27916169;stroke-linecap:round;stroke-linejoin:round;stroke-miterlimit:4;stroke-dashoffset:0;stroke-opacity:1"
     d="M 72.409733,22.433725 C 69.07928,28.387385 65.748826,34.341044 62.418373,40.294704 L 84.940109,38.839913 C 80.848239,33.30568 76.756368,27.771447 72.664497,22.237214"
     id="path6345"
     sodipodi:nodetypes="cccc" />
  <path
     style="fill:#d70000;fill-opacity:1;fill-rule:evenodd;stroke:none;stroke-width:2.27916169;stroke-linecap:round;stroke-linejoin:round;stroke-miterlimit:4;stroke-dashoffset:0;stroke-opacity:1"
     d="M 71.884817,21.589102 L 61.021565,39.705456 C 52.012118,39.404986 43.002668,39.104517 33.993222,38.804047 C 38.418985,33.065732 42.844738,27.327417 47.270498,21.589102 C 55.475268,21.589102 63.680045,21.589102 71.884817,21.589102 z "
     id="path5362"
     sodipodi:nodetypes="ccccc" />
  <path
     style="fill:url(#linearGradient6520);fill-opacity:1;fill-rule:evenodd;stroke:none;stroke-width:2.27916169;stroke-linecap:round;stroke-linejoin:round;stroke-miterlimit:4;stroke-dashoffset:0;stroke-opacity:1"
     d="M 72.403432,21.599482 L 61.54018,39.715836 C 52.530733,39.415366 43.521283,39.114897 34.511837,38.814427 C 38.9376,33.076112 43.363353,27.337797 47.789113,21.599482 C 55.993884,21.599482 64.19866,21.599482 72.403432,21.599482 z "
     id="path6347"
     sodipodi:nodetypes="ccccc" />
  <path
     style="fill:#d70000;fill-opacity:1;fill-rule:evenodd;stroke:none;stroke-width:2.27916169;stroke-linecap:round;stroke-linejoin:round;stroke-miterlimit:4;stroke-dashoffset:0;stroke-opacity:1"
     d="M 61.964704,86.51415 L 61.910244,40.247852 L 82.342684,38.802915 C 80.874264,53.831475 79.405844,68.860036 77.937434,83.888597 C 72.613184,84.763781 67.288944,85.638966 61.964704,86.51415 z "
     id="path5364"
     sodipodi:nodetypes="ccccc" />
  <path
     style="fill:url(#linearGradient6516);fill-opacity:1;fill-rule:evenodd;stroke:none;stroke-width:2.27916169;stroke-linecap:round;stroke-linejoin:round;stroke-miterlimit:4;stroke-dashoffset:0;stroke-opacity:1"
     d="M 62.48332,86.52453 L 62.42886,40.258232 L 82.861299,38.813295 C 81.392879,53.841855 79.924459,68.870416 78.456049,83.898977 C 73.131799,84.774161 67.80756,85.649346 62.48332,86.52453 z "
     id="path6349"
     sodipodi:nodetypes="ccccc" />
  <path
     style="fill:none;fill-opacity:1;fill-rule:evenodd;stroke:#000000;stroke-width:2.27916169;stroke-linecap:round;stroke-linejoin:round;stroke-miterlimit:4;stroke-dashoffset:0;stroke-opacity:1"
     d="M 36.177506,39.566052 C 37.645923,54.594613 39.114341,69.623174 40.582758,84.651734 C 47.650731,85.308152 54.722586,86.081784 61.788135,86.665044 C 67.112378,85.78986 72.43662,84.914675 77.760863,84.039491 C 79.229281,69.01093 80.697699,53.982369 82.166117,38.953809 M 71.979799,22.341256 C 76.07167,27.875489 80.163541,33.409722 84.255411,38.943955 C 76.542166,39.431527 68.831253,40.055485 61.116547,40.45761 C 52.107101,40.15714 43.097655,39.856671 34.088209,39.556201 C 38.513966,33.817886 42.939724,28.079571 47.365481,22.341256 C 55.570254,22.341256 63.775027,22.341256 71.979799,22.341256 z M 61.988154,86.692552 C 61.903327,71.261283 61.818501,55.830014 61.733675,40.398746 C 65.064128,34.445086 68.394582,28.491427 71.725035,22.537767"
     id="rect3391" />
  <path
     style="fill:url(#linearGradient6539);fill-opacity:1.0;fill-rule:evenodd;stroke:#000000;stroke-width:1.5;stroke-linecap:round;stroke-linejoin:round;stroke-miterlimit:4;stroke-dasharray:none;stroke-dashoffset:0;stroke-opacity:1"
     d="M 49.018681,26.229929 L 64.860381,26.229929 L 58.697462,36.674217 L 41.857987,36.146506 L 49.018681,26.229929 z "
     id="rect3416"
     sodipodi:nodetypes="ccccc" />
  <path
     style="fill:#ffffff;fill-opacity:1;fill-rule:evenodd;stroke:#000000;stroke-width:1.22627747;stroke-linecap:round;stroke-linejoin:round;stroke-miterlimit:4;stroke-dashoffset:0;stroke-opacity:1"
     d="M 24.481748,25.511238 L 29.494588,56.77767 L 36.950624,52.472924 L 41.957925,61.145822 L 46.60412,58.46334 L 41.596819,49.790443 L 49.052855,45.485699 L 24.481748,25.511238 z "
     id="path6783" />
  <g
     id="g2727">
    <path
       sodipodi:nodetypes="cssscccc"
       d="M 44.649019,8.9715756 C 45.28621,8.767615 46.061445,9.0495462 46.808139,9.7090498 C 48.301525,11.02806 49.14938,13.676833 48.699512,15.617866 C 48.474577,16.588381 47.959007,17.117667 47.321817,17.321627 C 47.156858,17.374429 47.011689,17.422058 46.818632,17.475787 L 5.1689991,30.807563 L 2.4985166,22.464742 L 44.649019,8.9715756 z "
       style="fill:#ff0000;fill-opacity:1;fill-rule:evenodd;stroke:none;stroke-width:0.09389705;stroke-linecap:round;stroke-linejoin:round;stroke-miterlimit:4;stroke-dasharray:none;stroke-dashoffset:2.63393869;stroke-opacity:1"
       id="path3291" />
    <path
       sodipodi:nodetypes="cssscccc"
       d="M 44.649019,8.9715756 C 45.28621,8.767615 46.061445,9.0495448 46.808138,9.7090484 C 48.301525,11.028059 49.14938,13.676833 48.699512,15.617864 C 48.474578,16.588383 47.959007,17.117667 47.321817,17.321627 C 47.156858,17.374429 47.011687,17.422057 46.818632,17.475787 L 5.2046231,30.79616 L 2.5341402,22.453337 L 44.649019,8.9715756 z "
       style="fill:url(#linearGradient3614);fill-opacity:1;fill-rule:evenodd;stroke:none;stroke-width:0.5;stroke-linecap:round;stroke-linejoin:round;stroke-miterlimit:4;stroke-dasharray:none;stroke-dashoffset:2.63393869;stroke-opacity:1"
       id="path3293" />
    <g
       transform="matrix(-8.3944451e-2,-0.2622498,-0.2622498,8.3944451e-2,21.167407,17.7168)"
       id="g3295"
       style="stroke:none;fill:#000000;fill-opacity:1">
      <path
         d="M 90.625114,63.345894 C 90.628268,81.36006 76.025786,95.9651 58.011619,95.9651 C 39.997453,95.9651 25.394971,81.36006 25.398125,63.345894 C 25.394971,45.331728 39.997453,30.726688 58.011619,30.726688 C 76.025786,30.726688 90.628268,45.331728 90.625114,63.345894 L 90.625114,63.345894 z "
         transform="matrix(0,-0.2910472,0.4882663,0,-42.57093,87.178008)"
         style="fill:#000000;fill-rule:evenodd;stroke:none;stroke-width:1px;stroke-linecap:butt;stroke-linejoin:miter;stroke-opacity:1;fill-opacity:1"
         id="path3297" />
      <path
         d="M 90.625114,63.345894 C 90.628268,81.36006 76.025786,95.9651 58.011619,95.9651 C 39.997453,95.9651 25.394971,81.36006 25.398125,63.345894 C 25.394971,45.331728 39.997453,30.726688 58.011619,30.726688 C 76.025786,30.726688 90.628268,45.331728 90.625114,63.345894 L 90.625114,63.345894 z "
         transform="matrix(0.3452564,-0.2058015,0.3452564,0.2058015,-53.442293,69.13691)"
         style="opacity:0.71739131;fill:#000000;fill-opacity:1;fill-rule:evenodd;stroke:none;stroke-width:1px;stroke-linecap:butt;stroke-linejoin:miter;stroke-opacity:1"
         id="path3299" />
    </g>
    <rect
       transform="matrix(0.9523983,-0.3048565,-0.3048565,-0.9523983,0,0)"
       id="rect3301"
       style="fill:url(#radialGradient3608);fill-opacity:1;fill-rule:evenodd;stroke:none;stroke-width:0.50199997;stroke-linecap:round;stroke-linejoin:round;stroke-miterlimit:4;stroke-dasharray:none;stroke-dashoffset:2.63393869;stroke-opacity:1"
       y="-25.852255"
       x="-3.4376819"
       height="3.4967785"
       width="46.103737" />
  </g>
  <use
     x="0"
     y="0"
     xlink:href="#g2727"
     id="use2739"
     transform="matrix(0.9729542,0.2309981,-0.2309981,0.9729542,51.955311,62.42318)"
     width="100"
     height="100"
     inkscape:transform-center-x="-9.1011089"
     inkscape:transform-center-y="-3.2121561" />
  <use
     x="0"
     y="0"
     xlink:href="#g2727"
     id="use2741"
     transform="matrix(1.0837482e-2,-0.9999413,0.9999413,1.0837482e-2,57.623014,93.879148)"
     width="100"
     height="100" />
</svg>
