<?xml version="1.0" encoding="UTF-8" standalone="no"?>
<!-- Created with Inkscape (http://www.inkscape.org/) -->
<svg
   xmlns:dc="http://purl.org/dc/elements/1.1/"
   xmlns:cc="http://web.resource.org/cc/"
   xmlns:rdf="http://www.w3.org/1999/02/22-rdf-syntax-ns#"
   xmlns:svg="http://www.w3.org/2000/svg"
   xmlns="http://www.w3.org/2000/svg"
   xmlns:xlink="http://www.w3.org/1999/xlink"
   xmlns:sodipodi="http://sodipodi.sourceforge.net/DTD/sodipodi-0.dtd"
   xmlns:inkscape="http://www.inkscape.org/namespaces/inkscape"
   version="1.0"
   width="100"
   height="100"
   id="svg2"
   sodipodi:version="0.32"
   inkscape:version="0.45.1"
   sodipodi:docname="bond_clearsel.svg"
   sodipodi:docbase="/home/tris/src/aten/src/gui-qt/icons"
   inkscape:output_extension="org.inkscape.output.svg.inkscape">
  <metadata
     id="metadata2566">
    <rdf:RDF>
      <cc:Work
         rdf:about="">
        <dc:format>image/svg+xml</dc:format>
        <dc:type
           rdf:resource="http://purl.org/dc/dcmitype/StillImage" />
      </cc:Work>
    </rdf:RDF>
  </metadata>
  <sodipodi:namedview
     inkscape:window-height="714"
     inkscape:window-width="1024"
     inkscape:pageshadow="2"
     inkscape:pageopacity="0.0"
     guidetolerance="10.0"
     gridtolerance="10.0"
     objecttolerance="10.0"
     borderopacity="1.0"
     bordercolor="#666666"
     pagecolor="#ffffff"
     id="base"
     inkscape:zoom="4.7379234"
     inkscape:cx="47.202061"
     inkscape:cy="52.322613"
     inkscape:window-x="15"
     inkscape:window-y="98"
     inkscape:current-layer="svg2"
     showguides="true"
     inkscape:guide-bbox="true" />
  <defs
     id="defs4">
    <linearGradient
       id="linearGradient3613">
      <stop
         style="stop-color:#690000;stop-opacity:1"
         offset="0"
         id="stop3615" />
      <stop
         style="stop-color:#ff0000;stop-opacity:0"
         offset="1"
         id="stop3617" />
    </linearGradient>
    <linearGradient
       id="linearGradient3384">
      <stop
         style="stop-color:#0000ff;stop-opacity:1;"
         offset="0"
         id="stop3386" />
      <stop
         style="stop-color:#000000;stop-opacity:1"
         offset="1"
         id="stop3388" />
    </linearGradient>
    <linearGradient
       id="linearGradient3252">
      <stop
         style="stop-color:#ffffff;stop-opacity:1"
         offset="0"
         id="stop3254" />
      <stop
         style="stop-color:#7f7fff;stop-opacity:0;"
         offset="1"
         id="stop3256" />
    </linearGradient>
    <linearGradient
       inkscape:collect="always"
       xlink:href="#linearGradient3384"
       id="linearGradient2600"
       gradientUnits="userSpaceOnUse"
       gradientTransform="matrix(0.2688926,0.2688926,-0.2688926,0.2688926,38.227733,-8.4494346)"
       x1="25.398125"
       y1="63.345894"
       x2="90.625114"
       y2="63.345894" />
    <radialGradient
       inkscape:collect="always"
       xlink:href="#linearGradient3252"
       id="radialGradient2602"
       gradientUnits="userSpaceOnUse"
       gradientTransform="matrix(0.2134373,0,0,0.2134373,19.805211,5.9610473)"
       cx="58.01162"
       cy="63.345894"
       fx="58.01162"
       fy="63.345894"
       r="33.113495" />
    <linearGradient
       inkscape:collect="always"
       xlink:href="#linearGradient3384"
       id="linearGradient2610"
       gradientUnits="userSpaceOnUse"
       gradientTransform="matrix(0.2688926,0.2688926,-0.2688926,0.2688926,38.227733,-8.4494346)"
       x1="25.398125"
       y1="63.345894"
       x2="90.625114"
       y2="63.345894" />
    <radialGradient
       inkscape:collect="always"
       xlink:href="#linearGradient3252"
       id="radialGradient2612"
       gradientUnits="userSpaceOnUse"
       gradientTransform="matrix(0.2134373,0,0,0.2134373,19.805211,5.9610473)"
       cx="58.01162"
       cy="63.345894"
       fx="58.01162"
       fy="63.345894"
       r="33.113495" />
    <linearGradient
       inkscape:collect="always"
       xlink:href="#linearGradient3384"
       id="linearGradient2287"
       gradientUnits="userSpaceOnUse"
       gradientTransform="matrix(0.2688926,0.2688926,-0.2688926,0.2688926,38.227733,-8.4494346)"
       x1="25.398125"
       y1="63.345894"
       x2="90.625114"
       y2="63.345894" />
    <radialGradient
       inkscape:collect="always"
       xlink:href="#linearGradient3252"
       id="radialGradient2289"
       gradientUnits="userSpaceOnUse"
       gradientTransform="matrix(0.2134373,0,0,0.2134373,19.805211,5.9610473)"
       cx="58.01162"
       cy="63.345894"
       fx="58.01162"
       fy="63.345894"
       r="33.113495" />
    <linearGradient
       inkscape:collect="always"
       xlink:href="#linearGradient3384"
       id="linearGradient2297"
       gradientUnits="userSpaceOnUse"
       gradientTransform="matrix(0.2688926,0.2688926,-0.2688926,0.2688926,38.227733,-8.4494346)"
       x1="25.398125"
       y1="63.345894"
       x2="90.625114"
       y2="63.345894" />
    <radialGradient
       inkscape:collect="always"
       xlink:href="#linearGradient3252"
       id="radialGradient2299"
       gradientUnits="userSpaceOnUse"
       gradientTransform="matrix(0.2134373,0,0,0.2134373,19.805211,5.9610473)"
       cx="58.01162"
       cy="63.345894"
       fx="58.01162"
       fy="63.345894"
       r="33.113495" />
    <linearGradient
       inkscape:collect="always"
       xlink:href="#linearGradient3613"
       id="linearGradient3359"
       gradientUnits="userSpaceOnUse"
       gradientTransform="matrix(0,-0.1877941,-0.1877941,0,69.337754,23.997868)"
       x1="40.687019"
       y1="39.968079"
       x2="73.02729"
       y2="39.968079" />
    <linearGradient
       inkscape:collect="always"
       xlink:href="#linearGradient3384"
       id="linearGradient3361"
       gradientUnits="userSpaceOnUse"
       x1="25.398125"
       y1="63.345894"
       x2="90.625114"
       y2="63.345894" />
    <radialGradient
       inkscape:collect="always"
       xlink:href="#linearGradient3252"
       id="radialGradient3363"
       gradientUnits="userSpaceOnUse"
       gradientTransform="matrix(0.4655719,0,0,3.5311713e-2,95.362987,-11.878067)"
       cx="-89.470657"
       cy="6.2001209"
       fx="-89.470657"
       fy="6.2001209"
       r="33.767956" />
  </defs>
  <g
     id="g3477"
     transform="translate(-138.66382,-13.076812)">
    <path
       d="M 241.33018,84.130504 C 243.51437,90.949994 239.75598,98.248787 232.93611,100.43178 C 226.11623,102.61478 218.8181,98.855109 216.6363,92.034854 C 214.45211,85.215363 218.2105,77.916571 225.03037,75.733574 C 231.85024,73.550578 239.14838,77.310249 241.33018,84.130504 L 241.33018,84.130504 z "
       style="fill:#e3e3e4;fill-opacity:1;fill-rule:evenodd;stroke:none;stroke-width:0.39750579px;stroke-linecap:butt;stroke-linejoin:miter;stroke-opacity:1"
       id="path2358" />
    <path
       d="M 184.24755,102.40228 C 186.43174,109.22177 182.67335,116.52057 175.85348,118.70356 C 169.0336,120.88656 161.73547,117.12689 159.55367,110.30663 C 157.36948,103.48714 161.12787,96.188349 167.94774,94.005352 C 174.76761,91.822356 182.06575,95.582027 184.24755,102.40228 L 184.24755,102.40228 z "
       style="fill:#e3e3e4;fill-opacity:1;fill-rule:evenodd;stroke:none;stroke-width:0.39750579px;stroke-linecap:butt;stroke-linejoin:miter;stroke-opacity:1"
       id="path2370" />
    <path
       sodipodi:nodetypes="cssscccc"
       d="M 218.5449,86.840275 C 219.18209,86.636314 219.95733,86.918245 220.70402,87.577749 C 222.19741,88.896759 223.04526,91.545532 222.5954,93.486565 C 222.37046,94.45708 221.85489,94.986366 221.2177,95.190326 C 221.05274,95.243128 220.90757,95.290757 220.71452,95.344486 L 179.06488,108.67626 L 176.3944,100.33344 L 218.5449,86.840275 z "
       style="fill:#e3e3e4;fill-opacity:1;fill-rule:evenodd;stroke:none;stroke-width:0.13767864;stroke-linecap:round;stroke-linejoin:round;stroke-miterlimit:4;stroke-dasharray:none;stroke-dashoffset:2.63393869;stroke-opacity:1"
       id="path2328" />
    <path
       d="M 230.73632,31.970365 C 232.92051,38.789855 229.16212,46.088648 222.34225,48.271645 C 215.52237,50.454641 208.22424,46.69497 206.04244,39.874715 C 203.85825,33.055224 207.61664,25.756432 214.43651,23.573435 C 221.25638,21.390439 228.55452,25.15011 230.73632,31.970365 L 230.73632,31.970365 z "
       style="fill:#e3e3e4;fill-opacity:1;fill-rule:evenodd;stroke:none;stroke-width:0.39750579px;stroke-linecap:butt;stroke-linejoin:miter;stroke-opacity:1"
       id="path2350" />
    <path
       sodipodi:nodetypes="cssscccc"
       d="M 208.79652,34.173061 C 209.43371,33.9691 210.20895,34.251031 210.95564,34.910535 C 212.44903,36.229545 213.29688,38.878318 212.84702,40.819351 C 212.62208,41.789866 212.10651,42.319152 211.46932,42.523112 C 211.30436,42.575914 211.15919,42.623543 210.96614,42.677272 L 169.3165,56.009048 L 166.64602,47.666227 L 208.79652,34.173061 z "
       style="fill:none;fill-opacity:1;fill-rule:evenodd;stroke:#e3dde4;stroke-width:2;stroke-linecap:round;stroke-linejoin:round;stroke-miterlimit:4;stroke-dasharray:2, 4;stroke-dashoffset:0;stroke-opacity:1"
       id="path2364" />
    <path
       inkscape:transform-center-y="-10.852422"
       inkscape:transform-center-x="-52.67982"
       id="path2376"
       d="M 201.01808,87.553468 L 202.01107,60.393006 L 195.01571,62.774104 L 192.246,54.637065 L 187.88687,56.120836 L 190.65658,64.257875 L 183.66122,66.638974 L 201.01808,87.553468 z "
       style="fill:#e3e3e4;fill-opacity:1;fill-rule:evenodd;stroke:none;stroke-width:1.05251062;stroke-linecap:round;stroke-linejoin:round;stroke-miterlimit:4;stroke-dashoffset:0;stroke-opacity:1" />
    <path
       d="M 173.65369,50.242144 C 175.83788,57.061634 172.07949,64.360427 165.25962,66.543424 C 158.43974,68.72642 151.14161,64.966749 148.95981,58.146494 C 146.77562,51.327003 150.53401,44.028211 157.35388,41.845214 C 164.17375,39.662218 171.47189,43.421889 173.65369,50.242144 L 173.65369,50.242144 z "
       style="fill:#e3e3e4;fill-opacity:1;fill-rule:evenodd;stroke:none;stroke-width:0.39750579px;stroke-linecap:butt;stroke-linejoin:miter;stroke-opacity:1"
       id="path2380" />
  </g>
  <path
     sodipodi:type="arc"
     style="opacity:1;fill:#0000ff;fill-opacity:0.46629214;fill-rule:evenodd;stroke:#000000;stroke-width:1px;stroke-linecap:butt;stroke-linejoin:miter;stroke-opacity:1"
     id="path3257"
     sodipodi:cx="148.57143"
     sodipodi:cy="9.7959175"
     sodipodi:rx="16.734694"
     sodipodi:ry="16.734694"
     d="M 165.30612 9.7959175 A 16.734694 16.734694 0 1 1  131.83673,9.7959175 A 16.734694 16.734694 0 1 1  165.30612 9.7959175 z"
     transform="matrix(1.1065719,0,0,1.1065719,-93.792729,3.0376627)" />
  <g
     id="g3558"
     transform="matrix(0.9955618,-0.3186728,0.3186728,0.9955618,26.421557,1.375866)"
     inkscape:transform-center-x="4.9064552">
    <path
       d="M 49.066773,24.22879 C 49.067972,31.079065 43.515064,36.632947 36.664788,36.632947 C 29.814513,36.632947 24.261604,31.079065 24.262803,24.22879 C 24.261604,17.378514 29.814513,11.824633 36.664788,11.824633 C 43.515064,11.824633 49.067972,17.378514 49.066773,24.22879 L 49.066773,24.22879 z "
       style="fill:#0000ff;fill-opacity:1;fill-rule:evenodd;stroke:#000000;stroke-width:0.38027155px;stroke-linecap:butt;stroke-linejoin:miter;stroke-opacity:1"
       id="path3560" />
    <path
       d="M 45.562914,32.95223 C 40.719885,37.796953 32.866199,37.797641 28.022324,32.953766 C 23.178446,28.109889 23.179135,20.256203 28.023859,15.413176 C 32.866887,10.568451 40.720573,10.567763 45.56445,15.411639 C 50.408325,20.255515 50.407637,28.109202 45.562914,32.95223 L 45.562914,32.95223 z "
       style="opacity:0.71739131;fill:url(#linearGradient2600);fill-opacity:1;fill-rule:evenodd;stroke:none;stroke-width:1px;stroke-linecap:butt;stroke-linejoin:miter;stroke-opacity:1"
       id="path3562" />
    <path
       d="M 39.147988,19.481422 C 39.148661,23.326315 36.031948,26.443576 32.187053,26.443576 C 28.342159,26.443576 25.225445,23.326315 25.226118,19.481422 C 25.225445,15.636527 28.342159,12.519268 32.187053,12.519268 C 36.031948,12.519268 39.148661,15.636527 39.147988,19.481422 L 39.147988,19.481422 z "
       style="fill:url(#radialGradient2602);fill-opacity:1;fill-rule:evenodd;stroke:none;stroke-width:1px;stroke-linecap:butt;stroke-linejoin:miter;stroke-opacity:1"
       id="path3564" />
  </g>
  <path
     style="fill:#150f0e;fill-opacity:1;fill-rule:evenodd;stroke:#5c4f43;stroke-width:1.05251062;stroke-linecap:round;stroke-linejoin:round;stroke-miterlimit:4;stroke-dashoffset:0;stroke-opacity:1"
     d="M 53.273377,65.44398 L 54.266368,38.283518 L 47.271005,40.664616 L 44.5013,32.527577 L 40.142173,34.011348 L 42.911878,42.148387 L 35.916515,44.529486 L 53.273377,65.44398 z "
     id="path6783"
     inkscape:transform-center-x="-52.67982"
     inkscape:transform-center-y="-10.852422" />
  <path
     style="fill:none;fill-opacity:1;fill-rule:evenodd;stroke:#000000;stroke-width:5;stroke-linecap:round;stroke-linejoin:round;stroke-miterlimit:4;stroke-dasharray:5,5;stroke-dashoffset:0;stroke-opacity:1"
     d="M 91.387053,1.2560521 L 91.387053,50.852052 L 0.93078733,50.852052"
     id="rect2271"
     sodipodi:nodetypes="ccc" />
  <g
     id="g3289"
     transform="matrix(1.3964752,-0.4470026,0.4470026,1.3964752,-37.832417,27.801991)">
    <path
       sodipodi:nodetypes="cssscccc"
       d="M 67.466951,10.330722 C 67.923236,10.330722 68.368163,10.675028 68.716049,11.258647 C 69.41182,12.425887 69.41182,14.322643 68.716049,15.489883 C 68.368163,16.073502 67.923236,16.310099 67.466951,16.310099 C 67.348826,16.310099 67.244631,16.310853 67.108062,16.305613 L 37.283234,16.305613 L 37.283234,10.331414 L 67.466951,10.330722 z "
       style="fill:#ff0000;fill-opacity:1;fill-rule:evenodd;stroke:#000000;stroke-width:0.09389705;stroke-linecap:round;stroke-linejoin:round;stroke-miterlimit:4;stroke-dasharray:none;stroke-dashoffset:2.63393869;stroke-opacity:1"
       id="path3291" />
    <path
       sodipodi:nodetypes="cssscccc"
       d="M 67.466951,10.330722 C 67.923236,10.330722 68.368163,10.675027 68.716049,11.258646 C 69.41182,12.425886 69.41182,14.322643 68.716049,15.489882 C 68.368163,16.073503 67.923236,16.310099 67.466951,16.310099 C 67.348826,16.310099 67.24463,16.310852 67.108062,16.305613 L 37.308744,16.305613 L 37.308744,10.331413 L 67.466951,10.330722 z "
       style="fill:url(#linearGradient3359);fill-opacity:1;fill-rule:evenodd;stroke:none;stroke-width:0.5;stroke-linecap:round;stroke-linejoin:round;stroke-miterlimit:4;stroke-dasharray:none;stroke-dashoffset:2.63393869;stroke-opacity:1"
       id="path3293" />
    <g
       transform="matrix(0,-0.1877941,-0.1877941,0,50.396529,11.128947)"
       id="g3295">
      <path
         d="M 90.625114,63.345894 C 90.628268,81.36006 76.025786,95.9651 58.011619,95.9651 C 39.997453,95.9651 25.394971,81.36006 25.398125,63.345894 C 25.394971,45.331728 39.997453,30.726688 58.011619,30.726688 C 76.025786,30.726688 90.628268,45.331728 90.625114,63.345894 L 90.625114,63.345894 z "
         transform="matrix(0,-0.2910472,0.4882663,0,-42.57093,87.178008)"
         style="fill:#ff0000;fill-rule:evenodd;stroke:#000000;stroke-width:1px;stroke-linecap:butt;stroke-linejoin:miter;stroke-opacity:1"
         id="path3297" />
      <path
         d="M 90.625114,63.345894 C 90.628268,81.36006 76.025786,95.9651 58.011619,95.9651 C 39.997453,95.9651 25.394971,81.36006 25.398125,63.345894 C 25.394971,45.331728 39.997453,30.726688 58.011619,30.726688 C 76.025786,30.726688 90.628268,45.331728 90.625114,63.345894 L 90.625114,63.345894 z "
         transform="matrix(0.3452564,-0.2058015,0.3452564,0.2058015,-53.442293,69.13691)"
         style="opacity:0.71739131;fill:url(#linearGradient3361);fill-opacity:1;fill-rule:evenodd;stroke:#000000;stroke-width:1px;stroke-linecap:butt;stroke-linejoin:miter;stroke-opacity:1"
         id="path3299" />
    </g>
    <rect
       transform="scale(1,-1)"
       id="rect3301"
       style="fill:url(#radialGradient3363);fill-opacity:1;fill-rule:evenodd;stroke:none;stroke-width:0.50199997;stroke-linecap:round;stroke-linejoin:round;stroke-miterlimit:4;stroke-dasharray:none;stroke-dashoffset:2.63393869;stroke-opacity:1"
       y="-12.851535"
       x="37.986553"
       height="2.3848085"
       width="31.442822" />
  </g>
  <path
     sodipodi:type="arc"
     style="opacity:1;fill:#0000ff;fill-opacity:0.46629214;fill-rule:evenodd;stroke:#000000;stroke-width:1px;stroke-linecap:butt;stroke-linejoin:miter;stroke-opacity:1"
     id="path3259"
     sodipodi:cx="148.57143"
     sodipodi:cy="9.7959175"
     sodipodi:rx="16.734694"
     sodipodi:ry="16.734694"
     d="M 165.30612 9.7959175 A 16.734694 16.734694 0 1 1  131.83673,9.7959175 A 16.734694 16.734694 0 1 1  165.30612 9.7959175 z"
     transform="matrix(1.1065719,0,0,1.1065719,-150.84006,21.768507)" />
  <path
     id="path3325"
     style="fill:none;fill-opacity:1;fill-rule:evenodd;stroke:#000000;stroke-width:2;stroke-linecap:round;stroke-linejoin:round;stroke-miterlimit:4;stroke-dasharray:2, 4;stroke-dashoffset:0;stroke-opacity:1"
     d="M 71.234601,64.624836 C 71.871792,64.420875 72.647027,64.702806 73.393721,65.36231 C 74.887107,66.68132 75.734962,69.330093 75.285094,71.271126 C 75.060159,72.241641 74.544589,72.770927 73.907399,72.974887 C 73.74244,73.027689 73.597271,73.075318 73.404214,73.129047 L 31.754581,86.460823 L 29.084099,78.118002 L 71.234601,64.624836 z "
     sodipodi:nodetypes="cssscccc" />
  <use
     x="0"
     y="0"
     xlink:href="#g3558"
     inkscape:transform-center-x="4.9064552"
     id="use2764"
     transform="translate(10.76421,52.55467)"
     width="100"
     height="100" />
  <use
     x="0"
     y="0"
     xlink:href="#g3558"
     inkscape:transform-center-x="4.9064552"
     id="use2766"
     transform="translate(-46.433845,70.706083)"
     width="100"
     height="100" />
  <use
     x="0"
     y="0"
     xlink:href="#g3558"
     inkscape:transform-center-x="4.9064552"
     id="use2768"
     transform="translate(-57.198055,18.362475)"
     width="100"
     height="100" />
</svg>
