<?xml version="1.0" encoding="UTF-8" standalone="no"?>
<!-- Created with Inkscape (http://www.inkscape.org/) -->
<svg
   xmlns:dc="http://purl.org/dc/elements/1.1/"
   xmlns:cc="http://web.resource.org/cc/"
   xmlns:rdf="http://www.w3.org/1999/02/22-rdf-syntax-ns#"
   xmlns:svg="http://www.w3.org/2000/svg"
   xmlns="http://www.w3.org/2000/svg"
   xmlns:xlink="http://www.w3.org/1999/xlink"
   xmlns:sodipodi="http://sodipodi.sourceforge.net/DTD/sodipodi-0.dtd"
   xmlns:inkscape="http://www.inkscape.org/namespaces/inkscape"
   version="1.0"
   width="100"
   height="100"
   id="svg2"
   sodipodi:version="0.32"
   inkscape:version="0.45.1"
   sodipodi:docname="bond_double.svg"
   sodipodi:docbase="/home/tris/src/aten/src/gui-qt/icons"
   inkscape:output_extension="org.inkscape.output.svg.inkscape">
  <metadata
     id="metadata2566">
    <rdf:RDF>
      <cc:Work
         rdf:about="">
        <dc:format>image/svg+xml</dc:format>
        <dc:type
           rdf:resource="http://purl.org/dc/dcmitype/StillImage" />
      </cc:Work>
    </rdf:RDF>
  </metadata>
  <sodipodi:namedview
     inkscape:window-height="714"
     inkscape:window-width="1024"
     inkscape:pageshadow="2"
     inkscape:pageopacity="0.0"
     guidetolerance="10.0"
     gridtolerance="10.0"
     objecttolerance="10.0"
     borderopacity="1.0"
     bordercolor="#666666"
     pagecolor="#ffffff"
     id="base"
     inkscape:zoom="4.6670014"
     inkscape:cx="54.516369"
     inkscape:cy="45.476602"
     inkscape:window-x="55"
     inkscape:window-y="29"
     inkscape:current-layer="svg2"
     showguides="true"
     inkscape:guide-bbox="true" />
  <defs
     id="defs4">
    <linearGradient
       id="linearGradient3613">
      <stop
         style="stop-color:#690000;stop-opacity:1"
         offset="0"
         id="stop3615" />
      <stop
         style="stop-color:#ff0000;stop-opacity:0"
         offset="1"
         id="stop3617" />
    </linearGradient>
    <linearGradient
       id="linearGradient3384">
      <stop
         style="stop-color:#0000ff;stop-opacity:1;"
         offset="0"
         id="stop3386" />
      <stop
         style="stop-color:#000000;stop-opacity:1"
         offset="1"
         id="stop3388" />
    </linearGradient>
    <linearGradient
       id="linearGradient3252">
      <stop
         style="stop-color:#ffffff;stop-opacity:1"
         offset="0"
         id="stop3254" />
      <stop
         style="stop-color:#7f7fff;stop-opacity:0;"
         offset="1"
         id="stop3256" />
    </linearGradient>
    <linearGradient
       inkscape:collect="always"
       xlink:href="#linearGradient3384"
       id="linearGradient2600"
       gradientUnits="userSpaceOnUse"
       gradientTransform="matrix(0.2688926,0.2688926,-0.2688926,0.2688926,38.227733,-8.4494346)"
       x1="25.398125"
       y1="63.345894"
       x2="90.625114"
       y2="63.345894" />
    <radialGradient
       inkscape:collect="always"
       xlink:href="#linearGradient3252"
       id="radialGradient2602"
       gradientUnits="userSpaceOnUse"
       gradientTransform="matrix(0.2134373,0,0,0.2134373,19.805211,5.9610473)"
       cx="58.01162"
       cy="63.345894"
       fx="58.01162"
       fy="63.345894"
       r="33.113495" />
    <linearGradient
       inkscape:collect="always"
       xlink:href="#linearGradient3384"
       id="linearGradient2610"
       gradientUnits="userSpaceOnUse"
       gradientTransform="matrix(0.2688926,0.2688926,-0.2688926,0.2688926,38.227733,-8.4494346)"
       x1="25.398125"
       y1="63.345894"
       x2="90.625114"
       y2="63.345894" />
    <radialGradient
       inkscape:collect="always"
       xlink:href="#linearGradient3252"
       id="radialGradient2612"
       gradientUnits="userSpaceOnUse"
       gradientTransform="matrix(0.2134373,0,0,0.2134373,19.805211,5.9610473)"
       cx="58.01162"
       cy="63.345894"
       fx="58.01162"
       fy="63.345894"
       r="33.113495" />
    <linearGradient
       inkscape:collect="always"
       xlink:href="#linearGradient3613"
       id="linearGradient3822"
       gradientUnits="userSpaceOnUse"
       gradientTransform="matrix(0,-0.1877941,-0.1877941,0,69.337754,23.997868)"
       x1="40.687019"
       y1="39.968079"
       x2="73.02729"
       y2="39.968079" />
    <linearGradient
       inkscape:collect="always"
       xlink:href="#linearGradient3384"
       id="linearGradient3824"
       gradientUnits="userSpaceOnUse"
       x1="25.398125"
       y1="63.345894"
       x2="90.625114"
       y2="63.345894" />
    <radialGradient
       inkscape:collect="always"
       xlink:href="#linearGradient3252"
       id="radialGradient3826"
       gradientUnits="userSpaceOnUse"
       gradientTransform="matrix(0.4655719,0,0,3.5311713e-2,95.362987,-11.878067)"
       cx="-89.470657"
       cy="6.2001209"
       fx="-89.470657"
       fy="6.2001209"
       r="33.767956" />
    <linearGradient
       inkscape:collect="always"
       xlink:href="#linearGradient3613"
       id="linearGradient3828"
       gradientUnits="userSpaceOnUse"
       gradientTransform="matrix(0,-0.1877941,-0.1877941,0,69.337754,23.997868)"
       x1="40.687019"
       y1="39.968079"
       x2="73.02729"
       y2="39.968079" />
    <linearGradient
       inkscape:collect="always"
       xlink:href="#linearGradient3384"
       id="linearGradient3830"
       gradientUnits="userSpaceOnUse"
       x1="25.398125"
       y1="63.345894"
       x2="90.625114"
       y2="63.345894" />
    <radialGradient
       inkscape:collect="always"
       xlink:href="#linearGradient3252"
       id="radialGradient3832"
       gradientUnits="userSpaceOnUse"
       gradientTransform="matrix(0.4655719,0,0,3.5311713e-2,95.362987,-11.878067)"
       cx="-89.470657"
       cy="6.2001209"
       fx="-89.470657"
       fy="6.2001209"
       r="33.767956" />
  </defs>
  <g
     id="g3792"
     transform="translate(-1.0204082,-2.8571429)">
    <path
       sodipodi:nodetypes="cssscccc"
       d="M 89.55152,46.803549 C 90.18871,46.599588 90.96394,46.881519 91.71064,47.541023 C 93.20402,48.860033 94.05188,51.508806 93.60201,53.449839 C 93.37708,54.420354 92.86151,54.94964 92.22431,55.1536 C 92.05936,55.206402 91.91419,55.254031 91.72113,55.30776 L 50.0715,68.639536 L 47.40101,60.296715 L 89.55152,46.803549 z "
       style="fill:#e7e4e8;fill-opacity:1;fill-rule:evenodd;stroke:none;stroke-width:0.13767864;stroke-linecap:round;stroke-linejoin:round;stroke-miterlimit:4;stroke-dasharray:none;stroke-dashoffset:2.63393869;stroke-opacity:1"
       id="path3668" />
    <g
       style="fill:#e7e4e8;fill-opacity:1;stroke:none"
       transform="matrix(-8.3944451e-2,-0.2622498,-0.2622498,8.3944451e-2,66.06991,55.548773)"
       id="g3672">
      <path
         d="M 90.625114,63.345894 C 90.628268,81.36006 76.025786,95.9651 58.011619,95.9651 C 39.997453,95.9651 25.394971,81.36006 25.398125,63.345894 C 25.394971,45.331728 39.997453,30.726688 58.011619,30.726688 C 76.025786,30.726688 90.628268,45.331728 90.625114,63.345894 L 90.625114,63.345894 z "
         transform="matrix(0,-0.2910472,0.4882663,0,-42.57093,87.178008)"
         style="fill:#e7e4e8;fill-opacity:1;fill-rule:evenodd;stroke:none;stroke-width:1px;stroke-linecap:butt;stroke-linejoin:miter;stroke-opacity:1"
         id="path3674" />
      <path
         d="M 90.625114,63.345894 C 90.628268,81.36006 76.025786,95.9651 58.011619,95.9651 C 39.997453,95.9651 25.394971,81.36006 25.398125,63.345894 C 25.394971,45.331728 39.997453,30.726688 58.011619,30.726688 C 76.025786,30.726688 90.628268,45.331728 90.625114,63.345894 L 90.625114,63.345894 z "
         transform="matrix(0.3452564,-0.2058015,0.3452564,0.2058015,-53.442293,69.13691)"
         style="opacity:0.71739131;fill:#e7e4e8;fill-opacity:1;fill-rule:evenodd;stroke:none;stroke-width:1px;stroke-linecap:butt;stroke-linejoin:miter;stroke-opacity:1"
         id="path3676" />
    </g>
  </g>
  <use
     x="0"
     y="0"
     xlink:href="#g3792"
     id="use2723"
     transform="translate(4.0711366,9.2136249)"
     width="100"
     height="100" />
  <path
     id="path3682"
     style="fill:#e7e4e8;fill-opacity:1;fill-rule:evenodd;stroke:none;stroke-width:0.39750579px;stroke-linecap:butt;stroke-linejoin:miter;stroke-opacity:1"
     d="M 37.52036,38.783886 C 39.70455,45.603376 35.94616,52.902169 29.12629,55.085166 C 22.30641,57.268162 15.00828,53.508491 12.82648,46.688236 C 10.64229,39.868745 14.40068,32.569953 21.22055,30.386956 C 28.04042,28.20396 35.33856,31.963631 37.52036,38.783886 L 37.52036,38.783886 z " />
  <use
     x="0"
     y="0"
     xlink:href="#path3682"
     id="use2721"
     transform="translate(57.210183,-19.284331)"
     width="100"
     height="100" />
  <path
     style="fill:#e7e4e8;fill-opacity:1;fill-rule:evenodd;stroke:none;stroke-width:1.69662297;stroke-linecap:round;stroke-linejoin:round;stroke-miterlimit:4;stroke-dashoffset:0;stroke-opacity:1"
     d="M 73.29611,58.895694 L 80.23165,102.15454 L 90.54749,96.198684 L 97.47537,108.19812 L 103.90364,104.48676 L 96.97576,92.487322 L 107.2916,86.531469 L 73.29611,58.895694 z "
     id="path3688" />
  <g
     id="g3289"
     transform="matrix(1.3964752,-0.4470026,0.4470026,1.3964752,-20.485477,49.230563)">
    <path
       sodipodi:nodetypes="cssscccc"
       d="M 67.466951,10.330722 C 67.923236,10.330722 68.368163,10.675028 68.716049,11.258647 C 69.41182,12.425887 69.41182,14.322643 68.716049,15.489883 C 68.368163,16.073502 67.923236,16.310099 67.466951,16.310099 C 67.348826,16.310099 67.244631,16.310853 67.108062,16.305613 L 37.283234,16.305613 L 37.283234,10.331414 L 67.466951,10.330722 z "
       style="fill:#ff0000;fill-opacity:1;fill-rule:evenodd;stroke:#000000;stroke-width:0.09389705;stroke-linecap:round;stroke-linejoin:round;stroke-miterlimit:4;stroke-dasharray:none;stroke-dashoffset:2.63393869;stroke-opacity:1"
       id="path3291" />
    <path
       sodipodi:nodetypes="cssscccc"
       d="M 67.466951,10.330722 C 67.923236,10.330722 68.368163,10.675027 68.716049,11.258646 C 69.41182,12.425886 69.41182,14.322643 68.716049,15.489882 C 68.368163,16.073503 67.923236,16.310099 67.466951,16.310099 C 67.348826,16.310099 67.24463,16.310852 67.108062,16.305613 L 37.308744,16.305613 L 37.308744,10.331413 L 67.466951,10.330722 z "
       style="fill:url(#linearGradient3828);fill-opacity:1;fill-rule:evenodd;stroke:none;stroke-width:0.5;stroke-linecap:round;stroke-linejoin:round;stroke-miterlimit:4;stroke-dasharray:none;stroke-dashoffset:2.63393869;stroke-opacity:1"
       id="path3293" />
    <g
       transform="matrix(0,-0.1877941,-0.1877941,0,50.396529,11.128947)"
       id="g3295">
      <path
         d="M 90.625114,63.345894 C 90.628268,81.36006 76.025786,95.9651 58.011619,95.9651 C 39.997453,95.9651 25.394971,81.36006 25.398125,63.345894 C 25.394971,45.331728 39.997453,30.726688 58.011619,30.726688 C 76.025786,30.726688 90.628268,45.331728 90.625114,63.345894 L 90.625114,63.345894 z "
         transform="matrix(0,-0.2910472,0.4882663,0,-42.57093,87.178008)"
         style="fill:#ff0000;fill-rule:evenodd;stroke:#000000;stroke-width:1px;stroke-linecap:butt;stroke-linejoin:miter;stroke-opacity:1"
         id="path3297" />
      <path
         d="M 90.625114,63.345894 C 90.628268,81.36006 76.025786,95.9651 58.011619,95.9651 C 39.997453,95.9651 25.394971,81.36006 25.398125,63.345894 C 25.394971,45.331728 39.997453,30.726688 58.011619,30.726688 C 76.025786,30.726688 90.628268,45.331728 90.625114,63.345894 L 90.625114,63.345894 z "
         transform="matrix(0.3452564,-0.2058015,0.3452564,0.2058015,-53.442293,69.13691)"
         style="opacity:0.71739131;fill:url(#linearGradient3830);fill-opacity:1;fill-rule:evenodd;stroke:#000000;stroke-width:1px;stroke-linecap:butt;stroke-linejoin:miter;stroke-opacity:1"
         id="path3299" />
    </g>
    <rect
       transform="scale(1,-1)"
       id="rect3301"
       style="fill:url(#radialGradient3832);fill-opacity:1;fill-rule:evenodd;stroke:none;stroke-width:0.50199997;stroke-linecap:round;stroke-linejoin:round;stroke-miterlimit:4;stroke-dasharray:none;stroke-dashoffset:2.63393869;stroke-opacity:1"
       y="-12.851535"
       x="37.986553"
       height="2.3848085"
       width="31.442822" />
  </g>
  <g
     id="g3546"
     transform="matrix(0.9955618,-0.3186728,0.3186728,0.9955618,-29.232503,19.851726)">
    <path
       d="M 49.066773,24.22879 C 49.067972,31.079065 43.515064,36.632947 36.664788,36.632947 C 29.814513,36.632947 24.261604,31.079065 24.262803,24.22879 C 24.261604,17.378514 29.814513,11.824633 36.664788,11.824633 C 43.515064,11.824633 49.067972,17.378514 49.066773,24.22879 L 49.066773,24.22879 z "
       style="fill:#0000ff;fill-opacity:1;fill-rule:evenodd;stroke:#000000;stroke-width:0.38027155px;stroke-linecap:butt;stroke-linejoin:miter;stroke-opacity:1"
       id="path3548" />
    <path
       d="M 45.562914,32.95223 C 40.719885,37.796953 32.866199,37.797641 28.022324,32.953766 C 23.178446,28.109889 23.179135,20.256203 28.023859,15.413176 C 32.866887,10.568451 40.720573,10.567763 45.56445,15.411639 C 50.408325,20.255515 50.407637,28.109202 45.562914,32.95223 L 45.562914,32.95223 z "
       style="opacity:0.71739131;fill:url(#linearGradient2610);fill-opacity:1;fill-rule:evenodd;stroke:none;stroke-width:1px;stroke-linecap:butt;stroke-linejoin:miter;stroke-opacity:1"
       id="path3550" />
    <path
       d="M 39.147988,19.481422 C 39.148661,23.326315 36.031948,26.443576 32.187053,26.443576 C 28.342159,26.443576 25.225445,23.326315 25.226118,19.481422 C 25.225445,15.636527 28.342159,12.519268 32.187053,12.519268 C 36.031948,12.519268 39.148661,15.636527 39.147988,19.481422 L 39.147988,19.481422 z "
       style="fill:url(#radialGradient2612);fill-opacity:1;fill-rule:evenodd;stroke:none;stroke-width:1px;stroke-linecap:butt;stroke-linejoin:miter;stroke-opacity:1"
       id="path3552" />
  </g>
  <use
     x="0"
     y="0"
     xlink:href="#g3546"
     id="use2719"
     transform="translate(54.424668,-18.21298)"
     width="100"
     height="100" />
  <use
     x="0"
     y="0"
     xlink:href="#g3289"
     id="use2725"
     transform="translate(4.7139476,8.7850842)"
     width="100"
     height="100" />
  <path
     style="fill:#ffffff;fill-opacity:1;fill-rule:evenodd;stroke:#000000;stroke-width:1.69662297;stroke-linecap:round;stroke-linejoin:round;stroke-miterlimit:4;stroke-dashoffset:0;stroke-opacity:1"
     d="M 63.11331,48.448546 L 70.048849,91.70739 L 80.364689,85.751536 L 87.292569,97.750971 L 93.720839,94.039608 L 86.792959,82.040174 L 97.108799,76.084321 L 63.11331,48.448546 z "
     id="path6783" />
</svg>
