<?xml version="1.0" encoding="UTF-8" standalone="no"?>
<!-- Created with Inkscape (http://www.inkscape.org/) -->
<svg
   xmlns:dc="http://purl.org/dc/elements/1.1/"
   xmlns:cc="http://web.resource.org/cc/"
   xmlns:rdf="http://www.w3.org/1999/02/22-rdf-syntax-ns#"
   xmlns:svg="http://www.w3.org/2000/svg"
   xmlns="http://www.w3.org/2000/svg"
   xmlns:xlink="http://www.w3.org/1999/xlink"
   xmlns:sodipodi="http://sodipodi.sourceforge.net/DTD/sodipodi-0.dtd"
   xmlns:inkscape="http://www.inkscape.org/namespaces/inkscape"
   version="1.0"
   width="100"
   height="100"
   id="svg2"
   sodipodi:version="0.32"
   inkscape:version="0.45.1"
   sodipodi:docname="file_close.svg"
   sodipodi:docbase="/home/tris/src/aten/src/gui-qt/icons"
   inkscape:output_extension="org.inkscape.output.svg.inkscape">
  <metadata
     id="metadata2566">
    <rdf:RDF>
      <cc:Work
         rdf:about="">
        <dc:format>image/svg+xml</dc:format>
        <dc:type
           rdf:resource="http://purl.org/dc/dcmitype/StillImage" />
      </cc:Work>
    </rdf:RDF>
  </metadata>
  <sodipodi:namedview
     inkscape:window-height="714"
     inkscape:window-width="1024"
     inkscape:pageshadow="2"
     inkscape:pageopacity="0.0"
     guidetolerance="10.0"
     gridtolerance="10.0"
     objecttolerance="10.0"
     borderopacity="1.0"
     bordercolor="#666666"
     pagecolor="#ffffff"
     id="base"
     inkscape:zoom="6.0258681"
     inkscape:cx="57.776202"
     inkscape:cy="10.858679"
     inkscape:window-x="0"
     inkscape:window-y="29"
     inkscape:current-layer="svg2" />
  <defs
     id="defs4">
    <linearGradient
       id="linearGradient5064">
      <stop
         style="stop-color:#dadada;stop-opacity:1;"
         offset="0"
         id="stop5066" />
      <stop
         style="stop-color:#898989;stop-opacity:1;"
         offset="1"
         id="stop5068" />
    </linearGradient>
    <linearGradient
       inkscape:collect="always"
       xlink:href="#linearGradient5064"
       id="linearGradient6168"
       gradientUnits="userSpaceOnUse"
       x1="32.942781"
       y1="25.952554"
       x2="66.236531"
       y2="25.952554" />
    <linearGradient
       id="linearGradient5072">
      <stop
         style="stop-color:#862bff;stop-opacity:1;"
         offset="0"
         id="stop5074" />
      <stop
         style="stop-color:#9b50ff;stop-opacity:1;"
         offset="1"
         id="stop5076" />
    </linearGradient>
    <linearGradient
       inkscape:collect="always"
       xlink:href="#linearGradient5072"
       id="linearGradient6166"
       gradientUnits="userSpaceOnUse"
       x1="15.350921"
       y1="46.012269"
       x2="80.354601"
       y2="46.012269" />
    <linearGradient
       inkscape:collect="always"
       xlink:href="#linearGradient5064"
       id="linearGradient2194"
       gradientUnits="userSpaceOnUse"
       x1="32.942781"
       y1="25.952554"
       x2="66.236531"
       y2="25.952554"
       gradientTransform="matrix(0.4865899,0,0,0.4865899,51.752776,52.649595)" />
    <linearGradient
       inkscape:collect="always"
       xlink:href="#linearGradient5072"
       id="linearGradient2197"
       gradientUnits="userSpaceOnUse"
       x1="15.350921"
       y1="46.012269"
       x2="80.354601"
       y2="46.012269"
       gradientTransform="matrix(0.4865899,0,0,0.4865899,51.752776,52.649595)" />
  </defs>
  <g
     id="g2222"
     transform="translate(16.135568,11.35406)"
     style="fill:#dbe6e0;fill-opacity:1">
    <path
       sodipodi:nodetypes="ccsccccc"
       id="path2224"
       d="M 18.48245,76.173836 C 28.750053,59.008499 37.561029,40.501038 52.045447,26.345519 C 56.907363,21.574658 66.500275,16.602181 68.476793,14.306386 C 69.395743,13.238993 69.953497,18.355761 66.72841,17.998056 C 62.380718,21.775209 59.22864,26.731119 54.727673,30.353225 C 43.582066,41.395155 36.018982,55.454188 30.113,69.844498 C 28.785513,73.202704 24.998844,73.81405 21.99056,74.848317 C 20.802165,75.236668 19.61882,75.649559 18.48245,76.173836 z "
       style="fill:#dbe6e0;fill-opacity:1;fill-rule:evenodd;stroke:none;stroke-width:1.25;stroke-linecap:butt;stroke-linejoin:round;stroke-miterlimit:4;stroke-dasharray:none;stroke-dashoffset:0;stroke-opacity:1" />
    <path
       id="path2226"
       d="M 26.043592,14.383832 C 38.436485,16.889832 48.366606,25.59638 55.937949,35.265024 C 62.764473,42.904404 68.329753,52.307507 71.828855,61.737511 C 71.589676,72.866367 56.700653,71.981932 56.969096,60.998788 C 52.254723,44.377654 38.65891,32.065429 23.974756,24.019933 C 18.157071,23.582576 15.019119,19.057891 22.177016,16.869152 C 23.475414,16.055998 24.800321,15.281865 26.043592,14.383832 z "
       style="fill:#dbe6e0;fill-opacity:1;fill-rule:evenodd;stroke:none;stroke-width:1.25;stroke-linecap:butt;stroke-linejoin:round;stroke-miterlimit:4;stroke-dasharray:none;stroke-dashoffset:0;stroke-opacity:1" />
  </g>
  <g
     id="g2235">
    <path
       style="fill:#e5e4e3;fill-opacity:1;fill-rule:evenodd;stroke:none;stroke-width:1.20000005;stroke-linecap:round;stroke-linejoin:round;stroke-miterlimit:4;stroke-dashoffset:0;stroke-opacity:1"
       d="M 66.466091,66.38215 L 93.432523,66.38215 L 97.512317,70.262929 L 97.512317,97.428375 L 66.466091,97.428375 L 66.466091,66.38215 z "
       id="path5144"
       sodipodi:nodetypes="cccccc" />
    <rect
       style="fill:#ffffff;fill-opacity:1;fill-rule:evenodd;stroke:none;stroke-width:0.58104563;stroke-linecap:round;stroke-linejoin:round;stroke-miterlimit:4;stroke-dasharray:none;stroke-dashoffset:0;stroke-opacity:1"
       id="rect5150"
       width="2.0008168"
       height="1.769122"
       x="67.685493"
       y="94.615753" />
  </g>
  <path
     style="fill:url(#linearGradient2197);fill-opacity:1;fill-rule:evenodd;stroke:#000000;stroke-width:0.5839079;stroke-linecap:round;stroke-linejoin:round;stroke-miterlimit:4;stroke-dashoffset:0;stroke-opacity:1"
     d="M 59.514333,59.515587 L 86.480767,59.515587 L 90.560559,63.396366 L 90.560559,90.561814 L 59.514333,90.561814 L 59.514333,59.515587 z "
     id="rect5048"
     sodipodi:nodetypes="cccccc" />
  <path
     style="fill:url(#linearGradient2194);fill-opacity:1;fill-rule:evenodd;stroke:#000000;stroke-width:0.5839079;stroke-linecap:round;stroke-linejoin:round;stroke-miterlimit:4;stroke-dashoffset:0;stroke-opacity:1"
     d="M 68.074354,59.507194 L 68.074354,71.048498 L 83.690849,71.048498 L 83.690849,59.507194 L 68.074354,59.507194 z M 78.064653,61.620818 L 81.729284,61.620818 L 81.729284,69.086932 L 78.064653,69.086932 L 78.064653,61.620818 z "
     id="rect5051" />
  <rect
     style="fill:#ffffff;fill-opacity:1;fill-rule:evenodd;stroke:#000000;stroke-width:0.5839079;stroke-linecap:round;stroke-linejoin:round;stroke-miterlimit:4;stroke-dasharray:none;stroke-dashoffset:0;stroke-opacity:1"
     id="rect5080"
     width="22.093721"
     height="16.324024"
     x="64.03701"
     y="74.248291" />
  <rect
     style="fill:#ffffff;fill-opacity:1;fill-rule:evenodd;stroke:#000000;stroke-width:0.28273094;stroke-linecap:round;stroke-linejoin:round;stroke-miterlimit:4;stroke-dasharray:none;stroke-dashoffset:0;stroke-opacity:1"
     id="rect5082"
     width="2.0008168"
     height="1.769122"
     x="60.733734"
     y="87.749191" />
  <path
     style="font-size:8.88496017px;font-style:normal;font-weight:normal;line-height:125%;fill:#000000;fill-opacity:1;stroke:none;stroke-width:1px;stroke-linecap:butt;stroke-linejoin:miter;stroke-opacity:1;font-family:Bitstream Vera Sans"
     d="M 67.358681,76.593925 C 68.240016,77.450972 65.964248,78.221219 66.517577,76.88416 C 65.760014,76.261324 66.15336,78.805711 67.132839,78.130822 C 67.867724,77.952049 68.137798,76.920773 67.358681,76.593925 z M 67.843445,77.946312 C 68.374209,78.566967 68.504907,76.800974 68.193783,77.887168 C 68.157035,78.082782 67.935213,78.112791 67.843445,77.946312 z M 69.817291,77.784019 C 69.278407,76.748279 68.428264,78.264251 69.465078,78.162744 C 69.630381,78.100004 69.781236,77.963215 69.817291,77.784019 z M 69.169434,77.657799 C 68.921494,76.991312 70.007323,77.611993 69.169434,77.657799 z M 70.74662,77.258095 C 70.763589,75.997713 69.791591,78.049765 70.258333,78.049138 C 70.424926,77.787836 70.481283,77.449507 70.74662,77.258095 z M 70.905861,77.294159 C 70.299723,78.113067 72.496017,77.992782 71.365844,77.483293 C 71.291009,77.145297 71.144154,76.840141 70.905861,77.294159 z M 72.958534,77.808067 C 72.687261,77.468848 72.66613,76.479563 72.360894,77.397644 C 72.208649,77.812593 72.711633,78.454457 72.958534,77.808067 z M 74.465324,77.258095 C 74.482301,75.997711 73.510299,78.049764 73.977038,78.049139 C 74.143632,77.787837 74.199993,77.449512 74.465324,77.258095 z M 75.104469,76.711136 C 75.534336,76.605587 74.734238,76.514654 75.104469,76.711136 z M 75.311417,77.847137 C 75.17815,76.810263 74.229278,78.075532 75.112526,78.089522 L 75.244396,78.00078 L 75.311417,77.847137 L 75.311417,77.847137 z M 76.016449,77.808067 C 75.745191,77.468838 75.724038,76.479564 75.418809,77.397643 C 75.266567,77.812589 75.769549,78.454459 76.016449,77.808067 z M 76.952431,77.784019 C 76.413556,76.748271 75.563399,78.264248 76.600218,78.162744 C 76.765521,78.100006 76.916379,77.963216 76.952431,77.784019 z M 76.304573,77.657799 C 76.056639,76.99131 77.142458,77.611995 76.304573,77.657799 z M 76.96096,77.946312 C 77.491727,78.566966 77.622427,76.800973 77.311297,77.887165 C 77.274551,78.082779 77.052727,78.112795 76.96096,77.946312 z "
     id="text5084" />
  <path
     style="font-size:8.88496017px;font-style:normal;font-weight:normal;line-height:125%;fill:#000000;fill-opacity:1;stroke:none;stroke-width:1px;stroke-linecap:butt;stroke-linejoin:miter;stroke-opacity:1;font-family:Bitstream Vera Sans"
     d="M 67.180077,81.544395 C 66.247978,81.309856 66.161502,79.276603 66.038968,81.476629 C 66.211468,81.966718 67.018565,82.110702 67.180077,81.544395 z M 67.378967,81.76078 C 69.412834,80.770027 67.27833,79.278884 67.378967,81.76078 z M 69.615349,81.322006 C 68.934897,79.805729 68.791144,82.613556 69.615349,81.322006 z M 68.967491,81.195786 C 68.717126,80.488161 69.731816,81.293538 68.967491,81.195786 z M 69.983795,81.68264 C 73.243005,80.839747 69.140981,79.657433 69.983795,81.68264 z M 72.083611,80.249115 C 72.704494,80.145699 71.558391,79.936635 72.083611,80.249115 z M 72.290565,81.385117 C 72.223934,79.406239 71.223654,82.645404 72.290565,81.385117 z M 73.223549,81.352058 C 72.496203,79.647993 72.280678,82.728256 73.223549,81.352058 z M 74.569786,81.34304 C 74.254105,79.238532 73.073471,82.779265 74.569786,81.34304 z M 73.984917,81.361076 C 73.083837,81.026958 74.845493,80.873472 73.984917,81.361076 z M 75.273224,81.346046 C 75.488937,79.303402 73.97015,82.059405 75.273224,81.346046 z M 76.819,81.355064 C 77.042649,79.810164 75.646515,81.949062 76.819,81.355064 z M 77.833061,81.322006 C 77.152625,79.805725 77.008845,82.613542 77.833061,81.322006 z M 77.185204,81.195786 C 76.934841,80.488158 77.949533,81.293543 77.185204,81.195786 z M 77.841591,81.484291 C 78.514655,81.677396 78.693766,80.387051 77.841591,81.484291 z M 79.76445,81.355064 C 79.988083,79.810157 78.591963,81.949077 79.76445,81.355064 z M 79.767731,81.484291 C 80.440805,81.67739 80.619886,80.387052 79.767731,81.484291 z "
     id="text5092" />
  <g
     id="g2218">
    <path
       sodipodi:nodetypes="ccsccccc"
       id="path3233"
       d="M 18.48245,76.173836 C 28.750053,59.008499 37.561029,40.501038 52.045447,26.345519 C 56.907363,21.574658 66.500275,16.602181 68.476793,14.306386 C 69.395743,13.238993 69.953497,18.355761 66.72841,17.998056 C 62.380718,21.775209 59.22864,26.731119 54.727673,30.353225 C 43.582066,41.395155 36.018982,55.454188 30.113,69.844498 C 28.785513,73.202704 24.998844,73.81405 21.99056,74.848317 C 20.802165,75.236668 19.61882,75.649559 18.48245,76.173836 z "
       style="fill:#010101;fill-opacity:1;fill-rule:evenodd;stroke:none;stroke-width:1.25;stroke-linecap:butt;stroke-linejoin:round;stroke-miterlimit:4;stroke-dasharray:none;stroke-dashoffset:0;stroke-opacity:1" />
    <path
       id="path3235"
       d="M 26.043592,14.383832 C 38.436485,16.889832 48.366606,25.59638 55.937949,35.265024 C 62.764473,42.904404 68.329753,52.307507 71.828855,61.737511 C 71.589676,72.866367 56.700653,71.981932 56.969096,60.998788 C 52.254723,44.377654 38.65891,32.065429 23.974756,24.019933 C 18.157071,23.582576 15.019119,19.057891 22.177016,16.869152 C 23.475414,16.055998 24.800321,15.281865 26.043592,14.383832 z "
       style="fill:#010101;fill-opacity:1;fill-rule:evenodd;stroke:none;stroke-width:1.25;stroke-linecap:butt;stroke-linejoin:round;stroke-miterlimit:4;stroke-dasharray:none;stroke-dashoffset:0;stroke-opacity:1" />
  </g>
</svg>
