<?xml version="1.0" encoding="UTF-8" standalone="no"?>
<!-- Created with Inkscape (http://www.inkscape.org/) -->
<svg
   xmlns:dc="http://purl.org/dc/elements/1.1/"
   xmlns:cc="http://web.resource.org/cc/"
   xmlns:rdf="http://www.w3.org/1999/02/22-rdf-syntax-ns#"
   xmlns:svg="http://www.w3.org/2000/svg"
   xmlns="http://www.w3.org/2000/svg"
   xmlns:xlink="http://www.w3.org/1999/xlink"
   xmlns:sodipodi="http://sodipodi.sourceforge.net/DTD/sodipodi-0.dtd"
   xmlns:inkscape="http://www.inkscape.org/namespaces/inkscape"
   version="1.0"
   width="100"
   height="100"
   id="svg2"
   sodipodi:version="0.32"
   inkscape:version="0.45.1"
   sodipodi:docname="file_save.svg"
   sodipodi:docbase="/home/tris/src/aten-devel/src/gui-qt/icons"
   inkscape:output_extension="org.inkscape.output.svg.inkscape">
  <metadata
     id="metadata2566">
    <rdf:RDF>
      <cc:Work
         rdf:about="">
        <dc:format>image/svg+xml</dc:format>
        <dc:type
           rdf:resource="http://purl.org/dc/dcmitype/StillImage" />
      </cc:Work>
    </rdf:RDF>
  </metadata>
  <sodipodi:namedview
     inkscape:window-height="714"
     inkscape:window-width="1024"
     inkscape:pageshadow="2"
     inkscape:pageopacity="0.0"
     guidetolerance="10.0"
     gridtolerance="10.0"
     objecttolerance="10.0"
     borderopacity="1.0"
     bordercolor="#666666"
     pagecolor="#ffffff"
     id="base"
     inkscape:zoom="3.4577522"
     inkscape:cx="67.237471"
     inkscape:cy="71.996118"
     inkscape:window-x="0"
     inkscape:window-y="6"
     inkscape:current-layer="svg2" />
  <defs
     id="defs4">
    <linearGradient
       id="linearGradient5072">
      <stop
         style="stop-color:#862bff;stop-opacity:1;"
         offset="0"
         id="stop5074" />
      <stop
         style="stop-color:#9b50ff;stop-opacity:1;"
         offset="1"
         id="stop5076" />
    </linearGradient>
    <linearGradient
       id="linearGradient5064">
      <stop
         style="stop-color:#dadada;stop-opacity:1;"
         offset="0"
         id="stop5066" />
      <stop
         style="stop-color:#898989;stop-opacity:1;"
         offset="1"
         id="stop5068" />
    </linearGradient>
    <linearGradient
       id="linearGradient3384">
      <stop
         style="stop-color:#0000ff;stop-opacity:1;"
         offset="0"
         id="stop3386" />
      <stop
         style="stop-color:#000000;stop-opacity:1"
         offset="1"
         id="stop3388" />
    </linearGradient>
    <linearGradient
       id="linearGradient3252">
      <stop
         style="stop-color:#ffffff;stop-opacity:1"
         offset="0"
         id="stop3254" />
      <stop
         style="stop-color:#0000ff;stop-opacity:0;"
         offset="1"
         id="stop3256" />
    </linearGradient>
    <linearGradient
       id="linearGradient3149">
      <stop
         style="stop-color:#aa4400;stop-opacity:1"
         offset="0"
         id="stop3151" />
      <stop
         style="stop-color:#aa4400;stop-opacity:0.64948452"
         offset="1"
         id="stop3153" />
    </linearGradient>
    <linearGradient
       id="linearGradient3186">
      <stop
         style="stop-color:#aaaaaa;stop-opacity:1"
         offset="0"
         id="stop3188" />
      <stop
         style="stop-color:#fffffd;stop-opacity:0.50196081"
         offset="1"
         id="stop3190" />
    </linearGradient>
    <radialGradient
       cx="58.01162"
       cy="63.345894"
       r="33.113495"
       fx="58.01162"
       fy="63.345894"
       id="radialGradient3260"
       xlink:href="#linearGradient3252"
       gradientUnits="userSpaceOnUse" />
    <linearGradient
       x1="25.398125"
       y1="63.345894"
       x2="90.625114"
       y2="63.345894"
       id="linearGradient3390"
       xlink:href="#linearGradient3384"
       gradientUnits="userSpaceOnUse" />
    <linearGradient
       x1="25.398125"
       y1="63.345894"
       x2="90.625114"
       y2="63.345894"
       id="linearGradient3459"
       xlink:href="#linearGradient3384"
       gradientUnits="userSpaceOnUse" />
    <radialGradient
       cx="58.01162"
       cy="63.345894"
       r="33.113495"
       fx="58.01162"
       fy="63.345894"
       id="radialGradient3461"
       xlink:href="#linearGradient3252"
       gradientUnits="userSpaceOnUse" />
    <linearGradient
       x1="25.398125"
       y1="63.345894"
       x2="90.625114"
       y2="63.345894"
       id="linearGradient3480"
       xlink:href="#linearGradient3384"
       gradientUnits="userSpaceOnUse" />
    <radialGradient
       cx="58.01162"
       cy="63.345894"
       r="33.113495"
       fx="58.01162"
       fy="63.345894"
       id="radialGradient3482"
       xlink:href="#linearGradient3252"
       gradientUnits="userSpaceOnUse" />
    <linearGradient
       x1="25.398125"
       y1="63.345894"
       x2="90.625114"
       y2="63.345894"
       id="linearGradient3490"
       xlink:href="#linearGradient3384"
       gradientUnits="userSpaceOnUse" />
    <radialGradient
       cx="58.01162"
       cy="63.345894"
       r="33.113495"
       fx="58.01162"
       fy="63.345894"
       id="radialGradient3492"
       xlink:href="#linearGradient3252"
       gradientUnits="userSpaceOnUse" />
    <linearGradient
       inkscape:collect="always"
       xlink:href="#linearGradient5064"
       id="linearGradient5135"
       gradientUnits="userSpaceOnUse"
       x1="32.942781"
       y1="25.952554"
       x2="66.236531"
       y2="25.952554" />
    <linearGradient
       inkscape:collect="always"
       xlink:href="#linearGradient5072"
       id="linearGradient5138"
       gradientUnits="userSpaceOnUse"
       x1="15.350921"
       y1="46.012269"
       x2="80.354601"
       y2="46.012269" />
    <linearGradient
       inkscape:collect="always"
       xlink:href="#linearGradient5072"
       id="linearGradient6166"
       gradientUnits="userSpaceOnUse"
       x1="15.350921"
       y1="46.012269"
       x2="80.354601"
       y2="46.012269" />
    <linearGradient
       inkscape:collect="always"
       xlink:href="#linearGradient5064"
       id="linearGradient6168"
       gradientUnits="userSpaceOnUse"
       x1="32.942781"
       y1="25.952554"
       x2="66.236531"
       y2="25.952554" />
  </defs>
  <g
     id="g6145"
     transform="matrix(1.0779024,0,0,1.0779024,254.93455,-43.826254)">
    <g
       style="fill:#ffffff;fill-opacity:1;stroke:none"
       transform="translate(-223.68953,55.142384)"
       id="g5106">
      <path
         style="fill:#ffffff;fill-opacity:1;fill-rule:evenodd;stroke:none;stroke-width:1.20000005;stroke-linecap:round;stroke-linejoin:round;stroke-miterlimit:4;stroke-dashoffset:0;stroke-opacity:1"
         d="M 15.950921,14.110429 L 71.370143,14.110429 L 79.754601,22.085889 L 79.754601,77.914109 L 15.950921,77.914109 L 15.950921,14.110429 z "
         id="path5108"
         sodipodi:nodetypes="cccccc" />
      <path
         style="fill:#ffffff;fill-opacity:1;fill-rule:evenodd;stroke:none;stroke-width:1.20000005;stroke-linecap:round;stroke-linejoin:round;stroke-miterlimit:4;stroke-dashoffset:0;stroke-opacity:1"
         d="M 33.542781,14.093179 L 33.542781,37.811929 L 65.636531,37.811929 L 65.636531,14.093179 L 33.542781,14.093179 z M 54.074031,18.436929 L 61.605281,18.436929 L 61.605281,33.780679 L 54.074031,33.780679 L 54.074031,18.436929 z "
         id="path5110" />
      <rect
         style="opacity:1;fill:#ffffff;fill-opacity:1;fill-rule:evenodd;stroke:none;stroke-width:1.20000005;stroke-linecap:round;stroke-linejoin:round;stroke-miterlimit:4;stroke-dasharray:none;stroke-dashoffset:0;stroke-opacity:1"
         id="rect5112"
         width="45.40522"
         height="33.547806"
         x="25.245562"
         y="44.38789" />
      <rect
         style="opacity:1;fill:#ffffff;fill-opacity:1;fill-rule:evenodd;stroke:none;stroke-width:0.58104563;stroke-linecap:round;stroke-linejoin:round;stroke-miterlimit:4;stroke-dasharray:none;stroke-dashoffset:0;stroke-opacity:1"
         id="rect5114"
         width="4.1119161"
         height="3.6357558"
         x="18.456938"
         y="72.133835" />
      <text
         xml:space="preserve"
         style="font-size:8.88496017px;font-style:normal;font-weight:normal;line-height:125%;fill:#ffffff;fill-opacity:1;stroke:none;stroke-width:1px;stroke-linecap:butt;stroke-linejoin:miter;stroke-opacity:1;font-family:Bitstream Vera Sans"
         x="28.266001"
         y="52.448341"
         id="text5116"
         sodipodi:linespacing="125%"
         transform="scale(0.9990086,1.0009923)"><tspan
           sodipodi:role="line"
           id="tspan5118"
           x="28.266001"
           y="52.448341"
           style="font-size:7.4041338px;font-style:italic;font-variant:normal;font-weight:bold;font-stretch:normal;text-align:start;line-height:125%;writing-mode:lr-tb;text-anchor:start;fill:#ffffff;fill-opacity:1;stroke:none;font-family:URW Chancery L">Useful files</tspan></text>
      <text
         xml:space="preserve"
         style="font-size:8.88496017px;font-style:normal;font-weight:normal;line-height:125%;fill:#ffffff;fill-opacity:1;stroke:none;stroke-width:1px;stroke-linecap:butt;stroke-linejoin:miter;stroke-opacity:1;font-family:Bitstream Vera Sans"
         x="28.472404"
         y="59.712105"
         id="text5120"
         sodipodi:linespacing="125%"
         transform="scale(0.9990086,1.0009923)"
         inkscape:transform-center-y="-8.3844581"
         inkscape:transform-center-x="-4.7034765"><tspan
           sodipodi:role="line"
           id="tspan5122"
           x="28.472404"
           y="59.712105"
           style="font-size:7.40413237px;font-style:italic;font-variant:normal;font-weight:bold;font-stretch:normal;text-align:start;line-height:125%;writing-mode:lr-tb;text-anchor:start;fill:#ffffff;fill-opacity:1;stroke:none;font-family:URW Chancery L">Chemical tests</tspan></text>
    </g>
    <path
       style="fill:#e5e4e3;fill-opacity:1;fill-rule:evenodd;stroke:none;stroke-width:1.20000005;stroke-linecap:round;stroke-linejoin:round;stroke-miterlimit:4;stroke-dashoffset:0;stroke-opacity:1"
       d="M -207.73861,69.252813 L -152.31939,69.252813 L -143.93493,77.228273 L -143.93493,133.05649 L -207.73861,133.05649 L -207.73861,69.252813 z "
       id="path5144"
       sodipodi:nodetypes="cccccc" />
    <rect
       style="fill:#ffffff;fill-opacity:1;fill-rule:evenodd;stroke:none;stroke-width:0.58104563;stroke-linecap:round;stroke-linejoin:round;stroke-miterlimit:4;stroke-dasharray:none;stroke-dashoffset:0;stroke-opacity:1"
       id="rect5150"
       width="4.1119161"
       height="3.6357558"
       x="-205.23259"
       y="127.27622" />
  </g>
  <g
     id="g6158"
     transform="matrix(1.0779024,0,0,1.0779024,-1.5806059,0.4009276)">
    <path
       sodipodi:nodetypes="cccccc"
       id="rect5048"
       d="M 15.950921,14.110429 L 71.370143,14.110429 L 79.754601,22.085889 L 79.754601,77.914109 L 15.950921,77.914109 L 15.950921,14.110429 z "
       style="fill:url(#linearGradient6166);fill-opacity:1;fill-rule:evenodd;stroke:#000000;stroke-width:1.20000005;stroke-linecap:round;stroke-linejoin:round;stroke-miterlimit:4;stroke-dashoffset:0;stroke-opacity:1" />
    <path
       id="rect5051"
       d="M 33.542781,14.093179 L 33.542781,37.811929 L 65.636531,37.811929 L 65.636531,14.093179 L 33.542781,14.093179 z M 54.074031,18.436929 L 61.605281,18.436929 L 61.605281,33.780679 L 54.074031,33.780679 L 54.074031,18.436929 z "
       style="fill:url(#linearGradient6168);fill-opacity:1;fill-rule:evenodd;stroke:#000000;stroke-width:1.20000005;stroke-linecap:round;stroke-linejoin:round;stroke-miterlimit:4;stroke-dashoffset:0;stroke-opacity:1" />
    <rect
       y="44.38789"
       x="25.245562"
       height="33.547806"
       width="45.40522"
       id="rect5080"
       style="fill:#ffffff;fill-opacity:1;fill-rule:evenodd;stroke:#000000;stroke-width:1.20000005;stroke-linecap:round;stroke-linejoin:round;stroke-miterlimit:4;stroke-dasharray:none;stroke-dashoffset:0;stroke-opacity:1" />
    <rect
       y="72.133835"
       x="18.456938"
       height="3.6357558"
       width="4.1119161"
       id="rect5082"
       style="fill:#ffffff;fill-opacity:1;fill-rule:evenodd;stroke:#000000;stroke-width:0.58104563;stroke-linecap:round;stroke-linejoin:round;stroke-miterlimit:4;stroke-dasharray:none;stroke-dashoffset:0;stroke-opacity:1" />
    <path
       id="text5084"
       d="M 32.103808,49.159668 C 32.153169,49.153498 32.19636,49.153498 32.21487,49.153498 C 32.295081,49.153498 32.295082,49.153498 32.498695,49.165838 C 32.480185,49.23371 32.461674,49.307751 32.449334,49.375622 C 32.430824,49.455834 32.381463,49.665618 32.295081,49.998803 L 31.924875,51.49197 C 31.912535,51.535161 31.875514,51.683244 31.819983,51.886857 C 31.307864,52.158342 31.048719,52.244724 30.727873,52.244724 C 30.382347,52.244724 30.154053,51.967068 30.154053,51.535161 C 30.154053,50.844109 30.592131,49.776679 31.221482,48.931374 L 31.184461,48.882013 C 31.10425,48.906694 31.09808,48.912864 30.993188,48.962225 L 30.931487,48.986905 C 30.5366,48.925204 30.505749,48.919034 30.363837,48.919034 C 30.067672,48.919034 29.827037,48.993075 29.623423,49.153498 C 29.228537,49.462003 28.981732,49.869231 28.981732,50.208587 C 28.981732,50.37518 29.031093,50.535603 29.160665,50.807088 L 29.574062,50.473902 C 29.41981,50.177737 29.364279,50.023484 29.364279,49.863061 C 29.364279,49.523705 29.672785,49.27073 30.073841,49.27073 C 30.258945,49.27073 30.388517,49.295411 30.653832,49.387962 C 29.94427,50.504751 29.648104,51.214316 29.648104,51.775795 C 29.648104,52.226213 29.919589,52.528549 30.326816,52.528549 C 30.666172,52.528549 31.06106,52.411317 31.807643,52.090471 C 31.770622,52.269404 31.758282,52.349616 31.758282,52.398977 C 31.758282,52.485358 31.819983,52.534719 31.931045,52.534719 C 32.103808,52.534719 32.443164,52.485358 32.868902,52.386636 L 32.998474,52.232384 C 32.807201,52.250894 32.689968,52.257064 32.554226,52.257064 C 32.387633,52.257064 32.325932,52.195363 32.325932,52.04728 C 32.325932,51.769626 32.640608,50.44305 33.066345,48.906694 C 32.7455,48.956055 32.702308,48.962225 32.270401,49.005416 L 32.103808,49.159668 M 33.101052,51.936218 C 33.094882,51.991749 33.088712,52.04111 33.088712,52.078131 C 33.088712,52.343445 33.273815,52.528549 33.5453,52.528549 C 33.736573,52.528549 34.001888,52.448337 34.199332,52.337276 C 34.563368,52.127492 34.785492,51.812816 34.785492,51.504311 C 34.785492,51.276017 34.742301,51.226655 34.396775,51.010702 C 34.186992,50.874959 34.10061,50.757727 34.10061,50.597304 C 34.10061,50.387521 34.279543,50.202417 34.489327,50.202417 C 34.631239,50.202417 34.736132,50.270289 34.871874,50.443051 C 35.081657,50.239438 35.081658,50.239438 35.161869,50.122206 C 35.038467,49.974123 34.921235,49.912422 34.748472,49.912422 C 34.298054,49.912422 33.718063,50.449222 33.718063,50.856449 C 33.718063,51.047722 33.816785,51.195805 34.051249,51.362398 C 34.359754,51.578352 34.402945,51.633883 34.402945,51.788136 C 34.402945,52.010259 34.11912,52.269404 33.878486,52.269404 C 33.742744,52.269404 33.637852,52.195363 33.576151,52.059621 C 33.53296,51.967069 33.52062,51.874517 33.514449,51.664733 C 33.446578,51.714094 33.397217,51.744945 33.372537,51.763455 C 33.323176,51.794306 33.267645,51.825156 33.212114,51.862177 L 33.101052,51.936218 M 37.161563,51.603032 C 36.698806,52.004089 36.40264,52.176853 36.168176,52.176853 C 36.013923,52.176853 35.88435,52.071961 35.84116,51.911538 C 35.816479,51.812816 35.810309,51.744945 35.810309,51.566012 C 36.087964,51.393249 36.273068,51.263676 36.637104,50.992191 C 36.97029,50.739217 37.099862,50.535603 37.099862,50.257948 C 37.099862,50.041994 36.96412,49.912422 36.748166,49.912422 C 36.612424,49.912422 36.513702,49.943273 36.371789,50.023484 C 36.137325,50.159226 35.927541,50.325819 35.797969,50.473902 C 35.563505,50.757727 35.353721,51.43644 35.353721,51.936218 C 35.353721,52.300255 35.544995,52.528549 35.85967,52.528549 C 36.223706,52.528549 36.674125,52.269404 37.161563,51.781966 L 37.161563,51.603032 M 35.828819,51.343888 C 35.933711,50.683686 36.217537,50.171567 36.482851,50.171567 C 36.587743,50.171567 36.655614,50.276459 36.655614,50.424541 C 36.655614,50.733046 36.489021,50.91815 35.828819,51.343888 M 39.073334,50.523263 C 39.091845,50.523263 39.128865,50.523263 39.196737,50.529433 L 39.449711,50.331989 C 39.128866,50.325819 39.128865,50.325819 39.060994,50.325819 C 38.986953,50.325819 38.986953,50.325819 38.696958,50.331989 C 39.098014,48.764783 39.190567,48.573508 39.554603,48.573508 C 39.659495,48.573508 39.739707,48.585848 39.968,48.622869 L 40.251826,48.289683 C 40.128423,48.258832 40.079062,48.252662 39.95566,48.252662 C 39.585454,48.252662 39.326308,48.388405 38.912911,48.789462 C 38.567386,49.122647 38.487174,49.307752 38.246539,50.331989 C 38.184838,50.325819 38.153988,50.325819 38.123137,50.325819 L 37.820802,50.33816 C 37.808462,50.33816 37.777611,50.33816 37.72825,50.331989 C 37.69123,50.35667 37.654209,50.38135 37.641869,50.38752 L 37.506126,50.461562 C 37.481446,50.473902 37.432085,50.498582 37.382724,50.529433 L 37.536977,50.529433 C 37.536977,50.529433 37.968884,50.535603 37.968884,50.535603 C 38.005905,50.535603 38.073776,50.535603 38.197179,50.529433 C 38.098457,50.905809 38.061436,51.072403 37.944204,51.609202 C 37.573998,53.305981 37.432084,53.583638 36.907625,53.583638 C 36.821244,53.583638 36.747202,53.577468 36.580609,53.552787 C 36.518908,53.645339 36.500398,53.67619 36.457207,53.731721 C 36.407846,53.799592 36.352315,53.867463 36.302954,53.941504 C 36.438697,53.960015 36.506568,53.966185 36.60529,53.966185 C 36.808903,53.966185 36.969327,53.935334 37.068048,53.879803 C 37.246981,53.781082 37.561657,53.478746 37.72825,53.262792 C 37.919523,53.003648 38.141648,52.473017 38.28356,51.911538 C 38.548875,50.905811 38.616746,50.652835 38.647597,50.529433 C 38.703128,50.535603 38.727808,50.535603 38.752489,50.535603 L 39.073334,50.523263 M 39.400929,50.597304 C 39.660073,50.467732 39.777305,50.418371 39.851347,50.418371 C 39.900708,50.418371 39.937728,50.467732 39.937728,50.535603 C 39.937728,50.615814 39.876027,50.88113 39.764965,51.300697 C 39.610713,51.874517 39.573692,52.047281 39.573692,52.226214 C 39.573692,52.398976 39.647733,52.528549 39.746455,52.528549 C 39.839006,52.528549 39.950069,52.473018 40.258574,52.269404 L 40.894095,51.856007 C 40.844735,52.05345 40.807714,52.275575 40.807714,52.386636 C 40.807714,52.466848 40.857075,52.528549 40.918776,52.528549 C 41.042178,52.528549 41.628339,52.183022 42.047906,51.868347 L 42.091097,51.683244 C 41.609829,51.967069 41.449405,52.05345 41.381534,52.05345 C 41.338344,52.05345 41.313663,52.004089 41.313663,51.905368 C 41.313663,51.590692 41.541957,50.671345 41.807272,49.887741 C 41.727061,49.930932 41.671529,49.961783 41.646849,49.974123 C 41.572808,50.011144 41.498766,50.048164 41.418555,50.085185 C 41.400045,50.091355 41.363024,50.109865 41.295153,50.146886 C 41.258132,50.288799 41.13473,50.782408 40.931116,51.633883 C 40.456018,51.960898 40.240064,52.084301 40.166022,52.084301 C 40.098151,52.084301 40.04879,51.997919 40.04879,51.880687 C 40.04879,51.738775 40.098151,51.49197 40.203043,51.097083 C 40.270914,50.850279 40.314105,50.677516 40.332615,50.591134 C 40.388146,50.36284 40.431337,50.202417 40.443677,50.159226 C 40.462188,50.091355 40.474528,50.035824 40.474528,49.992633 C 40.474528,49.943272 40.443677,49.912422 40.400487,49.912422 C 40.338786,49.912422 39.888367,50.153057 39.444119,50.430711 L 39.400929,50.597304 M 43.623598,51.652393 C 43.537217,51.701754 43.481685,51.738775 43.457005,51.751115 C 43.012757,52.02877 42.963396,52.05345 42.877015,52.05345 C 42.821484,52.05345 42.765953,51.979409 42.765953,51.893028 L 42.765953,51.837497 L 42.765953,51.781966 C 42.765953,51.670904 43.043608,50.473901 43.271902,49.603916 C 43.512536,48.696911 43.568067,48.585848 43.839552,48.585848 C 43.919763,48.585848 43.981465,48.592018 44.141887,48.629039 L 44.407202,48.302023 C 44.27763,48.271172 44.209759,48.265002 44.129547,48.265002 C 43.882743,48.265002 43.685299,48.363724 43.389134,48.629039 C 43.117649,48.875843 43.049778,48.968395 42.969566,49.190519 C 42.920205,49.338601 42.784463,49.838381 42.722762,50.109865 L 42.278514,52.04111 C 42.272344,52.078131 42.266174,52.115152 42.266174,52.152172 C 42.266174,52.337275 42.371066,52.528549 42.469787,52.528549 L 42.506808,52.528549 L 42.525318,52.528549 C 42.587019,52.528549 42.846165,52.349615 43.623598,51.788136 L 43.623598,51.652393 M 46.723307,50.523263 C 46.741818,50.523263 46.778838,50.523263 46.846709,50.529433 L 47.099684,50.331989 C 46.778839,50.325819 46.778838,50.325819 46.710967,50.325819 C 46.636926,50.325819 46.636925,50.325819 46.34693,50.331989 C 46.747987,48.764783 46.84054,48.573508 47.204576,48.573508 C 47.309468,48.573508 47.389679,48.585848 47.617973,48.622869 L 47.901798,48.289683 C 47.778396,48.258832 47.729035,48.252662 47.605633,48.252662 C 47.235427,48.252662 46.976281,48.388405 46.562884,48.789462 C 46.217359,49.122647 46.137146,49.307752 45.896512,50.331989 C 45.834811,50.325819 45.803961,50.325819 45.77311,50.325819 L 45.470775,50.33816 C 45.458435,50.33816 45.427584,50.33816 45.378223,50.331989 C 45.341202,50.35667 45.304182,50.38135 45.291841,50.38752 L 45.156099,50.461562 C 45.131419,50.473902 45.082058,50.498582 45.032697,50.529433 L 45.18695,50.529433 C 45.18695,50.529433 45.618857,50.535603 45.618857,50.535603 C 45.655878,50.535603 45.723749,50.535603 45.847151,50.529433 C 45.74843,50.905809 45.711409,51.072403 45.594177,51.609202 C 45.223971,53.305981 45.082057,53.583638 44.557598,53.583638 C 44.471217,53.583638 44.397175,53.577468 44.230582,53.552787 C 44.168881,53.645339 44.150371,53.67619 44.10718,53.731721 C 44.057819,53.799592 44.002288,53.867463 43.952927,53.941504 C 44.08867,53.960015 44.156541,53.966185 44.255263,53.966185 C 44.458876,53.966185 44.619299,53.935334 44.718021,53.879803 C 44.896954,53.781082 45.21163,53.478746 45.378223,53.262792 C 45.569496,53.003648 45.791621,52.473017 45.933533,51.911538 C 46.198848,50.905811 46.266719,50.652835 46.29757,50.529433 C 46.353101,50.535603 46.377781,50.535603 46.402461,50.535603 L 46.723307,50.523263 M 48.038119,49.400303 C 48.217052,49.23988 48.229393,49.227539 48.439177,49.067117 C 48.402156,48.993075 48.371305,48.943714 48.358965,48.925204 C 48.321944,48.851163 48.315774,48.844993 48.266413,48.727761 C 48.254073,48.70308 48.241733,48.6784 48.229393,48.647549 C 48.198542,48.67223 48.161521,48.69691 48.143011,48.71542 C 48.118331,48.740101 48.06897,48.777121 48.007269,48.826482 C 47.976418,48.851163 47.933227,48.882013 47.877696,48.919034 C 47.853016,48.937544 47.828335,48.956055 47.803655,48.968395 C 47.846846,49.104137 47.902377,49.202859 48.038119,49.400303 M 48.463857,51.732605 C 47.877697,52.04728 47.865356,52.05345 47.785145,52.05345 C 47.717274,52.05345 47.674083,51.985579 47.674083,51.880687 C 47.674083,51.818986 47.692593,51.701754 47.729614,51.566012 C 48.044289,50.27029 48.105991,50.023484 48.105991,49.974123 C 48.105991,49.937102 48.07514,49.912422 48.031949,49.912422 C 47.927057,49.912422 47.56302,50.116036 47.057072,50.455392 L 47.044731,50.628155 C 47.408768,50.430711 47.439619,50.418371 47.49515,50.418371 C 47.54451,50.418371 47.569191,50.455392 47.569191,50.529433 C 47.569191,50.609644 47.55068,50.696026 47.458129,51.047722 C 47.168134,52.127491 47.168134,52.127492 47.168134,52.281745 C 47.168134,52.429827 47.229835,52.528549 47.316216,52.528549 C 47.421108,52.528549 47.587701,52.448337 47.914717,52.238554 C 48.031949,52.164513 48.149181,52.090471 48.266413,52.01026 C 48.321944,51.979409 48.377475,51.942388 48.439177,51.905368 L 48.463857,51.732605 M 49.914219,51.652393 C 49.827837,51.701754 49.772306,51.738775 49.747626,51.751115 C 49.303378,52.02877 49.254017,52.05345 49.167635,52.05345 C 49.112104,52.05345 49.056573,51.979409 49.056573,51.893028 L 49.056573,51.837497 L 49.056573,51.781966 C 49.056573,51.670904 49.334229,50.473901 49.562523,49.603916 C 49.803157,48.696911 49.858688,48.585848 50.130173,48.585848 C 50.210384,48.585848 50.272085,48.592018 50.432508,48.629039 L 50.697823,48.302023 C 50.568251,48.271172 50.500379,48.265002 50.420168,48.265002 C 50.173364,48.265002 49.97592,48.363724 49.679755,48.629039 C 49.40827,48.875843 49.340398,48.968395 49.260187,49.190519 C 49.210826,49.338601 49.075084,49.838381 49.013383,50.109865 L 48.569135,52.04111 C 48.562965,52.078131 48.556794,52.115152 48.556794,52.152172 C 48.556794,52.337275 48.661686,52.528549 48.760408,52.528549 L 48.797429,52.528549 L 48.815939,52.528549 C 48.87764,52.528549 49.136786,52.349615 49.914219,51.788136 L 49.914219,51.652393 M 51.839679,51.603032 C 51.376921,52.004089 51.080755,52.176853 50.846291,52.176853 C 50.692039,52.176853 50.562466,52.071961 50.519276,51.911538 C 50.494595,51.812816 50.488425,51.744945 50.488425,51.566012 C 50.76608,51.393249 50.951184,51.263676 51.31522,50.992191 C 51.648406,50.739217 51.777978,50.535603 51.777978,50.257948 C 51.777978,50.041994 51.642236,49.912422 51.426282,49.912422 C 51.29054,49.912422 51.191817,49.943273 51.049905,50.023484 C 50.815441,50.159226 50.605657,50.325819 50.476085,50.473902 C 50.241621,50.757727 50.031837,51.43644 50.031837,51.936218 C 50.031837,52.300255 50.223111,52.528549 50.537786,52.528549 C 50.901822,52.528549 51.352241,52.269404 51.839679,51.781966 L 51.839679,51.603032 M 50.506935,51.343888 C 50.611827,50.683686 50.895653,50.171567 51.160967,50.171567 C 51.265859,50.171567 51.33373,50.276459 51.33373,50.424541 C 51.33373,50.733046 51.167137,50.91815 50.506935,51.343888 M 51.857226,51.936218 C 51.851056,51.991749 51.844886,52.04111 51.844886,52.078131 C 51.844886,52.343445 52.029989,52.528549 52.301474,52.528549 C 52.492747,52.528549 52.758063,52.448337 52.955506,52.337276 C 53.319542,52.127492 53.541666,51.812816 53.541666,51.504311 C 53.541666,51.276017 53.498475,51.226655 53.152949,51.010702 C 52.943166,50.874959 52.856784,50.757727 52.856784,50.597304 C 52.856784,50.387521 53.035718,50.202417 53.245501,50.202417 C 53.387414,50.202417 53.492306,50.270289 53.628048,50.443051 C 53.837832,50.239438 53.837832,50.239438 53.918043,50.122206 C 53.794641,49.974123 53.677409,49.912422 53.504646,49.912422 C 53.054228,49.912422 52.474237,50.449222 52.474237,50.856449 C 52.474237,51.047722 52.572959,51.195805 52.807423,51.362398 C 53.115928,51.578352 53.15912,51.633883 53.15912,51.788136 C 53.15912,52.010259 52.875294,52.269404 52.63466,52.269404 C 52.498918,52.269404 52.394026,52.195363 52.332325,52.059621 C 52.289134,51.967069 52.276794,51.874517 52.270624,51.664733 C 52.202752,51.714094 52.153391,51.744945 52.128711,51.763455 C 52.07935,51.794306 52.023819,51.825156 51.968288,51.862177 L 51.857226,51.936218"
       style="font-size:8.88496017px;font-style:normal;font-weight:normal;line-height:125%;fill:#000000;fill-opacity:1;stroke:none;stroke-width:1px;stroke-linecap:butt;stroke-linejoin:miter;stroke-opacity:1;font-family:Bitstream Vera Sans"
       transform="scale(0.9990086,1.0009923)" />
    <path
       id="text5092"
       d="M 31.736391,59.323384 C 31.168741,59.712101 30.749173,59.872524 30.317265,59.872524 C 29.829827,59.872524 29.521321,59.502317 29.521321,58.916157 C 29.521321,57.632775 30.428328,56.355561 31.341504,56.355561 C 31.71171,56.355561 31.896814,56.583856 31.933834,57.071294 L 32.390422,56.682577 C 32.334891,56.25684 32.112767,56.065566 31.66852,56.065566 C 31.13172,56.065566 30.508538,56.380242 29.965569,56.923211 C 29.367069,57.521711 29.015372,58.342337 29.015372,59.144451 C 29.015372,59.779972 29.367069,60.162519 29.959399,60.162519 C 30.490028,60.162519 31.162571,59.909544 31.6932,59.508487 L 31.736391,59.323384 M 32.145546,59.767632 L 32.583624,59.588699 L 32.94766,58.151063 C 33.009361,58.107872 33.083403,58.064682 33.095743,58.058512 C 33.52148,57.787027 33.780625,57.651284 33.848496,57.651284 C 33.891687,57.651284 33.922538,57.694475 33.922538,57.750006 C 33.922538,57.824047 33.897857,57.94128 33.811476,58.274465 C 33.620203,59.014878 33.546161,59.372745 33.546161,59.539338 C 33.546161,59.613379 33.570842,59.687421 33.638713,59.804653 C 33.978068,59.63189 34.422317,59.348064 34.761673,59.10126 L 34.804864,58.922327 C 34.280405,59.230832 34.194023,59.274023 34.113811,59.274023 C 34.05828,59.274023 34.02126,59.212322 34.02126,59.1136 C 34.02126,58.990198 34.05828,58.811265 34.163172,58.410208 C 34.360615,57.682136 34.459337,57.305758 34.459337,57.281078 C 34.459337,57.219377 34.409976,57.176186 34.329765,57.176186 C 34.200193,57.176186 33.774454,57.41065 33.003191,57.910429 L 33.212975,57.083634 C 33.361058,56.478964 33.422759,56.28769 33.50297,56.133437 C 33.589352,55.960674 33.718924,55.880463 33.885517,55.880463 C 33.965728,55.880463 34.01509,55.886633 34.255724,55.935994 L 34.521038,55.559617 C 34.409977,55.534937 34.360616,55.528766 34.268064,55.528766 C 33.928708,55.528766 33.749774,55.621319 33.299357,56.016205 C 32.978511,56.30003 32.92915,56.404923 32.737877,57.219377 L 32.145546,59.767632 M 36.746134,58.866796 C 36.283377,59.267853 35.987211,59.440616 35.752747,59.440616 C 35.598494,59.440616 35.468922,59.335724 35.425731,59.175301 C 35.40105,59.07658 35.39488,59.008708 35.39488,58.829775 C 35.672535,58.657012 35.857639,58.52744 36.221675,58.255955 C 36.554861,58.002981 36.684433,57.799367 36.684433,57.521712 C 36.684433,57.305758 36.548691,57.176186 36.332737,57.176186 C 36.196995,57.176186 36.098273,57.207036 35.95636,57.287248 C 35.721896,57.42299 35.512112,57.589583 35.38254,57.737666 C 35.148076,58.021491 34.938292,58.700203 34.938292,59.199982 C 34.938292,59.564018 35.129566,59.792312 35.444241,59.792312 C 35.808277,59.792312 36.258696,59.533167 36.746134,59.045729 L 36.746134,58.866796 M 35.413391,58.607651 C 35.518282,57.94745 35.802108,57.43533 36.067422,57.43533 C 36.172314,57.43533 36.240185,57.540222 36.240185,57.688305 C 36.240185,57.99681 36.073592,58.181914 35.413391,58.607651 M 37.504093,59.607209 L 37.89898,58.107872 C 38.312377,57.830218 38.565352,57.682135 38.645564,57.682135 C 38.694924,57.682135 38.725775,57.737666 38.725775,57.817877 C 38.725775,58.00298 38.491311,58.940838 38.232166,59.773802 L 38.701095,59.607209 L 39.083641,58.064682 C 39.441507,57.836388 39.774694,57.651284 39.848735,57.651284 C 39.898096,57.651284 39.928947,57.694475 39.928947,57.768516 C 39.928947,57.904259 39.873415,58.157234 39.706823,58.817435 C 39.608101,59.199981 39.57725,59.354235 39.57725,59.496147 C 39.57725,59.625719 39.614271,59.693591 39.725333,59.773802 C 40.089369,59.594869 40.397875,59.397425 40.774252,59.10126 L 40.774252,58.959348 C 40.712551,58.990198 40.644679,59.033389 40.564468,59.08892 C 40.342344,59.230832 40.237452,59.280193 40.163411,59.280193 C 40.09554,59.280193 40.052349,59.218492 40.052349,59.1136 C 40.052349,58.977858 40.13256,58.626161 40.255962,58.194254 C 40.441065,57.558733 40.490427,57.361289 40.490427,57.268737 C 40.490427,57.207036 40.453406,57.176186 40.391705,57.176186 C 40.280643,57.176186 39.898095,57.37363 39.145343,57.817877 C 39.163853,57.750006 39.170023,57.700645 39.176193,57.675965 C 39.250234,57.36746 39.268745,57.281078 39.268745,57.244057 C 39.268745,57.200866 39.237894,57.176186 39.188533,57.176186 C 39.095982,57.176186 38.775135,57.348949 38.158125,57.743836 L 37.960681,57.867238 C 38.071743,57.416821 38.096424,57.305758 38.096424,57.262567 C 38.096424,57.213207 38.059403,57.176186 38.003872,57.176186 C 37.929831,57.176186 37.442392,57.441501 37.041335,57.694475 L 36.998144,57.867238 C 37.3375,57.700645 37.386861,57.682135 37.454732,57.682135 C 37.510263,57.682135 37.547284,57.731496 37.547284,57.799367 C 37.547284,57.898089 37.32516,58.811266 37.066016,59.773802 L 37.504093,59.607209 M 41.823749,56.664067 C 42.002682,56.503644 42.015023,56.491303 42.224806,56.330881 C 42.187786,56.25684 42.156935,56.207479 42.144595,56.188968 C 42.107574,56.114927 42.101404,56.108757 42.052043,55.991525 C 42.039703,55.966844 42.027363,55.942164 42.015023,55.911313 C 41.984172,55.935994 41.947151,55.960674 41.928641,55.979184 C 41.903961,56.003865 41.8546,56.040886 41.792899,56.090246 C 41.762048,56.114927 41.718857,56.145777 41.663326,56.182798 C 41.638646,56.201308 41.613965,56.219819 41.589285,56.232159 C 41.632476,56.367901 41.688007,56.466623 41.823749,56.664067 M 42.249487,58.996368 C 41.663327,59.311044 41.650986,59.317214 41.570775,59.317214 C 41.502904,59.317214 41.459713,59.249343 41.459713,59.144451 C 41.459713,59.08275 41.478223,58.965518 41.515244,58.829775 C 41.829919,57.534053 41.89162,57.287248 41.89162,57.237887 C 41.89162,57.200866 41.86077,57.176186 41.817579,57.176186 C 41.712687,57.176186 41.34865,57.3798 40.842702,57.719155 L 40.830362,57.891919 C 41.194398,57.694475 41.225249,57.682135 41.28078,57.682135 C 41.33014,57.682135 41.354821,57.719156 41.354821,57.793197 C 41.354821,57.873408 41.33631,57.95979 41.243759,58.311486 C 40.953764,59.391254 40.953764,59.391255 40.953764,59.545508 C 40.953764,59.693591 41.015465,59.792312 41.101846,59.792312 C 41.206738,59.792312 41.373332,59.712101 41.700347,59.502317 C 41.817579,59.428276 41.934811,59.354235 42.052043,59.274023 C 42.107574,59.243173 42.163105,59.206152 42.224806,59.169131 L 42.249487,58.996368 M 44.168776,58.928497 C 43.693678,59.267853 43.366662,59.440616 43.169218,59.440616 C 42.947095,59.440616 42.817522,59.267853 42.817522,58.971688 C 42.817522,58.675523 42.891563,58.280635 43.008795,57.99064 C 43.132198,57.663625 43.292621,57.497032 43.471554,57.497032 C 43.619636,57.497032 43.699848,57.614264 43.730698,57.885748 L 44.088565,57.675965 C 44.094735,57.645114 44.094735,57.614264 44.094735,57.608094 C 44.094735,57.342779 43.958992,57.176186 43.743039,57.176186 C 43.631977,57.176186 43.564105,57.200866 43.341981,57.348949 C 42.879224,57.638944 42.780501,57.731496 42.644759,57.98447 C 42.471996,58.317656 42.342424,58.842116 42.342424,59.224662 C 42.342424,59.582528 42.509017,59.792312 42.792842,59.792312 C 43.089007,59.792312 43.594956,59.545508 44.156436,59.125941 L 44.168776,58.928497 M 46.938192,58.909987 C 46.475435,59.218492 46.382882,59.274023 46.321181,59.274023 C 46.277991,59.274023 46.24714,59.224662 46.24714,59.150621 C 46.24714,58.990198 46.395223,58.311485 46.617347,57.490861 C 46.685218,57.39831 46.697558,57.379799 46.79628,57.268737 C 46.500115,57.200866 46.28416,57.176186 46.018846,57.176186 C 45.765872,57.176186 45.648639,57.200866 45.488216,57.299588 C 45.266093,57.42916 45.006948,57.620434 44.926736,57.706815 C 44.698443,57.96596 44.439298,58.798925 44.439298,59.298704 C 44.439298,59.594869 44.53802,59.792312 44.692272,59.792312 C 44.828015,59.792312 45.031629,59.66891 45.802892,59.1136 C 45.741191,59.397425 45.71034,59.588699 45.71034,59.66274 C 45.71034,59.742951 45.747361,59.792312 45.809062,59.792312 C 45.883103,59.792312 45.883104,59.792312 46.376712,59.477637 C 46.555645,59.360405 46.697558,59.261683 46.932022,59.08892 L 46.938192,58.909987 M 45.735021,58.947007 C 45.370985,59.212322 45.185881,59.317214 45.074819,59.317214 C 44.976097,59.317214 44.914396,59.206152 44.914396,59.008708 C 44.914396,58.700203 45.013118,58.280635 45.167371,57.928939 C 45.315453,57.589584 45.451196,57.460011 45.66098,57.460011 C 45.772041,57.460011 45.963315,57.490861 46.185439,57.540222 C 46.062037,58.00915 46.018846,58.151063 46.012676,58.181914 C 45.975655,58.336166 45.944805,58.490419 45.907784,58.650842 C 45.901614,58.681693 45.883103,58.755734 45.852253,58.866796 L 45.735021,58.947007 M 48.385276,58.916157 C 48.298895,58.965518 48.243364,59.002538 48.218683,59.014879 C 47.774436,59.292533 47.725075,59.317214 47.638693,59.317214 C 47.583162,59.317214 47.527631,59.243173 47.527631,59.156791 L 47.527631,59.10126 L 47.527631,59.045729 C 47.527631,58.934667 47.805286,57.737665 48.03358,56.86768 C 48.274214,55.960675 48.329746,55.849612 48.60123,55.849612 C 48.681442,55.849612 48.743143,55.855782 48.903566,55.892803 L 49.16888,55.565787 C 49.039308,55.534937 48.971437,55.528766 48.891225,55.528766 C 48.644421,55.528766 48.446977,55.627488 48.150812,55.892803 C 47.879328,56.139607 47.811456,56.232159 47.731245,56.454283 C 47.681884,56.602365 47.546141,57.102145 47.48444,57.373629 L 47.040192,59.304874 C 47.034022,59.341894 47.027852,59.378915 47.027852,59.415936 C 47.027852,59.601039 47.132744,59.792312 47.231466,59.792312 L 47.268486,59.792312 L 47.286997,59.792312 C 47.348698,59.792312 47.607843,59.613379 48.385276,59.051899 L 48.385276,58.916157 M 51.565195,58.934667 C 51.096267,59.212322 50.898823,59.317214 50.812442,59.317214 C 50.73223,59.317214 50.633508,59.156791 50.633508,59.027219 C 50.633508,58.940837 50.738401,58.465738 50.898823,57.817877 C 50.985205,57.811707 51.046906,57.811707 51.077756,57.811707 L 51.324561,57.805537 C 51.349241,57.805537 51.410942,57.799367 51.509664,57.787027 L 51.744128,57.608094 L 50.954354,57.608094 L 51.201159,56.608536 C 51.083927,56.670237 51.034566,56.688747 50.942014,56.731938 C 50.898823,56.756618 50.849462,56.775129 50.800101,56.799809 C 50.775421,56.812149 50.74457,56.82449 50.71372,56.83683 L 50.540957,57.608094 C 50.485426,57.614264 50.448405,57.614264 50.429895,57.614264 L 50.281812,57.614264 C 50.269472,57.614264 50.238621,57.614264 50.189261,57.620434 C 50.121389,57.663624 50.115219,57.663625 50.010327,57.750006 C 49.991817,57.762346 49.960966,57.787027 49.917776,57.817877 L 50.065858,57.817877 L 50.349683,57.817877 L 50.485426,57.817877 C 50.15841,59.18764 50.15841,59.187642 50.15841,59.378915 C 50.15841,59.576358 50.287982,59.792312 50.405214,59.792312 C 50.540957,59.792312 50.960525,59.533167 51.552855,59.08892 L 51.565195,58.934667 M 53.651271,58.866796 C 53.188513,59.267853 52.892347,59.440616 52.657883,59.440616 C 52.503631,59.440616 52.374058,59.335724 52.330867,59.175301 C 52.306187,59.07658 52.300017,59.008708 52.300017,58.829775 C 52.577672,58.657012 52.762775,58.52744 53.126812,58.255955 C 53.459997,58.002981 53.58957,57.799367 53.58957,57.521712 C 53.58957,57.305758 53.453827,57.176186 53.237874,57.176186 C 53.102131,57.176186 53.003409,57.207036 52.861497,57.287248 C 52.627033,57.42299 52.417249,57.589583 52.287677,57.737666 C 52.053213,58.021491 51.843429,58.700203 51.843429,59.199982 C 51.843429,59.564018 52.034702,59.792312 52.349378,59.792312 C 52.713414,59.792312 53.163833,59.533167 53.651271,59.045729 L 53.651271,58.866796 M 52.318527,58.607651 C 52.423419,57.94745 52.707244,57.43533 52.972559,57.43533 C 53.077451,57.43533 53.145322,57.540222 53.145322,57.688305 C 53.145322,57.99681 52.978728,58.181914 52.318527,58.607651 M 53.668818,59.199982 C 53.662648,59.255513 53.656478,59.304874 53.656478,59.341894 C 53.656478,59.607209 53.841581,59.792312 54.113066,59.792312 C 54.304339,59.792312 54.569654,59.712101 54.767098,59.601039 C 55.131134,59.391255 55.353258,59.076579 55.353258,58.768074 C 55.353258,58.53978 55.310067,58.490419 54.964541,58.274465 C 54.754758,58.138723 54.668376,58.021491 54.668376,57.861068 C 54.668376,57.651284 54.847309,57.466181 55.057093,57.466181 C 55.199005,57.466181 55.303897,57.534052 55.43964,57.706815 C 55.649423,57.503202 55.649424,57.503202 55.729635,57.38597 C 55.606233,57.237887 55.489,57.176186 55.316237,57.176186 C 54.86582,57.176186 54.285829,57.712986 54.285829,58.120213 C 54.285829,58.311486 54.384551,58.459569 54.619015,58.626162 C 54.92752,58.842115 54.970711,58.897647 54.970711,59.051899 C 54.970711,59.274023 54.686886,59.533168 54.446252,59.533168 C 54.31051,59.533168 54.205618,59.459126 54.143917,59.323384 C 54.100726,59.230833 54.088386,59.138281 54.082216,58.928497 C 54.014344,58.977858 53.964983,59.008708 53.940303,59.027219 C 53.890942,59.058069 53.835411,59.08892 53.77988,59.125941 L 53.668818,59.199982 M 57.624437,58.934667 C 57.155509,59.212322 56.958065,59.317214 56.871684,59.317214 C 56.791473,59.317214 56.692751,59.156791 56.692751,59.027219 C 56.692751,58.940837 56.797643,58.465738 56.958065,57.817877 C 57.044447,57.811707 57.106148,57.811707 57.136999,57.811707 L 57.383803,57.805537 C 57.408483,57.805537 57.470185,57.799367 57.568906,57.787027 L 57.803371,57.608094 L 57.013596,57.608094 L 57.260401,56.608536 C 57.143169,56.670237 57.093808,56.688747 57.001256,56.731938 C 56.958065,56.756618 56.908705,56.775129 56.859344,56.799809 C 56.834663,56.812149 56.803813,56.82449 56.772962,56.83683 L 56.600199,57.608094 C 56.544668,57.614264 56.507647,57.614264 56.489137,57.614264 L 56.341054,57.614264 C 56.328714,57.614264 56.297864,57.614264 56.248503,57.620434 C 56.180632,57.663624 56.174461,57.663625 56.06957,57.750006 C 56.051059,57.762346 56.020209,57.787027 55.977018,57.817877 L 56.125101,57.817877 L 56.408926,57.817877 L 56.544668,57.817877 C 56.217653,59.18764 56.217652,59.187642 56.217652,59.378915 C 56.217652,59.576358 56.347225,59.792312 56.464457,59.792312 C 56.600199,59.792312 57.019767,59.533167 57.612097,59.08892 L 57.624437,58.934667 M 57.631184,59.199982 C 57.625014,59.255513 57.618844,59.304874 57.618844,59.341894 C 57.618844,59.607209 57.803948,59.792312 58.075432,59.792312 C 58.266705,59.792312 58.53202,59.712101 58.729464,59.601039 C 59.0935,59.391255 59.315624,59.076579 59.315624,58.768074 C 59.315624,58.53978 59.272433,58.490419 58.926907,58.274465 C 58.717124,58.138723 58.630742,58.021491 58.630742,57.861068 C 58.630742,57.651284 58.809675,57.466181 59.019459,57.466181 C 59.161371,57.466181 59.266264,57.534052 59.402006,57.706815 C 59.611789,57.503202 59.61179,57.503202 59.692001,57.38597 C 59.568599,57.237887 59.451366,57.176186 59.278604,57.176186 C 58.828186,57.176186 58.248195,57.712986 58.248195,58.120213 C 58.248195,58.311486 58.346917,58.459569 58.581381,58.626162 C 58.889886,58.842115 58.933077,58.897647 58.933077,59.051899 C 58.933077,59.274023 58.649252,59.533168 58.408618,59.533168 C 58.272876,59.533168 58.167984,59.459126 58.106283,59.323384 C 58.063092,59.230833 58.050752,59.138281 58.044582,58.928497 C 57.97671,58.977858 57.927349,59.008708 57.902669,59.027219 C 57.853308,59.058069 57.797777,59.08892 57.742246,59.125941 L 57.631184,59.199982"
       inkscape:transform-center-y="-8.3844581"
       inkscape:transform-center-x="-4.7034765"
       style="font-size:8.88496017px;font-style:normal;font-weight:normal;line-height:125%;fill:#000000;fill-opacity:1;stroke:none;stroke-width:1px;stroke-linecap:butt;stroke-linejoin:miter;stroke-opacity:1;font-family:Bitstream Vera Sans"
       transform="scale(0.9990086,1.0009923)" />
  </g>
</svg>
