<?xml version="1.0" encoding="UTF-8" standalone="no"?>
<!-- Created with Inkscape (http://www.inkscape.org/) -->
<svg
   xmlns:dc="http://purl.org/dc/elements/1.1/"
   xmlns:cc="http://web.resource.org/cc/"
   xmlns:rdf="http://www.w3.org/1999/02/22-rdf-syntax-ns#"
   xmlns:svg="http://www.w3.org/2000/svg"
   xmlns="http://www.w3.org/2000/svg"
   xmlns:xlink="http://www.w3.org/1999/xlink"
   xmlns:sodipodi="http://sodipodi.sourceforge.net/DTD/sodipodi-0.dtd"
   xmlns:inkscape="http://www.inkscape.org/namespaces/inkscape"
   version="1.0"
   width="100"
   height="100"
   id="svg2"
   sodipodi:version="0.32"
   inkscape:version="0.45.1"
   sodipodi:docname="measure_distance.svg"
   sodipodi:docbase="/home/tris/src/aten-devel/src/gui-qt/icons"
   inkscape:output_extension="org.inkscape.output.svg.inkscape">
  <metadata
     id="metadata2566">
    <rdf:RDF>
      <cc:Work
         rdf:about="">
        <dc:format>image/svg+xml</dc:format>
        <dc:type
           rdf:resource="http://purl.org/dc/dcmitype/StillImage" />
      </cc:Work>
    </rdf:RDF>
  </metadata>
  <sodipodi:namedview
     inkscape:window-height="714"
     inkscape:window-width="1024"
     inkscape:pageshadow="2"
     inkscape:pageopacity="0.0"
     guidetolerance="10.0"
     gridtolerance="10.0"
     objecttolerance="10.0"
     borderopacity="1.0"
     bordercolor="#666666"
     pagecolor="#ffffff"
     id="base"
     inkscape:zoom="1.7288761"
     inkscape:cx="-12.539237"
     inkscape:cy="-6.6062221"
     inkscape:window-x="0"
     inkscape:window-y="6"
     inkscape:current-layer="svg2" />
  <defs
     id="defs4">
    <radialGradient
       inkscape:collect="always"
       xlink:href="#linearGradient3252"
       id="radialGradient3562"
       gradientUnits="userSpaceOnUse"
       gradientTransform="matrix(0.2134373,0,0,0.2134373,19.805211,5.9610473)"
       cx="58.01162"
       cy="63.345894"
       fx="58.01162"
       fy="63.345894"
       r="33.113495" />
    <linearGradient
       inkscape:collect="always"
       xlink:href="#linearGradient3384"
       id="linearGradient3565"
       gradientUnits="userSpaceOnUse"
       gradientTransform="matrix(0.2688926,0.2688926,-0.2688926,0.2688926,38.227733,-8.4494346)"
       x1="25.398125"
       y1="63.345894"
       x2="90.625114"
       y2="63.345894" />
    <linearGradient
       id="linearGradient3259">
      <stop
         style="stop-color:#f39e43;stop-opacity:1;"
         offset="0"
         id="stop3261" />
      <stop
         style="stop-color:#c4620a;stop-opacity:1;"
         offset="1"
         id="stop3263" />
    </linearGradient>
    <linearGradient
       id="linearGradient6804">
      <stop
         style="stop-color:#f5ffff;stop-opacity:1;"
         offset="0"
         id="stop6806" />
      <stop
         style="stop-color:#edff00;stop-opacity:1;"
         offset="1"
         id="stop6808" />
    </linearGradient>
    <marker
       inkscape:stockid="Arrow1Lend"
       orient="auto"
       refY="0.0"
       refX="0.0"
       id="Arrow1Lend"
       style="overflow:visible;">
      <path
         id="path4646"
         d="M 0.0,0.0 L 5.0,-5.0 L -12.5,0.0 L 5.0,5.0 L 0.0,0.0 z "
         style="fill-rule:evenodd;stroke:#000000;stroke-width:1.0pt;marker-start:none;"
         transform="scale(0.8) rotate(180) translate(12.5,0)" />
    </marker>
    <linearGradient
       id="linearGradient3384">
      <stop
         style="stop-color:#0000ff;stop-opacity:1;"
         offset="0"
         id="stop3386" />
      <stop
         style="stop-color:#000000;stop-opacity:1"
         offset="1"
         id="stop3388" />
    </linearGradient>
    <linearGradient
       id="linearGradient3252">
      <stop
         style="stop-color:#ffffff;stop-opacity:1"
         offset="0"
         id="stop3254" />
      <stop
         style="stop-color:#7f7fff;stop-opacity:0;"
         offset="1"
         id="stop3256" />
    </linearGradient>
    <linearGradient
       id="linearGradient3149">
      <stop
         style="stop-color:#aa4400;stop-opacity:1"
         offset="0"
         id="stop3151" />
      <stop
         style="stop-color:#aa4400;stop-opacity:0.64948452"
         offset="1"
         id="stop3153" />
    </linearGradient>
    <linearGradient
       id="linearGradient3186">
      <stop
         style="stop-color:#aaaaaa;stop-opacity:1"
         offset="0"
         id="stop3188" />
      <stop
         style="stop-color:#fffffd;stop-opacity:0.50196081"
         offset="1"
         id="stop3190" />
    </linearGradient>
    <radialGradient
       cx="58.01162"
       cy="63.345894"
       r="33.113495"
       fx="58.01162"
       fy="63.345894"
       id="radialGradient3260"
       xlink:href="#linearGradient3252"
       gradientUnits="userSpaceOnUse" />
    <linearGradient
       x1="25.398125"
       y1="63.345894"
       x2="90.625114"
       y2="63.345894"
       id="linearGradient3390"
       xlink:href="#linearGradient3384"
       gradientUnits="userSpaceOnUse" />
    <linearGradient
       x1="25.398125"
       y1="63.345894"
       x2="90.625114"
       y2="63.345894"
       id="linearGradient3459"
       xlink:href="#linearGradient3384"
       gradientUnits="userSpaceOnUse" />
    <radialGradient
       cx="58.01162"
       cy="63.345894"
       r="33.113495"
       fx="58.01162"
       fy="63.345894"
       id="radialGradient3461"
       xlink:href="#linearGradient3252"
       gradientUnits="userSpaceOnUse" />
    <linearGradient
       x1="25.398125"
       y1="63.345894"
       x2="90.625114"
       y2="63.345894"
       id="linearGradient3480"
       xlink:href="#linearGradient3384"
       gradientUnits="userSpaceOnUse" />
    <radialGradient
       cx="58.01162"
       cy="63.345894"
       r="33.113495"
       fx="58.01162"
       fy="63.345894"
       id="radialGradient3482"
       xlink:href="#linearGradient3252"
       gradientUnits="userSpaceOnUse" />
    <linearGradient
       x1="25.398125"
       y1="63.345894"
       x2="90.625114"
       y2="63.345894"
       id="linearGradient3490"
       xlink:href="#linearGradient3384"
       gradientUnits="userSpaceOnUse" />
    <radialGradient
       cx="58.01162"
       cy="63.345894"
       r="33.113495"
       fx="58.01162"
       fy="63.345894"
       id="radialGradient3492"
       xlink:href="#linearGradient3252"
       gradientUnits="userSpaceOnUse" />
    <radialGradient
       inkscape:collect="always"
       xlink:href="#linearGradient3252"
       id="radialGradient2667"
       gradientUnits="userSpaceOnUse"
       cx="58.01162"
       cy="63.345894"
       fx="58.01162"
       fy="63.345894"
       r="33.113495"
       gradientTransform="matrix(0.2740521,0,0,0.2740521,28.80419,13.981316)" />
    <linearGradient
       inkscape:collect="always"
       xlink:href="#linearGradient3384"
       id="linearGradient2670"
       gradientUnits="userSpaceOnUse"
       x1="25.398125"
       y1="63.345894"
       x2="90.625114"
       y2="63.345894"
       gradientTransform="matrix(0.3452564,0.3452564,-0.3452564,0.3452564,52.458591,-4.5216519)" />
    <linearGradient
       inkscape:collect="always"
       xlink:href="#linearGradient3384"
       id="linearGradient3664"
       gradientUnits="userSpaceOnUse"
       gradientTransform="matrix(0.3452564,0.3452564,-0.3452564,0.3452564,52.458591,-4.5216519)"
       x1="25.398125"
       y1="63.345894"
       x2="90.625114"
       y2="63.345894" />
    <radialGradient
       inkscape:collect="always"
       xlink:href="#linearGradient3252"
       id="radialGradient3666"
       gradientUnits="userSpaceOnUse"
       gradientTransform="matrix(0.2740521,0,0,0.2740521,28.80419,13.981316)"
       cx="58.01162"
       cy="63.345894"
       fx="58.01162"
       fy="63.345894"
       r="33.113495" />
    <linearGradient
       inkscape:collect="always"
       xlink:href="#linearGradient3384"
       id="linearGradient3676"
       gradientUnits="userSpaceOnUse"
       gradientTransform="matrix(0.3452564,0.3452564,-0.3452564,0.3452564,52.458591,-4.5216519)"
       x1="25.398125"
       y1="63.345894"
       x2="90.625114"
       y2="63.345894" />
    <radialGradient
       inkscape:collect="always"
       xlink:href="#linearGradient3252"
       id="radialGradient3678"
       gradientUnits="userSpaceOnUse"
       gradientTransform="matrix(0.2740521,0,0,0.2740521,28.80419,13.981316)"
       cx="58.01162"
       cy="63.345894"
       fx="58.01162"
       fy="63.345894"
       r="33.113495" />
    <radialGradient
       inkscape:collect="always"
       xlink:href="#linearGradient6804"
       id="radialGradient6812"
       cx="-36.187866"
       cy="-6.907074"
       fx="-36.187866"
       fy="-6.907074"
       r="23.579191"
       gradientTransform="matrix(1,0,0,1.0211021,0,0.1457538)"
       gradientUnits="userSpaceOnUse" />
    <radialGradient
       inkscape:collect="always"
       xlink:href="#linearGradient6804"
       id="radialGradient6822"
       gradientUnits="userSpaceOnUse"
       gradientTransform="matrix(1,0,0,1.0211021,0,0.1457538)"
       cx="-36.187866"
       cy="-6.907074"
       fx="-36.187866"
       fy="-6.907074"
       r="23.579191" />
    <linearGradient
       inkscape:collect="always"
       xlink:href="#linearGradient3384"
       id="linearGradient6832"
       gradientUnits="userSpaceOnUse"
       gradientTransform="matrix(0.2688926,0.2688926,-0.2688926,0.2688926,114.69749,-25.851859)"
       x1="25.398125"
       y1="63.345894"
       x2="90.625114"
       y2="63.345894" />
    <radialGradient
       inkscape:collect="always"
       xlink:href="#linearGradient3252"
       id="radialGradient6834"
       gradientUnits="userSpaceOnUse"
       gradientTransform="matrix(0.2134373,0,0,0.2134373,96.274971,-11.441376)"
       cx="58.01162"
       cy="63.345894"
       fx="58.01162"
       fy="63.345894"
       r="33.113495" />
    <linearGradient
       inkscape:collect="always"
       xlink:href="#linearGradient3259"
       id="linearGradient3265"
       x1="14.450921"
       y1="48.875254"
       x2="101.29551"
       y2="48.875254"
       gradientUnits="userSpaceOnUse"
       gradientTransform="translate(0,9.2545672)" />
    <linearGradient
       inkscape:collect="always"
       xlink:href="#linearGradient3384"
       id="linearGradient3538"
       gradientUnits="userSpaceOnUse"
       gradientTransform="matrix(0.2688926,0.2688926,-0.2688926,0.2688926,38.227733,-8.4494346)"
       x1="25.398125"
       y1="63.345894"
       x2="90.625114"
       y2="63.345894" />
    <radialGradient
       inkscape:collect="always"
       xlink:href="#linearGradient3252"
       id="radialGradient3540"
       gradientUnits="userSpaceOnUse"
       gradientTransform="matrix(0.2134373,0,0,0.2134373,19.805211,5.9610473)"
       cx="58.01162"
       cy="63.345894"
       fx="58.01162"
       fy="63.345894"
       r="33.113495" />
    <linearGradient
       inkscape:collect="always"
       xlink:href="#linearGradient3384"
       id="linearGradient3792"
       gradientUnits="userSpaceOnUse"
       gradientTransform="matrix(0.2688926,0.2688926,-0.2688926,0.2688926,38.227733,-8.4494346)"
       x1="25.398125"
       y1="63.345894"
       x2="90.625114"
       y2="63.345894" />
    <radialGradient
       inkscape:collect="always"
       xlink:href="#linearGradient3252"
       id="radialGradient3794"
       gradientUnits="userSpaceOnUse"
       gradientTransform="matrix(0.2134373,0,0,0.2134373,19.805211,5.9610473)"
       cx="58.01162"
       cy="63.345894"
       fx="58.01162"
       fy="63.345894"
       r="33.113495" />
    <linearGradient
       inkscape:collect="always"
       xlink:href="#linearGradient3384"
       id="linearGradient3796"
       gradientUnits="userSpaceOnUse"
       gradientTransform="matrix(0.2688926,0.2688926,-0.2688926,0.2688926,38.227733,-8.4494346)"
       x1="25.398125"
       y1="63.345894"
       x2="90.625114"
       y2="63.345894" />
    <radialGradient
       inkscape:collect="always"
       xlink:href="#linearGradient3252"
       id="radialGradient3798"
       gradientUnits="userSpaceOnUse"
       gradientTransform="matrix(0.2134373,0,0,0.2134373,19.805211,5.9610473)"
       cx="58.01162"
       cy="63.345894"
       fx="58.01162"
       fy="63.345894"
       r="33.113495" />
    <radialGradient
       inkscape:collect="always"
       xlink:href="#linearGradient3252"
       id="radialGradient3801"
       gradientUnits="userSpaceOnUse"
       gradientTransform="matrix(0.1521617,0,0,0.1521617,52.05363,127.13052)"
       cx="58.01162"
       cy="63.345894"
       fx="58.01162"
       fy="63.345894"
       r="33.113495" />
    <linearGradient
       inkscape:collect="always"
       xlink:href="#linearGradient3384"
       id="linearGradient3804"
       gradientUnits="userSpaceOnUse"
       gradientTransform="matrix(0.1916964,0.1916964,-0.1916964,0.1916964,65.187239,116.85714)"
       x1="25.398125"
       y1="63.345894"
       x2="90.625114"
       y2="63.345894" />
    <radialGradient
       inkscape:collect="always"
       xlink:href="#linearGradient3252"
       id="radialGradient3808"
       gradientUnits="userSpaceOnUse"
       gradientTransform="matrix(0.1521617,0,0,0.1521617,102.23074,126.98654)"
       cx="58.01162"
       cy="63.345894"
       fx="58.01162"
       fy="63.345894"
       r="33.113495" />
    <linearGradient
       inkscape:collect="always"
       xlink:href="#linearGradient3384"
       id="linearGradient3811"
       gradientUnits="userSpaceOnUse"
       gradientTransform="matrix(0.1916964,0.1916964,-0.1916964,0.1916964,115.36435,116.71316)"
       x1="25.398125"
       y1="63.345894"
       x2="90.625114"
       y2="63.345894" />
  </defs>
  <g
     id="g3814"
     transform="translate(-40.899795,-111.24744)">
    <path
       d="M 72.914505,140.15379 C 72.915359,145.03742 68.956633,148.99684 64.072999,148.99684 C 59.189366,148.99684 55.230639,145.03742 55.231494,140.15379 C 55.230639,135.27016 59.189366,131.31074 64.072999,131.31074 C 68.956633,131.31074 72.915359,135.27016 72.914505,140.15379 L 72.914505,140.15379 z "
       style="fill:#e6e6e3;fill-opacity:1;fill-rule:evenodd;stroke:none;stroke-width:0.2710996px;stroke-linecap:butt;stroke-linejoin:miter;stroke-opacity:1"
       id="path3778" />
    <path
       d="M 123.09161,140.00981 C 123.09247,144.89344 119.13374,148.85286 114.25011,148.85286 C 109.36647,148.85286 105.40775,144.89344 105.4086,140.00981 C 105.40775,135.12618 109.36647,131.16676 114.25011,131.16676 C 119.13374,131.16676 123.09247,135.12618 123.09161,140.00981 L 123.09161,140.00981 z "
       style="fill:#e6e6e3;fill-opacity:1;fill-rule:evenodd;stroke:none;stroke-width:0.2710996px;stroke-linecap:butt;stroke-linejoin:miter;stroke-opacity:1"
       id="path3786" />
  </g>
  <path
     style="fill:#dadeda;fill-opacity:1;fill-rule:evenodd;stroke:none;stroke-width:3.22111034;stroke-linecap:round;stroke-linejoin:round;stroke-miterlimit:4;stroke-dashoffset:0;stroke-opacity:1"
     d="M 99.363574,99.82632 L 29.91116,99.82632 L 29.91116,50.967682 L 99.363574,50.967682"
     id="path3292"
     sodipodi:nodetypes="cccc" />
  <path
     style="fill:url(#linearGradient3265);fill-opacity:1;fill-rule:evenodd;stroke:#000000;stroke-width:3.22111034;stroke-linecap:round;stroke-linejoin:round;stroke-miterlimit:4;stroke-dashoffset:0;stroke-opacity:1"
     d="M 99.68495,84.604131 L 16.061476,84.604131 L 16.061476,31.655511 L 99.68495,31.655511"
     id="rect3210"
     sodipodi:nodetypes="cccc" />
  <path
     style="fill:none;fill-rule:evenodd;stroke:#000000;stroke-width:1.5;stroke-linecap:butt;stroke-linejoin:miter;stroke-miterlimit:4;stroke-dasharray:none;stroke-opacity:1"
     d="M 15.746421,31.238207 C 15.746421,48.825119 15.746421,48.825119 15.746421,48.825119"
     id="path3213" />
  <path
     style="fill:none;fill-rule:evenodd;stroke:#000000;stroke-width:1.33981466;stroke-linecap:butt;stroke-linejoin:miter;stroke-miterlimit:4;stroke-dasharray:none;stroke-opacity:1"
     d="M 41.228699,31.158114 C 41.228699,45.145544 41.228699,45.145544 41.228699,45.145544"
     id="path3215" />
  <path
     style="fill:none;fill-rule:evenodd;stroke:#000000;stroke-width:1.33981466;stroke-linecap:butt;stroke-linejoin:miter;stroke-miterlimit:4;stroke-dasharray:none;stroke-opacity:1"
     d="M 66.871159,31.158114 C 66.871159,45.145544 66.871159,45.145544 66.871159,45.145544"
     id="path3217" />
  <path
     style="fill:none;fill-rule:evenodd;stroke:#000000;stroke-width:1.33981466;stroke-linecap:butt;stroke-linejoin:miter;stroke-miterlimit:4;stroke-dasharray:none;stroke-opacity:1"
     d="M 92.513628,31.158114 C 92.513628,45.145544 92.513628,45.145544 92.513628,45.145544"
     id="path3219" />
  <path
     style="fill:none;fill-rule:evenodd;stroke:#000000;stroke-width:1.1446898;stroke-linecap:butt;stroke-linejoin:miter;stroke-miterlimit:4;stroke-dasharray:none;stroke-opacity:1"
     d="M 28.34995,31.060552 C 28.34995,41.231813 28.34995,41.231813 28.34995,41.231813"
     id="path3221" />
  <path
     style="fill:none;fill-rule:evenodd;stroke:#000000;stroke-width:1.1446898;stroke-linecap:butt;stroke-linejoin:miter;stroke-miterlimit:4;stroke-dasharray:none;stroke-opacity:1"
     d="M 54.089975,31.060552 C 54.089975,41.231813 54.089975,41.231813 54.089975,41.231813"
     id="path3223" />
  <path
     style="fill:none;fill-rule:evenodd;stroke:#000000;stroke-width:1.1446898;stroke-linecap:butt;stroke-linejoin:miter;stroke-miterlimit:4;stroke-dasharray:none;stroke-opacity:1"
     d="M 79.829998,31.060552 C 79.829998,41.231813 79.829998,41.231813 79.829998,41.231813"
     id="path3225" />
  <path
     style="fill:none;fill-rule:evenodd;stroke:#000000;stroke-width:1.54584134;stroke-linecap:butt;stroke-linejoin:miter;stroke-miterlimit:4;stroke-dasharray:none;stroke-opacity:1"
     d="M 61.091037,74.174793 C 61.091037,84.830304 61.091037,84.830304 61.091037,84.830304"
     id="path3231" />
  <path
     style="fill:none;fill-rule:evenodd;stroke:#000000;stroke-width:1.54584134;stroke-linecap:butt;stroke-linejoin:miter;stroke-miterlimit:4;stroke-dasharray:none;stroke-opacity:1"
     d="M 38.686613,74.174793 C 38.686613,84.830304 38.686613,84.830304 38.686613,84.830304"
     id="path3237" />
  <path
     style="fill:none;fill-rule:evenodd;stroke:#000000;stroke-width:1.77636969;stroke-linecap:butt;stroke-linejoin:miter;stroke-miterlimit:4;stroke-dasharray:none;stroke-opacity:1"
     d="M 83.064889,70.597868 C 83.064889,84.804934 83.064889,84.804934 83.064889,84.804934"
     id="path3239" />
  <path
     style="font-size:12px;font-style:normal;font-weight:normal;fill:#000000;fill-opacity:1;stroke:none;stroke-width:1px;stroke-linecap:butt;stroke-linejoin:miter;stroke-opacity:1;font-family:Bitstream Vera Sans"
     d="M 21.998434,60.125568 L 21.998434,60.670082 C 21.797925,60.568738 21.608752,60.493188 21.430914,60.443432 C 21.253071,60.393683 21.081333,60.368806 20.915699,60.368802 C 20.628014,60.368806 20.405714,60.427772 20.248797,60.545701 C 20.093622,60.663636 20.016034,60.831321 20.016035,61.048755 C 20.016034,61.231183 20.067468,61.369385 20.170338,61.46336 C 20.274949,61.555497 20.471968,61.630125 20.761396,61.687246 L 21.080463,61.756347 C 21.4745,61.835585 21.764798,61.975629 21.951359,62.17648 C 22.139658,62.375492 22.233809,62.642682 22.233812,62.978049 C 22.233809,63.377913 22.106531,63.681035 21.851978,63.887416 C 21.599162,64.093797 21.22779,64.196988 20.737858,64.196988 C 20.553043,64.196988 20.356023,64.174875 20.1468,64.130651 C 19.939319,64.086426 19.723993,64.021011 19.500821,63.934404 L 19.500821,63.359486 C 19.715275,63.486632 19.92537,63.582452 20.131108,63.646945 C 20.336844,63.71144 20.539094,63.743687 20.737858,63.743686 C 21.039488,63.743687 21.27225,63.681035 21.436144,63.555732 C 21.600034,63.43043 21.68198,63.251689 21.681983,63.01951 C 21.68198,62.816815 21.6227,62.658344 21.504142,62.544096 C 21.387323,62.429851 21.194663,62.344166 20.92616,62.287041 L 20.604478,62.220705 C 20.210438,62.137786 19.92537,62.007876 19.749274,61.830976 C 19.573177,61.65408 19.485128,61.408082 19.485129,61.092979 C 19.485128,60.72813 19.606304,60.440671 19.848656,60.230601 C 20.09275,60.020539 20.42838,59.915506 20.855547,59.915501 C 21.038616,59.915506 21.225174,59.933011 21.415222,59.968018 C 21.605265,60.003033 21.799669,60.055549 21.998434,60.125568 M 23.502234,63.652473 L 23.502234,65.294309 L 23.018402,65.294309 L 23.018402,61.021114 L 23.502234,61.021114 L 23.502234,61.491 C 23.603358,61.306734 23.730635,61.170375 23.884067,61.081923 C 24.039241,60.991635 24.224055,60.946488 24.438512,60.946486 C 24.794191,60.946488 25.082746,61.095746 25.304177,61.394259 C 25.527346,61.692777 25.638933,62.085269 25.638936,62.571736 C 25.638933,63.058208 25.527346,63.4507 25.304177,63.749214 C 25.082746,64.04773 24.794191,64.196988 24.438512,64.196988 C 24.224055,64.196988 24.039241,64.152763 23.884067,64.064314 C 23.730635,63.974023 23.603358,63.836742 23.502234,63.652473 M 25.139413,62.571736 C 25.139411,62.197673 25.066182,61.904685 24.919728,61.692774 C 24.775012,61.479025 24.575377,61.372149 24.320823,61.372147 C 24.066265,61.372149 23.865759,61.479025 23.719304,61.692774 C 23.574589,61.904685 23.502232,62.197673 23.502234,62.571736 C 23.502232,62.945803 23.574589,63.239712 23.719304,63.453463 C 23.865759,63.665373 24.066265,63.771327 24.320823,63.771327 C 24.575377,63.771327 24.775012,63.665373 24.919728,63.453463 C 25.066182,63.239712 25.139411,62.945803 25.139413,62.571736 M 26.436603,59.815996 L 26.917819,59.815996 L 26.917819,64.116831 L 26.436603,64.116831 L 26.436603,59.815996 M 29.253284,62.560681 C 28.864474,62.560682 28.595098,62.60767 28.445155,62.701646 C 28.295211,62.795624 28.220238,62.955938 28.220239,63.182588 C 28.220238,63.363172 28.276032,63.506901 28.387619,63.613777 C 28.500947,63.718811 28.654379,63.771327 28.847912,63.771327 C 29.114671,63.771327 29.328254,63.671822 29.488661,63.472811 C 29.650808,63.271959 29.731882,63.005691 29.731884,62.674006 L 29.731884,62.560681 L 29.253284,62.560681 M 30.2131,62.350614 L 30.2131,64.116831 L 29.731884,64.116831 L 29.731884,63.646945 C 29.622039,63.8349 29.485172,63.974023 29.321282,64.064314 C 29.157388,64.152763 28.956881,64.196988 28.719762,64.196988 C 28.419873,64.196988 28.181009,64.108539 28.003169,63.931641 C 27.827072,63.7529 27.739023,63.514272 27.739024,63.215756 C 27.739023,62.867489 27.848866,62.604906 28.068552,62.428007 C 28.28998,62.251111 28.619508,62.162662 29.057136,62.16266 L 29.731884,62.16266 L 29.731884,62.112907 C 29.731882,61.878888 29.658653,61.698305 29.512199,61.571157 C 29.367483,61.442171 29.16349,61.377677 28.900218,61.377674 C 28.732838,61.377677 28.569817,61.398868 28.411157,61.441247 C 28.252494,61.483632 28.099935,61.547205 27.953479,61.631966 L 27.953479,61.16208 C 28.129575,61.090218 28.300441,61.03678 28.466078,61.001766 C 28.631712,60.964916 28.792989,60.946488 28.949909,60.946486 C 29.373586,60.946488 29.690037,61.062578 29.899264,61.294754 C 30.108485,61.526935 30.213097,61.878888 30.2131,62.350614 M 31.6829,60.142152 L 31.6829,61.021114 L 32.6741,61.021114 L 32.6741,61.416371 L 31.6829,61.416371 L 31.6829,63.096903 C 31.682899,63.349352 31.715154,63.511508 31.779666,63.583373 C 31.845919,63.655238 31.9793,63.69117 32.179808,63.69117 L 32.6741,63.69117 L 32.6741,64.116831 L 32.179808,64.116831 C 31.808433,64.116831 31.552134,64.044044 31.410909,63.898472 C 31.269682,63.751057 31.199069,63.483868 31.199069,63.096903 L 31.199069,61.416371 L 30.846003,61.416371 L 30.846003,61.021114 L 31.199069,61.021114 L 31.199069,60.142152 L 31.6829,60.142152 M 33.785603,60.142152 L 33.785603,61.021114 L 34.776803,61.021114 L 34.776803,61.416371 L 33.785603,61.416371 L 33.785603,63.096903 C 33.785602,63.349352 33.817858,63.511508 33.88237,63.583373 C 33.948623,63.655238 34.082003,63.69117 34.282511,63.69117 L 34.776803,63.69117 L 34.776803,64.116831 L 34.282511,64.116831 C 33.911137,64.116831 33.654837,64.044044 33.513612,63.898472 C 33.372385,63.751057 33.301772,63.483868 33.301772,63.096903 L 33.301772,61.416371 L 32.948707,61.416371 L 32.948707,61.021114 L 33.301772,61.021114 L 33.301772,60.142152 L 33.785603,60.142152 M 37.917782,62.441827 L 37.917782,62.69059 L 35.705235,62.69059 C 35.726157,63.040702 35.825538,63.307891 36.00338,63.492159 C 36.182963,63.674586 36.432288,63.765799 36.751357,63.765798 C 36.936169,63.765799 37.114881,63.741844 37.287494,63.693934 C 37.461845,63.646024 37.634454,63.574159 37.805323,63.478339 L 37.805323,63.959281 C 37.632711,64.036674 37.455742,64.09564 37.274417,64.136179 C 37.093087,64.176718 36.909144,64.196988 36.722588,64.196988 C 36.255319,64.196988 35.884819,64.053258 35.611085,63.765798 C 35.339093,63.47834 35.203097,63.089533 35.203097,62.599377 C 35.203097,62.09264 35.332119,61.690934 35.590162,61.394259 C 35.849948,61.095746 36.199526,60.946488 36.638899,60.946486 C 37.032935,60.946488 37.344156,61.081005 37.572562,61.350034 C 37.802705,61.617226 37.917778,61.981157 37.917782,62.441827 M 37.436566,62.292569 C 37.433076,62.014325 37.358976,61.792282 37.214265,61.626437 C 37.071293,61.460598 36.881248,61.377677 36.644129,61.377674 C 36.375623,61.377677 36.160297,61.457834 35.998149,61.618145 C 35.837743,61.778462 35.745336,62.004191 35.720927,62.295333 L 37.436566,62.292569 M 40.404934,61.496528 C 40.350883,61.463362 40.291602,61.439407 40.227094,61.424663 C 40.164324,61.408082 40.094583,61.399789 40.01787,61.399787 C 39.745876,61.399789 39.536652,61.493767 39.390197,61.681718 C 39.245482,61.867832 39.173126,62.135943 39.173127,62.486052 L 39.173127,64.116831 L 38.689296,64.116831 L 38.689296,61.021114 L 39.173127,61.021114 L 39.173127,61.502056 C 39.274251,61.314105 39.405887,61.174982 39.568037,61.084687 C 39.730185,60.992556 39.927204,60.946488 40.159096,60.946486 C 40.192221,60.946488 40.228835,60.949253 40.268939,60.954778 C 40.309038,60.958466 40.353498,60.964916 40.402319,60.974126 L 40.404934,61.496528 M 41.380442,63.652473 L 41.380442,65.294309 L 40.896611,65.294309 L 40.896611,61.021114 L 41.380442,61.021114 L 41.380442,61.491 C 41.481566,61.306734 41.608844,61.170375 41.762276,61.081923 C 41.91745,60.991635 42.102264,60.946488 42.31672,60.946486 C 42.672399,60.946488 42.960954,61.095746 43.182386,61.394259 C 43.405555,61.692777 43.517141,62.085269 43.517145,62.571736 C 43.517141,63.058208 43.405555,63.4507 43.182386,63.749214 C 42.960954,64.04773 42.672399,64.196988 42.31672,64.196988 C 42.102264,64.196988 41.91745,64.152763 41.762276,64.064314 C 41.608844,63.974023 41.481566,63.836742 41.380442,63.652473 M 43.017622,62.571736 C 43.017619,62.197673 42.944391,61.904685 42.797936,61.692774 C 42.653221,61.479025 42.453586,61.372149 42.199032,61.372147 C 41.944474,61.372149 41.743968,61.479025 41.597512,61.692774 C 41.452798,61.904685 41.380441,62.197673 41.380442,62.571736 C 41.380441,62.945803 41.452798,63.239712 41.597512,63.453463 C 41.743968,63.665373 41.944474,63.771327 42.199032,63.771327 C 42.453586,63.771327 42.653221,63.665373 42.797936,63.453463 C 42.944391,63.239712 43.017619,62.945803 43.017622,62.571736 M 46.012143,61.496528 C 45.958091,61.463362 45.898811,61.439407 45.834303,61.424663 C 45.771533,61.408082 45.701792,61.399789 45.625078,61.399787 C 45.353085,61.399789 45.143861,61.493767 44.997406,61.681718 C 44.852691,61.867832 44.780334,62.135943 44.780336,62.486052 L 44.780336,64.116831 L 44.296504,64.116831 L 44.296504,61.021114 L 44.780336,61.021114 L 44.780336,61.502056 C 44.88146,61.314105 45.013096,61.174982 45.175246,61.084687 C 45.337393,60.992556 45.534413,60.946488 45.766305,60.946486 C 45.79943,60.946488 45.836044,60.949253 45.876147,60.954778 C 45.916247,60.958466 45.960707,60.964916 46.009528,60.974126 L 46.012143,61.496528 M 47.53948,61.377674 C 47.281435,61.377677 47.077442,61.484553 46.927499,61.698302 C 46.777554,61.910214 46.702582,62.201358 46.702583,62.571736 C 46.702582,62.942118 46.776682,63.234184 46.924884,63.447935 C 47.074827,63.659845 47.279692,63.765799 47.53948,63.765798 C 47.795778,63.765799 47.998899,63.658923 48.148845,63.445171 C 48.298787,63.23142 48.373758,62.940275 48.373761,62.571736 C 48.373758,62.205044 48.298787,61.91482 48.148845,61.701066 C 47.998899,61.485474 47.795778,61.377677 47.53948,61.377674 M 47.53948,60.946486 C 47.957926,60.946488 48.286582,61.090218 48.525449,61.377674 C 48.76431,61.665136 48.883742,62.063157 48.883745,62.571736 C 48.883742,63.078477 48.76431,63.476497 48.525449,63.765798 C 48.286582,64.053258 47.957926,64.196988 47.53948,64.196988 C 47.119287,64.196988 46.789759,64.053258 46.550896,63.765798 C 46.313774,63.476497 46.195214,63.078477 46.195214,62.571736 C 46.195214,62.063157 46.313774,61.665136 46.550896,61.377674 C 46.789759,61.090218 47.119287,60.946488 47.53948,60.946486 M 50.813838,61.377674 C 50.555794,61.377677 50.3518,61.484553 50.201858,61.698302 C 50.051913,61.910214 49.976941,62.201358 49.976942,62.571736 C 49.976941,62.942118 50.051041,63.234184 50.199242,63.447935 C 50.349185,63.659845 50.55405,63.765799 50.813838,63.765798 C 51.070136,63.765799 51.273258,63.658923 51.423204,63.445171 C 51.573145,63.23142 51.648117,62.940275 51.64812,62.571736 C 51.648117,62.205044 51.573145,61.91482 51.423204,61.701066 C 51.273258,61.485474 51.070136,61.377677 50.813838,61.377674 M 50.813838,60.946486 C 51.232285,60.946488 51.560941,61.090218 51.799807,61.377674 C 52.038669,61.665136 52.158101,62.063157 52.158104,62.571736 C 52.158101,63.078477 52.038669,63.476497 51.799807,63.765798 C 51.560941,64.053258 51.232285,64.196988 50.813838,64.196988 C 50.393645,64.196988 50.064117,64.053258 49.825254,63.765798 C 49.588133,63.476497 49.469572,63.078477 49.469573,62.571736 C 49.469572,62.063157 49.588133,61.665136 49.825254,61.377674 C 50.064117,61.090218 50.393645,60.946488 50.813838,60.946486 M 54.436032,59.815996 L 54.436032,60.238893 L 53.975739,60.238893 C 53.803128,60.238897 53.682824,60.275751 53.614827,60.349455 C 53.548572,60.423166 53.515445,60.555839 53.515446,60.747475 L 53.515446,61.021114 L 54.307883,61.021114 L 54.307883,61.416371 L 53.515446,61.416371 L 53.515446,64.116831 L 53.031615,64.116831 L 53.031615,61.416371 L 52.571322,61.416371 L 52.571322,61.021114 L 53.031615,61.021114 L 53.031615,60.80552 C 53.031614,60.460941 53.107458,60.210335 53.259146,60.053703 C 53.410833,59.895236 53.651441,59.816 53.98097,59.815996 L 54.436032,59.815996"
     id="text3267" />
  <path
     style="font-size:12px;font-style:normal;font-weight:normal;fill:#000000;fill-opacity:1;stroke:none;stroke-width:1px;stroke-linecap:butt;stroke-linejoin:miter;stroke-opacity:1;font-family:Bitstream Vera Sans"
     d="M 39.084965,54.755505 L 41.018559,54.755505 L 41.018559,48.081677 L 38.915043,48.503552 L 38.915043,47.425427 L 41.00684,47.003552 L 42.190434,47.003552 L 42.190434,54.755505 L 44.124027,54.755505 L 44.124027,55.751599 L 39.084965,55.751599 L 39.084965,54.755505"
     id="text3272" />
  <path
     style="font-size:12px;font-style:normal;font-weight:normal;fill:#000000;fill-opacity:1;stroke:none;stroke-width:1px;stroke-linecap:butt;stroke-linejoin:miter;stroke-opacity:1;font-family:Bitstream Vera Sans"
     d="M 93.655144,50.745599 C 94.221545,50.866697 94.66295,51.11865 94.979362,51.501458 C 95.299668,51.884274 95.459825,52.35693 95.459831,52.919427 C 95.459825,53.78271 95.16295,54.450678 94.569206,54.923333 C 93.975451,55.395989 93.131702,55.632317 92.037956,55.632317 C 91.670766,55.632317 91.29186,55.595208 90.901237,55.520989 C 90.514517,55.450677 90.114127,55.343255 89.700066,55.198724 L 89.700066,54.056146 C 90.028189,54.247553 90.387564,54.392084 90.778191,54.489739 C 91.168813,54.587396 91.577016,54.636224 92.0028,54.636224 C 92.744984,54.636224 93.309436,54.48974 93.696159,54.196771 C 94.086779,53.903803 94.282091,53.478023 94.282097,52.919427 C 94.282091,52.403805 94.100451,52.001461 93.737175,51.712396 C 93.377795,51.419431 92.875843,51.272947 92.231316,51.272942 L 91.211784,51.272942 L 91.211784,50.300286 L 92.278191,50.300286 C 92.860218,50.300291 93.30553,50.185057 93.614128,49.954583 C 93.922717,49.720214 94.077013,49.384277 94.077019,48.946771 C 94.077013,48.497559 93.916857,48.153809 93.59655,47.915521 C 93.280139,47.673341 92.825062,47.552247 92.231316,47.552239 C 91.907094,47.552247 91.559438,47.587403 91.188347,47.657708 C 90.817251,47.728028 90.409048,47.837403 89.963737,47.985833 L 89.963737,46.931146 C 90.412955,46.806154 90.832876,46.712404 91.223503,46.649896 C 91.618032,46.587404 91.989125,46.556154 92.336784,46.556146 C 93.235217,46.556154 93.946154,46.761232 94.469597,47.17138 C 94.993028,47.577638 95.254747,48.128418 95.254753,48.823724 C 95.254747,49.308105 95.116075,49.718261 94.838737,50.054192 C 94.561388,50.386229 94.166857,50.616697 93.655144,50.745599"
     id="text3276" />
  <path
     style="font-size:12px;font-style:normal;font-weight:normal;fill:#000000;fill-opacity:1;stroke:none;stroke-width:1px;stroke-linecap:butt;stroke-linejoin:miter;stroke-opacity:1;font-family:Bitstream Vera Sans"
     d="M 65.638676,54.755505 L 69.769535,54.755505 L 69.769535,55.751599 L 64.214848,55.751599 L 64.214848,54.755505 C 64.664065,54.290663 65.275393,53.667617 66.048832,52.886365 C 66.826172,52.101212 67.314453,51.595353 67.513676,51.368787 C 67.892577,50.94301 68.156249,50.583636 68.304691,50.290662 C 68.45703,49.993792 68.533202,49.702777 68.533207,49.417615 C 68.533202,48.952778 68.369139,48.573872 68.041019,48.280896 C 67.716796,47.987935 67.292969,47.841451 66.769535,47.841443 C 66.398438,47.841451 66.005861,47.905904 65.591801,48.034802 C 65.181643,48.163716 64.74219,48.359028 64.273441,48.62074 L 64.273441,47.425427 C 64.750002,47.23403 65.195314,47.089498 65.609379,46.991834 C 66.023439,46.894186 66.402344,46.845358 66.746098,46.845349 C 67.652343,46.845358 68.374999,47.07192 68.914066,47.525037 C 69.453123,47.978169 69.722654,48.583638 69.72266,49.341443 C 69.722654,49.700824 69.654294,50.04262 69.517582,50.366834 C 69.384763,50.687151 69.140623,51.066057 68.78516,51.503552 C 68.687498,51.616838 68.376952,51.944962 67.853519,52.487927 C 67.330078,53.026993 66.591797,53.782851 65.638676,54.755505"
     id="text3280" />
  <path
     style="font-size:12px;font-style:normal;font-weight:normal;fill:#000000;fill-opacity:1;stroke:none;stroke-width:1px;stroke-linecap:butt;stroke-linejoin:miter;stroke-opacity:1;font-family:Bitstream Vera Sans"
     d="M 81.308922,68.348149 L 83.242516,68.348149 L 83.242516,61.674321 L 81.139,62.096196 L 81.139,61.018071 L 83.230797,60.596196 L 84.414391,60.596196 L 84.414391,68.348149 L 86.347984,68.348149 L 86.347984,69.344243 L 81.308922,69.344243 L 81.308922,68.348149"
     id="text3284" />
  <g
     id="g3519"
     transform="matrix(0.7129105,0,0,0.7129105,-9.7986182,3.3395818)">
    <path
       d="M 49.066773,24.22879 C 49.067972,31.079065 43.515064,36.632947 36.664788,36.632947 C 29.814513,36.632947 24.261604,31.079065 24.262803,24.22879 C 24.261604,17.378514 29.814513,11.824633 36.664788,11.824633 C 43.515064,11.824633 49.067972,17.378514 49.066773,24.22879 L 49.066773,24.22879 z "
       style="fill:#0000ff;fill-opacity:1;fill-rule:evenodd;stroke:#000000;stroke-width:0.38027155px;stroke-linecap:butt;stroke-linejoin:miter;stroke-opacity:1"
       id="path3474" />
    <path
       d="M 45.562914,32.95223 C 40.719885,37.796953 32.866199,37.797641 28.022324,32.953766 C 23.178446,28.109889 23.179135,20.256203 28.023859,15.413176 C 32.866887,10.568451 40.720573,10.567763 45.56445,15.411639 C 50.408325,20.255515 50.407637,28.109202 45.562914,32.95223 L 45.562914,32.95223 z "
       style="opacity:0.71739131;fill:url(#linearGradient3565);fill-opacity:1;fill-rule:evenodd;stroke:none;stroke-width:1px;stroke-linecap:butt;stroke-linejoin:miter;stroke-opacity:1"
       id="path3476" />
    <path
       d="M 39.147988,19.481422 C 39.148661,23.326315 36.031948,26.443576 32.187053,26.443576 C 28.342159,26.443576 25.225445,23.326315 25.226118,19.481422 C 25.225445,15.636527 28.342159,12.519268 32.187053,12.519268 C 36.031948,12.519268 39.148661,15.636527 39.147988,19.481422 L 39.147988,19.481422 z "
       style="fill:url(#radialGradient3562);fill-opacity:1;fill-rule:evenodd;stroke:none;stroke-width:1px;stroke-linecap:butt;stroke-linejoin:miter;stroke-opacity:1"
       id="path3478" />
  </g>
  <g
     id="g3530"
     transform="matrix(0.7129105,0,0,0.7129105,40.37849,3.1956034)">
    <path
       d="M 49.066773,24.22879 C 49.067972,31.079065 43.515064,36.632947 36.664788,36.632947 C 29.814513,36.632947 24.261604,31.079065 24.262803,24.22879 C 24.261604,17.378514 29.814513,11.824633 36.664788,11.824633 C 43.515064,11.824633 49.067972,17.378514 49.066773,24.22879 L 49.066773,24.22879 z "
       style="fill:#0000ff;fill-opacity:1;fill-rule:evenodd;stroke:#000000;stroke-width:0.38027155px;stroke-linecap:butt;stroke-linejoin:miter;stroke-opacity:1"
       id="path3532" />
    <path
       d="M 45.562914,32.95223 C 40.719885,37.796953 32.866199,37.797641 28.022324,32.953766 C 23.178446,28.109889 23.179135,20.256203 28.023859,15.413176 C 32.866887,10.568451 40.720573,10.567763 45.56445,15.411639 C 50.408325,20.255515 50.407637,28.109202 45.562914,32.95223 L 45.562914,32.95223 z "
       style="opacity:0.71739131;fill:url(#linearGradient3538);fill-opacity:1;fill-rule:evenodd;stroke:none;stroke-width:1px;stroke-linecap:butt;stroke-linejoin:miter;stroke-opacity:1"
       id="path3534" />
    <path
       d="M 39.147988,19.481422 C 39.148661,23.326315 36.031948,26.443576 32.187053,26.443576 C 28.342159,26.443576 25.225445,23.326315 25.226118,19.481422 C 25.225445,15.636527 28.342159,12.519268 32.187053,12.519268 C 36.031948,12.519268 39.148661,15.636527 39.147988,19.481422 L 39.147988,19.481422 z "
       style="fill:url(#radialGradient3540);fill-opacity:1;fill-rule:evenodd;stroke:none;stroke-width:1px;stroke-linecap:butt;stroke-linejoin:miter;stroke-opacity:1"
       id="path3536" />
  </g>
  <path
     style="fill:none;fill-rule:evenodd;stroke:#000000;stroke-width:3;stroke-linecap:round;stroke-linejoin:miter;stroke-miterlimit:4;stroke-dasharray:6, 3;stroke-dashoffset:0;stroke-opacity:1"
     d="M 26.606881,20.179358 C 56.395019,20.179358 56.105814,20.179358 56.105814,20.179358"
     id="path3774" />
</svg>
