<?xml version="1.0" encoding="UTF-8" standalone="no"?>
<!-- Created with Inkscape (http://www.inkscape.org/) -->
<svg
   xmlns:dc="http://purl.org/dc/elements/1.1/"
   xmlns:cc="http://web.resource.org/cc/"
   xmlns:rdf="http://www.w3.org/1999/02/22-rdf-syntax-ns#"
   xmlns:svg="http://www.w3.org/2000/svg"
   xmlns="http://www.w3.org/2000/svg"
   xmlns:xlink="http://www.w3.org/1999/xlink"
   xmlns:sodipodi="http://sodipodi.sourceforge.net/DTD/sodipodi-0.dtd"
   xmlns:inkscape="http://www.inkscape.org/namespaces/inkscape"
   version="1.0"
   width="100"
   height="100"
   id="svg2"
   sodipodi:version="0.32"
   inkscape:version="0.45.1"
   sodipodi:docname="measure_distance.svg"
   sodipodi:docbase="/home/tris/src/aten/src/gui-qt/icons"
   inkscape:output_extension="org.inkscape.output.svg.inkscape">
  <metadata
     id="metadata2566">
    <rdf:RDF>
      <cc:Work
         rdf:about="">
        <dc:format>image/svg+xml</dc:format>
        <dc:type
           rdf:resource="http://purl.org/dc/dcmitype/StillImage" />
      </cc:Work>
    </rdf:RDF>
  </metadata>
  <sodipodi:namedview
     inkscape:window-height="714"
     inkscape:window-width="1024"
     inkscape:pageshadow="2"
     inkscape:pageopacity="0.0"
     guidetolerance="10.0"
     gridtolerance="10.0"
     objecttolerance="10.0"
     borderopacity="1.0"
     bordercolor="#666666"
     pagecolor="#ffffff"
     id="base"
     inkscape:zoom="6.9155044"
     inkscape:cx="52.86829"
     inkscape:cy="62.193773"
     inkscape:window-x="5"
     inkscape:window-y="52"
     inkscape:current-layer="svg2" />
  <defs
     id="defs4">
    <radialGradient
       inkscape:collect="always"
       xlink:href="#linearGradient3252"
       id="radialGradient3562"
       gradientUnits="userSpaceOnUse"
       gradientTransform="matrix(0.2134373,0,0,0.2134373,19.805211,5.9610473)"
       cx="58.01162"
       cy="63.345894"
       fx="58.01162"
       fy="63.345894"
       r="33.113495" />
    <linearGradient
       inkscape:collect="always"
       xlink:href="#linearGradient3384"
       id="linearGradient3565"
       gradientUnits="userSpaceOnUse"
       gradientTransform="matrix(0.2688926,0.2688926,-0.2688926,0.2688926,38.227733,-8.4494346)"
       x1="25.398125"
       y1="63.345894"
       x2="90.625114"
       y2="63.345894" />
    <linearGradient
       id="linearGradient3259">
      <stop
         style="stop-color:#f39e43;stop-opacity:1;"
         offset="0"
         id="stop3261" />
      <stop
         style="stop-color:#c4620a;stop-opacity:1;"
         offset="1"
         id="stop3263" />
    </linearGradient>
    <linearGradient
       id="linearGradient3384">
      <stop
         style="stop-color:#0000ff;stop-opacity:1;"
         offset="0"
         id="stop3386" />
      <stop
         style="stop-color:#000000;stop-opacity:1"
         offset="1"
         id="stop3388" />
    </linearGradient>
    <linearGradient
       id="linearGradient3252">
      <stop
         style="stop-color:#ffffff;stop-opacity:1"
         offset="0"
         id="stop3254" />
      <stop
         style="stop-color:#7f7fff;stop-opacity:0;"
         offset="1"
         id="stop3256" />
    </linearGradient>
    <linearGradient
       inkscape:collect="always"
       xlink:href="#linearGradient3259"
       id="linearGradient3265"
       x1="14.450921"
       y1="48.875254"
       x2="101.29551"
       y2="48.875254"
       gradientUnits="userSpaceOnUse"
       gradientTransform="translate(0,9.2545672)" />
    <linearGradient
       inkscape:collect="always"
       xlink:href="#linearGradient3384"
       id="linearGradient3538"
       gradientUnits="userSpaceOnUse"
       gradientTransform="matrix(0.2688926,0.2688926,-0.2688926,0.2688926,38.227733,-8.4494346)"
       x1="25.398125"
       y1="63.345894"
       x2="90.625114"
       y2="63.345894" />
    <radialGradient
       inkscape:collect="always"
       xlink:href="#linearGradient3252"
       id="radialGradient3540"
       gradientUnits="userSpaceOnUse"
       gradientTransform="matrix(0.2134373,0,0,0.2134373,19.805211,5.9610473)"
       cx="58.01162"
       cy="63.345894"
       fx="58.01162"
       fy="63.345894"
       r="33.113495" />
  </defs>
  <use
     x="0"
     y="0"
     xlink:href="#path3778"
     id="use2489"
     transform="translate(49.020286,-0.7230131)"
     width="100"
     height="100" />
  <use
     x="0"
     y="0"
     xlink:href="#g3519"
     id="use2485"
     transform="translate(50.177106,-0.1446026)"
     width="100"
     height="100" />
  <path
     id="path3778"
     style="fill:#e6e6e3;fill-opacity:1;fill-rule:evenodd;stroke:none;stroke-width:0.2710996px;stroke-linecap:butt;stroke-linejoin:miter;stroke-opacity:1"
     d="M 32.01471,28.90635 C 32.015564,33.78998 28.056838,37.7494 23.173204,37.7494 C 18.289571,37.7494 14.330844,33.78998 14.331699,28.90635 C 14.330844,24.02272 18.289571,20.0633 23.173204,20.0633 C 28.056838,20.0633 32.015564,24.02272 32.01471,28.90635 L 32.01471,28.90635 z " />
  <path
     style="fill:#dadeda;fill-opacity:1;fill-rule:evenodd;stroke:none;stroke-width:3.22111034;stroke-linecap:round;stroke-linejoin:round;stroke-miterlimit:4;stroke-dashoffset:0;stroke-opacity:1"
     d="M 99.363574,99.82632 L 29.91116,99.82632 L 29.91116,50.967682 L 99.363574,50.967682"
     id="path3292"
     sodipodi:nodetypes="cccc" />
  <path
     style="fill:url(#linearGradient3265);fill-opacity:1;fill-rule:evenodd;stroke:#000000;stroke-width:3.22111034;stroke-linecap:round;stroke-linejoin:round;stroke-miterlimit:4;stroke-dashoffset:0;stroke-opacity:1"
     d="M 99.68495,84.604131 L 16.061476,84.604131 L 16.061476,31.655511 L 99.68495,31.655511"
     id="rect3210"
     sodipodi:nodetypes="cccc" />
  <path
     style="fill:none;fill-rule:evenodd;stroke:#000000;stroke-width:1.5;stroke-linecap:butt;stroke-linejoin:miter;stroke-miterlimit:4;stroke-dasharray:none;stroke-opacity:1"
     d="M 15.746421,31.238207 C 15.746421,48.825119 15.746421,48.825119 15.746421,48.825119"
     id="path3213" />
  <path
     style="fill:none;fill-rule:evenodd;stroke:#000000;stroke-width:1.33981466;stroke-linecap:butt;stroke-linejoin:miter;stroke-miterlimit:4;stroke-dasharray:none;stroke-opacity:1"
     d="M 41.228699,31.158114 C 41.228699,45.145544 41.228699,45.145544 41.228699,45.145544"
     id="path3215" />
  <path
     style="fill:none;fill-rule:evenodd;stroke:#000000;stroke-width:1.33981466;stroke-linecap:butt;stroke-linejoin:miter;stroke-miterlimit:4;stroke-dasharray:none;stroke-opacity:1"
     d="M 66.871159,31.158114 C 66.871159,45.145544 66.871159,45.145544 66.871159,45.145544"
     id="path3217" />
  <path
     style="fill:none;fill-rule:evenodd;stroke:#000000;stroke-width:1.33981466;stroke-linecap:butt;stroke-linejoin:miter;stroke-miterlimit:4;stroke-dasharray:none;stroke-opacity:1"
     d="M 92.513628,31.158114 C 92.513628,45.145544 92.513628,45.145544 92.513628,45.145544"
     id="path3219" />
  <path
     style="fill:none;fill-rule:evenodd;stroke:#000000;stroke-width:1.1446898;stroke-linecap:butt;stroke-linejoin:miter;stroke-miterlimit:4;stroke-dasharray:none;stroke-opacity:1"
     d="M 28.34995,31.060552 C 28.34995,41.231813 28.34995,41.231813 28.34995,41.231813"
     id="path3221" />
  <path
     style="fill:none;fill-rule:evenodd;stroke:#000000;stroke-width:1.1446898;stroke-linecap:butt;stroke-linejoin:miter;stroke-miterlimit:4;stroke-dasharray:none;stroke-opacity:1"
     d="M 54.089975,31.060552 C 54.089975,41.231813 54.089975,41.231813 54.089975,41.231813"
     id="path3223" />
  <path
     style="fill:none;fill-rule:evenodd;stroke:#000000;stroke-width:1.1446898;stroke-linecap:butt;stroke-linejoin:miter;stroke-miterlimit:4;stroke-dasharray:none;stroke-opacity:1"
     d="M 79.829998,31.060552 C 79.829998,41.231813 79.829998,41.231813 79.829998,41.231813"
     id="path3225" />
  <path
     style="fill:none;fill-rule:evenodd;stroke:#000000;stroke-width:1.54584134;stroke-linecap:butt;stroke-linejoin:miter;stroke-miterlimit:4;stroke-dasharray:none;stroke-opacity:1"
     d="M 61.091037,74.174793 C 61.091037,84.830304 61.091037,84.830304 61.091037,84.830304"
     id="path3231" />
  <path
     style="fill:none;fill-rule:evenodd;stroke:#000000;stroke-width:1.54584134;stroke-linecap:butt;stroke-linejoin:miter;stroke-miterlimit:4;stroke-dasharray:none;stroke-opacity:1"
     d="M 38.686613,74.174793 C 38.686613,84.830304 38.686613,84.830304 38.686613,84.830304"
     id="path3237" />
  <path
     style="fill:none;fill-rule:evenodd;stroke:#000000;stroke-width:1.77636969;stroke-linecap:butt;stroke-linejoin:miter;stroke-miterlimit:4;stroke-dasharray:none;stroke-opacity:1"
     d="M 83.064889,70.597868 C 83.064889,84.804934 83.064889,84.804934 83.064889,84.804934"
     id="path3239" />
  <path
     style="font-size:12px;font-style:normal;font-weight:normal;fill:#000000;fill-opacity:1;stroke:none;stroke-width:1px;stroke-linecap:butt;stroke-linejoin:miter;stroke-opacity:1;font-family:Bitstream Vera Sans"
     d="M 21.998434,60.125568 C 20.570937,60.508375 19.036284,61.208361 21.532593,61.73682 C 23.738581,63.253269 19.305453,65.088194 20.055781,63.707205 C 22.401252,64.004783 20.842036,61.560979 19.574623,61.473335 C 19.055887,60.161631 21.125187,59.389219 21.998434,60.125568 z M 23.502234,63.652473 C 23.332181,67.871943 21.585256,59.30335 25.000335,61.18536 C 26.655861,61.873153 25.025074,65.643484 23.502234,63.652473 z M 25.139414,62.571735 C 24.317973,59.366351 22.414306,65.561383 25.090565,63.149579 L 25.139414,62.571735 L 25.139414,62.571735 z M 26.436604,59.815994 C 27.977966,61.09252 26.13746,65.939643 26.413114,61.789238 C 26.423444,61.13155 26.454813,60.473874 26.436604,59.815994 z M 29.253284,62.56068 C 26.148855,63.589403 31.689933,64.192522 29.253284,62.56068 z M 30.2131,62.350613 C 31.589946,65.13291 25.998124,63.97363 28.53495,62.122252 C 31.402092,62.122462 26.307961,60.96647 29.039076,60.931257 C 29.697131,61.017553 30.421925,61.616101 30.2131,62.350613 z M 31.682899,60.142151 C 31.757026,61.316934 33.163269,61.196896 31.500098,62.122514 C 31.552822,62.947296 33.188606,65.010311 31.476784,63.616328 C 31.222366,62.671216 30.418537,60.65882 31.682899,60.142151 z M 33.785603,60.142151 C 33.859729,61.316934 35.265972,61.196896 33.602802,62.122514 C 33.655529,62.947297 35.291309,65.010313 33.579487,63.616328 C 33.325067,62.671214 32.521245,60.658825 33.785603,60.142151 z M 37.917782,62.441826 C 35.939275,62.393446 35.198063,63.673337 37.513508,63.842255 C 33.891771,65.956602 35.31115,58.71733 37.774605,61.672024 L 37.876303,62.019031 L 37.917782,62.441826 L 37.917782,62.441826 z M 37.436565,62.292568 C 37.260141,60.237283 34.309126,62.981957 37.436565,62.292568 z M 40.404934,61.496529 C 38.576683,60.846835 39.226902,65.964444 38.564644,62.265332 C 38.204145,61.221973 40.358197,60.448817 40.404934,61.496529 z M 41.380444,63.652473 C 41.210389,67.871944 39.463463,59.303348 42.878544,61.185359 C 44.53407,61.873152 42.903282,65.643481 41.380444,63.652473 z M 43.017624,62.571735 C 42.196182,59.366351 40.292512,65.561384 42.968774,63.149579 L 43.017624,62.571735 L 43.017624,62.571735 z M 46.012142,61.496529 C 44.183892,60.846837 44.83411,65.964443 44.171852,62.265332 C 43.811354,61.221974 45.965405,60.448816 46.012142,61.496529 z M 47.539478,61.377674 C 44.983667,62.074995 49.008521,65.340676 48.339191,62.117975 C 48.245979,61.753672 47.955634,61.374612 47.539478,61.377674 z M 47.539478,60.946487 C 51.301105,61.736992 46.14421,66.774037 46.182233,62.28501 C 46.259267,61.60046 46.787329,60.901983 47.539478,60.946487 z M 50.813839,61.377674 C 48.258027,62.074991 52.282877,65.340679 51.613551,62.117976 C 51.52034,61.753674 51.229996,61.374614 50.813839,61.377674 z M 50.813839,60.946487 C 54.575463,61.736997 49.418567,66.774034 49.456591,62.28501 C 49.533626,61.600459 50.06169,60.901983 50.813839,60.946487 z M 54.436031,59.815994 C 52.654421,60.721171 54.857209,61.162515 53.501124,61.687442 C 53.718856,62.957572 53.135085,65.068806 53.017236,62.522059 C 52.748315,61.33516 52.706549,59.58818 54.436031,59.815994 z "
     id="text3267" />
  <path
     style="font-size:12px;font-style:normal;font-weight:normal;fill:#000000;fill-opacity:1;stroke:none;stroke-width:1px;stroke-linecap:butt;stroke-linejoin:miter;stroke-opacity:1;font-family:Bitstream Vera Sans"
     d="M 39.084965,54.755505 L 41.018559,54.755505 L 41.018559,48.081677 L 38.915043,48.503552 L 38.915043,47.425427 L 41.00684,47.003552 L 42.190434,47.003552 L 42.190434,54.755505 L 44.124027,54.755505 L 44.124027,55.751599 L 39.084965,55.751599 L 39.084965,54.755505"
     id="text3272" />
  <path
     style="font-size:12px;font-style:normal;font-weight:normal;fill:#000000;fill-opacity:1;stroke:none;stroke-width:1px;stroke-linecap:butt;stroke-linejoin:miter;stroke-opacity:1;font-family:Bitstream Vera Sans"
     d="M 93.655144,50.745599 C 94.221545,50.866697 94.66295,51.11865 94.979362,51.501458 C 95.299668,51.884274 95.459825,52.35693 95.459831,52.919427 C 95.459825,53.78271 95.16295,54.450678 94.569206,54.923333 C 93.975451,55.395989 93.131702,55.632317 92.037956,55.632317 C 91.670766,55.632317 91.29186,55.595208 90.901237,55.520989 C 90.514517,55.450677 90.114127,55.343255 89.700066,55.198724 L 89.700066,54.056146 C 90.028189,54.247553 90.387564,54.392084 90.778191,54.489739 C 91.168813,54.587396 91.577016,54.636224 92.0028,54.636224 C 92.744984,54.636224 93.309436,54.48974 93.696159,54.196771 C 94.086779,53.903803 94.282091,53.478023 94.282097,52.919427 C 94.282091,52.403805 94.100451,52.001461 93.737175,51.712396 C 93.377795,51.419431 92.875843,51.272947 92.231316,51.272942 L 91.211784,51.272942 L 91.211784,50.300286 L 92.278191,50.300286 C 92.860218,50.300291 93.30553,50.185057 93.614128,49.954583 C 93.922717,49.720214 94.077013,49.384277 94.077019,48.946771 C 94.077013,48.497559 93.916857,48.153809 93.59655,47.915521 C 93.280139,47.673341 92.825062,47.552247 92.231316,47.552239 C 91.907094,47.552247 91.559438,47.587403 91.188347,47.657708 C 90.817251,47.728028 90.409048,47.837403 89.963737,47.985833 L 89.963737,46.931146 C 90.412955,46.806154 90.832876,46.712404 91.223503,46.649896 C 91.618032,46.587404 91.989125,46.556154 92.336784,46.556146 C 93.235217,46.556154 93.946154,46.761232 94.469597,47.17138 C 94.993028,47.577638 95.254747,48.128418 95.254753,48.823724 C 95.254747,49.308105 95.116075,49.718261 94.838737,50.054192 C 94.561388,50.386229 94.166857,50.616697 93.655144,50.745599"
     id="text3276" />
  <path
     style="font-size:12px;font-style:normal;font-weight:normal;fill:#000000;fill-opacity:1;stroke:none;stroke-width:1px;stroke-linecap:butt;stroke-linejoin:miter;stroke-opacity:1;font-family:Bitstream Vera Sans"
     d="M 65.638676,54.755505 L 69.769535,54.755505 L 69.769535,55.751599 L 64.214848,55.751599 L 64.214848,54.755505 C 64.664065,54.290663 65.275393,53.667617 66.048832,52.886365 C 66.826172,52.101212 67.314453,51.595353 67.513676,51.368787 C 67.892577,50.94301 68.156249,50.583636 68.304691,50.290662 C 68.45703,49.993792 68.533202,49.702777 68.533207,49.417615 C 68.533202,48.952778 68.369139,48.573872 68.041019,48.280896 C 67.716796,47.987935 67.292969,47.841451 66.769535,47.841443 C 66.398438,47.841451 66.005861,47.905904 65.591801,48.034802 C 65.181643,48.163716 64.74219,48.359028 64.273441,48.62074 L 64.273441,47.425427 C 64.750002,47.23403 65.195314,47.089498 65.609379,46.991834 C 66.023439,46.894186 66.402344,46.845358 66.746098,46.845349 C 67.652343,46.845358 68.374999,47.07192 68.914066,47.525037 C 69.453123,47.978169 69.722654,48.583638 69.72266,49.341443 C 69.722654,49.700824 69.654294,50.04262 69.517582,50.366834 C 69.384763,50.687151 69.140623,51.066057 68.78516,51.503552 C 68.687498,51.616838 68.376952,51.944962 67.853519,52.487927 C 67.330078,53.026993 66.591797,53.782851 65.638676,54.755505"
     id="text3280" />
  <path
     style="font-size:12px;font-style:normal;font-weight:normal;fill:#000000;fill-opacity:1;stroke:none;stroke-width:1px;stroke-linecap:butt;stroke-linejoin:miter;stroke-opacity:1;font-family:Bitstream Vera Sans"
     d="M 81.308922,68.348149 L 83.242516,68.348149 L 83.242516,61.674321 L 81.139,62.096196 L 81.139,61.018071 L 83.230797,60.596196 L 84.414391,60.596196 L 84.414391,68.348149 L 86.347984,68.348149 L 86.347984,69.344243 L 81.308922,69.344243 L 81.308922,68.348149"
     id="text3284" />
  <g
     id="g3519"
     transform="matrix(0.7129105,0,0,0.7129105,-9.7986182,3.3395818)">
    <path
       d="M 49.066773,24.22879 C 49.067972,31.079065 43.515064,36.632947 36.664788,36.632947 C 29.814513,36.632947 24.261604,31.079065 24.262803,24.22879 C 24.261604,17.378514 29.814513,11.824633 36.664788,11.824633 C 43.515064,11.824633 49.067972,17.378514 49.066773,24.22879 L 49.066773,24.22879 z "
       style="fill:#0000ff;fill-opacity:1;fill-rule:evenodd;stroke:#000000;stroke-width:0.38027155px;stroke-linecap:butt;stroke-linejoin:miter;stroke-opacity:1"
       id="path3474" />
    <path
       d="M 45.562914,32.95223 C 40.719885,37.796953 32.866199,37.797641 28.022324,32.953766 C 23.178446,28.109889 23.179135,20.256203 28.023859,15.413176 C 32.866887,10.568451 40.720573,10.567763 45.56445,15.411639 C 50.408325,20.255515 50.407637,28.109202 45.562914,32.95223 L 45.562914,32.95223 z "
       style="opacity:0.71739131;fill:url(#linearGradient3565);fill-opacity:1;fill-rule:evenodd;stroke:none;stroke-width:1px;stroke-linecap:butt;stroke-linejoin:miter;stroke-opacity:1"
       id="path3476" />
    <path
       d="M 39.147988,19.481422 C 39.148661,23.326315 36.031948,26.443576 32.187053,26.443576 C 28.342159,26.443576 25.225445,23.326315 25.226118,19.481422 C 25.225445,15.636527 28.342159,12.519268 32.187053,12.519268 C 36.031948,12.519268 39.148661,15.636527 39.147988,19.481422 L 39.147988,19.481422 z "
       style="fill:url(#radialGradient3562);fill-opacity:1;fill-rule:evenodd;stroke:none;stroke-width:1px;stroke-linecap:butt;stroke-linejoin:miter;stroke-opacity:1"
       id="path3478" />
  </g>
  <path
     style="fill:none;fill-rule:evenodd;stroke:#000000;stroke-width:3;stroke-linecap:round;stroke-linejoin:miter;stroke-miterlimit:4;stroke-dasharray:6, 3;stroke-dashoffset:0;stroke-opacity:1"
     d="M 26.606881,20.179358 C 56.395019,20.179358 56.105814,20.179358 56.105814,20.179358"
     id="path3774" />
</svg>
