<?xml version="1.0" encoding="UTF-8" standalone="no"?>
<!-- Created with Inkscape (http://www.inkscape.org/) -->
<svg
   xmlns:dc="http://purl.org/dc/elements/1.1/"
   xmlns:cc="http://web.resource.org/cc/"
   xmlns:rdf="http://www.w3.org/1999/02/22-rdf-syntax-ns#"
   xmlns:svg="http://www.w3.org/2000/svg"
   xmlns="http://www.w3.org/2000/svg"
   xmlns:xlink="http://www.w3.org/1999/xlink"
   xmlns:sodipodi="http://sodipodi.sourceforge.net/DTD/sodipodi-0.dtd"
   xmlns:inkscape="http://www.inkscape.org/namespaces/inkscape"
   version="1.0"
   width="100"
   height="100"
   id="svg2"
   sodipodi:version="0.32"
   inkscape:version="0.45.1"
   sodipodi:docname="select_all.svg"
   sodipodi:docbase="/home/tris/src/aten-devel/src/gui-qt/icons"
   inkscape:output_extension="org.inkscape.output.svg.inkscape">
  <metadata
     id="metadata2566">
    <rdf:RDF>
      <cc:Work
         rdf:about="">
        <dc:format>image/svg+xml</dc:format>
        <dc:type
           rdf:resource="http://purl.org/dc/dcmitype/StillImage" />
      </cc:Work>
    </rdf:RDF>
  </metadata>
  <sodipodi:namedview
     inkscape:window-height="714"
     inkscape:window-width="1024"
     inkscape:pageshadow="2"
     inkscape:pageopacity="0.0"
     guidetolerance="10.0"
     gridtolerance="10.0"
     objecttolerance="10.0"
     borderopacity="1.0"
     bordercolor="#666666"
     pagecolor="#ffffff"
     id="base"
     inkscape:zoom="4.9"
     inkscape:cx="50"
     inkscape:cy="50"
     inkscape:window-x="0"
     inkscape:window-y="6"
     inkscape:current-layer="svg2" />
  <defs
     id="defs4">
    <linearGradient
       id="linearGradient3384">
      <stop
         style="stop-color:#0000ff;stop-opacity:1;"
         offset="0"
         id="stop3386" />
      <stop
         style="stop-color:#000000;stop-opacity:1"
         offset="1"
         id="stop3388" />
    </linearGradient>
    <linearGradient
       id="linearGradient3252">
      <stop
         style="stop-color:#ffffff;stop-opacity:1"
         offset="0"
         id="stop3254" />
      <stop
         style="stop-color:#7f7fff;stop-opacity:0;"
         offset="1"
         id="stop3256" />
    </linearGradient>
    <linearGradient
       id="linearGradient3149">
      <stop
         style="stop-color:#aa4400;stop-opacity:1"
         offset="0"
         id="stop3151" />
      <stop
         style="stop-color:#aa4400;stop-opacity:0.64948452"
         offset="1"
         id="stop3153" />
    </linearGradient>
    <linearGradient
       id="linearGradient3186">
      <stop
         style="stop-color:#aaaaaa;stop-opacity:1"
         offset="0"
         id="stop3188" />
      <stop
         style="stop-color:#fffffd;stop-opacity:0.50196081"
         offset="1"
         id="stop3190" />
    </linearGradient>
    <radialGradient
       cx="58.01162"
       cy="63.345894"
       r="33.113495"
       fx="58.01162"
       fy="63.345894"
       id="radialGradient3260"
       xlink:href="#linearGradient3252"
       gradientUnits="userSpaceOnUse" />
    <linearGradient
       x1="25.398125"
       y1="63.345894"
       x2="90.625114"
       y2="63.345894"
       id="linearGradient3390"
       xlink:href="#linearGradient3384"
       gradientUnits="userSpaceOnUse" />
    <linearGradient
       x1="25.398125"
       y1="63.345894"
       x2="90.625114"
       y2="63.345894"
       id="linearGradient3459"
       xlink:href="#linearGradient3384"
       gradientUnits="userSpaceOnUse" />
    <radialGradient
       cx="58.01162"
       cy="63.345894"
       r="33.113495"
       fx="58.01162"
       fy="63.345894"
       id="radialGradient3461"
       xlink:href="#linearGradient3252"
       gradientUnits="userSpaceOnUse" />
    <linearGradient
       x1="25.398125"
       y1="63.345894"
       x2="90.625114"
       y2="63.345894"
       id="linearGradient3480"
       xlink:href="#linearGradient3384"
       gradientUnits="userSpaceOnUse" />
    <radialGradient
       cx="58.01162"
       cy="63.345894"
       r="33.113495"
       fx="58.01162"
       fy="63.345894"
       id="radialGradient3482"
       xlink:href="#linearGradient3252"
       gradientUnits="userSpaceOnUse" />
    <linearGradient
       x1="25.398125"
       y1="63.345894"
       x2="90.625114"
       y2="63.345894"
       id="linearGradient3490"
       xlink:href="#linearGradient3384"
       gradientUnits="userSpaceOnUse" />
    <radialGradient
       cx="58.01162"
       cy="63.345894"
       r="33.113495"
       fx="58.01162"
       fy="63.345894"
       id="radialGradient3492"
       xlink:href="#linearGradient3252"
       gradientUnits="userSpaceOnUse" />
    <radialGradient
       inkscape:collect="always"
       xlink:href="#linearGradient3252"
       id="radialGradient2667"
       gradientUnits="userSpaceOnUse"
       cx="58.01162"
       cy="63.345894"
       fx="58.01162"
       fy="63.345894"
       r="33.113495"
       gradientTransform="matrix(0.2740521,0,0,0.2740521,28.80419,13.981316)" />
    <linearGradient
       inkscape:collect="always"
       xlink:href="#linearGradient3384"
       id="linearGradient2670"
       gradientUnits="userSpaceOnUse"
       x1="25.398125"
       y1="63.345894"
       x2="90.625114"
       y2="63.345894"
       gradientTransform="matrix(0.3452564,0.3452564,-0.3452564,0.3452564,52.458591,-4.5216519)" />
    <linearGradient
       inkscape:collect="always"
       xlink:href="#linearGradient3384"
       id="linearGradient3664"
       gradientUnits="userSpaceOnUse"
       gradientTransform="matrix(0.3452564,0.3452564,-0.3452564,0.3452564,52.458591,-4.5216519)"
       x1="25.398125"
       y1="63.345894"
       x2="90.625114"
       y2="63.345894" />
    <radialGradient
       inkscape:collect="always"
       xlink:href="#linearGradient3252"
       id="radialGradient3666"
       gradientUnits="userSpaceOnUse"
       gradientTransform="matrix(0.2740521,0,0,0.2740521,28.80419,13.981316)"
       cx="58.01162"
       cy="63.345894"
       fx="58.01162"
       fy="63.345894"
       r="33.113495" />
    <linearGradient
       inkscape:collect="always"
       xlink:href="#linearGradient3384"
       id="linearGradient3676"
       gradientUnits="userSpaceOnUse"
       gradientTransform="matrix(0.3452564,0.3452564,-0.3452564,0.3452564,52.458591,-4.5216519)"
       x1="25.398125"
       y1="63.345894"
       x2="90.625114"
       y2="63.345894" />
    <radialGradient
       inkscape:collect="always"
       xlink:href="#linearGradient3252"
       id="radialGradient3678"
       gradientUnits="userSpaceOnUse"
       gradientTransform="matrix(0.2740521,0,0,0.2740521,28.80419,13.981316)"
       cx="58.01162"
       cy="63.345894"
       fx="58.01162"
       fy="63.345894"
       r="33.113495" />
    <linearGradient
       inkscape:collect="always"
       xlink:href="#linearGradient3384"
       id="linearGradient4676"
       gradientUnits="userSpaceOnUse"
       gradientTransform="matrix(0.3452564,0.3452564,-0.3452564,0.3452564,52.458591,-4.5216519)"
       x1="25.398125"
       y1="63.345894"
       x2="90.625114"
       y2="63.345894" />
    <radialGradient
       inkscape:collect="always"
       xlink:href="#linearGradient3252"
       id="radialGradient4678"
       gradientUnits="userSpaceOnUse"
       gradientTransform="matrix(0.2740521,0,0,0.2740521,28.80419,13.981316)"
       cx="58.01162"
       cy="63.345894"
       fx="58.01162"
       fy="63.345894"
       r="33.113495" />
    <linearGradient
       inkscape:collect="always"
       xlink:href="#linearGradient3384"
       id="linearGradient4680"
       gradientUnits="userSpaceOnUse"
       gradientTransform="matrix(0.3452564,0.3452564,-0.3452564,0.3452564,52.458591,-4.5216519)"
       x1="25.398125"
       y1="63.345894"
       x2="90.625114"
       y2="63.345894" />
    <radialGradient
       inkscape:collect="always"
       xlink:href="#linearGradient3252"
       id="radialGradient4682"
       gradientUnits="userSpaceOnUse"
       gradientTransform="matrix(0.2740521,0,0,0.2740521,28.80419,13.981316)"
       cx="58.01162"
       cy="63.345894"
       fx="58.01162"
       fy="63.345894"
       r="33.113495" />
    <linearGradient
       inkscape:collect="always"
       xlink:href="#linearGradient3384"
       id="linearGradient4684"
       gradientUnits="userSpaceOnUse"
       gradientTransform="matrix(0.3452564,0.3452564,-0.3452564,0.3452564,52.458591,-4.5216519)"
       x1="25.398125"
       y1="63.345894"
       x2="90.625114"
       y2="63.345894" />
    <radialGradient
       inkscape:collect="always"
       xlink:href="#linearGradient3252"
       id="radialGradient4686"
       gradientUnits="userSpaceOnUse"
       gradientTransform="matrix(0.2740521,0,0,0.2740521,28.80419,13.981316)"
       cx="58.01162"
       cy="63.345894"
       fx="58.01162"
       fy="63.345894"
       r="33.113495" />
    <linearGradient
       inkscape:collect="always"
       xlink:href="#linearGradient3384"
       id="linearGradient3557"
       gradientUnits="userSpaceOnUse"
       gradientTransform="matrix(0.3452564,0.3452564,-0.3452564,0.3452564,52.458591,-4.5216519)"
       x1="25.398125"
       y1="63.345894"
       x2="90.625114"
       y2="63.345894" />
    <radialGradient
       inkscape:collect="always"
       xlink:href="#linearGradient3252"
       id="radialGradient3559"
       gradientUnits="userSpaceOnUse"
       gradientTransform="matrix(0.2740521,0,0,0.2740521,28.80419,13.981316)"
       cx="58.01162"
       cy="63.345894"
       fx="58.01162"
       fy="63.345894"
       r="33.113495" />
    <radialGradient
       inkscape:collect="always"
       xlink:href="#linearGradient3252"
       id="radialGradient3562"
       gradientUnits="userSpaceOnUse"
       gradientTransform="matrix(0.1887019,0,0,0.1887019,10.892818,7.4365436)"
       cx="58.01162"
       cy="63.345894"
       fx="58.01162"
       fy="63.345894"
       r="33.113495" />
    <linearGradient
       inkscape:collect="always"
       xlink:href="#linearGradient3384"
       id="linearGradient3565"
       gradientUnits="userSpaceOnUse"
       gradientTransform="matrix(0.2377304,0.2377304,-0.2377304,0.2377304,27.18034,-5.303897)"
       x1="25.398125"
       y1="63.345894"
       x2="90.625114"
       y2="63.345894" />
    <linearGradient
       inkscape:collect="always"
       xlink:href="#linearGradient3384"
       id="linearGradient3573"
       gradientUnits="userSpaceOnUse"
       gradientTransform="matrix(0.3452564,0.3452564,-0.3452564,0.3452564,52.458591,-4.5216519)"
       x1="25.398125"
       y1="63.345894"
       x2="90.625114"
       y2="63.345894" />
    <radialGradient
       inkscape:collect="always"
       xlink:href="#linearGradient3252"
       id="radialGradient3575"
       gradientUnits="userSpaceOnUse"
       gradientTransform="matrix(0.2740521,0,0,0.2740521,28.80419,13.981316)"
       cx="58.01162"
       cy="63.345894"
       fx="58.01162"
       fy="63.345894"
       r="33.113495" />
    <radialGradient
       inkscape:collect="always"
       xlink:href="#linearGradient3252"
       id="radialGradient3578"
       gradientUnits="userSpaceOnUse"
       gradientTransform="matrix(0.1887019,0,0,0.1887019,60.230131,33.0983)"
       cx="58.01162"
       cy="63.345894"
       fx="58.01162"
       fy="63.345894"
       r="33.113495" />
    <linearGradient
       inkscape:collect="always"
       xlink:href="#linearGradient3384"
       id="linearGradient3581"
       gradientUnits="userSpaceOnUse"
       gradientTransform="matrix(0.2377304,0.2377304,-0.2377304,0.2377304,76.517652,20.357859)"
       x1="25.398125"
       y1="63.345894"
       x2="90.625114"
       y2="63.345894" />
    <linearGradient
       inkscape:collect="always"
       xlink:href="#linearGradient3384"
       id="linearGradient3589"
       gradientUnits="userSpaceOnUse"
       gradientTransform="matrix(0.3452564,0.3452564,-0.3452564,0.3452564,52.458591,-4.5216519)"
       x1="25.398125"
       y1="63.345894"
       x2="90.625114"
       y2="63.345894" />
    <radialGradient
       inkscape:collect="always"
       xlink:href="#linearGradient3252"
       id="radialGradient3591"
       gradientUnits="userSpaceOnUse"
       gradientTransform="matrix(0.2740521,0,0,0.2740521,28.80419,13.981316)"
       cx="58.01162"
       cy="63.345894"
       fx="58.01162"
       fy="63.345894"
       r="33.113495" />
    <radialGradient
       inkscape:collect="always"
       xlink:href="#linearGradient3252"
       id="radialGradient3594"
       gradientUnits="userSpaceOnUse"
       gradientTransform="matrix(0.1887019,0,0,0.1887019,23.423531,53.628189)"
       cx="58.01162"
       cy="63.345894"
       fx="58.01162"
       fy="63.345894"
       r="33.113495" />
    <linearGradient
       inkscape:collect="always"
       xlink:href="#linearGradient3384"
       id="linearGradient3597"
       gradientUnits="userSpaceOnUse"
       gradientTransform="matrix(0.2377304,0.2377304,-0.2377304,0.2377304,39.711053,40.887748)"
       x1="25.398125"
       y1="63.345894"
       x2="90.625114"
       y2="63.345894" />
  </defs>
  <g
     id="g4690"
     transform="translate(5.89681,11.056514)"
     style="fill:#e3e5e1;fill-opacity:1;stroke:none">
    <path
       transform="translate(-81.466183,-24.175207)"
       d="M 122.4841 47.27103 A 16.939291 16.939291 0 1 1  88.605516,47.27103 A 16.939291 16.939291 0 1 1  122.4841 47.27103 z"
       sodipodi:ry="16.939291"
       sodipodi:rx="16.939291"
       sodipodi:cy="47.27103"
       sodipodi:cx="105.54481"
       id="path4692"
       style="opacity:0.64130435;fill:#e3e5e1;fill-opacity:1;fill-rule:evenodd;stroke:none;stroke-width:1px;stroke-linecap:butt;stroke-linejoin:miter;stroke-opacity:1"
       sodipodi:type="arc" />
    <g
       transform="matrix(0.688562,0,0,0.688562,-10.660554,-2.6818598)"
       id="g4694"
       style="fill:#e3e5e1;fill-opacity:1;stroke:none">
      <path
         id="path4696"
         style="fill:#e3e5e1;fill-opacity:1;fill-rule:evenodd;stroke:none;stroke-width:0.48826629px;stroke-linecap:butt;stroke-linejoin:miter;stroke-opacity:1"
         d="M 66.37585,37.436982 C 66.37739,46.232692 59.24749,53.363841 50.451779,53.363841 C 41.656069,53.363841 34.526169,46.232692 34.527709,37.436982 C 34.526169,28.641272 41.656069,21.510123 50.451779,21.510123 C 59.24749,21.510123 66.37739,28.641272 66.37585,37.436982 L 66.37585,37.436982 z " />
      <path
         id="path4698"
         style="opacity:0.71739131;fill:#e3e5e1;fill-opacity:1;fill-rule:evenodd;stroke:none;stroke-width:1px;stroke-linecap:butt;stroke-linejoin:miter;stroke-opacity:1"
         d="M 61.876916,48.637824 C 55.658499,54.858419 45.574415,54.859302 39.354909,48.639796 C 33.135402,42.42029 33.136286,32.336206 39.356881,26.117789 C 45.575298,19.897193 55.659382,19.89631 61.878888,26.115816 C 68.098394,32.335323 68.097511,42.419407 61.876916,48.637824 L 61.876916,48.637824 z " />
      <path
         id="path4700"
         style="fill:#e3e5e1;fill-opacity:1;fill-rule:evenodd;stroke:none;stroke-width:1px;stroke-linecap:butt;stroke-linejoin:miter;stroke-opacity:1"
         d="M 53.640193,31.341391 C 53.641057,36.278211 49.639216,40.280753 44.702396,40.280753 C 39.765576,40.280753 35.763735,36.278211 35.764599,31.341391 C 35.763735,26.404571 39.765576,22.402029 44.702396,22.402029 C 49.639216,22.402029 53.641057,26.404571 53.640193,31.341391 L 53.640193,31.341391 z " />
    </g>
  </g>
  <g
     id="g4702"
     transform="translate(7.61671,13.267814)"
     style="fill:#e3e5e1;fill-opacity:1;stroke:none">
    <path
       transform="translate(-33.848772,-0.7247536)"
       d="M 122.4841 47.27103 A 16.939291 16.939291 0 1 1  88.605516,47.27103 A 16.939291 16.939291 0 1 1  122.4841 47.27103 z"
       sodipodi:ry="16.939291"
       sodipodi:rx="16.939291"
       sodipodi:cy="47.27103"
       sodipodi:cx="105.54481"
       id="path4704"
       style="opacity:0.64130435;fill:#e3e5e1;fill-opacity:1;fill-rule:evenodd;stroke:none;stroke-width:1px;stroke-linecap:butt;stroke-linejoin:miter;stroke-opacity:1"
       sodipodi:type="arc" />
    <g
       transform="matrix(0.688562,0,0,0.688562,36.956857,20.768594)"
       id="g4706"
       style="fill:#e3e5e1;fill-opacity:1;stroke:none">
      <path
         id="path4708"
         style="fill:#e3e5e1;fill-opacity:1;fill-rule:evenodd;stroke:none;stroke-width:0.48826629px;stroke-linecap:butt;stroke-linejoin:miter;stroke-opacity:1"
         d="M 66.37585,37.436982 C 66.37739,46.232692 59.24749,53.363841 50.451779,53.363841 C 41.656069,53.363841 34.526169,46.232692 34.527709,37.436982 C 34.526169,28.641272 41.656069,21.510123 50.451779,21.510123 C 59.24749,21.510123 66.37739,28.641272 66.37585,37.436982 L 66.37585,37.436982 z " />
      <path
         id="path4710"
         style="opacity:0.71739131;fill:#e3e5e1;fill-opacity:1;fill-rule:evenodd;stroke:none;stroke-width:1px;stroke-linecap:butt;stroke-linejoin:miter;stroke-opacity:1"
         d="M 61.876916,48.637824 C 55.658499,54.858419 45.574415,54.859302 39.354909,48.639796 C 33.135402,42.42029 33.136286,32.336206 39.356881,26.117789 C 45.575298,19.897193 55.659382,19.89631 61.878888,26.115816 C 68.098394,32.335323 68.097511,42.419407 61.876916,48.637824 L 61.876916,48.637824 z " />
      <path
         id="path4712"
         style="fill:#e3e5e1;fill-opacity:1;fill-rule:evenodd;stroke:none;stroke-width:1px;stroke-linecap:butt;stroke-linejoin:miter;stroke-opacity:1"
         d="M 53.640193,31.341391 C 53.641057,36.278211 49.639216,40.280753 44.702396,40.280753 C 39.765576,40.280753 35.763735,36.278211 35.764599,31.341391 C 35.763735,26.404571 39.765576,22.402029 44.702396,22.402029 C 49.639216,22.402029 53.641057,26.404571 53.640193,31.341391 L 53.640193,31.341391 z " />
    </g>
  </g>
  <g
     id="g4714"
     transform="translate(13.26782,8.845214)"
     style="fill:#e3e5e1;fill-opacity:1;stroke:none">
    <path
       transform="translate(-76.306478,24.227741)"
       d="M 122.4841 47.27103 A 16.939291 16.939291 0 1 1  88.605516,47.27103 A 16.939291 16.939291 0 1 1  122.4841 47.27103 z"
       sodipodi:ry="16.939291"
       sodipodi:rx="16.939291"
       sodipodi:cy="47.27103"
       sodipodi:cx="105.54481"
       id="path4716"
       style="opacity:0.64130435;fill:#e3e5e1;fill-opacity:1;fill-rule:evenodd;stroke:none;stroke-width:1px;stroke-linecap:butt;stroke-linejoin:miter;stroke-opacity:1"
       sodipodi:type="arc" />
    <g
       transform="matrix(0.688562,0,0,0.688562,-5.5008488,45.721088)"
       id="g4718"
       style="fill:#e3e5e1;fill-opacity:1;stroke:none">
      <path
         id="path4720"
         style="fill:#e3e5e1;fill-opacity:1;fill-rule:evenodd;stroke:none;stroke-width:0.48826629px;stroke-linecap:butt;stroke-linejoin:miter;stroke-opacity:1"
         d="M 66.37585,37.436982 C 66.37739,46.232692 59.24749,53.363841 50.451779,53.363841 C 41.656069,53.363841 34.526169,46.232692 34.527709,37.436982 C 34.526169,28.641272 41.656069,21.510123 50.451779,21.510123 C 59.24749,21.510123 66.37739,28.641272 66.37585,37.436982 L 66.37585,37.436982 z " />
      <path
         id="path4722"
         style="opacity:0.71739131;fill:#e3e5e1;fill-opacity:1;fill-rule:evenodd;stroke:none;stroke-width:1px;stroke-linecap:butt;stroke-linejoin:miter;stroke-opacity:1"
         d="M 61.876916,48.637824 C 55.658499,54.858419 45.574415,54.859302 39.354909,48.639796 C 33.135402,42.42029 33.136286,32.336206 39.356881,26.117789 C 45.575298,19.897193 55.659382,19.89631 61.878888,26.115816 C 68.098394,32.335323 68.097511,42.419407 61.876916,48.637824 L 61.876916,48.637824 z " />
      <path
         id="path4724"
         style="fill:#e3e5e1;fill-opacity:1;fill-rule:evenodd;stroke:none;stroke-width:1px;stroke-linecap:butt;stroke-linejoin:miter;stroke-opacity:1"
         d="M 53.640193,31.341391 C 53.641057,36.278211 49.639216,40.280753 44.702396,40.280753 C 39.765576,40.280753 35.763735,36.278211 35.764599,31.341391 C 35.763735,26.404571 39.765576,22.402029 44.702396,22.402029 C 49.639216,22.402029 53.641057,26.404571 53.640193,31.341391 L 53.640193,31.341391 z " />
    </g>
  </g>
  <rect
     style="opacity:0.64130435;fill:none;fill-opacity:1;fill-rule:evenodd;stroke:#e0e8e5;stroke-width:3;stroke-linecap:round;stroke-linejoin:round;stroke-miterlimit:4;stroke-dasharray:6,3;stroke-dashoffset:0;stroke-opacity:1"
     id="rect4726"
     width="89.48661"
     height="85.555405"
     x="9.3107605"
     y="14.470451" />
  <path
     sodipodi:type="arc"
     style="opacity:1;fill:#afafff;fill-opacity:1;fill-rule:evenodd;stroke:#000000;stroke-width:1px;stroke-linecap:butt;stroke-linejoin:miter;stroke-opacity:1"
     id="path4651"
     sodipodi:cx="105.54481"
     sodipodi:cy="47.27103"
     sodipodi:rx="16.939291"
     sodipodi:ry="16.939291"
     d="M 122.4841 47.27103 A 16.939291 16.939291 0 1 1  88.605516,47.27103 A 16.939291 16.939291 0 1 1  122.4841 47.27103 z"
     transform="translate(-79.746281,-23.683806)" />
  <path
     id="path3474"
     style="fill:#0000ff;fill-opacity:1;fill-rule:evenodd;stroke:#000000;stroke-width:0.33620161px;stroke-linecap:butt;stroke-linejoin:miter;stroke-opacity:1"
     d="M 36.763236,23.587224 C 36.764296,29.643616 31.854918,34.553854 25.798526,34.553854 C 19.742134,34.553854 14.832756,29.643616 14.833816,23.587224 C 14.832756,17.530832 19.742134,12.620594 25.798526,12.620594 C 31.854918,12.620594 36.764296,17.530832 36.763236,23.587224 L 36.763236,23.587224 z " />
  <path
     id="path3476"
     style="opacity:0.71739131;fill:url(#linearGradient3565);fill-opacity:1;fill-rule:evenodd;stroke:none;stroke-width:1px;stroke-linecap:butt;stroke-linejoin:miter;stroke-opacity:1"
     d="M 33.665441,31.299698 C 29.383675,35.582963 22.440158,35.583571 18.157643,31.301056 C 13.875126,27.01854 13.875735,20.075023 18.159,15.793258 C 22.440766,11.509992 29.384283,11.509384 33.666799,15.791899 C 37.949314,20.074415 37.948706,27.017932 33.665441,31.299698 L 33.665441,31.299698 z " />
  <path
     id="path3478"
     style="fill:url(#radialGradient3562);fill-opacity:1;fill-rule:evenodd;stroke:none;stroke-width:1px;stroke-linecap:butt;stroke-linejoin:miter;stroke-opacity:1"
     d="M 27.993946,19.390032 C 27.994541,22.789338 25.239026,25.545337 21.839719,25.545337 C 18.440412,25.545337 15.684897,22.789338 15.685492,19.390032 C 15.684897,15.990725 18.440412,13.234727 21.839719,13.234727 C 25.239026,13.234727 27.994541,15.990725 27.993946,19.390032 L 27.993946,19.390032 z " />
  <path
     sodipodi:type="arc"
     style="opacity:1;fill:#afafff;fill-opacity:1;fill-rule:evenodd;stroke:#000000;stroke-width:1px;stroke-linecap:butt;stroke-linejoin:miter;stroke-opacity:1"
     id="path3680"
     sodipodi:cx="105.54481"
     sodipodi:cy="47.27103"
     sodipodi:rx="16.939291"
     sodipodi:ry="16.939291"
     d="M 122.4841 47.27103 A 16.939291 16.939291 0 1 1  88.605516,47.27103 A 16.939291 16.939291 0 1 1  122.4841 47.27103 z"
     transform="translate(-30.408969,1.9779491)" />
  <path
     id="path3658"
     style="fill:#0000ff;fill-opacity:1;fill-rule:evenodd;stroke:#000000;stroke-width:0.33620161px;stroke-linecap:butt;stroke-linejoin:miter;stroke-opacity:1"
     d="M 86.100548,49.24898 C 86.101608,55.305372 81.19223,60.21561 75.135838,60.21561 C 69.079446,60.21561 64.170068,55.305372 64.171128,49.24898 C 64.170068,43.192589 69.079446,38.28235 75.135838,38.28235 C 81.19223,38.28235 86.101608,43.192589 86.100548,49.24898 L 86.100548,49.24898 z " />
  <path
     id="path3660"
     style="opacity:0.71739131;fill:url(#linearGradient3581);fill-opacity:1;fill-rule:evenodd;stroke:none;stroke-width:1px;stroke-linecap:butt;stroke-linejoin:miter;stroke-opacity:1"
     d="M 83.002753,56.961454 C 78.720987,61.24472 71.77747,61.245328 67.494955,56.962812 C 63.212439,52.680297 63.213047,45.73678 67.496313,41.455014 C 71.778078,37.171748 78.721595,37.17114 83.004111,41.453655 C 87.286626,45.736172 87.286018,52.679689 83.002753,56.961454 L 83.002753,56.961454 z " />
  <path
     id="path3662"
     style="fill:url(#radialGradient3578);fill-opacity:1;fill-rule:evenodd;stroke:none;stroke-width:1px;stroke-linecap:butt;stroke-linejoin:miter;stroke-opacity:1"
     d="M 77.331259,45.051788 C 77.331853,48.451095 74.576338,51.207093 71.177031,51.207093 C 67.777725,51.207093 65.022209,48.451095 65.022804,45.051788 C 65.022209,41.652481 67.777725,38.896483 71.177031,38.896483 C 74.576338,38.896483 77.331853,41.652481 77.331259,45.051788 L 77.331259,45.051788 z " />
  <path
     sodipodi:type="arc"
     style="opacity:1;fill:#afafff;fill-opacity:1;fill-rule:evenodd;stroke:#000000;stroke-width:1px;stroke-linecap:butt;stroke-linejoin:miter;stroke-opacity:1"
     id="path4653"
     sodipodi:cx="105.54481"
     sodipodi:cy="47.27103"
     sodipodi:rx="16.939291"
     sodipodi:ry="16.939291"
     d="M 122.4841 47.27103 A 16.939291 16.939291 0 1 1  88.605516,47.27103 A 16.939291 16.939291 0 1 1  122.4841 47.27103 z"
     transform="translate(-67.215569,22.507839)" />
  <path
     id="path3670"
     style="fill:#0000ff;fill-opacity:1;fill-rule:evenodd;stroke:#000000;stroke-width:0.33620161px;stroke-linecap:butt;stroke-linejoin:miter;stroke-opacity:1"
     d="M 49.293948,69.778869 C 49.295009,75.835261 44.385631,80.745499 38.329238,80.745499 C 32.272846,80.745499 27.363468,75.835261 27.364529,69.778869 C 27.363468,63.722478 32.272846,58.812239 38.329238,58.812239 C 44.385631,58.812239 49.295009,63.722478 49.293948,69.778869 L 49.293948,69.778869 z " />
  <path
     id="path3672"
     style="opacity:0.71739131;fill:url(#linearGradient3597);fill-opacity:1;fill-rule:evenodd;stroke:none;stroke-width:1px;stroke-linecap:butt;stroke-linejoin:miter;stroke-opacity:1"
     d="M 46.196153,77.491343 C 41.914388,81.774609 34.970871,81.775217 30.688355,77.492701 C 26.405839,73.210186 26.406448,66.266669 30.689713,61.984903 C 34.971479,57.701637 41.914996,57.701029 46.197511,61.983544 C 50.480027,66.266061 50.479419,73.209578 46.196153,77.491343 L 46.196153,77.491343 z " />
  <path
     id="path3674"
     style="fill:url(#radialGradient3594);fill-opacity:1;fill-rule:evenodd;stroke:none;stroke-width:1px;stroke-linecap:butt;stroke-linejoin:miter;stroke-opacity:1"
     d="M 40.524659,65.581677 C 40.525254,68.980984 37.769738,71.736982 34.370431,71.736982 C 30.971125,71.736982 28.215609,68.980984 28.216204,65.581677 C 28.215609,62.18237 30.971125,59.426372 34.370431,59.426372 C 37.769738,59.426372 40.525254,62.18237 40.524659,65.581677 L 40.524659,65.581677 z " />
  <rect
     style="opacity:0.64130435;fill:none;fill-opacity:1;fill-rule:evenodd;stroke:#000000;stroke-width:3;stroke-linecap:round;stroke-linejoin:round;stroke-miterlimit:4;stroke-dasharray:6,3;stroke-dashoffset:0;stroke-opacity:1"
     id="rect4688"
     width="89.48661"
     height="85.555405"
     x="5.1338449"
     y="3.9053431" />
</svg>
