<?xml version="1.0" encoding="UTF-8" standalone="no"?>
<!-- Created with Inkscape (http://www.inkscape.org/) -->
<svg
   xmlns:dc="http://purl.org/dc/elements/1.1/"
   xmlns:cc="http://web.resource.org/cc/"
   xmlns:rdf="http://www.w3.org/1999/02/22-rdf-syntax-ns#"
   xmlns:svg="http://www.w3.org/2000/svg"
   xmlns="http://www.w3.org/2000/svg"
   xmlns:xlink="http://www.w3.org/1999/xlink"
   xmlns:sodipodi="http://sodipodi.sourceforge.net/DTD/sodipodi-0.dtd"
   xmlns:inkscape="http://www.inkscape.org/namespaces/inkscape"
   version="1.0"
   width="100"
   height="100"
   id="svg2"
   sodipodi:version="0.32"
   inkscape:version="0.45.1"
   sodipodi:docname="stack_surfaces.svg"
   sodipodi:docbase="/home/tris/src/aten/src/gui-qt/icons"
   inkscape:output_extension="org.inkscape.output.svg.inkscape">
  <metadata
     id="metadata2566">
    <rdf:RDF>
      <cc:Work
         rdf:about="">
        <dc:format>image/svg+xml</dc:format>
        <dc:type
           rdf:resource="http://purl.org/dc/dcmitype/StillImage" />
      </cc:Work>
    </rdf:RDF>
  </metadata>
  <sodipodi:namedview
     inkscape:window-height="714"
     inkscape:window-width="1024"
     inkscape:pageshadow="2"
     inkscape:pageopacity="0.0"
     guidetolerance="10.0"
     gridtolerance="10.0"
     objecttolerance="10.0"
     borderopacity="1.0"
     bordercolor="#666666"
     pagecolor="#ffffff"
     id="base"
     inkscape:zoom="3.4648232"
     inkscape:cx="32.033259"
     inkscape:cy="42.848677"
     inkscape:window-x="0"
     inkscape:window-y="6"
     inkscape:current-layer="svg2" />
  <defs
     id="defs4">
    <linearGradient
       id="linearGradient3461">
      <stop
         style="stop-color:#ffffff;stop-opacity:1;"
         offset="0"
         id="stop3463" />
      <stop
         style="stop-color:#008a00;stop-opacity:0;"
         offset="1"
         id="stop3465" />
    </linearGradient>
    <linearGradient
       id="linearGradient3449">
      <stop
         style="stop-color:#00db00;stop-opacity:1;"
         offset="0"
         id="stop3451" />
      <stop
         style="stop-color:#009d00;stop-opacity:0;"
         offset="1"
         id="stop3453" />
    </linearGradient>
    <linearGradient
       id="linearGradient3384">
      <stop
         style="stop-color:#00ffff;stop-opacity:1;"
         offset="0"
         id="stop3386" />
      <stop
         style="stop-color:#000000;stop-opacity:1"
         offset="1"
         id="stop3388" />
    </linearGradient>
    <linearGradient
       id="linearGradient3252">
      <stop
         style="stop-color:#ffffff;stop-opacity:1"
         offset="0"
         id="stop3254" />
      <stop
         style="stop-color:#7f7fff;stop-opacity:0;"
         offset="1"
         id="stop3256" />
    </linearGradient>
    <linearGradient
       id="linearGradient3149">
      <stop
         style="stop-color:#aa4400;stop-opacity:1"
         offset="0"
         id="stop3151" />
      <stop
         style="stop-color:#aa4400;stop-opacity:0.64948452"
         offset="1"
         id="stop3153" />
    </linearGradient>
    <linearGradient
       id="linearGradient3186">
      <stop
         style="stop-color:#aaaaaa;stop-opacity:1"
         offset="0"
         id="stop3188" />
      <stop
         style="stop-color:#fffffd;stop-opacity:0.50196081"
         offset="1"
         id="stop3190" />
    </linearGradient>
    <radialGradient
       cx="58.01162"
       cy="63.345894"
       r="33.113495"
       fx="58.01162"
       fy="63.345894"
       id="radialGradient3260"
       xlink:href="#linearGradient3252"
       gradientUnits="userSpaceOnUse" />
    <linearGradient
       x1="25.398125"
       y1="63.345894"
       x2="90.625114"
       y2="63.345894"
       id="linearGradient3390"
       xlink:href="#linearGradient3384"
       gradientUnits="userSpaceOnUse" />
    <linearGradient
       x1="25.398125"
       y1="63.345894"
       x2="90.625114"
       y2="63.345894"
       id="linearGradient3459"
       xlink:href="#linearGradient3384"
       gradientUnits="userSpaceOnUse" />
    <radialGradient
       cx="58.01162"
       cy="63.345894"
       r="33.113495"
       fx="58.01162"
       fy="63.345894"
       id="radialGradient3461"
       xlink:href="#linearGradient3252"
       gradientUnits="userSpaceOnUse" />
    <linearGradient
       x1="25.398125"
       y1="63.345894"
       x2="90.625114"
       y2="63.345894"
       id="linearGradient3480"
       xlink:href="#linearGradient3384"
       gradientUnits="userSpaceOnUse" />
    <radialGradient
       cx="58.01162"
       cy="63.345894"
       r="33.113495"
       fx="58.01162"
       fy="63.345894"
       id="radialGradient3482"
       xlink:href="#linearGradient3252"
       gradientUnits="userSpaceOnUse" />
    <linearGradient
       x1="25.398125"
       y1="63.345894"
       x2="90.625114"
       y2="63.345894"
       id="linearGradient3490"
       xlink:href="#linearGradient3384"
       gradientUnits="userSpaceOnUse" />
    <radialGradient
       cx="58.01162"
       cy="63.345894"
       r="33.113495"
       fx="58.01162"
       fy="63.345894"
       id="radialGradient3492"
       xlink:href="#linearGradient3252"
       gradientUnits="userSpaceOnUse" />
    <radialGradient
       inkscape:collect="always"
       xlink:href="#linearGradient3252"
       id="radialGradient2667"
       gradientUnits="userSpaceOnUse"
       cx="58.01162"
       cy="63.345894"
       fx="58.01162"
       fy="63.345894"
       r="33.113495"
       gradientTransform="matrix(0.2740521,0,0,0.2740521,28.80419,13.981316)" />
    <linearGradient
       inkscape:collect="always"
       xlink:href="#linearGradient3384"
       id="linearGradient2670"
       gradientUnits="userSpaceOnUse"
       x1="25.398125"
       y1="63.345894"
       x2="90.625114"
       y2="63.345894"
       gradientTransform="matrix(0.3452564,0.3452564,-0.3452564,0.3452564,52.458591,-4.5216519)" />
    <linearGradient
       inkscape:collect="always"
       xlink:href="#linearGradient3384"
       id="linearGradient3664"
       gradientUnits="userSpaceOnUse"
       gradientTransform="matrix(0.3452564,0.3452564,-0.3452564,0.3452564,52.458591,-4.5216519)"
       x1="25.398125"
       y1="63.345894"
       x2="90.625114"
       y2="63.345894" />
    <radialGradient
       inkscape:collect="always"
       xlink:href="#linearGradient3252"
       id="radialGradient3666"
       gradientUnits="userSpaceOnUse"
       gradientTransform="matrix(0.2740521,0,0,0.2740521,28.80419,13.981316)"
       cx="58.01162"
       cy="63.345894"
       fx="58.01162"
       fy="63.345894"
       r="33.113495" />
    <linearGradient
       inkscape:collect="always"
       xlink:href="#linearGradient3384"
       id="linearGradient3676"
       gradientUnits="userSpaceOnUse"
       gradientTransform="matrix(0.3452564,0.3452564,-0.3452564,0.3452564,52.458591,-4.5216519)"
       x1="25.398125"
       y1="63.345894"
       x2="90.625114"
       y2="63.345894" />
    <radialGradient
       inkscape:collect="always"
       xlink:href="#linearGradient3252"
       id="radialGradient3678"
       gradientUnits="userSpaceOnUse"
       gradientTransform="matrix(0.2740521,0,0,0.2740521,28.80419,13.981316)"
       cx="58.01162"
       cy="63.345894"
       fx="58.01162"
       fy="63.345894"
       r="33.113495" />
    <linearGradient
       inkscape:collect="always"
       xlink:href="#linearGradient3384"
       id="linearGradient4676"
       gradientUnits="userSpaceOnUse"
       gradientTransform="matrix(0.3452564,0.3452564,-0.3452564,0.3452564,52.458591,-4.5216519)"
       x1="25.398125"
       y1="63.345894"
       x2="90.625114"
       y2="63.345894" />
    <radialGradient
       inkscape:collect="always"
       xlink:href="#linearGradient3252"
       id="radialGradient4678"
       gradientUnits="userSpaceOnUse"
       gradientTransform="matrix(0.2740521,0,0,0.2740521,28.80419,13.981316)"
       cx="58.01162"
       cy="63.345894"
       fx="58.01162"
       fy="63.345894"
       r="33.113495" />
    <linearGradient
       inkscape:collect="always"
       xlink:href="#linearGradient3384"
       id="linearGradient4680"
       gradientUnits="userSpaceOnUse"
       gradientTransform="matrix(0.3452564,0.3452564,-0.3452564,0.3452564,52.458591,-4.5216519)"
       x1="25.398125"
       y1="63.345894"
       x2="90.625114"
       y2="63.345894" />
    <radialGradient
       inkscape:collect="always"
       xlink:href="#linearGradient3252"
       id="radialGradient4682"
       gradientUnits="userSpaceOnUse"
       gradientTransform="matrix(0.2740521,0,0,0.2740521,28.80419,13.981316)"
       cx="58.01162"
       cy="63.345894"
       fx="58.01162"
       fy="63.345894"
       r="33.113495" />
    <linearGradient
       inkscape:collect="always"
       xlink:href="#linearGradient3384"
       id="linearGradient4684"
       gradientUnits="userSpaceOnUse"
       gradientTransform="matrix(0.3452564,0.3452564,-0.3452564,0.3452564,52.458591,-4.5216519)"
       x1="25.398125"
       y1="63.345894"
       x2="90.625114"
       y2="63.345894" />
    <radialGradient
       inkscape:collect="always"
       xlink:href="#linearGradient3252"
       id="radialGradient4686"
       gradientUnits="userSpaceOnUse"
       gradientTransform="matrix(0.2740521,0,0,0.2740521,28.80419,13.981316)"
       cx="58.01162"
       cy="63.345894"
       fx="58.01162"
       fy="63.345894"
       r="33.113495" />
    <linearGradient
       inkscape:collect="always"
       xlink:href="#linearGradient3384"
       id="linearGradient3557"
       gradientUnits="userSpaceOnUse"
       gradientTransform="matrix(0.3452564,0.3452564,-0.3452564,0.3452564,52.458591,-4.5216519)"
       x1="25.398125"
       y1="63.345894"
       x2="90.625114"
       y2="63.345894" />
    <radialGradient
       inkscape:collect="always"
       xlink:href="#linearGradient3252"
       id="radialGradient3559"
       gradientUnits="userSpaceOnUse"
       gradientTransform="matrix(0.2740521,0,0,0.2740521,28.80419,13.981316)"
       cx="58.01162"
       cy="63.345894"
       fx="58.01162"
       fy="63.345894"
       r="33.113495" />
    <linearGradient
       inkscape:collect="always"
       xlink:href="#linearGradient3384"
       id="linearGradient3573"
       gradientUnits="userSpaceOnUse"
       gradientTransform="matrix(0.3452564,0.3452564,-0.3452564,0.3452564,52.458591,-4.5216519)"
       x1="25.398125"
       y1="63.345894"
       x2="90.625114"
       y2="63.345894" />
    <radialGradient
       inkscape:collect="always"
       xlink:href="#linearGradient3252"
       id="radialGradient3575"
       gradientUnits="userSpaceOnUse"
       gradientTransform="matrix(0.2740521,0,0,0.2740521,28.80419,13.981316)"
       cx="58.01162"
       cy="63.345894"
       fx="58.01162"
       fy="63.345894"
       r="33.113495" />
    <linearGradient
       inkscape:collect="always"
       xlink:href="#linearGradient3384"
       id="linearGradient3589"
       gradientUnits="userSpaceOnUse"
       gradientTransform="matrix(0.3452564,0.3452564,-0.3452564,0.3452564,52.458591,-4.5216519)"
       x1="25.398125"
       y1="63.345894"
       x2="90.625114"
       y2="63.345894" />
    <radialGradient
       inkscape:collect="always"
       xlink:href="#linearGradient3252"
       id="radialGradient3591"
       gradientUnits="userSpaceOnUse"
       gradientTransform="matrix(0.2740521,0,0,0.2740521,28.80419,13.981316)"
       cx="58.01162"
       cy="63.345894"
       fx="58.01162"
       fy="63.345894"
       r="33.113495" />
    <radialGradient
       inkscape:collect="always"
       xlink:href="#linearGradient3461"
       id="radialGradient3641"
       gradientUnits="userSpaceOnUse"
       gradientTransform="matrix(0.6042521,0,0,0.6043579,182.42157,-109.21963)"
       cx="15.556526"
       cy="56.583721"
       fx="15.556526"
       fy="56.583721"
       r="6.1542277" />
    <linearGradient
       inkscape:collect="always"
       xlink:href="#linearGradient3449"
       id="linearGradient3644"
       gradientUnits="userSpaceOnUse"
       x1="8.6629602"
       y1="60.740168"
       x2="30.595094"
       y2="60.740168"
       gradientTransform="matrix(0.6042521,0,0,0.6042521,182.42157,-109.21364)" />
    <radialGradient
       inkscape:collect="always"
       xlink:href="#linearGradient3461"
       id="radialGradient3648"
       gradientUnits="userSpaceOnUse"
       gradientTransform="matrix(0.6042521,0,0,0.6043579,182.3991,-87.482868)"
       cx="15.556526"
       cy="56.583721"
       fx="15.556526"
       fy="56.583721"
       r="6.1542277" />
    <linearGradient
       inkscape:collect="always"
       xlink:href="#linearGradient3449"
       id="linearGradient3651"
       gradientUnits="userSpaceOnUse"
       x1="8.6629602"
       y1="60.740168"
       x2="30.595094"
       y2="60.740168"
       gradientTransform="matrix(0.6042521,0,0,0.6042521,182.3991,-87.476882)" />
    <radialGradient
       inkscape:collect="always"
       xlink:href="#linearGradient3461"
       id="radialGradient3655"
       gradientUnits="userSpaceOnUse"
       gradientTransform="matrix(0.6042521,0,0,0.6043579,182.68831,-65.50327)"
       cx="15.556526"
       cy="56.583721"
       fx="15.556526"
       fy="56.583721"
       r="6.1542277" />
    <linearGradient
       inkscape:collect="always"
       xlink:href="#linearGradient3449"
       id="linearGradient3658"
       gradientUnits="userSpaceOnUse"
       x1="8.6629602"
       y1="60.740168"
       x2="30.595094"
       y2="60.740168"
       gradientTransform="matrix(0.6042521,0,0,0.6042521,182.68831,-65.497284)" />
  </defs>
  <path
     style="fill:none;fill-rule:evenodd;stroke:#000000;stroke-width:0.26063856;stroke-opacity:1"
     d="M 44.711156,66.195393 C 45.615474,67.933836 46.77828,78.304819 45.089425,71.34752 C 44.763049,69.764224 44.437096,68.1799 44.085384,66.623877"
     id="path3918" />
  <path
     style="fill:none;fill-rule:evenodd;stroke:#000000;stroke-width:0.26063856;stroke-opacity:1"
     d="M 43.44205,67.132041 C 44.82423,69.540293 45.024353,78.605614 43.563594,70.941221 C 43.31947,69.828002 43.069247,68.72093 42.798716,67.638643"
     id="path3922" />
  <path
     style="fill:none;fill-rule:evenodd;stroke:#000000;stroke-width:0.26063856;stroke-opacity:1"
     d="M 42.154694,68.226099 C 43.552657,69.825493 43.615841,78.904867 42.292715,71.817628 C 42.049103,70.801494 41.799234,69.792248 41.528921,68.810418"
     id="path3926" />
  <path
     style="fill:none;fill-rule:evenodd;stroke:#000000;stroke-width:0.26063856;stroke-opacity:1"
     d="M 41.528921,68.81199 C 43.233368,69.97881 42.688975,78.858051 41.621299,72.18876 C 41.364214,71.274758 41.107775,70.357878 40.885587,69.397873"
     id="path3928" />
  <path
     style="fill:none;fill-rule:evenodd;stroke:#000000;stroke-width:0.26063856;stroke-opacity:1"
     d="M 40.884893,69.397883 C 42.708825,71.062166 41.969679,79.06243 40.854608,72.220401 C 40.639684,71.502873 40.428393,70.778488 40.241559,70.021647"
     id="path3930" />
  <path
     style="fill:none;fill-rule:evenodd;stroke:#000000;stroke-width:0.26063856;stroke-opacity:1"
     d="M 40.241559,70.02322 C 42.094283,71.473297 41.282521,79.219365 40.200262,72.672694 C 39.98929,72.027105 39.781706,71.374392 39.598047,70.687231"
     id="path3932" />
  <path
     style="fill:none;fill-rule:evenodd;stroke:#000000;stroke-width:0.26063856;stroke-opacity:1"
     d="M 39.598047,70.687231 C 41.405646,71.616046 40.674037,79.395432 39.639371,73.352762 L 39.293342,72.373554 L 38.972452,71.352414"
     id="path3934" />
  <path
     style="fill:none;fill-rule:evenodd;stroke:#000000;stroke-width:0.26063856;stroke-opacity:1"
     d="M 38.971763,71.350851 C 40.870848,72.319687 39.93256,79.341719 38.965338,73.704886 L 38.640066,72.853428 L 38.32843,71.976188"
     id="path3936" />
  <path
     style="fill:none;fill-rule:evenodd;stroke:#000000;stroke-width:0.26063856;stroke-opacity:1"
     d="M 38.32843,71.976188 C 40.706351,76.09156 39.073798,78.024194 37.684919,72.641371"
     id="path3938" />
  <path
     style="fill:none;fill-rule:evenodd;stroke:#000000;stroke-width:0.26063856;stroke-opacity:1"
     d="M 37.684919,72.640188 C 40.030294,75.664361 38.205284,78.101428 37.041585,73.265536"
     id="path3940" />
  <path
     style="fill:none;fill-rule:evenodd;stroke:#000000;stroke-width:0.26063856;stroke-opacity:1"
     d="M 37.041585,73.265536 C 39.604385,76.720186 37.899393,78.376502 36.398252,73.852991"
     id="path3942" />
  <path
     style="fill:none;fill-rule:evenodd;stroke:#000000;stroke-width:0.26063856;stroke-opacity:1"
     d="M 36.398252,73.851429 C 38.899707,76.351029 36.789631,78.020287 35.772485,74.437321"
     id="path3944" />
  <path
     style="fill:none;fill-rule:evenodd;stroke:#000000;stroke-width:0.26063856;stroke-opacity:1"
     d="M 35.771791,74.437321 C 38.449068,76.761564 35.98848,77.476872 35.128456,74.945475"
     id="path3946" />
  <path
     style="fill:none;fill-rule:evenodd;stroke:#000000;stroke-width:0.2;stroke-miterlimit:4;stroke-dasharray:none;stroke-opacity:1"
     d="M 72.060905,26.655155 C 77.057797,28.044706 68.188279,29.596528 71.417564,26.772337 M 71.417564,26.772337 C 76.283972,28.209373 67.429135,29.741833 70.774055,26.92662 M 70.774055,26.928185 C 75.449939,28.6418 66.428912,30.019463 70.148468,27.16293 M 70.147774,27.16293 C 74.08096,28.481457 66.354544,29.685105 69.50444,27.47423 M 69.50444,27.475794 C 74.389551,29.122532 65.049527,31.304761 68.860924,27.828112 M 68.860924,27.826939 C 72.818736,29.054093 65.166398,30.677846 68.217598,28.217531 M 68.217598,28.217531 C 72.184206,29.285628 64.608,31.267796 67.592003,28.646015 M 67.591301,28.647577 C 72.537544,29.771899 63.517635,32.956674 66.9478,29.154179 M 66.9478,29.154179 C 71.756425,30.451048 62.921377,33.175153 66.304466,29.662344 M 66.304466,29.662344 C 71.078694,30.685345 62.409537,33.736327 65.661125,30.168936 M 65.661125,30.170509 C 69.657111,30.811393 62.307181,33.554724 65.017799,30.716557 M 65.017097,30.716557 C 68.972898,31.375716 61.761125,33.963649 64.391335,31.262602 M 64.391335,31.264166 C 68.346469,31.795373 61.164929,34.505511 63.747993,31.810602 M 63.747993,31.810602 C 67.769683,32.381097 60.426214,35.201945 63.104668,32.358223 M 63.103973,32.358223 C 67.002169,32.991821 59.846511,35.716461 62.460636,32.90583 M 62.460636,32.904659 C 66.385411,33.542359 59.18706,36.145415 61.834866,33.412434 M 61.834866,33.412434 C 66.148298,33.864923 58.467779,36.694871 61.19154,33.882317 M 61.190842,33.881145 C 65.692739,34.20369 57.809839,37.244964 60.547502,34.349463 M 60.547501,34.349464 C 65.736681,33.31329 58.15998,38.521051 59.903998,34.779509 M 59.903999,34.77951 C 63.111104,34.419034 57.590359,38.010257 59.278403,35.171664 M 59.277706,35.170113 C 61.78602,34.769387 58.158908,37.634983 58.634374,35.560692 M 58.634373,35.560692 C 60.575901,35.206662 58.087852,37.196549 57.990869,35.873567 M 57.990868,35.873566 C 59.184723,35.723769 57.234783,37.111521 57.347535,36.18643 M 57.347534,36.184868 C 57.534149,36.660025 56.716417,35.976832 56.704195,36.418441 M 56.704193,36.420006 C 57.478787,36.066476 55.413903,36.259052 56.078429,36.65475 M 56.07774,36.654751 C 57.289176,36.978562 54.927954,35.912421 55.08954,36.50725 L 55.434406,36.851612 M 55.434406,36.850052 C 57.505074,36.351484 54.036917,35.787528 54.791066,37.005896 M 54.791065,37.005898 C 57.520562,36.566371 52.895121,35.373333 54.14774,37.124631 M 54.147038,37.123077 C 56.70168,36.461137 52.048341,35.630198 53.521272,37.240642 M 53.521271,37.240643 C 57.331752,36.5097 51.57066,35.066211 52.877938,37.319932 M 52.877937,37.318371 C 56.74349,36.314545 50.578676,35.303858 52.234603,37.39766 M 52.23391,37.396488 C 55.898011,36.361441 49.816601,35.292318 51.590575,37.435943 M 51.590576,37.435944 C 55.205337,36.435924 49.129006,35.240821 50.94707,37.437506 M 50.947071,37.435944 C 54.716507,36.319023 48.429117,35.379133 50.321475,37.475778 M 50.320782,37.474216 C 54.195165,36.333138 47.651807,35.139484 49.677446,37.474216 M 49.677444,37.474216 C 53.548057,36.290283 46.971873,35.134997 49.033942,37.475778 M 49.033943,37.474216 C 52.858892,36.298066 46.347601,35.143332 48.390609,37.474216 M 48.39061,37.474216 C 51.939319,36.26983 45.756114,35.290373 47.765012,37.474216 M 47.764313,37.474216 C 51.306619,36.254809 45.102005,35.282177 47.120807,37.474216 M 47.120808,37.474216 C 50.655166,36.268462 44.478397,35.281143 46.477472,37.474216 M 46.47747,37.474216 C 49.853145,36.241112 43.96933,35.404379 45.834139,37.512108 M 45.834141,37.513672 C 49.302576,36.360659 43.251306,35.394979 45.208373,37.512108 M 45.20768,37.513672 C 48.836301,36.352321 42.649924,35.4555 44.564344,37.553506 M 44.564342,37.551945 C 48.166175,36.414002 42.031005,35.505781 43.921003,37.590226 M 43.921009,37.591778 C 47.422346,36.481311 41.470848,35.518867 43.277677,37.629681 M 43.276981,37.631233 C 46.8427,36.526649 40.951754,35.565239 42.633647,37.707409 M 42.633648,37.708961 C 46.263395,36.614321 40.337512,35.625475 42.007875,37.787079 M 42.007874,37.787079 C 45.601029,36.698319 39.710022,35.696964 41.364547,37.864807 M 41.363846,37.864807 C 44.921927,36.672403 39.011864,35.975023 40.720512,37.980818 M 40.720512,37.98238 C 44.270911,36.814892 38.401071,36.079227 40.077007,38.09799 M 40.077007,38.099564 C 43.754846,36.994953 37.863751,36.092594 39.451412,38.215564 M 39.450718,38.217125 C 42.950133,36.997489 37.245696,36.308302 38.807383,38.37141 M 38.807384,38.372971 C 42.328079,37.156644 36.618833,36.439279 38.163872,38.528427 M 38.163872,38.528427 C 41.659334,37.309536 35.968451,36.615823 37.520545,38.683882 M 37.520546,38.685455 C 41.028098,37.421554 35.397748,36.867317 36.89495,38.879184 M 36.894257,38.880745 C 40.420585,37.510276 34.630736,37.026997 36.250744,39.076036 M 36.250744,39.076035 C 39.721832,37.680313 33.949318,37.270206 35.60741,39.269775 M 35.60741,39.271336 C 39.099086,37.737554 33.350346,37.415458 34.964075,39.506474 M 34.964073,39.50491 C 39.046319,38.831831 33.461243,37.305185 34.320742,39.738495 M 34.320045,39.740047 C 37.765655,38.162895 32.094158,37.86 33.694281,39.974803 M 33.694283,39.974804 C 37.10205,38.39043 31.446953,38.102557 33.050947,40.208377 M 33.050945,40.208378 C 36.461635,38.624489 30.802643,38.333962 32.407614,40.44156 M 32.40691,40.443123 C 35.880504,38.996633 30.293901,38.5541 31.763584,40.676696 M 31.763584,40.676697 C 35.312076,39.255084 29.685519,38.765324 31.137812,40.908717 M 31.137812,40.911831 C 34.666478,39.601829 28.978844,39.006266 30.494478,41.107133 M 30.493784,41.107132 C 34.148513,39.879149 28.569844,39.147832 29.850449,41.340316 M 29.850449,41.341877 C 33.352054,40.134906 27.81591,39.459065 29.206945,41.53718 M 29.206945,41.537182 C 31.983488,40.430867 27.143724,40.10502 28.581349,41.730908 M 28.580654,41.732471 C 31.229317,40.853918 27.09147,40.376157 27.937321,41.926209 M 27.937321,41.927773 C 30.717535,41.094205 26.308683,40.414567 27.293816,42.083617 M 27.293816,42.083618 C 29.647941,41.498914 25.941327,40.779078 26.650482,42.199227 M 26.650482,42.20079 C 28.757632,41.656935 25.664405,41.182534 26.007142,42.318363 M 26.007141,42.318363 C 27.410258,41.809966 24.654335,41.505416 25.381376,42.39609 M 25.380688,42.396091 C 27.378331,42.552093 24.771706,41.42026 24.737347,42.434373 M 24.737347,42.434372 C 25.900585,42.256373 24.271204,42.246837 24.094013,42.4328 M 24.094013,42.434372 C 25.061647,42.233099 23.081619,43.133193 23.450679,42.39609 M 23.449984,42.396091 C 25.030707,41.89669 23.082812,43.354862 22.688441,42.740921 L 22.824219,42.356647 M 22.824219,42.356647 C 24.999808,42.556144 21.441484,43.627664 22.180884,42.278908 M 22.180883,42.278908 C 24.812063,43.090231 20.14846,43.652715 21.537552,42.121498 M 21.536856,42.123074 C 24.35418,43.242017 18.771589,43.346347 20.893522,41.966044 M 20.893522,41.966045 C 24.763525,43.127071 18.812344,43.900536 20.267756,41.770753 M 20.267756,41.770752 C 23.868555,43.24286 17.970428,43.568732 19.624422,41.535607 M 19.62372,41.537182 C 23.541914,42.79058 17.405742,43.474354 18.980393,41.302424 M 18.980392,41.302425 C 22.974481,41.791694 17.283912,43.33715 18.336889,41.029015 M 18.336889,41.029015 C 22.387046,42.057213 16.270163,42.931375 17.693548,40.71653 M 17.693548,40.71653 C 21.66867,41.601178 15.747906,42.615887 17.067959,40.403667 M 17.067259,40.403667 C 21.074076,41.281316 15.127523,42.330547 16.423754,40.090805 M 16.423754,40.090805 C 20.31248,41.41965 14.179016,41.905833 15.78042,39.776379 M 15.78042,39.779503 C 19.807385,40.992466 13.552029,41.624504 15.137086,39.466637 M 15.137086,39.466637 C 19.2027,40.569225 12.993926,41.375402 14.51132,39.193611 M 14.510625,39.193611 C 18.447611,40.343129 12.254889,41.076083 13.867284,38.920582 M 13.867284,38.919029 C 17.984614,39.678874 11.872435,40.968828 13.223957,38.685455 M 13.223957,38.685455 C 17.401001,39.637141 11.070081,40.698156 12.580623,38.452263 M 12.579921,38.450699 C 16.789867,38.922891 10.694354,40.662715 11.954155,38.294853 M 11.954155,38.294853 C 15.894679,39.239012 9.7189066,40.485472 11.310822,38.177681 M 11.310822,38.177681 C 15.576329,37.978684 9.7780632,40.65137 10.667495,38.139397 M 10.666793,38.137836 C 13.886979,39.74045 8.0909227,40.526376 10.023459,38.137836 M 10.023459,38.137836 C 14.106358,37.537635 8.7322031,40.774636 9.3799546,38.177681 M 9.3799543,38.177681 C 13.110126,39.386887 6.6277356,40.961904 8.7543591,38.296417 M 74.478752,33.177689 C 78.335773,33.358811 71.507431,36.840453 73.835411,33.841309 M 73.835411,33.841309 C 77.698262,33.915109 71.022415,37.520566 73.209648,34.543201 M 73.208954,34.544765 C 77.078329,34.800437 70.260015,38.072042 72.565628,35.208385 M 72.565628,35.208385 C 76.378578,35.457532 69.591462,38.856836 71.922287,35.872005 M 71.922287,35.873566 C 75.967748,36.19235 68.804521,39.230472 71.278954,36.459457 M 71.278259,36.459457 C 75.4175,36.573689 68.26929,39.901998 70.652497,37.045341 M 70.652496,37.045341 C 75.03704,37.23599 67.37654,40.519206 70.009156,37.553506 M 70.009155,37.551945 C 73.87183,37.229996 67.837882,40.970163 69.365821,37.98238 M 69.365128,37.98238 C 71.958013,37.515868 68.343438,40.510313 68.721786,38.374144 M 68.721786,38.372971 C 70.541308,38.316913 67.907189,39.982866 68.078281,38.646 M 68.078278,38.646 C 69.336161,38.504833 67.269599,39.826643 67.452686,38.880746 M 67.451996,38.880745 C 68.307433,38.925936 66.35634,38.36326 66.808657,38.996757 M 66.808655,38.99831 C 68.368765,38.864131 64.90298,38.099547 66.165154,39.07761 M 66.165154,39.076035 C 68.330352,38.79928 64.658483,37.589693 65.521819,39.038154 M 65.52182,39.036591 C 69.7669,39.618054 63.015083,36.459561 64.896224,38.919029 M 64.895531,38.919029 C 68.665801,39.000885 62.202928,36.261545 64.252025,38.763574 M 64.252022,38.763573 C 68.496778,38.557581 61.394088,36.09294 63.608691,38.52999 M 63.608692,38.528427 C 68.050384,37.956754 60.396137,35.70144 62.965351,38.255409 M 62.965351,38.255409 C 68.359832,38.506173 60.294505,35.189639 62.339584,37.904262 M 62.338898,37.904263 C 67.531802,38.10171 59.272719,34.344662 61.695562,37.553506 M 61.69556,37.551945 C 66.368504,37.467249 58.587871,34.393635 61.052221,37.161352 M 61.052219,37.16135 C 64.672243,37.269175 58.449285,34.028557 60.408888,36.732477 M 60.408199,36.732475 C 63.359778,37.342342 58.690746,33.694486 59.764858,36.341886 M 59.764858,36.341885 C 62.102834,36.783748 58.753791,33.934339 59.139093,35.911839 M 59.139091,35.911839 C 60.930975,36.164388 58.370779,34.107673 58.495759,35.521248 M 58.495064,35.521248 C 59.70691,35.631561 57.911545,34.157755 57.85173,35.092384 M 57.85173,35.092384 C 57.969009,34.534866 57.161238,35.24146 57.208225,34.741628 M 57.208225,34.740055 C 57.792058,35.333598 55.781912,34.571528 56.58263,34.387356 M 56.581936,34.38892 C 59.204253,35.394899 54.65738,35.496593 55.938601,34.076445 M 55.938602,34.076447 C 58.433078,35.47981 53.64275,35.080803 55.295097,33.762008 M 55.295097,33.76358 C 58.944119,35.39382 52.796146,35.482773 54.651763,33.528434 M 54.651764,33.530006 C 57.976434,35.359383 52.069141,35.235575 54.026169,33.296425 M 54.025467,33.295254 C 58.168026,33.446786 52.387239,35.547444 53.381962,33.137844 M 53.381962,33.139404 C 57.555855,33.36 51.687258,35.392719 52.738628,32.983952 M 52.738628,32.982388 C 57.044294,33.356474 50.825758,35.26406 52.095295,32.863262 M 52.095295,32.864815 C 56.508041,34.038188 49.298441,34.933998 51.451962,32.787086 M 51.451263,32.787086 C 55.619054,35.291403 46.888451,34.781863 50.8255,32.747253 M 50.8255,32.748814 C 54.86492,35.395339 46.017045,34.830742 50.182159,32.747253 M 50.182159,32.748814 C 53.791936,34.904157 45.829267,34.49922 49.53883,32.748814 M 49.538136,32.748814 C 53.516383,35.030013 44.936052,35.194625 48.894794,32.788658 M 48.894794,32.787086 C 53.036791,35.219182 44.291191,35.067727 48.269032,32.824978 M 48.269032,32.826542 C 52.254422,35.145996 43.663481,35.406311 47.625702,32.904659 M 47.625,32.904659 C 51.642589,35.113717 43.133468,35.705124 46.981667,32.980824 M 46.981667,32.982388 C 50.422795,34.830597 43.031437,35.311434 46.338161,33.060116 M 46.338161,33.060116 C 49.846729,34.827131 42.477162,35.597104 45.712566,33.176125 M 45.711872,33.177689 C 49.275879,34.95086 41.713042,35.744962 45.068539,33.293697 M 45.068539,33.295254 C 48.309627,34.939356 41.385122,35.883777 44.425034,33.372978 M 44.425034,33.372978 C 47.634854,34.824884 40.96387,35.959365 43.7817,33.488991 M 43.7817,33.490551 C 47.325763,35.268531 39.775092,36.037092 43.138359,33.607735 M 43.138359,33.607735 C 46.607325,35.389934 39.283262,36.11093 42.512592,33.723736 M 42.511906,33.7253 C 46.057429,35.50771 38.500273,36.268714 41.868565,33.841309 M 41.868565,33.841309 C 45.824233,35.896275 37.543051,36.985836 41.225231,33.958874 M 41.225231,33.958874 C 44.566826,35.60003 37.522939,36.58959 40.581898,34.114326 M 40.581203,34.115891 C 44.117768,35.872552 36.614432,36.675199 39.955437,34.235023 M 39.955437,34.231899 C 43.49103,35.985728 35.981324,36.783711 39.312103,34.351025 M 39.312103,34.349464 C 43.473959,36.430847 34.918668,37.483373 38.66877,34.504917 M 38.668076,34.506481 C 42.700129,36.553808 34.216266,37.305449 38.024738,34.663509 M 38.024738,34.662327 C 41.677663,36.637022 33.821549,36.9439 37.398968,34.817783 M 37.398968,34.817783 C 40.967817,36.745299 33.381031,36.817143 36.755634,35.014656 M 36.754936,35.013084 C 40.926495,37.161826 32.229013,37.605091 36.111603,35.208385 M 36.111603,35.208385 C 40.443585,37.312051 31.615577,38.170874 35.468102,35.441959 M 35.468102,35.44352 C 39.259181,37.207498 31.46688,37.668112 34.824768,35.678265 M 34.824768,35.678265 C 38.709572,37.024879 31.024765,38.208643 34.199177,35.992691 M 34.198475,35.989578 C 38.123135,37.353445 30.37685,38.515345 33.55497,36.302429 M 33.55497,36.302429 C 37.294324,37.348789 30.530904,39.439493 32.911636,36.615307 M 32.911636,36.615307 C 36.963506,37.678414 29.235762,39.487387 32.268295,37.005898 M 32.268295,37.005898 C 36.360623,37.843151 28.7586,40.060921 31.64253,37.435944 M 31.641844,37.435944 C 35.31481,37.923845 29.253952,40.960282 30.998502,37.867932 M 30.998503,37.864807 C 34.880832,37.884381 28.544159,41.55438 30.355168,38.372972 M 30.355167,38.372971 C 35.293747,37.33491 28.086456,42.376387 29.711835,38.880746 M 29.71114,38.880745 C 32.624081,38.19047 28.052201,42.25509 29.067806,39.428746 M 29.067806,39.427185 C 31.089394,38.866567 28.426429,41.782486 28.44204,40.013076 M 28.442039,40.013077 C 30.103777,39.64395 27.927777,42.031977 27.798705,40.638413 M 27.798012,40.638412 C 28.931398,40.40159 27.391675,42.107621 27.154677,41.262589 M 27.154676,41.262589 C 27.859378,39.291133 27.540647,42.827376 26.511171,41.927773 M 26.511171,41.927773 C 26.859555,42.395005 25.6837,42.125241 25.885577,42.591391 M 25.884876,42.591393 C 26.528969,41.892596 24.890022,42.866573 25.241548,43.215556 M 25.241549,43.215557 C 26.287345,42.366985 24.193293,43.394369 24.598037,43.879176 M 24.598038,43.880737 C 26.179994,42.706291 23.102309,43.974726 23.954704,44.506466 M 23.954704,44.504906 C 25.476116,43.840008 23.113347,44.032912 23.148748,44.805832 L 23.329115,45.089233 M 23.328413,45.090797 C 25.279271,44.7201 21.559353,44.627562 22.68491,45.676689 M 22.68491,45.676689 C 24.849042,45.345459 21.03364,45.012942 22.041574,46.183292 M 22.041574,46.184853 C 23.74776,45.217975 20.577638,46.067035 21.398241,46.653172 M 21.398241,46.653172 C 22.485581,45.974417 20.362111,46.521159 20.754907,47.042201 M 20.754206,47.043762 C 20.576004,47.130807 20.40887,47.565701 20.128439,47.39452 M 20.128439,47.396084 C 19.913994,47.48709 19.69955,47.578096 19.485106,47.669102 M 19.485106,47.669102 C 20.585392,46.898793 18.806212,48.79186 18.841778,47.823395 M 18.841078,47.824947 C 20.319819,47.000125 18.714938,48.86005 18.166678,48.342603 L 18.197742,47.94252 M 18.197742,47.94252 C 20.374662,47.656104 17.310034,49.396984 17.571977,47.980403 M 17.571978,47.981976 C 19.871145,48.873701 14.999563,49.152748 16.92865,47.902676 M 16.927948,47.902676 C 20.722481,48.520711 15.1352,49.902392 16.284614,47.785112 M 16.284615,47.786674 C 18.735441,48.891192 13.938468,48.926419 15.64111,47.550367 M 15.64111,47.551929 C 19.312123,48.775942 13.656452,49.433055 15.015514,47.276947 M 15.014819,47.278511 C 18.260442,49.105282 12.65304,48.870575 14.371485,46.966036 M 14.371485,46.966038 C 18.21384,48.504743 12.395631,48.747037 13.727981,46.575445 M 13.727981,46.575443 C 16.880227,48.663726 11.403809,48.079723 13.084641,46.184853 M 13.084641,46.184853 C 16.731148,48.134616 11.050888,47.892206 12.441307,45.714581 M 12.441307,45.716133 C 16.240663,47.284121 10.206015,47.328963 11.815541,45.287649 M 11.814853,45.286098 C 15.557133,46.888096 9.5314308,46.861339 11.171512,44.85566 M 76.896072,40.79427 C 82.322043,40.639446 73.370795,45.386208 76.270311,41.224305 M 76.270309,41.224304 C 79.626258,40.877696 74.040089,44.32325 75.626977,41.53718 M 75.626282,41.537182 C 77.804853,41.651319 74.324888,43.362706 74.982941,41.734032 M 74.982941,41.732471 C 76.399646,42.080251 73.870851,42.757578 74.339437,41.772306 M 74.339439,41.770752 C 75.237614,42.231654 73.905475,41.625433 73.713848,41.73247 M 73.713158,41.732471 C 75.491482,42.846572 72.800328,39.989174 73.069817,41.538731 M 73.069817,41.537182 C 74.59426,41.906242 72.169252,40.054035 72.426308,41.262589 M 72.426308,41.262589 C 74.624407,41.513729 70.188627,39.081321 71.782981,40.871997 M 71.782982,40.871998 C 74.418575,42.044683 70.445536,37.734539 71.157379,40.363832 M 71.156685,40.365395 C 73.743924,41.772811 70.166567,37.22631 70.513173,39.819348 M 70.513176,39.817776 C 73.133639,41.057902 69.338363,36.580514 69.869853,39.231882 M 69.86985,39.23188 C 72.352694,40.48261 68.888412,36.0122 69.226512,38.568273 M 69.226509,38.568272 C 71.708476,39.289384 67.519035,35.305316 68.583179,37.904262 M 68.582481,37.904263 C 70.30407,38.462887 68.086893,35.809126 67.956717,37.280477 M 67.956718,37.278927 C 69.378517,37.67737 67.63236,35.56126 67.313376,36.616467 M 67.313377,36.615307 C 68.4738,37.128846 66.927306,35.998832 66.670049,36.02785 M 66.669357,36.029411 C 67.350509,36.672906 65.263604,35.727763 66.026014,35.521248 M 66.026016,35.521248 C 68.526215,36.808941 64.146674,36.308269 65.400241,35.052929 M 65.400238,35.052929 C 67.733837,36.486264 62.972675,35.898622 64.756914,34.701782 M 64.756218,34.701782 C 68.894158,34.9103 63.132562,36.808162 64.112885,34.427191 M 64.112885,34.427193 C 68.282305,34.589087 62.476939,36.665378 63.469379,34.270172 M 63.469379,34.271736 C 68.952789,36.259366 59.571488,36.680612 62.843784,34.231899 M 62.84309,34.231899 C 67.25435,36.540507 58.135416,36.694501 62.199749,34.309628 M 62.199749,34.311192 C 65.865982,36.087433 58.156124,36.687316 61.556252,34.506481 M 61.556252,34.506481 C 65.38753,35.901136 57.738662,37.355107 60.912918,34.77951 M 60.912918,34.77951 C 64.711248,35.867379 57.411565,37.799398 60.269577,35.168537 M 60.269577,35.170113 C 64.823025,36.381825 56.477266,39.390964 59.64381,35.638821 M 59.643116,35.638821 C 63.94277,36.53096 56.416262,40.183473 58.999783,36.224705 M 58.999783,36.224705 C 62.863949,36.681832 55.978161,40.232086 58.356441,36.848488 M 58.356449,36.850052 C 62.136986,37.249816 55.523748,40.933991 57.713116,37.551945 M 57.712421,37.551945 C 61.486515,37.881029 54.958564,41.732083 57.086655,38.293289 M 57.086655,38.294853 C 60.786395,38.544915 54.403411,42.513666 56.443314,39.076035 M 56.443314,39.076035 C 60.134699,39.357623 53.702243,43.258587 55.799988,39.855667 M 55.799294,39.857231 C 59.959761,40.709197 52.724909,44.53193 55.155952,40.63686 M 55.155952,40.638412 C 58.964923,40.933114 52.350382,44.939779 54.512455,41.457878 M 54.512455,41.457878 C 58.156247,41.808623 51.701477,45.265145 53.88686,42.20079 M 53.886154,42.20079 C 58.255036,42.66429 50.708052,46.795677 53.242821,42.981983 M 53.242821,42.981983 C 56.997294,43.407888 50.244041,46.571082 52.599319,43.685448 M 52.599319,43.685448 C 56.251185,44.167497 49.578969,47.254747 51.955986,44.35062 M 51.955986,44.349056 C 55.669837,44.795865 48.979487,47.966453 51.330387,45.01424 M 51.329693,45.013069 C 55.148166,45.530275 48.146374,48.407692 50.686192,45.598949 M 50.686192,45.598949 C 54.489298,46.35532 47.346212,48.75816 50.042854,46.106735 M 50.042854,46.106735 C 53.75548,46.421911 47.656416,49.802359 49.399515,46.616452 M 49.399513,46.614899 C 53.87655,46.706508 46.321466,49.845087 48.773749,47.043764 M 48.77306,47.043762 C 52.380014,46.94647 46.303609,50.091262 48.129727,47.396083 M 48.129726,47.396084 C 51.494402,46.24663 46.541317,50.428448 47.486386,47.710509 M 47.486385,47.707382 C 49.646356,47.63647 46.349965,49.658305 46.84306,47.981975 M 46.842358,47.981976 C 48.745064,47.946933 45.931104,49.611832 46.199024,48.217111 M 46.199024,48.215549 C 47.878381,48.20659 45.357166,49.515821 45.573251,48.372567 M 45.573257,48.372566 C 47.06524,48.46118 44.432718,49.561358 44.929924,48.488577 M 44.92923,48.488579 C 47.262447,47.530642 44.975486,49.980204 44.285896,48.566303 M 44.285896,48.56786 C 46.198291,48.868014 43.094092,49.800869 43.64239,48.566305 M 43.642391,48.56786 C 46.314438,48.470729 42.045751,50.465857 43.016795,48.566305 M 43.016094,48.56786 C 46.801685,49.203332 41.210483,50.565116 42.372759,48.450294 M 42.372761,48.450294 C 46.189836,49.526074 40.125756,50.431447 41.729262,48.333112 M 41.729263,48.333111 C 45.19803,49.978854 39.201681,50.18984 41.085921,48.137821 M 41.085922,48.137821 C 45.094681,48.798393 39.292859,50.148571 40.460333,47.862839 M 40.459633,47.864403 C 44.577827,48.417034 38.638059,49.909575 39.816128,47.591373 M 39.816128,47.591373 C 43.789795,48.462347 37.878675,49.455096 39.172794,47.239063 M 39.172794,47.239063 C 42.910067,48.912569 36.735443,48.839493 38.529461,46.848473 M 38.529461,46.848473 C 42.184403,48.556221 36.156923,48.324448 37.886124,46.378593 M 37.885422,46.380142 C 41.48376,48.403736 35.290722,47.7265 37.259663,45.90987 M 37.259663,45.911434 C 39.715923,48.613906 34.332294,46.767842 36.616322,45.40366 M 36.616322,45.40366 C 38.968312,48.135771 33.667984,46.148029 35.972988,44.857224 M 35.972294,44.857224 C 38.031032,47.447974 33.245219,45.571907 35.32896,44.309605 M 35.32896,44.309612 C 37.502424,47.083641 32.622955,45.058503 34.703194,43.723721 M 34.703194,43.723721 C 37.229824,46.521942 31.705223,44.662401 34.05986,43.177284 M 34.059166,43.177284 C 36.402795,45.776879 31.162812,44.079915 33.415833,42.670681 M 33.415833,42.669498 C 35.795454,45.314362 30.593197,43.59669 32.77232,42.161346 M 32.77232,42.161346 C 35.35531,44.847541 29.849151,43.246356 32.146732,41.693027 M 32.14603,41.693027 C 34.486305,44.170064 29.250595,42.759069 31.502703,41.303604 M 31.502703,41.302425 C 33.933342,43.742926 28.748381,42.559175 30.859192,40.949726 M 30.8592,40.951286 C 33.476535,43.270358 28.107828,42.620403 30.215858,40.717712 M 30.215858,40.71653 C 33.294174,42.811078 27.369874,42.657677 29.572525,40.560684 M 29.572525,40.560684 C 32.75639,42.471935 26.74467,42.702763 28.946758,40.484531 M 28.946064,40.481407 C 32.313097,42.022916 26.195765,43.086801 28.302731,40.560684 M 28.302731,40.560684 C 31.729598,41.839548 25.534685,43.254188 27.659395,40.71653 M 27.659395,40.71653 C 31.239783,41.628454 24.907448,43.688184 27.016062,40.989571 M 27.01536,40.989571 C 30.745213,41.600181 24.316395,44.333637 26.389601,41.381725 M 26.389601,41.38015 C 30.559168,41.814091 23.083337,44.719096 25.74626,41.889488 M 25.74626,41.888317 C 30.228433,41.688102 22.674727,45.693856 25.102933,42.474209 M 25.102232,42.474209 C 29.493059,41.495177 22.762285,46.860929 24.458897,43.177284 M 24.458897,43.177284 C 26.986826,42.075378 23.642919,46.521554 23.833132,43.920574 M 23.833132,43.919022 C 26.118521,42.542217 23.513186,47.056454 23.189798,44.739649 M 23.189102,44.739651 C 25.046456,43.914879 23.024955,47.196856 22.545769,45.63528 M 22.545769,45.638405 C 24.373563,43.516903 23.186772,47.762625 21.902265,46.497327 M 21.902266,46.497326 C 23.534818,45.513484 21.867589,48.546394 21.258931,47.396083 M 21.25893,47.396084 C 22.788505,46.223855 21.186874,49.607752 20.633336,48.293276 M 20.632641,48.293278 C 22.010635,47.585861 20.581288,49.854357 19.989136,49.112743 M 19.989136,49.114304 C 21.610411,47.270328 20.045839,51.396258 19.345797,49.93338 M 19.345797,49.934944 C 20.957829,47.308176 19.409133,52.426138 18.702461,50.638397 M 18.702461,50.636837 C 20.54764,48.821028 18.801812,52.860895 18.076696,51.261001 M 18.076008,51.262573 C 20.161833,50.06494 16.870937,54.109583 17.432667,51.770348 M 17.432667,51.770348 C 19.509137,51.777103 15.215785,53.791853 16.789333,52.199212 M 16.789333,52.199211 C 18.986513,52.49489 14.289358,53.802255 16.145999,52.470678 M 16.145304,52.473804 C 19.181829,52.530253 13.289172,54.487343 15.519538,52.669094 M 15.519538,52.669094 C 19.562242,52.181206 14.39069,55.169252 14.876205,52.707377 M 14.876205,52.707378 C 18.84671,53.523145 12.744906,54.733506 14.232871,52.628076 M 14.232169,52.62965 C 17.930301,53.758528 12.075526,54.592717 13.588842,52.473804 M 79.330971,44.857224 C 80.712609,45.560858 78.089442,45.39889 78.687464,44.622477 M 78.687462,44.622478 C 79.987913,45.307604 78.069678,44.62459 78.044136,44.233058 M 78.044136,44.231876 C 78.902954,45.159374 77.819525,43.383402 77.400796,43.725284 M 77.400795,43.723721 C 77.945128,44.643348 76.985489,41.314728 76.775024,43.099556 M 76.77433,43.099556 C 77.443062,42.711718 76.066811,41.179235 76.131004,42.396091 M 76.131004,42.396091 C 77.619771,43.886965 76.071108,40.747831 75.487663,41.654743 M 75.487663,41.653179 C 76.78056,41.958497 75.283426,39.99417 74.844334,40.873559 M 74.843636,40.871998 C 76.511236,42.25794 74.818656,39.536774 74.217873,40.090804 M 74.217873,40.090805 C 74.935117,40.859375 73.290401,37.477882 73.574532,39.311183 M 73.574532,39.30962 C 74.55171,40.386316 73.373887,38.549572 72.931198,38.646 M 72.930511,38.646 C 73.686768,39.354538 71.828826,38.449917 72.287169,38.061671 M 72.28717,38.060108 C 74.465004,38.983879 71.161495,38.931013 71.643661,37.591778 M 71.643661,37.591778 C 74.218372,38.719425 69.614707,38.683822 71.018069,37.277352 M 71.01738,37.278927 C 74.633582,38.547858 68.727454,39.199402 70.37404,37.121506 M 70.374039,37.123077 C 74.589255,36.788363 68.839158,39.649119 69.73053,37.123077 M 69.73053,37.123077 C 74.500597,38.230016 65.815506,40.47519 69.087204,37.358204 M 69.087204,37.356651 C 73.821186,38.339627 65.263712,40.93454 68.461609,37.745682 M 68.460907,37.747246 C 72.541506,38.128583 65.215939,41.283853 67.817398,38.333138 M 67.817398,38.333138 C 72.128652,38.651654 64.844717,42.9944 67.174072,39.114319 M 67.174072,39.114319 C 71.631893,39.391644 64.222154,44.112783 66.530731,40.050968 M 66.530731,40.052532 C 70.966174,39.951103 64.018304,45.47759 65.904961,41.145016 M 65.904274,41.146576 C 70.43778,40.955972 63.375816,47.040403 65.260941,42.318363 M 65.260941,42.318363 C 69.710855,41.430673 63.223737,48.321478 64.617599,43.606148 M 64.617599,43.606148 C 68.929431,42.548918 62.811361,49.590936 63.97427,44.973225 M 63.973576,44.973225 C 68.332227,43.83585 62.138195,51.078352 63.330242,46.340309 M 63.330242,46.340309 C 67.621743,45.954885 61.12448,52.254154 62.704468,47.667549 M 62.704468,47.669102 C 66.813682,46.587666 60.93459,53.279171 62.061142,48.996742 M 62.060448,48.996742 C 66.326233,49.080131 59.550104,54.67644 61.417107,50.246246 M 61.417107,50.246246 C 65.247333,49.44562 59.232881,55.019645 60.773609,51.340302 M 60.773609,51.340302 C 64.400252,50.830384 58.53958,55.633656 60.148014,52.356232 M 60.14732,52.356232 C 63.633018,51.82791 58.281805,56.596524 59.503978,53.216714 M 59.503979,53.215542 C 61.512046,52.768738 58.871411,55.691377 58.860473,53.880725 M 58.860474,53.879162 C 58.673125,54.110076 57.360092,53.896565 58.21714,54.385754 M 58.21714,54.387325 C 63.911919,55.822957 57.617459,49.959682 57.591544,54.701352 M 57.590851,54.699799 C 61.732465,55.026929 56.248677,52.344336 56.947346,54.817364 M 56.947346,54.817364 C 61.179868,52.262891 52.051536,52.663954 56.304012,54.779079 M 56.304012,54.77792 C 59.498492,53.615494 53.329261,52.192553 55.660671,54.582619 M 55.660671,54.582619 C 59.343101,53.780997 52.624573,51.064737 55.017342,54.229919 M 55.016647,54.231468 C 54.789613,51.936172 57.145275,49.434085 55.28446,47.367499 C 55.062337,49.522029 54.865725,51.686775 54.390882,53.804158 M 54.390881,53.801434 C 56.730863,52.918949 54.111141,46.915667 54.080062,51.436216 C 54.001825,52.047748 53.898735,52.656935 53.747541,53.254986 M 53.74754,53.254986 C 52.715931,50.954537 55.964443,48.283149 53.759819,46.307517 C 53.567997,48.430477 53.559239,50.579278 53.104207,52.670657 M 53.103512,52.669094 C 52.866168,47.845099 54.988257,43.189404 54.370882,38.355889 C 52.257693,42.636478 53.846691,47.602112 52.460178,52.04493 M 52.460178,52.043758 C 52.080993,45.95358 55.119214,39.931645 53.409302,33.878409 C 52.567218,39.69493 52.733014,45.60791 51.834413,51.418029 M 51.834412,51.41803 C 52.06833,42.648223 54.326014,33.986567 53.647225,25.184477 C 52.169871,33.661917 52.191516,42.302618 51.191079,50.8337 M 51.190384,50.832138 C 51.543495,41.147746 53.64702,31.5437 53.005867,21.824619 C 51.715842,31.280128 51.505436,40.837819 50.54705,50.325534 M 50.54705,50.325535 C 50.894805,40.671109 52.731416,31.10117 52.462891,21.419604 C 50.657445,30.809462 51.074807,40.435452 49.903546,49.89666 M 49.903545,49.895496 C 50.251592,39.849752 52.086217,29.885985 51.831407,19.814422 C 50.104607,29.649032 50.4338,39.689144 49.27795,49.584187 M 49.277256,49.582626 C 50.082973,38.450701 50.888691,27.318775 51.694408,16.18685 C 49.14303,27.088354 50.166054,38.399588 48.633915,49.426779 M 48.633915,49.426781 C 49.178224,38.344738 50.638341,27.31345 50.702033,16.207472 C 48.906848,27.183079 49.266375,38.360907 47.990417,49.388896 M 47.990417,49.387325 C 48.550136,38.202269 49.959292,27.06479 50.076806,15.857271 C 48.289348,26.990035 48.635455,38.320714 47.347076,49.503334 M 47.347076,49.504906 C 47.927715,38.340365 49.271378,27.219708 49.457541,16.034345 C 47.745885,27.207918 47.935396,38.557241 46.703743,49.777926 M 46.703743,49.777927 C 47.298563,38.76151 48.616601,27.788082 48.840716,16.751329 C 47.13438,27.828657 47.295652,39.08074 46.077977,50.206399 M 46.077282,50.207973 C 46.642516,39.630331 47.957982,29.098008 48.159998,18.50033 C 46.492257,29.165203 46.593532,40.000188 45.433948,50.716126 M 45.433949,50.716125 C 46.010066,40.546588 47.278911,30.42114 47.525366,20.232307 C 45.908875,30.544377 45.929337,41.018482 44.790607,51.379746 M 44.790615,51.379745 C 45.406908,41.556783 46.600396,31.773198 46.931785,21.932015 C 45.43389,31.93695 45.270424,42.077177 44.147281,52.121485 M 44.146584,52.121487 C 44.800055,42.895159 45.878399,33.701743 46.364099,24.463072 C 44.782595,33.883819 44.60109,43.461704 43.520819,52.939388 M 43.520821,52.942123 C 44.176815,44.377676 45.222779,35.845664 45.724752,27.268999 C 44.209687,36.046075 43.973182,44.974779 42.877479,53.802606 M 42.87748,53.801434 C 42.89329,49.168541 44.340002,44.628813 43.962465,39.981571 C 42.999493,44.823809 43.032137,49.793688 42.234151,54.658782 M 42.233452,54.660343 C 42.785756,50.581553 41.402397,53.357777 41.590116,55.479421 M 41.590115,55.480984 C 42.945178,53.256457 39.589585,55.069786 40.964352,56.262177 M 40.964352,56.262177 C 42.944664,53.291617 38.65314,55.695967 40.321014,56.964069 M 40.32032,56.96563 C 43.32448,54.127517 38.056968,55.546497 39.676987,57.51207 M 39.676987,57.51207 C 42.142312,55.139049 37.221618,56.568879 39.033482,57.980389 M 39.033482,57.980389 C 42.313786,56.319386 36.852582,56.258383 38.39015,58.253416 M 38.390148,58.253414 C 40.341681,57.484177 37.279435,57.1111 37.764553,58.329581 M 37.763859,58.332706 C 39.112563,57.812551 36.948688,58.163888 37.120348,58.254979 M 37.12035,58.253414 C 37.314503,58.330584 35.4786,57.787996 36.477013,57.980389 M 36.477013,57.980389 C 38.585323,59.737945 33.976977,58.457355 35.83368,57.549962 M 35.833679,57.551525 C 37.767556,59.521634 33.457448,57.772671 35.207914,56.965631 M 35.207218,56.96563 C 38.839494,60.1399 33.129111,58.128486 34.563885,56.182875 M 34.563885,56.184448 C 36.297181,58.774289 32.196331,55.990214 33.920551,55.28569 M 33.920551,55.28569 C 37.259939,58.33629 31.35367,55.740088 33.277218,54.309196 M 33.276524,54.309196 C 35.493034,57.52517 30.781081,54.030877 32.63319,53.215542 M 32.63319,53.215542 C 33.3458,55.616471 30.714561,52.465964 32.007416,52.083202 M 32.007416,52.083202 C 33.041979,54.753944 29.555254,51.132407 31.364088,50.951263 M 31.363386,50.949699 C 32.061649,53.229537 29.245695,50.091062 30.720053,49.857216 M 30.720053,49.855652 C 31.584973,52.154064 28.61715,49.11624 30.076548,48.801441 M 30.076548,48.801441 C 32.508341,51.713801 27.561444,48.78065 29.450953,47.824947 M 29.450258,47.824947 C 32.741712,50.870511 27.118509,48.625172 28.806925,47.005489 M 28.806925,47.005489 C 30.331095,49.220393 26.555024,47.00968 28.16342,46.302026 M 28.16342,46.302025 C 30.828264,48.737746 25.610444,47.190205 27.520087,45.755979 M 27.520086,45.754417 C 31.063771,47.436778 25.384638,47.456192 26.894491,45.40366 M 26.893797,45.40366 C 29.989931,47.103023 24.474745,47.330539 26.250292,45.247814 M 26.250292,45.247814 C 29.735055,46.445785 23.859787,47.651904 25.606951,45.247814 M 25.606951,45.247814 C 29.308699,45.871354 23.158403,48.231778 24.963617,45.48295 M 24.963617,45.481388 C 30.098793,45.505933 21.586522,49.689463 24.32029,45.873552 M 24.319588,45.87199 C 29.152327,45.007741 21.923691,49.871175 23.693822,46.419599 M 23.693823,46.419598 C 28.309185,45.449463 21.162775,50.862186 23.050488,47.121492 M 23.050488,47.12149 C 27.557109,45.612095 20.977021,51.867261 22.407155,47.940958 M 22.40646,47.94252 C 26.746278,45.896737 20.971668,53.007577 21.763126,48.880731 M 21.763126,48.879169 C 25.377285,45.136393 22.289382,53.420449 21.13736,49.854091 M 21.13736,49.855652 C 25.45218,47.552015 19.934613,55.180671 20.494026,50.871972 M 20.493324,50.871983 C 24.268857,47.31039 20.767363,55.70446 19.849997,51.886349 M 19.849997,51.887913 C 23.890263,48.521577 19.687471,57.108595 19.206493,52.902668 M 19.206493,52.902668 C 23.541624,50.205112 18.200253,58.145413 18.580897,53.839316 M 18.580194,53.840878 C 23.072682,50.870434 17.628568,58.924079 17.936862,54.660345 M 17.936863,54.660343 C 22.587929,52.41148 16.514577,59.560781 17.293357,55.401692 M 17.293358,55.403255 C 22.146733,52.990063 15.950599,60.156105 16.650024,56.027421 M 16.650024,56.02742 C 21.986571,54.89424 14.397612,59.874951 16.00669,56.49575 M 81.748825,47.434364 C 83.337338,48.889593 80.191617,47.601858 81.105492,46.850025 M 81.10479,46.848473 C 82.976801,47.460783 79.239362,47.016743 80.461456,46.146568 M 80.461456,46.145008 C 81.118713,47.161 79.510379,45.692531 79.835687,45.323979 M 79.835686,45.325542 C 80.522621,46.399562 78.939891,44.888074 79.19236,44.506467 M 79.191666,44.504906 C 79.880412,45.556087 78.266772,44.02281 78.548324,43.645993 M 78.548325,43.645992 C 79.174161,44.707553 77.578733,43.200918 77.90482,42.826527 M 77.904823,42.824966 C 79.246602,44.287435 76.56644,42.463267 77.279228,42.083618 M 77.278534,42.083618 C 78.555583,43.158219 76.828207,42.636225 76.563931,42.005552 L 76.452349,41.701375 L 76.635193,41.459454 M 76.635193,41.457878 C 78.582371,42.788949 75.38113,41.876697 75.991685,40.951287 M 75.991684,40.951286 C 78.688755,42.128724 74.658035,41.861966 75.348357,40.600531 M 75.348358,40.598969 C 79.182568,41.424586 73.436196,42.732877 74.722762,40.482957 M 74.722061,40.481407 C 79.367001,41.336725 71.727174,42.699242 74.078556,40.559133 M 74.078552,40.560684 C 79.243644,40.199587 71.32001,44.769529 73.435226,40.871998 M 73.435226,40.871998 C 78.054931,40.707354 70.308655,44.599272 72.791885,41.418045 M 72.791885,41.419605 C 77.064804,40.804917 70.13537,45.705653 72.148555,42.200789 M 72.147865,42.20079 C 76.519234,41.121676 69.932187,47.227819 71.5221,43.175721 M 71.522102,43.177284 C 76.580996,42.172938 69.13654,49.927653 70.878759,44.388904 M 70.878761,44.387329 C 75.882538,43.237458 68.781318,51.421427 70.235425,45.754416 M 70.234734,45.754417 C 75.264118,44.43848 68.309758,53.099663 69.591396,47.237502 M 69.591393,47.239063 C 74.55812,45.813687 67.924353,54.5701 68.96563,48.801441 M 68.96563,48.801441 C 74.057824,47.448677 67.16021,56.282961 68.322296,50.401699 M 68.321602,50.403263 C 73.452502,49.113949 66.424934,58.020821 67.678261,51.965637 M 67.678261,51.965637 C 72.707532,50.649695 65.753553,59.310387 67.034757,53.448725 M 67.03476,53.450287 C 72.026974,52.218503 65.00354,60.535737 66.409162,54.817363 M 66.408478,54.817364 C 71.632648,53.826929 63.752687,61.489488 65.765133,55.949693 M 65.765137,55.949692 C 70.135916,54.915999 63.57082,60.773723 65.121628,56.886342 M 65.121628,56.886341 C 69.487613,56.684509 62.121396,60.740526 64.478294,57.510506 M 64.478294,57.51207 C 69.617803,57.067868 61.740136,61.602873 63.834954,57.785097 M 63.834953,57.785095 C 66.157544,58.763966 61.463938,58.998238 63.209188,57.667524 M 63.2085,57.667522 C 65.797064,59.352804 61.960724,58.249617 62.565166,57.200768 M 62.565166,57.199203 C 63.514656,58.474353 61.796022,56.650582 61.921825,56.302011 M 61.921825,56.300449 C 62.411134,58.456884 62.124735,54.451288 61.278499,55.012664 M 61.277802,55.012665 C 62.500375,56.094254 61.448313,52.414322 60.652038,53.294822 M 60.652039,53.29327 C 61.949986,56.291958 61.459322,50.44735 60.008697,51.224291 M 60.008698,51.222729 C 61.74321,54.130111 60.717967,47.818874 59.365368,48.840885 M 59.36467,48.840885 C 61.349922,51.634017 60.308949,45.352635 58.721333,46.106735 M 58.721333,46.106735 C 60.725688,48.943508 59.629387,42.18189 58.07783,43.178836 M 58.077831,43.177284 C 60.291871,45.622384 58.994301,39.119047 57.452234,40.052531 M 57.451538,40.052532 C 59.786392,42.438737 58.273403,36.078624 56.808205,36.811767 M 56.808205,36.810596 C 59.1433,39.19617 57.629856,32.836627 56.164701,33.569843 M 56.1647,33.568279 C 58.500945,35.951529 56.983007,29.598926 55.521368,30.325964 M 55.521366,30.325964 C 57.65716,33.06122 56.467946,26.291309 54.895772,27.241047 M 54.895069,27.241047 C 57.074125,30.468799 55.867904,23.569379 54.251566,24.35105 M 54.251572,24.351049 C 56.080777,26.865509 55.026184,20.365105 53.608238,21.734463 M 53.608238,21.732901 C 55.237338,23.67236 54.221774,18.034234 52.964898,19.468621 M 52.964897,19.46862 C 54.29316,21.381322 53.422477,16.54046 52.339132,17.594943 M 52.338436,17.59338 C 53.167357,17.519452 52.287133,15.668397 51.695103,16.188413 M 51.695103,16.18685 C 52.58595,17.540451 51.085479,15.51657 51.051762,15.249821 M 51.051769,15.249821 C 53.484688,16.559678 49.668136,16.058662 50.408436,14.819775 M 50.407742,14.819775 C 54.271837,15.548148 47.710756,17.220079 49.764407,14.935785 M 49.764408,14.937348 C 53.977341,14.661583 46.972907,18.737243 49.138634,15.600958 M 49.138634,15.600958 C 54.347206,14.64261 46.552308,22.393684 48.495306,16.772742 M 48.494606,16.772741 C 53.669249,15.460769 46.707697,24.482801 47.851273,18.411283 M 47.851273,18.412846 C 52.192583,16.441426 47.715955,25.741659 47.207766,20.52127 M 47.207767,20.522833 C 51.487464,18.409422 47.720703,28.126966 46.582176,23.022247 M 46.581478,23.022247 C 50.625747,20.877648 47.39543,30.76388 45.938141,25.87241 M 45.938141,25.873972 C 49.990616,23.745091 47.173917,33.740725 45.29464,28.998724 M 45.29464,28.998724 C 49.301408,26.963066 46.758111,36.993893 44.651302,32.358223 M 44.651302,32.358223 C 48.661136,30.276111 46.259693,40.366487 44.025707,35.794277 M 44.025013,35.794277 C 48.040482,33.74772 45.649854,43.809898 43.381512,39.269775 M 43.381512,39.271336 C 47.388397,37.236165 45.004441,47.279053 42.738174,42.747238 M 42.738174,42.747238 C 46.727978,40.734106 44.189397,50.730947 42.094837,46.105171 M 42.094837,46.106735 C 46.125052,43.970459 43.399885,54.009539 41.451508,49.309605 M 41.450806,49.309605 C 45.487607,47.121737 42.406983,57.106595 40.825039,52.239059 M 40.825039,52.239059 C 44.937492,50.118784 41.330966,59.941227 40.181705,54.893528 M 40.181705,54.895088 C 44.354163,52.924138 40.175385,62.361983 39.538373,57.199205 M 39.537678,57.199203 C 44.625704,55.588798 38.412505,65.135309 38.894344,59.112335 M 38.894344,59.113899 C 44.023792,57.816031 36.999176,66.766795 38.268578,60.676266 M 38.268578,60.676266 C 42.852982,59.642682 36.150218,66.456416 37.625244,61.808606 M 37.624542,61.808605 C 41.878851,61.474273 34.828387,65.742581 36.981216,62.510109 M 36.981216,62.511669 C 42.140158,62.240349 34.113177,66.693661 36.337704,62.822971 M 36.337704,62.824535 C 40.508844,63.716373 34.0082,64.916016 35.712108,62.786262 M 35.711414,62.785091 C 38.38736,64.011784 34.28473,63.681702 35.06808,62.394489 M 35.068081,62.394489 C 37.007978,62.6533 32.735417,62.678807 34.424576,61.732052 M 34.424576,61.730488 C 35.362846,63.015811 33.677168,61.125259 33.781241,60.79384 M 33.781242,60.792278 C 34.574656,61.926221 33.417862,59.71655 33.137908,59.699792 M 33.137909,59.699791 C 34.2685,61.583988 32.893312,58.502988 32.512135,58.45027 M 32.511448,58.448715 C 33.294867,60.435072 32.45783,56.789009 31.868113,57.081642 M 31.868113,57.081642 C 32.350988,56.79431 31.764181,55.040661 31.224772,55.754392 M 31.224771,55.754391 C 31.874397,57.193353 31.215304,53.905635 30.581439,54.387327 M 30.580744,54.387325 C 31.692181,56.039686 30.296841,53.152802 29.954977,53.137424 M 29.954977,53.137424 C 30.719414,53.929623 29.446402,52.118943 29.311643,52.044929 M 29.311644,52.043758 L 28.989585,51.555772 L 28.668308,51.067272 M 28.667616,51.067272 C 30.27447,52.399164 27.201941,50.859481 28.024281,50.325535 M 28.024281,50.325535 C 29.852419,51.774856 26.869577,50.666767 27.398515,49.779488 M 27.398516,49.777927 C 30.229397,50.779516 26.092169,50.800777 26.755181,49.466624 M 26.754478,49.46505 C 30.503557,50.298 24.685792,51.585991 26.111152,49.387324 M 26.111153,49.387325 C 29.897806,50.049908 23.413816,51.884742 25.467648,49.542779 M 25.467648,49.544353 C 30.693185,49.585896 22.140732,53.744415 24.824308,49.895496 M 24.824308,49.895496 C 29.243074,49.703289 21.789562,53.683627 24.198717,50.48138 M 24.198017,50.48138 C 28.388715,50.107338 21.469281,54.482046 23.554514,51.222729 M 23.554514,51.222729 C 27.799663,50.549 21.03697,55.743604 22.911179,52.080074 M 22.911179,52.083202 C 27.334988,50.985945 20.772715,57.271901 22.267845,53.099531 M 22.267845,53.097969 C 26.627829,51.96105 20.223265,58.353402 21.642079,54.15219 M 21.641384,54.152191 C 26.166172,53.115662 19.526592,59.622221 20.99805,55.204839 M 20.998051,55.207954 C 25.438761,54.168669 18.960088,60.573196 20.354716,56.302011 M 20.354715,56.300449 C 24.814899,55.245345 18.289876,61.509697 19.711382,57.315206 M 19.71068,57.316769 C 24.003691,56.222345 17.58687,62.077153 19.084915,58.253416 M 19.084915,58.253414 C 23.325254,57.493538 16.606198,62.745732 18.441581,59.112337 M 84.16597,51.222729 C 86.092129,53.10487 82.198428,51.543376 83.522649,50.598563 M 83.522652,50.598564 C 85.171612,52.623245 81.443166,50.641102 82.897046,49.895498 M 82.896355,49.895496 C 84.283235,52.025429 80.785,49.733056 82.25284,49.115477 M 82.252838,49.114304 C 83.385312,51.239905 80.097334,48.665811 81.609512,48.255005 M 81.609512,48.255005 C 84.539012,51.136358 79.156421,48.490564 80.966171,47.435921 M 80.966171,47.434364 C 82.142868,49.537528 78.847838,47.067363 80.340408,46.614899 M 80.339714,46.614899 C 81.601796,48.748547 78.170215,46.364943 79.696381,45.833706 M 79.696381,45.833706 C 81.642351,47.926334 77.537228,46.165511 79.053043,45.209542 M 79.05304,45.20837 C 81.4291,47.407035 76.571714,45.843272 78.409714,44.700207 M 78.409019,44.700207 C 81.536171,46.769151 76.045019,46.269417 77.783256,44.349058 M 77.783257,44.349056 C 81.203144,45.786676 75.240995,46.270983 77.139915,44.231875 M 77.139915,44.231876 C 80.909632,45.158127 74.596078,46.811528 76.496581,44.309613 M 76.495895,44.309612 C 81.570223,44.663598 72.847263,48.192318 75.852554,44.62365 M 75.852554,44.622478 C 80.809225,44.004578 73.052547,48.46258 75.209041,45.170087 M 75.209038,45.168526 C 79.400509,44.350207 72.777409,49.505722 74.583452,45.949717 M 74.582756,45.949718 C 78.636707,44.276086 73.004544,50.918642 73.939417,46.964474 M 73.939415,46.966038 C 77.649116,44.6817 73.144745,52.07344 73.295912,48.137821 M 73.295914,48.137821 C 75.953484,45.310293 73.747228,52.543426 72.652585,49.504897 M 72.652588,49.504906 C 74.959152,46.812057 72.972156,53.805105 72.02699,50.987592 M 72.026291,50.989155 C 73.897489,49.440241 72.42733,54.113622 71.382784,52.549969 M 71.382782,52.551533 C 73.108864,50.809117 71.811504,55.635487 70.739456,54.153743 M 70.739456,54.152191 C 72.325752,52.632672 71.008869,57.133153 70.096117,55.712994 M 70.096115,55.714558 C 71.602098,54.335088 70.398047,58.528125 69.470343,57.197642 M 69.46965,57.199203 C 70.925535,56.130636 69.546987,59.86026 68.826321,58.566281 M 68.826324,58.56628 C 70.242703,58.052415 68.697183,60.973046 68.18298,59.738065 M 68.182983,59.738064 C 69.625328,57.880942 68.198782,62.016742 67.539658,60.63525 M 67.538956,60.636822 C 68.585459,58.214815 67.851137,63.074905 66.895615,61.262157 M 66.895615,61.262157 C 67.627712,58.015212 67.480234,62.908447 66.269852,61.533625 M 66.269852,61.535187 C 67.747841,62.142721 64.09267,61.280701 65.626518,61.457458 M 65.625832,61.457458 C 68.753433,61.55019 64.602454,62.889924 64.743197,61.24744 L 64.982491,60.949295 M 64.982491,60.949295 C 66.116651,62.210971 64.329968,61.295286 64.19593,60.664709 L 64.118807,60.31278 L 64.338982,60.05093 M 64.338982,60.05093 C 65.063139,62.31377 62.859711,59.335283 63.71339,58.761581 M 63.712696,58.761581 C 62.845086,59.380477 62.213969,57.33502 63.069361,57.080069 M 63.069363,57.081642 C 63.236807,59.299317 61.226159,54.965721 62.425858,55.011101 M 62.425858,55.012665 C 62.334349,56.884112 61.180038,52.7858 61.78252,52.589806 M 61.78252,52.589806 C 62.009005,55.213283 60.686406,50.175301 61.156927,49.895488 M 61.156223,49.895496 C 61.131058,52.473542 60.058612,46.931477 60.512721,46.926201 M 60.51273,46.926201 C 60.622844,49.421809 59.561411,44.079883 59.869392,43.803013 M 59.869392,43.801449 C 59.783453,47.115515 61.215241,50.346512 60.627967,53.667369 C 59.829757,49.33727 59.917245,44.904463 59.226053,40.560685 M 59.226051,40.560684 C 59.244592,45.158374 60.619924,49.653463 60.406101,54.262239 C 58.907622,48.730878 59.725973,42.902882 58.58272,37.31837 M 58.582024,37.318371 C 59.1392,45.914373 60.49233,54.452154 60.65096,63.074659 C 58.817449,53.524096 59.234234,43.730891 57.956258,34.115889 M 57.956257,34.115891 C 58.536887,43.728862 59.871323,53.291555 60.061748,62.928436 C 58.333447,52.363579 58.554911,41.608163 57.312924,30.99271 M 57.312923,30.991137 C 57.891133,41.412734 59.234149,51.787431 59.415552,62.231354 C 57.670079,50.931739 57.923646,39.449156 56.669591,28.101531 M 56.668896,28.099968 C 57.245096,39.254881 58.59382,50.365447 58.774126,61.54117 C 57.051359,49.605154 57.27701,37.500753 56.025561,25.521262 M 56.025562,25.522825 C 56.595936,37.328372 57.984485,49.08959 58.138063,60.915689 C 56.384053,48.421147 56.671813,35.757922 55.399789,23.220663 M 55.399788,23.217539 C 56.205513,36.015607 57.011224,48.813675 57.816949,61.611743 C 55.445498,48.314787 56.274132,34.72393 54.756462,21.342298 M 54.755768,21.342299 C 55.561485,34.622488 56.367202,47.902678 57.17292,61.182868 C 54.780355,47.560154 55.645778,33.644799 54.112426,19.938513 M 54.112427,19.936951 C 54.918151,33.581302 55.723861,47.225654 56.529586,60.870005 C 54.151588,47.035355 55.001757,32.915768 53.468922,19.000301 M 53.468922,18.998739 C 54.280555,32.903488 55.092187,46.808238 55.90382,60.712987 C 53.46862,46.805295 54.405021,32.599791 52.843333,18.608147 M 52.842632,18.608147 C 53.648349,32.630336 54.454074,46.652525 55.259785,60.674714 C 52.79999,46.82146 53.780231,32.662634 52.199298,18.724148 M 52.199299,18.72571 C 53.005022,32.747899 53.810733,46.770088 54.616457,60.792277 C 52.131587,47.113101 53.151827,33.11793 51.555793,19.351058 M 51.555794,19.351057 C 52.361497,33.255807 53.167367,47.160548 53.973116,61.065295 C 51.455308,47.69224 52.535763,33.986763 50.912459,20.522832 M 50.91246,20.522833 C 51.718159,34.167192 52.524033,47.811541 53.329783,61.455897 C 50.82157,48.515567 51.893673,35.234181 50.269119,22.201219 M 50.269119,22.202782 C 51.080751,35.469824 51.892391,48.736865 52.704017,62.003907 C 50.132139,49.585219 51.29497,36.793516 49.643353,24.273323 M 49.642666,24.271761 C 50.448437,37.069825 51.254216,49.86789 52.059988,62.665954 C 49.465974,50.882831 50.671608,38.699734 48.999331,26.809058 M 48.999332,26.810619 C 49.533447,38.704763 51.030755,50.549764 51.058059,62.466984 C 49.175331,51.626884 49.703671,40.556651 48.35599,29.660782 M 48.355991,29.662344 C 49.161714,41.18486 49.967425,52.707377 50.773149,64.229893 C 48.39454,53.914203 49.062158,43.231184 47.712664,32.787087 M 47.71196,32.787086 C 48.523593,43.554329 49.335226,54.321572 50.14686,65.088814 C 47.685064,55.620512 48.482108,45.722243 47.086196,36.10714 M 47.086197,36.10714 C 47.594693,45.76076 49.146592,55.350781 49.107914,65.033724 C 47.134785,56.67274 47.834337,47.983331 46.442861,39.543194 M 46.44286,39.544758 C 46.95178,48.32859 48.492152,57.043465 48.458168,65.859265 C 46.395046,58.42641 47.233447,50.590524 45.799527,43.060101 M 45.798832,43.060101 C 45.281759,48.066546 48.06678,52.949185 46.751886,57.936182 C 45.248034,54.307172 46.310372,50.238141 45.155499,46.535599 M 45.155499,46.535599 C 44.894501,51.616671 47.609141,56.66487 45.952842,61.698887 C 45.308298,57.784511 45.367581,53.780284 44.529726,49.893926 M 44.529732,49.895496 C 44.507131,54.896178 46.934034,59.820331 45.60823,64.818685 C 44.934039,60.913272 44.639602,56.950941 43.886399,53.058123 M 43.885704,53.059696 C 46.769715,52.622641 44.189433,60.627769 43.242371,55.989147 M 43.242371,55.989147 C 47.140861,54.589659 43.383338,63.784019 42.598866,58.644009 M 42.598866,58.644009 C 46.683918,57.348365 42.298626,66.158616 41.955524,60.947731 M 41.955524,60.949295 C 45.938448,60.110563 40.861256,68.107591 41.329937,62.903824 M 41.329235,62.902264 C 45.145277,62.089959 39.78237,68.748765 40.685731,64.426757 M 40.68573,64.425194 C 44.469357,63.520147 38.742985,69.436085 40.042396,65.557133 M 40.042397,65.558693 C 42.195166,64.959041 39.428916,68.228091 39.399063,66.262151 M 39.399063,66.260597 C 40.484193,66.096697 39.008952,67.087689 38.77329,66.611345 M 38.772602,66.612907 C 40.011586,65.725843 36.472358,65.848775 38.129269,66.575012 M 38.129269,66.573456 C 41.102654,66.994486 35.541224,63.915413 37.485927,66.182861 M 37.485928,66.182861 C 42.221212,68.1641 35.788292,61.307218 36.842594,65.480968 M 36.8419,65.479408 C 41.861217,66.804612 34.572028,59.830108 36.198565,64.582212 M 36.198566,64.582214 C 40.484107,66.309517 34.798062,59.168995 35.572799,63.450263 M 35.5728,63.448711 C 39.955633,65.010569 33.909397,57.439142 34.929464,62.199198 M 34.928768,62.1992 C 39.136408,63.989648 33.596165,56.356613 34.285436,60.871567 M 34.285435,60.871567 C 38.348425,63.083005 33.334757,55.147763 33.641932,59.504491 M 33.641933,59.50449 C 37.212593,61.871859 33.056016,54.215282 33.016336,58.178814 M 33.01564,58.17569 C 35.111633,59.767117 33.102015,54.855799 32.372307,56.927348 M 32.372307,56.926186 C 34.259138,58.130804 32.608364,54.573 31.728803,55.793847 M 31.728804,55.793846 C 33.240923,56.982472 31.623945,54.406098 31.085463,54.857208 M 31.085463,54.855644 C 31.439099,54.381633 30.221107,54.558864 30.459874,54.074463 M 30.459171,54.074463 C 32.302513,55.424431 29.09435,54.421373 29.815668,53.526452 M 29.815668,53.528015 C 33.325926,55.059908 27.688101,55.167988 29.172334,53.215542 M 29.172335,53.215542 C 32.750441,54.433606 26.715559,55.252931 28.529,53.135851 M 28.528999,53.137424 C 33.296692,53.698696 25.292051,56.714053 27.885666,53.29327 M 27.884972,53.29327 C 32.720638,54.300702 23.97005,57.127563 27.259205,53.682297 M 27.259205,53.683861 C 31.380045,54.085764 24.039818,57.024491 26.615871,54.229919 M 26.615871,54.231468 C 30.536374,54.204035 23.826785,58.009518 25.972538,54.97438 M 25.971834,54.973209 C 29.929303,54.579622 23.414525,59.237366 25.328508,55.87001 M 25.328508,55.871574 C 29.872944,55.117382 22.948909,61.199986 24.702736,56.846497 M 24.702736,56.848068 C 29.150608,56.805025 22.196332,62.405804 24.059408,57.90266 M 24.058706,57.90266 C 28.968721,57.461241 21.268282,64.215292 23.415373,58.994766 M 23.415373,58.996326 C 27.448173,58.131408 21.250484,63.796969 22.77187,60.05093 M 22.77187,60.05093 C 26.564788,59.393573 20.516288,64.519052 22.146273,61.065296 M 22.145578,61.066868 C 25.989728,60.516332 19.77324,65.429739 21.502245,62.04179 M 21.502245,62.04335 C 25.415527,61.955666 18.804216,66.061942 20.85874,62.86438 M 86.600868,56.144993 C 90.169088,57.483177 84.479149,57.97623 85.957539,55.909847 M 85.957542,55.909847 C 88.445225,57.384081 83.578403,56.825998 85.314198,55.519266 M 85.314201,55.519264 C 87.50457,57.406639 83.034948,56.078378 84.670865,55.011101 M 84.670174,55.012665 C 86.893056,57.322617 82.313939,55.423965 84.026835,54.387327 M 84.026833,54.387325 C 85.687728,56.516832 81.782916,54.396764 83.40107,53.683861 M 83.40107,53.683861 C 86.644829,56.85904 81.398511,54.78068 82.757736,52.942123 M 82.757042,52.942123 C 86.018873,56.151151 80.795102,54.056932 82.1137,52.162502 M 82.113701,52.160931 C 83.498592,54.456742 79.745964,51.923651 81.470196,51.379746 M 81.4702,51.379745 C 84.373475,55.000209 79.475962,52.429723 80.844607,50.598563 M 80.84391,50.598564 C 84.507107,53.598309 78.653366,52.212929 80.200572,49.936506 M 80.200569,49.934944 C 83.824181,52.369886 77.987117,51.457185 79.557067,49.349051 M 79.557068,49.349052 C 82.950494,51.396739 77.082758,50.698623 78.913742,48.882294 M 78.913742,48.879169 C 82.547982,50.604545 76.519976,50.571365 78.288139,48.566303 M 78.287445,48.56786 C 82.438165,48.879149 76.549938,50.810046 77.643936,48.412403 M 77.643936,48.410851 C 81.253673,49.90564 74.80101,50.789598 77.00061,48.410851 M 77.00061,48.410851 C 80.91524,49.523689 73.928231,51.448844 76.357269,48.645596 M 76.357269,48.645596 C 80.750531,49.437461 72.685893,51.693955 75.713936,49.036186 M 75.713242,49.036186 C 79.908153,49.120729 72.602316,52.654591 75.087477,49.623631 M 75.087479,49.622082 C 79.001354,49.082888 72.564013,53.702256 74.444136,50.403263 M 74.444138,50.403263 C 77.680565,49.334752 73.143402,54.580344 73.800808,51.341864 M 73.800117,51.340302 C 76.520239,49.444226 73.496522,55.228542 73.156773,52.396075 M 73.156776,52.394512 C 75.145623,51.24818 73.490249,54.897106 72.531007,53.604571 M 72.531006,53.606133 C 74.139616,52.574715 72.684062,55.761848 71.887672,54.895088 M 71.886986,54.895088 C 72.460449,54.353382 71.612047,57.317527 71.243644,56.222721 M 71.243645,56.222721 C 72.251182,55.808748 70.295261,57.417102 70.600133,57.588234 M 70.600136,57.589794 C 70.339477,57.43599 70.069914,58.674348 69.974545,58.956883 M 69.973846,58.956882 C 70.778679,57.070184 69.151122,60.002714 69.330516,60.284112 M 69.330513,60.285675 C 69.706264,58.364516 67.929674,61.313961 68.687004,61.495731 M 68.687004,61.495731 C 69.591435,59.309911 66.900394,62.544355 68.043678,62.627682 M 68.043678,62.629246 C 68.922466,60.416494 66.080672,63.262488 67.400337,63.644001 M 67.400337,63.644001 C 68.637166,61.493616 65.270063,64.046629 66.774567,64.502922 M 66.773872,64.502922 C 68.54161,62.308367 64.552983,64.310365 66.130542,65.166542 M 66.130539,65.168098 C 68.950331,62.92043 63.589718,64.210541 65.487201,65.674707 M 65.487198,65.674706 C 69.027432,63.92701 63.105405,63.973648 64.843875,65.987561 M 64.843178,65.987564 C 68.011896,64.348621 62.54869,63.852251 64.217415,66.105133 M 64.217415,66.105133 C 67.50635,64.98994 61.946644,63.699731 63.574073,66.065299 M 63.574074,66.0653 C 67.49252,65.577562 61.302543,62.996041 62.930745,65.869997 M 62.93005,65.869995 C 66.472759,65.883788 60.445997,62.853155 62.28671,65.517678 M 62.286709,65.519249 C 64.781303,65.903219 61.203724,62.980721 61.643213,65.088814 M 61.643211,65.088814 C 63.425136,65.627975 61.233959,63.156252 61.017617,64.541195 M 61.016922,64.542755 C 62.402125,64.856981 60.733943,63.051449 60.373581,63.958047 M 60.373581,63.956863 C 61.63615,64.380434 59.852651,63.545658 59.730077,63.331137 M 59.730076,63.331139 C 61.244608,64.354951 58.054682,63.166341 59.086742,62.70541 M 59.086742,62.70697 C 61.180698,64.130433 57.457802,62.914925 58.461155,62.119518 M 58.460453,62.121078 C 60.760949,63.979031 56.260821,62.760984 57.816949,61.614478 M 57.816948,61.613304 C 60.938749,63.607019 55.420866,62.876998 57.173614,61.181306 M 57.173615,61.182869 C 60.707639,63.088868 54.651024,62.860314 56.530275,60.870005 M 56.530273,60.871567 C 60.716957,60.925139 55.015197,63.14068 55.904507,60.71455 M 55.90382,60.71455 C 60.107704,60.43892 54.459706,63.190162 55.260487,60.674713 M 55.260487,60.676266 C 59.565764,60.768692 53.111533,63.472214 54.617146,60.792278 M 54.617146,60.792278 C 58.909866,62.047933 50.754278,63.399202 53.97382,61.065296 M 53.973118,61.066868 C 58.154028,61.826863 50.475838,64.232855 53.329783,61.45746 M 53.329784,61.457458 C 57.388085,61.750708 50.243622,64.74879 52.704018,62.00507 M 52.704018,62.003906 C 56.719767,61.977746 49.820017,65.66414 52.060684,62.669079 M 52.059986,62.667519 C 56.004953,62.446326 49.334447,66.520728 51.416654,63.408865 M 51.416653,63.410427 C 55.434021,62.704856 48.996767,67.684779 50.773149,64.231456 M 50.773148,64.229897 C 54.078784,62.992455 49.484137,68.327624 50.147554,65.090367 M 50.146858,65.088814 C 52.168816,64.176299 49.9657,67.68351 49.503525,65.949287 M 49.503525,65.94928 C 50.85882,65.718785 49.28335,67.72102 48.860021,66.768753 M 48.86002,66.768753 C 50.077244,66.039582 48.463609,67.489125 48.216687,67.549936 M 48.216686,67.549934 C 48.864598,66.706961 46.790273,68.118797 47.591092,68.253402 M 47.590389,68.253403 C 49.766514,66.637392 45.530316,67.77143 46.946886,68.801011 M 46.946884,68.799446 C 50.028169,66.836973 44.530429,67.60154 46.303552,69.229886 M 46.303551,69.229889 C 50.337854,68.627653 44.506992,67.200375 45.660219,69.504478 M 45.660217,69.502907 C 49.874487,69.805742 44.324375,67.119586 45.016884,69.620476 M 45.01619,69.620476 C 49.499087,69.88086 43.225929,66.889863 44.390423,69.542358 M 44.390423,69.542358 C 49.020368,67.87312 40.023452,66.43663 43.747082,69.269333 M 43.747082,69.269333 C 47.902225,68.336828 40.05457,66.232749 43.103756,68.840469 M 43.103054,68.839294 C 47.062719,68.367019 39.933652,65.495065 42.459721,68.254578 M 42.459721,68.253403 C 46.281217,68.235572 39.701152,64.235912 41.833954,67.472206 M 41.833954,67.472206 C 45.720467,67.777065 39.252557,63.255031 41.19062,66.573456 M 41.189926,66.573456 C 44.897911,67.110261 38.89635,62.220959 40.546593,65.558693 M 40.546593,65.558693 C 44.579292,66.369011 38.338006,60.744423 39.903087,64.504485 M 39.903088,64.502922 C 43.784882,65.606213 38.067349,59.60126 39.277491,63.370983 M 39.276798,63.370983 C 43.182467,64.529056 37.390446,58.323701 38.633463,62.240216 M 38.633465,62.238644 C 42.180902,63.486439 37.132157,57.478067 37.989951,61.143033 M 37.989952,61.144596 C 40.165264,62.252093 37.777409,57.870322 37.346624,60.090384 M 37.346622,60.090385 C 38.860762,60.520284 37.231428,57.988786 36.703284,59.115463 M 36.703285,59.113899 C 37.942512,59.664361 36.293577,58.391625 36.077518,58.293263 M 36.076824,58.293262 C 35.69742,58.944702 34.36715,57.342154 35.433491,57.589794 M 35.433491,57.589794 C 37.528147,59.436329 33.340232,58.077629 34.790155,57.041796 M 34.790154,57.043358 C 37.986986,58.964327 32.421439,58.550497 34.146822,56.691041 M 34.146126,56.69104 C 38.253194,56.532452 32.781683,58.987301 33.520359,56.535583 M 33.520359,56.535583 C 38.873491,58.418996 29.49187,58.982351 32.877026,56.534023 M 32.877026,56.535583 C 37.40358,58.112015 28.656655,59.868995 32.233692,56.77034 M 32.23299,56.77034 C 36.231959,57.853226 28.559689,59.666468 31.589663,57.15937 M 31.589663,57.160923 C 35.782138,57.747136 28.308595,61.458032 30.96389,57.707371 M 30.96389,57.707371 C 34.787284,57.975621 28.02305,61.287127 30.320557,58.408871 M 30.319862,58.410435 C 34.154142,58.483159 27.529113,62.331772 29.676529,59.231464 M 29.676529,59.2299 C 34.351809,59.526689 26.668329,64.512373 29.033024,60.16655 M 29.033024,60.168114 C 32.909406,59.670734 26.600381,64.663569 28.38969,61.143032 M 28.38969,61.144596 C 32.820414,60.750113 25.922315,66.30586 27.764101,62.159363 M 27.763399,62.159363 C 32.268574,62.239414 25.03566,67.730144 27.119896,63.174118 M 27.119896,63.175682 C 30.792223,62.630416 24.843183,67.509242 26.476561,64.19162 M 26.476561,64.19162 C 30.23264,63.994175 23.935141,68.279586 25.833221,65.088814 M 25.833221,65.088814 C 29.565557,64.665866 23.414397,69.143259 25.207455,65.947723 M 25.206766,65.94928 C 29.122767,65.903608 22.424715,69.739385 24.563425,66.691025 M 24.563425,66.691025 C 28.601136,66.779793 21.608669,70.242034 23.920092,67.31636 M 23.920092,67.31636 C 29.080908,67.260583 20.626799,71.709148 23.276758,67.784692 M 89.018196,59.620491 C 90.654137,59.276479 88.334176,61.345688 88.374856,60.050929 M 88.374855,60.05093 C 90.292457,59.338504 87.843997,61.670261 87.731351,60.323957 M 87.731354,60.323956 C 89.684176,59.82987 86.766941,61.969405 87.088025,60.519258 M 87.088028,60.519257 C 89.776024,60.192718 85.667904,62.507859 86.462429,60.596986 M 86.461723,60.596985 C 88.916861,61.192785 84.357275,62.058237 85.818222,60.517685 M 85.818222,60.519257 C 88.193662,61.358293 83.533668,61.718473 85.174895,60.36184 M 85.174896,60.363403 C 88.889403,61.433888 83.314683,62.208192 84.531555,60.050929 M 84.531555,60.05093 C 86.910293,61.406769 82.292544,61.059761 83.905789,59.658775 M 83.90509,59.660336 C 87.750438,61.596731 81.929818,61.40256 83.261767,59.191628 M 83.261765,59.191628 C 86.139166,61.666949 80.788419,60.234042 82.618426,58.644008 M 82.618423,58.644009 C 84.427406,60.859989 80.095867,58.763284 81.975093,58.018281 M 81.974396,58.019844 C 85.565839,60.755301 79.855941,59.559131 81.348632,57.394506 M 81.348633,57.394505 C 84.85489,60.261946 79.058524,58.843307 80.705292,56.729324 M 80.705292,56.730885 C 84.276548,59.405984 78.381959,58.081619 80.061966,56.068439 M 80.061272,56.066875 C 83.40504,58.490749 77.670165,57.209944 79.417931,55.443089 M 79.417931,55.44154 C 82.770585,58.077356 77.105838,56.834175 78.774422,54.855644 M 78.774422,54.855644 C 82.09912,57.42208 76.472178,56.272968 78.148827,54.309196 M 78.14814,54.309196 C 81.620048,56.206377 75.691761,55.7552 77.504799,53.880726 M 77.504799,53.879162 C 81.240473,55.655489 74.995143,55.51633 76.86129,53.528015 M 76.86129,53.528015 C 80.154901,55.38303 74.412003,55.283528 76.217972,53.254986 M 76.217972,53.254986 C 79.306835,55.353722 73.462054,55.275978 75.592369,53.099529 M 75.591667,53.097969 C 79.00868,54.951167 72.430027,55.166643 74.948158,53.058132 M 74.948158,53.059696 C 78.314002,54.566217 72.123718,55.571567 74.304832,53.138977 M 74.304832,53.137424 C 77.74875,54.449135 71.493201,55.843071 73.661491,53.294823 M 73.661491,53.29327 C 77.614282,54.682861 69.867533,55.864372 73.035728,53.606133 M 73.035034,53.606133 C 77.135633,54.566052 69.390781,56.503951 72.391701,53.996735 M 72.391701,53.996735 C 76.282781,54.852919 68.985221,57.133579 71.74836,54.466618 M 71.74836,54.465042 C 75.60964,55.071194 68.547043,57.62826 71.105026,55.012665 M 71.10434,55.012665 C 75.082956,55.138288 68.168311,58.603459 70.460999,55.677845 M 70.460999,55.676273 C 74.499459,55.496401 67.663753,59.634535 69.835235,56.379739 M 69.835236,56.379738 C 74.15242,55.744759 67.194596,60.607032 69.191901,57.122649 M 69.191208,57.121475 C 72.106554,56.264667 67.776632,60.907801 68.547865,57.864388 M 68.547867,57.862823 C 70.75888,56.681889 68.275569,60.888437 67.904361,58.683854 M 67.904358,58.683853 C 69.637339,57.975004 67.651019,60.909627 67.278766,59.465037 M 67.278076,59.465038 C 68.410652,59.437852 67.063721,60.991057 66.634737,60.247402 M 66.634735,60.246231 C 67.846432,59.402121 66.291367,61.018328 65.991232,61.027413 M 65.991234,61.027412 C 66.674388,60.382136 64.985957,61.42443 65.347898,61.770323 M 65.3479,61.768761 C 65.99018,60.911314 63.912124,62.397193 64.722303,62.510109 M 64.721611,62.511669 C 66.737572,60.767323 63.186956,62.181472 64.078094,63.176853 M 64.078094,63.175682 C 65.798071,61.36148 61.990315,63.035515 63.434769,63.799458 M 63.434769,63.801018 C 65.436478,61.864063 61.3312,63.401412 62.791429,64.385349 M 62.791428,64.386909 C 64.9973,62.669282 60.777344,63.696235 62.148103,64.933359 M 62.147408,64.933357 C 66.016595,62.845626 60.144464,63.136663 61.521641,65.401678 M 61.521641,65.40168 C 65.130038,63.611971 59.424886,63.795934 60.8783,65.831715 M 60.8783,65.831718 C 64.745395,64.619768 58.756788,64.095827 60.234974,66.220741 M 60.23428,66.222313 C 64.00882,64.836819 58.018624,64.422919 59.590939,66.533615 M 59.590939,66.535172 C 63.523744,65.811572 57.771369,64.554233 58.965172,66.806648 M 58.965172,66.808205 C 63.053893,66.406965 57.222237,64.681353 58.321838,67.043343 M 58.321144,67.041779 C 62.468543,66.667724 56.513345,64.801677 57.677811,67.196068 M 57.677811,67.198799 C 61.766717,66.968187 55.96469,64.892687 57.034306,67.314812 M 57.034306,67.31636 C 61.030409,67.701751 55.823037,64.906847 56.40871,67.394089 M 56.408016,67.394089 C 60.64754,67.646743 54.878895,64.840517 55.764675,67.39254 M 55.764675,67.394089 C 59.196761,65.980691 53.084774,64.930539 55.121178,67.354645 M 55.121178,67.354645 C 59.510346,67.858472 53.596677,64.628854 54.477842,67.275356 M 54.47784,67.276917 C 59.139554,65.765268 50.376492,64.164885 53.834503,67.119507 M 53.834503,67.121071 C 57.562015,66.118898 51.074277,64.220596 53.208736,66.92421 M 53.208042,66.925774 C 57.919932,65.5675 48.976564,63.718122 52.564709,66.691025 M 52.564709,66.691025 C 56.517366,65.964121 49.794648,63.365754 51.921373,66.378162 M 51.921371,66.378159 C 56.698383,65.769209 48.21681,63.179116 51.278042,66.027016 M 51.277344,66.027016 C 55.013529,65.734048 49.004461,62.591337 50.651579,65.636424 M 50.651581,65.636421 C 56.041821,65.890199 47.289726,61.029701 50.008238,65.204815 M 50.00824,65.206375 C 55.071545,65.650487 47.030801,61.441716 49.36491,64.738058 M 49.364216,64.73806 C 52.32854,65.392354 47.522192,61.2889 48.720875,64.190058 M 48.720875,64.19162 C 50.723221,64.665527 47.999977,61.977656 48.095109,63.683446 M 48.095108,63.683445 C 49.704137,63.967663 47.543452,61.756928 47.451782,63.096001 M 47.45108,63.097565 C 49.015547,64.122074 47.182902,61.519173 46.807747,62.551517 M 46.807747,62.549946 C 47.186744,61.990308 45.901991,62.533857 46.164242,62.002334 M 46.164242,62.003906 C 46.386988,62.702283 44.209796,60.974279 45.520908,61.455898 M 45.520908,61.457458 C 48.061939,62.860922 43.705086,62.215772 44.895313,60.949294 M 44.894619,60.949295 C 47.14794,62.752831 42.486738,61.540798 44.251113,60.479413 M 44.251114,60.480976 C 47.819416,62.117242 41.977973,62.079151 43.607779,60.090384 M 43.60778,60.090385 C 47.649588,60.717105 41.80699,62.064641 42.964439,59.77752 M 42.964439,59.777519 C 46.983382,60.295273 41.235897,61.805865 42.338673,59.50449 M 42.337986,59.50449 C 46.503438,59.836584 40.557387,61.729732 41.694645,59.347473 M 41.694645,59.347473 C 46.915226,61.338188 37.700699,61.634886 41.051311,59.307636 M 41.051311,59.309193 C 44.449062,61.009303 38.061292,61.722973 40.407978,59.347473 M 40.40728,59.347473 C 44.26696,61.117928 36.392431,61.393306 39.763947,59.542767 M 39.763947,59.542767 C 43.511288,61.097207 35.945955,61.837997 39.138184,59.815792 M 39.138184,59.815792 C 42.908602,60.98186 35.587884,62.428799 38.494846,60.204823 M 38.494152,60.206387 C 42.855332,61.543521 34.566968,63.765375 37.850819,60.674713 M 37.850819,60.676266 C 42.406468,61.545249 34.290459,64.899212 37.20731,61.302006 M 37.20731,61.300442 C 40.948795,61.685311 34.22946,64.772763 36.581711,61.962498 M 36.581017,61.964062 C 41.149616,62.123612 33.507727,66.553673 35.937683,62.745247 M 35.937683,62.745247 C 39.690779,62.79184 33.197163,66.791811 35.294178,63.566273 M 35.294178,63.566273 C 39.128219,63.50891 32.614969,67.601354 34.650845,64.425194 M 34.650845,64.425194 C 38.419946,64.272217 32.10536,68.537093 34.025249,65.322388 M 34.024555,65.323952 C 38.495375,65.083949 31.323393,70.270151 33.381042,66.222313 M 33.381042,66.222313 C 37.160545,66.019209 30.749282,70.274424 32.737717,67.081619 M 32.737717,67.081619 C 36.47743,66.756427 30.226934,71.123997 32.094376,67.940536 M 32.094376,67.940536 C 35.932836,67.895993 29.340836,71.829709 31.45105,68.721725 M 31.450348,68.721725 C 35.386097,68.680834 28.655892,72.467245 30.824581,69.425179 M 30.824581,69.425179 C 34.917289,69.451979 27.869065,72.973665 30.181247,70.052097 M 30.181248,70.050522 C 35.073319,69.348879 27.560626,73.961442 29.537914,70.596962 M 29.537218,70.596962 C 32.700808,70.001856 27.644948,73.849995 28.893885,70.988735 M 28.893885,70.987556 C 31.012011,70.909629 27.72374,72.999087 28.268119,71.300037 M 28.26812,71.300034 C 30.093752,71.282625 27.522149,72.630257 27.624785,71.455883 M 27.62409,71.455879 C 29.177919,71.155759 27.023817,72.392559 26.980757,71.535172 M 26.980757,71.533607 C 28.034702,72.087992 26.388636,70.751876 26.337251,71.455883 M 26.337252,71.455879 C 28.248585,72.59833 25.438324,69.70996 25.711657,71.260582 M 91.43605,59.50449 C 93.607682,58.161305 91.409333,61.936165 90.79271,60.206385 M 90.792709,60.206387 C 92.402929,59.640864 90.39282,62.207713 90.166944,60.870005 M 90.166245,60.871567 C 91.629083,60.32593 89.865436,62.586108 89.522916,61.533625 M 89.522919,61.535187 C 91.206869,60.180195 89.507697,63.067302 88.879581,62.199198 M 88.879578,62.1992 C 89.48081,62.574341 87.554919,64.025924 88.236248,62.822972 M 88.23555,62.824535 C 89.651396,61.101115 87.939051,64.56031 87.592209,63.370983 M 87.592209,63.370983 C 88.591468,62.313615 87.32483,64.606866 86.966446,63.878746 M 86.966446,63.878746 C 87.819046,63.206988 86.652163,64.748624 86.323112,64.347456 M 86.322426,64.347458 L 85.679085,64.696663 M 85.679085,64.698212 C 86.598875,63.875386 85.370349,65.499865 85.035579,65.011087 M 85.035576,65.011086 C 85.99245,64.365487 84.686006,65.607829 84.409984,65.204815 M 84.409294,65.206375 C 85.578528,64.546296 83.726665,66.231144 83.765955,65.32395 M 83.765953,65.323952 C 85.249033,64.566537 83.525613,66.376575 83.066531,65.784543 L 83.122444,65.40168 M 83.122444,65.40168 C 85.217279,64.931244 81.650204,66.736616 82.479118,65.361832 M 82.479126,65.363396 C 84.308323,65.278832 81.080943,66.453607 81.853523,65.245834 M 81.852821,65.245834 C 84.009843,65.619971 80.424651,66.350415 81.209315,65.087252 M 81.209312,65.088814 C 83.986135,65.78077 79.483292,66.443544 80.565988,64.853668 M 80.565987,64.85524 C 83.086234,65.927817 78.327223,66.058441 79.922647,64.582212 M 79.922646,64.582214 C 83.471477,66.132603 77.794543,66.303956 79.279321,64.267786 M 79.278625,64.269348 C 82.624745,66.131518 76.94451,65.698124 78.652859,63.878746 M 78.652863,63.878746 C 82.520564,65.432749 76.661047,65.662363 78.009519,63.488155 M 78.009521,63.488155 C 81.563432,65.327813 75.608652,65.017401 77.366184,63.096001 M 77.365494,63.097565 C 80.92363,64.799657 75.06236,64.627581 76.722156,62.66908 M 76.722153,62.667519 C 80.156691,64.552831 74.414131,64.130312 76.09639,62.237091 M 76.09639,62.238644 C 79.910243,63.678392 73.805888,63.887969 75.453056,61.846489 M 75.452362,61.848049 C 79.064191,63.583664 73.060797,63.359483 74.809021,61.419178 M 74.809021,61.418007 C 78.72843,62.866789 72.46946,63.146651 74.16552,61.065296 M 74.16552,61.066868 C 78.100566,62.427164 71.921728,62.816258 73.539925,60.71455 M 73.53923,60.71455 C 76.364724,62.879841 71.076569,62.263497 72.895889,60.400124 M 72.895889,60.401688 C 75.903769,62.833158 69.798007,61.72305 72.252388,60.088821 M 72.252388,60.090385 C 75.173801,62.350766 69.174273,61.508357 71.609062,59.855637 M 71.609062,59.855637 C 74.492565,62.125242 68.577716,61.329391 70.965721,59.620491 M 70.965721,59.620491 C 73.957756,61.74716 67.899671,61.257429 70.339951,59.463474 M 70.339249,59.465038 C 73.168969,61.497638 67.507293,61.19989 69.695923,59.307636 M 69.695923,59.309193 C 73.851201,61.128876 66.298867,61.10341 69.052589,59.191628 M 69.052589,59.191628 C 71.88782,61.075464 66.076025,60.960807 68.409256,59.113899 M 68.408562,59.113899 C 71.525357,61.084884 65.25084,61.08665 67.782799,59.074444 M 67.782799,59.074444 C 71.759954,61.450938 63.215865,61.138254 67.139458,59.074444 M 67.139458,59.074444 C 71.116397,61.450835 62.572746,61.138169 66.496124,59.074444 M 66.495438,59.074444 C 69.624346,60.840655 63.270898,61.219371 65.852097,59.113899 M 65.852097,59.113899 C 69.256497,61.060077 61.8379,61.225914 65.208588,59.152172 M 65.208588,59.152172 C 69.142348,61.522442 60.59338,61.276394 64.582993,59.2299 M 64.582298,59.2299 C 68.243485,61.280686 60.31394,61.178535 63.938965,59.306065 M 63.938965,59.309193 C 67.453739,61.255514 59.793612,61.2741 63.29546,59.386917 M 63.29546,59.386917 C 66.790482,61.346369 59.165042,61.34894 62.652126,59.50293 M 62.652126,59.50449 C 66.105805,61.424667 58.656243,61.479925 62.026531,59.622066 M 62.025829,59.620491 C 65.684739,61.669601 57.777156,61.537308 61.382332,59.736504 M 61.382332,59.738064 C 65.395713,62.159796 56.722537,61.846468 60.738998,59.814232 M 60.738998,59.815792 C 64.905454,62.087318 56.077203,62.309918 60.095657,59.933365 M 60.095657,59.933365 C 64.273021,62.217624 55.431294,62.415859 59.469891,60.049366 M 59.469196,60.05093 C 63.489051,62.46014 54.793751,62.337474 58.825863,60.16655 M 58.825863,60.168114 C 62.542599,62.139191 54.571554,62.336414 58.182529,60.323956 M 58.182529,60.323956 C 62.194685,62.723808 53.519055,62.61561 57.539196,60.441532 M 57.538498,60.441532 C 61.547252,62.844871 52.880729,62.728987 56.895164,60.55714 M 56.895164,60.558704 C 60.547297,62.543396 52.803221,62.574073 56.269394,60.71611 M 56.269394,60.71455 C 60.302165,63.134488 51.58868,63.01579 55.626064,60.830551 M 55.62537,60.832111 C 59.773269,63.106764 50.924909,63.349986 54.982029,60.98914 M 54.982029,60.987568 C 59.111857,63.307216 50.315608,63.478076 54.338531,61.143032 M 54.338531,61.144596 C 57.905364,63.011932 50.2854,63.377316 53.712936,61.339897 M 53.712234,61.339897 C 58.016909,63.546227 49.010456,64.408279 53.068901,61.533627 M 53.068901,61.535187 C 56.72288,63.137658 49.164372,64.031561 52.425396,61.768761 M 52.425396,61.768761 C 56.040756,63.288195 48.584181,64.393404 51.782063,62.04179 M 51.782063,62.04335 C 55.334472,63.45647 48.197176,64.829893 51.156467,62.314819 M 51.155773,62.316368 C 54.893714,63.780569 47.326754,65.081026 50.512268,62.627682 M 50.512268,62.629246 C 54.161178,64.114541 46.766788,65.183193 49.868935,62.942108 M 49.868935,62.940544 C 53.518292,64.209731 46.316114,65.780109 49.225594,63.329575 M 49.225594,63.331139 C 52.906496,64.531175 45.724602,66.324407 48.582268,63.761574 M 47.955799,64.19162 C 51.675507,65.018876 44.607559,67.354818 47.312466,64.699783 M 46.668434,65.206375 C 50.447123,65.910779 43.445171,68.622904 46.025101,65.792267 M 38.998871,72.510094 C 42.144082,72.004251 36.838302,75.912991 38.355538,72.978413 M 38.355537,72.979973 C 40.778246,72.589527 37.296614,75.369553 37.712205,73.37214 M 37.711502,73.370567 C 39.402494,73.164951 37.062965,74.976549 37.085737,73.721714 M 37.085735,73.72171 C 38.349449,73.599059 36.283735,74.962293 36.442402,73.996305 M 36.442402,73.994743 C 37.580316,73.784384 36.017403,74.356291 35.799069,74.190033 M 35.798374,74.190033 C 36.84957,74.162059 34.754273,73.601169 35.155039,74.269324 M 35.155041,74.267769 C 37.141899,74.745123 33.794098,72.911064 34.529274,74.308777 M 34.529274,74.30761 C 36.82635,75.230067 34.500404,72.775377 33.885941,74.229485 M 33.885246,74.229485 C 35.838354,74.141603 32.690536,72.74197 33.241911,74.112306 M 33.241913,74.112305 C 35.368838,74.275015 32.157146,72.280425 32.598407,73.878732 M 32.598408,73.877167 C 34.867932,74.121176 31.44129,71.84352 31.955074,73.602578 M 31.955074,73.604149 C 34.158144,73.965433 30.923421,71.545989 31.329477,73.29284 M 31.328783,73.29129 C 33.180156,73.625984 30.584958,71.450861 30.685278,72.902248 M 30.685278,72.900696 C 32.398688,73.186033 29.944688,71.168402 30.041937,72.510094 M 30.041937,72.510094 C 31.651125,72.935477 29.54846,70.861118 29.398604,72.041775 M 29.398603,72.041779 C 30.957651,72.646988 29.134134,70.985645 28.772838,71.61289 M 28.772142,71.612892 C 29.781999,72.19667 28.464367,70.911763 28.128809,71.181291"
     id="path2200" />
</svg>
