/* XPM */
const char *icon_bond_augmentsel[] = {
/* columns rows colors chars-per-pixel */
"24 24 108 2",
"   c gray16",
".  c gray19",
"X  c #3A3A3A",
"o  c gray25",
"O  c #464646",
"+  c gray28",
"@  c gray29",
"#  c gray31",
"$  c #515151",
"%  c gray32",
"&  c #535353",
"*  c #565656",
"=  c #585858",
"-  c gray36",
";  c gray37",
":  c #606060",
">  c gray38",
",  c gray40",
"<  c #6A6A6A",
"1  c gray42",
"2  c #6C6C6C",
"3  c gray43",
"4  c gray44",
"5  c gray46",
"6  c #767676",
"7  c #777777",
"8  c gray47",
"9  c #797979",
"0  c gray48",
"q  c #FF0707",
"w  c #FF0A0A",
"e  c #FF1414",
"r  c #FF1717",
"t  c #FF1919",
"y  c #FF1A1A",
"u  c #FF2525",
"i  c #FF2727",
"p  c #FF2F2F",
"a  c #FF4646",
"s  c #FF5050",
"d  c #FF5C5C",
"f  c #FF7777",
"g  c #808080",
"h  c #818181",
"j  c #888888",
"k  c gray54",
"l  c gray55",
"z  c gray58",
"x  c #989898",
"c  c gray60",
"v  c #9A9A9A",
"b  c gray63",
"n  c #A2A2A2",
"m  c gray65",
"M  c #A7A7A7",
"N  c #AFAFAF",
"B  c gray70",
"V  c #B6B6B6",
"C  c gray72",
"Z  c #B9B9B9",
"A  c #BBBBBB",
"S  c #BCBCBC",
"D  c #FF9999",
"F  c #FFA4A4",
"G  c #C1C1C1",
"H  c #C5C5C5",
"J  c #C6C6C6",
"K  c #C8C8C8",
"L  c #CDCDCD",
"P  c #D2D2D2",
"I  c #D7D7D7",
"U  c #D8D8D8",
"Y  c #DADADA",
"T  c gray86",
"R  c gainsboro",
"E  c #DDDDDD",
"W  c gray87",
"Q  c #DFDFDF",
"!  c #FFC7C7",
"~  c #FFCCCC",
"^  c #FFD1D1",
"/  c #FFD6D6",
"(  c gray88",
")  c #E1E1E1",
"_  c #E7E7E7",
"`  c gray91",
"'  c #EAEAEA",
"]  c gray92",
"[  c #ECECEC",
"{  c #EFEFEF",
"}  c #FFE6E6",
"|  c #FFE7E7",
" . c #FCEDED",
".. c gray94",
"X. c #F1F1F1",
"o. c #F5F2F2",
"O. c gray96",
"+. c #F6F6F6",
"@. c gray97",
"#. c #FFF5F5",
"$. c #F8F8F8",
"%. c gray98",
"&. c #FFFBFB",
"*. c gray99",
"=. c #FDFDFD",
"-. c #FEFEFE",
";. c #FFFEFE",
":. c none",
/* pixels */
":.:.:.:.:.:.:.:.:.:.:.:.:.:.:.:.:.:.:.:.:.:.:.:.",
":.:.:.:.:.:.:.:.:.:.:.:.:.:.:.:.:.:.:.:.:.:.:.:.",
":.:.:.:.:.:.+.+.:.:.:.:.:.:.:.:.:.:.:.+.+.:.:.:.",
":.:.:.:.:.:.x l :.:.:.:.:.:.:.:.:.:.:.x l :.:.:.",
":.:.:.:.:.L X m :.:.:.:.:.:.:.:.:.:.L X m :.:.:.",
":.:.:.:.{ ; 1 +.:.:.:.:.:.:.:.:.:...; 1 +.:.:.:.",
":.:.:.:.x o U :.:.:.:.:.:.:.:.:.:.x X I :.:.:.:.",
":.:.:.L X m :.:.:.:.:.:.:.:.:.:.L X M :.:.:.:.:.",
":.:...; 1 +.:.:.:.:.:.:.:.:.:.+.; 1 +.:.:.:.:.:.",
":.:.{ @ m :.:.:.:.:.:.:.:.:.:.' @ M :.:.:.:.:.:.",
":.:.%.9 $ ' :.:.:.:.:.:.:.:.:.%.9 $ ' :.:.:.:.:.",
"R +.{ J O h U %.{ R +.{ R %...R U O 5 +.+._ +.:.",
"= S V 3 k . = G V 3 G B 3 S V 3 G h   z Z 8 z V ",
"& U %.+.+.9 $ _ %...:. .o.:.%.+.:.+.5 $ _ +...Z ",
"$ R :.:.:.R O j :.:./ i F :.:.:.:.:.U O k +.I ; ",
"> ) :.:.:.:.5 , :.:.~ w p | :.:.:.:.x 3 N x k J ",
") :.:.:.:.L X m :.:.^ r i f :.:.:.L X m L X b G ",
"x { :.:.{ ; 1 +.:.:.^ t s s &.:.{ ; 1 ' ; 1 U ; ",
"> R :.:.x o U :.:.:.^ e r D :.:.z o U x o I %.J ",
") :.:.L X m :.:.:.:.! q a #.:.L X M L X m :.%.K ",
"x { +.> 1 +.:.:.:.:.| d ! :.+.> 1 { > 2 +.:.R 4 ",
"> ) +.x U :.:.:.:.:.:.:.:.:.%.x U $.x U :.:.R 3 ",
"S U ) :...) :.{ ) :...R +.{ ) :.{ ) :.{ ) :.P ; ",
"9 3 5 R b 5 U b 5 R b 4 J b 5 U b 5 R b 5 U b 3 "
};
