/* XPM */
const char *icon_bond_makedouble[] = {
/* columns rows colors chars-per-pixel */
"24 24 44 1",
"  c #1B1B1B",
". c gray11",
"X c #1E1E1E",
"o c #222222",
"O c gray16",
"+ c #2F2F2F",
"@ c #373737",
"# c #3F3F3F",
"$ c gray25",
"% c #444444",
"& c gray29",
"* c #565656",
"= c gray34",
"- c gray38",
"; c #686868",
": c #6D6D6D",
"> c gray43",
", c #797979",
"< c gray50",
"1 c gray53",
"2 c #898989",
"3 c gray57",
"4 c #979797",
"5 c gray62",
"6 c #A9A9A9",
"7 c gray71",
"8 c #BBBBBB",
"9 c #C0C0C0",
"0 c #C8C8C8",
"q c #CBCBCB",
"w c #D2D2D2",
"e c gray85",
"r c #DDDDDD",
"t c gray88",
"y c #E7E7E7",
"u c #EEEEEE",
"i c gray95",
"p c #F4F4F4",
"a c gray96",
"s c #F6F6F6",
"d c #F9F9F9",
"f c gray99",
"g c #FEFEFE",
"h c none",
/* pixels */
"hhhhhhhhhhhhhhhhhhhhhhhh",
"hhhhhhhhhhhhhhhhhhhhhhhh",
"hhhhhhhhhhhhhhhsshhhhhhh",
"hhhhhhhhhhhhhhh,<dhhhhhh",
"hhhhhhhhhhhhhh5 6sshhhhh",
"hhhhhhhhhhhhh0o1s,<hhhhh",
"hhhhhhhhhhhhr#*i5 6hhhhh",
"hhhhhhhhhhhi-@r0o1hhhhhh",
"hhhhhhhhhhh1o8t$*ihhhhhh",
"hhhhhhhhhh7.5i-@rhhhhhhh",
"hhhhhhhhhwO>s1o9hhhhhhhh",
"hhhhhhhhy%&u7.5hhhhhhhhh",
"hhhhhhhd:+rwO>dhhhhhhhhh",
"hhhhhhd4 7y$&uhhhhhhhhhh",
"hhhhhh8 2d:+rhhhhhhhhhhh",
"hhhhhr+:s4 7hhhhhhhhhhhh",
"hhhhs*$y8.3dhhhhhhhhhhhh",
"hhhhs20r+:shhhhhhhhhhhhh",
"hhhhhhs*$yhhhhhhhhhhhhhh",
"hhhhhhs20hhhhhhhhhhhhhhh",
"hhhhhhhhhhhhhhhhhhhhhhhh",
"hhhhhhhhhhhhhhhhhhhhhhhh",
"hhhhhhhhhhhhhhhhhhhhhhhh",
"hhhhhhhhhhhhhhhhhhhhhhhh"
};
