/* XPM */
const char *icon_bond_augment[] = {
/* columns rows colors chars-per-pixel */
"24 24 74 1",
"  c gray22",
". c #3A3A3A",
"X c gray25",
"o c gray28",
"O c #494949",
"+ c gray29",
"@ c gray32",
"# c gray36",
"$ c gray37",
"% c #606060",
"& c gray38",
"* c gray40",
"= c #676767",
"- c #6A6A6A",
"; c gray42",
": c #6C6C6C",
"> c #767676",
", c #797979",
"< c #FF0707",
"1 c #FF0A0A",
"2 c #FF1414",
"3 c #FF1717",
"4 c #FF1919",
"5 c #FF1A1A",
"6 c #FF2525",
"7 c #FF2727",
"8 c #FF2F2F",
"9 c #FF4646",
"0 c #FF5050",
"q c #FF5C5C",
"w c #FF7777",
"e c gray53",
"r c #888888",
"t c gray55",
"y c #939393",
"u c #989898",
"i c gray60",
"p c #9A9A9A",
"a c gray65",
"s c #A7A7A7",
"d c #AFAFAF",
"f c #B4B4B4",
"g c #BCBCBC",
"h c #FF9999",
"j c #FFA4A4",
"k c #C1C1C1",
"l c #CDCDCD",
"z c #D7D7D7",
"x c #D8D8D8",
"c c #DADADA",
"v c #FFC7C7",
"b c #FFCCCC",
"n c #FFD1D1",
"m c #FFD6D6",
"M c #E1E1E1",
"N c gray91",
"B c #EAEAEA",
"V c gray92",
"C c #ECECEC",
"Z c #FFE6E6",
"A c #FFE7E7",
"S c gray94",
"D c gray96",
"F c #F6F6F6",
"G c gray97",
"H c #FFF0F0",
"J c #FFF5F5",
"K c gray98",
"L c #FFFBFB",
"P c gray99",
"I c #FFFCFC",
"U c #FEFEFE",
"Y c #FFFEFE",
"T c none",
/* pixels */
"TTTTTTTTTTTTTTTTTTTTTTTT",
"TTTTTTTTTTTTTTTTTTTTTTTT",
"TTTTTTFFTTTTTTTTTTFFTFFT",
"TTTTTTptKTTTTTTTTTptKptK",
"TTTTTl.sTTTTTTTTTl.sl.sT",
"TTTTC$;FTTTTTTTTD%;N$;FT",
"TTTTpXxTTTTTTTTTu.zp.xTT",
"TTTl.sTTTTTHLTTl.sl.sTTT",
"TTD#;FTTTTm7jTF$*B%:FTTT",
"TTBOsTTTTTb18AFy%gpxTTTT",
"TTK,@BTTTTn37wTK,@BTTTTT",
"TTTMOePTTTn500LTMOeKTTTT",
"TTTTf kTTTn25hTTTf kTTTT",
"TTTTK,@NTTv<9HTTTK,@BTTT",
"TTTTTMotTTAqvTTTTTxotFFT",
"TTTTTL>*KTTTTTTTTTp;dutT",
"TTTTTl.sTTTTTTTTTl.sl.sT",
"TTTTC$:FTTTTTTTTC$;N$;DT",
"TTTTp.xTTTTTTTTTpXzp.zTT",
"TTTl.sTTTTTTTTTl.sl.sTTT",
"TTF%:FTTTTTTTTF%:C%:FTTT",
"TTFpxTTTTTTTTTFpxFpxTTTT",
"TTTTTTTTTTTTTTTTTTTTTTTT",
"TTTTTTTTTTTTTTTTTTTTTTTT"
};
