<?xml version="1.0" encoding="UTF-8" standalone="no"?>
<!-- Created with Inkscape (http://www.inkscape.org/) -->
<svg
   xmlns:svg="http://www.w3.org/2000/svg"
   xmlns="http://www.w3.org/2000/svg"
   xmlns:xlink="http://www.w3.org/1999/xlink"
   version="1.0"
   width="100"
   height="100"
   id="svg2">
  <defs
     id="defs4">
    <linearGradient
       id="linearGradient3197">
      <stop
         id="stop3199"
         style="stop-color:#e4e1e1;stop-opacity:1"
         offset="0" />
      <stop
         id="stop3201"
         style="stop-color:#14af00;stop-opacity:1"
         offset="1" />
    </linearGradient>
    <linearGradient
       id="linearGradient3189">
      <stop
         id="stop3191"
         style="stop-color:#000000;stop-opacity:1"
         offset="0" />
      <stop
         id="stop3193"
         style="stop-color:#000000;stop-opacity:0"
         offset="1" />
    </linearGradient>
    <radialGradient
       cx="50.059151"
       cy="48.853989"
       r="42.138134"
       fx="50.059151"
       fy="48.853989"
       id="radialGradient3113"
       xlink:href="#linearGradient3197"
       gradientUnits="userSpaceOnUse"
       gradientTransform="matrix(-3.1884564,0,0,1.870374,184.40316,33.485462)" />
    <radialGradient
       cx="50.059151"
       cy="48.853989"
       r="42.138134"
       fx="50.059151"
       fy="48.853989"
       id="radialGradient3115"
       xlink:href="#linearGradient3189"
       gradientUnits="userSpaceOnUse"
       gradientTransform="matrix(-3.1884564,0,0,1.870374,184.40316,33.485462)" />
  </defs>
  <g
     transform="matrix(1.6419254,0,0,1.6217995,-8.751781,-9.1379223)"
     id="g3107">
    <path
       d="M 29.871068,13.033261 L 29.871068,30.283261 L 12.589818,30.283261 L 12.589818,46.189511 C 13.773056,46.18951 22.507151,46.178691 29.871068,46.158261 L 29.871068,63.439511 L 45.746068,63.439511 C 45.746068,62.252663 45.735308,53.522411 45.714818,46.127011 C 54.196541,46.121111 61.748257,46.121411 63.027318,46.189511 L 63.027318,30.283261 L 45.683568,30.283261 C 45.677768,21.829908 45.678168,14.309106 45.746068,13.033261 L 29.871068,13.033261 L 29.871068,13.033261 z"
       id="path2209"
       style="fill:#e2e2e2;fill-opacity:1;fill-rule:evenodd;stroke:#e2e2e2;stroke-width:6;stroke-linecap:round;stroke-linejoin:round;stroke-miterlimit:4;stroke-dasharray:none;stroke-dashoffset:0;stroke-opacity:1" />
    <g
       transform="translate(-16.451056,-39.115566)"
       id="g2199">
      <path
         d="M 42.0625,47.75 L 42.0625,65 L 24.78125,65 L 24.78125,80.90625 C 25.964488,80.906249 34.698583,80.89543 42.0625,80.875 L 42.0625,98.15625 L 57.9375,98.15625 C 57.9375,96.969402 57.92674,88.23915 57.90625,80.84375 C 66.387973,80.83785 73.939689,80.83815 75.21875,80.90625 L 75.21875,65 L 57.875,65 C 57.8692,56.546647 57.8696,49.025845 57.9375,47.75 L 42.0625,47.75 L 42.0625,47.75 z"
         id="path3242"
         style="fill:none;stroke:#000000;stroke-width:6;stroke-linecap:round;stroke-linejoin:round;stroke-miterlimit:4;stroke-dasharray:none;stroke-dashoffset:0;stroke-opacity:1" />
      <path
         d="M 42.0625,47.734375 L 42.0625,65.015625 L 24.78125,65.015625 L 24.78125,80.890625 C 25.964492,80.890625 34.698582,80.879805 42.0625,80.859375 L 42.0625,98.171875 L 57.9375,98.171875 C 57.9375,96.984352 57.92675,88.229377 57.90625,80.828125 C 66.387959,80.822225 73.93969,80.822525 75.21875,80.890625 L 75.21875,65.015625 L 57.875,65.015625 C 57.8692,56.548092 57.8695,49.011828 57.9375,47.734375 L 42.0625,47.734375 L 42.0625,47.734375 z"
         id="path3176"
         style="fill:url(#radialGradient3113);fill-opacity:1;fill-rule:evenodd;stroke:url(#radialGradient3115);stroke-width:4.19999981;stroke-linecap:round;stroke-linejoin:round;stroke-miterlimit:4;stroke-dasharray:none;stroke-dashoffset:0;stroke-opacity:1" />
    </g>
  </g>
</svg>
