<?xml version="1.0" encoding="UTF-8" standalone="no"?>
<!-- Created with Inkscape (http://www.inkscape.org/) -->
<svg
   xmlns:svg="http://www.w3.org/2000/svg"
   xmlns="http://www.w3.org/2000/svg"
   xmlns:xlink="http://www.w3.org/1999/xlink"
   version="1.0"
   width="100"
   height="100"
   id="svg2">
  <defs
     id="defs4">
    <linearGradient
       id="linearGradient3613">
      <stop
         id="stop3615"
         style="stop-color:#690000;stop-opacity:1"
         offset="0" />
      <stop
         id="stop3617"
         style="stop-color:#ff0000;stop-opacity:0"
         offset="1" />
    </linearGradient>
    <linearGradient
       id="linearGradient3384">
      <stop
         id="stop3386"
         style="stop-color:#0000ff;stop-opacity:1"
         offset="0" />
      <stop
         id="stop3388"
         style="stop-color:#000000;stop-opacity:1"
         offset="1" />
    </linearGradient>
    <linearGradient
       id="linearGradient3252">
      <stop
         id="stop3254"
         style="stop-color:#ffffff;stop-opacity:1"
         offset="0" />
      <stop
         id="stop3256"
         style="stop-color:#7f7fff;stop-opacity:0"
         offset="1" />
    </linearGradient>
    <linearGradient
       x1="40.687019"
       y1="39.968079"
       x2="73.02729"
       y2="39.968079"
       id="linearGradient4458"
       xlink:href="#linearGradient3613"
       gradientUnits="userSpaceOnUse"
       gradientTransform="matrix(0,-0.1877941,-0.1877941,0,69.337754,23.997868)" />
    <linearGradient
       x1="25.398125"
       y1="63.345894"
       x2="90.625114"
       y2="63.345894"
       id="linearGradient4460"
       xlink:href="#linearGradient3384"
       gradientUnits="userSpaceOnUse" />
    <radialGradient
       cx="-89.470657"
       cy="6.2001209"
       r="33.767956"
       fx="-89.470657"
       fy="6.2001209"
       id="radialGradient4462"
       xlink:href="#linearGradient3252"
       gradientUnits="userSpaceOnUse"
       gradientTransform="matrix(0.4655719,0,0,3.531171e-2,95.362987,-11.878067)" />
    <linearGradient
       x1="25.398125"
       y1="63.345894"
       x2="90.625114"
       y2="63.345894"
       id="linearGradient4464"
       xlink:href="#linearGradient3384"
       gradientUnits="userSpaceOnUse"
       gradientTransform="matrix(0.2688926,0.2688926,-0.2688926,0.2688926,38.227733,-8.4494346)" />
    <radialGradient
       cx="58.01162"
       cy="63.345894"
       r="33.113495"
       fx="58.01162"
       fy="63.345894"
       id="radialGradient4466"
       xlink:href="#linearGradient3252"
       gradientUnits="userSpaceOnUse"
       gradientTransform="matrix(0.2134373,0,0,0.2134373,19.805211,5.9610473)" />
  </defs>
  <g
     transform="matrix(1.0426744,0,0,1.0426744,109.10485,41.210167)"
     id="g2634"
     style="fill:#282828;fill-opacity:1;stroke:none">
    <path
       d="M -75.513699,-23.558616 C -73.329509,-16.739126 -77.087901,-9.4403326 -83.907774,-7.257336 C -90.727646,-5.0743397 -98.025781,-8.8340114 -100.20758,-15.654266 C -102.39177,-22.473757 -98.633381,-29.772549 -91.813509,-31.955546 C -84.993636,-34.138542 -77.695502,-30.378871 -75.513699,-23.558616 L -75.513699,-23.558616 L -75.513699,-23.558616 z"
       id="path2427"
       style="fill:#282828;fill-opacity:1;fill-rule:evenodd;stroke:none" />
    <path
       d="M -92.295987,-14.124334 C -92.296422,-14.793372 -91.791999,-15.446084 -90.936587,-15.956736 C -89.225758,-16.978037 -86.444598,-16.979844 -84.732444,-15.960736 C -83.876368,-15.451196 -83.529029,-14.799038 -83.528594,-14.13 C -83.528481,-13.956796 -83.527294,-13.804019 -83.534794,-13.603767 L -83.506384,30.127544 L -92.266185,30.133244 L -92.295955,-14.124294 L -92.295987,-14.124334 z"
       id="path2435"
       style="fill:#282828;fill-opacity:1;fill-rule:evenodd;stroke:none" />
    <g
       transform="matrix(-0.2753572,1.7891066e-4,1.7891066e-4,0.2753572,-91.109309,10.904787)"
       id="g2439"
       style="fill:#282828;fill-opacity:1;stroke:none">
      <path
         d="M 90.625114,63.345894 C 90.628268,81.36006 76.025786,95.9651 58.011619,95.9651 C 39.997453,95.9651 25.394971,81.36006 25.398125,63.345894 C 25.394925,45.331728 39.997453,30.726688 58.011619,30.726688 C 76.025786,30.726688 90.628268,45.331728 90.625114,63.345894 L 90.625114,63.345894 L 90.625114,63.345894 z"
         transform="matrix(0,-0.2910472,0.4882663,0,-42.57093,87.178008)"
         id="path2441"
         style="fill:#282828;fill-opacity:1;fill-rule:evenodd;stroke:none" />
      <path
         d="M 90.625114,63.345894 C 90.628268,81.36006 76.025786,95.9651 58.011619,95.9651 C 39.997453,95.9651 25.394971,81.36006 25.398125,63.345894 C 25.394925,45.331728 39.997453,30.726688 58.011619,30.726688 C 76.025786,30.726688 90.628268,45.331728 90.625114,63.345894 L 90.625114,63.345894 L 90.625114,63.345894 z"
         transform="matrix(0.3452564,-0.2058015,0.3452564,0.2058015,-53.442293,69.13691)"
         id="path2443"
         style="opacity:0.71739131;fill:#282828;fill-opacity:1;fill-rule:evenodd;stroke:none" />
    </g>
    <path
       d="M -75.513699,32.672346 C -73.329509,39.491836 -77.087901,46.790629 -83.907774,48.973626 C -90.727646,51.156622 -98.025781,47.396951 -100.20758,40.576696 C -102.39177,33.757205 -98.633381,26.458413 -91.813509,24.275416 C -84.993636,22.09242 -77.695502,25.852091 -75.513699,32.672346 L -75.513699,32.672346 L -75.513699,32.672346 z"
       id="path2449"
       style="fill:#282828;fill-opacity:1;fill-rule:evenodd;stroke:none" />
    <path
       d="M -37.493213,8.6290971 L -62.838922,-1.1827199 L -62.873862,6.2066991 L -71.469269,6.1660581 L -71.491039,10.770739 L -62.895632,10.811379 L -62.930572,18.200799 L -37.493213,8.6290961 L -37.493213,8.6290971 z"
       id="path2455"
       style="fill:#282828;fill-opacity:1;fill-rule:evenodd;stroke:none" />
    <path
       d="M -9.3836318,-23.558616 C -7.1994418,-16.739126 -10.957834,-9.4403326 -17.777707,-7.257336 C -24.597579,-5.0743397 -31.895714,-8.8340114 -34.077517,-15.654266 C -36.261707,-22.473757 -32.503314,-29.772549 -25.683442,-31.955546 C -18.863569,-34.138542 -11.565435,-30.378871 -9.3836318,-23.558616 L -9.3836318,-23.558616 L -9.3836318,-23.558616 z"
       id="path2461"
       style="fill:#282828;fill-opacity:1;fill-rule:evenodd;stroke:none" />
    <path
       d="M -29.917917,-14.14109 C -29.918352,-14.810128 -29.413929,-15.46284 -28.558517,-15.973492 C -26.847688,-16.994793 -24.066528,-16.9966 -22.354374,-15.977492 C -21.498298,-15.467952 -21.150959,-14.815794 -21.150524,-14.146756 C -21.150411,-13.973552 -21.149224,-13.820775 -21.156724,-13.620523 L -21.128314,30.110788 L -29.888115,30.116488 L -29.917885,-14.14105 L -29.917917,-14.14109 z"
       id="path2470"
       style="fill:#282828;fill-opacity:1;fill-rule:evenodd;stroke:none" />
    <g
       transform="matrix(-0.2753572,1.7891066e-4,1.7891066e-4,0.2753572,-28.731239,10.888031)"
       id="g2474"
       style="fill:#282828;fill-opacity:1;stroke:none">
      <path
         d="M 90.625114,63.345894 C 90.628268,81.36006 76.025786,95.9651 58.011619,95.9651 C 39.997453,95.9651 25.394971,81.36006 25.398125,63.345894 C 25.394925,45.331728 39.997453,30.726688 58.011619,30.726688 C 76.025786,30.726688 90.628268,45.331728 90.625114,63.345894 L 90.625114,63.345894 L 90.625114,63.345894 z"
         transform="matrix(0,-0.2910472,0.4882663,0,-42.57093,87.178008)"
         id="path2476"
         style="fill:#282828;fill-opacity:1;fill-rule:evenodd;stroke:none" />
      <path
         d="M 90.625114,63.345894 C 90.628268,81.36006 76.025786,95.9651 58.011619,95.9651 C 39.997453,95.9651 25.394971,81.36006 25.398125,63.345894 C 25.394925,45.331728 39.997453,30.726688 58.011619,30.726688 C 76.025786,30.726688 90.628268,45.331728 90.625114,63.345894 L 90.625114,63.345894 L 90.625114,63.345894 z"
         transform="matrix(0.3452564,-0.2058015,0.3452564,0.2058015,-53.442293,69.13691)"
         id="path2478"
         style="opacity:0.71739131;fill:#282828;fill-opacity:1;fill-rule:evenodd;stroke:none" />
    </g>
    <path
       d="M -20.970852,-14.14109 C -20.971287,-14.810128 -20.466864,-15.46284 -19.611452,-15.973492 C -17.900623,-16.994793 -15.119463,-16.9966 -13.407309,-15.977492 C -12.551233,-15.467952 -12.203894,-14.815794 -12.203459,-14.146756 C -12.203346,-13.973552 -12.202159,-13.820775 -12.209659,-13.620523 L -12.181249,30.110788 L -20.94105,30.116488 L -20.97082,-14.14105 L -20.970852,-14.14109 z"
       id="path2484"
       style="fill:#282828;fill-opacity:1;fill-rule:evenodd;stroke:none" />
    <g
       transform="matrix(-0.2753572,1.7891066e-4,1.7891066e-4,0.2753572,-19.784174,10.888031)"
       id="g2488"
       style="fill:#282828;fill-opacity:1;stroke:none">
      <path
         d="M 90.625114,63.345894 C 90.628268,81.36006 76.025786,95.9651 58.011619,95.9651 C 39.997453,95.9651 25.394971,81.36006 25.398125,63.345894 C 25.394925,45.331728 39.997453,30.726688 58.011619,30.726688 C 76.025786,30.726688 90.628268,45.331728 90.625114,63.345894 L 90.625114,63.345894 L 90.625114,63.345894 z"
         transform="matrix(0,-0.2910472,0.4882663,0,-42.57093,87.178008)"
         id="path2490"
         style="fill:#282828;fill-opacity:1;fill-rule:evenodd;stroke:none" />
      <path
         d="M 90.625114,63.345894 C 90.628268,81.36006 76.025786,95.9651 58.011619,95.9651 C 39.997453,95.9651 25.394971,81.36006 25.398125,63.345894 C 25.394925,45.331728 39.997453,30.726688 58.011619,30.726688 C 76.025786,30.726688 90.628268,45.331728 90.625114,63.345894 L 90.625114,63.345894 L 90.625114,63.345894 z"
         transform="matrix(0.3452564,-0.2058015,0.3452564,0.2058015,-53.442293,69.13691)"
         id="path2492"
         style="opacity:0.71739131;fill:#282828;fill-opacity:1;fill-rule:evenodd;stroke:none" />
    </g>
    <path
       d="M -9.3836318,32.672346 C -7.1994418,39.491836 -10.957834,46.790629 -17.777707,48.973626 C -24.597579,51.156622 -31.895714,47.396951 -34.077517,40.576696 C -36.261707,33.757205 -32.503314,26.458413 -25.683442,24.275416 C -18.863569,22.09242 -11.565435,25.852091 -9.3836318,32.672346 L -9.3836318,32.672346 L -9.3836318,32.672346 z"
       id="path2498"
       style="fill:#282828;fill-opacity:1;fill-rule:evenodd;stroke:none" />
  </g>
  <g
     transform="matrix(1.0380468,-0.332272,0.332272,1.0380468,-31.804085,6.0319093)"
     id="g3558">
    <path
       d="M 49.066773,24.22879 C 49.067973,31.079065 43.515064,36.632947 36.664788,36.632947 C 29.814513,36.632947 24.261604,31.079065 24.262803,24.22879 C 24.261603,17.378514 29.814513,11.824633 36.664788,11.824633 C 43.515064,11.824633 49.067972,17.378514 49.066773,24.22879 L 49.066773,24.22879 L 49.066773,24.22879 z"
       id="path3560"
       style="fill:#0000ff;fill-opacity:1;fill-rule:evenodd;stroke:#000000;stroke-width:0.38027155px;stroke-linecap:butt;stroke-linejoin:miter;stroke-opacity:1" />
    <path
       d="M 45.562914,32.95223 C 40.719885,37.796953 32.866199,37.797641 28.022324,32.95373 C 23.178446,28.109853 23.179135,20.256167 28.023824,15.41314 C 32.866852,10.568415 40.720538,10.567727 45.564415,15.41164 C 50.40829,20.255516 50.407602,28.109203 45.562915,32.952231 L 45.562915,32.952231 L 45.562914,32.95223 z"
       id="path3562"
       style="opacity:0.71739131;fill:url(#linearGradient4464);fill-opacity:1;fill-rule:evenodd;stroke:none" />
    <path
       d="M 39.147988,19.481422 C 39.148661,23.326315 36.031948,26.443576 32.187053,26.443576 C 28.342159,26.443576 25.225445,23.326315 25.226118,19.481422 C 25.225445,15.636527 28.342159,12.519268 32.187053,12.519268 C 36.031948,12.519268 39.148661,15.636527 39.147988,19.481422 L 39.147988,19.481422 z"
       id="path3564"
       style="fill:url(#radialGradient4466);fill-opacity:1;fill-rule:evenodd;stroke:none" />
  </g>
  <use
     transform="translate(69.040458,7.6824444e-8)"
     id="use2853"
     x="0"
     y="0"
     width="100"
     height="100"
     xlink:href="#g3558" />
  <g
     transform="matrix(-9.9335153e-4,-1.5288442,1.5288442,-9.9335153e-4,-6.0454433,127.87262)"
     id="g2569">
    <path
       d="M 67.466951,10.330722 C 67.923236,10.330722 68.368163,10.675028 68.716049,11.258647 C 69.41182,12.425887 69.41182,14.322643 68.716049,15.489883 C 68.368163,16.073502 67.923236,16.310099 67.466951,16.310099 C 67.348826,16.310099 67.244631,16.310853 67.108062,16.305599 L 37.283234,16.305599 L 37.283234,10.3314 L 67.466951,10.330708 L 67.466951,10.330722 z"
       id="path3579"
       style="fill:#ff0000;fill-opacity:1;fill-rule:evenodd;stroke:#000000;stroke-width:0.09389705;stroke-linecap:round;stroke-linejoin:round;stroke-miterlimit:4;stroke-dasharray:none;stroke-dashoffset:2.63393869;stroke-opacity:1" />
    <path
       d="M 67.466951,10.330722 C 67.923236,10.330722 68.368163,10.675027 68.716049,11.258646 C 69.41182,12.425886 69.41182,14.322643 68.716049,15.489882 C 68.368163,16.073503 67.923236,16.310099 67.466951,16.310099 C 67.348826,16.310099 67.24463,16.310852 67.108062,16.305599 L 37.308744,16.305599 L 37.308744,10.331399 L 67.466951,10.330708 L 67.466951,10.330722 z"
       id="path3591"
       style="fill:url(#linearGradient4458);fill-opacity:1;fill-rule:evenodd;stroke:none" />
    <g
       transform="matrix(0,-0.1877941,-0.1877941,0,50.396529,11.128947)"
       id="g3621">
      <path
         d="M 90.625114,63.345894 C 90.628268,81.36006 76.025786,95.9651 58.011619,95.9651 C 39.997453,95.9651 25.394971,81.36006 25.398125,63.345894 C 25.394925,45.331728 39.997453,30.726688 58.011619,30.726688 C 76.025786,30.726688 90.628268,45.331728 90.625114,63.345894 L 90.625114,63.345894 L 90.625114,63.345894 z"
         transform="matrix(0,-0.2910472,0.4882663,0,-42.57093,87.178008)"
         id="path2467"
         style="fill:#ff0000;fill-rule:evenodd;stroke:#000000;stroke-width:1px;stroke-linecap:butt;stroke-linejoin:miter;stroke-opacity:1" />
      <path
         d="M 90.625114,63.345894 C 90.628268,81.36006 76.025786,95.9651 58.011619,95.9651 C 39.997453,95.9651 25.394971,81.36006 25.398125,63.345894 C 25.394925,45.331728 39.997453,30.726688 58.011619,30.726688 C 76.025786,30.726688 90.628268,45.331728 90.625114,63.345894 L 90.625114,63.345894 L 90.625114,63.345894 z"
         transform="matrix(0.3452564,-0.2058015,0.3452564,0.2058015,-53.442293,69.13691)"
         id="path2469"
         style="opacity:0.71739131;fill:url(#linearGradient4460);fill-opacity:1;fill-rule:evenodd;stroke:#000000;stroke-width:1px;stroke-linecap:butt;stroke-linejoin:miter;stroke-opacity:1" />
    </g>
    <rect
       width="31.442822"
       height="2.3848085"
       x="37.986553"
       y="-12.851535"
       transform="scale(1,-1)"
       id="rect3640"
       style="fill:url(#radialGradient4462);fill-opacity:1;fill-rule:evenodd;stroke:none" />
  </g>
  <path
     d="M 66.823055,48.440317 L 40.395734,38.209787 L 40.359304,45.914545 L 31.397093,45.872175 L 31.374393,50.673357 L 40.336604,50.715727 L 40.300174,58.420486 L 66.823056,48.440316 L 66.823055,48.440317 z"
     id="path6783"
     style="fill:#150f0e;fill-opacity:1;fill-rule:evenodd;stroke:#5c4f43;stroke-width:1.09742582;stroke-linecap:round;stroke-linejoin:round;stroke-miterlimit:4;stroke-dashoffset:0;stroke-opacity:1" />
  <use
     transform="translate(62.436588,7.6824413e-8)"
     id="use2849"
     x="0"
     y="0"
     width="100"
     height="100"
     xlink:href="#g2569" />
  <use
     transform="translate(76.845032,7.6824413e-8)"
     id="use2851"
     x="0"
     y="0"
     width="100"
     height="100"
     xlink:href="#g2569" />
  <use
     transform="translate(4.1403826e-8,58.434243)"
     id="use2855"
     x="0"
     y="0"
     width="100"
     height="100"
     xlink:href="#g3558" />
  <use
     transform="translate(69.240575,58.834477)"
     id="use2857"
     x="0"
     y="0"
     width="100"
     height="100"
     xlink:href="#g3558" />
</svg>
