<?xml version="1.0" encoding="UTF-8" standalone="no"?>
<!-- Created with Inkscape (http://www.inkscape.org/) -->
<svg
   xmlns:svg="http://www.w3.org/2000/svg"
   xmlns="http://www.w3.org/2000/svg"
   version="1.0"
   width="100"
   height="100"
   id="svg2">
  <defs
     id="defs4">
    <filter
       id="filter4471"
       color-interpolation-filters="sRGB"
       height="1.356258"
       width="1.376958"
       y="-0.17812899"
       x="-0.18847901">
      <feGaussianBlur
         stdDeviation="0.61632632"
         id="feGaussianBlur4473" />
    </filter>
  </defs>
  <path
     d="M 25.95075,27.16475 L 25.86675,27.51275 L 26.58675,27.56075 C 26.86275,27.58475 26.94675,27.72875 26.85075,28.13675 L 25.41075,34.47275 C 25.31475,34.88075 25.20675,35.02475 24.91875,35.04875 L 24.24675,35.12075 L 24.17475,35.46875 L 30.43875,35.46875 L 31.05075,33.35675 L 30.69075,33.35675 C 30.078751,34.832749 29.538749,35.04875 28.06275,35.04875 C 27.474751,35.04875 26.87475,35.01275 26.71875,34.89275 C 26.53875,34.74875 26.52675,34.568749 26.65875,34.00475 L 27.27075,31.37675 L 28.84275,31.37675 C 29.898749,31.37675 29.93475,31.628751 29.88675,32.40875 L 30.24675,32.40875 L 30.79875,29.90075 L 30.43875,29.90075 C 30.12675,30.728749 29.994749,30.92075 28.93875,30.92075 L 27.36675,30.92075 L 28.05075,27.93275 C 28.11075,27.64475 28.18275,27.58475 28.38675,27.58475 L 29.83875,27.58475 C 31.350748,27.58475 31.31475,28.088751 31.20675,29.16875 L 31.56675,29.16875 L 32.02275,27.16475 L 25.95075,27.16475"
     transform="matrix(6.4405034,0,0,6.4405034,-135.3337,-157.01622)"
     id="flowRoot3405" />
  <path
     d="M 25.95075,27.16475 L 25.86675,27.51275 L 26.58675,27.56075 C 26.86275,27.58475 26.94675,27.72875 26.85075,28.13675 L 25.41075,34.47275 C 25.31475,34.88075 25.20675,35.02475 24.91875,35.04875 L 24.24675,35.12075 L 24.17475,35.46875 L 30.43875,35.46875 L 31.05075,33.35675 L 30.69075,33.35675 C 30.078751,34.832749 29.538749,35.04875 28.06275,35.04875 C 27.474751,35.04875 26.87475,35.01275 26.71875,34.89275 C 26.53875,34.74875 26.52675,34.568749 26.65875,34.00475 L 27.27075,31.37675 L 28.84275,31.37675 C 29.898749,31.37675 29.93475,31.628751 29.88675,32.40875 L 30.24675,32.40875 L 30.79875,29.90075 L 30.43875,29.90075 C 30.12675,30.728749 29.994749,30.92075 28.93875,30.92075 L 27.36675,30.92075 L 28.05075,27.93275 C 28.11075,27.64475 28.18275,27.58475 28.38675,27.58475 L 29.83875,27.58475 C 31.350748,27.58475 31.31475,28.088751 31.20675,29.16875 L 31.56675,29.16875 L 32.02275,27.16475 L 25.95075,27.16475"
     transform="matrix(6.4405034,0,0,6.4405034,-127.82941,-147.21856)"
     id="flowRoot3417"
     style="fill:#000000;fill-opacity:0.73033711;filter:url(#filter4471)" />
</svg>
