<?xml version="1.0" encoding="UTF-8" standalone="no"?>
<!-- Created with Inkscape (http://www.inkscape.org/) -->
<svg
   xmlns:svg="http://www.w3.org/2000/svg"
   xmlns="http://www.w3.org/2000/svg"
   version="1.0"
   width="100"
   height="100"
   id="svg2">
  <defs
     id="defs4" />
  <g
     transform="matrix(1.8139565,0,0,1.8139565,-36.752469,-30.034814)"
     id="g2239"
     style="fill:#e7e7e3;fill-opacity:1;stroke:none">
    <path
       d="M 31.383599,31.686262 L 54.388483,31.738562 L 42.538479,69.330672 M 24.691079,26.739767 L 38.613474,70.698846 L 44.206858,70.698846 L 58.104825,26.739767 L 24.691079,26.739767"
       id="path2241"
       style="font-size:12px;font-style:normal;font-weight:normal;fill:#e7e7e3;fill-opacity:1;stroke:none;font-family:Bitstream Vera Sans" />
    <path
       d="M 73.089192,32.937402 L 71.858376,32.937402 L 71.578645,34.36403 C 71.214995,36.154305 70.99121,36.35012 69.256878,36.35012 L 62.990904,36.35012 C 64.921048,34.33606 65.564432,33.748619 67.354707,32.349967 C 69.900256,30.391853 70.991213,29.412792 71.634591,28.573599 C 72.52973,27.342782 72.9773,26.08399 72.9773,24.741284 C 72.9773,21.580327 70.319853,19.28653 66.683353,19.28653 C 63.130775,19.28653 60.389406,21.580327 60.389406,24.545472 C 60.389406,26.307775 61.284548,27.510621 62.627253,27.510621 C 63.662258,27.510621 64.361586,26.811293 64.361586,25.804262 C 64.361586,25.104934 63.969962,24.461553 63.354554,24.209795 C 62.319552,23.762226 62.263603,23.734253 62.263603,23.370602 C 62.263603,22.951006 62.543337,22.307625 62.934958,21.832082 C 63.634285,20.992889 64.809158,20.489373 66.123891,20.489373 C 68.417685,20.489373 69.81634,21.916004 69.81634,24.265742 C 69.81634,26.335748 68.837281,28.209951 66.515514,30.671581 L 64.865101,32.405913 L 62.6832,34.755653 C 61.676171,35.930524 61.172652,36.573908 59.941836,38.196344 L 59.941836,38.979591 L 72.557703,38.979591 L 73.089192,32.937402"
       id="path2243"
       style="font-size:12px;font-style:normal;font-weight:normal;line-height:125%;fill:#e7e7e3;fill-opacity:1;stroke:none;font-family:Bitstream Vera Sans" />
  </g>
  <g
     transform="matrix(1.8139565,0,0,1.8139565,-40.616689,-33.194743)"
     id="g2235">
    <path
       d="M 31.383599,31.686262 L 54.388483,31.738562 L 42.538479,69.330672 M 24.691079,26.739767 L 38.613474,70.698846 L 44.206858,70.698846 L 58.104825,26.739767 L 24.691079,26.739767"
       id="text2221"
       style="font-size:12px;font-style:normal;font-weight:normal;fill:#000000;fill-opacity:1;stroke:none;font-family:Bitstream Vera Sans" />
    <path
       d="M 73.089192,32.937402 L 71.858376,32.937402 L 71.578645,34.36403 C 71.214995,36.154305 70.99121,36.35012 69.256878,36.35012 L 62.990904,36.35012 C 64.921048,34.33606 65.564432,33.748619 67.354707,32.349967 C 69.900256,30.391853 70.991213,29.412792 71.634591,28.573599 C 72.52973,27.342782 72.9773,26.08399 72.9773,24.741284 C 72.9773,21.580327 70.319853,19.28653 66.683353,19.28653 C 63.130775,19.28653 60.389406,21.580327 60.389406,24.545472 C 60.389406,26.307775 61.284548,27.510621 62.627253,27.510621 C 63.662258,27.510621 64.361586,26.811293 64.361586,25.804262 C 64.361586,25.104934 63.969962,24.461553 63.354554,24.209795 C 62.319552,23.762226 62.263603,23.734253 62.263603,23.370602 C 62.263603,22.951006 62.543337,22.307625 62.934958,21.832082 C 63.634285,20.992889 64.809158,20.489373 66.123891,20.489373 C 68.417685,20.489373 69.81634,21.916004 69.81634,24.265742 C 69.81634,26.335748 68.837281,28.209951 66.515514,30.671581 L 64.865101,32.405913 L 62.6832,34.755653 C 61.676171,35.930524 61.172652,36.573908 59.941836,38.196344 L 59.941836,38.979591 L 72.557703,38.979591 L 73.089192,32.937402"
       id="text2230"
       style="font-size:12px;font-style:normal;font-weight:normal;line-height:125%;fill:#000000;fill-opacity:1;stroke:none;font-family:Bitstream Vera Sans" />
  </g>
</svg>
