/* XPM */
const char *icon_remove[] = {
/* columns rows colors chars-per-pixel */
"16 16 40 1",
"  c black",
". c #353535",
"X c #393939",
"o c #565656",
"O c gray34",
"+ c #585858",
"@ c #E22304",
"# c #E5361A",
"$ c #E5381B",
"% c #E64126",
"& c #E9573E",
"* c #EC6D58",
"= c #EE7E6B",
"- c #EE816F",
"; c #F08F7F",
": c #8D8D8D",
"> c #909090",
", c #939393",
"< c #959595",
"1 c #9D9D9D",
"2 c gray62",
"3 c #A0A0A0",
"4 c #B2B2B2",
"5 c #F29889",
"6 c #F3A396",
"7 c #F4A79A",
"8 c #F4ADA1",
"9 c #F5B1A6",
"0 c #F7C5BD",
"q c #C3C3C3",
"w c #D5D5D5",
"e c #F8C8C0",
"r c gray91",
"t c #EFEFEF",
"y c #FEF2EF",
"u c #FDF2F0",
"i c #FEF7F6",
"p c #FFFCFC",
"a c #FFFEFE",
"s c none",
/* pixels */
"ssssssssssssssss",
"sstrrrrrrrrrrtss",
"s,X....O:::::<ts",
"s+     +rrrrw:rs",
"s4O,111qssssr:rs",
"sr:rssssssssr:rs",
"sr:rssupsiisr:rs",
"sr:rsy*6y=;pr:rs",
"sr:rss6#&%0sr:rs",
"sr:rssy&@-psr:rs",
"sr:rsi=%-#7sr:rs",
"sr:rsi5ep89sr:rs",
"sr:rssssssssr:rs",
"sr:rssssssssr:rs",
"sr:wrrrrrrrrw:rs",
"st211311113111ts"
};
