/* XPM */
const char *icon_ds_sphere[] = {
/* columns rows colors chars-per-pixel */
"16 16 66 1",
"  c #741738",
". c #78153B",
"X c #771B3E",
"o c #7B3169",
"O c #860009",
"+ c #88020C",
"@ c #93000A",
"# c #8B0610",
"$ c #A0000B",
"% c #AE000C",
"& c #A60C16",
"* c #850A21",
"= c #840C23",
"- c #9B1E27",
"; c #B91D28",
": c #C8000E",
"> c #D6000F",
", c #F00011",
"< c #F1141F",
"1 c #F2282F",
"2 c #F43D3F",
"3 c #8A3960",
"4 c #893E6D",
"5 c #D94447",
"6 c #F54541",
"7 c #E45751",
"8 c #D56C71",
"9 c #E1686B",
"0 c #E96F6B",
"q c #F66663",
"w c #F77364",
"e c #F87F67",
"r c #F77D68",
"t c #ED867D",
"y c #BE7A87",
"u c #BF7D8C",
"i c #C07B85",
"p c #C08498",
"a c #DF8D91",
"s c #CD9298",
"d c #DA9398",
"f c #EF9893",
"g c #F99590",
"h c #FAA488",
"j c #FAA498",
"k c #FAA598",
"l c #CF9EAB",
"z c #DA9EA2",
"x c #D9ACB2",
"c c #FAAFAA",
"v c #FAB5A4",
"b c #F6C3BD",
"n c #D7B2C1",
"m c #D6B2C2",
"M c #D6B3C2",
"N c #EFC9CC",
"B c #F5C2C1",
"V c #F0DADC",
"C c #F0E4EA",
"Z c #F4E7E9",
"A c #FDF1EF",
"S c #FCF4F5",
"D c #FDF5F6",
"F c #FDFAFA",
"G c #FFFCFC",
"H c none",
/* pixels */
"HHHHHHHHHHHHHHHH",
"HHHHHHHHHHHHHHHH",
"HHHHGbf09aNHHHHH",
"HHHAjrw6<>;dGHHH",
"HHHjhvgq1,:&zHHH",
"HHbevHcq1,>%-VHH",
"HHtwgcgq1,>%+xHH",
"HD76qqq2<,>%OuHH",
"HD5<111<,,:$=pHH",
"HH8>,,,,,>%@XmHH",
"HHN;:>>>:%$.4CHH",
"HHHd&%%%$@.omHHH",
"HHHGz-+O* 3mHHHH",
"HHHHHVsiylZHHHHH",
"HHHHHHHHHHHHHHHH",
"HHHHHHHHHHHHHHHH"
};
