/* XPM */
const char *icon_caesious[] = {
/* columns rows colors chars-per-pixel */
"24 24 250 2",
"   c #0E3479",
".  c #13387E",
"X  c #0F3A87",
"o  c #144091",
"O  c #164292",
"+  c #12439D",
"@  c #274885",
"#  c #244B9B",
"$  c #26509A",
"%  c #2B529D",
"&  c #365494",
"*  c #3C5E9E",
"=  c #1347A5",
"-  c #1447A5",
";  c #1648A6",
":  c #174AA7",
">  c #174BA7",
",  c #144AAC",
"<  c #144DB3",
"1  c #154EB7",
"2  c #1650B7",
"3  c #1D53B7",
"4  c #1652BF",
"5  c #1C54BE",
"6  c #1E56BF",
"7  c #2954AA",
"8  c #2A56AF",
"9  c #2358BB",
"0  c #3E65BB",
"q  c #556C99",
"w  c #677999",
"e  c #4E64A0",
"r  c #4563A9",
"t  c #4B66AC",
"y  c #5367A5",
"u  c #5469A8",
"i  c #5B70A8",
"p  c #4162B1",
"a  c #426BB5",
"s  c #526BB1",
"d  c #5A71B3",
"f  c #5E74B2",
"g  c #6B7CAB",
"h  c #6678B0",
"j  c #6C7EB6",
"k  c #1653C3",
"l  c #1753C3",
"z  c #1755C7",
"x  c #1D56C0",
"c  c #1955C4",
"v  c #1757CB",
"b  c #1858CF",
"n  c #1B5BD0",
"m  c #185AD3",
"M  c #185CD7",
"N  c #195DD7",
"B  c #195EDC",
"V  c #2E5FC2",
"C  c #215DD1",
"Z  c #2F65C8",
"A  c #3865C5",
"S  c #386CCC",
"D  c #2663D3",
"F  c #2E65D5",
"G  c #2263DE",
"H  c #1960E0",
"J  c #1A62E5",
"K  c #1B64EA",
"L  c #1C68F3",
"P  c #1D69F3",
"I  c #1C6AF7",
"U  c #1C6AF9",
"Y  c #1D6BF9",
"T  c #1F6EFF",
"R  c #2B68E0",
"E  c #2268EB",
"W  c #2369EB",
"Q  c #2B6DEC",
"!  c #3770E2",
"~  c #3572ED",
"^  c #3A74E9",
"/  c #246CF4",
"(  c #2C73F4",
")  c #3579F4",
"_  c #347CFF",
"`  c #357CFF",
"'  c #367DFF",
"]  c #3879FA",
"[  c #406DCE",
"{  c #4771D0",
"}  c #4B76DB",
"|  c #647ECA",
" . c #788498",
".. c #6F80A1",
"X. c #7986A9",
"o. c #7D94BF",
"O. c #6887C0",
"+. c #7A88C8",
"@. c #6B8FD0",
"#. c #6790DB",
"$. c #7B91DF",
"%. c #4880E7",
"&. c #5F85E6",
"*. c #5789E3",
"=. c #5882E8",
"-. c #4C8AF9",
";. c #4E8BF9",
":. c #5A88F5",
">. c #5A95FF",
",. c #5F97FF",
"<. c #6285E1",
"1. c #6B98EC",
"2. c #7292EF",
"3. c #7C97ED",
"4. c #7B98EF",
"5. c #7398F8",
"6. c #7AA0E6",
"7. c #6EA1FF",
"8. c #73A0F0",
"9. c #74A3F8",
"0. c #8B9099",
"q. c #8F939B",
"w. c #94979F",
"e. c #979A9E",
"r. c #999CA4",
"t. c #9D9EA8",
"y. c #97A3B7",
"u. c gray64",
"i. c gray70",
"p. c #879DC4",
"a. c #909AD9",
"s. c #949CDB",
"d. c #919BDC",
"f. c #A0A2CC",
"g. c #AAAACC",
"h. c #B5B5C3",
"j. c #A9A9D0",
"k. c #8999E1",
"l. c #8098EC",
"z. c #949FE2",
"x. c #8AACEC",
"c. c #9EA5E4",
"v. c #99A4EA",
"b. c #9AA5EB",
"n. c #9BA6EB",
"m. c #9CA6E8",
"M. c #9EA7EA",
"N. c #97B1E2",
"B. c #8EB2F3",
"V. c #92B6F9",
"C. c #A1A7E5",
"Z. c #A1A7E6",
"A. c #A8ABE7",
"S. c #AFAFE7",
"D. c #A0A8E9",
"F. c #A8ADEC",
"G. c #A9AFEF",
"H. c #A2BBE7",
"J. c #AEB0EC",
"K. c #BDBDE3",
"L. c #BEBEE5",
"P. c #B3B3EB",
"I. c #B4B4E9",
"U. c #B5B5EF",
"Y. c #BABAE9",
"T. c #B8B8EA",
"R. c #BFBFEA",
"E. c #BABAEE",
"W. c #BDBDED",
"Q. c #BDBDEE",
"!. c #BEBEEE",
"~. c #AEB1F1",
"^. c #ADB2F2",
"/. c #B6B6F0",
"(. c #B2B4F4",
"). c #B5B6F4",
"_. c #B6B7F5",
"`. c #B4B6F6",
"'. c #B7B8F6",
"]. c #BABAF2",
"[. c #BCBCF1",
"{. c #BFBFF1",
"}. c #BBBBF5",
"|. c #B9B9F6",
" X c #BBBBF7",
".X c #BCBCF7",
"XX c #BEBEF7",
"oX c #BABBF9",
"OX c #BCBCF9",
"+X c #BDBEFD",
"@X c #BEBEFC",
"#X c #BEBEFD",
"$X c #BFBFFE",
"%X c #A6C0EF",
"&X c #AEC5EE",
"*X c #BCCDEB",
"=X c #A9C5F8",
"-X c #ADC7F8",
";X c #BBD3FF",
":X c gray79",
">X c #CACDD4",
",X c #C2C2E9",
"<X c #C2C2EA",
"1X c #CBCBEB",
"2X c #CFCFEE",
"3X c #DBDFE7",
"4X c #C6C6F4",
"5X c #CACAF2",
"6X c #C8C8F5",
"7X c #C0C0FF",
"8X c #C8DAFC",
"9X c #D6D6F1",
"0X c #D0D0F4",
"qX c #D1D1F5",
"wX c #D1DDF4",
"eX c #D2DEF6",
"rX c #D9D9F6",
"tX c #DFDFF7",
"yX c #D9D9F8",
"uX c #D6E3FB",
"iX c #DCE7FC",
"pX c gray88",
"aX c #E1E1F8",
"sX c #E1E1F9",
"dX c #E3E3F8",
"fX c #E4E4F9",
"gX c #E5ECF9",
"hX c #E3ECFE",
"jX c #E9E9FC",
"kX c #EEF3FA",
"lX c #E9F0FE",
"zX c gray95",
"xX c #F2F5FB",
"cX c #F3F3FF",
"vX c #F3F7FD",
"bX c #F4F4FF",
"nX c #F6F6FE",
"mX c #F6F6FF",
"MX c #F7F7FF",
"NX c #F8F9FB",
"BX c #F8FAFD",
"VX c #F8F8FE",
"CX c #FAFCFE",
"ZX c #FBFCFE",
"AX c #FAFCFF",
"SX c #FCFCFF",
"DX c #FDFDFF",
"FX c #FEFEFE",
"GX c #FEFEFF",
"HX c none",
/* pixels */
"HXHXHXHXHXHXHXHXHXvXCXFXFXHXHXHXHXHXHXHXHXHXHXHX",
"HXHXHXHXHXHXiX=X8.%.*.3.&XgXHXHXHXHXHXHXHXHXHXHX",
"HXHXHXHXlXV.) P P K J M b S H.CXHXHXHXHXHXHXHXHX",
"HXHXHX8X-.U U U I L K H m v 6 @.kXHXHXHXHXHXHXHX",
"HXHXhX-.T _ _ _ / U L J B b l 2 o.kXAXHXHXHXHXHX",
"HXAX9.U _ >.7.>.` U / ~ ! F c 1 > o.HXHXHXHXHXHX",
"HXuX( U _ 7.;X7.` :.D.`.'.~.k.A = # 3XHXHXHXHXHX",
"HX-XP U _ >.7.,.4._.-X`.J..X7Xs.8 O y.HXHXHXHXHX",
"HXB.L I T ` ` 5.#X#Xl.^ R } n.7Xa.# ..zXHXHXHXHX",
"HX1.K L I U ] ~.#X3.E H m v [ _.#Xt q pXHXHXHXHX",
"HXx.J K L L 2.7Xv.Q J M v l 6 C.7Xy w :XHXHXHXHX",
"HXH.M H J E b.7X&.H M b z 4 3 c.#Xy  .:XHXHXHXHX",
"HXeXD m B R n.7X=.b v z l 1 - p s & w.pXHXHXHXHX",
"HXBX#.v v C n.7X<.v z 4 1 , + X . g g.1XbXHXHXHX",
"HXHXeXZ l l $.7XG.{ 6 < : 7 X . i U.7X#XI.tXHXHX",
"HXHXHXN.9 1 V C.7X_.z.| +.G.e @ f.7X.X{.#X XdXHX",
"HXHXHXHX*Xa - 0 d._.#X7X7XA.h 0.j. XW.cX<X#XY.HX",
"HXHXHXHXHXxXp.* % r d f j X.t.h.2XP./.fXaX#X].bX",
"HXHXHXHXHXHXHXHX>Xr.w.e.u.i.L. XfX6X7X.X5X9XrXHX",
"HXHXHXHXHXHXHXHXHXHXHXHXHXHXW.#X5XbX{.7X<XHXHXHX",
"HXHXHXHXHXHXHXHXHXHXHXHXHXHXyX#X#XR.4X7XoXbXHXHX",
"HXHXHXHXHXHXHXHXHXHXHXHXHXHXSX0XoX XS.#X<XHXHXHX",
"HXHXHXHXHXHXHXHXHXHXHXHXHXHXHXHXaXQ.T.K.BXHXHXHX",
"HXHXHXHXHXHXHXHXHXHXHXHXHXHXHXHXHXSXSXSXHXHXHXHX"
};
