/* XPM */
const char *icon_traj_start[] = {
/* columns rows colors chars-per-pixel */
"16 16 63 1",
"  c gray2",
". c gray4",
"X c gray5",
"o c #0E0E0E",
"O c gray7",
"+ c gray8",
"@ c #151515",
"# c gray10",
"$ c gray11",
"% c #1E1E1E",
"& c gray14",
"* c #252525",
"= c #272727",
"- c gray17",
"; c #2D2D2D",
": c gray19",
"> c #3A3A3A",
", c gray23",
"< c #414141",
"1 c gray28",
"2 c gray29",
"3 c #555555",
"4 c #5A5A5A",
"5 c #6A6A6A",
"6 c #6D6D6D",
"7 c gray43",
"8 c #727272",
"9 c gray46",
"0 c #767676",
"q c #797979",
"w c gray50",
"e c gray51",
"r c gray56",
"t c #A2A2A2",
"y c gray66",
"u c #A9A9A9",
"i c gray67",
"p c #ACACAC",
"a c gray72",
"s c gray73",
"d c #BBBBBB",
"f c gray74",
"g c gray",
"h c gray75",
"j c #C0C0C0",
"k c #C1C1C1",
"l c #C3C3C3",
"z c #CACACA",
"x c gray80",
"c c gray81",
"v c #D0D0D0",
"b c gray82",
"n c #D2D2D2",
"m c gray88",
"M c gray89",
"N c #E4E4E4",
"B c gray93",
"V c #EEEEEE",
"C c #F3F3F3",
"Z c #F6F6F6",
"A c #F9F9F9",
"S c gray99",
"D c none",
/* pixels */
"DDDDDDDDDDDDDDDD",
"DDDDDDDDDDCZDDDD",
"DDM8MDDDDg<,MDDD",
"DDb#bDDN0#2@cDDD",
"DDb#bAy;;iz#bDDD",
"DDb#p4%0l7a#bDDD",
"DDzo%1ga,oi#bDDD",
"DDg -ge.#Oi#bDDD",
"DDcO,*25; 0#cDDD",
"DDb#lr*1t3w#bDDD",
"DDb#bDb4%0a#bDDD",
"DDb#bDDAi;-ObDDD",
"DDBiBDDDDN07BDDD",
"DDDDDDDDDDDDDDDD",
"DDDDDDDDDDDDDDDD",
"DDDDDDDDDDDDDDDD"
};
