/* XPM */
const char *icon_traj_ff[] = {
/* columns rows colors chars-per-pixel */
"16 16 63 1",
"  c gray1",
". c #090909",
"X c gray5",
"o c gray6",
"O c gray8",
"+ c #181818",
"@ c #191919",
"# c gray10",
"$ c gray11",
"% c #1E1E1E",
"& c #252525",
"* c #272727",
"= c gray18",
"- c gray19",
"; c #353535",
": c #3A3A3A",
"> c gray25",
", c #464646",
"< c gray28",
"1 c gray30",
"2 c #505050",
"3 c #555555",
"4 c #565656",
"5 c #585858",
"6 c #5A5A5A",
"7 c #5D5D5D",
"8 c #606060",
"9 c gray39",
"0 c #656565",
"q c gray40",
"w c #676767",
"e c gray42",
"r c gray46",
"t c #767676",
"y c #898989",
"u c gray56",
"i c #989898",
"p c gray63",
"a c gray66",
"s c #A9A9A9",
"d c #AAAAAA",
"f c gray67",
"g c #ACACAC",
"h c #B1B1B1",
"j c #B7B7B7",
"k c gray73",
"l c #C0C0C0",
"z c #C3C3C3",
"x c gray77",
"c c #C8C8C8",
"v c #CACACA",
"b c gray81",
"n c #D0D0D0",
"m c gray82",
"M c #D2D2D2",
"N c gray84",
"B c #E4E4E4",
"V c #E6E6E6",
"C c #EEEEEE",
"Z c gray94",
"A c #F9F9F9",
"S c gray99",
"D c none",
/* pixels */
"DDDDDDDDDDDDDDDD",
"DDZADDDCADDDDDDD",
"DN*2mDN*2mDDDDDD",
"DbO:*uxO:*uCDDDD",
"Dm#zu*3#zu*<kDDD",
"Dm#kej9#kej6%tBD",
"Dm#p.2h#p.2ma-=a",
"Dm#aXX;#aXX#aa*3",
"Dm#7 >q#7 >91%6m",
"Dm#qqi<Oqqi-=aAD",
"Dm#g6%t#g6%tBDDD",
"DcX%1kcX%<kDDDDD",
"DB6yCDB6yCDDDDDD",
"DDDDDDDDDDDDDDDD",
"DDDDDDDDDDDDDDDD",
"DDDDDDDDDDDDDDDD"
};
