/* XPM */
const char *icon_traj_stop[] = {
/* columns rows colors chars-per-pixel */
"16 16 22 1",
"  c black",
". c gray4",
"X c #191919",
"o c gray10",
"O c #1B1B1B",
"+ c gray14",
"@ c #252525",
"# c #2C2C2C",
"$ c #313131",
"% c #3A3A3A",
"& c gray23",
"* c gray25",
"= c #AAAAAA",
"- c gray67",
"; c #B7B7B7",
": c #C6C6C6",
"> c #C8C8C8",
", c gray82",
"< c #DFDFDF",
"1 c gray95",
"2 c #F4F4F4",
"3 c none",
/* pixels */
"3333333333333333",
"3333333333333333",
"333<,,,,,,,,<333",
"33<#oooooooo#<33",
"33,o=;----;=o,33",
"33,o;o....O;o>33",
"33,o=.    .=o,33",
"33,o=.    .=o,33",
"33,o=.    .-o,33",
"33,o-.    .=o,33",
"33,o;$@@@@$;o,33",
"33,o=>::::>=o,33",
"33<*%%%&&%%%&<33",
"3332111111112333",
"3333333333333333",
"3333333333333333"
};
