/* XPM */
const char *xpm_add[] = {
/* columns rows colors chars-per-pixel */
"16 16 22 1",
"  c black",
". c gray11",
"X c #252525",
"o c #2D2D2D",
"O c gray20",
"+ c #494949",
"@ c gray32",
"# c #585858",
"$ c gray38",
"% c gray49",
"& c gray52",
"* c gray56",
"= c #939393",
"- c #9D9D9D",
"; c #A5A5A5",
": c #C0C0C0",
"> c #C3C3C3",
", c gray81",
"< c #D8D8D8",
"1 c #E7E7E7",
"2 c gray94",
"3 c none",
/* pixels */
"3333333333333333",
"3333333333333333",
"333333-$-3333333",
"333333$ $3333333",
"333333$ @1333333",
"333333$ +<333333",
"33-$$$X .@$$-333",
"33$         $333",
"33:*&&O o%&&;133",
"333<::+ +::::<33",
"333211# +,111233",
"333333$ +<333333",
"333333:&=<333333",
"3333333<:<333333",
"3333333212333333",
"3333333333333333"
};
