/* XPM */
const char *xpm_pat_tick[] = {
/* columns rows colors chars-per-pixel */
"16 16 43 1",
"  c #008000",
". c #018101",
"X c #048204",
"o c #068306",
"O c #0A850A",
"+ c #0E870E",
"@ c #118811",
"# c #158A15",
"$ c #1D8E1D",
"% c #249224",
"& c #2B952B",
"* c #329932",
"= c #379B37",
"- c #389C38",
"; c #42A142",
": c #47A347",
"> c #49A449",
", c #4FA74F",
"< c #51A851",
"1 c #57AB57",
"2 c #63B163",
"3 c #75BA75",
"4 c #9DCE9D",
"5 c #AAD5AA",
"6 c #AED7AE",
"7 c #B0D8B0",
"8 c #BFDFBF",
"9 c #C3E1C3",
"0 c #CDE6CD",
"q c #DAEDDA",
"w c #DBEDDB",
"e c #DDEEDD",
"r c #E2F1E2",
"t c #E4F2E4",
"y c #E7F3E7",
"u c #E9F4E9",
"i c #EEF7EE",
"p c #F1F8F1",
"a c #F5FAF5",
"s c #F7FBF7",
"d c #F9FCF9",
"f c #FEFFFE",
"g c none",
/* pixels */
"gggggggggggggggg",
"gggggggggggudggg",
"gggggggggga,1qgg",
"gggggggggg9+@0gg",
"gggggggggg3 ,dgg",
"gggggggggi* 4ggg",
"ggggggggg7o$qggg",
"gggttgggg2 2gggg",
"ggt;;eggr%o6gggg",
"ggt; ;eg4 &ygggg",
"ggge; ;q< 3ggggg",
"gggge; =#O8ggggg",
"ggggge;  -iggggg",
"gggggge:>5gggggg",
"gggggggagggggggg",
"gggggggggggggggg"
};
