/* XPM */
const char *xpm_ds_scaled[] = {
/* columns rows colors chars-per-pixel */
"16 16 87 1",
"  c #860009",
". c #88020C",
"X c #8C000A",
"o c #800710",
"O c #850E17",
"+ c #8B0610",
"@ c #920913",
"# c #9B1E27",
"$ c #AE000C",
"% c #A60C16",
"& c #A5081C",
"* c #AD0519",
"= c #B4000D",
"- c #B91D28",
"; c #A82C35",
": c #A92F38",
"> c #913C56",
", c #933D57",
"< c #BE6A77",
"1 c #C8000E",
"2 c #D6000F",
"3 c #D00D15",
"4 c #D10E16",
"5 c #DC0010",
"6 c #CA1725",
"7 c #CC1A28",
"8 c #CA211E",
"9 c #D02421",
"0 c #F00011",
"q c #F1141F",
"w c #F11E27",
"e c #F21E27",
"r c #F01E28",
"t c #EA3D38",
"y c #F2282F",
"u c #F43D3F",
"i c #D94447",
"p c #D56C71",
"a c #E45751",
"s c #F54541",
"d c #F65C5C",
"f c #F65D5C",
"g c #E1686B",
"h c #E96F6B",
"j c #F66663",
"k c #F77364",
"l c #F4786D",
"z c #F47A6E",
"x c #F77D68",
"c c #F87F67",
"v c #F77D7A",
"b c #BF7D8C",
"n c #C07588",
"m c #C07B85",
"M c #ED867D",
"N c #CD9298",
"B c #DF8D91",
"V c #DA9398",
"C c #CC9FB0",
"Z c #DA9EA2",
"A c #DC9FA4",
"S c #D8A7AA",
"D c #D9ACB2",
"F c #EF9893",
"G c #F99590",
"H c #FAA488",
"J c #FAA498",
"K c #FAA598",
"L c #FAAFAA",
"P c #FAB5A4",
"I c #D8B6C4",
"U c #E3BDC0",
"Y c #F6C3BD",
"T c #EFC9CC",
"R c #E1C6D1",
"E c #F5C2C1",
"W c #F0DADC",
"Q c #F6E9EA",
"! c #F8EFF0",
"~ c #FDF1EF",
"^ c #F9F3F5",
"/ c #FCF4F5",
"( c #FDF5F6",
") c #FAF6F8",
"_ c #FDFAFA",
"` c #FFFCFC",
"' c none",
/* pixels */
"''''''''''''''''",
"''''''''''''''''",
"''''`YFhgBT'''''",
"'''~Jxksq2-V`'''",
"'''JHPGjy01%Z'''",
"''YcP'Ljy02$#W''",
"''MkGLGjy02$.D''",
"'(asjjjuw02$ b''",
"'(iqyyyq0039&n''",
"''p200000tldw7A'",
"''T-12223l'vw1;~",
"'''V%$$$8dvdw1@S",
"'''`Z#. *www5=oC",
"'''''WNm<611=X>^",
"'''''''''A;@O>I'",
"''''''''''QUR)''"
};
