/* XPM */
const char *icon_draw_transmute[] = {
/* columns rows colors chars-per-pixel */
"24 24 159 2",
"   c #101010",
".  c #111111",
"X  c #151515",
"o  c gray9",
"O  c #1A1515",
"+  c #181818",
"@  c gray10",
"#  c gray11",
"$  c gray23",
"%  c #4E1E1E",
"&  c #6B2828",
"*  c #407B1B",
"=  c gray25",
"-  c gray27",
";  c gray29",
":  c gray34",
">  c #5D5D5D",
",  c gray39",
"<  c #6C6C6C",
"1  c #717171",
"2  c #727272",
"3  c #767676",
"4  c #A80F0F",
"5  c #A81010",
"6  c #EE1515",
"7  c #EE1818",
"8  c #FF1010",
"9  c #FF1111",
"0  c #FF1717",
"q  c #FF1818",
"w  c #FF1919",
"e  c #FF1A1A",
"r  c #FF1B1B",
"t  c #C33314",
"y  c #FF2121",
"u  c #FF2222",
"i  c #FC2626",
"p  c #FF2626",
"a  c #FF2C2C",
"s  c #FF3232",
"d  c #FF3535",
"f  c #FF3A3A",
"g  c #FF3B3B",
"h  c #DF4332",
"j  c #9A7474",
"k  c #FF4040",
"l  c #FF4242",
"z  c #FF5151",
"x  c #F05858",
"c  c #FF5E5E",
"v  c #FF6E6E",
"b  c #FF7070",
"n  c #FF7C7C",
"m  c #18830F",
"M  c #198310",
"N  c #1A8311",
"B  c #188714",
"V  c #188B17",
"C  c #188B18",
"Z  c #188C18",
"A  c #188D18",
"S  c #198D19",
"D  c #1A8C1A",
"F  c #1A8D1A",
"G  c #2C952C",
"H  c #3A9835",
"J  c #3A9D3A",
"K  c #3B9E3B",
"L  c #40A040",
"P  c #4D4DFF",
"I  c #5050FF",
"U  c #5151FF",
"Y  c #5353FF",
"T  c #6161FF",
"R  c #6B6BFF",
"E  c #6C6CFF",
"W  c #7070FF",
"Q  c gray54",
"!  c #8D8D8D",
"~  c #959595",
"^  c gray59",
"/  c #9D9D9D",
"(  c gray62",
")  c #A0A0A0",
"_  c gray66",
"`  c #AAAAAA",
"'  c gray67",
"]  c #AFAFAF",
"[  c #ABBEAB",
"{  c #E38F8F",
"}  c #FF8B8B",
"|  c #FF9090",
" . c #FF9797",
".. c #D1A28B",
"X. c #D1A0A0",
"o. c #D1ABAB",
"O. c #FFA1A1",
"+. c #FFAAAA",
"@. c #FFABAB",
"#. c #FFAFAF",
"$. c #A1D1A1",
"%. c #AAD5AA",
"&. c #B7C4B7",
"*. c #D1C2AB",
"=. c #A8A8FF",
"-. c #BFBFFF",
";. c #C3C3C3",
":. c gray78",
">. c #C8C8C8",
",. c gray79",
"<. c #CBCBCB",
"1. c #C3D9C3",
"2. c #D0D0D0",
"3. c gray82",
"4. c gray83",
"5. c #D5D5D5",
"6. c gray84",
"7. c #D7D7D7",
"8. c #D8D8D8",
"9. c gray85",
"0. c gray86",
"q. c #DFDFDF",
"w. c #FFC0C0",
"e. c #FFD1D1",
"r. c #FFD7D7",
"t. c #FFDEDE",
"y. c #FFDFDF",
"u. c #C6E3C6",
"i. c #D1E8D1",
"p. c #DFEFDF",
"a. c #C1C1FF",
"s. c #D2D2FF",
"d. c #DDDDFF",
"f. c #E2E2E2",
"g. c gray89",
"h. c #E4E4E4",
"j. c #E6E6E6",
"k. c gray91",
"l. c gray92",
"z. c #EAEAEF",
"x. c #EEEEEE",
"c. c #EFEFEF",
"v. c #E7E7FF",
"b. c #F4F4F4",
"n. c gray96",
"m. c gray97",
"M. c #FFF2F2",
"N. c #FFF7F7",
"B. c #F9F9F9",
"V. c gray98",
"C. c #FFF9F9",
"Z. c #FFFBFB",
"A. c gray99",
"S. c #FDFDFD",
"D. c #FFFCFC",
"F. c #FEFEFE",
"G. c #FFFEFE",
"H. c #FEFEFF",
"J. c none",
/* pixels */
"J.J.J.n.n.J.J.J.J.J.C.y.y.J.J.J.J.J.J.J.n.m.J.J.",
"J.J.0.:.>.j.J.J.J.M.v u u  .C.J.J.J.V.0.>.>.j.J.",
"J.0.>.l.f.:.l.J.C.v p #.| r O.J.J.J.0.>.l.f.>.l.",
"n.:.l.J.J.f.<.V.r.r #.J.J.n l N.J.n.:.l.J.J.q.2.",
"n.>.h.J.V.7.7.J.y.u } J.M.c z C.J.n.>.j.J.J.7.4.",
"J.j.:.q.8.>.x.J.J. .r n x i w.J.J.J.j.:.q.7.>.x.",
"J.J.j.8.0.x.J.J.J.C.{ & % j J.J.J.J.J.k.7.7.x.J.",
"z.k.l.j.x.J.J.J.J.J.2.@ 3 ; f.J.J.J.J.J.J.J.J.J.",
"~ Q ! ! ~ x.J.J.J.J.2.@ ] @ 2.J.J.J.J.J.J.J.J.J.",
"! 7.l.2.Q l.J.J.J.J.2.@ ' @ >.J.J.J.J.J.J.J.J.J.",
"! l.J.l.! l.J.J.J.J.2.@ ' o > n.J.J.J.J.J.J.J.J.",
"! 2.j.7.! j.J.J.f.2 ] @ ' o # , 7.A.J.J.J.J.J.J.",
") ( ( ( ) x.J.J.2.o $   ' o 2 o = - f.J.J.J.J.J.",
"V.V.n.V.V.J.J.J.2.@ < . ' @ ' @ < . 2.J.J.J.J.J.",
"v.d.d.d.v.J.J.J.2.@ ' @ ;._ ;.@ ' @ 2.p.i.i.i.p.",
"T Y Y Y T v.J.J.2.@ ' @ 2.J.x._ ;.@ &.G F F F G ",
"Y a.d.-.Y d.J.J.2.o : ~ x.J.J.f.> o [ F %.i.%.F ",
"Y d.J.d.Y d.J.J.x.Q @ 2.J.J.J.2.O Q 1.F i.J.i.F ",
"Y =.a.=.Y d.J.y.e.o.O X.e.e.e.X.O o.*.Z %.i.%.V ",
"P P P P P s.y.a r 6 4 6 r r 0 6 5 7 t B F C F Z ",
"Y -.d.-.Y d.e.r @.e.} 8 @.e.} 8 @.e...N $.u.$.A ",
"Y d.J.d.Y d.e.r e.J.@.8 e.J.@.9 e.J.*.N i.J.i.F ",
"Y -.d.-.Y d.e.0 @.e.} 8 @.e.} 8 @.e...N %.i.%.F ",
"W R E R W v.y.k f f s r d f s r d f h * H K K K "
};
