/* XPM */
const char *icon_draw_delatom[] = {
/* columns rows colors chars-per-pixel */
"24 24 107 2",
"   c gray4",
".  c gray9",
"X  c #181818",
"o  c gray10",
"O  c gray11",
"+  c gray12",
"@  c #1F1F26",
"#  c #232323",
"$  c #222226",
"%  c gray15",
"&  c #272727",
"*  c #282828",
"=  c gray16",
"-  c #2A2A2A",
";  c #2C2C2C",
":  c #2D2D2D",
">  c #2F2F2F",
",  c gray19",
"<  c #313131",
"1  c #323232",
"2  c gray20",
"3  c #373737",
"4  c gray22",
"5  c #393939",
"6  c gray23",
"7  c #3C3C3E",
"8  c gray25",
"9  c gray30",
"0  c #46465B",
"q  c #535353",
"w  c gray33",
"e  c #565656",
"r  c gray34",
"t  c #585858",
"y  c #606060",
"u  c gray38",
"i  c #626262",
"p  c gray40",
"a  c #6D6D6D",
"s  c gray43",
"d  c gray45",
"f  c gray46",
"g  c #767676",
"h  c gray47",
"j  c gray48",
"k  c gray49",
"l  c gray51",
"z  c #848484",
"x  c #868686",
"c  c #868688",
"v  c #8B8B8B",
"b  c gray56",
"n  c #898990",
"m  c #929292",
"M  c gray59",
"N  c #979797",
"B  c #95959B",
"V  c gray62",
"C  c gray63",
"Z  c #A4A4A4",
"A  c gray65",
"S  c #A7A7A7",
"D  c gray67",
"F  c #ACACAC",
"G  c gray70",
"H  c #B4B4B4",
"J  c gray71",
"K  c #B7B7B7",
"L  c gray72",
"P  c #A5A5DD",
"I  c #B8B8DA",
"U  c #ADADE5",
"Y  c #C3C3C3",
"T  c gray78",
"R  c #C8C8C8",
"E  c gray79",
"W  c gray80",
"Q  c #CECECE",
"!  c #D0D0D0",
"~  c gray82",
"^  c gray83",
"/  c gray84",
"(  c #D7D7D7",
")  c #D8D8D8",
"_  c gray85",
"`  c gray86",
"'  c #DDDDDD",
"]  c #DFDFDF",
"[  c #E1E1E1",
"{  c #E4E4E4",
"}  c #E6E6E6",
"|  c #E7E7E7",
" . c gray91",
".. c gray92",
"X. c #EEEEEE",
"o. c #EFEFEF",
"O. c #F1F1F1",
"+. c gray95",
"@. c gray96",
"#. c #F6F6F6",
"$. c gray97",
"%. c #F9F9F9",
"&. c #FBFBFB",
"*. c gray99",
"=. c #FDFDFD",
"-. c #FEFEFE",
";. c none",
/* pixels */
";.;.;.;.;.;.;.;.;.;.;.;.;.;.;.;.;.;.;.;.;.;.;.;.",
";.;.;.;.;.;.;.;.;.;.;.;.;.;.;.;.;.;.;.;.;.;.;.;.",
";.;.;.;.;.;.;.;.;.;.;.;.;.;.;.#.#.;.;.;.;.;.;.;.",
";.;.;.;.;.;.;.;.;.;.;.;.;.&.` E T { ;.;.;.;.;.;.",
";.;.;.;.;.;.;.;.;.;.;.;.;.` T ..[ E ..;.;.;.;.;.",
";.;.;.;.;.;.;.;.;.;.;.;.#.T ..;.;.] Q ;.;.;.;.;.",
";.;.;.;.;.;.;.;.;.;.;.;.#.E { ;.;./ ~ ;.;.;.;.;.",
";.;.;.;.;.;.O.E C h u l Y { T ] / E X.;.;.;.;.;.",
";.;.;.;.&.F 8 : - 1 X - f ;.{ ` ` ] &.;.;.;.;.;.",
";.;.;.E e % u h 1 1 u K O.;.;.;./ - S ;.;.;.;.;.",
";.;.V % e q # 1 l ] ;.;.;.;.;.;.E   : ..;.;.;.;.",
";.V - 1 - 9 S [ ..{ { ..{ O.;.;.~ . - f &.;.;.;.",
";.G d a b M k M N k N N k G ;.;.~ X b X L ;.;.;.",
";.&.E $ I Q $ I Q $ I Q # Q ;.;.~ X Q p 5 { ;.;.",
";.;.~ @ U ~ @ U ~ @ U ~ X ~ ;.;.~ . D K % a ;.;.",
";.;.~ @ U ~ @ U ~ @ U ~ X ~ ;.;.X.e 3 5 - e ;.;.",
";.;.~ @ U ~ @ U ~ @ U ~ O ~ ;.;.;.#.[ e m O.;.;.",
";.;.~ @ U ~ @ U ~ @ U ~ X ~ ;.;.;.;.;.C S ;.;.;.",
";.;.~ @ U ~ @ U ~ @ U ~ O ~ ;.;.;.;.;.;.;.;.;.;.",
";.;.~ @ U ~ @ U ~ @ U ~ X ~ ;.;.;.;.;.;.;.;.;.;.",
";.;.~ @ U ~ @ U ~ @ U ~ X ~ ;.;.;.;.;.;.;.;.;.;.",
";.;.X.B P Y n P Y v P Y M X.;.;.;.;.;.;.;.;.;.;.",
";.;.;.x 0 7 7 0 7 7 0 7 x ;.;.;.;.;.;.;.;.;.;.;.",
";.;.;.%.O.O.O.O.O.O.O.O.#.;.;.;.;.;.;.;.;.;.;.;."
};
