/* XPM */
const char *icon_draw_singleatom[] = {
/* columns rows colors chars-per-pixel */
"24 24 52 1",
"  c gray4",
". c gray9",
"X c gray10",
"o c gray11",
"O c #272727",
"+ c #2A2A2A",
"@ c #2F2F2F",
"# c #373737",
"$ c gray22",
"% c #393939",
"& c gray33",
"* c gray34",
"= c #585858",
"- c gray40",
"; c #6D6D6D",
": c #767676",
"> c #8B8B8B",
", c #929292",
"< c gray63",
"1 c #A4A4A4",
"2 c gray65",
"3 c gray67",
"4 c gray71",
"5 c gray72",
"6 c gray78",
"7 c #C8C8C8",
"8 c gray79",
"9 c gray80",
"0 c #D0D0D0",
"q c gray82",
"w c gray83",
"e c gray84",
"r c #D7D7D7",
"t c #D8D8D8",
"y c gray85",
"u c gray86",
"i c #DFDFDF",
"p c #E1E1E1",
"a c #E4E4E4",
"s c #E6E6E6",
"d c #E7E7E7",
"f c gray91",
"g c gray92",
"h c #EEEEEE",
"j c #EFEFEF",
"k c gray96",
"l c #F6F6F6",
"z c gray97",
"x c gray99",
"c c #FDFDFD",
"v c #FEFEFE",
"b c none",
/* pixels */
"bbbbbbbbbbbbbbbbbbbbbbbb",
"bbbbbbbbbbbbbbbbbbbbbbbb",
"bbbbbbbbbbbbbbbbbbbbbbbb",
"bbbbbbbbbbbbbbbbbbbbbbbb",
"bbbbbbbbbbbbbbbbbbbbbbbb",
"bbbbbbbbbllbbbbbbbbbbbbb",
"bbbbbbbxu66dbbbbbbbbbbbb",
"bbbbbbbu8ga6dbbbbbbbbbbb",
"bbbbbbl6gbbi9bbbbbbbbbbb",
"bbbbbbl6abxeebbbbbbbbbbb",
"bbbbbbbd6ie8hbbbbbbbbbbb",
"bbbbbbbbduuixbbbbbbbbbbb",
"bbbbbbbbbbeO1bbbbbbbbbbb",
"bbbbbbbbbb9 @dbbbbbbbbbb",
"bbbbbbbbbbq.O:xbbbbbbbbb",
"bbbbbbbbbbqX>o4bbbbbbbbb",
"bbbbbbbbbbqX8-$dbbbbbbbb",
"bbbbbbbbbbq.34O;bbbbbbbb",
"bbbbbbbbbbh*$#+*bbbbbbbb",
"bbbbbbbbbbbld&,lbbbbbbbb",
"bbbbbbbbbbbbx11bbbbbbbbb",
"bbbbbbbbbbbbbbbbbbbbbbbb",
"bbbbbbbbbbbbbbbbbbbbbbbb",
"bbbbbbbbbbbbbbbbbbbbbbbb"
};
