<?xml version="1.0" encoding="UTF-8" standalone="no"?>
<!-- Created with Inkscape (http://www.inkscape.org/) -->
<svg
   xmlns:dc="http://purl.org/dc/elements/1.1/"
   xmlns:cc="http://web.resource.org/cc/"
   xmlns:rdf="http://www.w3.org/1999/02/22-rdf-syntax-ns#"
   xmlns:svg="http://www.w3.org/2000/svg"
   xmlns="http://www.w3.org/2000/svg"
   xmlns:xlink="http://www.w3.org/1999/xlink"
   xmlns:sodipodi="http://sodipodi.sourceforge.net/DTD/sodipodi-0.dtd"
   xmlns:inkscape="http://www.inkscape.org/namespaces/inkscape"
   version="1.0"
   width="100"
   height="100"
   id="svg2"
   sodipodi:version="0.32"
   inkscape:version="0.45.1"
   sodipodi:docname="basic_pick.svg"
   sodipodi:docbase="/home/tris/src/aten/src/gui/icons"
   inkscape:output_extension="org.inkscape.output.svg.inkscape">
  <metadata
     id="metadata2566">
    <rdf:RDF>
      <cc:Work
         rdf:about="">
        <dc:format>image/svg+xml</dc:format>
        <dc:type
           rdf:resource="http://purl.org/dc/dcmitype/StillImage" />
      </cc:Work>
    </rdf:RDF>
  </metadata>
  <sodipodi:namedview
     inkscape:window-height="714"
     inkscape:window-width="1024"
     inkscape:pageshadow="2"
     inkscape:pageopacity="0.0"
     guidetolerance="10.0"
     gridtolerance="10.0"
     objecttolerance="10.0"
     borderopacity="1.0"
     bordercolor="#666666"
     pagecolor="#ffffff"
     id="base"
     inkscape:zoom="0.8662058"
     inkscape:cx="-76.671774"
     inkscape:cy="264.09098"
     inkscape:window-x="0"
     inkscape:window-y="44"
     inkscape:current-layer="svg2" />
  <defs
     id="defs4">
    <linearGradient
       id="linearGradient3384">
      <stop
         style="stop-color:#0000ff;stop-opacity:1;"
         offset="0"
         id="stop3386" />
      <stop
         style="stop-color:#000000;stop-opacity:1"
         offset="1"
         id="stop3388" />
    </linearGradient>
    <linearGradient
       id="linearGradient3252">
      <stop
         style="stop-color:#ffffff;stop-opacity:1"
         offset="0"
         id="stop3254" />
      <stop
         style="stop-color:#7f7fff;stop-opacity:0;"
         offset="1"
         id="stop3256" />
    </linearGradient>
    <linearGradient
       inkscape:collect="always"
       xlink:href="#linearGradient3384"
       id="linearGradient2233"
       gradientUnits="userSpaceOnUse"
       gradientTransform="matrix(0.2377304,0.2377304,-0.2377304,0.2377304,39.711053,40.887748)"
       x1="25.398125"
       y1="63.345894"
       x2="90.625114"
       y2="63.345894" />
    <radialGradient
       inkscape:collect="always"
       xlink:href="#linearGradient3252"
       id="radialGradient2235"
       gradientUnits="userSpaceOnUse"
       gradientTransform="matrix(0.1887019,0,0,0.1887019,23.423531,53.628189)"
       cx="58.01162"
       cy="63.345894"
       fx="58.01162"
       fy="63.345894"
       r="33.113495" />
    <linearGradient
       inkscape:collect="always"
       xlink:href="#linearGradient3384"
       id="linearGradient2988"
       gradientUnits="userSpaceOnUse"
       gradientTransform="matrix(0.2377304,0.2377304,-0.2377304,0.2377304,39.711053,40.887748)"
       x1="25.398125"
       y1="63.345894"
       x2="90.625114"
       y2="63.345894" />
    <radialGradient
       inkscape:collect="always"
       xlink:href="#linearGradient3252"
       id="radialGradient2990"
       gradientUnits="userSpaceOnUse"
       gradientTransform="matrix(0.1887019,0,0,0.1887019,23.423531,53.628189)"
       cx="58.01162"
       cy="63.345894"
       fx="58.01162"
       fy="63.345894"
       r="33.113495" />
  </defs>
  <g
     id="g2226"
     transform="translate(-47.910093,-5.4836853)">
    <path
       sodipodi:type="arc"
       style="fill:#e7e8e1;fill-opacity:1;fill-rule:evenodd;stroke:none;stroke-width:1px;stroke-linecap:butt;stroke-linejoin:miter;stroke-opacity:1"
       id="path2199"
       sodipodi:cx="105.54481"
       sodipodi:cy="47.27103"
       sodipodi:rx="16.939291"
       sodipodi:ry="16.939291"
       d="M 122.4841 47.27103 A 16.939291 16.939291 0 1 1  88.605516,47.27103 A 16.939291 16.939291 0 1 1  122.4841 47.27103 z"
       transform="matrix(0.659236,0,0,0.659236,8.1466057,6.1357507)" />
    <g
       id="g2203"
       transform="translate(34.740126,-37.754194)">
      <path
         d="M 49.293948,69.778869 C 49.295009,75.835261 44.385631,80.745499 38.329238,80.745499 C 32.272846,80.745499 27.363468,75.835261 27.364529,69.778869 C 27.363468,63.722478 32.272846,58.812239 38.329238,58.812239 C 44.385631,58.812239 49.295009,63.722478 49.293948,69.778869 L 49.293948,69.778869 z "
         style="fill:#0000ff;fill-opacity:1;fill-rule:evenodd;stroke:#000000;stroke-width:0.33620161px;stroke-linecap:butt;stroke-linejoin:miter;stroke-opacity:1"
         id="path2205" />
      <path
         d="M 46.196153,77.491343 C 41.914388,81.774609 34.970871,81.775217 30.688355,77.492701 C 26.405839,73.210186 26.406448,66.266669 30.689713,61.984903 C 34.971479,57.701637 41.914996,57.701029 46.197511,61.983544 C 50.480027,66.266061 50.479419,73.209578 46.196153,77.491343 L 46.196153,77.491343 z "
         style="opacity:0.71739131;fill:url(#linearGradient2233);fill-opacity:1;fill-rule:evenodd;stroke:none;stroke-width:1px;stroke-linecap:butt;stroke-linejoin:miter;stroke-opacity:1"
         id="path2207" />
      <path
         d="M 40.524659,65.581677 C 40.525254,68.980984 37.769738,71.736982 34.370431,71.736982 C 30.971125,71.736982 28.215609,68.980984 28.216204,65.581677 C 28.215609,62.18237 30.971125,59.426372 34.370431,59.426372 C 37.769738,59.426372 40.525254,62.18237 40.524659,65.581677 L 40.524659,65.581677 z "
         style="fill:url(#radialGradient2235);fill-opacity:1;fill-rule:evenodd;stroke:none;stroke-width:1px;stroke-linecap:butt;stroke-linejoin:miter;stroke-opacity:1"
         id="path2209" />
    </g>
  </g>
  <g
     id="g2976"
     transform="translate(6.840736,1.2497413)">
    <path
       sodipodi:type="arc"
       style="fill:#e7e8e1;fill-opacity:1;fill-rule:evenodd;stroke:none;stroke-width:1px;stroke-linecap:butt;stroke-linejoin:miter;stroke-opacity:1"
       id="path2978"
       sodipodi:cx="105.54481"
       sodipodi:cy="47.27103"
       sodipodi:rx="16.939291"
       sodipodi:ry="16.939291"
       d="M 122.4841 47.27103 A 16.939291 16.939291 0 1 1  88.605516,47.27103 A 16.939291 16.939291 0 1 1  122.4841 47.27103 z"
       transform="matrix(0.659236,0,0,0.659236,8.1466057,6.1357507)" />
    <g
       id="g2980"
       transform="translate(34.740126,-37.754194)">
      <path
         d="M 49.293948,69.778869 C 49.295009,75.835261 44.385631,80.745499 38.329238,80.745499 C 32.272846,80.745499 27.363468,75.835261 27.364529,69.778869 C 27.363468,63.722478 32.272846,58.812239 38.329238,58.812239 C 44.385631,58.812239 49.295009,63.722478 49.293948,69.778869 L 49.293948,69.778869 z "
         style="fill:#0000ff;fill-opacity:1;fill-rule:evenodd;stroke:#000000;stroke-width:0.33620161px;stroke-linecap:butt;stroke-linejoin:miter;stroke-opacity:1"
         id="path2982" />
      <path
         d="M 46.196153,77.491343 C 41.914388,81.774609 34.970871,81.775217 30.688355,77.492701 C 26.405839,73.210186 26.406448,66.266669 30.689713,61.984903 C 34.971479,57.701637 41.914996,57.701029 46.197511,61.983544 C 50.480027,66.266061 50.479419,73.209578 46.196153,77.491343 L 46.196153,77.491343 z "
         style="opacity:0.71739131;fill:url(#linearGradient2988);fill-opacity:1;fill-rule:evenodd;stroke:none;stroke-width:1px;stroke-linecap:butt;stroke-linejoin:miter;stroke-opacity:1"
         id="path2984" />
      <path
         d="M 40.524659,65.581677 C 40.525254,68.980984 37.769738,71.736982 34.370431,71.736982 C 30.971125,71.736982 28.215609,68.980984 28.216204,65.581677 C 28.215609,62.18237 30.971125,59.426372 34.370431,59.426372 C 37.769738,59.426372 40.525254,62.18237 40.524659,65.581677 L 40.524659,65.581677 z "
         style="fill:url(#radialGradient2990);fill-opacity:1;fill-rule:evenodd;stroke:none;stroke-width:1px;stroke-linecap:butt;stroke-linejoin:miter;stroke-opacity:1"
         id="path2986" />
    </g>
  </g>
  <path
     style="fill:#282828;fill-opacity:1;fill-rule:evenodd;stroke:none;stroke-width:1.69662297;stroke-linecap:round;stroke-linejoin:round;stroke-miterlimit:4;stroke-dashoffset:0;stroke-opacity:1"
     d="M 33.383769,33.898762 L 40.319309,77.15761 L 50.635149,71.201752 L 57.563029,83.201188 L 63.991299,79.48982 L 57.063419,67.49039 L 67.379259,61.534537 L 33.383769,33.898762 z "
     id="path2375" />
  <path
     style="fill:#ffffff;fill-opacity:1;fill-rule:evenodd;stroke:#000000;stroke-width:1.69662297;stroke-linecap:round;stroke-linejoin:round;stroke-miterlimit:4;stroke-dashoffset:0;stroke-opacity:1"
     d="M 30.443697,31.639848 L 37.379237,74.898692 L 47.695077,68.942838 L 54.622957,80.942273 L 61.051227,77.23091 L 54.123347,65.231476 L 64.439187,59.275623 L 30.443697,31.639848 z "
     id="path6783" />
</svg>
