/* XPM */
const char *icon_bond_calculatesel[] = {
/* columns rows colors chars-per-pixel */
"24 24 93 2",
"   c #3A3A3A",
".  c gray25",
"X  c #535353",
"o  c #565656",
"O  c gray36",
"+  c gray37",
"@  c #606060",
"#  c gray38",
"$  c gray42",
"%  c #6C6C6C",
"&  c gray43",
"*  c gray44",
"=  c gray46",
"-  c #777777",
";  c gray48",
":  c #FF0707",
">  c #FF0A0A",
",  c #FF1414",
"<  c #FF1717",
"1  c #FF1919",
"2  c #FF1A1A",
"3  c #FF2525",
"4  c #FF2727",
"5  c #FF2F2F",
"6  c #FF4646",
"7  c #FF5050",
"8  c #FF5C5C",
"9  c #FF7777",
"0  c gray55",
"q  c gray58",
"w  c #989898",
"e  c gray60",
"r  c #9A9A9A",
"t  c gray63",
"y  c #A2A2A2",
"u  c gray65",
"i  c gray70",
"p  c #B6B6B6",
"a  c gray72",
"s  c #B9B9B9",
"d  c #BBBBBB",
"f  c #BCBCBC",
"g  c #FF9999",
"h  c #FFA4A4",
"j  c #C1C1C1",
"k  c #C5C5C5",
"l  c #C8C8C8",
"z  c #CDCDCD",
"x  c gray81",
"c  c gray82",
"v  c #D2D2D2",
"b  c LightGray",
"n  c gray83",
"m  c gray84",
"M  c #D7D7D7",
"N  c #D8D8D8",
"B  c #DADADA",
"V  c gray86",
"C  c gainsboro",
"Z  c #DDDDDD",
"A  c gray87",
"S  c #DFDFDF",
"D  c #FFC7C7",
"F  c #FFCCCC",
"G  c #FFD1D1",
"H  c #FFD6D6",
"J  c gray88",
"K  c #E1E1E1",
"L  c #E7E7E7",
"P  c #EAEAEA",
"I  c #ECECEC",
"U  c gray93",
"Y  c #EFEFEF",
"T  c #F5E7E7",
"R  c #FFE6E6",
"E  c #FFE7E7",
"W  c gray94",
"Q  c #F1F1F1",
"!  c #F4F4F4",
"~  c gray96",
"^  c #F6F6F6",
"/  c gray97",
"(  c #FFF5F5",
")  c #F8F8F8",
"_  c #F9F9F9",
"`  c gray98",
"'  c #FCF9F9",
"]  c #FFFBFB",
"[  c gray99",
"{  c #FDFDFD",
"}  c #FEFEFE",
"|  c #FFFEFE",
" . c none",
/* pixels */
" . . . . . ._ _  . . . . . . . . . . . ._ _  . .",
" . . . . .Y c n /  . . . . . . . . . .Y c n /  .",
" . . . ._ x Y K n  . . . . . . . . ./ x Y K B  .",
" . . . ._ n C n C  . . . . . . . . ._ n C n C  .",
" . . . . ./ C K  . . . . . . . . . . ./ C C  . .",
" . . . . . . . . . . . . . . . . . . . . . . . .",
" . . ._ _  . . . . . . . . . . . ._ _  . . . . .",
" . .Y c n /  . . . . . . . . . .Y c n /  . . . .",
" ._ x Y K n  . . . . . . . . ./ c Y C B  . . . .",
" ._ c K n C  . . . . . . . . ._ c K n C  . . . .",
" . ./ C K  . . . . . . . . . . ._ C C  . . . . .",
"C _ W C _ Y C _ Y C / Y C _ W C _ W C _ / L W  .",
"o d i & j i = j i & j i & j i & j i & j d = q i ",
"o B _ / _ Y x n ! ! [ [ T '  ./ _  ./ _  ./ W d ",
"X C  . ._ x Y K n  . .H 3 h  . . . . . ./ / C # ",
"# K  . ._ c K n C  . .F > 5 R  . . . . .q 0 / l ",
"K  . . . ./ B K _  . .G < 3 9  . . . .x   u / j ",
"q Y  . . . . . . . . .G 2 7 7 '  . .W + $ / C + ",
"# K  ._ _  . . . . . .G < < g  . . .q . B  ._ l ",
"K  .Y c n /  . . . . .D : 6 (  . .x   u  . ._ l ",
"r P x Y C B  . . . . .R 8 D  . ./ + $ /  . .C * ",
"# C c K B C  . . . . . . . . . ./ r B  . . .C & ",
"f B K B C K _ W K  .W C / Y K  .Y C  .Y K  .c + ",
"; & = B y = B y = C y & k y = B y = B y = B y & "
};
