/* XPM */
const char *icon_bond_maketriple[] = {
/* columns rows colors chars-per-pixel */
"24 24 44 1",
"  c #1B1B1B",
". c gray11",
"X c #1E1E1E",
"o c #222222",
"O c gray16",
"+ c #2F2F2F",
"@ c #373737",
"# c #3F3F3F",
"$ c gray25",
"% c #444444",
"& c gray29",
"* c #565656",
"= c gray34",
"- c gray38",
"; c #686868",
": c #6D6D6D",
"> c gray43",
", c #797979",
"< c gray50",
"1 c gray53",
"2 c #898989",
"3 c gray57",
"4 c #979797",
"5 c gray62",
"6 c #A9A9A9",
"7 c gray71",
"8 c #BBBBBB",
"9 c #C0C0C0",
"0 c #C8C8C8",
"q c #CBCBCB",
"w c #D2D2D2",
"e c gray85",
"r c #DDDDDD",
"t c gray88",
"y c #E7E7E7",
"u c #EEEEEE",
"i c gray95",
"p c #F4F4F4",
"a c gray96",
"s c #F6F6F6",
"d c #F9F9F9",
"f c gray99",
"g c #FEFEFE",
"h c none",
/* pixels */
"hhhhhhhhhhhhhhhhhhhhhhhh",
"hhhhhhhhhhhhhhsshhhhhhhh",
"hhhhhhhhhhhhhh,<dhhhhhhh",
"hhhhhhhhhhhhh5 6sshhhhhh",
"hhhhhhhhhhhh0o1s,<hhhhhh",
"hhhhhhhhhhht#*i5 6sshhhh",
"hhhhhhhhhhi-@r0o1s,<hhhh",
"hhhhhhhhhh1o9t#*i5 6hhhh",
"hhhhhhhhh7 5i-@r0o1dhhhh",
"hhhhhhhhwO:s1o9r%*ihhhhh",
"hhhhhhhy%&u7.5i-@rhhhhhh",
"hhhhhhd:+ewO:s2o8hhhhhhh",
"hhhhhh4 7y%&u7.5hhhhhhhh",
"hhhhh8.3s:+ewO:dhhhhhhhh",
"hhhhe+;s4.7y%&uhhhhhhhhh",
"hhhs*%y8.3s:+ehhhhhhhhhh",
"hhhs20e@;s4.7hhhhhhhhhhh",
"hhhhhs*#y8.3hhhhhhhhhhhh",
"hhhhhs10e+;shhhhhhhhhhhh",
"hhhhhhhs*#yhhhhhhhhhhhhh",
"hhhhhhhs20hhhhhhhhhhhhhh",
"hhhhhhhhhhhhhhhhhhhhhhhh",
"hhhhhhhhhhhhhhhhhhhhhhhh",
"hhhhhhhhhhhhhhhhhhhhhhhh"
};
