<?xml version="1.0" encoding="UTF-8" standalone="no"?>
<!-- Created with Inkscape (http://www.inkscape.org/) -->
<svg
   xmlns:dc="http://purl.org/dc/elements/1.1/"
   xmlns:cc="http://web.resource.org/cc/"
   xmlns:rdf="http://www.w3.org/1999/02/22-rdf-syntax-ns#"
   xmlns:svg="http://www.w3.org/2000/svg"
   xmlns="http://www.w3.org/2000/svg"
   xmlns:xlink="http://www.w3.org/1999/xlink"
   xmlns:sodipodi="http://sodipodi.sourceforge.net/DTD/sodipodi-0.dtd"
   xmlns:inkscape="http://www.inkscape.org/namespaces/inkscape"
   version="1.0"
   width="100"
   height="100"
   id="svg2"
   sodipodi:version="0.32"
   inkscape:version="0.45.1"
   sodipodi:docname="arrow_clockwise.svg"
   sodipodi:docbase="/home/tris/src/aten/src/gui-qt/icons"
   inkscape:output_extension="org.inkscape.output.svg.inkscape">
  <metadata
     id="metadata2566">
    <rdf:RDF>
      <cc:Work
         rdf:about="">
        <dc:format>image/svg+xml</dc:format>
        <dc:type
           rdf:resource="http://purl.org/dc/dcmitype/StillImage" />
      </cc:Work>
    </rdf:RDF>
  </metadata>
  <sodipodi:namedview
     inkscape:window-height="714"
     inkscape:window-width="1024"
     inkscape:pageshadow="2"
     inkscape:pageopacity="0.0"
     guidetolerance="10.0"
     gridtolerance="10.0"
     objecttolerance="10.0"
     borderopacity="1.0"
     bordercolor="#666666"
     pagecolor="#ffffff"
     id="base"
     inkscape:zoom="2.445"
     inkscape:cx="97.316311"
     inkscape:cy="32.452388"
     inkscape:window-x="5"
     inkscape:window-y="52"
     inkscape:current-layer="svg2" />
  <defs
     id="defs4">
    <linearGradient
       id="linearGradient3197">
      <stop
         style="stop-color:#e4e1e1;stop-opacity:1;"
         offset="0"
         id="stop3199" />
      <stop
         style="stop-color:#e4af00;stop-opacity:1;"
         offset="1"
         id="stop3201" />
    </linearGradient>
    <linearGradient
       inkscape:collect="always"
       id="linearGradient3189">
      <stop
         style="stop-color:#000000;stop-opacity:1;"
         offset="0"
         id="stop3191" />
      <stop
         style="stop-color:#000000;stop-opacity:0;"
         offset="1"
         id="stop3193" />
    </linearGradient>
    <radialGradient
       inkscape:collect="always"
       xlink:href="#linearGradient3189"
       id="radialGradient3195"
       cx="50.059151"
       cy="48.853989"
       fx="50.059151"
       fy="48.853989"
       r="42.138133"
       gradientTransform="matrix(0.9573786,0,0,1.0730688,2.3984009,-3.7722635)"
       gradientUnits="userSpaceOnUse" />
    <radialGradient
       inkscape:collect="always"
       xlink:href="#linearGradient3197"
       id="radialGradient3203"
       cx="50.059151"
       cy="48.853989"
       fx="50.059151"
       fy="48.853989"
       r="42.138133"
       gradientTransform="matrix(0.9573786,0,0,1.0730688,2.3984009,-3.7722635)"
       gradientUnits="userSpaceOnUse" />
  </defs>
  <path
     style="fill:#e1e0de;fill-opacity:1;fill-rule:evenodd;stroke:none;stroke-width:3.69739628;stroke-linecap:round;stroke-linejoin:round;stroke-miterlimit:4;stroke-dasharray:none;stroke-dashoffset:0;stroke-opacity:1"
     d="M 60.531697,23.127464 L 59.186497,13.377523 L 85.471767,27.543199 L 59.186497,41.708874 L 60.531697,32.241539 C 43.920007,32.241539 30.434055,45.727495 30.434055,62.339183 C 30.434055,78.950873 43.920017,92.43683 60.531697,92.43683 C 77.143387,92.43683 90.629357,78.950875 90.629347,62.339183 C 90.629347,54.03334 87.245827,46.520957 81.797877,41.073008 L 88.262507,34.608372 C 94.666497,40.10971 99.743417,51.517473 99.743417,62.339183 C 99.743427,83.982601 82.175127,101.55089 60.531697,101.55089 C 38.888287,101.55089 21.319979,83.982603 21.319979,62.339183 C 21.319979,40.695761 38.888277,23.127464 60.531697,23.127464 z "
     id="path3211"
     sodipodi:nodetypes="cccccsssccsssc" />
  <path
     style="fill:none;fill-opacity:1;fill-rule:evenodd;stroke:#000000;stroke-width:5;stroke-linecap:round;stroke-linejoin:round;stroke-miterlimit:4;stroke-dasharray:none;stroke-dashoffset:0;stroke-opacity:1"
     d="M 50.323964,14.314682 L 48.978764,4.5647407 L 75.264027,18.730417 L 48.978764,32.896092 L 50.323964,23.428757 C 33.712275,23.428757 20.22632,36.914713 20.22632,53.526401 C 20.22632,70.138091 33.712277,83.624043 50.323964,83.624045 C 66.935656,83.624045 80.421617,70.138093 80.421607,53.526401 C 80.421607,45.220558 77.038088,37.708175 71.590144,32.260226 L 78.054776,25.79559 C 84.458758,31.296928 89.53568,42.704691 89.53568,53.526401 C 89.535689,75.169819 71.967389,92.738121 50.323964,92.738121 C 28.680548,92.738122 11.112244,75.169821 11.112244,53.526401 C 11.112244,31.882979 28.680545,14.314682 50.323964,14.314682 z "
     id="path3205"
     sodipodi:nodetypes="cccccsssccsssc" />
  <path
     style="fill:url(#radialGradient3203);fill-opacity:1;fill-rule:evenodd;stroke:url(#radialGradient3195);stroke-width:2.26085615;stroke-linecap:round;stroke-linejoin:round;stroke-miterlimit:4;stroke-dashoffset:0;stroke-opacity:1"
     d="M 50.323962,14.314682 L 48.978762,4.5647407 L 75.264029,18.730417 L 48.978762,32.896092 L 50.323962,23.428758 C 33.712273,23.428758 20.226318,36.914713 20.226318,53.526401 C 20.226318,70.138091 33.712275,83.624043 50.323962,83.624045 C 66.935651,83.624045 80.421611,70.138093 80.421606,53.526401 C 80.421606,45.220558 77.038087,37.708175 71.590138,32.260226 L 78.054773,25.795591 C 84.45876,31.296928 89.535681,42.704691 89.535681,53.526401 C 89.535682,75.169819 71.967383,92.738121 50.323962,92.738121 C 28.680546,92.738122 11.112243,75.169821 11.112243,53.526401 C 11.112243,31.882979 28.680543,14.314682 50.323962,14.314682 z "
     id="path3176"
     sodipodi:nodetypes="cccccsssccsssc" />
</svg>
