<?xml version="1.0" encoding="UTF-8" standalone="no"?>
<!-- Created with Inkscape (http://www.inkscape.org/) -->
<svg
   xmlns:dc="http://purl.org/dc/elements/1.1/"
   xmlns:cc="http://web.resource.org/cc/"
   xmlns:rdf="http://www.w3.org/1999/02/22-rdf-syntax-ns#"
   xmlns:svg="http://www.w3.org/2000/svg"
   xmlns="http://www.w3.org/2000/svg"
   xmlns:xlink="http://www.w3.org/1999/xlink"
   xmlns:sodipodi="http://sodipodi.sourceforge.net/DTD/sodipodi-0.dtd"
   xmlns:inkscape="http://www.inkscape.org/namespaces/inkscape"
   version="1.0"
   width="100"
   height="100"
   id="svg2"
   sodipodi:version="0.32"
   inkscape:version="0.45.1"
   sodipodi:docname="build_delete.svg"
   sodipodi:docbase="/home/tris/src/aten/src/gui-qt/icons"
   inkscape:output_extension="org.inkscape.output.svg.inkscape">
  <metadata
     id="metadata2566">
    <rdf:RDF>
      <cc:Work
         rdf:about="">
        <dc:format>image/svg+xml</dc:format>
        <dc:type
           rdf:resource="http://purl.org/dc/dcmitype/StillImage" />
      </cc:Work>
    </rdf:RDF>
  </metadata>
  <sodipodi:namedview
     inkscape:window-height="714"
     inkscape:window-width="1024"
     inkscape:pageshadow="2"
     inkscape:pageopacity="0.0"
     guidetolerance="10.0"
     gridtolerance="10.0"
     objecttolerance="10.0"
     borderopacity="1.0"
     bordercolor="#666666"
     pagecolor="#ffffff"
     id="base"
     inkscape:zoom="2.4139896"
     inkscape:cx="23.470678"
     inkscape:cy="64.498867"
     inkscape:window-x="10"
     inkscape:window-y="75"
     inkscape:current-layer="svg2" />
  <defs
     id="defs4">
    <linearGradient
       id="linearGradient6570">
      <stop
         style="stop-color:#3e7626;stop-opacity:1;"
         offset="0"
         id="stop6572" />
      <stop
         style="stop-color:#000000;stop-opacity:1"
         offset="1"
         id="stop6574" />
    </linearGradient>
    <linearGradient
       id="linearGradient6541">
      <stop
         id="stop6543"
         offset="0"
         style="stop-color:#000000;stop-opacity:1;" />
      <stop
         id="stop6545"
         offset="1"
         style="stop-color:#dbd6d4;stop-opacity:1;" />
    </linearGradient>
    <linearGradient
       id="linearGradient6498">
      <stop
         id="stop6500"
         offset="0"
         style="stop-color:#d600ff;stop-opacity:1;" />
      <stop
         id="stop6502"
         offset="1"
         style="stop-color:#000000;stop-opacity:1" />
    </linearGradient>
    <linearGradient
       id="linearGradient6448">
      <stop
         id="stop6450"
         offset="0"
         style="stop-color:#7e797c;stop-opacity:1;" />
      <stop
         id="stop6452"
         offset="1"
         style="stop-color:#ffffff;stop-opacity:1;" />
    </linearGradient>
    <linearGradient
       id="linearGradient6410">
      <stop
         style="stop-color:#d90000;stop-opacity:0.42424244;"
         offset="0"
         id="stop6412" />
      <stop
         style="stop-color:#dbd6d4;stop-opacity:1;"
         offset="1"
         id="stop6414" />
    </linearGradient>
    <linearGradient
       id="linearGradient3384">
      <stop
         style="stop-color:#0000ff;stop-opacity:1;"
         offset="0"
         id="stop3386" />
      <stop
         style="stop-color:#000000;stop-opacity:1"
         offset="1"
         id="stop3388" />
    </linearGradient>
    <linearGradient
       id="linearGradient3252">
      <stop
         style="stop-color:#ffffff;stop-opacity:1"
         offset="0"
         id="stop3254" />
      <stop
         style="stop-color:#bababa;stop-opacity:0;"
         offset="1"
         id="stop3256" />
    </linearGradient>
    <radialGradient
       inkscape:collect="always"
       xlink:href="#linearGradient3252"
       id="radialGradient3562"
       gradientUnits="userSpaceOnUse"
       gradientTransform="matrix(0.2134373,0,0,0.2134373,19.805211,5.9610473)"
       cx="58.01162"
       cy="63.345894"
       fx="58.01162"
       fy="63.345894"
       r="33.113495" />
    <linearGradient
       inkscape:collect="always"
       xlink:href="#linearGradient3384"
       id="linearGradient3565"
       gradientUnits="userSpaceOnUse"
       gradientTransform="matrix(0.2688926,0.2688926,-0.2688926,0.2688926,38.227733,-8.4494346)"
       x1="25.398125"
       y1="63.345894"
       x2="90.625114"
       y2="63.345894" />
    <radialGradient
       inkscape:collect="always"
       xlink:href="#linearGradient6448"
       id="radialGradient6446"
       cx="52.697197"
       cy="124.21634"
       fx="52.697197"
       fy="124.21634"
       r="30.460808"
       gradientTransform="matrix(1,0,0,0.405,0,73.908722)"
       gradientUnits="userSpaceOnUse" />
    <linearGradient
       inkscape:collect="always"
       xlink:href="#linearGradient3384"
       id="linearGradient6475"
       gradientUnits="userSpaceOnUse"
       gradientTransform="matrix(0.2688926,0.2688926,-0.2688926,0.2688926,38.227733,-8.4494346)"
       x1="25.398125"
       y1="63.345894"
       x2="90.625114"
       y2="63.345894" />
    <radialGradient
       inkscape:collect="always"
       xlink:href="#linearGradient3252"
       id="radialGradient6477"
       gradientUnits="userSpaceOnUse"
       gradientTransform="matrix(0.2134373,0,0,0.2134373,19.805211,5.9610473)"
       cx="58.01162"
       cy="63.345894"
       fx="58.01162"
       fy="63.345894"
       r="33.113495" />
    <linearGradient
       inkscape:collect="always"
       xlink:href="#linearGradient6498"
       id="linearGradient6509"
       gradientUnits="userSpaceOnUse"
       gradientTransform="matrix(0.1185687,0.1185687,-0.1185687,0.1185687,115.41365,31.042241)"
       x1="25.398125"
       y1="63.345894"
       x2="90.625114"
       y2="63.345894" />
    <radialGradient
       inkscape:collect="always"
       xlink:href="#linearGradient3252"
       id="radialGradient6511"
       gradientUnits="userSpaceOnUse"
       gradientTransform="matrix(9.4115562e-2,0,0,9.4115562e-2,107.29021,37.396569)"
       cx="58.01162"
       cy="63.345894"
       fx="58.01162"
       fy="63.345894"
       r="33.113495" />
    <linearGradient
       inkscape:collect="always"
       xlink:href="#linearGradient6410"
       id="linearGradient6516"
       gradientUnits="userSpaceOnUse"
       gradientTransform="matrix(-1,0,0,-1,85.972349,98.899253)"
       x1="3.1110499"
       y1="36.230339"
       x2="23.543489"
       y2="36.230339" />
    <linearGradient
       inkscape:collect="always"
       xlink:href="#linearGradient6410"
       id="linearGradient6520"
       gradientUnits="userSpaceOnUse"
       gradientTransform="translate(59.31781,26.438572)"
       x1="-12.244898"
       y1="-5.9183674"
       x2="3.0612245"
       y2="15.510204" />
    <linearGradient
       inkscape:collect="always"
       xlink:href="#linearGradient6410"
       id="linearGradient6524"
       gradientUnits="userSpaceOnUse"
       gradientTransform="translate(59.31781,26.438572)"
       x1="20.408163"
       y1="2.0408163"
       x2="5.3061223"
       y2="12.448979" />
    <linearGradient
       inkscape:collect="always"
       xlink:href="#linearGradient6410"
       id="linearGradient6528"
       gradientUnits="userSpaceOnUse"
       gradientTransform="translate(59.31781,26.438572)"
       x1="-23.087931"
       y1="36.786045"
       x2="2.7227142"
       y2="36.786045" />
    <linearGradient
       inkscape:collect="always"
       xlink:href="#linearGradient6541"
       id="linearGradient6539"
       x1="54.795918"
       y1="24.387754"
       x2="53.359184"
       y2="37.424217"
       gradientUnits="userSpaceOnUse" />
    <linearGradient
       inkscape:collect="always"
       xlink:href="#linearGradient6570"
       id="linearGradient6581"
       gradientUnits="userSpaceOnUse"
       gradientTransform="matrix(0.1185687,0.1185687,-0.1185687,0.1185687,-125.84143,-62.98095)"
       x1="25.398125"
       y1="63.345894"
       x2="90.625114"
       y2="63.345894" />
    <radialGradient
       inkscape:collect="always"
       xlink:href="#linearGradient3252"
       id="radialGradient6583"
       gradientUnits="userSpaceOnUse"
       gradientTransform="matrix(9.4115562e-2,0,0,9.4115562e-2,-133.96487,-56.626622)"
       cx="58.01162"
       cy="63.345894"
       fx="58.01162"
       fy="63.345894"
       r="33.113495" />
  </defs>
  <path
     sodipodi:type="arc"
     style="fill:url(#radialGradient6446);fill-opacity:1;fill-rule:evenodd;stroke:none;stroke-width:1px;stroke-linecap:butt;stroke-linejoin:miter;stroke-opacity:1"
     id="path6438"
     sodipodi:cx="52.697197"
     sodipodi:cy="124.21634"
     sodipodi:rx="30.460808"
     sodipodi:ry="12.336627"
     d="M 83.158005 124.21634 A 30.460808 12.336627 0 1 1  22.236389,124.21634 A 30.460808 12.336627 0 1 1  83.158005 124.21634 z"
     transform="matrix(1.2439519,0,0,1,-7.2496304,-38.863662)" />
  <g
     id="g2203"
     transform="matrix(0.7710003,0,0,0.7710003,-8.4257908,-1.1223115)">
    <path
       d="M 65.004833,37.092215 C 65.006033,43.94249 59.453123,49.496372 52.602853,49.496372 C 45.752573,49.496372 40.199663,43.94249 40.200863,37.092215 C 40.199663,30.241939 45.752573,24.688058 52.602853,24.688058 C 59.453123,24.688058 65.006033,30.241939 65.004833,37.092215 L 65.004833,37.092215 z "
       style="fill:#e4e4e3;fill-opacity:1;fill-rule:evenodd;stroke:none;stroke-width:0.38027155px;stroke-linecap:butt;stroke-linejoin:miter;stroke-opacity:1"
       id="path6824" />
    <g
       id="g3519">
      <path
         id="path3474"
         style="fill:#0000ff;fill-opacity:1;fill-rule:evenodd;stroke:#000000;stroke-width:0.38027155px;stroke-linecap:butt;stroke-linejoin:miter;stroke-opacity:1"
         d="M 49.066773,24.22879 C 49.067972,31.079065 43.515064,36.632947 36.664788,36.632947 C 29.814513,36.632947 24.261604,31.079065 24.262803,24.22879 C 24.261604,17.378514 29.814513,11.824633 36.664788,11.824633 C 43.515064,11.824633 49.067972,17.378514 49.066773,24.22879 L 49.066773,24.22879 z " />
      <path
         id="path3476"
         style="opacity:0.71739131;fill:url(#linearGradient3565);fill-opacity:1;fill-rule:evenodd;stroke:none;stroke-width:1px;stroke-linecap:butt;stroke-linejoin:miter;stroke-opacity:1"
         d="M 45.562914,32.95223 C 40.719885,37.796953 32.866199,37.797641 28.022324,32.953766 C 23.178446,28.109889 23.179135,20.256203 28.023859,15.413176 C 32.866887,10.568451 40.720573,10.567763 45.56445,15.411639 C 50.408325,20.255515 50.407637,28.109202 45.562914,32.95223 L 45.562914,32.95223 z " />
      <path
         id="path3478"
         style="fill:url(#radialGradient3562);fill-opacity:1;fill-rule:evenodd;stroke:none;stroke-width:1px;stroke-linecap:butt;stroke-linejoin:miter;stroke-opacity:1"
         d="M 39.147988,19.481422 C 39.148661,23.326315 36.031948,26.443576 32.187053,26.443576 C 28.342159,26.443576 25.225445,23.326315 25.226118,19.481422 C 25.225445,15.636527 28.342159,12.519268 32.187053,12.519268 C 36.031948,12.519268 39.148661,15.636527 39.147988,19.481422 L 39.147988,19.481422 z " />
    </g>
  </g>
  <path
     style="fill:#d70000;fill-opacity:1;fill-rule:evenodd;stroke:none;stroke-width:2.27916169;stroke-linecap:round;stroke-linejoin:round;stroke-miterlimit:4;stroke-dashoffset:0;stroke-opacity:1"
     d="M 40.116515,84.736668 L 61.521909,86.777486 C 61.437082,71.346217 61.352256,55.914948 61.26743,40.48368 L 35.711265,39.650986 C 37.179675,54.679547 38.648095,69.708108 40.116515,84.736668 z "
     id="path5358"
     sodipodi:nodetypes="ccccc" />
  <path
     style="fill:url(#linearGradient6528);fill-opacity:1;fill-rule:evenodd;stroke:none;stroke-width:2.27916169;stroke-linecap:round;stroke-linejoin:round;stroke-miterlimit:4;stroke-dashoffset:0;stroke-opacity:1"
     d="M 40.63513,84.747048 L 62.040524,86.787866 C 61.955697,71.356597 61.870871,55.925328 61.786045,40.49406 L 36.22988,39.661366 C 37.69829,54.689927 39.16671,69.718488 40.63513,84.747048 z "
     id="path6343"
     sodipodi:nodetypes="ccccc" />
  <path
     style="fill:#d70000;fill-opacity:1;fill-rule:evenodd;stroke:none;stroke-width:2.27916169;stroke-linecap:round;stroke-linejoin:round;stroke-miterlimit:4;stroke-dashoffset:0;stroke-opacity:1"
     d="M 71.891118,22.423345 C 68.560665,28.377005 65.230211,34.330664 61.899758,40.284324 L 84.421494,38.829533 C 80.329624,33.2953 76.237753,27.761067 72.145882,22.226834"
     id="path5360"
     sodipodi:nodetypes="cccc" />
  <path
     style="fill:url(#linearGradient6524);fill-opacity:1;fill-rule:evenodd;stroke:none;stroke-width:2.27916169;stroke-linecap:round;stroke-linejoin:round;stroke-miterlimit:4;stroke-dashoffset:0;stroke-opacity:1"
     d="M 72.409733,22.433725 C 69.07928,28.387385 65.748826,34.341044 62.418373,40.294704 L 84.940109,38.839913 C 80.848239,33.30568 76.756368,27.771447 72.664497,22.237214"
     id="path6345"
     sodipodi:nodetypes="cccc" />
  <path
     style="fill:#d70000;fill-opacity:1;fill-rule:evenodd;stroke:none;stroke-width:2.27916169;stroke-linecap:round;stroke-linejoin:round;stroke-miterlimit:4;stroke-dashoffset:0;stroke-opacity:1"
     d="M 71.884817,21.589102 L 61.021565,39.705456 C 52.012118,39.404986 43.002668,39.104517 33.993222,38.804047 C 38.418985,33.065732 42.844738,27.327417 47.270498,21.589102 C 55.475268,21.589102 63.680045,21.589102 71.884817,21.589102 z "
     id="path5362"
     sodipodi:nodetypes="ccccc" />
  <path
     style="fill:url(#linearGradient6520);fill-opacity:1;fill-rule:evenodd;stroke:none;stroke-width:2.27916169;stroke-linecap:round;stroke-linejoin:round;stroke-miterlimit:4;stroke-dashoffset:0;stroke-opacity:1"
     d="M 72.403432,21.599482 L 61.54018,39.715836 C 52.530733,39.415366 43.521283,39.114897 34.511837,38.814427 C 38.9376,33.076112 43.363353,27.337797 47.789113,21.599482 C 55.993884,21.599482 64.19866,21.599482 72.403432,21.599482 z "
     id="path6347"
     sodipodi:nodetypes="ccccc" />
  <path
     style="fill:#d70000;fill-opacity:1;fill-rule:evenodd;stroke:none;stroke-width:2.27916169;stroke-linecap:round;stroke-linejoin:round;stroke-miterlimit:4;stroke-dashoffset:0;stroke-opacity:1"
     d="M 61.964704,86.51415 L 61.910244,40.247852 L 82.342684,38.802915 C 80.874264,53.831475 79.405844,68.860036 77.937434,83.888597 C 72.613184,84.763781 67.288944,85.638966 61.964704,86.51415 z "
     id="path5364"
     sodipodi:nodetypes="ccccc" />
  <path
     style="fill:url(#linearGradient6516);fill-opacity:1;fill-rule:evenodd;stroke:none;stroke-width:2.27916169;stroke-linecap:round;stroke-linejoin:round;stroke-miterlimit:4;stroke-dashoffset:0;stroke-opacity:1"
     d="M 62.48332,86.52453 L 62.42886,40.258232 L 82.861299,38.813295 C 81.392879,53.841855 79.924459,68.870416 78.456049,83.898977 C 73.131799,84.774161 67.80756,85.649346 62.48332,86.52453 z "
     id="path6349"
     sodipodi:nodetypes="ccccc" />
  <path
     style="fill:none;fill-opacity:1;fill-rule:evenodd;stroke:#000000;stroke-width:2.27916169;stroke-linecap:round;stroke-linejoin:round;stroke-miterlimit:4;stroke-dashoffset:0;stroke-opacity:1"
     d="M 36.177506,39.566052 C 37.645923,54.594613 39.114341,69.623174 40.582758,84.651734 C 47.650731,85.308152 54.722586,86.081784 61.788135,86.665044 C 67.112378,85.78986 72.43662,84.914675 77.760863,84.039491 C 79.229281,69.01093 80.697699,53.982369 82.166117,38.953809 M 71.979799,22.341256 C 76.07167,27.875489 80.163541,33.409722 84.255411,38.943955 C 76.542166,39.431527 68.831253,40.055485 61.116547,40.45761 C 52.107101,40.15714 43.097655,39.856671 34.088209,39.556201 C 38.513966,33.817886 42.939724,28.079571 47.365481,22.341256 C 55.570254,22.341256 63.775027,22.341256 71.979799,22.341256 z M 61.988154,86.692552 C 61.903327,71.261283 61.818501,55.830014 61.733675,40.398746 C 65.064128,34.445086 68.394582,28.491427 71.725035,22.537767"
     id="rect3391" />
  <path
     style="fill:url(#linearGradient6539);fill-opacity:1.0;fill-rule:evenodd;stroke:#000000;stroke-width:1.5;stroke-linecap:round;stroke-linejoin:round;stroke-miterlimit:4;stroke-dasharray:none;stroke-dashoffset:0;stroke-opacity:1"
     d="M 49.018681,26.229929 L 64.860381,26.229929 L 58.697462,36.674217 L 41.857987,36.146506 L 49.018681,26.229929 z "
     id="rect3416"
     sodipodi:nodetypes="ccccc" />
  <g
     id="g6458"
     transform="matrix(0.4409518,0,0,0.4409518,59.531275,72.469422)">
    <path
       d="M 49.066773,24.22879 C 49.067972,31.079065 43.515064,36.632947 36.664788,36.632947 C 29.814513,36.632947 24.261604,31.079065 24.262803,24.22879 C 24.261604,17.378514 29.814513,11.824633 36.664788,11.824633 C 43.515064,11.824633 49.067972,17.378514 49.066773,24.22879 L 49.066773,24.22879 z "
       style="fill:#0000ff;fill-opacity:1;fill-rule:evenodd;stroke:#000000;stroke-width:0.38027155px;stroke-linecap:butt;stroke-linejoin:miter;stroke-opacity:1"
       id="path6460" />
    <path
       d="M 45.562914,32.95223 C 40.719885,37.796953 32.866199,37.797641 28.022324,32.953766 C 23.178446,28.109889 23.179135,20.256203 28.023859,15.413176 C 32.866887,10.568451 40.720573,10.567763 45.56445,15.411639 C 50.408325,20.255515 50.407637,28.109202 45.562914,32.95223 L 45.562914,32.95223 z "
       style="opacity:0.71739131;fill:url(#linearGradient6475);fill-opacity:1;fill-rule:evenodd;stroke:none;stroke-width:1px;stroke-linecap:butt;stroke-linejoin:miter;stroke-opacity:1"
       id="path6462" />
    <path
       d="M 39.147988,19.481422 C 39.148661,23.326315 36.031948,26.443576 32.187053,26.443576 C 28.342159,26.443576 25.225445,23.326315 25.226118,19.481422 C 25.225445,15.636527 28.342159,12.519268 32.187053,12.519268 C 36.031948,12.519268 39.148661,15.636527 39.147988,19.481422 L 39.147988,19.481422 z "
       style="fill:url(#radialGradient6477);fill-opacity:1;fill-rule:evenodd;stroke:none;stroke-width:1px;stroke-linecap:butt;stroke-linejoin:miter;stroke-opacity:1"
       id="path6464" />
  </g>
  <g
     id="g6504"
     transform="translate(-48.487322,40.406102)">
    <path
       d="M 120.19314,45.451763 C 120.19367,48.472404 117.74511,50.921398 114.72447,50.921398 C 111.70383,50.921398 109.25526,48.472404 109.25579,45.451763 C 109.25526,42.431121 111.70383,39.982127 114.72447,39.982127 C 117.74511,39.982127 120.19367,42.431121 120.19314,45.451763 L 120.19314,45.451763 z "
       style="fill:#bd00ff;fill-opacity:1;fill-rule:evenodd;stroke:#000000;stroke-width:0.16768143px;stroke-linecap:butt;stroke-linejoin:miter;stroke-opacity:1"
       id="path6481" />
    <path
       d="M 118.64811,49.298379 C 116.51257,51.434668 113.04947,51.434972 110.91356,49.299056 C 108.77764,47.16314 108.77794,43.700043 110.91423,41.564502 C 113.04977,39.428211 116.51287,39.427908 118.64879,41.563824 C 120.7847,43.69974 120.7844,47.162837 118.64811,49.298379 L 118.64811,49.298379 z "
       style="opacity:0.71739131;fill:url(#linearGradient6509);fill-opacity:1;fill-rule:evenodd;stroke:none;stroke-width:1px;stroke-linecap:butt;stroke-linejoin:miter;stroke-opacity:1"
       id="path6483" />
    <path
       d="M 115.81944,43.358402 C 115.81973,45.053815 114.44541,46.428376 112.75,46.428376 C 111.05459,46.428376 109.68027,45.053815 109.68056,43.358402 C 109.68027,41.662989 111.05459,40.288428 112.75,40.288428 C 114.44541,40.288428 115.81973,41.662989 115.81944,43.358402 L 115.81944,43.358402 z "
       style="fill:url(#radialGradient6511);fill-opacity:1;fill-rule:evenodd;stroke:none;stroke-width:1px;stroke-linecap:butt;stroke-linejoin:miter;stroke-opacity:1"
       id="path6485" />
  </g>
  <g
     id="g6576"
     transform="translate(159.47886,131.28911)">
    <path
       d="M -121.06194,-48.571428 C -121.06141,-45.550787 -123.50997,-43.101793 -126.53061,-43.101793 C -129.55125,-43.101793 -131.99982,-45.550787 -131.99929,-48.571428 C -131.99982,-51.59207 -129.55125,-54.041064 -126.53061,-54.041064 C -123.50997,-54.041064 -121.06141,-51.59207 -121.06194,-48.571428 L -121.06194,-48.571428 z "
       style="fill:#5c7d21;fill-opacity:1;fill-rule:evenodd;stroke:#000000;stroke-width:0.16768143px;stroke-linecap:butt;stroke-linejoin:miter;stroke-opacity:1"
       id="path6553" />
    <path
       d="M -122.60697,-44.724812 C -124.74251,-42.588523 -128.20561,-42.588219 -130.34152,-44.724135 C -132.47744,-46.860051 -132.47714,-50.323148 -130.34085,-52.458689 C -128.20531,-54.59498 -124.74221,-54.595283 -122.60629,-52.459367 C -120.47038,-50.323451 -120.47068,-46.860354 -122.60697,-44.724812 L -122.60697,-44.724812 z "
       style="opacity:0.71739131;fill:url(#linearGradient6581);fill-opacity:1;fill-rule:evenodd;stroke:none;stroke-width:1px;stroke-linecap:butt;stroke-linejoin:miter;stroke-opacity:1"
       id="path6555" />
    <path
       d="M -125.43564,-50.664789 C -125.43535,-48.969376 -126.80967,-47.594815 -128.50508,-47.594815 C -130.20049,-47.594815 -131.57481,-48.969376 -131.57452,-50.664789 C -131.57481,-52.360202 -130.20049,-53.734763 -128.50508,-53.734763 C -126.80967,-53.734763 -125.43535,-52.360202 -125.43564,-50.664789 L -125.43564,-50.664789 z "
       style="fill:url(#radialGradient6583);fill-opacity:1;fill-rule:evenodd;stroke:none;stroke-width:1px;stroke-linecap:butt;stroke-linejoin:miter;stroke-opacity:1"
       id="path6557" />
  </g>
  <path
     style="fill:#ffffff;fill-opacity:1;fill-rule:evenodd;stroke:#000000;stroke-width:1.22627747;stroke-linecap:round;stroke-linejoin:round;stroke-miterlimit:4;stroke-dashoffset:0;stroke-opacity:1"
     d="M 24.481748,25.511238 L 29.494588,56.77767 L 36.950624,52.472924 L 41.957925,61.145822 L 46.60412,58.46334 L 41.596819,49.790443 L 49.052855,45.485699 L 24.481748,25.511238 z "
     id="path6783" />
</svg>
