<?xml version="1.0" encoding="UTF-8" standalone="no"?>
<!-- Created with Inkscape (http://www.inkscape.org/) -->
<svg
   xmlns:dc="http://purl.org/dc/elements/1.1/"
   xmlns:cc="http://web.resource.org/cc/"
   xmlns:rdf="http://www.w3.org/1999/02/22-rdf-syntax-ns#"
   xmlns:svg="http://www.w3.org/2000/svg"
   xmlns="http://www.w3.org/2000/svg"
   xmlns:xlink="http://www.w3.org/1999/xlink"
   xmlns:sodipodi="http://sodipodi.sourceforge.net/DTD/sodipodi-0.dtd"
   xmlns:inkscape="http://www.inkscape.org/namespaces/inkscape"
   version="1.0"
   width="100"
   height="100"
   id="svg2"
   sodipodi:version="0.32"
   inkscape:version="0.45.1"
   sodipodi:docname="file_save.svg"
   sodipodi:docbase="/home/tris/src/aten/src/gui-qt/icons"
   inkscape:output_extension="org.inkscape.output.svg.inkscape">
  <metadata
     id="metadata2566">
    <rdf:RDF>
      <cc:Work
         rdf:about="">
        <dc:format>image/svg+xml</dc:format>
        <dc:type
           rdf:resource="http://purl.org/dc/dcmitype/StillImage" />
      </cc:Work>
    </rdf:RDF>
  </metadata>
  <sodipodi:namedview
     inkscape:window-height="714"
     inkscape:window-width="1024"
     inkscape:pageshadow="2"
     inkscape:pageopacity="0.0"
     guidetolerance="10.0"
     gridtolerance="10.0"
     objecttolerance="10.0"
     borderopacity="1.0"
     bordercolor="#666666"
     pagecolor="#ffffff"
     id="base"
     inkscape:zoom="5.9168334"
     inkscape:cx="57.376467"
     inkscape:cy="31.00477"
     inkscape:window-x="158"
     inkscape:window-y="12"
     inkscape:current-layer="svg2" />
  <defs
     id="defs4">
    <linearGradient
       id="linearGradient5072">
      <stop
         style="stop-color:#862bff;stop-opacity:1;"
         offset="0"
         id="stop5074" />
      <stop
         style="stop-color:#9b50ff;stop-opacity:1;"
         offset="1"
         id="stop5076" />
    </linearGradient>
    <linearGradient
       id="linearGradient5064">
      <stop
         style="stop-color:#dadada;stop-opacity:1;"
         offset="0"
         id="stop5066" />
      <stop
         style="stop-color:#898989;stop-opacity:1;"
         offset="1"
         id="stop5068" />
    </linearGradient>
    <linearGradient
       inkscape:collect="always"
       xlink:href="#linearGradient5072"
       id="linearGradient6166"
       gradientUnits="userSpaceOnUse"
       x1="15.350921"
       y1="46.012269"
       x2="80.354601"
       y2="46.012269" />
    <linearGradient
       inkscape:collect="always"
       xlink:href="#linearGradient5064"
       id="linearGradient6168"
       gradientUnits="userSpaceOnUse"
       x1="32.942781"
       y1="25.952554"
       x2="66.236531"
       y2="25.952554" />
    <linearGradient
       inkscape:collect="always"
       xlink:href="#linearGradient5064"
       id="linearGradient2188"
       gradientUnits="userSpaceOnUse"
       x1="32.942781"
       y1="25.952554"
       x2="66.236531"
       y2="25.952554"
       gradientTransform="matrix(1.0779024,0,0,1.0779024,-1.5806059,0.4009276)" />
    <linearGradient
       inkscape:collect="always"
       xlink:href="#linearGradient5072"
       id="linearGradient2191"
       gradientUnits="userSpaceOnUse"
       x1="15.350921"
       y1="46.012269"
       x2="80.354601"
       y2="46.012269"
       gradientTransform="matrix(1.0779024,0,0,1.0779024,-1.5806059,0.4009276)" />
  </defs>
  <g
     id="g2244"
     transform="translate(-58.815244,7.9434381)">
    <path
       style="fill:#e5e4e3;fill-opacity:1;fill-rule:evenodd;stroke:none;stroke-width:1.20000005;stroke-linecap:round;stroke-linejoin:round;stroke-miterlimit:4;stroke-dashoffset:0;stroke-opacity:1"
       d="M 88.982804,21.695016 L 148.71931,21.695016 L 157.75694,30.291784 L 157.75694,90.469153 L 88.982804,90.469153 L 88.982804,21.695016 z "
       id="path5144"
       sodipodi:nodetypes="cccccc" />
    <rect
       style="fill:#ffffff;fill-opacity:1;fill-rule:evenodd;stroke:none;stroke-width:0.58104563;stroke-linecap:round;stroke-linejoin:round;stroke-miterlimit:4;stroke-dasharray:none;stroke-dashoffset:0;stroke-opacity:1"
       id="rect5150"
       width="4.4322443"
       height="3.9189899"
       x="91.684052"
       y="84.238586" />
  </g>
  <path
     style="fill:url(#linearGradient2191);fill-opacity:1;fill-rule:evenodd;stroke:#000000;stroke-width:1.2934829;stroke-linecap:round;stroke-linejoin:round;stroke-miterlimit:4;stroke-dashoffset:0;stroke-opacity:1"
     d="M 15.61293,15.610593 L 75.349443,15.610593 L 84.38707,24.20736 L 84.38707,84.384733 L 15.61293,84.384733 L 15.61293,15.610593 z "
     id="rect5048"
     sodipodi:nodetypes="cccccc" />
  <path
     style="fill:url(#linearGradient2188);fill-opacity:1;fill-rule:evenodd;stroke:#000000;stroke-width:1.2934829;stroke-linecap:round;stroke-linejoin:round;stroke-miterlimit:4;stroke-dashoffset:0;stroke-opacity:1"
     d="M 34.575238,15.591999 L 34.575238,41.158497 L 69.169168,41.158497 L 69.169168,15.591999 L 34.575238,15.591999 z M 56.705922,20.274138 L 64.823874,20.274138 L 64.823874,36.813203 L 56.705922,36.813203 L 56.705922,20.274138 z "
     id="rect5051" />
  <rect
     style="fill:#ffffff;fill-opacity:1;fill-rule:evenodd;stroke:#000000;stroke-width:1.2934829;stroke-linecap:round;stroke-linejoin:round;stroke-miterlimit:4;stroke-dasharray:none;stroke-dashoffset:0;stroke-opacity:1"
     id="rect5080"
     width="48.942394"
     height="36.161259"
     x="25.631645"
     y="48.246742" />
  <rect
     style="fill:#ffffff;fill-opacity:1;fill-rule:evenodd;stroke:#000000;stroke-width:0.62631047;stroke-linecap:round;stroke-linejoin:round;stroke-miterlimit:4;stroke-dasharray:none;stroke-dashoffset:0;stroke-opacity:1"
     id="rect5082"
     width="4.4322443"
     height="3.9189899"
     x="18.314171"
     y="78.15416" />
  <path
     style="font-size:8.88496017px;font-style:normal;font-weight:normal;line-height:125%;fill:#000000;fill-opacity:1;stroke:none;stroke-width:1px;stroke-linecap:butt;stroke-linejoin:miter;stroke-opacity:1;font-family:Bitstream Vera Sans"
     d="M 32.989861,53.442833 C 35.293295,55.299983 29.465262,57.84435 31.459688,54.572045 C 32.636635,52.279081 28.101985,54.569048 30.703237,54.20273 C 29.215005,57.536584 33.602037,58.417039 33.819388,54.937617 C 34.030204,54.389605 34.020323,52.676577 32.989861,53.442833 z M 34.063725,56.438652 C 35.976469,58.59408 35.914846,52.313711 34.696951,55.598497 C 35.586745,56.893337 35.309677,56.404142 34.063725,56.438652 z M 38.436222,56.079155 C 36.9812,57.161946 37.663234,52.697998 36.619065,56.184124 C 36.474753,57.717728 38.161395,56.952419 38.436222,56.079155 z M 37.001076,55.799545 C 36.725581,54.227033 38.744765,55.455888 37.001076,55.799545 z M 40.494881,54.914116 C 39.693538,53.93934 41.47736,51.634795 39.784851,53.956848 C 39.023034,55.29656 38.042981,60.448476 39.559671,56.584537 C 39.713667,55.964927 39.914066,55.274081 40.494881,54.914116 z M 40.847645,54.994003 C 40.200478,57.575406 44.684505,57.101345 42.971343,54.816522 C 42.250604,57.917996 41.714027,53.591746 40.847645,54.994003 L 40.847645,54.994003 z M 45.39476,56.132412 C 43.326367,55.84271 46.464693,50.975749 44.297722,54.498934 C 44.028419,55.382603 43.835608,58.271858 45.39476,56.132412 z M 48.732632,54.914116 C 47.931278,53.939342 49.715118,51.634794 48.022599,53.956849 C 47.260782,55.296561 46.28073,60.448474 47.797419,56.584533 C 47.951416,55.964924 48.151817,55.27408 48.732632,54.914116 z M 50.148464,53.702473 C 51.269419,53.275216 49.167456,52.980482 50.148464,53.702473 z M 50.606915,56.21896 C 49.385686,54.940996 49.564623,53.963828 49.363419,56.628125 C 49.591424,57.289939 50.483763,56.534156 50.606915,56.21896 z M 52.168713,56.132412 C 50.100319,55.842711 53.238647,50.97575 51.071674,54.498935 C 50.802369,55.382605 50.609565,58.271857 52.168713,56.132412 z M 54.242111,56.079155 C 52.787089,57.161944 53.469128,52.697997 52.424955,56.184121 C 52.280642,57.717724 53.967283,56.95242 54.242111,56.079155 z M 52.806969,55.799545 C 52.531473,54.227033 54.550658,55.455887 52.806969,55.799545 z M 54.261009,56.438652 C 56.173754,58.594077 56.112127,52.313713 54.894232,55.598496 C 55.784017,56.893325 55.506968,56.404151 54.261009,56.438652 z "
     id="text5084" />
  <path
     style="font-size:8.88496017px;font-style:normal;font-weight:normal;line-height:125%;fill:#000000;fill-opacity:1;stroke:none;stroke-width:1px;stroke-linecap:butt;stroke-linejoin:miter;stroke-opacity:1;font-family:Bitstream Vera Sans"
     d="M 32.594212,64.409195 C 31.521967,65.363537 30.069653,64.109932 30.963362,62.925095 C 30.997655,62.233425 32.025359,61.101864 31.760122,60.900318 C 30.173503,61.019312 29.688097,63.043227 30.05848,64.328265 C 30.574176,65.647652 31.906148,65.394705 32.594212,64.409195 z M 33.034805,64.888527 C 32.869237,63.498863 34.868236,63.792269 35.252828,63.370504 C 34.870152,62.71572 34.868891,61.096856 34.331838,61.048755 C 33.410864,62.068009 33.378268,63.533247 33.047902,64.803832 L 33.038032,64.867659 L 33.034805,64.888527 z M 37.988873,63.916553 C 36.953245,64.598943 36.999111,61.506025 36.333254,63.179776 C 35.199679,64.301224 37.576812,65.607176 37.941435,64.070578 C 37.957247,64.019236 37.97306,63.967895 37.988873,63.916553 z M 36.55373,63.636944 C 35.867481,62.76097 37.938147,62.612759 37.092705,63.460894 C 36.926471,63.555114 36.738434,63.597255 36.55373,63.636944 z M 38.805069,64.715439 C 38.607637,62.926782 40.730904,63.714258 41.633136,64.001385 C 42.461953,62.865175 40.624244,61.426934 39.51447,62.232084 C 38.526574,62.643338 38.001603,63.875223 38.805069,64.715439 z M 43.456619,61.539867 C 44.493572,61.171577 42.641484,61.015174 43.456619,61.539867 z M 43.91507,64.056358 C 43.993964,63.203345 42.431951,62.277396 42.628283,63.669129 C 42.454742,64.749926 43.503957,65.285845 43.91507,64.056358 z M 45.981827,63.983128 C 44.907584,64.75209 44.955956,61.550282 44.379039,63.149718 C 43.29655,64.184881 45.353683,65.723029 45.893583,64.238537 C 45.941058,64.160747 45.950735,64.067467 45.981827,63.983128 z M 48.964027,63.963154 C 49.118754,62.367499 46.850536,61.550255 46.524754,63.393568 C 46.162863,65.213393 48.119152,64.787648 48.964027,63.963154 z M 47.668411,64.003098 C 46.150588,64.286786 47.736213,62.094845 48.106885,63.215801 C 48.031603,63.512065 47.838879,63.756732 47.668411,64.003098 z M 50.522297,63.96981 C 49.284828,63.561836 50.228566,61.568833 50.066301,61.28838 C 49.23812,62.082182 49.037345,63.382592 49.38173,64.439441 C 49.749875,64.975585 50.365314,64.370753 50.522297,63.96981 z M 53.946541,63.989784 C 53.159635,63.886342 53.302841,61.311681 52.685384,62.777669 C 52.083808,63.62729 52.929574,65.948443 53.946541,63.989784 z M 56.192898,63.916553 C 55.15727,64.598947 55.203135,61.506025 54.537278,63.179777 C 53.403705,64.301227 55.780835,65.607174 56.14546,64.070577 C 56.161272,64.019236 56.177085,63.967895 56.192898,63.916553 z M 54.757751,63.636944 C 54.071505,62.760969 56.142168,62.61276 55.296724,63.460894 C 55.130491,63.555114 54.942454,63.597256 54.757751,63.636944 z M 56.211792,64.276054 C 57.066449,65.684158 58.282779,63.176638 57.372241,62.724946 C 56.548575,63.154532 57.233815,64.014461 57.355151,64.437481 C 56.976147,64.552084 56.581325,64.347208 56.211792,64.276054 z M 60.471336,63.989784 C 59.684433,63.886339 59.827641,61.311683 59.210184,62.77767 C 58.608609,63.627288 59.454367,65.948442 60.471336,63.989784 z M 60.4786,64.276054 C 61.333256,65.68416 62.549589,63.17664 61.639051,62.724947 C 60.815382,63.154535 61.50063,64.014465 61.621962,64.437483 C 61.242956,64.552083 60.848135,64.347206 60.4786,64.276054 z "
     id="text5092" />
</svg>
