<?xml version="1.0" encoding="UTF-8" standalone="no"?>
<!-- Created with Inkscape (http://www.inkscape.org/) -->
<svg
   xmlns:dc="http://purl.org/dc/elements/1.1/"
   xmlns:cc="http://web.resource.org/cc/"
   xmlns:rdf="http://www.w3.org/1999/02/22-rdf-syntax-ns#"
   xmlns:svg="http://www.w3.org/2000/svg"
   xmlns="http://www.w3.org/2000/svg"
   xmlns:xlink="http://www.w3.org/1999/xlink"
   xmlns:sodipodi="http://sodipodi.sourceforge.net/DTD/sodipodi-0.dtd"
   xmlns:inkscape="http://www.inkscape.org/namespaces/inkscape"
   version="1.0"
   width="100"
   height="100"
   id="svg2"
   sodipodi:version="0.32"
   inkscape:version="0.45.1"
   sodipodi:docname="select_all.svg"
   sodipodi:docbase="/home/tris/src/aten/src/gui-qt/icons"
   inkscape:output_extension="org.inkscape.output.svg.inkscape">
  <metadata
     id="metadata2566">
    <rdf:RDF>
      <cc:Work
         rdf:about="">
        <dc:format>image/svg+xml</dc:format>
        <dc:type
           rdf:resource="http://purl.org/dc/dcmitype/StillImage" />
      </cc:Work>
    </rdf:RDF>
  </metadata>
  <sodipodi:namedview
     inkscape:window-height="714"
     inkscape:window-width="1024"
     inkscape:pageshadow="2"
     inkscape:pageopacity="0.0"
     guidetolerance="10.0"
     gridtolerance="10.0"
     objecttolerance="10.0"
     borderopacity="1.0"
     bordercolor="#666666"
     pagecolor="#ffffff"
     id="base"
     inkscape:zoom="4.9"
     inkscape:cx="50"
     inkscape:cy="49.897959"
     inkscape:window-x="0"
     inkscape:window-y="29"
     inkscape:current-layer="svg2" />
  <defs
     id="defs4">
    <linearGradient
       id="linearGradient3384">
      <stop
         style="stop-color:#0000ff;stop-opacity:1;"
         offset="0"
         id="stop3386" />
      <stop
         style="stop-color:#000000;stop-opacity:1"
         offset="1"
         id="stop3388" />
    </linearGradient>
    <linearGradient
       id="linearGradient3252">
      <stop
         style="stop-color:#ffffff;stop-opacity:1"
         offset="0"
         id="stop3254" />
      <stop
         style="stop-color:#7f7fff;stop-opacity:0;"
         offset="1"
         id="stop3256" />
    </linearGradient>
    <radialGradient
       inkscape:collect="always"
       xlink:href="#linearGradient3252"
       id="radialGradient3562"
       gradientUnits="userSpaceOnUse"
       gradientTransform="matrix(0.1887019,0,0,0.1887019,10.892818,7.4365436)"
       cx="58.01162"
       cy="63.345894"
       fx="58.01162"
       fy="63.345894"
       r="33.113495" />
    <linearGradient
       inkscape:collect="always"
       xlink:href="#linearGradient3384"
       id="linearGradient3565"
       gradientUnits="userSpaceOnUse"
       gradientTransform="matrix(0.2377304,0.2377304,-0.2377304,0.2377304,27.18034,-5.303897)"
       x1="25.398125"
       y1="63.345894"
       x2="90.625114"
       y2="63.345894" />
    <radialGradient
       inkscape:collect="always"
       xlink:href="#linearGradient3252"
       id="radialGradient3578"
       gradientUnits="userSpaceOnUse"
       gradientTransform="matrix(0.1887019,0,0,0.1887019,60.230131,33.0983)"
       cx="58.01162"
       cy="63.345894"
       fx="58.01162"
       fy="63.345894"
       r="33.113495" />
    <linearGradient
       inkscape:collect="always"
       xlink:href="#linearGradient3384"
       id="linearGradient3581"
       gradientUnits="userSpaceOnUse"
       gradientTransform="matrix(0.2377304,0.2377304,-0.2377304,0.2377304,76.517652,20.357859)"
       x1="25.398125"
       y1="63.345894"
       x2="90.625114"
       y2="63.345894" />
    <radialGradient
       inkscape:collect="always"
       xlink:href="#linearGradient3252"
       id="radialGradient3594"
       gradientUnits="userSpaceOnUse"
       gradientTransform="matrix(0.1887019,0,0,0.1887019,23.423531,53.628189)"
       cx="58.01162"
       cy="63.345894"
       fx="58.01162"
       fy="63.345894"
       r="33.113495" />
    <linearGradient
       inkscape:collect="always"
       xlink:href="#linearGradient3384"
       id="linearGradient3597"
       gradientUnits="userSpaceOnUse"
       gradientTransform="matrix(0.2377304,0.2377304,-0.2377304,0.2377304,39.711053,40.887748)"
       x1="25.398125"
       y1="63.345894"
       x2="90.625114"
       y2="63.345894" />
  </defs>
  <use
     x="0"
     y="0"
     xlink:href="#g2702"
     id="use2714"
     transform="translate(12.44898,46.122449)"
     width="100"
     height="100" />
  <use
     x="0"
     y="0"
     xlink:href="#g2702"
     id="use2716"
     transform="translate(49.387755,25.510204)"
     width="100"
     height="100" />
  <rect
     style="opacity:0.64130435;fill:none;fill-opacity:1;fill-rule:evenodd;stroke:#e0e8e5;stroke-width:3;stroke-linecap:round;stroke-linejoin:round;stroke-miterlimit:4;stroke-dasharray:6,3;stroke-dashoffset:0;stroke-opacity:1"
     id="rect4726"
     width="89.48661"
     height="85.555405"
     x="9.3107605"
     y="14.470451" />
  <g
     id="g2702">
    <g
       style="fill:#e3e5e1;fill-opacity:1;stroke:none"
       transform="translate(5.89681,11.056514)"
       id="g4690">
      <path
         sodipodi:type="arc"
         style="opacity:0.64130435;fill:#e3e5e1;fill-opacity:1;fill-rule:evenodd;stroke:none;stroke-width:1px;stroke-linecap:butt;stroke-linejoin:miter;stroke-opacity:1"
         id="path4692"
         sodipodi:cx="105.54481"
         sodipodi:cy="47.27103"
         sodipodi:rx="16.939291"
         sodipodi:ry="16.939291"
         d="M 122.4841 47.27103 A 16.939291 16.939291 0 1 1  88.605516,47.27103 A 16.939291 16.939291 0 1 1  122.4841 47.27103 z"
         transform="translate(-81.466183,-24.175207)" />
      <g
         style="fill:#e3e5e1;fill-opacity:1;stroke:none"
         id="g4694"
         transform="matrix(0.688562,0,0,0.688562,-10.660554,-2.6818598)">
        <path
           d="M 66.37585,37.436982 C 66.37739,46.232692 59.24749,53.363841 50.451779,53.363841 C 41.656069,53.363841 34.526169,46.232692 34.527709,37.436982 C 34.526169,28.641272 41.656069,21.510123 50.451779,21.510123 C 59.24749,21.510123 66.37739,28.641272 66.37585,37.436982 L 66.37585,37.436982 z "
           style="fill:#e3e5e1;fill-opacity:1;fill-rule:evenodd;stroke:none;stroke-width:0.48826629px;stroke-linecap:butt;stroke-linejoin:miter;stroke-opacity:1"
           id="path4696" />
        <path
           d="M 61.876916,48.637824 C 55.658499,54.858419 45.574415,54.859302 39.354909,48.639796 C 33.135402,42.42029 33.136286,32.336206 39.356881,26.117789 C 45.575298,19.897193 55.659382,19.89631 61.878888,26.115816 C 68.098394,32.335323 68.097511,42.419407 61.876916,48.637824 L 61.876916,48.637824 z "
           style="opacity:0.71739131;fill:#e3e5e1;fill-opacity:1;fill-rule:evenodd;stroke:none;stroke-width:1px;stroke-linecap:butt;stroke-linejoin:miter;stroke-opacity:1"
           id="path4698" />
        <path
           d="M 53.640193,31.341391 C 53.641057,36.278211 49.639216,40.280753 44.702396,40.280753 C 39.765576,40.280753 35.763735,36.278211 35.764599,31.341391 C 35.763735,26.404571 39.765576,22.402029 44.702396,22.402029 C 49.639216,22.402029 53.641057,26.404571 53.640193,31.341391 L 53.640193,31.341391 z "
           style="fill:#e3e5e1;fill-opacity:1;fill-rule:evenodd;stroke:none;stroke-width:1px;stroke-linecap:butt;stroke-linejoin:miter;stroke-opacity:1"
           id="path4700" />
      </g>
    </g>
    <path
       transform="translate(-79.746281,-23.683806)"
       d="M 122.4841 47.27103 A 16.939291 16.939291 0 1 1  88.605516,47.27103 A 16.939291 16.939291 0 1 1  122.4841 47.27103 z"
       sodipodi:ry="16.939291"
       sodipodi:rx="16.939291"
       sodipodi:cy="47.27103"
       sodipodi:cx="105.54481"
       id="path4651"
       style="opacity:1;fill:#afafff;fill-opacity:1;fill-rule:evenodd;stroke:#000000;stroke-width:1px;stroke-linecap:butt;stroke-linejoin:miter;stroke-opacity:1"
       sodipodi:type="arc" />
    <path
       d="M 36.763236,23.587224 C 36.764296,29.643616 31.854918,34.553854 25.798526,34.553854 C 19.742134,34.553854 14.832756,29.643616 14.833816,23.587224 C 14.832756,17.530832 19.742134,12.620594 25.798526,12.620594 C 31.854918,12.620594 36.764296,17.530832 36.763236,23.587224 L 36.763236,23.587224 z "
       style="fill:#0000ff;fill-opacity:1;fill-rule:evenodd;stroke:#000000;stroke-width:0.33620161px;stroke-linecap:butt;stroke-linejoin:miter;stroke-opacity:1"
       id="path3474" />
    <path
       d="M 33.665441,31.299698 C 29.383675,35.582963 22.440158,35.583571 18.157643,31.301056 C 13.875126,27.01854 13.875735,20.075023 18.159,15.793258 C 22.440766,11.509992 29.384283,11.509384 33.666799,15.791899 C 37.949314,20.074415 37.948706,27.017932 33.665441,31.299698 L 33.665441,31.299698 z "
       style="opacity:0.71739131;fill:url(#linearGradient3565);fill-opacity:1;fill-rule:evenodd;stroke:none;stroke-width:1px;stroke-linecap:butt;stroke-linejoin:miter;stroke-opacity:1"
       id="path3476" />
    <path
       d="M 27.993946,19.390032 C 27.994541,22.789338 25.239026,25.545337 21.839719,25.545337 C 18.440412,25.545337 15.684897,22.789338 15.685492,19.390032 C 15.684897,15.990725 18.440412,13.234727 21.839719,13.234727 C 25.239026,13.234727 27.994541,15.990725 27.993946,19.390032 L 27.993946,19.390032 z "
       style="fill:url(#radialGradient3562);fill-opacity:1;fill-rule:evenodd;stroke:none;stroke-width:1px;stroke-linecap:butt;stroke-linejoin:miter;stroke-opacity:1"
       id="path3478" />
  </g>
  <rect
     style="opacity:0.64130435;fill:none;fill-opacity:1;fill-rule:evenodd;stroke:#000000;stroke-width:3;stroke-linecap:round;stroke-linejoin:round;stroke-miterlimit:4;stroke-dasharray:6,3;stroke-dashoffset:0;stroke-opacity:1"
     id="rect4688"
     width="89.48661"
     height="85.555405"
     x="5.1338449"
     y="3.9053431" />
</svg>
