<?xml version="1.0" encoding="UTF-8" standalone="no"?>
<!-- Created with Inkscape (http://www.inkscape.org/) -->
<svg
   xmlns:dc="http://purl.org/dc/elements/1.1/"
   xmlns:cc="http://web.resource.org/cc/"
   xmlns:rdf="http://www.w3.org/1999/02/22-rdf-syntax-ns#"
   xmlns:svg="http://www.w3.org/2000/svg"
   xmlns="http://www.w3.org/2000/svg"
   xmlns:xlink="http://www.w3.org/1999/xlink"
   xmlns:sodipodi="http://sodipodi.sourceforge.net/DTD/sodipodi-0.dtd"
   xmlns:inkscape="http://www.inkscape.org/namespaces/inkscape"
   version="1.0"
   width="100"
   height="100"
   id="svg2"
   sodipodi:version="0.32"
   inkscape:version="0.45.1"
   sodipodi:docname="edit_selectnone.svg"
   sodipodi:docbase="/home/tris/src/aten-devel/src/gui-qt/icons"
   inkscape:output_extension="org.inkscape.output.svg.inkscape">
  <metadata
     id="metadata2566">
    <rdf:RDF>
      <cc:Work
         rdf:about="">
        <dc:format>image/svg+xml</dc:format>
        <dc:type
           rdf:resource="http://purl.org/dc/dcmitype/StillImage" />
      </cc:Work>
    </rdf:RDF>
  </metadata>
  <sodipodi:namedview
     inkscape:window-height="714"
     inkscape:window-width="1024"
     inkscape:pageshadow="2"
     inkscape:pageopacity="0.0"
     guidetolerance="10.0"
     gridtolerance="10.0"
     objecttolerance="10.0"
     borderopacity="1.0"
     bordercolor="#666666"
     pagecolor="#ffffff"
     id="base"
     inkscape:zoom="0.61125"
     inkscape:cx="57.87197"
     inkscape:cy="43.496843"
     inkscape:window-x="0"
     inkscape:window-y="6"
     inkscape:current-layer="svg2" />
  <defs
     id="defs4">
    <linearGradient
       id="linearGradient3384">
      <stop
         style="stop-color:#0000ff;stop-opacity:1;"
         offset="0"
         id="stop3386" />
      <stop
         style="stop-color:#000000;stop-opacity:1"
         offset="1"
         id="stop3388" />
    </linearGradient>
    <linearGradient
       id="linearGradient3252">
      <stop
         style="stop-color:#ffffff;stop-opacity:1"
         offset="0"
         id="stop3254" />
      <stop
         style="stop-color:#0000ff;stop-opacity:0;"
         offset="1"
         id="stop3256" />
    </linearGradient>
    <linearGradient
       id="linearGradient3149">
      <stop
         style="stop-color:#aa4400;stop-opacity:1"
         offset="0"
         id="stop3151" />
      <stop
         style="stop-color:#aa4400;stop-opacity:0.64948452"
         offset="1"
         id="stop3153" />
    </linearGradient>
    <linearGradient
       id="linearGradient3186">
      <stop
         style="stop-color:#aaaaaa;stop-opacity:1"
         offset="0"
         id="stop3188" />
      <stop
         style="stop-color:#fffffd;stop-opacity:0.50196081"
         offset="1"
         id="stop3190" />
    </linearGradient>
    <radialGradient
       cx="58.01162"
       cy="63.345894"
       r="33.113495"
       fx="58.01162"
       fy="63.345894"
       id="radialGradient3260"
       xlink:href="#linearGradient3252"
       gradientUnits="userSpaceOnUse" />
    <linearGradient
       x1="25.398125"
       y1="63.345894"
       x2="90.625114"
       y2="63.345894"
       id="linearGradient3390"
       xlink:href="#linearGradient3384"
       gradientUnits="userSpaceOnUse" />
    <linearGradient
       x1="25.398125"
       y1="63.345894"
       x2="90.625114"
       y2="63.345894"
       id="linearGradient3459"
       xlink:href="#linearGradient3384"
       gradientUnits="userSpaceOnUse" />
    <radialGradient
       cx="58.01162"
       cy="63.345894"
       r="33.113495"
       fx="58.01162"
       fy="63.345894"
       id="radialGradient3461"
       xlink:href="#linearGradient3252"
       gradientUnits="userSpaceOnUse" />
    <linearGradient
       x1="25.398125"
       y1="63.345894"
       x2="90.625114"
       y2="63.345894"
       id="linearGradient3480"
       xlink:href="#linearGradient3384"
       gradientUnits="userSpaceOnUse" />
    <radialGradient
       cx="58.01162"
       cy="63.345894"
       r="33.113495"
       fx="58.01162"
       fy="63.345894"
       id="radialGradient3482"
       xlink:href="#linearGradient3252"
       gradientUnits="userSpaceOnUse" />
    <linearGradient
       x1="25.398125"
       y1="63.345894"
       x2="90.625114"
       y2="63.345894"
       id="linearGradient3490"
       xlink:href="#linearGradient3384"
       gradientUnits="userSpaceOnUse" />
    <radialGradient
       cx="58.01162"
       cy="63.345894"
       r="33.113495"
       fx="58.01162"
       fy="63.345894"
       id="radialGradient3492"
       xlink:href="#linearGradient3252"
       gradientUnits="userSpaceOnUse" />
    <linearGradient
       inkscape:collect="always"
       xlink:href="#linearGradient3384"
       id="linearGradient4676"
       gradientUnits="userSpaceOnUse"
       gradientTransform="matrix(0.3452564,0.3452564,-0.3452564,0.3452564,52.458591,-4.5216519)"
       x1="25.398125"
       y1="63.345894"
       x2="90.625114"
       y2="63.345894" />
    <radialGradient
       inkscape:collect="always"
       xlink:href="#linearGradient3252"
       id="radialGradient4678"
       gradientUnits="userSpaceOnUse"
       gradientTransform="matrix(0.2740521,0,0,0.2740521,28.80419,13.981316)"
       cx="58.01162"
       cy="63.345894"
       fx="58.01162"
       fy="63.345894"
       r="33.113495" />
    <linearGradient
       inkscape:collect="always"
       xlink:href="#linearGradient3384"
       id="linearGradient4680"
       gradientUnits="userSpaceOnUse"
       gradientTransform="matrix(0.3452564,0.3452564,-0.3452564,0.3452564,52.458591,-4.5216519)"
       x1="25.398125"
       y1="63.345894"
       x2="90.625114"
       y2="63.345894" />
    <radialGradient
       inkscape:collect="always"
       xlink:href="#linearGradient3252"
       id="radialGradient4682"
       gradientUnits="userSpaceOnUse"
       gradientTransform="matrix(0.2740521,0,0,0.2740521,28.80419,13.981316)"
       cx="58.01162"
       cy="63.345894"
       fx="58.01162"
       fy="63.345894"
       r="33.113495" />
    <linearGradient
       inkscape:collect="always"
       xlink:href="#linearGradient3384"
       id="linearGradient4684"
       gradientUnits="userSpaceOnUse"
       gradientTransform="matrix(0.3452564,0.3452564,-0.3452564,0.3452564,52.458591,-4.5216519)"
       x1="25.398125"
       y1="63.345894"
       x2="90.625114"
       y2="63.345894" />
    <radialGradient
       inkscape:collect="always"
       xlink:href="#linearGradient3252"
       id="radialGradient4686"
       gradientUnits="userSpaceOnUse"
       gradientTransform="matrix(0.2740521,0,0,0.2740521,28.80419,13.981316)"
       cx="58.01162"
       cy="63.345894"
       fx="58.01162"
       fy="63.345894"
       r="33.113495" />
    <linearGradient
       inkscape:collect="always"
       xlink:href="#linearGradient3384"
       id="linearGradient4879"
       gradientUnits="userSpaceOnUse"
       gradientTransform="matrix(0.3452564,0.3452564,-0.3452564,0.3452564,52.458591,-4.5216519)"
       x1="25.398125"
       y1="63.345894"
       x2="90.625114"
       y2="63.345894" />
    <radialGradient
       inkscape:collect="always"
       xlink:href="#linearGradient3252"
       id="radialGradient4881"
       gradientUnits="userSpaceOnUse"
       gradientTransform="matrix(0.2740521,0,0,0.2740521,28.80419,13.981316)"
       cx="58.01162"
       cy="63.345894"
       fx="58.01162"
       fy="63.345894"
       r="33.113495" />
    <linearGradient
       inkscape:collect="always"
       xlink:href="#linearGradient3384"
       id="linearGradient4949"
       gradientUnits="userSpaceOnUse"
       gradientTransform="matrix(0.3452564,0.3452564,-0.3452564,0.3452564,52.458591,-4.5216519)"
       x1="25.398125"
       y1="63.345894"
       x2="90.625114"
       y2="63.345894" />
    <radialGradient
       inkscape:collect="always"
       xlink:href="#linearGradient3252"
       id="radialGradient4951"
       gradientUnits="userSpaceOnUse"
       gradientTransform="matrix(0.2740521,0,0,0.2740521,28.80419,13.981316)"
       cx="58.01162"
       cy="63.345894"
       fx="58.01162"
       fy="63.345894"
       r="33.113495" />
    <linearGradient
       inkscape:collect="always"
       xlink:href="#linearGradient3384"
       id="linearGradient4958"
       gradientUnits="userSpaceOnUse"
       gradientTransform="matrix(0.3452564,0.3452564,-0.3452564,0.3452564,52.458591,-4.5216519)"
       x1="25.398125"
       y1="63.345894"
       x2="90.625114"
       y2="63.345894" />
    <radialGradient
       inkscape:collect="always"
       xlink:href="#linearGradient3252"
       id="radialGradient4960"
       gradientUnits="userSpaceOnUse"
       gradientTransform="matrix(0.2740521,0,0,0.2740521,28.80419,13.981316)"
       cx="58.01162"
       cy="63.345894"
       fx="58.01162"
       fy="63.345894"
       r="33.113495" />
  </defs>
  <g
     style="fill:#e3e5e1;fill-opacity:1;stroke:none"
     id="g4694"
     transform="matrix(0.688562,0,0,0.688562,-4.763744,8.3746542)">
    <path
       d="M 66.37585,37.436982 C 66.37739,46.232692 59.24749,53.363841 50.451779,53.363841 C 41.656069,53.363841 34.526169,46.232692 34.527709,37.436982 C 34.526169,28.641272 41.656069,21.510123 50.451779,21.510123 C 59.24749,21.510123 66.37739,28.641272 66.37585,37.436982 L 66.37585,37.436982 z "
       style="fill:#e3e5e1;fill-opacity:1;fill-rule:evenodd;stroke:none;stroke-width:0.48826629px;stroke-linecap:butt;stroke-linejoin:miter;stroke-opacity:1"
       id="path4696" />
    <path
       d="M 61.876916,48.637824 C 55.658499,54.858419 45.574415,54.859302 39.354909,48.639796 C 33.135402,42.42029 33.136286,32.336206 39.356881,26.117789 C 45.575298,19.897193 55.659382,19.89631 61.878888,26.115816 C 68.098394,32.335323 68.097511,42.419407 61.876916,48.637824 L 61.876916,48.637824 z "
       style="opacity:0.71739131;fill:#e3e5e1;fill-opacity:1;fill-rule:evenodd;stroke:none;stroke-width:1px;stroke-linecap:butt;stroke-linejoin:miter;stroke-opacity:1"
       id="path4698" />
    <path
       d="M 53.640193,31.341391 C 53.641057,36.278211 49.639216,40.280753 44.702396,40.280753 C 39.765576,40.280753 35.763735,36.278211 35.764599,31.341391 C 35.763735,26.404571 39.765576,22.402029 44.702396,22.402029 C 49.639216,22.402029 53.641057,26.404571 53.640193,31.341391 L 53.640193,31.341391 z "
       style="fill:#e3e5e1;fill-opacity:1;fill-rule:evenodd;stroke:none;stroke-width:1px;stroke-linecap:butt;stroke-linejoin:miter;stroke-opacity:1"
       id="path4700" />
  </g>
  <g
     style="fill:#e3e5e1;fill-opacity:1;stroke:none"
     id="g4706"
     transform="matrix(0.688562,0,0,0.688562,44.573567,34.036408)">
    <path
       d="M 66.37585,37.436982 C 66.37739,46.232692 59.24749,53.363841 50.451779,53.363841 C 41.656069,53.363841 34.526169,46.232692 34.527709,37.436982 C 34.526169,28.641272 41.656069,21.510123 50.451779,21.510123 C 59.24749,21.510123 66.37739,28.641272 66.37585,37.436982 L 66.37585,37.436982 z "
       style="fill:#e3e5e1;fill-opacity:1;fill-rule:evenodd;stroke:none;stroke-width:0.48826629px;stroke-linecap:butt;stroke-linejoin:miter;stroke-opacity:1"
       id="path4708" />
    <path
       d="M 61.876916,48.637824 C 55.658499,54.858419 45.574415,54.859302 39.354909,48.639796 C 33.135402,42.42029 33.136286,32.336206 39.356881,26.117789 C 45.575298,19.897193 55.659382,19.89631 61.878888,26.115816 C 68.098394,32.335323 68.097511,42.419407 61.876916,48.637824 L 61.876916,48.637824 z "
       style="opacity:0.71739131;fill:#e3e5e1;fill-opacity:1;fill-rule:evenodd;stroke:none;stroke-width:1px;stroke-linecap:butt;stroke-linejoin:miter;stroke-opacity:1"
       id="path4710" />
    <path
       d="M 53.640193,31.341391 C 53.641057,36.278211 49.639216,40.280753 44.702396,40.280753 C 39.765576,40.280753 35.763735,36.278211 35.764599,31.341391 C 35.763735,26.404571 39.765576,22.402029 44.702396,22.402029 C 49.639216,22.402029 53.641057,26.404571 53.640193,31.341391 L 53.640193,31.341391 z "
       style="fill:#e3e5e1;fill-opacity:1;fill-rule:evenodd;stroke:none;stroke-width:1px;stroke-linecap:butt;stroke-linejoin:miter;stroke-opacity:1"
       id="path4712" />
  </g>
  <g
     style="fill:#e3e5e1;fill-opacity:1;stroke:none"
     id="g4718"
     transform="matrix(0.688562,0,0,0.688562,7.7669712,54.566302)">
    <path
       d="M 66.37585,37.436982 C 66.37739,46.232692 59.24749,53.363841 50.451779,53.363841 C 41.656069,53.363841 34.526169,46.232692 34.527709,37.436982 C 34.526169,28.641272 41.656069,21.510123 50.451779,21.510123 C 59.24749,21.510123 66.37739,28.641272 66.37585,37.436982 L 66.37585,37.436982 z "
       style="fill:#e3e5e1;fill-opacity:1;fill-rule:evenodd;stroke:none;stroke-width:0.48826629px;stroke-linecap:butt;stroke-linejoin:miter;stroke-opacity:1"
       id="path4720" />
    <path
       d="M 61.876916,48.637824 C 55.658499,54.858419 45.574415,54.859302 39.354909,48.639796 C 33.135402,42.42029 33.136286,32.336206 39.356881,26.117789 C 45.575298,19.897193 55.659382,19.89631 61.878888,26.115816 C 68.098394,32.335323 68.097511,42.419407 61.876916,48.637824 L 61.876916,48.637824 z "
       style="opacity:0.71739131;fill:#e3e5e1;fill-opacity:1;fill-rule:evenodd;stroke:none;stroke-width:1px;stroke-linecap:butt;stroke-linejoin:miter;stroke-opacity:1"
       id="path4722" />
    <path
       d="M 53.640193,31.341391 C 53.641057,36.278211 49.639216,40.280753 44.702396,40.280753 C 39.765576,40.280753 35.763735,36.278211 35.764599,31.341391 C 35.763735,26.404571 39.765576,22.402029 44.702396,22.402029 C 49.639216,22.402029 53.641057,26.404571 53.640193,31.341391 L 53.640193,31.341391 z "
       style="fill:#e3e5e1;fill-opacity:1;fill-rule:evenodd;stroke:none;stroke-width:1px;stroke-linecap:butt;stroke-linejoin:miter;stroke-opacity:1"
       id="path4724" />
  </g>
  <g
     id="g3651"
     transform="matrix(0.688562,0,0,0.688562,-8.9406523,-2.1904593)">
    <path
       d="M 66.37585,37.436982 C 66.37739,46.232692 59.24749,53.363841 50.451779,53.363841 C 41.656069,53.363841 34.526169,46.232692 34.527709,37.436982 C 34.526169,28.641272 41.656069,21.510123 50.451779,21.510123 C 59.24749,21.510123 66.37739,28.641272 66.37585,37.436982 L 66.37585,37.436982 z "
       style="fill:#0000ff;fill-opacity:1;fill-rule:evenodd;stroke:#000000;stroke-width:0.48826629px;stroke-linecap:butt;stroke-linejoin:miter;stroke-opacity:1"
       id="path3474" />
    <path
       d="M 61.876916,48.637824 C 55.658499,54.858419 45.574415,54.859302 39.354909,48.639796 C 33.135402,42.42029 33.136286,32.336206 39.356881,26.117789 C 45.575298,19.897193 55.659382,19.89631 61.878888,26.115816 C 68.098394,32.335323 68.097511,42.419407 61.876916,48.637824 L 61.876916,48.637824 z "
       style="opacity:0.71739131;fill:url(#linearGradient4879);fill-opacity:1;fill-rule:evenodd;stroke:none;stroke-width:1px;stroke-linecap:butt;stroke-linejoin:miter;stroke-opacity:1"
       id="path3476" />
    <path
       d="M 53.640193,31.341391 C 53.641057,36.278211 49.639216,40.280753 44.702396,40.280753 C 39.765576,40.280753 35.763735,36.278211 35.764599,31.341391 C 35.763735,26.404571 39.765576,22.402029 44.702396,22.402029 C 49.639216,22.402029 53.641057,26.404571 53.640193,31.341391 L 53.640193,31.341391 z "
       style="fill:url(#radialGradient4881);fill-opacity:1;fill-rule:evenodd;stroke:none;stroke-width:1px;stroke-linecap:butt;stroke-linejoin:miter;stroke-opacity:1"
       id="path3478" />
  </g>
  <g
     id="g3656"
     transform="matrix(0.688562,0,0,0.688562,40.39666,23.471297)">
    <path
       d="M 66.37585,37.436982 C 66.37739,46.232692 59.24749,53.363841 50.451779,53.363841 C 41.656069,53.363841 34.526169,46.232692 34.527709,37.436982 C 34.526169,28.641272 41.656069,21.510123 50.451779,21.510123 C 59.24749,21.510123 66.37739,28.641272 66.37585,37.436982 L 66.37585,37.436982 z "
       style="fill:#0000ff;fill-opacity:1;fill-rule:evenodd;stroke:#000000;stroke-width:0.48826629px;stroke-linecap:butt;stroke-linejoin:miter;stroke-opacity:1"
       id="path3658" />
    <path
       d="M 61.876916,48.637824 C 55.658499,54.858419 45.574415,54.859302 39.354909,48.639796 C 33.135402,42.42029 33.136286,32.336206 39.356881,26.117789 C 45.575298,19.897193 55.659382,19.89631 61.878888,26.115816 C 68.098394,32.335323 68.097511,42.419407 61.876916,48.637824 L 61.876916,48.637824 z "
       style="opacity:0.71739131;fill:url(#linearGradient4958);fill-opacity:1;fill-rule:evenodd;stroke:none;stroke-width:1px;stroke-linecap:butt;stroke-linejoin:miter;stroke-opacity:1"
       id="path3660" />
    <path
       d="M 53.640193,31.341391 C 53.641057,36.278211 49.639216,40.280753 44.702396,40.280753 C 39.765576,40.280753 35.763735,36.278211 35.764599,31.341391 C 35.763735,26.404571 39.765576,22.402029 44.702396,22.402029 C 49.639216,22.402029 53.641057,26.404571 53.640193,31.341391 L 53.640193,31.341391 z "
       style="fill:url(#radialGradient4960);fill-opacity:1;fill-rule:evenodd;stroke:none;stroke-width:1px;stroke-linecap:butt;stroke-linejoin:miter;stroke-opacity:1"
       id="path3662" />
  </g>
  <g
     id="g3668"
     transform="matrix(0.688562,0,0,0.688562,3.5900603,44.001186)">
    <path
       d="M 66.37585,37.436982 C 66.37739,46.232692 59.24749,53.363841 50.451779,53.363841 C 41.656069,53.363841 34.526169,46.232692 34.527709,37.436982 C 34.526169,28.641272 41.656069,21.510123 50.451779,21.510123 C 59.24749,21.510123 66.37739,28.641272 66.37585,37.436982 L 66.37585,37.436982 z "
       style="fill:#0000ff;fill-opacity:1;fill-rule:evenodd;stroke:#000000;stroke-width:0.48826629px;stroke-linecap:butt;stroke-linejoin:miter;stroke-opacity:1"
       id="path3670" />
    <path
       d="M 61.876916,48.637824 C 55.658499,54.858419 45.574415,54.859302 39.354909,48.639796 C 33.135402,42.42029 33.136286,32.336206 39.356881,26.117789 C 45.575298,19.897193 55.659382,19.89631 61.878888,26.115816 C 68.098394,32.335323 68.097511,42.419407 61.876916,48.637824 L 61.876916,48.637824 z "
       style="opacity:0.71739131;fill:url(#linearGradient4949);fill-opacity:1;fill-rule:evenodd;stroke:none;stroke-width:1px;stroke-linecap:butt;stroke-linejoin:miter;stroke-opacity:1"
       id="path3672" />
    <path
       d="M 53.640193,31.341391 C 53.641057,36.278211 49.639216,40.280753 44.702396,40.280753 C 39.765576,40.280753 35.763735,36.278211 35.764599,31.341391 C 35.763735,26.404571 39.765576,22.402029 44.702396,22.402029 C 49.639216,22.402029 53.641057,26.404571 53.640193,31.341391 L 53.640193,31.341391 z "
       style="fill:url(#radialGradient4951);fill-opacity:1;fill-rule:evenodd;stroke:none;stroke-width:1px;stroke-linecap:butt;stroke-linejoin:miter;stroke-opacity:1"
       id="path3674" />
  </g>
</svg>
