<?xml version="1.0" encoding="UTF-8" standalone="no"?>
<!-- Created with Inkscape (http://www.inkscape.org/) -->
<svg
   xmlns:svg="http://www.w3.org/2000/svg"
   xmlns="http://www.w3.org/2000/svg"
   xmlns:xlink="http://www.w3.org/1999/xlink"
   version="1.0"
   width="100"
   height="100"
   id="svg2">
  <defs
     id="defs4">
    <radialGradient
       cx="-89.470657"
       cy="6.2001209"
       r="33.767956"
       fx="-89.470657"
       fy="6.2001209"
       id="radialGradient4617"
       xlink:href="#linearGradient3252"
       gradientUnits="userSpaceOnUse"
       gradientTransform="matrix(1,0,0,0.1880342,151.36789,55.8298)" />
    <linearGradient
       x1="25.398125"
       y1="63.345894"
       x2="90.625114"
       y2="63.345894"
       id="linearGradient3636"
       xlink:href="#linearGradient3384"
       gradientUnits="userSpaceOnUse" />
    <linearGradient
       id="linearGradient3613">
      <stop
         style="stop-color:#690000;stop-opacity:1"
         offset="0"
         id="stop3615" />
      <stop
         style="stop-color:#ff0000;stop-opacity:0"
         offset="1"
         id="stop3617" />
    </linearGradient>
    <linearGradient
       x1="40.687019"
       y1="39.968079"
       x2="73.02729"
       y2="39.968079"
       id="linearGradient3634"
       xlink:href="#linearGradient3613"
       gradientUnits="userSpaceOnUse"
       gradientTransform="translate(-54.38462,-11.019348)" />
    <linearGradient
       id="linearGradient3384">
      <stop
         style="stop-color:#ff0000;stop-opacity:1"
         offset="0"
         id="stop3386" />
      <stop
         style="stop-color:#000000;stop-opacity:1"
         offset="1"
         id="stop3388" />
    </linearGradient>
    <linearGradient
       id="linearGradient3252">
      <stop
         style="stop-color:#ffffff;stop-opacity:1"
         offset="0"
         id="stop3254" />
      <stop
         style="stop-color:#ff0000;stop-opacity:0"
         offset="1"
         id="stop3256" />
    </linearGradient>
    <linearGradient
       id="linearGradient3149">
      <stop
         style="stop-color:#aa4400;stop-opacity:1"
         offset="0"
         id="stop3151" />
      <stop
         style="stop-color:#aa4400;stop-opacity:0.64948452"
         offset="1"
         id="stop3153" />
    </linearGradient>
    <linearGradient
       id="linearGradient3186">
      <stop
         style="stop-color:#aaaaaa;stop-opacity:1"
         offset="0"
         id="stop3188" />
      <stop
         style="stop-color:#fffffd;stop-opacity:0.50196081"
         offset="1"
         id="stop3190" />
    </linearGradient>
    <radialGradient
       cx="58.01162"
       cy="63.345894"
       r="33.113495"
       fx="58.01162"
       fy="63.345894"
       id="radialGradient3260"
       xlink:href="#linearGradient3252"
       gradientUnits="userSpaceOnUse" />
    <linearGradient
       x1="25.398125"
       y1="63.345894"
       x2="90.625114"
       y2="63.345894"
       id="linearGradient3390"
       xlink:href="#linearGradient3384"
       gradientUnits="userSpaceOnUse" />
    <linearGradient
       x1="25.398125"
       y1="63.345894"
       x2="90.625114"
       y2="63.345894"
       id="linearGradient3459"
       xlink:href="#linearGradient3384"
       gradientUnits="userSpaceOnUse" />
    <radialGradient
       cx="58.01162"
       cy="63.345894"
       r="33.113495"
       fx="58.01162"
       fy="63.345894"
       id="radialGradient3461"
       xlink:href="#linearGradient3252"
       gradientUnits="userSpaceOnUse" />
    <linearGradient
       x1="25.398125"
       y1="63.345894"
       x2="90.625114"
       y2="63.345894"
       id="linearGradient3480"
       xlink:href="#linearGradient3384"
       gradientUnits="userSpaceOnUse" />
    <radialGradient
       cx="58.01162"
       cy="63.345894"
       r="33.113495"
       fx="58.01162"
       fy="63.345894"
       id="radialGradient3482"
       xlink:href="#linearGradient3252"
       gradientUnits="userSpaceOnUse" />
    <linearGradient
       x1="25.398125"
       y1="63.345894"
       x2="90.625114"
       y2="63.345894"
       id="linearGradient3490"
       xlink:href="#linearGradient3384"
       gradientUnits="userSpaceOnUse" />
    <radialGradient
       cx="58.01162"
       cy="63.345894"
       r="33.113495"
       fx="58.01162"
       fy="63.345894"
       id="radialGradient3492"
       xlink:href="#linearGradient3252"
       gradientUnits="userSpaceOnUse" />
    <radialGradient
       cx="58.01162"
       cy="63.345894"
       r="33.113495"
       fx="58.01162"
       fy="63.345894"
       id="radialGradient4834"
       xlink:href="#linearGradient3252"
       gradientUnits="userSpaceOnUse"
       gradientTransform="matrix(0.2740521,0,0,0.2740521,-2.417203,38.526646)" />
    <linearGradient
       x1="25.398125"
       y1="63.345894"
       x2="90.625114"
       y2="63.345894"
       id="linearGradient4837"
       xlink:href="#linearGradient3384"
       gradientUnits="userSpaceOnUse"
       gradientTransform="matrix(0.3452564,0.3452564,-0.3452564,0.3452564,21.237198,20.023678)" />
    <radialGradient
       cx="58.01162"
       cy="63.345894"
       r="33.113495"
       fx="58.01162"
       fy="63.345894"
       id="radialGradient4841"
       xlink:href="#linearGradient3252"
       gradientUnits="userSpaceOnUse"
       gradientTransform="matrix(0.5123554,0,0,0.5123554,5.8419104,-9.1495697)" />
    <linearGradient
       x1="25.398125"
       y1="63.345894"
       x2="90.625114"
       y2="63.345894"
       id="linearGradient4844"
       xlink:href="#linearGradient3384"
       gradientUnits="userSpaceOnUse"
       gradientTransform="matrix(0.6454758,0.6454758,-0.6454758,0.6454758,50.065106,-43.741883)" />
  </defs>
  <path
     d="M 44.21611,71.171856 C 44.21765,79.967566 37.08775,87.098715 28.292039,87.098715 C 19.496329,87.098715 12.366429,79.967566 12.367969,71.171856 C 12.366429,62.376146 19.496329,55.244997 28.292039,55.244997 C 37.08775,55.244997 44.21765,62.376146 44.21611,71.171856 L 44.21611,71.171856 z "
     style="fill:#e0deda;fill-opacity:1;fill-rule:evenodd;stroke:none;stroke-width:1px;stroke-linecap:butt;stroke-linejoin:miter;stroke-opacity:1"
     id="path3472" />
  <path
     d="M 93.025453,51.882446 C 93.028332,68.32651 79.698592,81.658585 63.254527,81.658585 C 46.810463,81.658585 33.480723,68.32651 33.483602,51.882446 C 33.480723,35.438382 46.810463,22.106307 63.254527,22.106307 C 79.698592,22.106307 93.028332,35.438382 93.025453,51.882446 L 93.025453,51.882446 z "
     style="fill:#e0deda;fill-opacity:1;fill-rule:evenodd;stroke:none;stroke-width:1px;stroke-linecap:butt;stroke-linejoin:miter;stroke-opacity:1"
     id="path3289" />
  <path
     d="M 76.084191,34.702089 C 76.08707,51.146153 62.75733,64.478228 46.313265,64.478228 C 29.869201,64.478228 16.539462,51.146153 16.542341,34.702089 C 16.539462,18.258025 29.869201,4.9259505 46.313265,4.9259505 C 62.75733,4.9259505 76.08707,18.258025 76.084191,34.702089 L 76.084191,34.702089 z "
     style="fill:#ff0000;fill-rule:evenodd;stroke:#000000;stroke-width:0.91284072px;stroke-linecap:butt;stroke-linejoin:miter;stroke-opacity:1"
     id="path2277" />
  <path
     d="M 67.673182,55.642677 C 56.04751,67.272421 37.194761,67.274072 25.567052,55.646363 C 13.939344,44.018655 13.940995,25.165906 25.570739,13.540234 C 37.196412,1.9104906 56.04916,1.9088386 67.676869,13.536547 C 79.304578,25.164256 79.302926,44.017004 67.673182,55.642677 L 67.673182,55.642677 z "
     style="opacity:0.71739131;fill:url(#linearGradient4844);fill-opacity:1;fill-rule:evenodd;stroke:none;stroke-width:1px;stroke-linecap:butt;stroke-linejoin:miter;stroke-opacity:1"
     id="path3262" />
  <path
     d="M 52.274178,23.30604 C 52.275794,32.535696 44.794133,40.018667 35.564477,40.018667 C 26.334822,40.018667 18.853162,32.535696 18.854777,23.30604 C 18.853162,14.076385 26.334822,6.5934145 35.564477,6.5934145 C 44.794133,6.5934145 52.275794,14.076385 52.274178,23.30604 L 52.274178,23.30604 z "
     style="fill:url(#radialGradient4841);fill-opacity:1;fill-rule:evenodd;stroke:none;stroke-width:1px;stroke-linecap:butt;stroke-linejoin:miter;stroke-opacity:1"
     id="path2279" />
  <path
     d="M 35.154457,61.982312 C 35.155997,70.778022 28.026097,77.909171 19.230386,77.909171 C 10.434676,77.909171 3.3047762,70.778022 3.3063162,61.982312 C 3.3047762,53.186602 10.434676,46.055453 19.230386,46.055453 C 28.026097,46.055453 35.155997,53.186602 35.154457,61.982312 L 35.154457,61.982312 z "
     style="fill:#ff0000;fill-rule:evenodd;stroke:#000000;stroke-width:0.48826629px;stroke-linecap:butt;stroke-linejoin:miter;stroke-opacity:1"
     id="path3474" />
  <path
     d="M 30.655523,73.183154 C 24.437106,79.403749 14.353022,79.404632 8.1335159,73.185126 C 1.9140098,66.96562 1.9148929,56.881536 8.135488,50.663119 C 14.353905,44.442523 24.437989,44.44164 30.657495,50.661146 C 36.877001,56.880653 36.876118,66.964737 30.655523,73.183154 L 30.655523,73.183154 z "
     style="opacity:0.71739131;fill:url(#linearGradient4837);fill-opacity:1;fill-rule:evenodd;stroke:none;stroke-width:1px;stroke-linecap:butt;stroke-linejoin:miter;stroke-opacity:1"
     id="path3476" />
  <path
     d="M 22.4188,55.886721 C 22.419664,60.823541 18.417823,64.826083 13.481003,64.826083 C 8.5441829,64.826083 4.5423421,60.823541 4.5432065,55.886721 C 4.5423421,50.949901 8.5441829,46.947359 13.481003,46.947359 C 18.417823,46.947359 22.419664,50.949901 22.4188,55.886721 L 22.4188,55.886721 z "
     style="fill:url(#radialGradient4834);fill-opacity:1;fill-rule:evenodd;stroke:none;stroke-width:1px;stroke-linecap:butt;stroke-linejoin:miter;stroke-opacity:1"
     id="path3478" />
  <g
     transform="matrix(0.7033359,0,0,0.7033359,26.069973,41.387016)"
     id="g4849">
    <path
       d="M 20.565051,46.099491 C 15.325431,46.099491 11.096301,53.246906 11.096301,62.036991 C 11.096301,70.827078 15.325431,77.974491 20.565051,77.974491 C 20.779991,77.974491 21.009911,77.935622 21.221301,77.911991 L 90.502551,77.911991 C 92.93226,77.911989 95.275065,76.082251 97.127554,72.974491 C 100.83253,66.75896 100.83253,56.658769 97.127554,50.443241 C 95.275066,47.335476 92.932261,46.099491 90.502551,46.099491 C 89.873539,46.09949 89.292278,46.071591 88.565051,46.099491 L 21.033801,46.099491 L 21.033801,46.130741 C 20.882451,46.118693 20.718171,46.099491 20.565051,46.099491 z "
       style="fill:#d8dad8;fill-opacity:1;fill-rule:evenodd;stroke:none;stroke-width:0.5;stroke-linecap:round;stroke-linejoin:round;stroke-miterlimit:4;stroke-dasharray:none;stroke-dashoffset:2.63393869;stroke-opacity:1"
       id="path4632" />
    <g
       transform="translate(-4.0816327,-2.0408163)"
       id="g4619">
      <g
         transform="matrix(0,1,-1,0,84.157958,45.676714)"
         id="g3627">
        <path
           d="M 18.392668,-1.0573579 C 18.392668,-3.4870679 16.559248,-5.8562949 13.451488,-7.7087809 C 7.2359579,-11.413753 -2.8642332,-11.413753 -9.0797613,-7.7087809 C -12.187526,-5.8562949 -13.447396,-3.4870679 -13.447396,-1.0573579 C -13.447396,-0.4283469 -13.451411,0.1264921 -13.423511,0.85371905 L -13.423511,68.384972 L 18.388988,68.384972 L 18.392668,-1.0573579 z "
           style="opacity:1;fill:#ff0000;fill-opacity:1;fill-rule:evenodd;stroke:#000000;stroke-width:0.5;stroke-linecap:round;stroke-linejoin:round;stroke-miterlimit:4;stroke-dasharray:none;stroke-dashoffset:2.63393869;stroke-opacity:1"
           id="path3579" />
        <path
           d="M 18.392671,-1.0573583 C 18.392671,-3.4870683 16.559251,-5.8562953 13.451491,-7.7087812 C 7.2359596,-11.413753 -2.8642304,-11.413753 -9.0797593,-7.7087812 C -12.187529,-5.8562953 -13.447399,-3.4870683 -13.447399,-1.0573583 C -13.447399,-0.42834674 -13.451409,0.12649226 -13.423509,0.85371926 L -13.423509,68.38497 L 18.388991,68.38497 L 18.392671,-1.0573583 z "
           style="opacity:1;fill:url(#linearGradient3634);fill-opacity:1;fill-rule:evenodd;stroke:none;stroke-width:0.5;stroke-linecap:round;stroke-linejoin:round;stroke-miterlimit:4;stroke-dasharray:none;stroke-dashoffset:2.63393869;stroke-opacity:1"
           id="path3591" />
        <g
           transform="translate(14.142136,-1.4430751)"
           id="g3621">
          <path
             d="M 90.625114 63.345894 A 32.613495 32.613495 0 1 1  25.398125,63.345894 A 32.613495 32.613495 0 1 1  90.625114 63.345894 z"
             transform="matrix(0,-0.2910472,0.4882663,0,-42.57093,87.178008)"
             style="fill:#ff0000;fill-rule:evenodd;stroke:#000000;stroke-width:1px;stroke-linecap:butt;stroke-linejoin:miter;stroke-opacity:1"
             id="path4873" />
          <path
             d="M 90.625114 63.345894 A 32.613495 32.613495 0 1 1  25.398125,63.345894 A 32.613495 32.613495 0 1 1  90.625114 63.345894 z"
             transform="matrix(0.3452564,-0.2058015,0.3452564,0.2058015,-53.442293,69.13691)"
             style="opacity:0.71739131;fill:url(#linearGradient3636);fill-opacity:1;fill-rule:evenodd;stroke:#000000;stroke-width:1px;stroke-linecap:butt;stroke-linejoin:miter;stroke-opacity:1"
             id="path4875" />
        </g>
      </g>
      <rect
         width="67.535912"
         height="12.69906"
         x="28.129282"
         y="50.646103"
         style="opacity:1;fill:url(#radialGradient4617);fill-opacity:1;fill-rule:evenodd;stroke:none;stroke-width:0.50199997;stroke-linecap:round;stroke-linejoin:round;stroke-miterlimit:4;stroke-dasharray:none;stroke-dashoffset:2.63393869;stroke-opacity:1"
         id="rect3640" />
    </g>
  </g>
</svg>
