<?xml version="1.0" encoding="UTF-8" standalone="no"?>
<!-- Created with Inkscape (http://www.inkscape.org/) -->
<svg
   xmlns:svg="http://www.w3.org/2000/svg"
   xmlns="http://www.w3.org/2000/svg"
   version="1.0"
   width="100"
   height="100"
   id="svg2">
  <defs
     id="defs4" />
  <g
     transform="translate(3.5621831,0.1532748)"
     id="g3117">
    <g
       transform="matrix(1.6561984,0,0,1.558181,-26.087201,-18.999174)"
       id="g2222"
       style="fill:#282828;fill-opacity:1">
      <path
         d="M 18.48245,76.173836 C 28.750053,59.008499 37.561029,40.501038 52.045447,26.345519 C 56.907363,21.574658 66.500275,16.602181 68.476793,14.306386 C 69.395743,13.238993 69.953497,18.355761 66.72841,17.998056 C 62.380718,21.775209 59.22864,26.731119 54.727673,30.353225 C 43.582066,41.395155 36.018982,55.454188 30.113,69.844498 C 28.785513,73.202704 24.998844,73.81405 21.99056,74.848317 C 20.802165,75.236668 19.61882,75.649559 18.48245,76.173836 L 18.48245,76.173836 z"
         id="path2224"
         style="fill:#282828;fill-opacity:1;fill-rule:evenodd;stroke:none" />
      <path
         d="M 26.043592,14.383832 C 38.436485,16.889832 48.366606,25.59638 55.937949,35.265024 C 62.764473,42.904404 68.329753,52.307507 71.828855,61.737511 C 71.589676,72.866367 56.700653,71.981932 56.969096,60.998788 C 52.254723,44.377654 38.65891,32.065429 23.974756,24.019933 C 18.157071,23.582576 15.019119,19.057891 22.177016,16.869152 C 23.475414,16.055998 24.800321,15.281865 26.043592,14.383832 L 26.043592,14.383832 z"
         id="path2226"
         style="fill:#282828;fill-opacity:1;fill-rule:evenodd;stroke:none" />
    </g>
    <g
       transform="matrix(1.6561984,0,0,1.558181,-29.877963,-22.063248)"
       id="g2218">
      <path
         d="M 18.48245,76.173836 C 28.750053,59.008499 37.561029,40.501038 52.045447,26.345519 C 56.907363,21.574658 66.500275,16.602181 68.476793,14.306386 C 69.395743,13.238993 69.953497,18.355761 66.72841,17.998056 C 62.380718,21.775209 59.22864,26.731119 54.727673,30.353225 C 43.582066,41.395155 36.018982,55.454188 30.113,69.844498 C 28.785513,73.202704 24.998844,73.81405 21.99056,74.848317 C 20.802165,75.236668 19.61882,75.649559 18.48245,76.173836 L 18.48245,76.173836 z"
         id="path3233"
         style="fill:#010101;fill-opacity:1;fill-rule:evenodd;stroke:none" />
      <path
         d="M 26.043592,14.383832 C 38.436485,16.889832 48.366606,25.59638 55.937949,35.265024 C 62.764473,42.904404 68.329753,52.307507 71.828855,61.737511 C 71.589676,72.866367 56.700653,71.981932 56.969096,60.998788 C 52.254723,44.377654 38.65891,32.065429 23.974756,24.019933 C 18.157071,23.582576 15.019119,19.057891 22.177016,16.869152 C 23.475414,16.055998 24.800321,15.281865 26.043592,14.383832 L 26.043592,14.383832 z"
         id="path3235"
         style="fill:#010101;fill-opacity:1;fill-rule:evenodd;stroke:none" />
    </g>
  </g>
</svg>
