<?xml version="1.0" encoding="UTF-8" standalone="no"?>
<!-- Created with Inkscape (http://www.inkscape.org/) -->
<svg
   xmlns:svg="http://www.w3.org/2000/svg"
   xmlns="http://www.w3.org/2000/svg"
   xmlns:xlink="http://www.w3.org/1999/xlink"
   version="1.0"
   width="100"
   height="100"
   id="svg2">
  <defs
     id="defs4">
    <radialGradient
       cx="-89.470657"
       cy="6.2001209"
       r="33.767956"
       fx="-89.470657"
       fy="6.2001209"
       id="radialGradient2608"
       xlink:href="#linearGradient3252"
       gradientUnits="userSpaceOnUse"
       gradientTransform="matrix(0.4655719,0,0,3.531171e-2,95.362987,-11.878067)" />
    <linearGradient
       x1="25.398125"
       y1="63.345894"
       x2="90.625114"
       y2="63.345894"
       id="linearGradient2606"
       xlink:href="#linearGradient3384"
       gradientUnits="userSpaceOnUse" />
    <linearGradient
       x1="40.687019"
       y1="39.968079"
       x2="73.02729"
       y2="39.968079"
       id="linearGradient2604"
       xlink:href="#linearGradient3613"
       gradientUnits="userSpaceOnUse"
       gradientTransform="matrix(0,-0.1877941,-0.1877941,0,69.337754,23.997868)" />
    <radialGradient
       cx="58.01162"
       cy="63.345894"
       r="33.113495"
       fx="58.01162"
       fy="63.345894"
       id="radialGradient2602"
       xlink:href="#linearGradient3252"
       gradientUnits="userSpaceOnUse"
       gradientTransform="matrix(0.2134373,0,0,0.2134373,19.805211,5.9610473)" />
    <linearGradient
       id="linearGradient3384">
      <stop
         id="stop3386"
         style="stop-color:#0000ff;stop-opacity:1"
         offset="0" />
      <stop
         id="stop3388"
         style="stop-color:#000000;stop-opacity:1"
         offset="1" />
    </linearGradient>
    <linearGradient
       x1="25.398125"
       y1="63.345894"
       x2="90.625114"
       y2="63.345894"
       id="linearGradient2600"
       xlink:href="#linearGradient3384"
       gradientUnits="userSpaceOnUse"
       gradientTransform="matrix(0.2688926,0.2688926,-0.2688926,0.2688926,38.227733,-8.4494346)" />
    <linearGradient
       id="linearGradient4249">
      <stop
         id="stop4251"
         style="stop-color:#ffffff;stop-opacity:1"
         offset="0" />
      <stop
         id="stop4253"
         style="stop-color:#000089;stop-opacity:0.99215686"
         offset="1" />
    </linearGradient>
    <linearGradient
       id="linearGradient3186">
      <stop
         id="stop3188"
         style="stop-color:#d9d9d9;stop-opacity:1"
         offset="0" />
      <stop
         id="stop3190"
         style="stop-color:#5c5c5c;stop-opacity:0.50196081"
         offset="1" />
    </linearGradient>
    <linearGradient
       id="linearGradient3613">
      <stop
         id="stop3615"
         style="stop-color:#aa0000;stop-opacity:1"
         offset="0" />
      <stop
         id="stop3617"
         style="stop-color:#bababa;stop-opacity:1"
         offset="1" />
    </linearGradient>
    <linearGradient
       id="linearGradient3252">
      <stop
         id="stop3254"
         style="stop-color:#ffffff;stop-opacity:1"
         offset="0" />
      <stop
         id="stop3256"
         style="stop-color:#bababa;stop-opacity:0"
         offset="1" />
    </linearGradient>
    <radialGradient
       cx="41.704872"
       cy="77.127258"
       r="13.920598"
       fx="41.704872"
       fy="77.127258"
       id="radialGradient3905"
       xlink:href="#linearGradient4249"
       gradientUnits="userSpaceOnUse"
       gradientTransform="matrix(-0.6426199,0.5504019,0.8173078,0.9558873,46.461125,-26.698126)" />
    <linearGradient
       x1="31.697084"
       y1="36.826233"
       x2="61.910172"
       y2="36.826233"
       id="linearGradient3908"
       xlink:href="#linearGradient3186"
       gradientUnits="userSpaceOnUse"
       gradientTransform="matrix(-0.6426199,0.5504019,0.5495525,0.6427325,67.112355,-2.5453536)" />
    <radialGradient
       cx="73.659416"
       cy="67.149292"
       r="12.988102"
       fx="73.659416"
       fy="67.149292"
       id="radialGradient3912"
       xlink:href="#linearGradient4249"
       gradientUnits="userSpaceOnUse"
       gradientTransform="matrix(-0.6426199,0.5504019,0.6797447,0.7949995,58.370041,-12.769979)" />
    <linearGradient
       x1="47.022163"
       y1="35.538288"
       x2="54.146122"
       y2="35.538288"
       id="linearGradient3915"
       xlink:href="#linearGradient3186"
       gradientUnits="userSpaceOnUse"
       gradientTransform="matrix(-0.6426199,0.5504019,0.5495525,0.6427325,67.112355,-2.5453536)" />
  </defs>
  <path
     d="M 72.556357,73.763014 L 39.498056,35.16537 C 38.425885,31.917855 38.397101,27.584411 39.868896,26.323824 L 71.232065,63.268379"
     id="path3175"
     style="fill:#282828;fill-opacity:1;stroke:none" />
  <path
     d="M 66.328434,75.584173 C 67.111937,77.174452 67.876236,79.243174 68.236125,81.179347 C 69.675681,88.924036 66.671239,95.989098 61.529782,96.949576 C 56.388328,97.910053 51.047215,92.404027 49.60766,84.659337 C 48.168104,76.91465 51.172546,69.849588 56.314,68.889111 C 57.599366,68.64899 58.897208,68.813031 60.143447,69.315161"
     id="path3177"
     style="fill:#282828;fill-opacity:1;stroke:none" />
  <path
     d="M 81.678046,71.571419 C 81.678046,80.41799 76.703178,87.589552 70.566368,87.589552 C 64.429558,87.589552 59.45469,80.41799 59.45469,71.571419 C 59.45469,62.724848 64.429558,55.553286 70.566368,55.553286 C 76.703178,55.553286 81.678046,62.724848 81.678046,71.571419 L 81.678046,71.571419 z"
     transform="matrix(0.5263044,-9.831918e-2,9.788908e-2,0.526635,14.835926,52.3947)"
     id="path3179"
     style="fill:#ffffff;fill-opacity:1;stroke:none" />
  <path
     d="M 66.4684,75.790228 L 57.555053,27.643702 C 55.94425,24.831414 53.091151,22.107512 51.51825,22.401346 L 60.433628,69.59139"
     id="path3181"
     style="fill:#282828;fill-opacity:1;stroke:none" />
  <path
     d="M 72.358163,73.299071 C 73.249708,75.226373 74.601179,77.495532 76.133343,79.287484 C 82.261999,86.45529 91.099686,88.963389 95.860324,84.885918 C 100.62096,80.808447 99.510685,71.681846 93.38203,64.514038 C 87.253373,57.346232 78.415686,54.838133 73.65505,58.915604 C 72.46489,59.934972 71.641662,61.269911 71.172048,62.810921"
     id="path3183"
     style="fill:#282828;fill-opacity:1;stroke:none" />
  <path
     d="M 81.678046,71.571419 C 81.678046,80.41799 76.703178,87.589552 70.566368,87.589552 C 64.429558,87.589552 59.45469,80.41799 59.45469,71.571419 C 59.45469,62.724848 64.429558,55.553286 70.566368,55.553286 C 76.703178,55.553286 81.678046,62.724848 81.678046,71.571419 L 81.678046,71.571419 z"
     transform="matrix(-0.487322,0.4173896,0.4167456,0.4874074,89.487968,7.7906462)"
     id="path3185"
     style="fill:#ffffff;fill-opacity:1;stroke:none" />
  <path
     d="M 52.602041,43.035713 C 52.602041,43.782425 51.996712,44.387754 51.25,44.387754 C 50.503288,44.387754 49.897959,43.782425 49.897959,43.035713 C 49.897959,42.289001 50.503288,41.683672 51.25,41.683672 C 51.996712,41.683672 52.602041,42.289001 52.602041,43.035713 L 52.602041,43.035713 z"
     transform="matrix(-0.6426198,0.5504019,0.5495525,0.6427325,69.19678,-1.3282839)"
     id="path3187"
     style="fill:#282828;fill-opacity:1;stroke:none" />
  <path
     d="M 70.496127,71.843533 L 37.437825,33.24589 C 36.365652,29.998376 36.33687,25.664933 37.808664,24.404345 L 69.171833,61.348899"
     id="rect3184"
     style="fill:url(#linearGradient3915);fill-opacity:1;stroke:#000000;stroke-width:0.59211367;stroke-miterlimit:4;stroke-dasharray:none;stroke-opacity:1" />
  <path
     d="M 58.076561,67.396903 L 64.254227,73.66815 C 65.03773,75.258429 65.821202,77.332292 66.181091,79.268464 C 67.620646,87.013153 64.606913,94.068395 59.465456,95.028873 C 54.323999,95.98935 48.998873,90.484964 47.559318,82.740276 C 46.119761,74.995591 49.109671,67.931225 54.251125,66.970746 C 55.53649,66.730625 56.830323,66.894766 58.076561,67.396903 z M 57.748569,73.035642 C 56.969607,72.739274 56.159269,72.650595 55.352227,72.801359 C 52.124062,73.404413 50.217436,77.656796 51.082972,82.313309 C 51.948508,86.969821 55.261485,90.259062 58.48965,89.656003 C 61.717814,89.052949 63.62444,84.800565 62.758904,80.144053 C 62.109752,76.651669 60.085454,73.924748 57.748569,73.035642 L 57.748569,73.035642 z"
     id="path3206"
     style="fill:url(#radialGradient3912);fill-opacity:1;stroke:#323232;stroke-width:0.57150638;stroke-miterlimit:4;stroke-dasharray:none;stroke-opacity:1" />
  <path
     d="M 64.408168,73.870747 L 55.494822,25.724224 C 53.884019,22.911935 51.03092,20.188033 49.45802,20.481868 L 58.373396,67.67191"
     id="path3359"
     style="fill:#ffffff;fill-opacity:1;stroke:#000000;stroke-width:0.59211367;stroke-miterlimit:4;stroke-dasharray:none;stroke-opacity:1" />
  <path
     d="M 82.294535,56.013816 C 85.444605,57.204665 88.652638,59.452291 91.333924,62.588206 C 97.46258,69.756013 98.569031,78.881625 93.808394,82.959097 C 89.047756,87.036568 80.194332,84.536878 74.065676,77.369072 C 72.533512,75.577121 71.181483,73.316188 70.289939,71.388885 L 69.119056,60.887352 C 69.588671,59.346341 70.401046,58.017551 71.591206,56.998181 C 74.269064,54.704605 78.244445,54.482725 82.294535,56.013816 L 82.294535,56.013816 z M 83.639501,61.992411 C 80.890293,60.749268 78.060298,60.792631 76.192135,62.392706 C 73.203075,64.952826 73.778365,70.535262 77.463234,74.844922 C 81.148103,79.154583 86.561685,80.583918 89.550745,78.023797 C 92.539805,75.463677 91.964514,69.881241 88.279646,65.571581 C 86.89782,63.955459 85.289026,62.738297 83.639501,61.992411 L 83.639501,61.992411 z"
     id="path3180"
     style="fill:url(#radialGradient3905);fill-opacity:1;stroke:#323232;stroke-width:0.57150638;stroke-miterlimit:4;stroke-dasharray:none;stroke-opacity:1" />
  <path
     d="M 52.602041,43.035713 C 52.602041,43.782425 51.996712,44.387754 51.25,44.387754 C 50.503288,44.387754 49.897959,43.782425 49.897959,43.035713 C 49.897959,42.289001 50.503288,41.683672 51.25,41.683672 C 51.996712,41.683672 52.602041,42.289001 52.602041,43.035713 L 52.602041,43.035713 z"
     transform="matrix(-0.6426199,0.5504019,0.5495525,0.6427325,67.136548,-3.2477618)"
     id="path5309"
     style="fill:#ffffff;fill-opacity:1;stroke:#003232;stroke-width:0.2;stroke-miterlimit:4;stroke-dasharray:none;stroke-opacity:1" />
  <path
     d="M 90.495624,17.938398 C 92.679814,24.757888 88.921422,32.056681 82.101549,34.239678 C 75.281677,36.422674 67.983542,32.663003 65.801739,25.842748 C 63.617549,19.023257 67.375942,11.724465 74.195814,9.5414681 C 81.015687,7.3584721 88.313821,11.118143 90.495624,17.938398 L 90.495624,17.938398 L 90.495624,17.938398 z"
     id="path3874"
     style="fill:#282828;fill-opacity:1;fill-rule:evenodd;stroke:none" />
  <path
     d="M 33.364064,35.515173 C 35.548254,42.334663 31.789862,49.633456 24.969989,51.816453 C 18.150117,53.999449 10.851981,50.239778 8.6701783,43.419523 C 6.4859883,36.600032 10.244381,29.30124 17.064254,27.118243 C 23.884127,24.935247 31.182261,28.694918 33.364064,35.515173 L 33.364064,35.515173 L 33.364064,35.515173 z"
     id="path2888"
     style="fill:#282828;fill-opacity:1;fill-rule:evenodd;stroke:none" />
  <g
     transform="matrix(0.9955618,-0.3186728,0.3186728,0.9955618,31.99264,6.9665621)"
     id="g3558">
    <path
       d="M 49.066773,24.22879 C 49.067973,31.079065 43.515064,36.632947 36.664788,36.632947 C 29.814513,36.632947 24.261604,31.079065 24.262803,24.22879 C 24.261603,17.378514 29.814513,11.824633 36.664788,11.824633 C 43.515064,11.824633 49.067972,17.378514 49.066773,24.22879 L 49.066773,24.22879 L 49.066773,24.22879 z"
       id="path3560"
       style="fill:#0000ff;fill-opacity:1;fill-rule:evenodd;stroke:#000000;stroke-width:0.38027155px;stroke-linecap:butt;stroke-linejoin:miter;stroke-opacity:1" />
    <path
       d="M 45.562914,32.95223 C 40.719885,37.796953 32.866199,37.797641 28.022324,32.95373 C 23.178446,28.109853 23.179135,20.256167 28.023824,15.41314 C 32.866852,10.568415 40.720538,10.567727 45.564415,15.41164 C 50.40829,20.255516 50.407602,28.109203 45.562915,32.952231 L 45.562915,32.952231 L 45.562914,32.95223 z"
       id="path3562"
       style="opacity:0.71739131;fill:url(#linearGradient2600);fill-opacity:1;fill-rule:evenodd;stroke:none" />
    <path
       d="M 39.147988,19.481422 C 39.148661,23.326315 36.031948,26.443576 32.187053,26.443576 C 28.342159,26.443576 25.225445,23.326315 25.226118,19.481422 C 25.225445,15.636527 28.342159,12.519268 32.187053,12.519268 C 36.031948,12.519268 39.148661,15.636527 39.147988,19.481422 L 39.147988,19.481422 z"
       id="path3564"
       style="fill:url(#radialGradient2602);fill-opacity:1;fill-rule:evenodd;stroke:none" />
  </g>
  <g
     transform="matrix(1.3964752,-0.4470026,0.4470026,1.3964752,-33.056361,33.89265)"
     id="g2569">
    <path
       d="M 67.466951,10.330722 C 67.923236,10.330722 68.368163,10.675028 68.716049,11.258647 C 69.41182,12.425887 69.41182,14.322643 68.716049,15.489883 C 68.368163,16.073502 67.923236,16.310099 67.466951,16.310099 C 67.348826,16.310099 67.244631,16.310853 67.108062,16.305599 L 37.283234,16.305599 L 37.283234,10.3314 L 67.466951,10.330708 L 67.466951,10.330722 z"
       id="path3579"
       style="fill:#ff0000;fill-opacity:1;fill-rule:evenodd;stroke:#000000;stroke-width:0.09389705;stroke-linecap:round;stroke-linejoin:round;stroke-miterlimit:4;stroke-dasharray:none;stroke-dashoffset:2.63393869;stroke-opacity:1" />
    <path
       d="M 67.466951,10.330722 C 67.923236,10.330722 68.368163,10.675027 68.716049,11.258646 C 69.41182,12.425886 69.41182,14.322643 68.716049,15.489882 C 68.368163,16.073503 67.923236,16.310099 67.466951,16.310099 C 67.348826,16.310099 67.24463,16.310852 67.108062,16.305599 L 37.308744,16.305599 L 37.308744,10.331399 L 67.466951,10.330708 L 67.466951,10.330722 z"
       id="path3591"
       style="fill:url(#linearGradient2604);fill-opacity:1;fill-rule:evenodd;stroke:none" />
    <g
       transform="matrix(0,-0.1877941,-0.1877941,0,50.396529,11.128947)"
       id="g3621">
      <path
         d="M 90.625114,63.345894 C 90.628268,81.36006 76.025786,95.9651 58.011619,95.9651 C 39.997453,95.9651 25.394971,81.36006 25.398125,63.345894 C 25.394925,45.331728 39.997453,30.726688 58.011619,30.726688 C 76.025786,30.726688 90.628268,45.331728 90.625114,63.345894 L 90.625114,63.345894 L 90.625114,63.345894 z"
         transform="matrix(0,-0.2910472,0.4882663,0,-42.57093,87.178008)"
         id="path2467"
         style="fill:#ff0000;fill-rule:evenodd;stroke:#000000;stroke-width:1px;stroke-linecap:butt;stroke-linejoin:miter;stroke-opacity:1" />
      <path
         d="M 90.625114,63.345894 C 90.628268,81.36006 76.025786,95.9651 58.011619,95.9651 C 39.997453,95.9651 25.394971,81.36006 25.398125,63.345894 C 25.394925,45.331728 39.997453,30.726688 58.011619,30.726688 C 76.025786,30.726688 90.628268,45.331728 90.625114,63.345894 L 90.625114,63.345894 L 90.625114,63.345894 z"
         transform="matrix(0.3452564,-0.2058015,0.3452564,0.2058015,-53.442293,69.13691)"
         id="path2469"
         style="opacity:0.71739131;fill:url(#linearGradient2606);fill-opacity:1;fill-rule:evenodd;stroke:#000000;stroke-width:1px;stroke-linecap:butt;stroke-linejoin:miter;stroke-opacity:1" />
    </g>
    <rect
       width="31.442822"
       height="2.3848085"
       x="37.986553"
       y="-12.851535"
       transform="scale(1,-1)"
       id="rect3640"
       style="fill:url(#radialGradient2608);fill-opacity:1;fill-rule:evenodd;stroke:none" />
  </g>
  <use
     transform="translate(-57.172805,17.963077)"
     id="use2762"
     x="0"
     y="0"
     width="100"
     height="100"
     xlink:href="#g3558" />
  <path
     d="M 64.408168,73.870747 L 55.494822,25.724223 C 53.884019,22.911935 51.03092,20.188033 49.45802,20.481868 L 58.373396,67.67191"
     id="path3210"
     style="fill:url(#linearGradient3908);fill-opacity:1;stroke:#000000;stroke-width:0.59211367;stroke-miterlimit:4;stroke-dasharray:none;stroke-opacity:1" />
</svg>
