<?xml version="1.0" encoding="UTF-8" standalone="no"?>
<!-- Created with Inkscape (http://www.inkscape.org/) -->
<svg
   xmlns:dc="http://purl.org/dc/elements/1.1/"
   xmlns:cc="http://creativecommons.org/ns#"
   xmlns:rdf="http://www.w3.org/1999/02/22-rdf-syntax-ns#"
   xmlns:svg="http://www.w3.org/2000/svg"
   xmlns="http://www.w3.org/2000/svg"
   xmlns:xlink="http://www.w3.org/1999/xlink"
   xmlns:sodipodi="http://sodipodi.sourceforge.net/DTD/sodipodi-0.dtd"
   xmlns:inkscape="http://www.inkscape.org/namespaces/inkscape"
   version="1.0"
   width="100"
   height="100"
   id="svg2"
   sodipodi:version="0.32"
   inkscape:version="0.46"
   sodipodi:docname="edit_redo.svg"
   sodipodi:docbase="/home/tris/src/aten/src/gui/icons"
   inkscape:output_extension="org.inkscape.output.svg.inkscape">
  <metadata
     id="metadata2566">
    <rdf:RDF>
      <cc:Work
         rdf:about="">
        <dc:format>image/svg+xml</dc:format>
        <dc:type
           rdf:resource="http://purl.org/dc/dcmitype/StillImage" />
      </cc:Work>
    </rdf:RDF>
  </metadata>
  <sodipodi:namedview
     inkscape:window-height="1138"
     inkscape:window-width="1600"
     inkscape:pageshadow="2"
     inkscape:pageopacity="0.0"
     guidetolerance="10.0"
     gridtolerance="10.0"
     objecttolerance="10.0"
     borderopacity="1.0"
     bordercolor="#666666"
     pagecolor="#ffffff"
     id="base"
     inkscape:zoom="4.89"
     inkscape:cx="35.613393"
     inkscape:cy="53.055869"
     inkscape:window-x="0"
     inkscape:window-y="0"
     inkscape:current-layer="svg2"
     showgrid="false" />
  <defs
     id="defs4">
    <inkscape:perspective
       sodipodi:type="inkscape:persp3d"
       inkscape:vp_x="0 : 50 : 1"
       inkscape:vp_y="0 : 1000 : 0"
       inkscape:vp_z="100 : 50 : 1"
       inkscape:persp3d-origin="50 : 33.333333 : 1"
       id="perspective17" />
    <linearGradient
       id="linearGradient3197">
      <stop
         style="stop-color:#e4e1e1;stop-opacity:1;"
         offset="0"
         id="stop3199" />
      <stop
         style="stop-color:#00af00;stop-opacity:1;"
         offset="1"
         id="stop3201" />
    </linearGradient>
    <linearGradient
       inkscape:collect="always"
       id="linearGradient3189">
      <stop
         style="stop-color:#000000;stop-opacity:1;"
         offset="0"
         id="stop3191" />
      <stop
         style="stop-color:#000000;stop-opacity:0;"
         offset="1"
         id="stop3193" />
    </linearGradient>
    <radialGradient
       inkscape:collect="always"
       xlink:href="#linearGradient3189"
       id="radialGradient3195"
       cx="50.059151"
       cy="48.853989"
       fx="50.059151"
       fy="48.853989"
       r="42.138133"
       gradientTransform="matrix(-0.9573786,0,0,1.0730688,98.249523,-3.7722635)"
       gradientUnits="userSpaceOnUse" />
    <radialGradient
       inkscape:collect="always"
       xlink:href="#linearGradient3197"
       id="radialGradient3203"
       cx="50.059151"
       cy="48.853989"
       fx="50.059151"
       fy="48.853989"
       r="42.138133"
       gradientTransform="matrix(-0.9573786,0,0,1.0730688,98.249523,-3.7722635)"
       gradientUnits="userSpaceOnUse" />
  </defs>
  <path
     style="fill:#282828;fill-opacity:1;fill-rule:evenodd;stroke:none;stroke-width:3.69739628;stroke-linecap:round;stroke-linejoin:round;stroke-miterlimit:4;stroke-dasharray:none;stroke-dashoffset:0;stroke-opacity:1"
     d="M 54.805728,19.037484 L 56.150928,9.2875434 L 29.865658,23.453219 L 56.150928,37.618894 L 54.805728,28.151559 C 71.417418,28.151559 84.90337,41.637515 84.90337,58.249203 C 84.90337,74.860893 71.417408,88.34685 54.805728,88.34685 C 38.194038,88.34685 24.708068,74.860895 24.708078,58.249203 L 15.594008,58.249203 C 15.593998,79.892621 33.162298,97.46091 54.805728,97.46091 C 76.449138,97.46091 94.017446,79.892623 94.017446,58.249203 C 94.017446,36.605781 76.449148,19.037484 54.805728,19.037484 z"
     id="path3211"
     sodipodi:nodetypes="cccccssccssc" />
  <path
     style="fill:none;fill-opacity:1;fill-rule:evenodd;stroke:#000000;stroke-width:5;stroke-linecap:round;stroke-linejoin:round;stroke-miterlimit:4;stroke-dasharray:none;stroke-dashoffset:0;stroke-opacity:1"
     d="M 50.32396,14.314682 L 51.66916,4.5647407 L 25.383897,18.730417 L 51.66916,32.896092 L 50.32396,23.428757 C 66.935649,23.428757 80.421604,36.914713 80.421604,53.526401 C 80.421604,70.138091 66.935647,83.624043 50.32396,83.624045 C 33.712268,83.624045 20.226307,70.138093 20.226317,53.526401 L 11.112244,53.526401 C 11.112235,75.169819 28.680535,92.738121 50.32396,92.738121 C 71.967376,92.738122 89.53568,75.169821 89.53568,53.526401 C 89.53568,31.882979 71.967379,14.314682 50.32396,14.314682 z"
     id="path3205"
     sodipodi:nodetypes="cccccssccssc" />
  <path
     style="fill:url(#radialGradient3203);fill-opacity:1;fill-rule:evenodd;stroke:url(#radialGradient3195);stroke-width:2.26085615;stroke-linecap:round;stroke-linejoin:round;stroke-miterlimit:4;stroke-dashoffset:0;stroke-opacity:1"
     d="M 50.323962,14.314682 L 51.669162,4.5647407 L 25.383895,18.730417 L 51.669162,32.896092 L 50.323962,23.428758 C 66.935651,23.428758 80.421606,36.914713 80.421606,53.526401 C 80.421606,70.138091 66.935649,83.624043 50.323962,83.624045 C 33.712273,83.624045 20.226313,70.138093 20.226318,53.526401 L 11.112243,53.526401 C 11.112242,75.169819 28.680541,92.738121 50.323962,92.738121 C 71.967378,92.738122 89.535681,75.169821 89.535681,53.526401 C 89.535681,31.882979 71.967381,14.314682 50.323962,14.314682 z"
     id="path3176"
     sodipodi:nodetypes="cccccssccssc" />
</svg>
