<?xml version="1.0" encoding="UTF-8" standalone="no"?>
<!-- Created with Inkscape (http://www.inkscape.org/) -->
<svg
   xmlns:dc="http://purl.org/dc/elements/1.1/"
   xmlns:cc="http://web.resource.org/cc/"
   xmlns:rdf="http://www.w3.org/1999/02/22-rdf-syntax-ns#"
   xmlns:svg="http://www.w3.org/2000/svg"
   xmlns="http://www.w3.org/2000/svg"
   xmlns:xlink="http://www.w3.org/1999/xlink"
   xmlns:sodipodi="http://sodipodi.sourceforge.net/DTD/sodipodi-0.dtd"
   xmlns:inkscape="http://www.inkscape.org/namespaces/inkscape"
   version="1.0"
   width="100"
   height="100"
   id="svg2"
   sodipodi:version="0.32"
   inkscape:version="0.45.1"
   sodipodi:docname="file_saveimage.svg"
   sodipodi:docbase="/home/tris/src/aten/src/gui/icons"
   inkscape:output_extension="org.inkscape.output.svg.inkscape">
  <metadata
     id="metadata2566">
    <rdf:RDF>
      <cc:Work
         rdf:about="">
        <dc:format>image/svg+xml</dc:format>
        <dc:type
           rdf:resource="http://purl.org/dc/dcmitype/StillImage" />
      </cc:Work>
    </rdf:RDF>
  </metadata>
  <sodipodi:namedview
     inkscape:window-height="829"
     inkscape:window-width="1440"
     inkscape:pageshadow="2"
     inkscape:pageopacity="0.0"
     guidetolerance="10.0"
     gridtolerance="10.0"
     objecttolerance="10.0"
     borderopacity="1.0"
     bordercolor="#666666"
     pagecolor="#ffffff"
     id="base"
     inkscape:zoom="3.1422838"
     inkscape:cx="108.74372"
     inkscape:cy="14.871815"
     inkscape:window-x="0"
     inkscape:window-y="26"
     inkscape:current-layer="svg2" />
  <defs
     id="defs4">
    <linearGradient
       id="linearGradient3348">
      <stop
         style="stop-color:#ffffff;stop-opacity:1;"
         offset="0"
         id="stop3350" />
      <stop
         style="stop-color:#d3cb83;stop-opacity:1;"
         offset="1"
         id="stop3352" />
    </linearGradient>
    <linearGradient
       id="linearGradient3152">
      <stop
         style="stop-color:#00ab17;stop-opacity:1;"
         offset="0"
         id="stop3154" />
      <stop
         style="stop-color:#c5c5c5;stop-opacity:1;"
         offset="1"
         id="stop3156" />
    </linearGradient>
    <linearGradient
       id="linearGradient5072">
      <stop
         style="stop-color:#862bff;stop-opacity:1;"
         offset="0"
         id="stop5074" />
      <stop
         style="stop-color:#9b50ff;stop-opacity:1;"
         offset="1"
         id="stop5076" />
    </linearGradient>
    <linearGradient
       id="linearGradient5064">
      <stop
         style="stop-color:#dadada;stop-opacity:1;"
         offset="0"
         id="stop5066" />
      <stop
         style="stop-color:#898989;stop-opacity:1;"
         offset="1"
         id="stop5068" />
    </linearGradient>
    <linearGradient
       inkscape:collect="always"
       xlink:href="#linearGradient3152"
       id="linearGradient3158"
       x1="-61.200825"
       y1="81.791328"
       x2="-61.200825"
       y2="65.228409"
       gradientUnits="userSpaceOnUse"
       gradientTransform="translate(122.85385,13.862886)" />
    <linearGradient
       inkscape:collect="always"
       xlink:href="#linearGradient5072"
       id="linearGradient2214"
       gradientUnits="userSpaceOnUse"
       gradientTransform="matrix(1.0189552,0,0,1.0189552,-12.844383,-10.63434)"
       x1="15.350921"
       y1="46.012269"
       x2="80.354601"
       y2="46.012269" />
    <linearGradient
       inkscape:collect="always"
       xlink:href="#linearGradient5064"
       id="linearGradient2216"
       gradientUnits="userSpaceOnUse"
       gradientTransform="matrix(1.0189552,0,0,1.0189552,-12.844383,-10.63434)"
       x1="32.942781"
       y1="25.952554"
       x2="66.236531"
       y2="25.952554" />
    <linearGradient
       inkscape:collect="always"
       xlink:href="#linearGradient3348"
       id="linearGradient2228"
       gradientUnits="userSpaceOnUse"
       x1="25.180519"
       y1="76.173811"
       x2="97.826416"
       y2="76.173811"
       gradientTransform="matrix(1.2085256,0,0,1.6947582,-28.896163,-91.111165)" />
  </defs>
  <rect
     style="fill:#282828;fill-opacity:1;fill-rule:evenodd;stroke:#282828;stroke-width:2.85827708;stroke-miterlimit:4;stroke-dasharray:none;stroke-dashoffset:0;stroke-opacity:1"
     id="rect3391"
     width="84.744896"
     height="69.63829"
     x="4.8162603"
     y="5.8788314"
     ry="2.471699" />
  <rect
     style="fill:url(#linearGradient2228);fill-opacity:1;fill-rule:evenodd;stroke:#000000;stroke-width:2;stroke-miterlimit:4;stroke-dasharray:none;stroke-dashoffset:0;stroke-opacity:1"
     id="rect2173"
     width="85.377373"
     height="69.316048"
     x="2.743664"
     y="3.3270023"
     ry="2.4602616" />
  <g
     id="g3356"
     transform="matrix(0.5472161,0,0,0.5472161,95.095775,13.436867)">
    <path
       style="fill:#d0d0d0;fill-opacity:1"
       d="M -70.749085,87.179253 C -73.184498,85.129988 -73.82581,83.80324 -73.82581,80.814112 C -73.82581,76.433447 -71.013688,72.283101 -67.43732,71.38549 C -65.70059,70.949598 -64.60299,69.562448 -63.55035,66.473109 C -62.19437,62.493543 -62.22493,61.993473 -63.95465,59.857359 C -64.98379,58.58643 -65.83138,56.133932 -65.838189,54.407363 C -65.848065,51.902728 -66.585426,50.791893 -69.485848,48.912161 C -72.67045,46.848255 -73.021945,46.786268 -72.321086,48.412161 C -68.593744,57.05907 -73.399445,66.659529 -82.290067,68.327419 C -95.453672,70.796927 -104.10277,53.953128 -94.367418,44.807236 C -92.385483,42.945305 -92.146051,42.159401 -92.993849,40.298688 C -93.883064,38.347072 -95.032617,37.959606 -101.5741,37.406649 C -112.06544,36.519806 -113.82581,36.596354 -113.82581,37.939406 C -113.82581,38.583599 -113.15615,39.850627 -112.33769,40.755024 C -111.51922,41.65942 -110.56657,43.814325 -110.2207,45.5437 C -109.69637,48.165328 -110.0972,49.193379 -112.6319,51.728083 C -116.72981,55.825992 -120.92395,55.823851 -125.02605,51.721756 C -127.53895,49.208857 -127.97949,48.102565 -127.54165,45.404518 C -126.75693,40.568822 -129.17895,39.413116 -134.89798,41.894339 C -138.73971,43.561087 -139.52436,44.439037 -140.82581,48.527008 C -143.39117,56.585054 -152.23551,60.193244 -159.81477,56.273858 C -168.55763,51.752749 -167.61577,40.085295 -158.19003,36.146967 C -153.75806,34.295171 -150.95067,34.410257 -146.61337,36.62154 C -143.06168,38.432297 -142.87529,38.430449 -138.51086,36.541207 C -134.92702,34.989859 -133.92022,33.990215 -133.41936,31.485889 C -133.07598,29.769013 -131.86739,27.376856 -130.73359,26.169985 C -129.01443,24.340018 -128.7848,23.224416 -129.35064,19.45112 C -129.91542,15.684935 -130.52062,14.722989 -132.96137,13.711996 C -139.93603,10.822996 -142.20047,2.051899 -137.24978,-2.8987905 C -135.01172,-5.136856 -134.06481,-5.4061817 -130.03222,-4.9516511 C -121.16811,-3.9525369 -116.78277,5.118872 -122.14835,11.356733 C -124.22581,13.771926 -124.35952,14.474095 -123.41547,18.010979 C -122.59039,21.10217 -121.5292,22.388982 -118.55294,23.907357 C -116.45902,24.975592 -114.24158,26.956276 -113.6253,28.308875 C -112.55242,30.663585 -112.11096,30.768147 -103.24222,30.768147 C -94.275602,30.768147 -93.88342,30.671911 -90.967637,27.756128 C -89.311026,26.099517 -86.677159,24.488417 -85.114599,24.175905 C -82.709663,23.694918 -81.932829,22.67209 -80.053626,17.512321 C -78.082235,12.099428 -77.999785,11.233389 -79.317246,9.77761 C -85.667627,2.760518 -81.49034,-8.7272064 -72.174103,-9.8663477 C -64.1587,-10.846429 -57.42565,-2.848522 -59.74608,4.896376 C -61.04153,9.220193 -65.944674,13.768147 -69.310731,13.768147 C -71.275945,13.768147 -71.969923,14.738583 -73.728371,19.945633 C -75.666669,25.685249 -75.698282,26.251583 -74.174356,27.935502 C -73.272255,28.932313 -72.316493,32.013313 -72.050441,34.78217 C -71.655379,38.893652 -71.040546,40.191116 -68.69626,41.860395 L -65.82581,43.904335 L -65.82581,40.836241 C -65.82581,31.833726 -52.50095,31.245677 -50.26621,40.14957 C -49.93046,41.487333 -50.12953,43.467139 -50.7086,44.549139 C -51.54281,46.107868 -51.35279,46.886245 -49.79363,48.297268 C -48.71133,49.276738 -47.82581,50.64173 -47.82581,51.330585 C -47.82581,52.143984 -45.86269,52.703132 -42.22587,52.925597 C -37.7008,53.202397 -36.44748,52.934233 -35.69622,51.528497 C -34.55463,49.392365 -29.66468,46.768147 -26.82581,46.768147 C -23.43793,46.768147 -18.97691,49.575263 -17.34274,52.735414 C -15.03442,57.199215 -15.45921,60.55539 -18.74889,63.84507 C -23.81373,68.909916 -32.43714,67.475517 -35.74395,61.018147 C -36.7193,59.113535 -37.7083,58.768147 -42.18668,58.768147 C -46.53691,58.768147 -47.8946,59.212466 -49.82581,61.268147 C -51.11756,62.643147 -52.9409,63.768147 -53.87768,63.768147 C -55.96327,63.768147 -57.19851,65.266042 -58.63549,69.537638 C -59.56512,72.301075 -59.41969,73.342149 -57.69589,76.263775 C -55.1769,80.533151 -55.87233,84.872978 -59.53745,87.755961 C -63.01753,90.493397 -67.057414,90.285587 -70.749085,87.179253 z M -59.82581,79.268147 C -59.82581,78.443147 -60.50081,77.768147 -61.32581,77.768147 C -62.15081,77.768147 -62.82581,78.443147 -62.82581,79.268147 C -62.82581,80.093147 -62.15081,80.768147 -61.32581,80.768147 C -60.50081,80.768147 -59.82581,80.093147 -59.82581,79.268147 z M -18.82581,54.268147 C -18.82581,53.443147 -19.24925,52.768147 -19.76679,52.768147 C -21.02777,52.768147 -21.93089,54.329736 -21.13196,55.128667 C -20.00577,56.254851 -18.82581,55.814557 -18.82581,54.268147 z M -77.82581,50.736762 C -77.82581,48.378171 -80.470357,47.012694 -82.02581,48.568147 C -83.581263,50.1236 -82.215786,52.768147 -79.857195,52.768147 C -78.482015,52.768147 -77.82581,52.111942 -77.82581,50.736762 z M -152.01397,42.506663 C -151.78287,41.306663 -152.32139,40.768147 -153.75249,40.768147 C -155.18358,40.768147 -155.82581,41.410372 -155.82581,42.841471 C -155.82581,45.404114 -152.51598,45.1134 -152.01397,42.506663 z M -52.82581,38.934814 C -52.82581,37.63274 -54.01458,36.766781 -54.9816,37.364432 C -56.01582,38.003614 -55.12405,39.768147 -53.76679,39.768147 C -53.24925,39.768147 -52.82581,39.393147 -52.82581,38.934814 z M -126.65736,13.536597 C -127.39943,12.794529 -127.52957,13.184961 -127.0946,14.848306 C -126.74099,16.20051 -126.28769,16.653803 -126.03805,15.904857 C -125.79757,15.183416 -126.07626,14.117699 -126.65736,13.536597 z M -127.82581,-0.731853 C -127.82581,-1.556853 -128.50081,-2.231853 -129.32581,-2.231853 C -130.88738,-2.231853 -131.30978,-1.0491534 -130.15914,0.10148 C -129.00851,1.252114 -127.82581,0.829721 -127.82581,-0.731853 z M -63.82581,-4.1094083 C -63.82581,-4.5920637 -64.46075,-5.5139149 -65.23678,-6.1579666 C -66.803862,-7.4585271 -68.406668,-5.9807173 -67.32581,-4.231853 C -66.564254,-2.9996297 -63.82581,-2.9038274 -63.82581,-4.1094083 z "
       id="path3372" />
    <path
       style="fill:#b9b9b9;fill-opacity:1"
       d="M -70.902733,86.84507 C -74.723015,83.024788 -74.918086,77.769514 -71.371265,74.222692 C -70.021265,72.872692 -68.038565,71.768147 -66.965267,71.768147 C -65.53886,71.768147 -64.59044,70.525605 -63.44023,67.149923 C -61.94588,62.764261 -61.96633,62.404967 -63.84622,60.015064 C -64.935,58.630915 -65.828885,56.096616 -65.832643,54.383288 C -65.838111,51.890329 -66.587092,50.779783 -69.582643,48.823005 C -71.641385,47.478176 -74.294271,45.528607 -75.477946,44.490629 C -76.661621,43.452651 -78.686621,42.752965 -79.977946,42.935772 C -82.084399,43.233972 -82.32581,43.782254 -82.32581,48.268147 L -82.32581,53.268147 L -77.858507,52.97556 C -75.40149,52.814637 -73.063198,52.152249 -72.662302,51.503585 C -71.46092,49.559708 -70.528149,53.36794 -71.255722,57.24624 C -72.619565,64.516144 -80.151258,69.680079 -87.405735,68.319131 C -89.371146,67.950417 -92.312223,66.215068 -94.241566,64.285725 C -99.967538,58.559753 -99.939842,50.666295 -94.172564,44.619877 C -92.103906,42.451094 -91.841054,41.60818 -92.720803,39.964354 C -93.633819,38.258368 -95.230715,37.849466 -103.36049,37.239952 C -113.8279,36.455179 -113.76636,36.429696 -117.38692,43.047447 C -118.90577,45.823626 -118.90434,45.825998 -116.11664,45.15956 C -114.58168,44.792606 -112.81827,44.094938 -112.19795,43.609184 C -110.65343,42.39972 -109.70536,46.321134 -110.82825,49.274555 C -113.09212,55.228988 -120.27989,56.467908 -125.02605,51.721756 C -127.53895,49.208857 -127.97949,48.102565 -127.54165,45.404518 C -127.13408,42.892914 -127.45536,41.856082 -128.92574,40.937813 C -131.89613,39.082774 -140.29348,43.606801 -140.59279,47.223377 C -141.28634,55.603299 -151.66325,60.489169 -159.81477,56.273858 C -171.89407,50.027409 -164.11831,32.593634 -150.67088,35.772642 L -147.32581,36.563424 L -150.55276,36.665786 C -154.51939,36.79161 -157.8474,40.93425 -156.13876,43.619138 C -154.86586,45.619322 -147.11561,45.359265 -144.9215,43.242746 C -143.71752,42.081342 -143.76331,41.51248 -145.24251,39.254939 C -146.92847,36.681836 -146.92166,36.646482 -144.944,37.704891 C -143.35328,38.556219 -141.96449,38.323693 -138.45432,36.618319 C -134.90142,34.892186 -133.86648,33.798475 -133.39182,31.268321 C -133.06367,29.51915 -131.74324,27.09975 -130.45752,25.891878 C -128.31332,23.877508 -128.20557,23.321086 -129.15572,19.168949 C -130.00325,15.465239 -130.77097,14.400075 -133.37801,13.310783 C -138.78038,11.053528 -141.34533,4.891519 -139.20463,-0.6870507 C -138.5104,-2.4961801 -133.77658,-5.231853 -131.34029,-5.231853 C -130.03841,-5.231853 -129.95681,-4.8555968 -130.88327,-3.1244937 C -132.39997,-0.2905162 -131.13595,0.735131 -125.76712,1.026836 C -123.3244,1.159557 -120.9952,1.718147 -120.59112,2.268147 C -117.94937,5.863899 -122.0611,14.04239 -125.9936,13.014018 C -127.74831,12.55515 -128.03529,12.779855 -127.49448,14.189195 C -127.12671,15.147585 -126.82581,16.400018 -126.82581,16.972379 C -126.82581,17.602351 -126.23368,17.521609 -125.32537,16.767783 C -124.05752,15.715559 -123.7279,16.007698 -123.19896,18.652402 C -122.74851,20.904623 -121.51503,22.376875 -118.80013,23.902739 C -116.72505,25.068994 -114.4788,27.048025 -113.80845,28.300585 C -112.70176,30.368447 -111.74949,30.611104 -103.45772,30.93816 L -94.32581,31.298354 L -91.209342,28.034957 C -89.495285,26.240089 -86.757664,24.504518 -85.125739,24.178133 C -82.574653,23.667916 -81.857286,22.747259 -80.009694,17.612281 L -77.860784,11.639857 L -79.979661,8.773923 C -82.587512,5.246615 -82.77788,-1.1298653 -80.384393,-4.7827888 C -76.950339,-10.023817 -67.75297,-11.583553 -68.636683,-6.7750231 C -69.126488,-4.1098621 -66.880519,-2.231853 -63.20337,-2.231853 C -59.87568,-2.231853 -59.82581,-2.166539 -59.82581,2.191422 C -59.82581,7.745441 -63.38246,12.406746 -68.328203,13.334574 C -71.405018,13.911788 -71.891364,14.505957 -73.720513,19.922365 C -75.716338,25.832324 -75.716787,25.899021 -73.78214,29.071934 C -72.71027,30.829851 -71.831604,33.925005 -71.829548,35.950053 C -71.826556,38.897435 -71.227324,40.058118 -68.82581,41.768147 L -65.82581,43.904335 L -65.82581,41.010555 C -65.82581,37.427237 -62.16233,33.768147 -58.57472,33.768147 C -56.34729,33.768147 -55.90535,34.25743 -55.63917,37.018147 C -55.37275,39.78131 -54.9763,40.219169 -52.99256,39.941185 C -50.91247,39.649699 -50.68544,39.975193 -50.90007,42.941185 C -51.03424,44.79522 -50.31755,47.655929 -49.28125,49.402788 C -47.7025,52.064045 -46.65935,52.630825 -42.37374,53.155879 C -37.84541,53.710669 -37.11994,53.523178 -35.32581,51.334397 C -32.84645,48.309664 -28.45557,46.571984 -25.29578,47.365041 C -23.45956,47.825902 -22.70813,48.928786 -22.05834,52.116675 C -21.29249,55.873973 -20.94544,56.248766 -18.40315,56.064025 C -15.75385,55.871507 -15.62911,56.042057 -16.20892,59.064025 C -17.04844,63.43964 -21.05276,66.768147 -25.47728,66.768147 C -29.76368,66.768147 -34.27484,64.272812 -35.71916,61.102876 C -36.64071,59.080288 -37.49781,58.768147 -42.13006,58.768147 C -46.54069,58.768147 -47.88852,59.205996 -49.82581,61.268147 C -51.11756,62.643147 -52.9409,63.768147 -53.87768,63.768147 C -56.01515,63.768147 -57.21549,65.262001 -58.89968,70.018147 C -59.63003,72.080647 -60.81219,73.768147 -61.5267,73.768147 C -63.06323,73.768147 -63.34349,80.330169 -61.84648,81.255374 C -61.30784,81.588268 -59.95784,81.373993 -58.84648,80.779207 C -57.06156,79.823948 -56.82581,79.998859 -56.82581,82.278418 C -56.82581,83.697769 -57.93036,85.963602 -59.28036,87.313602 C -62.72093,90.754177 -67.173105,90.574697 -70.902733,86.84507 z M -137.73206,39.717974 C -134.89617,38.200252 -136.37823,36.607096 -139.36152,37.966372 C -141.86795,39.108376 -142.69645,40.768147 -140.76007,40.768147 C -140.17391,40.768147 -138.81131,40.295569 -137.73206,39.717974 z "
       id="path3370" />
    <path
       style="fill:#a3a3a3;fill-opacity:1"
       d="M -70.902733,86.84507 C -74.723015,83.024788 -74.918086,77.769514 -71.371265,74.222692 C -70.021265,72.872692 -68.038565,71.768147 -66.965267,71.768147 C -65.53886,71.768147 -64.59044,70.525605 -63.44023,67.149923 C -61.94588,62.764261 -61.96633,62.404967 -63.84622,60.015064 C -64.935,58.630915 -65.837781,56.096616 -65.852412,54.383288 C -65.875107,51.725659 -66.768052,50.635862 -71.932359,46.963 C -75.261699,44.59517 -79.07082,42.245293 -80.397073,41.741053 C -88.011941,38.845885 -88.640319,48.835894 -81.210931,54.679851 C -77.957944,57.238651 -73.297913,57.408072 -71.905909,55.018147 C -70.58892,52.757014 -70.57105,54.310733 -71.860643,58.953871 C -75.105448,70.636681 -91.939364,71.547674 -96.91055,60.309484 C -99.427578,54.619323 -98.706887,49.841231 -94.63149,45.19961 C -89.430904,39.276469 -93.624663,36.789952 -108.82581,36.783672 C -112.91487,36.781983 -113.55329,37.123636 -115.81688,40.52498 C -117.18697,42.583722 -118.66224,44.527597 -119.09526,44.844702 C -120.72316,46.036841 -114.78118,47.814628 -112.76866,46.737563 C -111.15771,45.875406 -110.82581,46.026525 -110.82581,47.622179 C -110.82581,51.340857 -114.26986,54.222692 -118.714,54.222692 C -124.23581,54.222692 -127.32926,51.191181 -127.19093,45.915487 C -127.0381,40.087202 -129.48562,39.055329 -135.83321,42.271897 C -140.18449,44.476856 -140.82581,45.19492 -140.82581,47.861916 C -140.82581,57.699063 -158.52287,61.233056 -163.8699,52.463677 C -167.4956,46.517349 -165.86077,40.388946 -159.81477,37.262436 C -156.10302,35.343019 -155.28254,35.367739 -157.25438,37.339576 C -161.58081,41.666008 -156.39893,47.768147 -148.39852,47.768147 C -145.75713,47.768147 -144.46798,47.151659 -143.26267,45.312123 C -142.37758,43.96131 -141.91783,42.428276 -142.24099,41.905382 C -142.56416,41.382487 -142.04045,41.159247 -141.07719,41.409292 C -140.11393,41.659337 -138.4428,41.216066 -137.36356,40.424246 C -135.74257,39.234956 -135.62129,38.719503 -136.66621,37.460458 C -137.71608,36.195442 -137.6081,35.833825 -136.03107,35.333294 C -134.9226,34.981478 -133.63864,33.08679 -132.94912,30.785376 C -132.29907,28.615698 -130.92037,26.247357 -129.88534,25.522396 C -128.20384,24.344626 -128.11996,23.695233 -129.09753,19.423218 C -130.0061,15.452766 -130.73184,14.416423 -133.37801,13.310783 C -140.10153,10.501518 -142.12055,2.226294 -137.18863,-2.307539 C -135.05605,-4.2679876 -134.45076,-4.4466845 -134.02517,-3.2414684 C -133.73571,-2.4217568 -132.21089,-0.4630923 -130.63668,1.11112 C -128.24762,3.500179 -127.11749,3.910669 -123.80014,3.594309 C -120.10621,3.242036 -119.82581,3.39548 -119.82581,5.769215 C -119.82581,9.801937 -122.59814,13.042104 -125.43861,12.329191 C -127.28391,11.86605 -127.82233,12.131619 -127.8105,13.499095 C -127.78829,16.064247 -126.22883,18.135264 -124.92587,17.329987 C -124.22249,16.895274 -123.57201,17.787131 -123.18647,19.714843 C -122.75769,21.858745 -121.84364,22.976551 -120.17734,23.394766 C -118.86104,23.725137 -116.55596,25.466514 -115.05494,27.264493 C -112.39413,30.451702 -112.09257,30.544271 -103.00943,30.961995 C -93.752103,31.387731 -93.680477,31.372787 -91.709205,28.60439 C -90.585026,27.025626 -88.032277,25.311074 -85.818251,24.647736 C -82.234668,23.574069 -81.744952,22.985019 -79.904102,17.533964 L -77.897061,11.59079 L -79.980605,8.772645 C -82.655636,5.154472 -82.681464,-1.6058598 -80.033845,-5.1627619 C -77.545243,-8.5060337 -72.694372,-10.362865 -72.016008,-8.231853 C -71.209391,-5.6979454 -63.85794,0.768147 -61.7837,0.768147 C -60.26406,0.768147 -59.82581,1.456871 -59.82581,3.84507 C -59.82581,7.625988 -64.37583,12.52815 -68.685081,13.390001 C -70.78818,13.810621 -71.99304,14.844478 -72.749985,16.877982 C -73.341689,18.467573 -74.305605,21.058277 -74.892021,22.635102 C -75.7726,25.002906 -75.599146,26.091061 -73.895759,28.885102 C -72.761399,30.745777 -71.831604,33.922986 -71.829548,35.945567 C -71.826686,38.761192 -71.181354,40.13229 -69.07581,41.796269 L -66.32581,43.96955 L -65.995733,41.118849 C -65.60936,37.781935 -62.2134,33.768147 -59.7765,33.768147 C -58.67658,33.768147 -57.85794,34.857488 -57.45906,36.851897 C -57.00967,39.098865 -56.01137,40.249292 -53.78009,41.091507 C -51.55786,41.930303 -50.84783,42.744361 -51.19166,44.059167 C -51.45225,45.055657 -50.68904,47.374725 -49.49563,49.212651 C -47.6124,52.112968 -46.60374,52.647578 -41.85883,53.260306 C -38.05599,53.751382 -36.27464,53.614647 -36.0068,52.811108 C -34.81708,49.241968 -28.3546,46.182741 -25.64046,47.903864 C -24.9174,48.362376 -24.67246,48.744412 -25.09613,48.752834 C -26.73444,48.785401 -21.61262,56.908161 -19.28508,57.968658 C -16.17225,59.386959 -16.1709,61.204142 -19.28036,64.313602 C -21.10725,66.140495 -22.80896,66.768147 -25.93519,66.768147 C -29.52425,66.768147 -30.68108,66.194606 -33.88474,62.826855 C -37.07683,59.471274 -38.34409,58.839686 -42.41224,58.576855 C -46.51469,58.311808 -47.57811,58.657084 -49.93122,61.018147 C -51.43863,62.530647 -53.56139,63.768147 -54.64846,63.768147 C -56.11613,63.768147 -57.09185,65.066553 -58.43861,68.81177 C -60.03118,73.24056 -60.56151,73.819599 -62.78904,73.56177 C -65.02201,73.303311 -65.30127,73.612024 -65.12092,76.139557 C -64.86024,79.792872 -62.18951,82.768147 -59.17082,82.768147 C -56.16167,82.768147 -56.1969,84.230142 -59.28036,87.313602 C -62.72093,90.754177 -67.173105,90.574697 -70.902733,86.84507 z M -55.82581,44.768147 C -55.82581,44.218147 -56.30237,43.768147 -56.88483,43.768147 C -57.46729,43.768147 -57.66573,44.218147 -57.32581,44.768147 C -56.98589,45.318147 -56.50933,45.768147 -56.26679,45.768147 C -56.02425,45.768147 -55.82581,45.318147 -55.82581,44.768147 z "
       id="path3368" />
    <path
       style="fill:#8c8c8c;fill-opacity:1"
       d="M -70.902733,86.84507 C -74.723015,83.024788 -74.918086,77.769514 -71.371265,74.222692 C -67.858319,70.709747 -66.140278,71.02179 -66.614821,75.08659 C -67.065937,78.950729 -62.93317,84.768147 -59.73692,84.768147 C -57.18151,84.768147 -57.32009,86.300519 -60.04832,88.211443 C -63.54435,90.660157 -67.597916,90.149887 -70.902733,86.84507 z M -64.35697,72.547534 C -64.64579,71.794899 -64.18922,69.215322 -63.34239,66.81514 C -61.95611,62.885996 -61.95612,62.281641 -63.34249,60.749719 C -64.18937,59.813919 -65.20708,57.18733 -65.60405,54.912853 C -66.258316,51.164155 -67.016728,50.309443 -73.714305,45.772794 C -83.706341,39.004621 -88.830728,39.155679 -88.822072,46.218147 C -88.813737,53.01925 -81.218717,60.295344 -75.083267,59.38004 L -71.840725,58.896308 L -73.282155,61.683728 C -77.13549,69.135256 -88.549955,70.405897 -94.449615,64.040058 C -99.564345,58.521174 -99.480493,50.148476 -94.255878,44.695154 C -89.219547,39.438357 -94.010167,36.72608 -108.21538,36.791785 C -113.0017,36.813923 -113.51239,37.06761 -116.26764,40.791785 C -117.88564,42.978784 -119.91064,44.783118 -120.76764,44.801416 C -121.89732,44.825537 -121.64797,45.398715 -119.8609,46.885733 C -118.15168,48.307973 -116.37924,48.818081 -114.07956,48.549606 C -111.56426,48.255959 -110.89149,48.496913 -111.29447,49.547077 C -111.58671,50.308632 -111.82581,51.108362 -111.82581,51.324254 C -111.82581,51.540147 -113.20865,52.431884 -114.8988,53.305891 C -121.0317,56.477336 -127.36699,52.629996 -127.189,45.842207 C -127.04522,40.358832 -129.36308,39.233575 -135.34827,41.881107 C -137.90234,43.010892 -140.23778,43.689509 -140.53814,43.389145 C -140.83851,43.088781 -139.8736,42.291414 -138.3939,41.61722 C -136.37403,40.696903 -135.83449,39.869702 -136.22896,38.298017 C -136.57905,36.903138 -136.09893,35.795299 -134.79009,34.977911 C -133.67624,34.282304 -132.82581,32.652813 -132.82581,31.214219 C -132.82581,29.818879 -131.74937,27.600797 -130.43372,26.285146 C -128.24991,24.101336 -128.12677,23.493846 -129.01948,19.308186 C -129.83146,15.5011 -130.54186,14.495802 -133.20717,13.382164 C -139.67883,10.67813 -141.78995,3.163121 -137.48413,-1.8426906 L -135.14245,-4.5650555 L -134.53127,-1.509147 C -133.7074,2.610194 -128.07965,6.133338 -123.22815,5.566953 C -119.88436,5.176584 -119.73866,5.28476 -120.34644,7.706377 C -121.25698,11.334257 -122.77611,12.841756 -125.21195,12.534654 C -127.47366,12.249507 -127.82581,12.675768 -127.82581,15.698596 C -127.82581,16.926823 -127.02226,17.745285 -125.6168,17.948596 C -124.21975,18.150692 -123.19388,19.187056 -122.82581,20.768147 C -122.45954,22.341499 -121.43146,23.385749 -120.05216,23.585425 C -118.84675,23.759927 -116.6152,25.38477 -115.09316,27.196186 C -112.41517,30.38332 -112.01905,30.510174 -102.82581,31.124651 L -93.32581,31.759632 L -91.642922,28.799786 C -90.641474,27.03845 -88.81932,25.589122 -87.142922,25.22052 C -85.59351,24.87984 -83.839402,24.457009 -83.244903,24.280896 C -82.650404,24.104783 -81.161043,21.209996 -79.93521,17.848035 L -77.706425,11.73538 L -79.766117,9.116905 C -83.388112,4.512285 -82.26343,-3.5676927 -77.45877,-7.4596172 C -74.819536,-9.5974793 -73.82581,-9.6727321 -73.82581,-7.7347338 C -73.82581,-5.3299783 -66.958272,1.590792 -63.23659,2.936571 C -60.47149,3.936442 -59.93529,4.563128 -60.42706,6.220212 C -61.35326,9.341178 -64.09825,11.7537 -68.409499,13.235837 C -71.975737,14.461851 -72.478182,15.098847 -74.251304,20.642023 C -76.152621,26.585965 -76.153699,26.748352 -74.30541,28.790688 C -73.111925,30.109475 -72.402334,32.415379 -72.372675,35.071349 C -72.337143,38.253278 -71.72126,39.8046 -69.82581,41.486546 C -66.577494,44.36897 -65.82581,44.319386 -65.82581,41.222692 C -65.82581,39.815612 -64.66455,37.515974 -63.22917,36.0806 L -60.63253,33.483962 L -58.83695,37.49453 C -57.70839,40.015245 -55.93931,41.992917 -54.07471,42.818268 C -51.96675,43.75134 -51.24569,44.657761 -51.58356,45.949792 C -51.84509,46.949887 -51.54694,47.768147 -50.921,47.768147 C -50.29506,47.768147 -49.27035,48.893147 -48.64386,50.268147 C -47.81813,52.080415 -46.72366,52.768147 -44.66529,52.768147 C -43.10358,52.768147 -41.82581,53.218147 -41.82581,53.768147 C -41.82581,56.165307 -37.16606,54.567869 -34.53318,51.268118 C -31.32419,47.246327 -28.28482,46.723838 -27.262,50.018147 C -26.16123,53.563508 -22.81774,57.802449 -19.55893,59.78425 L -16.56918,61.602427 L -19.15204,64.185287 C -21.10929,66.142535 -22.75228,66.768147 -25.93519,66.768147 C -29.51444,66.768147 -30.68229,66.193338 -33.83368,62.880529 C -36.95537,59.598958 -38.29528,58.930466 -42.42885,58.592343 C -46.59715,58.251379 -47.59557,58.530425 -49.13872,60.467671 C -50.13583,61.719415 -52.33332,63.101598 -54.02204,63.53919 C -56.44262,64.166424 -57.46157,65.280151 -58.83652,68.80148 C -60.57535,73.254721 -63.36039,75.144585 -64.35697,72.547534 z M -51.32581,52.768147 C -50.98589,52.218147 -51.18433,51.768147 -51.76679,51.768147 C -52.34925,51.768147 -52.82581,52.218147 -52.82581,52.768147 C -52.82581,53.318147 -52.62737,53.768147 -52.38483,53.768147 C -52.14229,53.768147 -51.66573,53.318147 -51.32581,52.768147 z M -54.82581,44.827164 C -54.82581,43.647304 -56.77616,42.385168 -57.49248,43.10148 C -58.20879,43.817793 -56.94665,45.768147 -55.76679,45.768147 C -55.24925,45.768147 -54.82581,45.344705 -54.82581,44.827164 z M -78.32581,30.768147 C -78.665729,30.218147 -79.367286,29.768147 -79.884827,29.768147 C -80.402368,29.768147 -80.82581,30.218147 -80.82581,30.768147 C -80.82581,31.318147 -80.124252,31.768147 -79.266793,31.768147 C -78.409334,31.768147 -77.985891,31.318147 -78.32581,30.768147 z M -120.82581,29.327164 C -120.82581,29.084623 -121.27581,28.608066 -121.82581,28.268147 C -122.37581,27.928228 -122.82581,28.126671 -122.82581,28.70913 C -122.82581,29.291589 -122.37581,29.768147 -121.82581,29.768147 C -121.27581,29.768147 -120.82581,29.569705 -120.82581,29.327164 z M -159.62772,56.095333 C -163.10711,54.380592 -165.82581,50.28936 -165.82581,46.768147 C -165.82581,43.778451 -163.15998,39.017357 -160.76973,37.738133 C -158.92821,36.75258 -158.84788,36.830626 -159.92637,38.557558 C -161.71777,41.426055 -160.20385,45.566961 -156.54897,47.795428 C -152.22982,50.428926 -145.47316,50.415494 -142.82581,47.768147 C -141.21328,46.155621 -140.82581,46.068374 -140.82581,47.317807 C -140.82581,50.396003 -143.80838,54.531991 -147.18289,56.133302 C -151.51644,58.189707 -155.40207,58.177852 -159.62772,56.095333 z "
       id="path3366" />
    <path
       style="fill:#767676;fill-opacity:1"
       d="M -67.82581,89.058712 C -72.916137,87.187031 -75.048379,81.033015 -72.388631,75.889629 C -70.285425,71.822478 -68.343504,71.885451 -68.261105,76.023478 C -68.173408,80.427559 -65.15047,84.753215 -61.6746,85.448388 C -58.15121,86.153067 -58.0609,87.0986 -61.37286,88.607632 C -64.08932,89.845327 -65.43134,89.939147 -67.82581,89.058712 z M -64.81499,72.518147 C -64.80903,72.380647 -64.13278,70.054965 -63.3122,67.349964 C -61.95498,62.875958 -61.96987,62.266444 -63.47702,60.601062 C -64.38825,59.594166 -65.23484,57.106108 -65.35833,55.072044 C -65.56137,51.727811 -66.275934,50.866071 -72.822118,46.070947 C -81.117377,39.994614 -86.117425,39.059762 -89.929977,42.872314 C -95.302704,48.245041 -86.312784,61.206684 -77.184348,61.248927 C -73.552268,61.265735 -73.147354,61.486481 -73.958052,63.007797 C -75.009673,64.981216 -79.34148,67.451067 -82.32581,67.778812 C -87.924856,68.39371 -90.196888,67.632363 -93.943457,63.885794 C -97.347978,60.481273 -97.82581,59.427019 -97.82581,55.320053 C -97.82581,49.982294 -96.65537,47.133592 -93.284937,44.268147 C -90.968535,42.298808 -90.960855,42.230593 -92.784017,39.818525 C -94.469937,37.588028 -95.474885,37.332195 -104.01846,36.958528 L -113.40135,36.548153 L -116.24958,40.65815 C -119.22131,44.946351 -120.61263,45.581326 -122.62581,43.568147 C -123.55914,42.634814 -123.82581,42.729796 -123.82581,43.995567 C -123.82581,46.875556 -118.75518,49.971483 -114.67545,49.582418 C -111.48898,49.278539 -111.12319,49.455294 -111.90715,50.920124 C -112.40397,51.848443 -114.36136,53.119819 -116.2569,53.745405 C -119.04022,54.663982 -120.26904,54.590302 -122.6434,53.362476 C -125.99588,51.62884 -126.82581,50.013407 -126.82581,45.221543 C -126.82581,40.262633 -129.40704,39.231068 -135.39397,41.797364 C -137.98717,42.908939 -140.28462,43.642672 -140.49941,43.427881 C -140.7142,43.213089 -139.53647,42.476724 -137.88222,41.791514 C -135.27698,40.712387 -135.01888,40.275915 -135.9534,38.529738 C -136.99227,36.588599 -135.87644,34.830432 -133.57581,34.78346 C -133.16331,34.775038 -132.82581,33.397692 -132.82581,31.722692 C -132.82581,29.815026 -131.90033,27.751763 -130.34864,26.20007 C -128.0015,23.852928 -127.93178,23.46164 -129.02039,18.745524 C -129.79643,15.383527 -130.68152,13.76093 -131.74756,13.745911 C -132.6156,13.733681 -134.28564,12.946181 -135.45877,11.995911 C -139.56716,8.667983 -140.90757,3.657948 -138.76209,-0.3509197 C -137.75221,-2.2378898 -137.58769,-2.1764292 -135.51209,0.86321 C -132.77336,4.873964 -127.18162,7.977392 -123.57581,7.48787 C -120.60942,7.085155 -120.24128,7.807435 -121.86582,10.8429 C -122.61775,12.247896 -123.55701,12.622733 -125.25672,12.196131 C -126.54972,11.87161 -127.91076,12.096582 -128.28126,12.696068 C -129.39087,14.491455 -127.82425,17.768147 -125.85625,17.768147 C -124.71666,17.768147 -123.6252,18.90485 -122.97565,20.768147 C -122.37201,22.499761 -121.21789,23.768147 -120.24591,23.768147 C -119.31974,23.768147 -117.12147,25.295518 -115.36086,27.162304 C -112.2866,30.421975 -111.7808,30.584873 -102.59547,31.273524 C -93.550463,31.951656 -92.996346,31.88082 -92.389503,29.968827 C -91.62836,27.570675 -88.117841,25.089297 -84.809327,24.610849 C -82.964353,24.344045 -81.91164,22.952359 -80.055986,18.326939 L -77.672457,12.385732 L -79.749134,8.690785 C -82.186777,4.353584 -82.404771,-0.211586 -80.362795,-4.1603316 C -78.220296,-8.3034678 -76.239815,-8.6455636 -74.781318,-5.1244407 C -73.528304,-2.0993973 -66.342869,4.755595 -64.39581,4.78346 C -63.80731,4.791882 -62.68639,5.203477 -61.90488,5.698117 C -58.2549,8.008286 -67.792905,14.794532 -72.83618,13.475686 C -74.289491,13.095637 -74.868466,13.685874 -75.395314,16.084598 C -75.796736,17.912259 -75.658748,19.323834 -75.059124,19.523709 C -74.374289,19.751987 -74.387141,20.987174 -75.098467,23.304885 C -75.992516,26.217963 -75.864441,27.067979 -74.265207,28.835113 C -73.05131,30.176453 -72.345781,32.505441 -72.292362,35.347576 C -72.22048,39.171972 -71.750034,40.110723 -68.823227,42.270053 C -66.96094,43.644005 -65.36208,44.768147 -65.2702,44.768147 C -65.17833,44.768147 -65.31805,43.64398 -65.58071,42.269999 C -66.068722,39.717104 -63.57642,34.768147 -61.80276,34.768147 C -61.26544,34.768147 -60.8115,35.555647 -60.79401,36.518147 C -60.77651,37.480647 -60.10151,39.141655 -59.29401,40.209277 C -58.4865,41.276898 -57.82581,43.000153 -57.82581,44.038732 C -57.82581,45.616629 -57.33263,45.818737 -54.82581,45.268147 C -52.48062,44.753057 -51.82581,44.953984 -51.82581,46.188692 C -51.82581,47.057392 -51.45185,47.768147 -50.99479,47.768147 C -50.53773,47.768147 -49.56169,48.893147 -48.82581,50.268147 C -48.01866,51.776312 -46.61163,52.768147 -45.27928,52.768147 C -44.06456,52.768147 -42.5105,53.443147 -41.82581,54.268147 C -40.06668,56.387773 -37.07532,56.12963 -36.33409,53.794232 C -35.69705,51.7871 -31.26657,47.768147 -29.69095,47.768147 C -29.21512,47.768147 -28.82581,48.804496 -28.82581,50.071144 C -28.82581,53.188218 -23.20577,60.634678 -20.30347,61.363109 C -14.88815,62.722269 -22.29303,67.524703 -28.03373,66.376564 C -31.41615,65.70008 -35.82581,62.223755 -35.82581,60.233736 C -35.82581,59.528039 -38.11399,58.811792 -41.47747,58.46465 C -46.78996,57.916352 -47.29414,58.057987 -49.87868,60.824747 C -51.39093,62.443617 -53.58382,63.768147 -54.75177,63.768147 C -56.09675,63.768147 -57.2238,64.684733 -57.82581,66.268147 C -58.34858,67.643147 -59.20712,68.768147 -59.73367,68.768147 C -60.26022,68.768147 -60.97668,69.668147 -61.32581,70.768147 C -61.67494,71.868147 -62.60526,72.768147 -63.3932,72.768147 C -64.18113,72.768147 -64.82094,72.655647 -64.81499,72.518147 z M -50.82581,52.934814 C -50.82581,51.63274 -52.01458,50.766781 -52.9816,51.364432 C -54.01582,52.003614 -53.12405,53.768147 -51.76679,53.768147 C -51.24925,53.768147 -50.82581,53.393147 -50.82581,52.934814 z M -77.82581,31.268147 C -77.82581,30.443147 -78.50081,29.768147 -79.32581,29.768147 C -80.887384,29.768147 -81.309777,30.950847 -80.159143,32.10148 C -79.00851,33.252114 -77.82581,32.829721 -77.82581,31.268147 z M -120.82581,29.268147 C -120.82581,28.443147 -121.50081,27.768147 -122.32581,27.768147 C -123.88738,27.768147 -124.30978,28.950847 -123.15914,30.10148 C -122.00851,31.252114 -120.82581,30.829721 -120.82581,29.268147 z M -158.40737,56.799294 C -161.48752,55.553242 -165.82581,49.962097 -165.82581,47.238475 C -165.82581,44.455205 -163.86252,39.768147 -162.69668,39.768147 C -162.25222,39.768147 -162.13202,40.402531 -162.42955,41.17789 C -163.33977,43.549894 -160.10692,48.406869 -156.46873,50.133302 C -151.74867,52.373119 -146.64634,52.20142 -143.46067,49.695567 C -140.45202,47.328964 -140.22667,47.708857 -142.28176,51.682962 C -144.78115,56.516246 -152.81004,59.063652 -158.40737,56.799294 z "
       id="path3364" />
    <path
       style="fill:#606060;fill-opacity:1"
       d="M -68.715739,88.37264 C -73.172917,85.902216 -74.797783,80.995501 -72.69036,76.370212 C -71.014146,72.691323 -69.111776,72.356481 -69.62159,75.830069 C -70.150563,79.434188 -66.835119,84.987245 -63.15252,86.665148 C -60.97429,87.657618 -60.71952,88.088653 -61.87796,88.821541 C -63.85835,90.074437 -65.885438,89.941357 -68.715739,88.37264 z M -64.82581,72.446286 C -64.82581,72.269262 -64.12955,70.081016 -63.27857,67.583517 C -61.80335,63.254006 -61.83181,62.872305 -63.88972,59.384409 C -65.07683,57.372399 -65.8238,54.868471 -65.54965,53.820125 C -65.17799,52.398891 -66.512776,50.779026 -70.79707,47.451972 C -79.231593,40.901974 -80.387958,40.441323 -86.571455,41.168072 C -91.388565,41.734229 -92.060033,41.588482 -92.506876,39.879751 C -93.15854,37.387782 -95.575156,36.798488 -105.21114,36.781802 C -112.25108,36.769611 -113.33403,37.024476 -115.31229,39.159056 C -116.53099,40.474056 -117.80597,42.274056 -118.14557,43.159056 C -118.81506,44.903721 -121.82581,45.402009 -121.82581,43.768147 C -121.82581,43.218147 -122.50081,42.768147 -123.32581,42.768147 C -125.09755,42.768147 -125.2356,44.133934 -123.74532,46.918547 C -122.41077,49.41217 -116.54249,51.980392 -114.21766,51.088273 C -113.01032,50.624974 -112.72458,50.795337 -113.2589,51.659891 C -114.61293,53.850745 -118.55891,54.757149 -121.8095,53.623987 C -125.46943,52.348131 -126.82581,50.116044 -126.82581,45.369072 C -126.82581,41.036334 -129.34041,39.252902 -133.31748,40.764981 C -134.99342,41.402172 -135.7223,41.409683 -135.33671,40.785791 C -135.00485,40.24882 -135.20379,38.930397 -135.77881,37.855962 C -136.6325,36.260835 -136.45752,35.786033 -134.82506,35.267908 C -133.44702,34.830536 -132.82581,33.754758 -132.82581,31.805719 C -132.82581,30.094652 -131.84601,28.048139 -130.34455,26.623107 C -128.31414,24.696041 -127.97534,23.654283 -128.47994,20.889683 C -128.95223,18.302165 -128.77871,17.61718 -127.73878,17.963822 C -126.99199,18.212754 -126.07592,19.508062 -125.70307,20.842286 C -125.06112,23.13951 -125.01558,23.109065 -124.84427,20.268147 L -124.66337,17.268147 L -123.43014,20.053338 C -122.75186,21.585193 -120.65091,23.610193 -118.76136,24.553338 C -116.87181,25.496483 -114.90548,27.225199 -114.39174,28.39493 C -113.6428,30.100172 -112.27583,30.645239 -107.49504,31.14493 C -96.119872,32.333871 -93.295499,32.014286 -91.884925,29.378604 C -90.538799,26.863346 -86.939034,24.768147 -83.963688,24.768147 C -82.693374,24.768147 -81.562577,22.974828 -79.946692,18.397637 L -77.697712,12.027127 L -79.758023,8.647637 C -82.206638,4.631218 -82.430913,-0.9229355 -80.269106,-4.0093468 C -78.593061,-6.4022365 -76.82581,-6.949815 -76.82581,-5.0762439 C -76.82581,-1.5294239 -67.350332,6.702278 -62.87998,7.03902 C -61.08428,7.174285 -61.0097,7.414981 -62.20119,9.229565 C -63.87913,11.784998 -69.488982,13.839274 -72.959214,13.169054 C -75.167238,12.742609 -75.754792,13.125668 -76.596592,15.540456 C -77.392239,17.822852 -77.281323,18.62183 -76.062061,19.390921 C -74.844266,20.159086 -74.729798,20.977034 -75.512937,23.314766 C -76.321383,25.728039 -76.131813,26.770978 -74.476342,29.017692 C -73.276834,30.645599 -72.424961,33.404657 -72.388088,35.781155 C -72.33832,38.988809 -71.723209,40.287312 -69.32581,42.245647 C -65.54955,45.330313 -64.99188,45.350237 -65.55964,42.380206 C -66.015806,39.993917 -64.39083,35.745215 -63.04063,35.793945 C -62.20417,35.824134 -58.82581,42.87917 -58.82581,44.595761 C -58.82581,45.240573 -57.49499,45.768147 -55.86844,45.768147 C -53.6872,45.768147 -52.17818,46.686671 -50.11844,49.268118 C -48.48884,51.310482 -46.43333,52.7681 -45.1828,52.768118 C -44.00414,52.768134 -42.80361,53.383621 -42.51494,54.135867 C -41.82623,55.930623 -36.82581,56.922481 -36.82581,55.264334 C -36.82581,53.75182 -32.99524,48.768147 -31.83269,48.768147 C -31.3663,48.768147 -30.67212,50.191425 -30.29004,51.930987 C -29.88891,53.757324 -27.55403,57.135168 -24.76453,59.924669 C -20.35291,64.336286 -20.09686,64.842841 -21.81401,65.761829 C -22.84818,66.315304 -24.73641,66.766465 -26.01007,66.764409 C -29.11419,66.759398 -34.49759,63.377646 -35.26861,60.948358 C -35.74587,59.44467 -37.16479,58.831299 -41.38617,58.303872 C -46.62618,57.649177 -47.01627,57.76052 -49.75529,60.692658 C -51.33541,62.384177 -53.58382,63.768147 -54.75177,63.768147 C -56.09675,63.768147 -57.2238,64.684733 -57.82581,66.268147 C -58.34858,67.643147 -59.40996,68.768147 -60.18443,68.768147 C -60.95889,68.768147 -61.8279,69.668147 -62.11556,70.768147 C -62.40322,71.868147 -63.1307,72.768147 -63.73219,72.768147 C -64.33368,72.768147 -64.82581,72.623309 -64.82581,72.446286 z M -50.82581,52.268147 C -50.82581,51.443147 -51.50081,50.768147 -52.32581,50.768147 C -53.15081,50.768147 -53.82581,51.443147 -53.82581,52.268147 C -53.82581,53.093147 -53.15081,53.768147 -52.32581,53.768147 C -51.50081,53.768147 -50.82581,53.093147 -50.82581,52.268147 z M -77.82581,31.327164 C -77.82581,29.584377 -79.465477,28.427415 -80.782136,29.241155 C -82.113079,30.063723 -80.914361,32.768147 -79.218821,32.768147 C -78.452665,32.768147 -77.82581,32.119705 -77.82581,31.327164 z M -120.52299,29.281842 C -120.41454,28.739374 -121.11331,28.143878 -122.07581,27.958518 C -123.17041,27.747717 -123.82581,28.238189 -123.82581,29.268147 C -123.82581,31.007936 -120.87051,31.02019 -120.52299,29.281842 z M -93.943457,63.885794 C -97.344169,60.485082 -97.82581,59.42442 -97.82581,55.336134 C -97.82581,50.85772 -95.620301,44.768147 -93.998318,44.768147 C -93.571446,44.768147 -93.176859,46.367237 -93.121458,48.32168 C -92.924217,55.28 -84.488472,63.70156 -77.615648,63.801416 L -75.32581,63.834686 L -77.686594,65.801416 C -79.342406,67.180846 -81.542516,67.768147 -85.054241,67.768147 C -89.536961,67.768147 -90.467528,67.361723 -93.943457,63.885794 z M -157.8253,56.644694 C -163.75301,54.280995 -166.87725,48.589624 -164.92705,43.707575 L -163.95258,41.268147 L -163.8892,43.618147 C -163.85433,44.910647 -162.35255,47.441404 -160.55191,49.24205 C -156.37765,53.416304 -150.667,54.564284 -145.27777,52.31252 L -141.47587,50.723986 L -143.40084,52.884083 C -145.55075,55.296591 -150.82134,57.801589 -153.54369,57.704761 C -154.52386,57.669898 -156.45058,57.192868 -157.8253,56.644694 z M -129.82581,15.469035 C -129.82581,14.754524 -131.40512,13.598837 -133.33539,12.900842 C -138.32568,11.096329 -141.07456,5.18591 -139.19797,0.295589 C -138.69072,-1.0262649 -138.21226,-0.7520897 -136.70711,1.722941 C -134.17247,5.890824 -129.1422,8.759901 -124.36152,8.764409 C -120.62515,8.767932 -120.49531,8.866215 -122.10303,10.473942 C -123.04122,11.412129 -125.05015,12.199629 -126.56732,12.223942 C -128.84403,12.260427 -129.27117,12.661115 -129.01295,14.518147 C -128.84088,15.755647 -128.95338,16.768147 -129.26295,16.768147 C -129.57252,16.768147 -129.82581,16.183547 -129.82581,15.469035 z "
       id="path3362" />
    <path
       style="fill:#494949;fill-opacity:1"
       d="M -68.467263,88.32292 C -72.511038,86.563348 -74.453482,81.441252 -72.699729,77.162189 L -71.513619,74.268147 L -70.82107,78.055447 C -70.026816,82.398936 -65.42753,87.734897 -62.38872,87.838432 C -60.35159,87.907839 -60.35081,87.91946 -62.32581,88.768147 C -64.94902,89.895377 -64.8344,89.903687 -68.467263,88.32292 z M -64.82581,72.452891 C -64.82581,72.214581 -64.14543,70.091206 -63.31386,67.734281 C -61.90055,63.728538 -61.9346,63.174856 -63.8358,59.247512 C -64.95444,56.936714 -65.60711,54.361791 -65.28618,53.52546 C -64.88802,52.487893 -66.590559,50.569105 -70.645782,47.485082 C -73.914495,44.999206 -77.542202,42.455113 -78.707354,41.831543 C -79.872505,41.207973 -80.82581,40.038612 -80.82581,39.232963 C -80.82581,38.427314 -81.27581,37.768147 -81.82581,37.768147 C -82.37581,37.768147 -82.82581,38.200802 -82.82581,38.729603 C -82.82581,39.926571 -90.515649,42.077871 -91.848883,41.253887 C -92.386193,40.921811 -92.82581,40.031995 -92.82581,39.276518 C -92.82581,37.409591 -94.934552,36.925982 -104.44128,36.612682 C -112.3552,36.351874 -112.63458,36.423075 -115.69128,39.479767 C -117.41527,41.20376 -118.82581,43.098916 -118.82581,43.691224 C -118.82581,45.046823 -120.50364,45.098449 -121.32581,43.768147 C -121.66573,43.218147 -122.81729,42.768147 -123.88483,42.768147 C -129.18615,42.768147 -122.68921,51.638824 -117.09017,52.045306 C -112.71022,52.363284 -114.17364,53.768147 -118.88483,53.768147 C -124.35573,53.768147 -127.14223,50.883367 -126.65063,45.728462 C -126.33894,42.460046 -126.643,41.716839 -128.66965,40.793436 C -129.98194,40.195518 -131.90392,39.97555 -132.94072,40.304618 C -134.19619,40.703089 -134.82581,40.41837 -134.82581,39.452166 C -134.82581,38.65425 -133.92581,37.766054 -132.82581,37.478398 C -130.79639,36.947694 -129.99221,34.768147 -131.82581,34.768147 C -133.76867,34.768147 -132.7923,29.881775 -130.2444,26.853767 C -128.20766,24.433244 -127.80243,23.151066 -128.32386,20.777042 C -129.19717,16.800868 -127.34063,16.852561 -125.94951,20.843154 C -125.35993,22.534408 -124.41591,23.63285 -123.85168,23.284137 C -122.53256,22.468874 -122.55831,23.086954 -123.97283,26.19148 C -125.61554,29.796834 -123.63737,31.904686 -119.0822,31.40271 C -117.16632,31.191582 -115.25434,30.461516 -114.83335,29.780341 C -114.29634,28.911449 -113.95612,28.877206 -113.69333,29.665596 C -113.47179,30.330197 -109.43262,31.04462 -103.80764,31.414111 L -94.296536,32.038873 L -90.661173,28.40351 C -88.446274,26.188611 -86.062254,24.768147 -84.559801,24.768147 C -82.445316,24.768147 -81.769857,23.879726 -79.821329,18.535705 L -77.548867,12.303263 L -79.687338,8.587587 C -82.170268,4.273402 -82.456659,-1.0155361 -80.357613,-3.7907234 C -79.500039,-4.9245382 -78.87619,-5.2026862 -78.857613,-4.4595099 C -78.802804,-2.2667607 -70.500198,5.991511 -66.571916,7.760585 C -62.84529,9.438844 -62.8327,9.464408 -64.83872,11.279831 C -66.266936,12.572349 -68.297816,13.075773 -71.765165,12.996793 C -76.31918,12.893061 -76.743288,13.092668 -77.680372,15.780789 C -78.546361,18.264964 -78.41524,18.763681 -76.757821,19.289726 C -74.555905,19.988587 -74.436037,20.612766 -75.809828,24.226111 C -76.628644,26.37976 -77.227631,26.7054 -79.377671,26.165775 C -81.858,25.543252 -81.948765,25.672508 -81.643653,29.392711 C -81.328469,33.235723 -81.290241,33.268147 -77.074517,33.268147 C -72.862124,33.268147 -72.823235,33.300992 -72.824517,36.857684 C -72.825673,40.067276 -72.180731,40.94817 -66.731409,45.17995 C -63.37949,47.782951 -60.44044,49.716115 -60.2002,49.475871 C -59.95996,49.235627 -60.84717,48.328947 -62.17178,47.461027 C -65.17207,45.495162 -66.17614,41.774729 -64.70149,38.087545 L -63.57391,35.268147 L -62.8082,37.936402 C -61.63065,42.039837 -58.55127,45.701886 -56.249,45.736722 C -54.51352,45.762982 -54.24478,46.262707 -54.61385,48.777306 C -54.85675,50.432343 -54.49872,52.457343 -53.81821,53.277306 C -52.34977,55.046662 -49.15337,55.250833 -48.6065,53.610206 C -48.0505,51.942221 -42.82581,53.457918 -42.82581,55.287199 C -42.82581,56.25216 -41.82283,56.768147 -39.94713,56.768147 C -37.69856,56.768147 -36.79946,56.118744 -35.83954,53.801303 C -35.16364,52.169538 -33.98405,50.314438 -33.21822,49.678858 C -32.10102,48.751663 -31.82581,48.952577 -31.82581,50.695362 C -31.82581,54.095698 -29.24722,58.251587 -24.74781,62.102914 L -20.61737,65.638418 L -24.10011,66.291783 C -28.32569,67.084507 -33.41691,64.759693 -34.98311,61.322258 C -36.71077,57.530461 -46.96156,56.28477 -48.76145,59.647894 C -49.31476,60.681755 -51.54453,62.238683 -53.7165,63.107734 C -55.90628,63.983911 -57.95401,65.596697 -58.31306,66.727987 C -58.67057,67.854401 -59.82616,68.768147 -60.8932,68.768147 C -61.95613,68.768147 -62.82581,69.416589 -62.82581,70.20913 C -62.82581,71.001671 -63.27581,71.928228 -63.82581,72.268147 C -64.37581,72.608066 -64.82581,72.6912 -64.82581,72.452891 z M -90.795795,66.488836 C -96.752432,63.474743 -99.95146,52.960767 -96.357613,48.209277 C -94.957647,46.358355 -94.887939,46.40348 -94.857613,49.180289 C -94.813254,53.242141 -90.493613,60.192303 -86.466624,62.681119 C -84.609339,63.828985 -81.567857,64.782459 -79.707776,64.79995 C -76.51744,64.829952 -76.435799,64.914945 -78.26694,66.29995 C -80.632861,68.089443 -87.430059,68.191919 -90.795795,66.488836 z M -157.38091,56.69987 C -161.44816,55.51781 -164.6491,51.951688 -165.44115,47.720072 L -166.08726,44.268147 L -163.6866,47.768147 C -159.56801,53.772774 -150.9936,56.525921 -145.51007,53.604427 C -143.54316,52.556504 -143.46096,52.604554 -144.68405,54.087309 C -145.43108,54.99294 -147.68108,56.189104 -149.68405,56.745452 C -153.78856,57.885526 -153.29115,57.888472 -157.38091,56.69987 z M -135.84476,11.018147 C -137.92286,9.144763 -139.07971,6.993069 -139.47386,4.268147 L -140.05245,0.268147 L -136.93237,3.938019 C -133.59584,7.862489 -125.98996,11.428851 -123.22207,10.366713 C -121.88148,9.85228 -121.77435,10.001211 -122.69072,11.105369 C -123.32632,11.87123 -124.89896,12.285658 -126.21494,12.034092 C -127.52198,11.784235 -128.89568,12.072184 -129.26761,12.673977 C -130.38711,14.485375 -132.62308,13.92246 -135.84476,11.018147 z "
       id="path3360" />
    <path
       style="fill:#333333;fill-opacity:1"
       d="M -70.536561,86.518147 C -73.284172,83.516211 -74.073782,80.570977 -72.910585,77.663077 L -71.952583,75.268147 L -71.889196,77.567807 C -71.801853,80.736629 -69.283535,85.334136 -66.609015,87.207443 C -64.44698,88.721791 -64.44163,88.768147 -66.42899,88.768147 C -67.555495,88.768147 -69.403902,87.755647 -70.536561,86.518147 z M -61.68282,67.860947 C -62.53261,67.332979 -62.789,66.227529 -62.36877,64.90349 C -61.96187,63.621486 -62.31341,61.910085 -63.26175,60.556137 C -64.12198,59.327986 -64.85403,56.735762 -64.88852,54.795641 C -64.94559,51.58497 -65.61921,50.782322 -72.388518,45.858987 C -76.479029,42.883949 -79.82581,40.150187 -79.82581,39.783961 C -79.82581,39.417735 -78.323641,39.151857 -76.487656,39.193121 C -74.049665,39.247916 -73.246521,39.672635 -73.509286,40.768147 C -73.734409,41.706724 -71.390178,43.952417 -67.246012,46.768147 C -63.60333,49.243147 -58.90389,52.955647 -56.8028,55.018147 C -53.24803,58.507641 -51.87487,59.214938 -49.32581,58.869456 C -48.77581,58.794913 -49.5884,59.866623 -51.13157,61.251035 C -52.67474,62.635447 -54.99974,63.768147 -56.29824,63.768147 C -57.91659,63.768147 -58.92124,64.544373 -59.49248,66.236101 C -60.08045,67.977419 -60.72535,68.45582 -61.68282,67.860947 z M -91.527261,65.808631 C -96.922068,62.519225 -99.312872,55.055851 -96.82581,49.268147 C -96.128008,47.644275 -95.953162,47.94517 -95.896095,50.868109 C -95.797549,55.91558 -90.8659,62.420527 -85.25664,64.901769 C -82.819683,65.979751 -80.82581,67.065678 -80.82581,67.314941 C -80.82581,68.612532 -88.760416,67.495676 -91.527261,65.808631 z M -30.43794,65.187246 C -32.14961,64.342797 -34.13815,62.553044 -34.85692,61.210016 C -35.57569,59.866988 -37.10023,58.739623 -38.24479,58.704761 C -40.24056,58.643971 -40.23363,58.604324 -38.07581,57.736985 C -36.83831,57.239571 -35.82581,56.004103 -35.82581,54.991501 C -35.82581,53.978899 -35.16512,52.276898 -34.35761,51.209277 C -32.92913,49.320649 -32.88856,49.330347 -32.85761,51.567807 C -32.81103,54.935829 -30.40209,59.054984 -26.44937,62.525515 C -21.57513,66.805159 -23.94832,68.388883 -30.43794,65.187246 z M -157.5129,56.665669 C -160.61851,55.767139 -164.82581,51.593227 -164.82581,49.410782 C -164.82581,48.812576 -164.16638,49.264599 -163.36042,50.415278 C -161.36135,53.269339 -155.82312,55.747439 -151.17468,55.867827 C -147.77556,55.955859 -147.61794,56.061064 -149.82581,56.768147 C -153.01803,57.790475 -153.65452,57.78199 -157.5129,56.665669 z M -48.58202,56.518147 C -47.95777,54.617034 -43.18904,54.379191 -42.48494,56.214052 C -42.0146,57.439755 -42.63913,57.768147 -45.44053,57.768147 C -47.83433,57.768147 -48.85864,57.360572 -48.58202,56.518147 z M -124.6515,51.453696 C -127.95903,47.932988 -127.24633,46.572901 -123.78717,49.804244 C -122.11592,51.365427 -119.52842,52.828547 -118.03717,53.055621 C -115.79224,53.397459 -115.94093,53.494258 -118.9015,53.618315 C -121.47565,53.72618 -123.08619,53.119884 -124.6515,51.453696 z M -63.75323,45.133288 C -64.89315,43.684116 -65.81892,41.996616 -65.8105,41.383288 C -65.7901,39.897768 -63.86077,36.954171 -63.84112,38.3786 C -63.8327,38.989349 -62.73921,41.090249 -61.41114,43.047265 C -59.17631,46.340469 -59.02775,47.768147 -60.9199,47.768147 C -61.33831,47.768147 -62.61331,46.582461 -63.75323,45.133288 z M -121.82581,43.825765 C -128.57933,40.382635 -130.87457,39.636717 -132.97056,40.203889 C -135.03858,40.763491 -134.99044,40.649936 -132.57581,39.272743 C -129.44941,37.489593 -129.18683,36.543341 -131.32581,34.768147 C -133.37809,33.064906 -133.20696,30.44723 -130.85908,27.628931 L -128.89235,25.268147 L -128.85908,27.831056 C -128.81438,31.274652 -124.01802,35.700418 -119.54394,36.426462 C -116.19062,36.970632 -115.98959,36.857845 -116.54274,34.742604 L -117.1356,32.47551 L -105.50585,32.988728 C -95.142879,33.446043 -93.817023,33.315821 -93.333766,31.793214 C -93.035484,30.853411 -91.67417,29.034865 -90.308623,27.752 L -87.82581,25.419519 L -87.82581,28.017108 C -87.82581,29.445782 -86.740202,31.904868 -85.413348,33.481744 C -83.128679,36.19692 -83.08895,36.46263 -84.663348,38.497843 C -85.577702,39.679822 -87.478544,40.926686 -88.887442,41.268652 C -90.945737,41.768239 -91.664726,41.417104 -92.54659,39.481622 C -93.566401,37.243382 -94.332057,37.031792 -103.36065,36.493139 L -113.07719,35.913442 L -115.7015,39.013673 C -117.14487,40.7188 -118.77581,42.67114 -119.32581,43.352205 C -119.90314,44.06712 -120.95981,44.267277 -121.82581,43.825765 z M -80.587787,24.936415 C -81.570443,24.312623 -81.597461,23.411552 -80.709858,20.865371 C -79.721299,18.029589 -79.380049,17.785336 -78.139659,19.025726 C -77.205713,19.959673 -76.940703,21.377737 -77.375996,23.112083 C -78.084401,25.93459 -78.575733,26.213672 -80.587787,24.936415 z M -127.68963,23.599934 C -127.76453,22.682418 -128.11704,21.107418 -128.47299,20.099934 C -128.97257,18.685908 -128.83923,18.526921 -127.88832,19.402812 C -127.21081,20.026878 -126.8583,21.601878 -127.10496,22.902812 C -127.35163,24.203746 -127.61473,24.517451 -127.68963,23.599934 z M -135.81252,11.018147 C -137.61548,9.375428 -139.06961,6.858881 -139.42394,4.768147 L -140.01712,1.268147 L -138.03339,4.358267 C -136.94234,6.057833 -134.27372,8.327053 -132.10312,9.400979 C -128.93993,10.966001 -128.41312,11.593206 -129.44899,12.560859 C -131.35234,14.338857 -132.46354,14.069469 -135.81252,11.018147 z M -75.32581,11.82279 C -80.045445,9.891081 -83.306692,2.236753 -81.094395,-1.7164014 C -80.265962,-3.1967299 -79.857647,-2.9509877 -78.047157,0.117564 C -75.601298,4.262986 -68.443209,9.754252 -65.42577,9.79995 C -63.36427,9.831171 -63.36136,9.85864 -65.26694,11.29995 C -67.366357,12.88787 -72.119888,13.134949 -75.32581,11.82279 z "
       id="path3358" />
  </g>
  <g
     id="g2205"
     transform="matrix(0.7175764,0,0,0.7175764,47.844829,47.72078)">
    <g
       style="fill:#282828;fill-opacity:1"
       transform="matrix(0.9453131,0,0,0.9453131,-76.215509,-12.291477)"
       id="g2244">
      <path
         sodipodi:nodetypes="cccccc"
         id="path5144"
         d="M 88.982804,21.695016 L 148.71931,21.695016 L 157.75694,30.291784 L 157.75694,90.469153 L 88.982804,90.469153 L 88.982804,21.695016 z "
         style="fill:#282828;fill-opacity:1;fill-rule:evenodd;stroke:none;stroke-width:1.20000005;stroke-linecap:round;stroke-linejoin:round;stroke-miterlimit:4;stroke-dashoffset:0;stroke-opacity:1" />
      <rect
         y="84.238586"
         x="91.684052"
         height="3.9189899"
         width="4.4322443"
         id="rect5150"
         style="fill:#282828;fill-opacity:1;fill-rule:evenodd;stroke:none;stroke-width:0.58104563;stroke-linecap:round;stroke-linejoin:round;stroke-miterlimit:4;stroke-dasharray:none;stroke-dashoffset:0;stroke-opacity:1" />
    </g>
    <path
       sodipodi:nodetypes="cccccc"
       id="rect5048"
       d="M 3.4088906,3.7435554 L 59.878601,3.7435554 L 68.421989,11.870192 L 68.421989,68.756653 L 3.4088906,68.756653 L 3.4088906,3.7435554 z "
       style="fill:url(#linearGradient2214);fill-opacity:1;fill-rule:evenodd;stroke:#000000;stroke-width:1.22274637;stroke-linecap:round;stroke-linejoin:round;stroke-miterlimit:4;stroke-dashoffset:0;stroke-opacity:1" />
    <path
       id="rect5051"
       d="M 21.334209,3.7259782 L 21.334209,27.894324 L 54.036306,27.894324 L 54.036306,3.7259782 L 21.334209,3.7259782 z M 42.254636,8.152066 L 49.928643,8.152066 L 49.928643,23.786661 L 42.254636,23.786661 L 42.254636,8.152066 z "
       style="fill:url(#linearGradient2216);fill-opacity:1;fill-rule:evenodd;stroke:#000000;stroke-width:1.22274637;stroke-linecap:round;stroke-linejoin:round;stroke-miterlimit:4;stroke-dashoffset:0;stroke-opacity:1" />
    <rect
       y="34.594936"
       x="12.879713"
       height="34.183712"
       width="46.265888"
       id="rect5080"
       style="fill:#ffffff;fill-opacity:1;fill-rule:evenodd;stroke:#000000;stroke-width:1.22274637;stroke-linecap:round;stroke-linejoin:round;stroke-miterlimit:4;stroke-dasharray:none;stroke-dashoffset:0;stroke-opacity:1" />
    <rect
       y="62.86681"
       x="5.962409"
       height="3.7046726"
       width="4.1898589"
       id="rect5082"
       style="fill:#ffffff;fill-opacity:1;fill-rule:evenodd;stroke:#000000;stroke-width:0.59205949;stroke-linecap:round;stroke-linejoin:round;stroke-miterlimit:4;stroke-dasharray:none;stroke-dashoffset:0;stroke-opacity:1" />
  </g>
</svg>
