<?xml version="1.0" encoding="UTF-8" standalone="no"?>
<!-- Created with Inkscape (http://www.inkscape.org/) -->
<svg
   xmlns:svg="http://www.w3.org/2000/svg"
   xmlns="http://www.w3.org/2000/svg"
   version="1.0"
   width="100"
   height="100"
   id="svg2">
  <defs
     id="defs4">
    <filter
       id="filter5661"
       color-interpolation-filters="sRGB"
       height="1.5171098"
       width="1.5446575"
       y="-0.25855491"
       x="-0.27232876">
      <feGaussianBlur
         stdDeviation="0.8946"
         id="feGaussianBlur5663" />
    </filter>
  </defs>
  <path
     d="M 25.95075,27.16475 L 25.87875,27.51275 L 26.58675,27.58475 C 26.86275,27.60875 26.93475,27.77675 26.85075,28.12475 L 25.41075,34.50875 C 25.32675,34.86875 25.20675,35.03675 24.91875,35.06075 L 24.24675,35.12075 L 24.17475,35.46875 L 27.66675,35.46875 L 27.73875,35.12075 L 26.83875,35.06075 C 26.55075,35.03675 26.47875,34.86875 26.56275,34.50875 L 27.23475,31.54475 L 28.81875,31.54475 C 29.874749,31.54475 29.91075,31.796751 29.86275,32.57675 L 30.22275,32.57675 L 30.77475,30.05675 L 30.41475,30.05675 C 30.10275,30.896749 29.970749,31.08875 28.91475,31.08875 L 27.33075,31.08875 L 28.05075,27.94475 C 28.12275,27.64475 28.18275,27.58475 28.39875,27.58475 L 29.87475,27.58475 C 31.386748,27.58475 31.35075,28.088751 31.24275,29.14475 L 31.60275,29.14475 L 32.05875,27.16475 L 25.95075,27.16475"
     transform="matrix(6.4405034,0,0,6.4405034,-138.72104,-153.06433)"
     id="flowRoot3405" />
  <text
     x="-115.73404"
     y="39.02792"
     id="text4511"
     xml:space="preserve"
     style="fill:#000000;fill-opacity:1;stroke:none;font-family:B"><tspan
       x="-115.73404"
       y="39.02792"
       id="tspan4513"
       style="font-family:Cranberry Gin">d</tspan></text>
  <path
     d="M 25.95075,27.16475 L 25.87875,27.51275 L 26.58675,27.58475 C 26.86275,27.60875 26.93475,27.77675 26.85075,28.12475 L 25.41075,34.50875 C 25.32675,34.86875 25.20675,35.03675 24.91875,35.06075 L 24.24675,35.12075 L 24.17475,35.46875 L 27.66675,35.46875 L 27.73875,35.12075 L 26.83875,35.06075 C 26.55075,35.03675 26.47875,34.86875 26.56275,34.50875 L 27.23475,31.54475 L 28.81875,31.54475 C 29.874749,31.54475 29.91075,31.796751 29.86275,32.57675 L 30.22275,32.57675 L 30.77475,30.05675 L 30.41475,30.05675 C 30.10275,30.896749 29.970749,31.08875 28.91475,31.08875 L 27.33075,31.08875 L 28.05075,27.94475 C 28.12275,27.64475 28.18275,27.58475 28.39875,27.58475 L 29.87475,27.58475 C 31.386748,27.58475 31.35075,28.088751 31.24275,29.14475 L 31.60275,29.14475 L 32.05875,27.16475 L 25.95075,27.16475"
     transform="matrix(6.4405034,0,0,6.4405034,-123.73608,-144.55002)"
     id="flowRoot4515"
     style="fill:#000000;fill-opacity:0.64044949;filter:url(#filter5661)" />
</svg>
