<?xml version="1.0" encoding="UTF-8" standalone="no"?>
<!-- Created with Inkscape (http://www.inkscape.org/) -->
<svg
   xmlns:svg="http://www.w3.org/2000/svg"
   xmlns="http://www.w3.org/2000/svg"
   version="1.0"
   width="100"
   height="100"
   id="svg2">
  <defs
     id="defs4" />
  <path
     d="M 11.848961,11.885309 C 18.340736,14.709388 5.4787594,20.40049 6.8776634,15.227559 C 8.4342894,12.261437 4.0745684,5.2284566 10.046654,7.1628122 C 12.571704,7.5430972 15.136776,10.093139 11.848961,11.885309 L 11.848961,11.885309 z M 8.3772404,11.641313 C 12.258793,13.911141 12.234264,5.4530596 8.3772404,7.9534782 C 8.3772404,9.1827562 8.3772404,10.412036 8.3772404,11.641313 z M 8.3772404,16.068109 C 12.617451,18.962969 12.669008,9.5977922 8.3772404,12.185077 C 8.3772404,13.479421 8.3772404,14.773766 8.3772404,16.068109 z M 18.457783,10.037906 C 25.683219,10.378344 17.462992,21.978095 15.424952,14.366892 C 15.006194,12.456298 16.194986,9.8388762 18.457783,10.037906 z M 18.687837,16.479418 C 23.954298,15.418088 16.100587,7.7392682 16.694668,13.7254 C 16.783578,14.845212 17.312,16.485452 18.687837,16.479418 z M 28.963581,16.765242 C 24.377369,18.85428 29.060011,8.8846662 24.496505,11.838345 C 23.997916,13.383631 25.551718,18.379766 22.381279,16.360457 C 24.311273,14.151176 21.144439,8.4276852 26.382871,10.126494 C 29.560781,10.416692 26.896941,15.314357 28.963581,16.765242 L 28.963581,16.765242 z M 36.248621,16.263306 C 31.148661,20.214371 26.505991,10.173083 33.465571,9.7865932 C 33.625481,7.8597442 34.701571,6.1586636 35.413441,9.0408992 C 35.760681,11.331262 33.855801,14.674997 36.248621,16.263306 L 36.248621,16.263306 z M 34.094481,15.552231 C 36.304261,12.501869 30.639331,8.1336982 30.791101,13.505564 C 30.779661,15.135962 32.552251,17.189854 34.094481,15.552231 z M 39.190521,16.967411 C 36.789371,18.149373 36.498201,13.856613 38.845631,16.272668 C 42.617651,14.692265 32.893171,11.034633 38.817791,10.382957 C 41.911641,10.51333 40.369791,11.233438 38.428371,10.823566 C 38.147381,13.376919 44.960071,15.599742 39.190521,16.967411 z M 11.116972,34.611848 C 8.3216264,35.171167 6.6048584,34.361315 8.6235364,31.94734 C 8.5770854,30.030082 6.8202684,22.829379 9.7949784,26.953855 C 10.297513,29.382664 7.7835644,33.449087 11.116972,34.611848 L 11.116972,34.611848 z M 29.597971,34.611848 C 27.130561,35.410498 21.501451,34.105004 26.351611,31.798722 C 28.981731,30.078 27.777191,24.308154 24.162501,26.691577 C 27.289541,21.497011 32.503121,29.571889 27.178271,31.520418 C 23.326055,35.520252 29.320171,32.055526 29.623311,33.371887 L 29.600711,33.915266 L 29.598011,34.611848 L 29.598011,34.611848 L 29.597971,34.611848 z M 46.810191,34.611848 C 44.014841,35.171164 42.298061,34.361321 44.316741,31.947341 C 44.270291,30.030082 42.513481,22.829381 45.488191,26.953851 C 45.990731,29.382661 43.476781,33.449084 46.810191,34.611848 z M 49.954251,33.287295 C 52.573881,34.524993 47.418421,34.719798 49.954251,33.287295 z M 55.308231,24.949584 C 59.732951,25.704073 59.447221,33.196438 55.568721,34.44631 C 50.923131,34.326369 51.041291,25.667507 55.308231,24.949584 z M 55.308231,34.326024 C 59.849841,33.097916 55.802061,22.049549 53.633761,28.669048 C 53.284811,30.645284 53.454801,33.116451 55.308231,34.326024 z M 65.291181,34.611848 C 62.823771,35.410498 57.194661,34.105003 62.044821,31.798723 C 64.674941,30.078 63.470411,24.308155 59.855711,26.691575 C 62.982751,21.497015 68.196331,29.571891 62.871481,31.52042 C 59.019261,35.520253 65.013381,32.055525 65.316521,33.371888 L 65.293921,33.915266 L 65.291221,34.611848 L 65.291221,34.611848 L 65.291181,34.611848 z M 70.226881,28.958099 C 75.794721,29.773552 69.299181,38.228861 66.559961,33.78226 C 70.937241,36.89662 70.687541,29.699085 70.154211,28.306972 C 71.543531,24.5662 64.494841,27.488609 68.391051,25.277369 C 71.129451,23.972708 73.838171,27.70755 70.226881,28.958099 z M 11.751363,52.458454 C 9.2839544,53.257104 3.6548464,51.951609 8.5050074,49.645328 C 11.135126,47.924605 9.9305884,42.154761 6.3158964,44.538184 C 9.4429324,39.343619 14.656517,47.418495 9.3316674,49.367026 C 5.4794504,53.366858 11.473559,49.902134 11.77671,51.218493 L 11.75411,51.761872 L 11.75141,52.458454 L 11.75141,52.458454 L 11.751363,52.458454 z M 29.953511,49.872091 C 27.366071,49.545774 30.438041,54.459361 26.645831,52.632034 C 26.295931,51.572408 28.045151,48.559479 25.13859,49.887853 C 20.756174,47.627363 30.929691,39.570574 28.420301,47.004895 C 28.461371,48.122138 28.934091,49.304692 29.953511,49.872091 z M 27.311371,48.87519 C 28.078371,46.370627 26.633091,43.294964 25.279123,47.066515 C 22.930841,49.409413 25.762718,48.920103 27.311371,48.87519 z M 47.444571,52.458454 C 44.977161,53.257104 39.348051,51.951609 44.198221,49.645329 C 46.828341,47.924606 45.623801,42.154761 42.009111,44.538181 C 45.136141,39.343619 50.349731,47.418496 45.024881,49.367026 C 41.172661,53.366859 47.166771,49.902131 47.469921,51.218494 L 47.447321,51.761872 L 47.444621,52.458454 L 47.444621,52.458454 L 47.444571,52.458454 z M 49.954251,51.133902 C 52.573881,52.371599 47.418421,52.566405 49.954251,51.133902 z M 55.308231,42.79619 C 59.732951,43.550679 59.447221,51.043044 55.568721,52.292916 C 50.923131,52.172975 51.041291,43.514113 55.308231,42.79619 z M 55.308231,52.17263 C 59.849841,50.944522 55.802061,39.896155 53.633761,46.515654 C 53.284811,48.49189 53.454801,50.963057 55.308231,52.17263 z M 65.646721,49.872091 C 63.059281,49.545782 66.131251,54.459358 62.339051,52.632034 C 61.989131,51.57241 63.738361,48.559477 60.831801,49.887853 C 56.449391,47.62736 66.622901,39.570579 64.113511,47.004893 C 64.154581,48.122136 64.627301,49.304691 65.646721,49.872091 L 65.646721,49.872091 z M 63.004581,48.87519 C 63.771581,46.370628 62.326301,43.294964 60.972331,47.066515 C 58.624051,49.409411 61.455931,48.920104 63.004581,48.87519 z M 72.785361,49.872091 C 70.197921,49.545774 73.269891,54.45936 69.477691,52.632032 C 69.127781,51.572408 70.877001,48.559479 67.970441,49.887853 C 63.588041,47.627359 73.761541,39.570577 71.252151,47.004895 C 71.293221,48.122138 71.765941,49.304693 72.785361,49.872091 L 72.785361,49.872091 z M 70.143221,48.87519 C 70.910231,46.370628 69.464941,43.294964 68.110981,47.066515 C 65.762701,49.409411 68.594571,48.920104 70.143221,48.87519 z M 11.702563,66.624198 C 12.587369,62.271366 6.4620824,64.945896 9.7032694,66.675478 C 10.370142,66.664678 11.035408,66.507002 11.702563,66.624198 z M 10.608065,60.642796 C 10.529315,63.546028 16.854616,69.199052 12.589129,70.188488 C 13.107041,65.384645 6.8902574,66.381797 7.3310764,70.426313 C 5.0462174,68.08139 10.006729,63.793338 10.608065,60.642796 L 10.608065,60.642796 z M 22.605725,70.30506 C 18.019516,72.394098 22.702155,62.424487 18.138651,65.378165 C 17.640061,66.923449 19.193864,71.919584 16.023425,69.900275 C 17.953419,67.690994 14.786585,61.967505 20.025021,63.666314 C 23.202927,63.956512 20.539093,68.854175 22.605725,70.30506 z M 25.547626,68.095148 C 27.213281,69.591441 32.304851,71.194529 27.842801,73.235236 C 24.026937,74.710497 22.985704,70.452741 24.388257,67.849933 C 20.764063,63.366001 31.225861,61.626662 28.312261,66.700986 C 27.780921,67.646094 26.679571,68.463188 25.547626,68.095148 L 25.547626,68.095148 z M 26.105332,67.621098 C 30.076431,66.141523 22.631438,62.474631 24.952972,66.890615 C 25.167989,67.307548 25.615474,67.66536 26.105332,67.621098 z M 25.080547,70.416601 C 21.783082,74.50607 32.004501,71.158043 26.203161,70.462721 C 25.828267,70.470821 25.45473,70.432621 25.080547,70.416601 z M 33.474031,70.30506 C 28.567191,70.598841 32.900811,63.273669 31.317811,61.035183 C 34.522201,60.72216 30.902541,68.565196 33.474031,70.30506 z M 39.873711,68.722568 C 35.408171,75.40597 31.783421,60.14463 38.827921,64.282154 C 41.412401,67.228899 32.104591,66.817989 37.394781,69.364933 C 38.219391,69.712882 39.462581,69.687159 39.873711,68.722568 z M 38.430641,66.108319 C 37.743281,60.941034 33.714651,68.285662 38.430641,66.108319 z M 43.122351,70.507229 C 40.721211,71.689194 40.430021,67.396432 42.777461,69.812485 C 46.549481,68.232085 36.825001,64.574447 42.749621,63.922777 C 45.843481,64.053152 44.301621,64.773261 42.360201,64.363386 C 42.079211,66.916736 48.891901,69.139555 43.122351,70.507229 z M 11.116972,88.151666 C 8.3216264,88.710985 6.6048584,87.901133 8.6235364,85.487158 C 8.5770854,83.5699 6.8202684,76.369198 9.7949784,80.493673 C 10.297513,82.922482 7.7835644,86.988905 11.116972,88.151666 z M 29.597971,88.151666 C 27.130561,88.950316 21.501451,87.644823 26.351611,85.33854 C 28.981731,83.617817 27.777191,77.847972 24.162501,80.231395 C 27.289541,75.036835 32.503121,83.111705 27.178271,85.060235 C 23.326054,89.060072 29.320171,85.595339 29.623311,86.911707 L 29.600711,87.455085 L 29.598011,88.151666 L 29.598011,88.151666 L 29.597971,88.151666 z M 47.800111,85.565303 C 45.212671,85.238994 48.284651,90.152571 44.492441,88.325246 C 44.142531,87.265623 45.891761,84.252691 42.985191,85.581064 C 38.602781,83.320567 48.776301,75.263791 46.266911,82.698109 C 46.307981,83.81535 46.780691,84.997903 47.800111,85.565303 z M 45.157971,84.568402 C 45.924981,82.06384 44.479691,78.988176 43.125731,82.759727 C 40.777451,85.102623 43.609321,84.613316 45.157971,84.568402 z M 64.656791,88.151666 C 61.861451,88.710981 60.144671,87.901139 62.163351,85.487161 C 62.116901,83.569901 60.360081,76.369198 63.334801,80.49367 C 63.837331,82.92248 61.323381,86.988903 64.656791,88.151666 L 64.656791,88.151666 z M 69.585521,78.489402 C 74.010241,79.243888 73.724501,86.736257 69.846011,87.986127 C 65.200421,87.866185 65.318581,79.207328 69.585521,78.489402 z M 69.585521,87.865842 C 74.127131,86.637735 70.079351,75.589368 67.911041,82.208863 C 67.562091,84.1851 67.732091,86.656268 69.585521,87.865842 z M 78.369391,83.766699 C 72.402571,88.674222 73.379861,74.007937 78.728001,79.524384 C 82.624611,82.752852 76.463011,89.571446 75.341531,87.851564 C 77.036771,87.248626 78.344541,85.591018 78.369391,83.766699 z M 76.452281,84.282578 C 81.890171,84.024511 74.624991,75.219258 74.953191,82.032251 C 74.985801,82.958717 75.358931,84.192228 76.452281,84.282578 z M 82.078141,86.827114 C 84.697781,88.064811 79.542311,88.259617 82.078141,86.827114 z M 85.403471,82.497917 C 92.583101,79.132864 88.437801,92.070394 86.012071,88.049958 C 90.156871,87.416713 89.296491,82.077419 85.254981,82.816492 C 81.817591,79.699634 90.114421,76.819212 88.528701,79.581068 C 86.606731,79.341751 84.766101,80.291391 85.403471,82.497917 L 85.403471,82.497917 z M 92.911591,83.069567 C 98.877921,78.171512 97.893021,92.831351 92.550591,87.319272 C 88.656281,84.08845 94.817501,77.276763 95.938211,78.986952 C 94.242701,79.587737 92.934631,81.245686 92.911591,83.069567 L 92.911591,83.069567 z M 94.772931,87.879785 C 99.695911,86.98344 92.797131,79.399047 92.917661,85.202485 C 93.009731,86.278786 93.470021,87.809745 94.772931,87.879785 z"
     id="path2250"
     style="font-size:12px;font-style:normal;font-weight:normal;fill:#b8bab8;fill-opacity:1;stroke:none;font-family:Serif" />
  <path
     d="M 9.9707951,10.446811 C 16.46257,13.270888 3.6005934,18.96199 4.9994971,13.789059 C 6.5561231,10.822938 2.1964023,3.7899576 8.1684881,5.7243136 C 10.693538,6.1045986 13.25861,8.6546406 9.9707951,10.446811 z M 6.4990741,10.202815 C 10.380627,12.472641 10.356098,4.0145606 6.4990741,6.5149796 C 6.4990741,7.7442576 6.4990741,8.9735376 6.4990741,10.202815 z M 6.4990741,14.629609 C 10.739285,17.524469 10.790842,8.1592936 6.4990741,10.746578 C 6.4990741,12.040921 6.4990741,13.335266 6.4990741,14.629609 z M 16.579617,8.5994076 C 23.805053,8.9398456 15.584826,20.539595 13.546786,12.928392 C 13.128028,11.017799 14.31682,8.4003776 16.579617,8.5994076 L 16.579617,8.5994076 z M 16.809671,15.040918 C 22.076132,13.979588 14.222421,6.3007696 14.816502,12.2869 C 14.905412,13.406712 15.433834,15.046952 16.809671,15.040918 z M 27.085412,15.326742 C 22.499203,17.41578 27.181842,7.4461676 22.618339,10.399847 C 22.11975,11.945131 23.673552,16.941266 20.503113,14.921957 C 22.433107,12.712676 19.266273,6.9891866 24.504708,8.6879956 C 27.682614,8.9781936 25.01878,13.875857 27.085412,15.326742 L 27.085412,15.326742 z M 34.370455,14.824806 C 29.270491,18.775871 24.62783,8.7345846 31.58741,8.3480946 C 31.747318,6.4212456 32.82341,4.7201646 33.535278,7.6024006 C 33.882519,9.8927636 31.977638,13.236497 34.370455,14.824806 L 34.370455,14.824806 z M 32.216314,14.113731 C 34.426096,11.06337 28.761164,6.6951996 28.912938,12.067064 C 28.901488,13.697462 30.67409,15.751354 32.216314,14.113731 z M 37.312352,15.528911 C 34.911208,16.710873 34.620035,12.418113 36.967468,14.834168 C 40.739486,13.253765 31.015005,9.5961346 36.939628,8.9444586 C 40.033475,9.0748316 38.491625,9.7949396 36.55021,9.3850676 C 36.269221,11.938419 43.081913,14.161242 37.312356,15.528911 L 37.312352,15.528911 z M 9.2388061,33.173348 C 6.4434601,33.732667 4.7266921,32.922815 6.7453701,30.50884 C 6.6989191,28.591582 4.9421021,21.390879 7.9168121,25.515355 C 8.4193471,27.944164 5.9053981,32.010587 9.2388061,33.173348 z M 27.719803,33.173348 C 25.252394,33.971998 19.623285,32.666504 24.473447,30.360222 C 27.103567,28.6395 25.899028,22.869654 22.284335,25.253077 C 25.411371,20.058511 30.624959,28.133389 25.300107,30.081918 C 21.447889,34.081752 27.442002,30.617026 27.74515,31.933387 L 27.72255,32.476766 L 27.71985,33.173348 L 27.71985,33.173348 L 27.719803,33.173348 z M 44.932021,33.173348 C 42.136676,33.732664 40.419899,32.922821 42.43858,30.508841 C 42.39213,28.591582 40.635312,21.390881 43.610027,25.515351 C 44.112564,27.944161 41.598613,32.010584 44.932021,33.173348 z M 48.076086,31.848795 C 50.69572,33.086493 45.540254,33.281298 48.076086,31.848795 z M 53.430068,23.511084 C 57.85479,24.265573 57.569051,31.757938 53.690557,33.00781 C 49.044966,32.887869 49.163126,24.229007 53.430068,23.511084 z M 53.430068,32.887524 C 57.97168,31.659416 53.923896,20.611049 51.755592,27.230548 C 51.406646,29.206784 51.576637,31.677951 53.430068,32.887524 z M 63.413013,33.173348 C 60.945604,33.971998 55.316496,32.666503 60.166658,30.360223 C 62.796777,28.6395 61.592241,22.869655 57.977548,25.253075 C 61.104587,20.058515 66.318169,28.133391 60.99332,30.08192 C 57.1411,34.081753 63.135216,30.617025 63.43836,31.933388 L 63.41576,32.476766 L 63.41306,33.173348 L 63.41306,33.173348 L 63.413013,33.173348 z M 68.34872,27.519599 C 73.916554,28.335052 67.421016,36.790361 64.681795,32.34376 C 69.059071,35.45812 68.809379,28.260585 68.276049,26.868472 C 69.665364,23.1277 62.616672,26.050109 66.512885,23.838869 C 69.251281,22.534208 71.960005,26.26905 68.34872,27.519599 z M 9.8731971,51.019954 C 7.4057881,51.818604 1.7766803,50.513109 6.6268411,48.206828 C 9.2569601,46.486105 8.0524221,40.716261 4.4377301,43.099684 C 7.5647661,37.905119 12.778351,45.979995 7.4535011,47.928526 C 3.6012838,51.928358 9.5953931,48.463634 9.8985441,49.779993 L 9.8759441,50.323372 L 9.8731941,51.019954 L 9.8731941,51.019954 L 9.8731971,51.019954 z M 28.075341,48.433591 C 25.487903,48.107274 28.559873,53.020861 24.76767,51.193534 C 24.417763,50.133908 26.166989,47.120979 23.260424,48.449353 C 18.878008,46.188863 29.051522,38.132074 26.542132,45.566395 C 26.583202,46.683638 27.055922,47.866192 28.075341,48.433591 L 28.075341,48.433591 z M 25.433207,47.43669 C 26.20021,44.932127 24.754925,41.856464 23.400957,45.628015 C 21.052675,47.970913 23.884552,47.481603 25.433207,47.43669 L 25.433207,47.43669 z M 45.566407,51.019954 C 43.098998,51.818604 37.469889,50.513109 42.320052,48.206829 C 44.950171,46.486106 43.745635,40.716261 40.130942,43.099681 C 43.257979,37.905119 48.471564,45.979996 43.146714,47.928526 C 39.294494,51.928359 45.288609,48.463631 45.591754,49.779994 L 45.569154,50.323372 L 45.566454,51.019954 L 45.566454,51.019954 L 45.566407,51.019954 z M 48.076086,49.695402 C 50.69572,50.933099 45.540254,51.127905 48.076086,49.695402 z M 53.430068,41.35769 C 57.85479,42.112179 57.569051,49.604544 53.690557,50.854416 C 49.044966,50.734475 49.163126,42.075613 53.430068,41.35769 z M 53.430068,50.73413 C 57.97168,49.506022 53.923896,38.457655 51.755592,45.077154 C 51.406646,47.05339 51.576637,49.524557 53.430068,50.73413 z M 63.768551,48.433591 C 61.181116,48.107282 64.253087,53.020858 60.460883,51.193534 C 60.11097,50.13391 61.860199,47.120977 58.953635,48.449353 C 54.571226,46.18886 64.744735,38.132079 62.235347,45.566393 C 62.276417,46.683636 62.749135,47.866191 63.768551,48.433591 L 63.768551,48.433591 z M 61.126417,47.43669 C 61.89342,44.932128 60.448136,41.856464 59.094169,45.628015 C 56.74589,47.970911 59.577761,47.481604 61.126417,47.43669 z M 70.907193,48.433591 C 68.319756,48.107274 71.391727,53.02086 67.599526,51.193532 C 67.249617,50.133908 68.99884,47.120979 66.092279,48.449353 C 61.709871,46.188859 71.883374,38.132077 69.373985,45.566395 C 69.415055,46.683638 69.887775,47.866193 70.907193,48.433591 L 70.907193,48.433591 z M 68.265059,47.43669 C 69.032062,44.932128 67.586778,41.856464 66.232811,45.628015 C 63.884532,47.970911 66.716403,47.481604 68.265059,47.43669 z M 9.8243971,65.185698 C 10.709203,60.832866 4.5839161,63.507396 7.8251031,65.236978 C 8.4919761,65.226178 9.1572421,65.068502 9.8243971,65.185698 z M 8.7298991,59.204296 C 8.6511511,62.107528 14.97645,67.760552 10.710963,68.749988 C 11.228875,63.946145 5.0120911,64.943297 5.4529101,68.987813 C 3.1680507,66.64289 8.1285631,62.354838 8.7298991,59.204296 L 8.7298991,59.204296 z M 20.727559,68.86656 C 16.14135,70.955598 20.823989,60.985987 16.260485,63.939665 C 15.761895,65.484949 17.315698,70.481084 14.145259,68.461775 C 16.075253,66.252494 12.908419,60.529005 18.146855,62.227814 C 21.324761,62.518012 18.660927,67.415675 20.727559,68.86656 z M 23.66946,66.656648 C 25.335116,68.152941 30.426682,69.756029 25.964639,71.796736 C 22.148771,73.271997 21.107538,69.014241 22.510091,66.411433 C 18.885897,61.927501 29.347692,60.188162 26.434094,65.262486 C 25.902758,66.207594 24.80141,67.024688 23.66946,66.656648 z M 24.227166,66.182598 C 28.198269,64.703023 20.753272,61.036131 23.074806,65.452115 C 23.289823,65.869048 23.737308,66.22686 24.227166,66.182598 z M 23.202381,68.978101 C 19.904916,73.06757 30.126337,69.719543 24.324997,69.024221 C 23.950101,69.032321 23.576564,68.994121 23.202381,68.978101 z M 31.595866,68.86656 C 26.689025,69.160341 31.022644,61.835169 29.439647,59.596683 C 32.644037,59.28366 29.024376,67.126696 31.595866,68.86656 z M 37.995547,67.284068 C 33.530006,73.96747 29.905253,58.70613 36.949754,62.843654 C 39.534231,65.790399 30.226421,65.379489 35.516616,67.926433 C 36.341222,68.274382 37.584414,68.248659 37.995547,67.284068 z M 36.552476,64.669819 C 35.865111,59.502534 31.836489,66.847162 36.552476,64.669819 z M 41.244187,69.068729 C 38.843049,70.250694 38.551859,65.957932 40.899298,68.373985 C 44.671314,66.793585 34.946839,63.135947 40.871458,62.484277 C 43.96531,62.614652 42.42345,63.334761 40.482038,62.924886 C 40.201046,65.478236 47.013738,67.701055 41.244185,69.068729 L 41.244187,69.068729 z M 9.2388061,86.713166 C 6.4434601,87.272485 4.7266921,86.462633 6.7453701,84.048658 C 6.6989191,82.1314 4.9421021,74.930698 7.9168121,79.055173 C 8.4193471,81.483982 5.9053981,85.550405 9.2388061,86.713166 L 9.2388061,86.713166 z M 27.719803,86.713166 C 25.252394,87.511816 19.623285,86.206323 24.473447,83.90004 C 27.103567,82.179317 25.899028,76.409472 22.284335,78.792895 C 25.411372,73.598335 30.624957,81.673205 25.300108,83.621735 C 21.447888,87.621572 27.442004,84.156839 27.74515,85.473207 L 27.72255,86.016585 L 27.71985,86.713166 L 27.71985,86.713166 L 27.719803,86.713166 z M 45.921945,84.126803 C 43.33451,83.800494 46.406481,88.714071 42.614277,86.886746 C 42.264364,85.827123 44.013594,82.814191 41.107029,84.142564 C 36.724619,81.882067 46.898131,73.825291 44.388741,81.259609 C 44.429811,82.37685 44.902529,83.559403 45.921945,84.126803 L 45.921945,84.126803 z M 43.27981,83.129902 C 44.046814,80.62534 42.60153,77.549676 41.247563,81.321227 C 38.899284,83.664123 41.731155,83.174816 43.27981,83.129902 z M 62.778627,86.713166 C 59.983283,87.272481 58.266504,86.462639 60.285186,84.048661 C 60.238736,82.131401 58.481918,74.930698 61.456633,79.05517 C 61.95917,81.48398 59.445219,85.550403 62.778627,86.713166 L 62.778627,86.713166 z M 67.707352,77.050902 C 72.132076,77.805388 71.846337,85.297757 67.967843,86.547627 C 63.322255,86.427685 63.440412,77.768828 67.707352,77.050902 z M 67.707352,86.427342 C 72.248964,85.199235 68.201182,74.150868 66.032877,80.770363 C 65.68393,82.7466 65.853922,85.217768 67.707352,86.427342 z M 76.49123,82.328199 C 70.524404,87.235722 71.501694,72.569437 76.84984,78.085884 C 80.746449,81.314352 74.584849,88.132946 73.463366,86.413064 C 75.158609,85.810126 76.466376,84.152518 76.49123,82.328199 z M 74.574114,82.844078 C 80.012003,82.586011 72.746821,73.780758 73.07503,80.593751 C 73.10764,81.520217 73.480769,82.753728 74.574114,82.844078 z M 80.199977,85.388614 C 82.819612,86.626311 77.664145,86.821117 80.199977,85.388614 z M 83.525302,81.059417 C 90.704933,77.694364 86.559634,90.631894 84.133901,86.611458 C 88.278709,85.978213 87.418322,80.638919 83.376815,81.377992 C 79.939425,78.261134 88.236256,75.380712 86.650537,78.142568 C 84.72857,77.903251 82.887935,78.852891 83.525302,81.059417 z M 91.033425,81.631067 C 96.99976,76.733012 96.01486,91.392851 90.672423,85.880772 C 86.778117,82.64995 92.939335,75.838263 94.060047,77.548452 C 92.364534,78.149237 91.056462,79.807186 91.033425,81.631067 L 91.033425,81.631067 z M 92.89477,86.441285 C 97.81775,85.54494 90.918965,77.960547 91.039498,83.763985 C 91.131558,84.840286 91.591856,86.371245 92.89477,86.441285 z"
     id="text2227"
     style="font-size:12px;font-style:normal;font-weight:normal;fill:#000000;fill-opacity:1;stroke:none;font-family:Serif" />
</svg>
