<?xml version="1.0" encoding="UTF-8" standalone="no"?>
<!-- Created with Inkscape (http://www.inkscape.org/) -->
<svg
   xmlns:svg="http://www.w3.org/2000/svg"
   xmlns="http://www.w3.org/2000/svg"
   xmlns:xlink="http://www.w3.org/1999/xlink"
   version="1.0"
   width="100"
   height="100"
   id="svg2">
  <defs
     id="defs4">
    <linearGradient
       id="linearGradient3187">
      <stop
         id="stop3189"
         style="stop-color:#cccdff;stop-opacity:1"
         offset="0" />
      <stop
         id="stop3191"
         style="stop-color:#cccdca;stop-opacity:0.33333334"
         offset="1" />
    </linearGradient>
    <linearGradient
       id="linearGradient3384">
      <stop
         id="stop3386"
         style="stop-color:#0000ff;stop-opacity:1"
         offset="0" />
      <stop
         id="stop3388"
         style="stop-color:#000000;stop-opacity:1"
         offset="1" />
    </linearGradient>
    <linearGradient
       id="linearGradient3252">
      <stop
         id="stop3254"
         style="stop-color:#ffffff;stop-opacity:1"
         offset="0" />
      <stop
         id="stop3256"
         style="stop-color:#7f7fff;stop-opacity:0"
         offset="1" />
    </linearGradient>
    <linearGradient
       x1="25.398125"
       y1="63.345894"
       x2="90.625114"
       y2="63.345894"
       id="linearGradient3566"
       xlink:href="#linearGradient3384"
       gradientUnits="userSpaceOnUse"
       gradientTransform="matrix(0.2688926,0.2688926,-0.2688926,0.2688926,38.227733,-8.4494346)" />
    <radialGradient
       cx="58.01162"
       cy="63.345894"
       r="33.113495"
       fx="58.01162"
       fy="63.345894"
       id="radialGradient3568"
       xlink:href="#linearGradient3252"
       gradientUnits="userSpaceOnUse"
       gradientTransform="matrix(0.2134373,0,0,0.2134373,19.805211,5.9610473)" />
    <linearGradient
       x1="3.5899789"
       y1="36.400818"
       x2="97.023521"
       y2="36.400818"
       id="linearGradient2257"
       xlink:href="#linearGradient3187"
       gradientUnits="userSpaceOnUse" />
  </defs>
  <path
     d="M 92.54663,41.25526 C 69.83333,41.24329 52.85829,41.23434 21.27022,41.2177 C 21.28594,28.24564 37.26462,17.72601 56.93691,17.73637 C 76.6092,17.74674 92.56236,28.2832 92.54663,41.25526 z"
     id="path3830"
     style="fill:#e6e6e3;fill-opacity:1;fill-rule:evenodd;stroke:#e1e0e6;stroke-width:0.62617165px;stroke-linecap:butt;stroke-linejoin:miter;stroke-opacity:1" />
  <use
     transform="translate(-0.8163265,47.959184)"
     id="use2479"
     x="0"
     y="0"
     width="100"
     height="100"
     xlink:href="#path3830" />
  <path
     d="M 95.61571,19.10343 C 95.61644,23.25938 92.24758,26.62882 88.09163,26.62882 C 83.93568,26.62882 80.56682,23.25938 80.56755,19.10343 C 80.56682,14.94748 83.93568,11.57803 88.09163,11.57803 C 92.24758,11.57803 95.61644,14.94748 95.61571,19.10343 L 95.61571,19.10343 L 95.61571,19.10343 z"
     id="path3876"
     style="fill:#e6e6e3;fill-opacity:1;fill-rule:evenodd;stroke:#e1e0e6;stroke-width:0.23070447px;stroke-linecap:butt;stroke-linejoin:miter;stroke-opacity:1" />
  <use
     transform="translate(-30.816327,23.469388)"
     id="use2473"
     x="0"
     y="0"
     width="100"
     height="100"
     xlink:href="#path3876" />
  <use
     transform="matrix(1.1602579,0,0,1.1602579,-76.158403,44.081383)"
     id="use2475"
     x="0"
     y="0"
     width="100"
     height="100"
     xlink:href="#path3876" />
  <use
     transform="matrix(1.1201934,0,0,1.1201934,-41.506558,70.050834)"
     id="use2477"
     x="0"
     y="0"
     width="100"
     height="100"
     xlink:href="#path3876" />
  <path
     d="M 27.08733,67.18953 C 55.51219,91.124432 55.51119,91.123586 55.51119,91.123586"
     id="path3824"
     style="fill:none;stroke:#e1e0e6;stroke-width:3;stroke-linecap:round;stroke-linejoin:miter;stroke-miterlimit:4;stroke-dasharray:6, 3;stroke-dashoffset:0;stroke-opacity:1" />
  <path
     d="M 87.51803,19.23973 C 56.0998,43.35995 56.10091,43.3591 56.10091,43.3591"
     id="path3826"
     style="fill:none;stroke:#e1e0e6;stroke-width:2.5;stroke-linecap:round;stroke-linejoin:miter;stroke-miterlimit:4;stroke-dasharray:5, 2.5;stroke-dashoffset:0;stroke-opacity:1" />
  <path
     d="M 57.01741,51.65763 C 57.01741,81.096364 57.01741,81.095333 57.01741,81.095333"
     id="path3854"
     style="fill:#e6e6e3;fill-opacity:1;fill-rule:evenodd;stroke:#e1e0e6;stroke-width:3;stroke-linecap:round;stroke-linejoin:miter;stroke-miterlimit:4;stroke-dasharray:6, 3;stroke-dashoffset:0;stroke-opacity:1" />
  <path
     d="M 48.269164,44.235769 C 48.269164,73.6745 48.269164,73.673469 48.269164,73.673469"
     id="path3818"
     style="fill:none;stroke:#000000;stroke-width:3;stroke-linecap:round;stroke-linejoin:miter;stroke-miterlimit:4;stroke-dasharray:6, 3;stroke-dashoffset:0;stroke-opacity:1" />
  <g
     transform="matrix(0.7711099,4.0640796e-4,-6.163229e-4,0.5084757,9.4048258,3.5351817)"
     id="g2239">
    <path
       d="M 96.52352,59.509204 C 67.068177,59.509204 45.054405,59.509204 4.089979,59.509204 C 4.089979,33.997547 24.795092,13.292434 50.306749,13.292434 C 75.818406,13.292434 96.52352,33.997547 96.52352,59.509204 z"
       id="path2241"
       style="fill:url(#linearGradient2257);fill-opacity:1;fill-rule:evenodd;stroke:#000000;stroke-width:1px;stroke-linecap:butt;stroke-linejoin:miter;stroke-opacity:1" />
    <path
       d="M 49.946865,59.191757 L 16.406253,44.970273 M 50.235165,58.898277 L 50.306755,21.911679 M 50.611846,59.057108 L 84.207245,44.970273 M 87.000381,59.26463 L 49.946865,59.337502 L 13.613118,59.26463 M 24.360434,32.852106 L 50.10289,58.954052 L 36.264704,24.755004 M 64.348795,24.755004 L 50.51061,58.954052 L 76.253065,32.852106"
       id="path2243"
       style="fill:none;stroke:#000000;stroke-width:0.64609098;stroke-linecap:round;stroke-linejoin:round;stroke-miterlimit:4;stroke-dasharray:none;stroke-dashoffset:0;stroke-opacity:1" />
    <text
       x="16.601501"
       y="32.732803"
       id="text2245"
       xml:space="preserve"
       style="font-size:6.36857796px;font-style:normal;font-weight:normal;fill:#000000;fill-opacity:1;stroke:none;font-family:Bitstream Vera Sans"><tspan
         x="16.601501"
         y="32.732803"
         id="tspan2247">45</tspan></text>
    <text
       x="45.530113"
       y="19.400709"
       id="text2249"
       xml:space="preserve"
       style="font-size:6.36857796px;font-style:normal;font-weight:normal;fill:#000000;fill-opacity:1;stroke:none;font-family:Bitstream Vera Sans"><tspan
         x="45.530113"
         y="19.400709"
         id="tspan2251">90</tspan></text>
    <text
       x="72.773872"
       y="32.981483"
       id="text2253"
       xml:space="preserve"
       style="font-size:6.36857796px;font-style:normal;font-weight:normal;fill:#000000;fill-opacity:1;stroke:none;font-family:Bitstream Vera Sans"><tspan
         x="72.773872"
         y="32.981483"
         id="tspan2255">135</tspan></text>
  </g>
  <use
     transform="translate(0.2040816,48.367347)"
     id="use2471"
     x="0"
     y="0"
     width="100"
     height="100"
     xlink:href="#g2239" />
  <path
     d="M 18.339092,59.767662 C 46.763952,83.702568 46.762948,83.701722 46.762948,83.701722"
     id="path3820"
     style="fill:none;stroke:#000000;stroke-width:3;stroke-linecap:round;stroke-linejoin:miter;stroke-miterlimit:4;stroke-dasharray:6, 3;stroke-dashoffset:0;stroke-opacity:1" />
  <path
     d="M 78.769786,11.817867 C 47.351554,35.938086 47.352664,35.937234 47.352664,35.937234"
     id="path3822"
     style="fill:none;stroke:#000000;stroke-width:2.5;stroke-linecap:round;stroke-linejoin:miter;stroke-miterlimit:4;stroke-dasharray:5, 2.5;stroke-dashoffset:0;stroke-opacity:1" />
  <g
     transform="matrix(0.6066835,0,0,0.6066835,57.099469,-3.0176416)"
     id="g3558">
    <path
       d="M 49.066773,24.22879 C 49.067973,31.079065 43.515064,36.632947 36.664788,36.632947 C 29.814513,36.632947 24.261604,31.079065 24.262803,24.22879 C 24.261603,17.378514 29.814513,11.824633 36.664788,11.824633 C 43.515064,11.824633 49.067972,17.378514 49.066773,24.22879 L 49.066773,24.22879 L 49.066773,24.22879 z"
       id="path3560"
       style="fill:#0000ff;fill-opacity:1;fill-rule:evenodd;stroke:#000000;stroke-width:0.38027155px;stroke-linecap:butt;stroke-linejoin:miter;stroke-opacity:1" />
    <path
       d="M 45.562914,32.95223 C 40.719885,37.796953 32.866199,37.797641 28.022324,32.95373 C 23.178446,28.109853 23.179135,20.256167 28.023824,15.41314 C 32.866852,10.568415 40.720538,10.567727 45.564415,15.41164 C 50.40829,20.255516 50.407602,28.109203 45.562915,32.952231 L 45.562915,32.952231 L 45.562914,32.95223 z"
       id="path3562"
       style="opacity:0.71739131;fill:url(#linearGradient3566);fill-opacity:1;fill-rule:evenodd;stroke:none" />
    <path
       d="M 39.147988,19.481422 C 39.148661,23.326315 36.031948,26.443576 32.187053,26.443576 C 28.342159,26.443576 25.225445,23.326315 25.226118,19.481422 C 25.225445,15.636527 28.342159,12.519268 32.187053,12.519268 C 36.031948,12.519268 39.148661,15.636527 39.147988,19.481422 L 39.147988,19.481422 z"
       id="path3564"
       style="fill:url(#radialGradient3568);fill-opacity:1;fill-rule:evenodd;stroke:none" />
  </g>
  <use
     transform="matrix(1.146903,0,0,1.146903,-74.206995,45.120678)"
     id="use2458"
     x="0"
     y="0"
     width="100"
     height="100"
     xlink:href="#g3558" />
  <use
     transform="matrix(1.146903,0,0,1.146903,-42.778424,70.018637)"
     id="use2460"
     x="0"
     y="0"
     width="100"
     height="100"
     xlink:href="#g3558" />
  <use
     transform="translate(-31.22449,23.265306)"
     id="use2456"
     x="0"
     y="0"
     width="100"
     height="100"
     xlink:href="#g3558" />
</svg>
