<?xml version="1.0" encoding="UTF-8" standalone="no"?>
<!-- Created with Inkscape (http://www.inkscape.org/) -->
<svg
   xmlns:svg="http://www.w3.org/2000/svg"
   xmlns="http://www.w3.org/2000/svg"
   xmlns:xlink="http://www.w3.org/1999/xlink"
   version="1.0"
   width="100"
   height="100"
   id="svg2">
  <defs
     id="defs4" />
  <rect
     width="35.190884"
     height="35.190884"
     x="18.826889"
     y="8.7596207"
     id="rect2359"
     style="fill:#282828;fill-opacity:1;fill-rule:evenodd;stroke:none" />
  <use
     transform="translate(41.852985,27.510381)"
     id="use2698"
     style="fill:#282828;fill-opacity:1"
     x="0"
     y="0"
     width="100"
     height="100"
     xlink:href="#rect2359" />
  <use
     transform="translate(-11.761771,52.608638)"
     id="use2700"
     style="fill:#282828;fill-opacity:1"
     x="0"
     y="0"
     width="100"
     height="100"
     xlink:href="#rect2359" />
  <path
     d="M 65.537781,49.655989 L 72.473321,92.914837 L 82.789161,86.958979 L 89.717041,98.958415 L 96.145311,95.247047 L 89.217431,83.247617 L 99.533271,77.291764 L 65.537781,49.655989 L 65.537781,49.655989 z"
     id="path2375"
     style="fill:#282828;fill-opacity:1;fill-rule:evenodd;stroke:none" />
  <g
     transform="matrix(1.8306746,0,0,1.8306746,-82.348165,-94.337006)"
     id="g2249">
    <rect
       width="19.222904"
       height="19.222904"
       x="53.435287"
       y="53.225677"
       id="rect3211"
       style="fill:#e80000;fill-opacity:1;fill-rule:evenodd;stroke:#000000;stroke-width:1.5;stroke-linecap:round;stroke-linejoin:round;stroke-miterlimit:4;stroke-dasharray:none;stroke-dashoffset:0;stroke-opacity:1" />
    <path
       d="M 61.040337,59.016609 L 59.434868,63.370125 L 62.651665,63.370125 L 61.040337,59.016609 M 60.372368,57.850594 L 61.714165,57.850594 L 65.048149,66.59864 L 63.81768,66.59864 L 63.020805,64.3545 L 59.077446,64.3545 L 58.280571,66.59864 L 57.032524,66.59864 L 60.372368,57.850594 M 66.272758,57.481453 L 67.350883,57.481453 L 67.350883,66.59864 L 66.272758,66.59864 L 66.272758,57.481453"
       id="text3318"
       style="font-size:12px;font-style:normal;font-weight:normal;fill:#000000;fill-opacity:1;stroke:none;font-family:Bitstream Vera Sans" />
  </g>
  <g
     transform="matrix(1.8306746,0,0,1.8306746,49.191674,-67.289315)"
     id="g2286">
    <rect
       width="19.222904"
       height="19.222904"
       x="4.2703981"
       y="53.225677"
       id="rect2288"
       style="fill:#004fe1;fill-opacity:1;fill-rule:evenodd;stroke:#000000;stroke-width:1.5;stroke-linecap:round;stroke-linejoin:round;stroke-miterlimit:4;stroke-dasharray:none;stroke-dashoffset:0;stroke-opacity:1" />
    <path
       d="M 6.8920202,57.578484 L 8.4857702,57.578484 L 12.364676,64.896843 L 12.364676,57.578484 L 13.513114,57.578484 L 13.513114,66.32653 L 11.919364,66.32653 L 8.0404577,59.008171 L 8.0404577,66.32653 L 6.8920202,66.32653 L 6.8920202,57.578484 M 18.80413,63.027702 C 17.933033,63.027706 17.329518,63.127312 16.993583,63.32653 C 16.657643,63.525752 16.489675,63.865595 16.489676,64.346062 C 16.489675,64.728876 16.614675,65.033563 16.864676,65.260124 C 17.11858,65.482781 17.46233,65.594109 17.895926,65.594109 C 18.493579,65.594109 18.972094,65.383172 19.331473,64.961296 C 19.69475,64.535517 19.87639,63.971064 19.876395,63.267937 L 19.876395,63.027702 L 18.80413,63.027702 M 20.95452,62.58239 L 20.95452,66.32653 L 19.876395,66.32653 L 19.876395,65.330437 C 19.630297,65.728875 19.323656,66.023796 18.956473,66.215202 C 18.589282,66.402702 18.140064,66.496452 17.608817,66.496452 C 16.93694,66.496452 16.401784,66.308952 16.003348,65.933952 C 15.608816,65.555047 15.411551,65.049188 15.411551,64.416374 C 15.411551,63.678096 15.657644,63.121456 16.149833,62.746452 C 16.645925,62.371456 17.384205,62.183956 18.364676,62.183952 L 19.876395,62.183952 L 19.876395,62.078484 C 19.87639,61.582395 19.712328,61.199582 19.384208,60.930046 C 19.059985,60.656614 18.602954,60.519896 18.013114,60.51989 C 17.638111,60.519896 17.272877,60.56482 16.917411,60.654655 C 16.56194,60.744505 16.220144,60.87927 15.89202,61.058952 L 15.89202,60.062859 C 16.28655,59.910521 16.669362,59.79724 17.040458,59.723015 C 17.411549,59.644895 17.772877,59.605834 18.124442,59.605827 C 19.073656,59.605834 19.78264,59.851928 20.251395,60.344109 C 20.720139,60.836302 20.954514,61.582395 20.95452,62.58239"
       id="path2290"
       style="font-size:12px;font-style:normal;font-weight:normal;fill:#000000;fill-opacity:1;stroke:none;font-family:Bitstream Vera Sans" />
  </g>
  <g
     transform="matrix(1.8306746,0,0,1.8306746,-5.1195874,47.251093)"
     id="g2300">
    <rect
       width="19.222904"
       height="19.222904"
       x="4.4989777"
       y="4.7034764"
       id="rect2302"
       style="fill:#e4e7e1;fill-opacity:1;fill-rule:evenodd;stroke:#000000;stroke-width:1.5;stroke-linecap:round;stroke-linejoin:round;stroke-miterlimit:4;stroke-dasharray:none;stroke-dashoffset:0;stroke-opacity:1" />
    <path
       d="M 10.1248,8.9966755 L 11.308393,8.9966755 L 11.308393,12.582613 L 15.609175,12.582613 L 15.609175,8.9966755 L 16.792768,8.9966755 L 16.792768,17.744722 L 15.609175,17.744722 L 15.609175,13.578707 L 11.308393,13.578707 L 11.308393,17.744722 L 10.1248,17.744722 L 10.1248,8.9966755"
       id="path2304"
       style="font-size:12px;font-style:normal;font-weight:normal;fill:#000000;fill-opacity:1;stroke:none;font-family:Bitstream Vera Sans" />
  </g>
  <path
     d="M 62.597709,47.397075 L 69.533249,90.655919 L 79.849089,84.700065 L 86.776969,96.6995 L 93.205239,92.988137 L 86.277359,80.988703 L 96.593199,75.03285 L 62.597709,47.397075 L 62.597709,47.397075 z"
     id="path6783"
     style="fill:#ffffff;fill-opacity:1;fill-rule:evenodd;stroke:#000000;stroke-width:1.69662297;stroke-linecap:round;stroke-linejoin:round;stroke-miterlimit:4;stroke-dashoffset:0;stroke-opacity:1" />
</svg>
