<?xml version="1.0" encoding="UTF-8" standalone="no"?>
<!-- Created with Inkscape (http://www.inkscape.org/) -->
<svg
   xmlns:svg="http://www.w3.org/2000/svg"
   xmlns="http://www.w3.org/2000/svg"
   xmlns:xlink="http://www.w3.org/1999/xlink"
   version="1.0"
   width="100"
   height="100"
   id="svg2">
  <defs
     id="defs4">
    <linearGradient
       id="linearGradient3461">
      <stop
         id="stop3463"
         style="stop-color:#ffffff;stop-opacity:1"
         offset="0" />
      <stop
         id="stop3465"
         style="stop-color:#008a00;stop-opacity:0"
         offset="1" />
    </linearGradient>
    <linearGradient
       id="linearGradient3449">
      <stop
         id="stop3451"
         style="stop-color:#00db00;stop-opacity:1"
         offset="0" />
      <stop
         id="stop3453"
         style="stop-color:#009d00;stop-opacity:0"
         offset="1" />
    </linearGradient>
    <linearGradient
       x1="8.6629601"
       y1="60.74017"
       x2="30.595095"
       y2="60.74017"
       id="linearGradient2448"
       xlink:href="#linearGradient3449"
       gradientUnits="userSpaceOnUse" />
    <radialGradient
       cx="15.556526"
       cy="56.583721"
       r="6.1542277"
       fx="15.556526"
       fy="56.583721"
       id="radialGradient2450"
       xlink:href="#linearGradient3461"
       gradientUnits="userSpaceOnUse"
       gradientTransform="matrix(1,0,0,1.0001751,0,-9.90642e-3)" />
    <linearGradient
       x1="8.6629601"
       y1="60.74017"
       x2="30.595095"
       y2="60.74017"
       id="linearGradient2464"
       xlink:href="#linearGradient3449"
       gradientUnits="userSpaceOnUse" />
    <radialGradient
       cx="15.556526"
       cy="56.583721"
       r="6.1542277"
       fx="15.556526"
       fy="56.583721"
       id="radialGradient2466"
       xlink:href="#linearGradient3461"
       gradientUnits="userSpaceOnUse"
       gradientTransform="matrix(1,0,0,1.0001751,0,-9.90642e-3)" />
    <linearGradient
       x1="8.6629601"
       y1="60.74017"
       x2="30.595095"
       y2="60.74017"
       id="linearGradient2480"
       xlink:href="#linearGradient3449"
       gradientUnits="userSpaceOnUse" />
    <radialGradient
       cx="15.556526"
       cy="56.583721"
       r="6.1542277"
       fx="15.556526"
       fy="56.583721"
       id="radialGradient2482"
       xlink:href="#linearGradient3461"
       gradientUnits="userSpaceOnUse"
       gradientTransform="matrix(1,0,0,1.0001751,0,-9.90642e-3)" />
  </defs>
  <path
     d="M 83.779798,29.249793 C 83.780524,33.404467 80.412703,36.772881 76.258026,36.772881 C 72.10335,36.772881 68.735528,33.404467 68.736255,29.249793 C 68.735528,25.09512 72.10335,21.726706 76.258026,21.726706 C 80.412703,21.726706 83.780524,25.09512 83.779798,29.249793 L 83.779798,29.249793 z"
     id="path3576"
     style="fill:#e1e7e1;fill-opacity:1;fill-rule:evenodd;stroke:none" />
  <path
     d="M 83.779791,54.040703 C 83.780518,58.195377 80.412696,61.56379 76.25802,61.56379 C 72.103343,61.56379 68.735522,58.195377 68.736248,54.040703 C 68.735522,49.88603 72.103343,46.517615 76.25802,46.517615 C 80.412696,46.517615 83.780518,49.88603 83.779791,54.040703 L 83.779791,54.040703 z"
     id="path2454"
     style="fill:#e1e7e1;fill-opacity:1;fill-rule:evenodd;stroke:none" />
  <path
     d="M 84.194442,78.799312 C 84.195169,82.953986 80.827347,86.322399 76.672671,86.322399 C 72.517995,86.322399 69.150173,82.953986 69.150899,78.799312 C 69.150173,74.644639 72.517995,71.276225 76.672671,71.276225 C 80.827347,71.276225 84.195169,74.644639 84.194442,78.799312 L 84.194442,78.799312 z"
     id="path2470"
     style="fill:#e1e7e1;fill-opacity:1;fill-rule:evenodd;stroke:none" />
  <path
     d="M 3.3394741,12.258683 C 1.6654054,12.222008 2.9316042,9.2450652 2.5376239,7.9283019 C 2.3026025,6.4170087 3.399403,3.3230812 0.93393395,5.425484 C 0.66287748,3.6984062 4.3906322,1.6698504 3.3394741,4.8837841 C 3.3394741,7.3420841 3.3394741,9.8003828 3.3394741,12.258683 z M 10.61398,7.6988745 C 8.9839347,3.8001346 16.493004,0.7570555 16.026429,5.1062964 C 12.179548,0.7657542 9.3162155,9.9492413 13.37338,11.354864 C 15.089226,11.163016 17.942932,9.6009928 15.283604,12.107232 C 12.375788,13.58093 10.346719,10.264859 10.61398,7.6988745 z M 4.5912404,28.934553 C 3.3403719,28.52194 0.35833296,29.840497 0.41274,28.122607 C 2.9890857,25.921905 5.4546425,19.377699 0.63194268,20.70911 C 3.8281186,16.832252 6.1493947,24.48142 2.4827508,26.473708 C 0.23811075,28.399524 3.0877598,27.799112 4.5912404,27.866257 C 4.5912404,28.222356 4.5912404,28.578454 4.5912404,28.934553 L 4.5912404,28.934553 z M 10.61398,24.374747 C 8.9839324,20.476005 16.493008,17.432928 16.026429,21.78217 C 12.17955,17.441626 9.3162143,26.625113 13.37338,28.030736 C 15.089226,27.838888 17.942932,26.276863 15.283604,28.783104 C 12.375787,30.256801 10.346719,26.940731 10.61398,24.374746 L 10.61398,24.374747 L 10.61398,24.374747 z M 25.131813,28.934553 C 23.45776,28.897863 24.723953,25.920933 24.329974,24.604172 C 24.094953,23.092883 25.191752,19.998952 22.726284,22.101356 C 22.45523,20.37428 26.182972,18.345725 25.131813,21.559657 C 25.131813,24.017956 25.131813,26.476254 25.131813,28.934553 z M 28.178822,27.494959 C 30.330478,29.401619 26.092968,29.468026 28.178821,27.494958 L 28.178822,27.494959 z M 34.23721,26.908697 C 32.741125,26.319019 33.276649,31.020166 32.495422,27.851958 C 33.138834,25.602655 28.875866,28.259731 29.702334,25.827371 C 30.682365,23.777628 31.662395,21.727886 32.642426,19.678143 C 34.092199,19.89011 32.918403,22.725645 33.297264,24.008524 C 32.597332,26.44092 34.537715,25.090536 34.23721,26.908697 L 34.23721,26.908697 z M 32.495422,25.827371 C 32.322161,24.913569 32.877887,20.758407 32.147789,22.320512 C 32.022372,23.446734 29.30432,26.213531 31.56895,25.827371 C 31.877773,25.827371 32.186598,25.827371 32.495422,25.827371 z M 42.879308,28.934553 C 41.205251,28.897873 42.471445,25.920933 42.077466,24.604172 C 41.842445,23.092883 42.939244,19.998952 40.473776,22.101356 C 40.202718,20.37428 43.930468,18.345725 42.879308,21.559657 C 42.879308,24.017956 42.879308,26.476254 42.879308,28.934553 z M 3.3661928,40.555552 C 7.6304631,42.823916 0.66140127,48.613623 0.51964498,44.007979 C 4.0215818,46.762613 4.3718557,41.04057 1.8916965,40.574461 C 4.8854119,39.466423 2.679127,36.291874 0.61175687,37.385564 C 2.0423885,33.880648 6.4272351,38.677538 3.3661928,40.555552 z M 16.044248,45.610428 C 14.247679,45.816907 14.368151,43.046786 13.433931,41.914291 C 12.906162,41.158303 11.672659,37.142844 11.683106,38.872635 C 11.683106,41.118565 11.683106,43.364496 11.683106,45.610428 C 10.062138,45.532538 11.308001,42.587805 10.916894,41.280047 C 11.094716,39.747356 10.559444,37.50157 11.187543,36.419154 C 12.730937,36.605848 12.729359,39.192292 13.640454,40.361113 C 14.171565,41.12541 15.44654,45.322565 15.286946,42.899329 C 15.286946,40.739271 15.286946,38.579213 15.286946,36.419154 C 16.894516,36.507484 15.653935,39.443954 16.044248,40.749534 C 16.044248,42.369833 16.044248,43.99013 16.044248,45.610428 L 16.044248,45.610428 z M 25.131813,45.610428 C 23.45776,45.573748 24.723953,42.596808 24.329974,41.280047 C 24.094953,39.768756 25.191753,36.674826 22.726284,38.777227 C 22.45523,37.050151 26.182972,35.021597 25.131813,38.235529 C 25.131813,40.693829 25.131813,43.152129 25.131813,45.610428 z M 28.178822,44.170829 C 30.330478,46.077492 26.092969,46.143897 28.178821,44.17083 L 28.178822,44.170829 z M 30.918464,40.047458 C 37.139174,38.761033 32.420776,49.600125 29.887659,44.419909 C 31.32568,45.754958 35.008953,43.203188 32.312778,40.991994 C 29.306605,42.061319 30.413027,38.844647 30.223528,37.098687 C 30.012841,35.976423 33.781441,36.065252 33.773922,36.960451 C 33.462364,38.317678 29.842924,36.367023 30.918464,39.111348 C 30.918464,39.423384 30.918464,39.735421 30.918464,40.047458 z M 44.131072,45.610428 C 42.880203,45.197814 39.898165,46.51637 39.952571,44.798481 C 42.528918,42.597786 44.994476,36.053572 40.171786,37.384981 C 43.367958,33.508123 45.689231,41.157294 42.022591,43.149579 C 39.777955,45.075392 42.627592,44.474983 44.131072,44.542127 C 44.131072,44.898227 44.131072,45.254327 44.131072,45.610428 L 44.131072,45.610428 z M 53.018179,45.610428 C 51.344123,45.573748 52.610317,42.596808 52.216337,41.280047 C 51.981316,39.768755 53.078117,36.674827 50.612649,38.777227 C 50.341596,37.050151 54.069337,35.021597 53.018179,38.235529 C 53.018179,40.693829 53.018179,43.152129 53.018179,45.610428 z M 59.446298,40.952909 C 60.874744,44.499633 55.767505,48.184201 55.362458,43.092763 C 54.086376,40.380003 56.691833,33.059958 59.14811,38.085117 C 59.392706,39.019893 59.442573,39.991284 59.446297,40.952908 L 59.446298,40.952909 L 59.446298,40.952909 z M 57.339233,44.783147 C 60.45349,43.638304 57.863642,33.573328 56.135348,39.363492 C 56.200028,41.032723 55.485686,43.904821 57.339233,44.783147 z M 63.713892,41.500083 C 59.127855,46.196649 59.491296,32.290502 63.958901,37.441855 C 65.845291,40.03296 63.750777,48.601266 60.628921,44.580727 C 62.166606,45.339952 64.116587,44.106169 63.713893,41.500084 L 63.713892,41.500083 L 63.713892,41.500083 z M 62.364121,41.597793 C 65.954507,40.589304 61.245927,34.253738 61.094535,39.435141 C 61.090435,40.238483 61.312731,41.562159 62.364121,41.597793 z M 70.783492,45.610426 C 69.109437,45.573746 70.375631,42.596806 69.981651,41.280045 C 69.74663,39.768754 70.843429,36.674823 68.37796,38.777225 C 68.106903,37.050149 71.834652,35.021596 70.783492,38.235527 C 70.783492,40.693827 70.783492,43.152127 70.783492,45.610426 z M 4.8362484,60.260439 C 3.3401663,59.670763 3.8756911,64.37191 3.0944664,61.203703 C 3.7378781,58.954395 -0.52509614,61.611473 0.30136619,59.179115 C 1.2814,57.129372 2.2614339,55.079629 3.2414677,53.029885 C 4.6912408,53.241852 3.5174442,56.077387 3.8963057,57.360266 C 3.1963755,59.792657 5.1367526,58.442284 4.8362484,60.260439 L 4.8362484,60.260439 z M 3.0944664,59.179115 C 2.9212045,58.265314 3.4769312,54.110151 2.7468332,55.672256 C 2.6214152,56.798478 -0.09663689,59.565276 2.167992,59.179115 C 2.4768168,59.179115 2.7856416,59.179115 3.0944664,59.179115 L 3.0944664,59.179115 z M 10.61398,57.726489 C 8.9839324,53.827747 16.49301,50.784672 16.026429,55.133915 C 12.179552,50.793367 9.3162132,59.976856 13.37338,61.382478 C 15.089225,61.190631 17.942933,59.628609 15.283604,62.134847 C 12.375787,63.608545 10.34672,60.292474 10.61398,57.726489 L 10.61398,57.726489 z M 25.131813,62.286297 C 23.45776,62.249617 24.723953,59.272678 24.329974,57.955917 C 24.094953,56.444626 25.191752,53.350695 22.726284,55.453099 C 22.455231,53.726024 26.182972,51.697467 25.131813,54.911399 C 25.131813,57.369699 25.131813,59.827999 25.131813,62.286297 L 25.131813,62.286297 z M 28.178822,60.846703 C 30.330478,62.753362 26.092968,62.81977 28.178821,60.846701 L 28.178822,60.846703 z M 34.23721,60.260439 C 32.741125,59.670761 33.276649,64.371911 32.495422,61.203703 C 33.138837,58.954396 28.875868,61.611473 29.702334,59.179115 C 30.682365,57.129372 31.662395,55.079629 32.642426,53.029885 C 34.092199,53.241852 32.918403,56.077387 33.297264,57.360266 C 32.597333,59.792661 34.537713,58.442283 34.23721,60.260439 z M 32.495422,59.179115 C 32.322161,58.265314 32.877887,54.110151 32.147789,55.672256 C 32.022372,56.798478 29.30432,59.565276 31.56895,59.179115 C 31.877773,59.179115 32.186598,59.179115 32.495422,59.179115 z M 42.906032,57.231422 C 47.170298,59.49979 40.201236,65.289494 40.059489,60.683849 C 43.561423,63.438482 43.911686,57.716434 41.431528,57.25033 C 44.425237,56.142303 42.218978,52.967743 40.151592,54.061436 C 41.582209,50.556522 45.967073,55.3534 42.906032,57.231422 L 42.906032,57.231422 z M 53.018179,62.286297 C 51.344123,62.249617 52.610317,59.272678 52.216337,57.955917 C 51.981316,56.444624 53.078117,53.350696 50.612649,55.453099 C 50.341597,53.726024 54.069338,51.697467 53.018179,54.911399 C 53.018179,57.369699 53.018179,59.827999 53.018179,62.286297 L 53.018179,62.286297 z M 59.446298,57.628779 C 60.874744,61.175503 55.767503,64.860075 55.362458,59.768634 C 54.086376,57.055873 56.691833,49.735832 59.14811,54.76099 C 59.392705,55.695764 59.442573,56.667155 59.446297,57.628779 L 59.446298,57.628779 L 59.446298,57.628779 z M 57.339233,61.459017 C 60.45349,60.314175 57.863642,50.249199 56.135348,56.039364 C 56.200028,57.708593 55.485686,60.580695 57.339233,61.459018 L 57.339233,61.459017 z M 63.713892,58.175958 C 59.127851,62.872513 59.491299,48.966378 63.958901,54.117726 C 65.84529,56.708831 63.750779,65.277138 60.628921,61.256599 C 62.16661,62.015824 64.116585,60.782036 63.713893,58.175956 L 63.713892,58.175958 L 63.713892,58.175958 z M 62.364121,58.273658 C 65.954508,57.265172 61.245926,50.929604 61.094535,56.111008 C 61.090435,56.914349 61.312731,58.238026 62.364121,58.273659 L 62.364121,58.273658 z M 72.035257,62.286291 C 70.78439,61.873676 67.802352,63.192234 67.85676,61.474344 C 70.433104,59.273644 72.898665,52.729438 68.07597,54.060845 C 71.272148,50.183988 73.593416,57.833155 69.926777,59.825445 C 67.682142,61.751257 70.531775,61.150852 72.035257,61.217995 C 72.035257,61.574094 72.035257,61.930192 72.035257,62.286291 L 72.035257,62.286291 z M 82.272134,57.628774 C 83.70059,61.175496 78.593336,64.860072 78.188303,59.768629 C 76.912232,57.05587 79.517665,49.735827 81.973953,54.760985 C 82.218549,55.695759 82.268412,56.667152 82.272135,57.628774 L 82.272134,57.628774 z M 80.165069,61.459012 C 83.279343,60.31418 80.689475,50.249191 78.961189,56.03936 C 79.025879,57.70859 78.311519,60.580688 80.165071,61.459013 L 80.165069,61.459012 L 80.165069,61.459012 z M 83.96937,60.846699 C 86.121034,62.753374 81.883502,62.819752 83.96937,60.846696 L 83.96937,60.846699 z M 89.880746,57.628774 C 91.309193,61.175495 86.201948,64.860073 85.796915,59.768629 C 84.520836,57.055873 87.12628,49.735827 89.582558,54.760985 C 89.827152,55.695759 89.877021,56.667151 89.880745,57.628774 L 89.880746,57.628774 L 89.880746,57.628774 z M 87.77368,61.459012 C 90.887948,60.314175 88.298088,50.249194 86.569796,56.03936 C 86.634476,57.708589 85.920134,60.580688 87.77368,61.459013 L 87.77368,61.459012 L 87.77368,61.459012 z M 98.669856,62.286293 C 96.995788,62.249623 98.261987,59.272675 97.868006,57.955912 C 97.632985,56.444619 98.729785,53.350691 96.264316,55.453094 C 95.993261,53.726019 99.721014,51.697462 98.669856,54.911394 C 98.669856,57.369694 98.669856,59.827994 98.669856,62.286293 z M 4.8362484,76.936313 C 3.3401672,76.346637 3.8756907,81.047778 3.0944664,77.879572 C 3.7378737,75.630271 -0.52509705,78.287347 0.30136619,75.85499 C 1.2814,73.805246 2.2614339,71.755502 3.2414677,69.705759 C 4.6912408,69.917726 3.5174442,72.753262 3.8963057,74.03614 C 3.1963755,76.468532 5.1367526,75.118158 4.8362484,76.936313 L 4.8362484,76.936313 z M 3.0944664,75.85499 C 2.9212048,74.941186 3.4769305,70.786025 2.7468335,72.348126 C 2.6214151,73.474349 -0.09663553,76.241149 2.167992,75.85499 C 2.4768168,75.85499 2.7856416,75.85499 3.0944664,75.85499 L 3.0944664,75.85499 z M 10.61398,74.402364 C 8.9839313,70.503621 16.493007,67.460541 16.026429,71.809785 C 12.17955,67.46924 9.3162143,76.652728 13.37338,78.058351 C 15.089226,77.866505 17.942932,76.304475 15.283604,78.810718 C 12.375788,80.284417 10.346719,76.968345 10.61398,74.40236 L 10.61398,74.402364 L 10.61398,74.402364 z M 25.131813,78.962167 C 23.45776,78.925487 24.723953,75.948548 24.329974,74.631787 C 24.094953,73.120495 25.191752,70.026565 22.726284,72.12897 C 22.455233,70.401893 26.182972,68.373342 25.131813,71.587273 C 25.131813,74.045572 25.131813,76.50387 25.131813,78.962167 z M 28.178822,77.522569 C 30.330476,79.429236 26.09297,79.495639 28.178821,77.522572 L 28.178822,77.522569 z M 34.23721,76.936313 C 32.741126,76.346636 33.276649,81.047779 32.495422,77.879572 C 33.138832,75.630272 28.875867,78.287346 29.702334,75.85499 C 30.682365,73.805246 31.662395,71.755502 32.642426,69.705759 C 34.092199,69.917726 32.918403,72.753262 33.297264,74.03614 C 32.597333,76.468535 34.537713,75.118157 34.23721,76.936313 z M 32.495422,75.85499 C 32.322161,74.941186 32.877887,70.786025 32.14779,72.348126 C 32.022372,73.474349 29.304321,76.241149 31.56895,75.85499 C 31.877773,75.85499 32.186598,75.85499 32.495422,75.85499 z M 42.906032,73.907297 C 47.170295,76.175661 40.201242,81.965364 40.059489,77.359723 C 43.561425,80.114352 43.911684,74.392306 41.431528,73.9262 C 44.425244,72.818173 42.218973,69.643613 40.151592,70.737308 C 41.582214,67.232393 45.96707,72.029275 42.906032,73.907297 L 42.906032,73.907297 z M 53.018179,78.962167 C 51.344123,78.925487 52.610317,75.948549 52.216337,74.631787 C 51.981316,73.120493 53.078117,70.026566 50.612649,72.12897 C 50.3416,70.401893 54.069337,68.373342 53.018179,71.587273 C 53.018179,74.045572 53.018179,76.50387 53.018179,78.962167 z M 59.446298,74.304653 C 60.874742,77.851377 55.767505,81.535944 55.362458,76.444507 C 54.086378,73.731748 56.691831,66.411703 59.14811,71.43686 C 59.392706,72.371635 59.442573,73.343026 59.446297,74.30465 L 59.446298,74.304653 L 59.446298,74.304653 z M 57.339233,78.134887 C 60.453491,76.990047 57.86364,66.925069 56.135348,72.715238 C 56.200028,74.384467 55.485687,77.256565 57.339233,78.13489 L 57.339233,78.134887 L 57.339233,78.134887 z M 63.713892,74.851827 C 59.127852,79.548389 59.491299,65.642246 63.958901,70.793598 C 65.84529,73.384704 63.750779,81.953009 60.62892,77.932471 C 62.166599,78.691691 64.116589,77.45792 63.713893,74.851827 L 63.713892,74.851827 z M 62.364121,74.949537 C 65.954507,73.941047 61.245929,67.605481 61.094535,72.786883 C 61.090435,73.590224 61.31273,74.913904 62.364121,74.949536 L 62.364121,74.949537 z M 72.035257,78.962166 C 70.78439,78.549552 67.802352,79.868109 67.85676,78.150219 C 70.433106,75.949521 72.898664,69.405313 68.07597,70.736722 C 71.27215,66.859864 73.593415,74.509033 69.926776,76.501322 C 67.682141,78.427133 70.531777,77.826727 72.035257,77.89387 C 72.035257,78.249969 72.035257,78.606067 72.035257,78.962166 z M 82.272134,74.304655 C 83.700589,77.851377 78.593339,81.535947 78.188303,76.444509 C 76.912232,73.731751 79.517662,66.411705 81.973953,71.436862 C 82.21855,72.371637 82.268412,73.343028 82.272135,74.304652 L 82.272134,74.304655 z M 80.165069,78.134889 C 83.279344,76.990059 80.689474,66.925067 78.961189,72.71524 C 79.025879,74.38447 78.31152,77.256563 80.165071,78.134892 L 80.165069,78.134889 L 80.165069,78.134889 z M 83.96937,77.522571 C 86.121032,79.429255 81.883505,79.495627 83.96937,77.522574 L 83.96937,77.522571 z M 89.880746,74.304655 C 91.309192,77.851374 86.20195,81.535948 85.796915,76.444509 C 84.520836,73.731753 87.126277,66.411705 89.582558,71.436862 C 89.827152,72.371637 89.877021,73.343028 89.880745,74.304652 L 89.880746,74.304655 L 89.880746,74.304655 z M 87.77368,78.134889 C 90.887949,76.990054 88.298086,66.92507 86.569796,72.71524 C 86.634476,74.38447 85.920135,77.256565 87.77368,78.134892 L 87.77368,78.134889 L 87.77368,78.134889 z M 98.669856,78.96217 C 96.995788,78.9255 98.261987,75.948552 97.868006,74.631789 C 97.632985,73.120495 98.729785,70.026568 96.264316,72.128972 C 95.993264,70.401894 99.721014,68.373343 98.669856,71.587276 C 98.669856,74.045574 98.669856,76.503872 98.669856,78.96217 z M 4.8362484,93.612183 C 3.3401672,93.022507 3.8756907,97.723648 3.0944664,94.555442 C 3.7378737,92.30614 -0.52509705,94.963217 0.30136619,92.53086 C 1.2814,90.481116 2.2614339,88.431373 3.2414677,86.381629 C 4.6912408,86.593596 3.5174442,89.429132 3.8963057,90.71201 C 3.1963755,93.144402 5.1367526,91.794028 4.8362484,93.612183 L 4.8362484,93.612183 z M 3.0944664,92.53086 C 2.9212048,91.617056 3.4769305,87.461895 2.7468335,89.023996 C 2.6214151,90.150219 -0.09663553,92.917019 2.167992,92.53086 C 2.4768168,92.53086 2.7856416,92.53086 3.0944664,92.53086 L 3.0944664,92.53086 z M 10.61398,91.078234 C 8.9839324,87.179491 16.493006,84.136413 16.026429,88.485655 C 12.179548,84.145113 9.3162155,93.328598 13.37338,94.734221 C 15.089225,94.54238 17.942933,92.980345 15.283604,95.486589 C 12.375788,96.960289 10.346719,93.644218 10.61398,91.078232 L 10.61398,91.078234 L 10.61398,91.078234 z M 25.131813,95.638037 C 23.45776,95.601347 24.723953,92.624417 24.329974,91.307658 C 24.094953,89.796363 25.191752,86.702433 22.726284,88.804842 C 22.455232,87.077766 26.182972,85.049212 25.131813,88.263143 C 25.131813,90.721442 25.131813,93.17974 25.131813,95.638037 L 25.131813,95.638037 z M 28.178822,94.198448 C 30.330479,96.105105 26.092967,96.171512 28.178821,94.198443 L 28.178822,94.198448 z M 34.23721,93.612183 C 32.741126,93.022506 33.276649,97.723649 32.495422,94.555442 C 33.138832,92.306143 28.875867,94.963216 29.702334,92.53086 C 30.682365,90.481116 31.662395,88.431373 32.642426,86.381629 C 34.092199,86.593596 32.918403,89.429132 33.297264,90.71201 C 32.597333,93.144405 34.537713,91.794027 34.23721,93.612183 z M 32.495422,92.53086 C 32.322161,91.617056 32.877887,87.461895 32.14779,89.023996 C 32.022372,90.150219 29.304321,92.917019 31.56895,92.53086 C 31.877773,92.53086 32.186598,92.53086 32.495422,92.53086 z M 42.906032,90.583167 C 47.170296,92.851532 40.201239,98.641236 40.059489,94.035593 C 43.561424,96.790227 43.911686,91.06817 41.431528,90.602079 C 44.425232,89.494048 42.218984,86.319485 40.151592,87.41318 C 41.582212,83.908264 45.967071,88.705144 42.906032,90.583167 L 42.906032,90.583167 z M 53.018179,95.638037 C 51.344123,95.601357 52.610317,92.624419 52.216337,91.307658 C 51.981316,89.796362 53.078117,86.702435 50.612649,88.804842 C 50.341598,87.077766 54.069337,85.049212 53.018179,88.263143 C 53.018179,90.721442 53.018179,93.17974 53.018179,95.638037 L 53.018179,95.638037 z M 59.446298,90.980523 C 60.874744,94.527249 55.767501,98.211817 55.362458,93.120376 C 54.086376,90.407616 56.691835,83.087574 59.14811,88.112733 C 59.392706,89.047507 59.442573,90.018898 59.446297,90.980522 L 59.446298,90.980523 L 59.446298,90.980523 z M 57.339233,94.810758 C 60.453492,93.665921 57.863639,83.600939 56.135348,89.391109 C 56.200028,91.060337 55.485687,93.932438 57.339233,94.810761 L 57.339233,94.810758 L 57.339233,94.810758 z M 63.713892,91.527697 C 59.127854,96.22426 59.491296,82.318119 63.958901,87.469468 C 65.84529,90.060575 63.75078,98.62888 60.628921,94.608342 C 62.166614,95.367568 64.116584,94.133777 63.713893,91.5277 L 63.713892,91.527697 L 63.713892,91.527697 z M 62.364121,91.625407 C 65.954507,90.616919 61.245926,84.281352 61.094535,89.462755 C 61.090435,90.266095 61.31273,91.589777 62.364121,91.625406 L 62.364121,91.625407 z M 72.035257,95.638036 C 70.78439,95.225422 67.802352,96.543979 67.85676,94.826089 C 70.433107,92.625392 72.898662,86.081182 68.07597,87.412593 C 71.272149,83.535735 73.593416,91.184904 69.926776,93.177191 C 67.682141,95.103004 70.531778,94.502595 72.035257,94.56974 C 72.035257,94.925839 72.035257,95.281938 72.035257,95.638036 L 72.035257,95.638036 z M 82.272134,90.980525 C 83.70059,94.527249 78.593336,98.211821 78.188303,93.120378 C 76.912231,90.407619 79.517667,83.087576 81.973953,88.112735 C 82.21855,89.047509 82.268412,90.018902 82.272135,90.980524 L 82.272134,90.980525 z M 80.165069,94.81076 C 83.279345,93.665932 80.689471,83.600938 78.961189,89.391111 C 79.025879,91.060342 78.311519,93.932438 80.165071,94.810763 L 80.165069,94.81076 L 80.165069,94.81076 z M 83.96937,94.19845 C 86.121035,96.105124 81.883501,96.171501 83.96937,94.198445 L 83.96937,94.19845 z M 89.880746,90.980525 C 91.309193,94.527248 86.201947,98.211822 85.796915,93.120378 C 84.520834,90.407622 87.126282,83.087576 89.582558,88.112735 C 89.827152,89.047509 89.877021,90.018901 89.880745,90.980524 L 89.880746,90.980525 L 89.880746,90.980525 z M 87.77368,94.81076 C 90.88795,93.665928 88.298084,83.60094 86.569796,89.391111 C 86.634476,91.06034 85.920134,93.932438 87.77368,94.810763 L 87.77368,94.81076 L 87.77368,94.81076 z M 98.669856,95.63804 C 96.995788,95.60137 98.261987,92.624423 97.868006,91.30766 C 97.632985,89.796364 98.729784,86.702437 96.264316,88.804844 C 95.993262,87.077768 99.721014,85.049212 98.669856,88.263146 C 98.669856,90.721444 98.669856,93.179742 98.669856,95.63804 z"
     id="text2418"
     style="font-size:9.71758366px;font-style:normal;font-variant:normal;font-weight:normal;font-stretch:normal;fill:#000000;fill-opacity:1;stroke:none;font-family:Sans;-inkscape-font-specification:Adobe Helvetica" />
  <text
     x="10.479743"
     y="71.988503"
     id="text2436"
     xml:space="preserve"
     style="font-size:54.370121px;font-style:normal;font-variant:normal;font-weight:normal;font-stretch:normal;fill:#000000;fill-opacity:1;stroke:none;font-family:Zekton Dots;-inkscape-font-specification:Zekton Dots"><tspan
       x="10.479743"
       y="71.988503"
       id="tspan2438">Z</tspan></text>
  <g
     transform="matrix(0.6859981,0,0,0.6859981,61.383288,-14.730922)"
     id="g3469">
    <path
       d="M 30.480042,60.780914 C 30.481142,66.837306 25.571725,71.747544 19.515332,71.747544 C 13.45894,71.747544 8.5495621,66.837306 8.5506231,60.780914 C 8.5495631,54.724523 13.45894,49.814284 19.515332,49.814284 C 25.571725,49.814284 30.481103,54.724523 30.480042,60.780914 L 30.480042,60.780914 z"
       id="path3670"
       style="fill:#008a00;fill-opacity:1;fill-rule:evenodd;stroke:#000000;stroke-width:0.33620161px;stroke-linecap:butt;stroke-linejoin:miter;stroke-opacity:1" />
    <path
       d="M 27.382247,68.493388 C 23.100482,72.776654 16.156965,72.777262 11.874449,68.494788 C 7.5919331,64.212273 7.5925421,57.268756 11.875849,52.98699 C 16.157615,48.703724 23.101132,48.703116 27.383647,52.98559 C 31.666163,57.268107 31.665555,64.211624 27.382247,68.493389 L 27.382247,68.493389 L 27.382247,68.493388 z"
       id="path3672"
       style="opacity:0.71739131;fill:url(#linearGradient2448);fill-opacity:1;fill-rule:evenodd;stroke:none" />
    <path
       d="M 21.710753,56.583722 C 21.711348,59.983029 18.955832,62.739027 15.556525,62.739027 C 12.157219,62.739027 9.4017031,59.983029 9.4022981,56.583722 C 9.4017031,53.184415 12.157219,50.428417 15.556525,50.428417 C 18.955832,50.428417 21.711348,53.184415 21.710753,56.583722 L 21.710753,56.583722 z"
       id="path3674"
       style="fill:url(#radialGradient2450);fill-opacity:1;fill-rule:evenodd;stroke:none" />
  </g>
  <g
     transform="matrix(0.6859981,0,0,0.6859981,61.383281,10.059987)"
     id="g2456">
    <path
       d="M 30.480042,60.780914 C 30.481142,66.837306 25.571725,71.747544 19.515332,71.747544 C 13.45894,71.747544 8.5495621,66.837306 8.5506231,60.780914 C 8.5495631,54.724523 13.45894,49.814284 19.515332,49.814284 C 25.571725,49.814284 30.481103,54.724523 30.480042,60.780914 L 30.480042,60.780914 z"
       id="path2458"
       style="fill:#008a00;fill-opacity:1;fill-rule:evenodd;stroke:#000000;stroke-width:0.33620161px;stroke-linecap:butt;stroke-linejoin:miter;stroke-opacity:1" />
    <path
       d="M 27.382247,68.493388 C 23.100482,72.776654 16.156965,72.777262 11.874449,68.494788 C 7.5919331,64.212273 7.5925421,57.268756 11.875849,52.98699 C 16.157615,48.703724 23.101132,48.703116 27.383647,52.98559 C 31.666163,57.268107 31.665555,64.211624 27.382247,68.493389 L 27.382247,68.493389 L 27.382247,68.493388 z"
       id="path2460"
       style="opacity:0.71739131;fill:url(#linearGradient2464);fill-opacity:1;fill-rule:evenodd;stroke:none" />
    <path
       d="M 21.710753,56.583722 C 21.711348,59.983029 18.955832,62.739027 15.556525,62.739027 C 12.157219,62.739027 9.4017031,59.983029 9.4022981,56.583722 C 9.4017031,53.184415 12.157219,50.428417 15.556525,50.428417 C 18.955832,50.428417 21.711348,53.184415 21.710753,56.583722 L 21.710753,56.583722 z"
       id="path2462"
       style="fill:url(#radialGradient2466);fill-opacity:1;fill-rule:evenodd;stroke:none" />
  </g>
  <g
     transform="matrix(0.6859981,0,0,0.6859981,61.797932,34.818597)"
     id="g2472">
    <path
       d="M 30.480042,60.780914 C 30.481142,66.837306 25.571725,71.747544 19.515332,71.747544 C 13.45894,71.747544 8.5495621,66.837306 8.5506231,60.780914 C 8.5495631,54.724523 13.45894,49.814284 19.515332,49.814284 C 25.571725,49.814284 30.481103,54.724523 30.480042,60.780914 L 30.480042,60.780914 z"
       id="path2474"
       style="fill:#008a00;fill-opacity:1;fill-rule:evenodd;stroke:#000000;stroke-width:0.33620161px;stroke-linecap:butt;stroke-linejoin:miter;stroke-opacity:1" />
    <path
       d="M 27.382247,68.493388 C 23.100482,72.776654 16.156965,72.777262 11.874449,68.494788 C 7.5919331,64.212273 7.5925421,57.268756 11.875849,52.98699 C 16.157615,48.703724 23.101132,48.703116 27.383647,52.98559 C 31.666163,57.268107 31.665555,64.211624 27.382247,68.493389 L 27.382247,68.493389 L 27.382247,68.493388 z"
       id="path2476"
       style="opacity:0.71739131;fill:url(#linearGradient2480);fill-opacity:1;fill-rule:evenodd;stroke:none" />
    <path
       d="M 21.710753,56.583722 C 21.711348,59.983029 18.955832,62.739027 15.556525,62.739027 C 12.157219,62.739027 9.4017031,59.983029 9.4022981,56.583722 C 9.4017031,53.184415 12.157219,50.428417 15.556525,50.428417 C 18.955832,50.428417 21.711348,53.184415 21.710753,56.583722 L 21.710753,56.583722 z"
       id="path2478"
       style="fill:url(#radialGradient2482);fill-opacity:1;fill-rule:evenodd;stroke:none" />
  </g>
  <text
     x="11.944234"
     y="73.378998"
     id="text2499"
     xml:space="preserve"
     style="font-size:54.370121px;font-style:normal;font-variant:normal;font-weight:normal;font-stretch:normal;fill:#000000;fill-opacity:0.15135133;stroke:none;font-family:Zekton Dots;-inkscape-font-specification:Zekton Dots"><tspan
       x="11.944234"
       y="73.378998"
       id="tspan2501">Z</tspan></text>
  <path
     d="M 4.2877016,13.43263 C 2.613633,13.395956 3.8798316,10.419012 3.4858515,9.1022486 C 3.2508295,7.5909578 4.347631,4.4970296 1.8821627,6.5994318 C 1.6111079,4.8723537 5.3388593,2.843799 4.2877016,6.0577319 C 4.2877016,8.5160319 4.2877016,10.974331 4.2877016,13.43263 L 4.2877016,13.43263 z M 11.562208,8.8728224 C 9.932163,4.9740823 17.441233,1.9310033 16.974658,6.2802443 C 13.127777,1.9397023 10.264444,11.123189 14.321608,12.528812 C 16.037454,12.336964 18.89116,10.774941 16.231832,13.281181 C 13.324016,14.754878 11.294947,11.438807 11.562208,8.8728224 L 11.562208,8.8728224 z M 5.5394687,30.1085 C 4.2885996,29.695886 1.3065614,31.014443 1.3609683,29.296553 C 3.9373156,27.095852 6.4028685,20.551647 1.580171,21.883057 C 4.7763485,18.006201 7.0976218,25.655368 3.4309787,27.647657 C 1.1863394,29.573473 4.0359878,28.973061 5.5394687,29.040206 C 5.5394687,29.396304 5.5394687,29.752402 5.5394687,30.1085 L 5.5394687,30.1085 z M 11.562208,25.548694 C 9.9321619,21.649953 17.441234,18.606877 16.974658,22.956117 C 13.127777,18.615575 10.264444,27.799061 14.321608,29.204684 C 16.037456,29.012836 18.89116,27.450812 16.231832,29.957052 C 13.324016,31.430749 11.294947,28.11468 11.562208,25.548694 L 11.562208,25.548694 z M 26.080041,30.1085 C 24.405988,30.07181 25.672181,27.09488 25.278202,25.778119 C 25.043181,24.266828 26.13998,21.172898 23.674512,23.275304 C 23.403457,21.548229 27.1312,19.519672 26.080041,22.733604 C 26.080041,25.191902 26.080041,27.650201 26.080041,30.1085 L 26.080041,30.1085 z M 29.12705,28.668906 C 31.278705,30.575568 27.041197,30.641974 29.127049,28.668906 L 29.12705,28.668906 z M 35.185438,28.082646 C 33.689355,27.492969 34.224878,32.194112 33.443651,29.025905 C 34.08706,26.776604 29.824093,29.43368 30.650562,27.00132 C 31.630593,24.951577 32.610624,22.901835 33.590654,20.852092 C 35.040427,21.064059 33.866632,23.899594 34.245493,25.182473 C 33.545562,27.614869 35.485944,26.264485 35.185438,28.082646 L 35.185438,28.082646 z M 33.443651,27.00132 C 33.270389,26.087517 33.826116,21.932356 33.096019,23.494459 C 32.9706,24.620682 30.25255,27.38748 32.517178,27.00132 C 32.826003,27.00132 33.134826,27.00132 33.443651,27.00132 L 33.443651,27.00132 z M 43.827536,30.1085 C 42.15348,30.07182 43.419674,27.09488 43.025695,25.778119 C 42.790674,24.266828 43.887472,21.172898 41.422004,23.275304 C 41.150946,21.548229 44.878696,19.519671 43.827536,22.733604 C 43.827536,25.191902 43.827536,27.650201 43.827536,30.1085 L 43.827536,30.1085 z M 4.3144205,41.729499 C 8.5786926,43.997863 1.6096283,49.787572 1.4678733,45.181926 C 4.9698078,47.936561 5.3200851,42.21452 2.8399252,41.748407 C 5.8336391,40.640371 3.6273557,37.465822 1.5599855,38.559512 C 2.990612,35.054596 7.3754668,39.851486 4.3144205,41.729499 L 4.3144205,41.729499 z M 16.992476,46.784374 C 15.195908,46.990854 15.31638,44.220732 14.38216,43.088237 C 13.854391,42.33225 12.620887,38.31679 12.631334,40.046582 C 12.631334,42.292512 12.631334,44.538443 12.631334,46.784374 C 11.010368,46.706474 12.25623,43.761751 11.865123,42.453993 C 12.042945,40.921302 11.507674,38.675517 12.135772,37.593101 C 13.679165,37.779796 13.677587,40.366239 14.588683,41.53506 C 15.119794,42.299358 16.394768,46.496512 16.235175,44.073276 C 16.235175,41.913218 16.235175,39.753159 16.235175,37.593101 C 17.842744,37.681421 16.602163,40.617901 16.992476,41.923482 C 16.992476,43.543779 16.992476,45.164077 16.992476,46.784374 L 16.992476,46.784374 z M 26.080041,46.784374 C 24.405988,46.747694 25.672181,43.770754 25.278202,42.453993 C 25.043181,40.942703 26.139981,37.848772 23.674512,39.951175 C 23.40346,38.2241 27.1312,36.195544 26.080041,39.409476 C 26.080041,41.867776 26.080041,44.326076 26.080041,46.784374 z M 29.12705,45.34478 C 31.278707,47.251437 27.041195,47.317845 29.127049,45.344778 L 29.12705,45.34478 z M 31.866693,41.221409 C 38.0874,39.934976 33.369006,50.774076 30.835887,45.593857 C 32.273906,46.928905 35.957182,44.377138 33.261006,42.165943 C 30.254834,43.235266 31.361255,40.018595 31.171757,38.272634 C 30.961069,37.15037 34.729669,37.239199 34.72215,38.134398 C 34.410592,39.491625 30.791154,37.54097 31.866693,40.285294 C 31.866693,40.597332 31.866693,40.909371 31.866693,41.221409 L 31.866693,41.221409 z M 45.079301,46.784374 C 43.828432,46.371761 40.846393,47.690317 40.900799,45.972428 C 43.47715,43.771733 45.942703,37.227519 41.120014,38.558928 C 44.316185,34.682072 46.63746,42.331241 42.970821,44.323528 C 40.726186,46.249341 43.575818,45.648935 45.079301,45.716078 C 45.079301,46.072177 45.079301,46.428275 45.079301,46.784374 z M 53.966408,46.784374 C 52.292351,46.747694 53.558545,43.770754 53.164566,42.453993 C 52.929544,40.942698 54.026345,37.848774 51.560873,39.951175 C 51.289821,38.2241 55.017568,36.195544 53.966408,39.409476 C 53.966408,41.867776 53.966408,44.326076 53.966408,46.784374 z M 60.394522,42.126856 C 61.822973,45.673583 56.715734,49.358149 56.310682,44.266709 C 55.034597,41.553949 57.640066,34.233907 60.096341,39.259066 C 60.340933,40.19384 60.390799,41.165232 60.394523,42.126856 L 60.394522,42.126856 z M 58.287456,45.957094 C 61.40173,44.812257 58.811861,34.747274 57.083579,40.537441 C 57.148259,42.206671 56.433913,45.078765 58.287457,45.957095 L 58.287456,45.957094 L 58.287456,45.957094 z M 64.662129,42.67403 C 60.076075,47.370601 60.439526,33.464455 64.907132,38.615803 C 66.793516,41.206911 64.699005,49.775215 61.577146,45.754675 C 63.114843,46.513902 65.064811,45.280113 64.662126,42.674032 L 64.662129,42.67403 L 64.662129,42.67403 z M 63.31235,42.77174 C 66.902731,41.763247 62.194155,35.427687 62.042763,40.609088 C 62.038663,41.412431 62.260965,42.736108 63.312352,42.771741 L 63.31235,42.77174 L 63.31235,42.77174 z M 71.731716,46.784373 C 70.05766,46.747693 71.323855,43.770753 70.929875,42.453992 C 70.694852,40.942707 71.791653,37.84877 69.326193,39.951173 C 69.055137,38.224097 72.782875,36.195543 71.731716,39.409474 C 71.731716,41.867774 71.731716,44.326074 71.731716,46.784373 L 71.731716,46.784373 z M 5.7844767,61.434389 C 4.2883964,60.844716 4.8239181,65.545855 4.0426939,62.377649 C 4.6861002,60.128347 0.42312706,62.785425 1.2495949,60.353062 C 2.2296288,58.303319 3.2096629,56.253578 4.1896959,54.203836 C 5.6394691,54.415803 4.4656722,57.251339 4.8445337,58.534217 C 4.1446038,60.966611 6.0849854,59.616227 5.7844767,61.434389 L 5.7844767,61.434389 z M 4.0426939,60.353062 C 3.8694324,59.43926 4.4251584,55.284098 3.6950607,56.846203 C 3.5696435,57.972425 0.85159131,60.739222 3.1162199,60.353062 C 3.4250446,60.353062 3.7338692,60.353062 4.0426939,60.353062 L 4.0426939,60.353062 z M 11.562208,58.900436 C 9.9321619,55.001695 17.441237,51.958621 16.974658,56.307861 C 13.127779,51.967316 10.264442,61.150804 14.321608,62.556426 C 16.037453,62.36458 18.891162,60.802555 16.231832,63.308794 C 13.324016,64.782492 11.294946,61.466422 11.562208,58.900437 L 11.562208,58.900436 L 11.562208,58.900436 z M 26.080041,63.460244 C 24.405988,63.423564 25.672181,60.446624 25.278202,59.129863 C 25.043181,57.618571 26.13998,54.52464 23.674512,56.627047 C 23.403458,54.899973 27.1312,52.871414 26.080041,56.085347 C 26.080041,58.543646 26.080041,61.001945 26.080041,63.460244 L 26.080041,63.460244 z M 29.12705,62.02065 C 31.278706,63.927309 27.041196,63.993718 29.127049,62.020649 L 29.12705,62.02065 z M 35.185438,61.434389 C 33.689355,60.844713 34.224878,65.545856 33.443651,62.377649 C 34.08706,60.128348 29.824092,62.785424 30.650562,60.353062 C 31.630593,58.303319 32.610624,56.253578 33.590654,54.203836 C 35.040427,54.415803 33.866632,57.251339 34.245493,58.534217 C 33.545561,60.966615 35.485947,59.616225 35.185438,61.434389 L 35.185438,61.434389 z M 33.443651,60.353062 C 33.270389,59.43926 33.826116,55.284098 33.096019,56.846203 C 32.9706,57.972425 30.252548,60.739222 32.517178,60.353062 C 32.826003,60.353062 33.134826,60.353062 33.443651,60.353062 L 33.443651,60.353062 z M 43.854261,58.405374 C 48.118524,60.673737 41.14947,66.46344 41.007717,61.8578 C 44.509655,64.612428 44.859913,58.89038 42.379756,58.424282 C 45.37346,57.316252 43.167212,54.141691 41.099821,55.235384 C 42.530439,51.730469 46.915299,56.527351 43.854261,58.405374 z M 53.966408,63.460244 C 52.292351,63.423564 53.558545,60.446624 53.164566,59.129863 C 52.929544,57.618567 54.026345,54.524643 51.560873,56.627047 C 51.289819,54.899972 55.017568,52.871413 53.966408,56.085347 C 53.966408,58.543646 53.966408,61.001945 53.966408,63.460244 L 53.966408,63.460244 z M 60.394522,58.802725 C 61.822973,62.349453 56.715735,66.034021 56.310682,60.942581 C 55.034599,58.229821 57.640061,50.909781 60.096341,55.934936 C 60.340933,56.869712 60.390799,57.841103 60.394523,58.802727 L 60.394522,58.802725 z M 58.287456,62.632963 C 61.401732,61.488129 58.81186,51.423145 57.083579,57.213312 C 57.148259,58.882543 56.433913,61.754636 58.287457,62.632966 L 58.287456,62.632963 L 58.287456,62.632963 z M 64.662129,59.349904 C 60.076072,64.046464 60.439527,50.140331 64.907132,55.291674 C 66.793515,57.882782 64.699006,66.451086 61.577144,62.430547 C 63.114839,63.189772 65.064811,61.95599 64.662126,59.349904 L 64.662129,59.349904 z M 63.31235,59.447614 C 66.902729,58.439115 62.194155,52.10356 62.042763,57.284961 C 62.038663,58.088302 62.260966,59.411981 63.312352,59.447612 L 63.31235,59.447614 L 63.31235,59.447614 z M 72.98349,63.460242 C 71.73262,63.04763 68.75058,64.366184 68.804984,62.648296 C 71.381327,60.447601 73.846898,53.903388 69.024198,55.234799 C 72.220365,51.35794 74.541654,59.007103 70.875004,60.999396 C 68.630362,62.925211 71.480006,62.324802 72.98349,62.391946 C 72.98349,62.748046 72.98349,63.104143 72.98349,63.460242 z M 83.220367,58.802721 C 84.648817,62.349444 79.541571,66.034019 79.136531,60.942577 C 77.860457,58.229821 80.465896,50.909777 82.922183,55.934932 C 83.166777,56.869706 83.216639,57.841099 83.220362,58.802723 L 83.220367,58.802721 L 83.220367,58.802721 z M 81.113292,62.632959 C 84.227561,61.48813 81.637704,51.423135 79.909416,57.213308 C 79.974116,58.882541 79.259743,61.754631 81.113297,62.632962 L 81.113292,62.632959 z M 84.917603,62.020646 C 87.069265,63.927338 82.831722,63.993685 84.917602,62.020645 L 84.917603,62.020646 z M 90.828971,58.802721 C 92.257424,62.349444 87.150181,66.034019 86.745141,60.942577 C 85.469064,58.229822 88.074509,50.909776 90.530787,55.934932 C 90.77538,56.869708 90.825248,57.841099 90.828972,58.802723 L 90.828971,58.802721 L 90.828971,58.802721 z M 88.721905,62.632959 C 91.836169,61.488128 89.246315,51.423139 87.518023,57.213308 C 87.582713,58.88254 86.868359,61.754631 88.721906,62.632962 L 88.721905,62.632959 L 88.721905,62.632959 z M 99.61808,63.46024 C 97.944012,63.42357 99.210211,60.446623 98.81623,59.129859 C 98.581208,57.618565 99.678009,54.52464 97.212541,56.627043 C 96.941483,54.899971 100.66924,52.871408 99.61808,56.085343 C 99.61808,58.543642 99.61808,61.001941 99.61808,63.46024 L 99.61808,63.46024 z M 5.7844767,78.110263 C 4.2883964,77.520591 4.8239181,82.22173 4.0426939,79.053524 C 4.6860991,76.804222 0.42312263,79.461301 1.2495949,77.028932 C 2.2296288,74.979188 3.2096629,72.929445 4.1896959,70.879702 C 5.6394691,71.091668 4.4656722,73.927204 4.8445337,75.210082 C 4.1446038,77.642476 6.0849866,76.292099 5.7844767,78.110263 L 5.7844767,78.110263 z M 4.0426939,77.028932 C 3.8694313,76.115134 4.4251596,71.95997 3.6950607,73.522076 C 3.5696435,74.648297 0.85158994,77.415095 3.1162199,77.028932 C 3.4250446,77.028932 3.7338692,77.028932 4.0426939,77.028932 L 4.0426939,77.028932 z M 11.562208,75.576306 C 9.9321619,71.677564 17.441242,68.634495 16.974658,72.983736 C 13.127782,68.643182 10.26444,77.826676 14.321608,79.232298 C 16.037456,79.040449 18.89116,77.478426 16.231832,79.984666 C 13.324018,81.458363 11.294946,78.142293 11.562208,75.576308 L 11.562208,75.576306 L 11.562208,75.576306 z M 26.080041,80.136119 C 24.405988,80.099439 25.672181,77.122499 25.278202,75.805738 C 25.043181,74.294447 26.139981,71.200517 23.674512,73.302918 C 23.403458,71.575844 27.1312,69.547283 26.080041,72.761217 C 26.080041,75.219517 26.080041,77.677818 26.080041,80.136119 z M 29.12705,78.69652 C 31.278705,80.603182 27.041197,80.669587 29.127049,78.69652 L 29.12705,78.69652 z M 35.185438,78.110263 C 33.689355,77.520588 34.224878,82.221731 33.443651,79.053524 C 34.087059,76.804223 29.824087,79.461301 30.650562,77.028932 C 31.630593,74.979188 32.610624,72.929445 33.590654,70.879702 C 35.040427,71.091668 33.866632,73.927204 34.245493,75.210082 C 33.545561,77.642481 35.485948,76.292097 35.185438,78.110263 L 35.185438,78.110263 z M 33.443651,77.028932 C 33.270389,76.115134 33.826117,71.95997 33.096017,73.522076 C 32.9706,74.648297 30.252547,77.415095 32.517178,77.028932 C 32.826003,77.028932 33.134826,77.028932 33.443651,77.028932 z M 43.854261,75.081247 C 48.118521,77.349608 41.149475,83.13931 41.007717,78.533675 C 44.509656,81.288296 44.859912,75.566253 42.379756,75.100152 C 45.373461,73.992124 43.167211,70.817561 41.099822,71.911256 C 42.530438,68.406341 46.915299,73.203222 43.854261,75.081247 z M 53.966408,80.136119 C 52.292351,80.099439 53.558545,77.122499 53.164566,75.805738 C 52.929544,74.294442 54.026346,71.200518 51.560873,73.302918 C 51.289819,71.575844 55.017568,69.547283 53.966408,72.761217 C 53.966408,75.219517 53.966408,77.677818 53.966408,80.136119 z M 60.394522,75.478595 C 61.822973,79.025324 56.715738,82.709893 56.310682,77.618454 C 55.0346,74.905693 57.640058,67.585654 60.096341,72.610806 C 60.340933,73.545581 60.390799,74.516974 60.394523,75.478598 L 60.394522,75.478595 L 60.394522,75.478595 z M 58.287456,79.308838 C 61.40173,78.163999 58.811862,68.099017 57.083579,73.889184 C 57.148259,75.558415 56.433915,78.430506 58.287457,79.308838 L 58.287456,79.308838 L 58.287456,79.308838 z M 64.662129,76.025779 C 60.076069,80.722333 60.439529,66.816205 64.907132,71.967546 C 66.793515,74.558654 64.699006,83.126959 61.577144,79.106419 C 63.114835,79.865642 65.064813,78.631864 64.662126,76.025775 L 64.662129,76.025779 z M 63.31235,76.123489 C 66.902729,75.114986 62.194157,68.779434 62.042763,73.960832 C 62.038663,74.764174 62.260965,76.087851 63.312352,76.123485 L 63.31235,76.123489 L 63.31235,76.123489 z M 72.98349,80.136118 C 71.73262,79.723505 68.75058,81.042059 68.804984,79.324172 C 71.381325,77.123475 73.846899,70.57926 69.024198,71.910672 C 72.220361,68.033813 74.541657,75.682976 70.875004,77.675269 C 68.630364,79.601086 71.480004,79.000679 72.98349,79.067822 C 72.98349,79.423921 72.98349,79.780019 72.98349,80.136118 z M 83.220367,75.478591 C 84.648817,79.025315 79.541574,82.709891 79.136531,77.61845 C 77.860458,74.905693 80.465893,67.58565 82.922183,72.610802 C 83.166777,73.545577 83.216639,74.51697 83.220362,75.478594 L 83.220367,75.478591 L 83.220367,75.478591 z M 81.113292,79.308834 C 84.22756,78.164002 81.637706,68.099007 79.909416,73.88918 C 79.974116,75.558413 79.259744,78.430499 81.113297,79.308834 L 81.113292,79.308834 z M 84.917603,78.696516 C 87.069265,80.603209 82.831722,80.669555 84.917602,78.696516 L 84.917603,78.696516 z M 90.828971,75.478591 C 92.257424,79.025315 87.150184,82.709891 86.745141,77.61845 C 85.469066,74.905694 88.074506,67.585649 90.530787,72.610802 C 90.77538,73.545577 90.825248,74.51697 90.828972,75.478594 L 90.828971,75.478591 L 90.828971,75.478591 z M 88.721905,79.308834 C 91.836168,78.163998 89.246316,68.099011 87.518023,73.88918 C 87.582703,75.558412 86.86836,78.430501 88.721906,79.308834 L 88.721905,79.308834 L 88.721905,79.308834 z M 99.61808,80.136115 C 97.944012,80.099445 99.210211,77.122497 98.81623,75.805734 C 98.581208,74.294441 99.67801,71.200515 97.212541,73.302914 C 96.941483,71.575843 100.66924,69.547276 99.61808,72.761213 C 99.61808,75.219513 99.61808,77.677814 99.61808,80.136115 z M 5.7844767,94.786133 C 4.2883941,94.19646 4.8239192,98.89761 4.0426939,95.729403 C 4.6861104,93.480088 0.4231333,96.137169 1.2495949,93.704811 C 2.2296288,91.655067 3.2096629,89.605323 4.1896959,87.555581 C 5.6394691,87.767546 4.4656722,90.603083 4.8445337,91.885961 C 4.144605,94.318352 6.0849809,92.96798 5.7844767,94.786133 L 5.7844767,94.786133 z M 4.0426939,93.704811 C 3.8694324,92.791007 4.4251573,88.635846 3.6950618,90.197948 C 3.5696435,91.32417 0.85159255,94.09097 3.1162199,93.704811 C 3.4250446,93.704811 3.7338692,93.704811 4.0426939,93.704811 L 4.0426939,93.704811 z M 11.562208,92.252176 C 9.932163,88.353434 17.44124,85.310366 16.974658,89.659606 C 13.127781,85.319056 10.26444,94.502551 14.321608,95.908168 C 16.037458,95.716319 18.89116,94.154299 16.231832,96.660542 C 13.324014,98.134241 11.294947,94.818163 11.562208,92.252179 L 11.562208,92.252176 L 11.562208,92.252176 z M 26.080041,96.811998 C 24.405988,96.775308 25.672181,93.798378 25.278202,92.481617 C 25.043181,90.970323 26.13998,87.876389 23.674512,89.97879 C 23.403456,88.251718 27.1312,86.223153 26.080041,89.437087 C 26.080041,91.89539 26.080041,94.353693 26.080041,96.811998 z M 29.12705,95.372399 C 31.278716,97.279054 27.041187,97.345462 29.127049,95.372395 L 29.12705,95.372399 z M 35.185438,94.786133 C 33.689352,94.196456 34.224879,98.897612 33.443651,95.729403 C 34.08707,93.480091 29.824098,96.137169 30.650562,93.704811 C 31.630593,91.655067 32.610624,89.605323 33.590654,87.555581 C 35.040427,87.767546 33.866632,90.603083 34.245493,91.885961 C 33.545562,94.318356 35.485941,92.967977 35.185438,94.786133 z M 33.443651,93.704811 C 33.270389,92.791007 33.826116,88.635846 33.096019,90.197948 C 32.9706,91.32417 30.25255,94.09097 32.517178,93.704811 C 32.826003,93.704811 33.134826,93.704811 33.443651,93.704811 L 33.443651,93.704811 z M 43.854261,91.757118 C 48.118526,94.025485 41.149456,99.815191 41.007717,95.209535 C 44.509647,97.964182 44.859917,92.242126 42.379756,91.776022 C 45.373472,90.667993 43.1672,87.493434 41.099822,88.587127 C 42.530435,85.082212 46.915301,89.879091 43.854261,91.757118 L 43.854261,91.757118 z M 53.966408,96.811998 C 52.292351,96.775318 53.558545,93.798378 53.164566,92.481617 C 52.929544,90.970318 54.026345,87.876392 51.560873,89.97879 C 51.289817,88.251718 55.017568,86.223151 53.966408,89.437087 C 53.966408,91.89539 53.966408,94.353693 53.966408,96.811998 z M 60.394522,92.154465 C 61.822974,95.701199 56.715737,99.385771 56.310682,94.294323 C 55.034599,91.581563 57.640063,84.261524 60.096341,89.28668 C 60.340933,90.221452 60.390799,91.192844 60.394523,92.154465 L 60.394522,92.154465 z M 58.287456,95.984708 C 61.401732,94.839872 58.81186,84.774887 57.083579,90.565057 C 57.148259,92.234288 56.433915,95.106377 58.287457,95.984711 L 58.287456,95.984708 L 58.287456,95.984708 z M 64.662129,92.701649 C 60.076067,97.398198 60.43953,83.492077 64.907132,88.643416 C 66.793514,91.234525 64.699007,99.802839 61.577146,95.782291 C 63.114845,96.541522 65.064809,95.307724 64.662126,92.70165 L 64.662129,92.701649 z M 63.31235,92.799349 C 66.902732,91.79087 62.194155,85.455299 62.042763,90.636702 C 62.038663,91.440043 62.26096,92.763725 63.312352,92.79935 L 63.31235,92.799349 L 63.31235,92.799349 z M 72.98349,96.811996 C 71.73262,96.399382 68.75058,97.717937 68.804984,96.000049 C 71.381315,93.799349 73.846907,87.255135 69.024198,88.586542 C 72.220363,84.709681 74.541655,92.358849 70.875003,94.351145 C 68.63036,96.276958 71.480011,95.676545 72.98349,95.743691 C 72.98349,96.099792 72.98349,96.455893 72.98349,96.811996 L 72.98349,96.811996 z M 83.220367,92.154463 C 84.648818,95.701191 79.541573,99.385771 79.136531,94.294321 C 77.860457,91.581565 80.465897,84.261522 82.922183,89.286678 C 83.166777,90.22145 83.216639,91.192842 83.220362,92.154463 L 83.220367,92.154463 z M 81.113292,95.984706 C 84.227561,94.839877 81.637704,84.774881 79.909416,90.565055 C 79.974116,92.234289 79.259745,95.106374 81.113297,95.984709 L 81.113292,95.984706 L 81.113292,95.984706 z M 84.917603,95.372397 C 87.069276,97.279085 82.831713,97.345433 84.917602,95.372393 L 84.917603,95.372397 z M 90.828971,92.154463 C 92.257426,95.701191 87.150182,99.385771 86.745141,94.294321 C 85.469064,91.581566 88.07451,84.261521 90.530787,89.286678 C 90.77538,90.22145 90.825248,91.192841 90.828972,92.154463 L 90.828971,92.154463 z M 88.721905,95.984706 C 91.836169,94.839875 89.246315,84.774883 87.518023,90.565055 C 87.582703,92.234287 86.868361,95.106374 88.721906,95.984709 L 88.721905,95.984706 L 88.721905,95.984706 z M 99.61808,96.811996 C 97.944012,96.775326 99.210211,93.798378 98.81623,92.481615 C 98.581208,90.970317 99.67801,87.87639 97.212541,89.978788 C 96.941482,88.251718 100.66924,86.223148 99.61808,89.437085 C 99.61808,91.895388 99.61808,94.353691 99.61808,96.811996 z"
     id="path2425"
     style="font-size:9.71758366px;font-style:normal;font-variant:normal;font-weight:normal;font-stretch:normal;fill:#000000;fill-opacity:0.08108108;stroke:none;font-family:Sans;-inkscape-font-specification:Adobe Helvetica" />
</svg>
