<?xml version="1.0" encoding="UTF-8" standalone="no"?>
<!-- Created with Inkscape (http://www.inkscape.org/) -->
<svg
   xmlns:svg="http://www.w3.org/2000/svg"
   xmlns="http://www.w3.org/2000/svg"
   version="1.0"
   width="100"
   height="100"
   id="svg2">
  <defs
     id="defs4" />
  <rect
     width="93.023849"
     height="78.135986"
     x="6.9740982"
     y="12.061002"
     id="rect3282"
     style="fill:#d7d2d1;fill-opacity:1;stroke-width:1.25;stroke-miterlimit:4;stroke-dasharray:none" />
  <rect
     width="95.582863"
     height="72.045944"
     x="1.4145651"
     y="11.215525"
     id="rect2422"
     style="fill:#ffffff;fill-opacity:1;fill-rule:evenodd;stroke:#000000;stroke-width:2.82502556;stroke-linecap:butt;stroke-linejoin:miter;stroke-miterlimit:4;stroke-dasharray:none;stroke-opacity:1" />
  <text
     x="5.4711967"
     y="19.724657"
     transform="scale(0.9305083,1.0746814)"
     id="text3196-2"
     xml:space="preserve"
     style="font-size:7.70949125px;font-style:normal;font-weight:bold;fill:#a39a9d;fill-opacity:1;stroke:none;font-family:Bitstream Vera Sans;-inkscape-font-specification:Bitstream Vera Sans Bold"><tspan
       x="5.4711967"
       y="19.724657"
       id="tspan3198-3">&gt; selectall();</tspan><tspan
       x="5.4711967"
       y="29.361521"
       id="tspan3204-7" /></text>
  <rect
     width="95.318893"
     height="12.194745"
     x="1.5465457"
     y="75.154449"
     id="rect3194"
     style="font-weight:bold;fill:#ffffff;fill-opacity:1;fill-rule:evenodd;stroke:#000000;stroke-width:2.82502556;stroke-linecap:butt;stroke-linejoin:miter;stroke-miterlimit:4;stroke-dasharray:none;stroke-opacity:1;-inkscape-font-specification:Sans Bold" />
  <text
     x="4.6976514"
     y="19.409893"
     transform="scale(0.9305083,1.0746814)"
     id="text3196"
     xml:space="preserve"
     style="font-size:7.70949125px;font-style:normal;font-weight:bold;fill:#000000;fill-opacity:1;stroke:none;font-family:Bitstream Vera Sans;-inkscape-font-specification:Bitstream Vera Sans Bold"><tspan
       x="4.6976514"
       y="19.409893"
       id="tspan3198">&gt; selectall();</tspan><tspan
       x="4.6976514"
       y="29.046757"
       id="tspan3204" /></text>
  <g
     transform="matrix(1.0514839,0,0,1.214401,-2.993149,-3.3381851)"
     id="text3225"
     style="font-size:6.82249689px;font-style:normal;font-weight:normal;fill:#000000;fill-opacity:1;stroke:none;font-family:Bitstream Vera Sans">
    <path
       d="M 7.0968651,71.756073 L 7.0968651,66.872391 L 8.0329596,66.872391 L 8.0329596,71.756073 L 7.0968651,71.756073"
       id="path3021"
       style="fill:#0000ff;fill-opacity:1;-inkscape-font-specification:Bitstream Vera Sans Bold" />
    <path
       d="M 8.7725076,69.937185 C 8.7725074,69.626266 8.8491266,69.325339 9.0023671,69.034403 C 9.1556062,68.743473 9.3721403,68.521387 9.6519701,68.368144 C 9.9340185,68.214907 10.248271,68.138288 10.594727,68.138284 C 11.129953,68.138288 11.568573,68.312625 11.91059,68.661298 C 12.252599,69.007755 12.423606,69.446376 12.423609,69.97716 C 12.423606,70.51239 12.250378,70.956562 11.903927,71.309679 C 11.55969,71.660576 11.125511,71.836024 10.60139,71.836024 C 10.277142,71.836024 9.9673315,71.762734 9.6719579,71.616159 C 9.3788029,71.469582 9.1556062,71.255268 9.0023671,70.973218 C 8.8491271,70.688948 8.7725074,70.343604 8.7725076,69.937185 M 9.7319213,69.987155 C 9.73192,70.338053 9.8152023,70.606778 9.9817686,70.793329 C 10.148332,70.979883 10.353762,71.073159 10.598059,71.073158 C 10.842351,71.073159 11.046671,70.979888 11.211017,70.793329 C 11.377579,70.606778 11.460862,70.335832 11.460865,69.980493 C 11.460862,69.63404 11.377575,69.367536 11.211017,69.180981 C 11.046671,68.994431 10.842351,68.901155 10.598059,68.901152 C 10.353762,68.901155 10.148332,68.994432 9.9817686,69.180981 C 9.8152024,69.367536 9.73192,69.636261 9.7319213,69.987155"
       id="path3023"
       style="fill:#0000ff;fill-opacity:1;-inkscape-font-specification:Bitstream Vera Sans Bold" />
    <path
       d="M 13.859398,69.297576 L 13.009917,69.144336 C 13.105417,68.802326 13.269758,68.549147 13.502949,68.3848 C 13.736139,68.22046 14.082594,68.138288 14.542314,68.138284 C 14.959834,68.138288 15.270755,68.188254 15.475077,68.288192 C 15.679394,68.385912 15.82264,68.511393 15.904815,68.664629 C 15.989205,68.815651 16.031401,69.094369 16.031404,69.500785 L 16.021404,70.59345 C 16.021401,70.904372 16.035834,71.134231 16.064714,71.283029 C 16.095804,71.429606 16.152434,71.587287 16.23461,71.756073 L 15.308509,71.756073 C 15.284079,71.693893 15.254099,71.601723 15.218559,71.479575 C 15.203009,71.424055 15.191909,71.387415 15.185249,71.369643 C 15.025345,71.525103 14.854338,71.641699 14.67223,71.719429 C 14.490117,71.797159 14.295791,71.836024 14.089253,71.836024 C 13.72503,71.836024 13.437428,71.737194 13.226447,71.539539 C 13.017685,71.341882 12.913304,71.092035 12.913305,70.789997 C 12.913304,70.59012 12.961055,70.412451 13.05655,70.256989 C 13.15205,70.099309 13.285299,69.979383 13.456306,69.897209 C 13.629533,69.812819 13.878269,69.73953 14.202517,69.677343 C 14.640025,69.595173 14.943173,69.518554 15.111961,69.447484 L 15.111961,69.354204 C 15.111958,69.174316 15.067541,69.046617 14.978709,68.971104 C 14.889869,68.893374 14.722197,68.854512 14.475683,68.854509 C 14.309117,68.854512 14.179196,68.887829 14.085921,68.954449 C 13.992641,69.018859 13.917134,69.133231 13.859393,69.297573 M 15.111961,70.057108 C 14.992032,70.097088 14.802148,70.144838 14.542309,70.200354 C 14.282466,70.255874 14.11257,70.310288 14.032621,70.363588 C 13.910472,70.450198 13.849398,70.560135 13.849399,70.693386 C 13.849398,70.824418 13.898259,70.937682 13.995976,71.033178 C 14.093696,71.128678 14.218061,71.176425 14.369082,71.176424 C 14.537865,71.176425 14.698878,71.120904 14.85212,71.009859 C 14.965382,70.925469 15.03978,70.822197 15.075317,70.700049 C 15.099747,70.620099 15.111957,70.46797 15.111957,70.243661 L 15.111957,70.057108"
       id="path3025"
       style="fill:#0000ff;fill-opacity:1;-inkscape-font-specification:Bitstream Vera Sans Bold" />
    <path
       d="M 20.202188,71.756073 L 19.33272,71.756073 L 19.33272,71.236391 C 19.188361,71.43849 19.017354,71.589508 18.8197,71.689447 C 18.624262,71.787167 18.426605,71.836024 18.226729,71.836024 C 17.820309,71.836024 17.471634,71.672791 17.180702,71.346323 C 16.891989,71.017636 16.747633,70.560138 16.747633,69.973829 C 16.747633,69.374198 16.888657,68.918921 17.170708,68.607997 C 17.452757,68.294859 17.809205,68.138288 18.240054,68.138284 C 18.635366,68.138288 18.977379,68.302632 19.266094,68.631316 L 19.266094,66.872391 L 20.202188,66.872391 L 20.202188,71.756073 M 17.703715,69.910534 C 17.703714,70.288083 17.755905,70.561249 17.860286,70.730033 C 18.011303,70.974329 18.222285,71.096477 18.493233,71.096476 C 18.708654,71.096477 18.891876,71.005426 19.042897,70.82331 C 19.193913,70.638979 19.269422,70.364703 19.269425,70.000479 C 19.269422,69.594063 19.196135,69.30202 19.049559,69.124348 C 18.90298,68.944461 18.715317,68.854516 18.48657,68.854513 C 18.264482,68.854516 18.077929,68.943353 17.926912,69.121017 C 17.778113,69.296468 17.703714,69.55964 17.703715,69.910534"
       id="path3027"
       style="fill:#0000ff;fill-opacity:1;-inkscape-font-specification:Bitstream Vera Sans Bold" />
    <path
       d="M 21.058331,68.218235 L 21.921137,68.218235 L 21.921137,68.701273 C 22.229836,68.325951 22.597389,68.138288 23.023797,68.138284 C 23.250322,68.138288 23.446869,68.184924 23.613436,68.278199 C 23.779998,68.371479 23.916581,68.512503 24.023186,68.701273 C 24.178643,68.512503 24.346318,68.371478 24.526212,68.278199 C 24.706098,68.184929 24.898203,68.138288 25.102526,68.138284 C 25.362363,68.138288 25.582228,68.191584 25.762123,68.298186 C 25.942008,68.40257 26.07637,68.55692 26.16521,68.761237 C 26.22961,68.912258 26.26181,69.156553 26.26182,69.494122 L 26.26182,71.756073 L 25.325725,71.756073 L 25.325725,69.733976 C 25.325721,69.383081 25.293515,69.156553 25.229115,69.054391 C 25.142495,68.921142 25.009245,68.854516 24.829359,68.854513 C 24.698324,68.854516 24.575066,68.894493 24.459585,68.97444 C 24.344096,69.05439 24.260814,69.172099 24.209738,69.327557 C 24.158658,69.480799 24.133118,69.723984 24.133118,70.057111 L 24.133118,71.756073 L 23.197023,71.756073 L 23.197023,69.817258 C 23.197021,69.473026 23.180363,69.25094 23.147053,69.150999 C 23.113733,69.051059 23.061543,68.976663 22.990482,68.927802 C 22.921632,68.878942 22.827246,68.854512 22.707322,68.854512 C 22.562963,68.854515 22.433043,68.893382 22.31756,68.971107 C 22.202073,69.048837 22.118791,69.160994 22.067712,69.307568 C 22.018852,69.454148 21.994422,69.697332 21.994422,70.037123 L 21.994422,71.756072 L 21.058327,71.756072 L 21.058327,68.218234"
       id="path3029"
       style="fill:#0000ff;fill-opacity:1;-inkscape-font-specification:Bitstream Vera Sans Bold" />
    <path
       d="M 26.974716,69.937185 C 26.974716,69.626266 27.051336,69.325339 27.204575,69.034403 C 27.357814,68.743473 27.574349,68.521387 27.854178,68.368144 C 28.136227,68.214907 28.450479,68.138288 28.796936,68.138284 C 29.332161,68.138288 29.770782,68.312625 30.112798,68.661298 C 30.454807,69.007755 30.625814,69.446376 30.625818,69.97716 C 30.625814,70.51239 30.452587,70.956562 30.106135,71.309679 C 29.761898,71.660576 29.32772,71.836024 28.803598,71.836024 C 28.47935,71.836024 28.16954,71.762734 27.874166,71.616159 C 27.581011,71.469582 27.357814,71.255268 27.204575,70.973218 C 27.051335,70.688948 26.974716,70.343604 26.974716,69.937185 M 27.93413,69.987155 C 27.934128,70.338053 28.01741,70.606778 28.183977,70.793329 C 28.35054,70.979883 28.55597,71.073159 28.800267,71.073158 C 29.04456,71.073159 29.248879,70.979888 29.413226,70.793329 C 29.579788,70.606778 29.66307,70.335832 29.663073,69.980493 C 29.66307,69.63404 29.579783,69.367536 29.413226,69.180981 C 29.248879,68.994431 29.04456,68.901155 28.800267,68.901152 C 28.55597,68.901155 28.35054,68.994432 28.183977,69.180981 C 28.017411,69.367536 27.934128,69.636261 27.93413,69.987155"
       id="path3031"
       style="fill:#0000ff;fill-opacity:1;-inkscape-font-specification:Bitstream Vera Sans Bold" />
    <path
       d="M 34.606718,71.756073 L 33.737249,71.756073 L 33.737249,71.236391 C 33.59289,71.43849 33.421884,71.589508 33.224229,71.689447 C 33.028791,71.787167 32.831134,71.836024 32.631259,71.836024 C 32.224839,71.836024 31.876163,71.672791 31.585231,71.346323 C 31.296518,71.017636 31.152162,70.560138 31.152163,69.973829 C 31.152162,69.374198 31.293187,68.918921 31.575237,68.607997 C 31.857286,68.294859 32.213735,68.138288 32.644584,68.138284 C 33.039895,68.138288 33.381908,68.302632 33.670623,68.631316 L 33.670623,66.872391 L 34.606718,66.872391 L 34.606718,71.756073 M 32.108245,69.910534 C 32.108244,70.288083 32.160435,70.561249 32.264816,70.730033 C 32.415833,70.974329 32.626815,71.096477 32.897762,71.096476 C 33.113184,71.096477 33.296405,71.005426 33.447426,70.82331 C 33.598442,70.638979 33.673952,70.364703 33.673955,70.000479 C 33.673952,69.594063 33.600665,69.30202 33.454089,69.124348 C 33.307509,68.944461 33.119847,68.854516 32.8911,68.854513 C 32.669011,68.854516 32.482459,68.943353 32.331442,69.121017 C 32.182642,69.296468 32.108244,69.55964 32.108245,69.910534"
       id="path3033"
       style="fill:#0000ff;fill-opacity:1;-inkscape-font-specification:Bitstream Vera Sans Bold" />
    <path
       d="M 37.581566,70.630095 L 38.514329,70.786665 C 38.394399,71.128679 38.204516,71.389631 37.944677,71.56952 C 37.687055,71.74719 37.363919,71.836024 36.97527,71.836024 C 36.360089,71.836024 35.904812,71.635036 35.609438,71.233059 C 35.376247,70.911035 35.259652,70.504617 35.259652,70.013805 C 35.259652,69.427499 35.412891,68.96889 35.719371,68.637979 C 36.025849,68.304852 36.41339,68.138288 36.881994,68.138284 C 37.408336,68.138288 37.823638,68.312625 38.127899,68.661298 C 38.432154,69.007755 38.57762,69.539652 38.564299,70.256989 L 36.219065,70.256989 C 36.225765,70.534599 36.301235,70.751133 36.445594,70.906592 C 36.589948,71.059833 36.769838,71.136452 36.985264,71.136452 C 37.131839,71.136452 37.255097,71.096472 37.355038,71.016525 C 37.454978,70.936575 37.530484,70.807765 37.581566,70.630095 M 37.634866,69.684006 C 37.628166,69.413063 37.558246,69.207633 37.424994,69.067716 C 37.29174,68.925584 37.129617,68.854516 36.938625,68.854513 C 36.734303,68.854516 36.565518,68.928913 36.432268,69.07771 C 36.299014,69.22651 36.233499,69.428609 36.235721,69.684006 L 37.634866,69.684006"
       id="path3035"
       style="fill:#0000ff;fill-opacity:1;-inkscape-font-specification:Bitstream Vera Sans Bold" />
    <path
       d="M 39.330496,71.756073 L 39.330496,66.872391 L 40.266591,66.872391 L 40.266591,71.756073 L 39.330496,71.756073"
       id="path3037"
       style="fill:#0000ff;fill-opacity:1;-inkscape-font-specification:Bitstream Vera Sans Bold" />
  </g>
  <text
     x="4.6976514"
     y="30.090853"
     transform="scale(0.9305083,1.0746814)"
     id="text2425"
     xml:space="preserve"
     style="font-size:7.70949125px;font-style:normal;font-weight:bold;fill:#000000;fill-opacity:1;stroke:none;font-family:Bitstream Vera Sans;-inkscape-font-specification:Bitstream Vera Sans Bold"><tspan
       x="4.6976514"
       y="30.090853"
       id="tspan2431">&gt; translate(0,3,0);</tspan></text>
  <text
     x="5.4711967"
     y="30.405619"
     transform="scale(0.9305083,1.0746814)"
     id="text2425-5"
     xml:space="preserve"
     style="font-size:7.70949125px;font-style:normal;font-weight:bold;fill:#a39a9d;fill-opacity:1;stroke:none;font-family:Bitstream Vera Sans;-inkscape-font-specification:Bitstream Vera Sans Bold"><tspan
       x="5.4711967"
       y="30.405619"
       id="tspan2431-9">&gt; translate(0,3,0);</tspan></text>
  <text
     x="4.6976514"
     y="41.928917"
     transform="scale(0.9305083,1.0746814)"
     id="text2433"
     xml:space="preserve"
     style="font-size:7.70949125px;font-style:normal;font-weight:bold;fill:#000000;fill-opacity:1;stroke:none;font-family:Bitstream Vera Sans;-inkscape-font-specification:Bitstream Vera Sans Bold"><tspan
       x="4.6976514"
       y="41.928917"
       id="tspan2439">&gt; transmute(Cl);</tspan></text>
  <text
     x="5.4711967"
     y="42.243683"
     transform="scale(0.9305083,1.0746814)"
     id="text2433-2"
     xml:space="preserve"
     style="font-size:7.70949125px;font-style:normal;font-weight:bold;fill:#a39a9d;fill-opacity:1;stroke:none;font-family:Bitstream Vera Sans;-inkscape-font-specification:Bitstream Vera Sans Bold"><tspan
       x="5.4711967"
       y="42.243683"
       id="tspan2439-2">&gt; transmute(Cl);</tspan></text>
  <g
     transform="matrix(1.0514839,0,0,1.214401,-2.993149,-3.3381851)"
     id="text3225-2"
     style="font-size:6.82249689px;font-style:normal;font-weight:normal;fill:#000000;fill-opacity:1;stroke:none;font-family:Bitstream Vera Sans">
    <path
       d="M 43.384625,68.478419 L 43.208066,67.568975 L 43.208066,66.742814 L 44.227443,66.742814 L 44.227443,67.568975 L 44.074204,68.478419 L 43.384625,68.478419 M 44.88704,68.478419 L 44.710481,67.568975 L 44.710481,66.742814 L 45.729858,66.742814 L 45.729858,67.568975 L 45.576619,68.478419 L 44.88704,68.478419"
       id="path3000"
       style="fill:#ff0000;fill-opacity:1;-inkscape-font-specification:Bitstream Vera Sans Bold" />
    <path
       d="M 48.185024,68.088658 L 48.185024,68.834868 L 47.545415,68.834868 L 47.545415,70.260663 C 47.545414,70.549377 47.551015,70.718163 47.562075,70.767021 C 47.575395,70.813661 47.603155,70.852521 47.645355,70.883616 C 47.689775,70.914706 47.743075,70.930256 47.805257,70.930256 C 47.891867,70.930257 48.017348,70.900276 48.181694,70.840306 L 48.261644,71.566529 C 48.043997,71.659809 47.797482,71.706443 47.522096,71.706443 C 47.353309,71.706443 47.20118,71.678683 47.065708,71.623163 C 46.930235,71.565423 46.830296,71.492132 46.765892,71.403297 C 46.703712,71.312237 46.6604,71.190095 46.635971,71.036855 C 46.615981,70.928033 46.605991,70.708168 46.605991,70.377258 L 46.605991,68.834867 L 46.176254,68.834867 L 46.176254,68.088657 L 46.605991,68.088657 L 46.605991,67.385753 L 47.545417,66.83942 L 47.545417,68.088657 L 48.185026,68.088657"
       id="path3002"
       style="fill:#ff0000;fill-opacity:1;-inkscape-font-specification:Bitstream Vera Sans Bold" />
    <path
       d="M 50.890038,70.500517 L 51.822801,70.657088 C 51.702871,70.999102 51.512987,71.260053 51.253149,71.439943 C 50.995526,71.617612 50.672391,71.706446 50.283742,71.706446 C 49.668561,71.706446 49.213284,71.505458 48.91791,71.103482 C 48.684719,70.781457 48.568123,70.375039 48.568124,69.884227 C 48.568123,69.297921 48.721363,68.839313 49.027843,68.508401 C 49.334321,68.175275 49.721861,68.00871 50.190465,68.008706 C 50.716808,68.00871 51.132109,68.183048 51.436371,68.53172 C 51.740626,68.878178 51.886092,69.410074 51.87277,70.127412 L 49.527537,70.127412 C 49.534237,70.405021 49.609707,70.621555 49.754065,70.777015 C 49.89842,70.930255 50.07831,71.006875 50.293736,71.006874 C 50.440311,71.006875 50.563568,70.966904 50.66351,70.886947 C 50.76345,70.806997 50.838955,70.678187 50.890038,70.500517 M 50.943338,69.554428 C 50.936638,69.283485 50.866718,69.078055 50.733466,68.938138 C 50.600212,68.796006 50.438089,68.724938 50.247096,68.724935 C 50.042775,68.724938 49.87399,68.799335 49.740739,68.948132 C 49.607486,69.096933 49.541971,69.299031 49.544193,69.554428 L 50.943338,69.554428"
       id="path3004"
       style="fill:#ff0000;fill-opacity:1;-inkscape-font-specification:Bitstream Vera Sans Bold" />
    <path
       d="M 52.30917,70.617112 L 53.248596,70.473866 C 53.288566,70.655978 53.369632,70.794782 53.491781,70.890279 C 53.613927,70.983559 53.784933,71.030194 54.004801,71.030193 C 54.246873,71.030194 54.428984,70.985773 54.551134,70.896941 C 54.633304,70.834761 54.674389,70.751475 54.674392,70.647094 C 54.674389,70.576024 54.652182,70.517174 54.607762,70.470535 C 54.561122,70.426115 54.45674,70.385035 54.29462,70.347277 C 53.539524,70.180714 53.060928,70.028585 52.85883,69.890889 C 52.579001,69.699897 52.439087,69.434504 52.439087,69.094709 C 52.439087,68.788233 52.560124,68.530613 52.802198,68.321848 C 53.044272,68.113091 53.419598,68.00871 53.928177,68.008706 C 54.412323,68.00871 54.772103,68.087556 55.007517,68.245229 C 55.242926,68.402913 55.405049,68.636104 55.493887,68.944801 L 54.611093,69.108035 C 54.573333,68.970344 54.501158,68.864853 54.394559,68.791561 C 54.290176,68.718281 54.140268,68.681631 53.944833,68.681629 C 53.698316,68.681631 53.521757,68.716059 53.415157,68.784899 C 53.344087,68.833759 53.308554,68.897055 53.308556,68.974783 C 53.308554,69.041413 53.339646,69.098043 53.401836,69.144679 C 53.486226,69.206869 53.77716,69.29459 54.274636,69.407851 C 54.774328,69.521118 55.123003,69.659921 55.320663,69.824264 C 55.516096,69.99083 55.613814,70.22291 55.613817,70.520505 C 55.613814,70.844752 55.478341,71.12347 55.207399,71.35666 C 54.936451,71.589851 54.535585,71.706446 54.004801,71.706446 C 53.522872,71.706446 53.140883,71.608726 52.858834,71.413292 C 52.579005,71.217857 52.395784,70.952464 52.30917,70.617112"
       id="path3006"
       style="fill:#ff0000;fill-opacity:1;-inkscape-font-specification:Bitstream Vera Sans Bold" />
    <path
       d="M 58.05899,68.088658 L 58.05899,68.834868 L 57.419381,68.834868 L 57.419381,70.260663 C 57.419379,70.549377 57.424881,70.718163 57.436041,70.767021 C 57.449361,70.813661 57.477121,70.852521 57.519321,70.883616 C 57.563741,70.914706 57.617041,70.930256 57.679224,70.930256 C 57.765834,70.930257 57.891314,70.900276 58.05566,70.840306 L 58.13561,71.566529 C 57.917964,71.659809 57.671448,71.706443 57.396062,71.706443 C 57.227275,71.706443 57.075146,71.678683 56.939675,71.623163 C 56.804201,71.565423 56.704262,71.492132 56.639858,71.403297 C 56.577678,71.312237 56.534366,71.190095 56.509937,71.036855 C 56.489947,70.928033 56.479957,70.708168 56.479957,70.377258 L 56.479957,68.834867 L 56.050219,68.834867 L 56.050219,68.088657 L 56.479957,68.088657 L 56.479957,67.385753 L 57.419383,66.83942 L 57.419383,68.088657 L 58.058992,68.088657"
       id="path3008"
       style="fill:#ff0000;fill-opacity:1;-inkscape-font-specification:Bitstream Vera Sans Bold" />
    <path
       d="M 58.715255,71.626495 L 58.715255,70.690401 L 59.65135,70.690401 L 59.65135,71.626495 L 58.715255,71.626495"
       id="path3010"
       style="fill:#ff0000;fill-opacity:1;-inkscape-font-specification:Bitstream Vera Sans Bold" />
    <path
       d="M 60.157707,71.626495 L 61.433594,69.804276 L 60.211007,68.088658 L 61.353642,68.088658 L 61.979926,69.061396 L 62.639523,68.088658 L 63.738851,68.088658 L 62.539584,69.7643 L 63.848784,71.626495 L 62.699487,71.626495 L 61.979926,70.530499 L 61.253703,71.626495 L 60.157707,71.626495"
       id="path3012"
       style="fill:#ff0000;fill-opacity:1;-inkscape-font-specification:Bitstream Vera Sans Bold" />
    <path
       d="M 63.962049,68.088658 L 64.958107,68.088658 L 65.804257,70.600456 L 66.630418,68.088658 L 67.599826,68.088658 L 66.350589,71.493243 L 66.127392,72.109533 C 66.045222,72.316073 65.966378,72.473754 65.89087,72.582578 C 65.81758,72.691399 65.732077,72.779123 65.63436,72.84575 C 65.53886,72.9146 65.420045,72.967896 65.277912,73.005652 C 65.137996,73.043402 64.979204,73.062282 64.801536,73.062282 C 64.621645,73.06228 64.445087,73.043402 64.27186,73.005652 L 64.18858,72.272767 C 64.335157,72.301637 64.467298,72.316077 64.585005,72.316077 C 64.802649,72.316076 64.963661,72.251667 65.068043,72.122862 C 65.172422,71.996272 65.252373,71.834149 65.307896,71.636492 L 63.962052,68.088661"
       id="path3014"
       style="fill:#ff0000;fill-opacity:1;-inkscape-font-specification:Bitstream Vera Sans Bold" />
    <path
       d="M 67.799704,71.626495 L 67.799704,70.896941 L 69.12556,69.374538 C 69.343203,69.125804 69.504216,68.949245 69.608598,68.844862 C 69.499774,68.851562 69.356528,68.855972 69.178861,68.858182 L 67.929624,68.864882 L 67.929624,68.08869 L 70.854503,68.08869 L 70.854503,68.751618 L 69.501997,70.310665 L 69.025621,70.827016 C 69.285461,70.811466 69.446473,70.803696 69.508659,70.803696 L 70.957773,70.803696 L 70.957773,71.626526 L 67.799704,71.626526"
       id="path3016"
       style="fill:#ff0000;fill-opacity:1;-inkscape-font-specification:Bitstream Vera Sans Bold" />
    <path
       d="M 71.647351,68.478419 L 71.470792,67.568975 L 71.470792,66.742814 L 72.490169,66.742814 L 72.490169,67.568975 L 72.336929,68.478419 L 71.647351,68.478419 M 73.149766,68.478419 L 72.973207,67.568975 L 72.973207,66.742814 L 73.992584,66.742814 L 73.992584,67.568975 L 73.839344,68.478419 L 73.149766,68.478419"
       id="path3018"
       style="fill:#ff0000;fill-opacity:1;-inkscape-font-specification:Bitstream Vera Sans Bold" />
  </g>
  <g
     transform="matrix(1.0514839,0,0,1.214401,-2.993149,-3.3381851)"
     id="text3225-9"
     style="font-size:6.82249689px;font-style:normal;font-weight:normal;fill:#000000;fill-opacity:1;stroke:none;font-family:Bitstream Vera Sans">
    <path
       d="M 74.635423,72.701826 C 74.819754,72.306511 74.949675,72.003363 75.025185,71.792382 C 75.100695,71.581399 75.170651,71.338215 75.235056,71.062828 C 75.299456,70.787441 75.347209,70.52649 75.378302,70.279973 C 75.409392,70.031237 75.424942,69.776949 75.424942,69.517106 C 75.424941,68.988542 75.368312,68.488848 75.255046,68.018022 C 75.141781,67.544982 74.93302,66.971999 74.628762,66.299073 L 75.26504,66.299073 C 75.600389,66.776563 75.86023,67.28292 76.044564,67.818144 C 76.231114,68.353376 76.324391,68.896377 76.324393,69.447149 C 76.324391,69.911311 76.251103,70.408784 76.104527,70.93957 C 75.937961,71.534761 75.663684,72.12218 75.281697,72.701826 L 74.635425,72.701826"
       id="path2995"
       style="font-weight:bold;-inkscape-font-specification:Bitstream Vera Sans Bold" />
    <path
       d="M 77.327111,68.664294 L 77.327111,67.728199 L 78.263206,67.728199 L 78.263206,68.664294 L 77.327111,68.664294 M 77.327111,70.329942 L 78.263206,70.329942 L 78.263206,70.999533 C 78.263204,71.270479 78.239886,71.483682 78.193246,71.639142 C 78.146606,71.796823 78.057772,71.937848 77.926743,72.062217 C 77.797931,72.186585 77.633588,72.284303 77.433711,72.355371 L 77.250489,71.968941 C 77.439262,71.906761 77.573624,71.820142 77.653576,71.7091 C 77.733526,71.598056 77.775723,71.450369 77.780166,71.266037 L 77.327109,71.266037 L 77.327109,70.329942"
       id="path2997"
       style="font-weight:bold;-inkscape-font-specification:Bitstream Vera Sans Bold" />
  </g>
  <g
     transform="matrix(1.0514839,0,0,1.214401,-2.993149,-3.3381851)"
     id="text3225-9-6"
     style="font-size:6.82249689px;font-style:normal;font-weight:normal;fill:#000000;fill-opacity:1;stroke:none;font-family:Bitstream Vera Sans">
    <path
       d="M 42.59231,72.641737 L 41.949369,72.641737 C 41.609576,72.128716 41.350845,71.595709 41.173177,71.042714 C 40.995507,70.48972 40.906673,69.954492 40.906673,69.437029 C 40.906673,68.795201 41.016605,68.187796 41.236472,67.614809 C 41.427465,67.11734 41.669539,66.658732 41.962694,66.238984 L 42.602303,66.238984 C 42.298043,66.91191 42.088172,67.484893 41.972688,67.957933 C 41.859423,68.428759 41.802791,68.928453 41.802792,69.457017 C 41.802791,69.82124 41.836102,70.194345 41.902732,70.576333 C 41.971572,70.958322 42.064854,71.321433 42.182561,71.665667 C 42.260291,71.892194 42.396873,72.217551 42.592311,72.641737"
       id="path2992"
       style="font-weight:bold;-inkscape-font-specification:Bitstream Vera Sans Bold" />
  </g>
</svg>
