<?xml version="1.0" encoding="UTF-8" standalone="no"?>
<!-- Created with Inkscape (http://www.inkscape.org/) -->
<svg
   xmlns:dc="http://purl.org/dc/elements/1.1/"
   xmlns:cc="http://web.resource.org/cc/"
   xmlns:rdf="http://www.w3.org/1999/02/22-rdf-syntax-ns#"
   xmlns:svg="http://www.w3.org/2000/svg"
   xmlns="http://www.w3.org/2000/svg"
   xmlns:xlink="http://www.w3.org/1999/xlink"
   xmlns:sodipodi="http://sodipodi.sourceforge.net/DTD/sodipodi-0.dtd"
   xmlns:inkscape="http://www.inkscape.org/namespaces/inkscape"
   version="1.0"
   width="100"
   height="100"
   id="svg2"
   sodipodi:version="0.32"
   inkscape:version="0.45.1"
   sodipodi:docname="transform_flipx.svg"
   sodipodi:docbase="/home/tris/src/aten/src/gui-qt/icons"
   inkscape:output_extension="org.inkscape.output.svg.inkscape">
  <metadata
     id="metadata2566">
    <rdf:RDF>
      <cc:Work
         rdf:about="">
        <dc:format>image/svg+xml</dc:format>
        <dc:type
           rdf:resource="http://purl.org/dc/dcmitype/StillImage" />
      </cc:Work>
    </rdf:RDF>
  </metadata>
  <sodipodi:namedview
     inkscape:window-height="714"
     inkscape:window-width="1024"
     inkscape:pageshadow="2"
     inkscape:pageopacity="0.0"
     guidetolerance="10.0"
     gridtolerance="10.0"
     objecttolerance="10.0"
     borderopacity="1.0"
     bordercolor="#666666"
     pagecolor="#ffffff"
     id="base"
     inkscape:zoom="5.1576622"
     inkscape:cx="53.076108"
     inkscape:cy="49.026141"
     inkscape:window-x="0"
     inkscape:window-y="29"
     inkscape:current-layer="svg2" />
  <defs
     id="defs4">
    <linearGradient
       id="linearGradient3389">
      <stop
         id="stop3391"
         offset="0"
         style="stop-color:#ffffff;stop-opacity:1;" />
      <stop
         id="stop3393"
         offset="1"
         style="stop-color:#d1c89d;stop-opacity:0;" />
    </linearGradient>
    <linearGradient
       id="linearGradient3383">
      <stop
         id="stop3385"
         offset="0"
         style="stop-color:#ffff06;stop-opacity:0;" />
      <stop
         id="stop3387"
         offset="1"
         style="stop-color:#000000;stop-opacity:1" />
    </linearGradient>
    <linearGradient
       id="linearGradient3384">
      <stop
         style="stop-color:#008302;stop-opacity:0;"
         offset="0"
         id="stop3386" />
      <stop
         style="stop-color:#000000;stop-opacity:1"
         offset="1"
         id="stop3388" />
    </linearGradient>
    <linearGradient
       id="linearGradient3252">
      <stop
         style="stop-color:#ffffff;stop-opacity:1"
         offset="0"
         id="stop3254" />
      <stop
         style="stop-color:#007f05;stop-opacity:0;"
         offset="1"
         id="stop3256" />
    </linearGradient>
    <radialGradient
       inkscape:collect="always"
       xlink:href="#linearGradient3389"
       id="radialGradient2333"
       gradientUnits="userSpaceOnUse"
       gradientTransform="matrix(0.1887019,0,0,0.1887019,59.380008,7.8885765)"
       cx="58.01162"
       cy="63.345894"
       fx="58.01162"
       fy="63.345894"
       r="33.113495" />
    <linearGradient
       inkscape:collect="always"
       xlink:href="#linearGradient3383"
       id="linearGradient2336"
       gradientUnits="userSpaceOnUse"
       gradientTransform="matrix(0.2377304,0.2377304,-0.2377304,0.2377304,75.66753,-4.8518641)"
       x1="25.398125"
       y1="63.345894"
       x2="90.625114"
       y2="63.345894" />
    <radialGradient
       inkscape:collect="always"
       xlink:href="#linearGradient3389"
       id="radialGradient2344"
       gradientUnits="userSpaceOnUse"
       gradientTransform="matrix(0.1887019,0,0,0.1887019,59.380009,53.176154)"
       cx="58.01162"
       cy="63.345894"
       fx="58.01162"
       fy="63.345894"
       r="33.113495" />
    <linearGradient
       inkscape:collect="always"
       xlink:href="#linearGradient3383"
       id="linearGradient2347"
       gradientUnits="userSpaceOnUse"
       gradientTransform="matrix(0.2377304,0.2377304,-0.2377304,0.2377304,75.66753,40.435713)"
       x1="25.398125"
       y1="63.345894"
       x2="90.625114"
       y2="63.345894" />
    <radialGradient
       inkscape:collect="always"
       xlink:href="#linearGradient3252"
       id="radialGradient2363"
       gradientUnits="userSpaceOnUse"
       gradientTransform="matrix(0.1887019,0,0,0.1887019,8.580433,53.176154)"
       cx="58.01162"
       cy="63.345894"
       fx="58.01162"
       fy="63.345894"
       r="33.113495" />
    <linearGradient
       inkscape:collect="always"
       xlink:href="#linearGradient3384"
       id="linearGradient2366"
       gradientUnits="userSpaceOnUse"
       gradientTransform="matrix(0.2377304,0.2377304,-0.2377304,0.2377304,24.867954,40.435713)"
       x1="25.398125"
       y1="63.345894"
       x2="90.625114"
       y2="63.345894" />
    <radialGradient
       inkscape:collect="always"
       xlink:href="#linearGradient3252"
       id="radialGradient2374"
       gradientUnits="userSpaceOnUse"
       gradientTransform="matrix(0.1887019,0,0,0.1887019,8.580432,7.8885765)"
       cx="58.01162"
       cy="63.345894"
       fx="58.01162"
       fy="63.345894"
       r="33.113495" />
    <linearGradient
       inkscape:collect="always"
       xlink:href="#linearGradient3384"
       id="linearGradient2377"
       gradientUnits="userSpaceOnUse"
       gradientTransform="matrix(0.2377304,0.2377304,-0.2377304,0.2377304,24.867954,-4.8518641)"
       x1="25.398125"
       y1="63.345894"
       x2="90.625114"
       y2="63.345894" />
  </defs>
  <g
     id="g2487">
    <path
       d="M 93.798886,32.620885 C 93.799946,38.677277 88.890566,43.587515 82.834176,43.587515 C 76.777786,43.587515 71.868406,38.677277 71.869466,32.620885 C 71.868406,26.564493 76.777786,21.654255 82.834176,21.654255 C 88.890566,21.654255 93.799946,26.564493 93.798886,32.620885 L 93.798886,32.620885 z "
       style="fill:#dcdee3;fill-opacity:1;fill-rule:evenodd;stroke:none;stroke-width:0.33620161px;stroke-linecap:butt;stroke-linejoin:miter;stroke-opacity:1"
       id="path2451" />
    <path
       d="M 85.250426,24.039257 C 85.251486,30.095649 80.342108,35.005887 74.285716,35.005887 C 68.229324,35.005887 63.319946,30.095649 63.321006,24.039257 C 63.319946,17.982865 68.229324,13.072627 74.285716,13.072627 C 80.342108,13.072627 85.251486,17.982865 85.250426,24.039257 L 85.250426,24.039257 z "
       style="fill:#c7cfcc;fill-opacity:0.78089887;fill-rule:evenodd;stroke:#000000;stroke-width:0.33620161px;stroke-linecap:butt;stroke-linejoin:miter;stroke-opacity:1"
       id="path2258" />
    <path
       d="M 82.152631,31.751731 C 77.870865,36.034996 70.927348,36.035604 66.644833,31.753089 C 62.362316,27.470573 62.362925,20.527056 66.64619,16.245291 C 70.927956,11.962025 77.871473,11.961417 82.153989,16.243932 C 86.436504,20.526448 86.435896,27.469965 82.152631,31.751731 L 82.152631,31.751731 z "
       style="opacity:0.71739131;fill:url(#linearGradient2336);fill-opacity:1.0;fill-rule:evenodd;stroke:none;stroke-width:1px;stroke-linecap:butt;stroke-linejoin:miter;stroke-opacity:1"
       id="path2260" />
    <path
       d="M 76.481136,19.842065 C 76.481731,23.241371 73.726216,25.99737 70.326909,25.99737 C 66.927602,25.99737 64.172087,23.241371 64.172682,19.842065 C 64.172087,16.442758 66.927602,13.68676 70.326909,13.68676 C 73.726216,13.68676 76.481731,16.442758 76.481136,19.842065 L 76.481136,19.842065 z "
       style="fill:url(#radialGradient2333);fill-opacity:1.0;fill-rule:evenodd;stroke:none;stroke-width:1px;stroke-linecap:butt;stroke-linejoin:miter;stroke-opacity:1"
       id="path2262" />
  </g>
  <use
     x="0"
     y="0"
     xlink:href="#g2487"
     id="use2493"
     transform="translate(0,45.369392)"
     width="100"
     height="100" />
  <g
     id="g2478">
    <path
       d="M 42.999306,32.620885 C 43.000366,38.677277 38.090986,43.587515 32.034596,43.587515 C 25.978206,43.587515 21.068826,38.677277 21.069886,32.620885 C 21.068826,26.564493 25.978206,21.654255 32.034596,21.654255 C 38.090986,21.654255 43.000366,26.564493 42.999306,32.620885 L 42.999306,32.620885 z "
       style="fill:#e4e6e1;fill-opacity:1;fill-rule:evenodd;stroke:none;stroke-width:0.33620161px;stroke-linecap:butt;stroke-linejoin:miter;stroke-opacity:1"
       id="path2461" />
    <g
       id="g3349">
      <path
         id="path3474"
         style="fill:#00ab00;fill-opacity:1;fill-rule:evenodd;stroke:#000000;stroke-width:0.33620161px;stroke-linecap:butt;stroke-linejoin:miter;stroke-opacity:1"
         d="M 34.45085,24.039257 C 34.45191,30.095649 29.542532,35.005887 23.48614,35.005887 C 17.429748,35.005887 12.52037,30.095649 12.52143,24.039257 C 12.52037,17.982865 17.429748,13.072627 23.48614,13.072627 C 29.542532,13.072627 34.45191,17.982865 34.45085,24.039257 L 34.45085,24.039257 z " />
      <path
         id="path3476"
         style="opacity:0.71739131;fill:url(#linearGradient2377);fill-opacity:1;fill-rule:evenodd;stroke:none;stroke-width:1px;stroke-linecap:butt;stroke-linejoin:miter;stroke-opacity:1"
         d="M 31.353055,31.751731 C 27.071289,36.034996 20.127772,36.035604 15.845257,31.753089 C 11.56274,27.470573 11.563349,20.527056 15.846614,16.245291 C 20.12838,11.962025 27.071897,11.961417 31.354413,16.243932 C 35.636928,20.526448 35.63632,27.469965 31.353055,31.751731 L 31.353055,31.751731 z " />
      <path
         id="path3478"
         style="fill:url(#radialGradient2374);fill-opacity:1;fill-rule:evenodd;stroke:none;stroke-width:1px;stroke-linecap:butt;stroke-linejoin:miter;stroke-opacity:1"
         d="M 25.68156,19.842065 C 25.682155,23.241371 22.92664,25.99737 19.527333,25.99737 C 16.128026,25.99737 13.372511,23.241371 13.373106,19.842065 C 13.372511,16.442758 16.128026,13.68676 19.527333,13.68676 C 22.92664,13.68676 25.682155,16.442758 25.68156,19.842065 L 25.68156,19.842065 z " />
    </g>
  </g>
  <use
     x="0"
     y="0"
     xlink:href="#g2478"
     id="use2485"
     transform="translate(0,45.312557)"
     width="100"
     height="100" />
  <path
     style="opacity:0.64130435;fill:none;fill-opacity:1;fill-rule:evenodd;stroke:#e0e1e0;stroke-width:3;stroke-linecap:round;stroke-linejoin:round;stroke-miterlimit:4;stroke-dasharray:6, 3;stroke-dashoffset:0;stroke-opacity:1"
     d="M 57.434386,98.042375 L 57.434386,12.486971"
     id="path2475"
     sodipodi:nodetypes="cc" />
  <path
     style="opacity:0.64130435;fill:none;fill-opacity:1;fill-rule:evenodd;stroke:#000000;stroke-width:3;stroke-linecap:round;stroke-linejoin:round;stroke-miterlimit:4;stroke-dasharray:6, 3;stroke-dashoffset:0;stroke-opacity:1"
     d="M 48.885925,89.460748 L 48.885925,3.9053428"
     id="path3261"
     sodipodi:nodetypes="cc" />
</svg>
