<?xml version="1.0" encoding="UTF-8" standalone="no"?>
<!-- Created with Inkscape (http://www.inkscape.org/) -->
<svg
   xmlns:dc="http://purl.org/dc/elements/1.1/"
   xmlns:cc="http://web.resource.org/cc/"
   xmlns:rdf="http://www.w3.org/1999/02/22-rdf-syntax-ns#"
   xmlns:svg="http://www.w3.org/2000/svg"
   xmlns="http://www.w3.org/2000/svg"
   xmlns:xlink="http://www.w3.org/1999/xlink"
   xmlns:sodipodi="http://sodipodi.sourceforge.net/DTD/sodipodi-0.dtd"
   xmlns:inkscape="http://www.inkscape.org/namespaces/inkscape"
   version="1.0"
   width="100"
   height="100"
   id="svg2"
   sodipodi:version="0.32"
   inkscape:version="0.45.1"
   sodipodi:docname="file_saveimage.svg"
   sodipodi:docbase="/home/tris/src/aten/src/gui/icons"
   inkscape:output_extension="org.inkscape.output.svg.inkscape">
  <metadata
     id="metadata2566">
    <rdf:RDF>
      <cc:Work
         rdf:about="">
        <dc:format>image/svg+xml</dc:format>
        <dc:type
           rdf:resource="http://purl.org/dc/dcmitype/StillImage" />
      </cc:Work>
    </rdf:RDF>
  </metadata>
  <sodipodi:namedview
     inkscape:window-height="734"
     inkscape:window-width="1024"
     inkscape:pageshadow="2"
     inkscape:pageopacity="0.0"
     guidetolerance="10.0"
     gridtolerance="10.0"
     objecttolerance="10.0"
     borderopacity="1.0"
     bordercolor="#666666"
     pagecolor="#ffffff"
     id="base"
     inkscape:zoom="3.1422838"
     inkscape:cx="90.294584"
     inkscape:cy="40.331005"
     inkscape:window-x="0"
     inkscape:window-y="6"
     inkscape:current-layer="svg2" />
  <defs
     id="defs4">
    <linearGradient
       id="linearGradient3348">
      <stop
         style="stop-color:#ffffff;stop-opacity:1;"
         offset="0"
         id="stop3350" />
      <stop
         style="stop-color:#d3cb83;stop-opacity:1;"
         offset="1"
         id="stop3352" />
    </linearGradient>
    <linearGradient
       id="linearGradient3152">
      <stop
         style="stop-color:#00ab17;stop-opacity:1;"
         offset="0"
         id="stop3154" />
      <stop
         style="stop-color:#c5c5c5;stop-opacity:1;"
         offset="1"
         id="stop3156" />
    </linearGradient>
    <linearGradient
       id="linearGradient5072">
      <stop
         style="stop-color:#862bff;stop-opacity:1;"
         offset="0"
         id="stop5074" />
      <stop
         style="stop-color:#9b50ff;stop-opacity:1;"
         offset="1"
         id="stop5076" />
    </linearGradient>
    <linearGradient
       id="linearGradient5064">
      <stop
         style="stop-color:#dadada;stop-opacity:1;"
         offset="0"
         id="stop5066" />
      <stop
         style="stop-color:#898989;stop-opacity:1;"
         offset="1"
         id="stop5068" />
    </linearGradient>
    <linearGradient
       inkscape:collect="always"
       xlink:href="#linearGradient3152"
       id="linearGradient3158"
       x1="-61.200825"
       y1="81.791328"
       x2="-61.200825"
       y2="65.228409"
       gradientUnits="userSpaceOnUse"
       gradientTransform="translate(122.85385,13.862886)" />
    <linearGradient
       inkscape:collect="always"
       xlink:href="#linearGradient5072"
       id="linearGradient2214"
       gradientUnits="userSpaceOnUse"
       gradientTransform="matrix(1.0189552,0,0,1.0189552,-12.40089,-9.7473542)"
       x1="15.350921"
       y1="46.012269"
       x2="80.354601"
       y2="46.012269" />
    <linearGradient
       inkscape:collect="always"
       xlink:href="#linearGradient5064"
       id="linearGradient2216"
       gradientUnits="userSpaceOnUse"
       gradientTransform="matrix(1.0189552,0,0,1.0189552,-12.40089,-9.7473542)"
       x1="32.942781"
       y1="25.952554"
       x2="66.236531"
       y2="25.952554" />
    <linearGradient
       inkscape:collect="always"
       xlink:href="#linearGradient3348"
       id="linearGradient2228"
       gradientUnits="userSpaceOnUse"
       x1="25.180519"
       y1="76.173811"
       x2="97.826416"
       y2="76.173811"
       gradientTransform="matrix(1.2085256,0,0,1.6947582,-28.896163,-91.111165)" />
  </defs>
  <rect
     style="fill:#282828;fill-opacity:1;fill-rule:evenodd;stroke:#282828;stroke-width:3.13044763;stroke-miterlimit:4;stroke-dasharray:none;stroke-dashoffset:0;stroke-opacity:1"
     id="rect3391"
     width="94.459671"
     height="74.940987"
     x="3.8719504"
     y="6.4906983"
     ry="2.6599097" />
  <rect
     style="fill:url(#linearGradient2228);fill-opacity:1;fill-rule:evenodd;stroke:#000000;stroke-width:2.19044375;stroke-miterlimit:4;stroke-dasharray:none;stroke-dashoffset:0;stroke-opacity:1"
     id="rect2173"
     width="95.16465"
     height="74.594208"
     x="1.5617609"
     y="3.7445571"
     ry="2.6476014" />
  <path
     style="fill:#d0d0d0;fill-opacity:1"
     d="M 61.347548,65.962768 C 58.388307,62.526114 61.495001,58.312244 63.476334,55.202729 C 66.125129,52.317808 67.839457,46.524706 62.531598,45.327563 C 61.571757,46.614572 61.508444,51.173017 58.696565,52.612271 C 54.900433,55.886228 47.42508,55.655024 45.595598,50.44491 C 43.770759,46.76246 47.516755,43.20614 45.754046,39.553881 C 44.744217,35.973791 39.018937,34.419809 37.27558,38.311415 C 35.439415,40.787507 37.168769,47.736948 32.139936,46.120177 C 28.304136,44.477553 25.635125,40.542545 21.312825,40.010075 C 17.499477,41.254179 18.967367,47.021657 14.711234,48.292949 C 10.016946,50.364426 4.9954135,46.054802 3.8918871,41.771561 C 2.4491125,36.850679 8.8813685,35.31618 12.58975,36.480741 C 18.394665,37.605404 25.567543,33.590793 25.178298,27.374165 C 25.318547,23.35001 20.917023,21.597651 20.033911,18.052045 C 18.052983,13.351849 24.50045,10.672965 28.096771,13.121251 C 32.500531,15.03452 31.347812,19.954797 30.079266,23.365916 C 29.308089,28.010488 33.584918,31.769275 38.022664,32.464541 C 43.60468,33.582505 50.536603,32.42257 53.8751,27.549714 C 56.638519,22.362311 53.565013,16.00234 56.706419,10.965117 C 59.267782,8.3143801 64.57665,8.3470957 66.897322,11.296236 C 70.221596,14.370588 67.243295,18.587035 64.618579,20.999226 C 61.851977,23.975302 57.746236,27.332943 58.981893,31.811517 C 59.199213,35.905481 63.227416,37.924185 67.001589,36.318228 C 70.860488,34.755119 74.597154,37.697803 74.533651,41.54911 C 75.618014,45.810182 80.837221,45.716124 84.305088,44.51454 C 87.45883,43.684427 93.163295,41.473488 93.925333,46.198179 C 95.315325,50.261225 91.621984,54.323938 87.225066,52.895329 C 82.408723,52.162387 77.719835,48.752122 72.758722,50.473587 C 69.348196,52.288189 68.394677,56.486003 69.631044,59.818681 C 69.868969,62.692473 69.142715,67.046846 65.519212,67.467184 C 63.98697,67.534379 62.563451,66.786057 61.347548,65.962768 z M 68.010161,61.304042 C 66.719392,57.85043 66.880964,64.193358 68.010161,61.304042 z M 93.017971,46.581925 C 92.338707,43.459138 91.889378,49.349848 93.017971,46.581925 z M 57.031121,44.502348 C 54.52344,40.689917 55.071454,49.304569 56.844918,44.992665 L 57.031121,44.502348 L 57.031121,44.502348 z M 11.78031,39.655769 C 9.6856135,37.401972 11.673641,42.700611 11.78031,39.655769 z M 72.27979,37.55236 C 72.28593,33.77403 69.878124,39.716955 72.27979,37.55236 z M 27.246489,22.595744 C 25.729466,23.825302 29.246747,22.965356 27.246489,22.595744 z M 26.533799,14.193273 C 25.626031,10.241641 23.851817,14.51816 25.98034,15.188485 L 26.247102,14.837913 L 26.533799,14.193273 L 26.533799,14.193273 z M 65.570377,12.204284 C 64.975124,7.0362629 62.176094,15.495658 65.570377,12.204284 z "
     id="path3372" />
  <path
     style="fill:#b9b9b9;fill-opacity:1"
     d="M 61.253831,65.765974 C 59.95201,58.863747 66.180706,53.037536 65.402853,46.175769 C 64.589088,42.597974 59.086536,40.004937 55.94778,41.923938 C 54.715928,45.394881 60.540774,46.808395 60.532321,50.2917 C 59.468706,53.731012 54.840259,54.883673 51.504007,55.239412 C 46.993504,55.121984 45.852141,50.126718 45.445,46.620505 C 44.98937,43.259591 45.077041,39.845062 44.462465,36.503209 C 41.316279,34.767502 36.277803,35.257637 35.073203,39.038714 C 33.122324,41.600573 38.129748,47.05102 33.00778,45.655104 C 28.42273,44.863429 25.030501,40.283729 20.180712,40.805483 C 15.988196,42.015004 17.711181,48.045044 13.277868,48.81 C 6.7435851,51.163001 0.7811603,41.468031 5.6951733,36.915241 C 7.3815455,35.455462 13.335776,34.098647 10.735893,37.754312 C 10.60437,42.965537 17.75858,38.596604 19.692639,36.592015 C 21.684273,33.255419 27.414092,31.35234 25.226881,26.688034 C 23.885476,22.745545 20.310709,19.709946 19.721537,15.534232 C 21.052459,11.845799 27.54995,12.691752 28.773265,16.297916 C 31.044698,20.779152 28.338221,26.820772 32.475143,30.532435 C 35.246722,32.556321 38.933703,32.689852 42.244736,33.177748 C 49.61814,33.599922 56.391928,27.142816 55.940562,20.003567 C 55.632226,16.824722 53.932305,13.079153 56.833059,10.478942 C 61.336907,7.7516482 67.19578,12.679414 67.612053,17.173501 C 68.178413,22.05453 62.348644,22.013111 60.126378,24.98781 C 57.470409,29.06216 59.078209,35.724583 63.905348,37.531212 C 66.732258,38.958765 69.332992,33.845708 70.48648,37.908382 C 73.624524,42.447649 79.247008,46.704217 85.212584,44.893744 C 88.402615,42.074102 93.333764,43.924709 93.224379,48.293393 C 93.346105,52.397593 87.867277,55.87152 84.460277,52.703913 C 82.596262,49.828847 78.824635,49.045114 75.541217,49.960586 C 68.850139,51.6967 65.044042,60.000989 68.550042,65.854262 C 66.998289,68.028605 62.473966,68.508956 61.253831,65.765974 z M 20.491516,38.013557 C 19.54036,35.460843 19.045098,40.678343 20.491516,38.013557 L 20.491516,38.013557 z "
     id="path3370" />
  <path
     style="fill:#a3a3a3;fill-opacity:1"
     d="M 61.253831,65.765974 C 59.093449,60.431147 63.751321,55.80022 65.368829,51.003122 C 67.317249,46.921868 64.057087,42.874864 60.255167,41.310443 C 57.362617,38.708677 51.696287,40.762078 53.731973,44.859724 C 54.300061,47.831756 58.532143,48.631109 59.764771,49.872905 C 58.903006,54.361079 53.150695,56.336512 49.319711,53.811324 C 44.904454,51.772461 42.838671,45.918266 45.874857,42.000756 C 47.752923,37.28452 41.777945,34.203791 37.764078,36.252616 C 33.318727,37.241602 32.062172,42.745631 35.316583,45.64168 C 30.514343,48.019152 27.043729,42.459793 23.457259,40.326952 C 19.405091,37.759659 18.390591,43.739253 17.353379,46.167845 C 13.741128,50.639492 5.9257682,48.091793 3.7320325,43.484595 C 2.0038575,40.460753 7.103602,35.117078 8.4670259,39.888538 C 11.518547,43.227545 16.800329,41.609758 19.73879,38.98794 C 23.617467,35.788216 27.11774,30.168925 24.554523,25.270136 C 21.905165,22.938794 19.055452,19.318584 20.783021,15.656983 C 22.554125,12.38368 27.835638,14.566334 28.84445,17.308257 C 30.130287,21.501801 28.200236,27.02398 32.383678,30.053943 C 36.773623,32.658957 42.328204,34.210843 47.356528,32.355313 C 53.00883,30.678939 57.369861,24.814247 55.760599,19.051012 C 53.729375,15.959395 55.450378,10.367756 59.913449,10.898604 C 64.594985,11.347227 68.547411,17.218891 65.11619,21.070777 C 62.34153,23.492226 58.265287,25.736697 58.924181,30.046521 C 58.987318,34.593044 63.947708,39.655356 68.777481,37.259352 C 71.115566,37.914599 72.846416,42.947291 76.27243,44.026236 C 79.993596,46.491143 84.841917,45.404683 88.407283,43.894006 C 92.678702,44.908707 93.371706,50.62115 89.669378,52.740779 C 85.722484,55.936399 82.619833,51.35223 79.785036,49.652161 C 74.047012,47.993911 68.71029,52.76526 67.165032,57.810956 C 65.381656,60.76125 67.616048,65.21429 66.996112,67.094712 C 65.067393,67.675229 62.465103,67.566627 61.253831,65.765974 z M 70.449952,40.987524 C 70.357478,38.719312 69.21053,42.621192 70.449952,40.987524 z "
     id="path3368" />
  <path
     style="fill:#8c8c8c;fill-opacity:1"
     d="M 61.253831,65.765974 C 57.556796,63.193046 60.633353,58.328097 64.566183,60.481851 C 69.665795,61.603995 67.566415,70.35628 62.405269,66.795701 L 61.773077,66.327963 L 61.253831,65.765974 L 61.253831,65.765974 z M 65.246396,57.346373 C 68.223615,52.801664 65.525348,47.00915 62.197226,43.380688 C 59.889066,40.729015 55.213559,37.984773 52.152339,41.135902 C 48.286101,44.591112 55.309431,46.780361 56.346129,50.155147 C 59.535471,54.392577 53.238235,55.58792 50.053744,54.367049 C 45.964054,53.301008 45.12957,48.712737 45.434428,45.178954 C 45.49178,41.864347 46.556823,36.384593 41.854687,35.77259 C 38.690371,35.953611 32.997504,35.539343 33.013805,39.865923 C 33.357139,42.486591 34.652097,48.580855 29.937671,45.581886 C 28.399622,42.036773 24.320297,40.788964 21.88231,38.044197 C 19.955344,33.959391 27.170963,32.063942 25.478226,27.813341 C 24.824508,23.53239 19.565225,20.744714 19.924727,16.390113 C 23.07736,13.155402 28.465272,16.542733 28.751369,20.4183 C 29.287864,24.178211 28.916015,29.33494 33.461474,30.908972 C 36.859806,31.974333 40.219445,33.777113 43.943988,33.162298 C 50.62948,32.621351 57.193575,26.816746 56.1791,19.989233 C 54.965304,17.121907 54.202472,11.944356 58.662803,11.468503 C 63.65259,11.964286 67.892257,18.744261 64.045235,22.692454 C 60.413265,24.549567 57.146914,28.290439 59.088056,32.495509 C 60.31876,36.335767 65.119114,39.852099 69.187539,37.505722 C 71.974908,43.412247 79.073749,46.419019 85.543113,45.296056 C 89.197668,43.351228 93.15986,48.569339 91.051603,51.68902 C 88.365561,55.119314 82.757806,53.189885 81.061842,49.751554 C 76.7978,47.630903 72.550411,50.856308 69.711429,53.705927 C 68.297666,54.997969 66.910811,56.350533 65.246396,57.346373 z M 73.19471,45.698599 C 72.049786,44.269357 73.088452,47.728274 73.19471,45.698599 z M 71.059893,41.022278 C 70.861181,37.82324 69.064896,43.105673 71.059893,41.022278 z M 56.726151,32.743137 C 55.115977,29.586938 55.519895,35.697598 56.726151,32.743137 z M 30.803423,31.894565 C 30.693774,30.066259 29.580573,33.186005 30.803423,31.894565 z M 7.1363344,47.657928 C 3.1059784,47.18407 2.5627756,41.297092 6.0900827,39.807314 C 9.2641165,39.443192 9.3577215,43.820284 12.82542,42.991701 C 17.176992,42.896084 17.225606,48.06272 13.044529,48.322243 C 11.074389,48.783026 8.9516965,48.514364 7.1363344,47.657928 z "
     id="path3366" />
  <path
     style="fill:#767676;fill-opacity:1"
     d="M 63.130585,67.069552 C 58.943811,65.966974 59.239882,60.03232 64.023582,61.603834 C 66.859842,61.905932 67.210745,67.862746 64.267166,67.39674 C 63.888305,67.287677 63.509445,67.178614 63.130585,67.069552 z M 64.967032,57.32907 C 68.505258,52.884163 65.676558,46.772563 62.007365,43.308393 C 59.35859,40.77772 55.069077,37.951824 51.37603,40.197437 C 47.423354,43.009998 50.154806,46.742694 53.209874,48.928739 C 55.439087,50.393435 57.730186,55.002688 53.108826,54.483203 C 49.108688,55.095054 45.414278,52.118652 45.644871,48.131561 C 45.150949,44.331831 46.607938,40.12595 44.501791,36.656288 C 41.426293,34.298827 36.919872,36.346207 33.832968,37.779737 C 30.572825,39.75981 32.723298,44.591065 33.353518,46.148862 C 29.756831,46.733936 27.641821,43.042079 25.656204,40.78409 C 24.735574,38.438598 20.403982,38.097024 23.054545,35.616976 C 26.116898,29.645905 24.948802,21.974653 20.070937,17.222684 C 23.401678,14.539331 27.324981,17.701899 28.088931,21.0651 C 29.509107,24.077324 28.975738,28.10511 32.348282,29.947671 C 38.843312,34.77841 49.90841,34.28299 54.575909,27.284412 C 56.996987,23.999285 54.49674,19.886037 55.592978,16.204409 C 55.40446,11.241641 61.125104,11.715102 63.049984,15.306745 C 65.785676,19.770507 61.122,23.799331 59.113882,27.489066 C 56.880278,30.534672 58.384722,36.607421 62.496392,36.786706 C 69.858956,37.812452 73.774644,46.17273 81.565973,46.106219 C 84.586853,45.711084 89.719657,45.009868 90.119293,49.136745 C 90.539582,53.298936 84.735195,55.012863 82.323209,51.684234 C 80.552452,48.028629 75.776293,48.858996 72.976515,50.943737 C 70.104592,52.831907 67.875368,55.488573 64.967032,57.32907 z M 73.499679,45.796745 C 73.505823,42.018413 71.098013,47.961335 73.499679,45.796745 z M 57.031121,33.03758 C 56.123349,29.085948 54.34914,33.362456 56.477664,34.032789 L 56.744425,33.682218 L 57.031121,33.03758 L 57.031121,33.03758 z M 30.803423,31.859811 C 29.895651,27.908181 28.121443,32.184696 30.249965,32.855021 L 30.516726,32.504449 L 30.803423,31.859811 L 30.803423,31.859811 z M 7.8806885,48.07248 C 2.7507343,48.83244 3.7001729,38.625206 8.0165386,42.434221 C 8.6893276,45.981472 16.320675,42.39421 15.622628,47.186259 C 13.738126,49.23859 10.317451,48.557412 7.8806885,48.07248 z "
     id="path3364" />
  <path
     style="fill:#606060;fill-opacity:1"
     d="M 62.587784,66.665537 C 59.820766,65.651605 58.681777,60.781862 62.981148,62.210367 C 66.441996,62.246793 65.672797,69.081796 62.587784,66.665537 z M 64.960428,57.286754 C 67.380621,52.219731 65.423001,46.046649 60.936192,42.698621 C 54.441378,37.542149 45.653966,35.563066 37.395679,36.176765 C 33.392757,37.157414 30.390376,41.285828 30.648052,45.221563 C 31.368303,46.759433 26.641386,43.882036 26.066407,42.405021 C 23.486216,38.650234 22.386289,33.203745 25.106474,29.262614 C 28.158573,26.115514 32.266209,29.411064 34.8878,31.393555 C 40.972448,34.833037 50.150316,34.030826 54.345743,28.172439 C 56.702112,25.26481 55.031191,21.976819 54.566128,18.849972 C 54.143335,14.892434 59.729027,12.73797 62.337412,15.720974 C 64.816197,18.294053 64.823502,22.048231 60.878299,22.65653 C 56.351982,26.012968 57.988417,32.55574 61.142492,36.265112 C 63.148395,40.07025 68.510832,38.912118 70.276659,42.29327 C 74.956245,46.663769 82.300106,44.494449 87.489078,47.761712 C 89.451796,48.964628 90.618073,54.070977 86.954917,51.76786 C 81.357369,50.162238 74.327198,48.448763 69.511586,52.757739 C 67.718711,54.085807 67.049598,56.327522 64.960428,57.286754 z M 73.499679,45.404155 C 72.2089,41.95055 72.370491,48.293484 73.499679,45.404155 z M 57.031121,33.072335 C 57.43137,29.367058 54.455888,32.123393 55.734248,34.027132 C 56.328876,34.035904 56.654433,33.380606 57.031121,33.072335 z M 30.988128,31.867875 C 29.552852,29.667325 30.278753,34.39607 30.988128,31.867875 z M 47.200219,52.24561 C 43.425413,51.051596 43.928204,45.221498 47.659458,44.423383 C 50.684807,45.228363 49.396883,49.364834 53.039334,49.845773 C 56.43069,51.135152 55.616527,56.172202 51.613721,54.603583 C 49.968975,54.182726 48.50186,53.281662 47.200219,52.24561 z M 8.2357143,47.98144 C 4.0581312,48.571587 3.4443124,40.35925 7.8619717,43.172733 C 8.4369257,46.437674 15.433274,44.270785 14.340566,47.745284 C 12.53514,48.8189 10.177009,48.478938 8.2357143,47.98144 z M 25.313905,23.733727 C 21.228464,23.651912 18.101938,16.756255 23.951379,17.092899 C 26.080912,17.661939 29.399001,20.580866 27.094684,22.530572 C 26.501091,22.931623 25.907499,23.332675 25.313905,23.733727 z "
     id="path3362" />
  <path
     style="fill:#494949;fill-opacity:1"
     d="M 62.739338,66.636259 C 60.505521,65.849736 58.76758,61.623601 62.637263,62.734257 C 65.507189,62.685534 65.810455,68.630848 62.739338,66.636259 z M 64.960428,57.290641 C 67.454891,52.227489 65.670155,45.947834 61.156395,42.533219 C 55.811938,38.069253 48.652377,36.415955 41.765845,36.022499 C 37.054622,35.61019 31.101094,37.745443 29.781657,42.543635 C 30.984429,47.337457 25.990013,42.539071 25.312836,40.237819 C 23.99351,36.996601 23.12149,32.785967 25.42114,29.787674 C 29.455304,27.38026 31.216547,34.18922 35.342266,33.150874 C 42.187235,33.820259 50.383584,33.000933 54.855555,27.320824 C 58.409839,24.348305 54.384484,21.313967 55.141205,17.835512 C 56.06627,13.578606 62.360651,14.996245 62.482821,18.990485 C 63.394843,21.931244 57.689474,22.203604 57.475772,25.627911 C 55.770209,30.255399 57.052682,36.369521 61.543258,39.080178 C 64.124512,40.070877 66.683746,38.420695 68.355982,41.331802 C 72.265748,44.936108 77.610913,48.866369 83.332326,46.913566 C 86.542732,44.746942 90.979872,52.123226 86.887877,53.069197 C 83.607863,51.065373 80.246023,47.63329 75.839538,49.538013 C 71.47385,50.939545 68.100952,54.185441 64.960428,57.290641 z M 49.120127,53.778502 C 45.38446,53.630161 44.423471,48.440228 46.609288,46.146168 C 49.106046,46.498783 49.120249,50.238224 51.961099,50.972476 C 54.006664,51.903746 55.68563,55.595089 51.950226,54.504504 C 50.989279,54.332845 50.049488,54.066809 49.120127,53.778502 z M 8.5067685,48.013928 C 6.5352217,47.323686 3.4262964,43.770382 7.6976152,44.971318 C 9.5887915,45.548088 14.150839,46.43682 13.682225,47.902559 C 12.077049,48.674102 10.175973,48.441903 8.5067685,48.013928 z M 21.642668,21.112666 C 19.027287,19.079912 20.539422,16.557396 23.355628,18.777069 C 25.754764,19.433291 27.821891,23.039662 23.661907,21.8713 C 22.883018,21.869933 22.276801,21.483521 21.642668,21.112666 z "
     id="path3360" />
  <path
     style="fill:#333333;fill-opacity:1"
     d="M 61.477175,65.573455 C 59.739076,64.220912 59.760909,61.158907 62.21683,63.617463 C 63.723442,64.55688 63.402993,66.152781 61.477175,65.573455 z M 66.877484,54.586514 C 67.598768,50.140678 64.218516,46.392 61.875613,42.891669 C 60.205706,41.29672 59.557641,38.849176 62.418528,41.203202 C 65.748049,43.617176 70.429088,45.535891 71.353589,49.887281 C 71.727818,52.480768 69.044629,53.950705 66.877484,54.586514 z M 48.673974,53.37794 C 46.127759,52.637075 43.827927,47.011369 48.255469,48.295967 C 50.390178,49.43069 52.403846,52.37211 52.560013,54.31399 C 51.22413,54.496343 49.861889,53.906489 48.673974,53.37794 z M 85.93519,53.012016 C 81.01308,53.028378 82.380784,44.403863 86.635818,48.025205 C 87.454561,49.757335 91.353666,56.056594 85.93519,53.012016 z M 8.4262675,47.993788 C 6.8509676,47.459765 5.4589638,45.563712 8.1516193,46.627603 C 9.8034615,46.786004 12.757667,48.802619 9.1827585,48.101972 L 8.4262675,47.993788 L 8.4262675,47.993788 z M 74.86827,47.906915 C 77.737562,44.71947 76.737158,51.895492 74.86827,47.906915 z M 28.469957,44.92454 C 31.819578,42.137037 31.245404,49.349443 28.469957,44.92454 z M 65.614645,41.202548 C 64.311632,39.632428 64.827111,38.098169 66.375995,40.206606 C 68.000703,41.907331 67.686543,42.832874 65.614645,41.202548 z M 30.193479,40.432566 C 26.015468,41.261016 22.842833,35.637343 25.650874,32.696817 C 29.170315,31.800214 30.892886,37.149496 34.943743,34.99125 C 39.866854,34.406822 44.685613,32.320137 49.694172,32.951701 C 53.343293,34.278798 50.760288,39.432018 47.178684,37.354992 C 42.57715,36.811769 37.293536,34.197886 33.090142,37.351462 C 31.935599,38.1934 30.99851,39.279999 30.193479,40.432566 z M 55.346467,29.308922 C 52.880935,25.709397 59.288221,27.423691 57.03033,29.31355 C 56.473577,29.429861 55.903706,29.378223 55.346467,29.308922 z M 26.616862,28.521888 C 24.090876,26.641842 29.230217,26.235678 26.616862,28.521888 z M 21.662334,21.112666 C 19.941926,19.983141 19.552077,17.106361 22.17968,19.165504 C 24.297344,20.352985 24.787103,21.975722 21.662334,21.112666 z M 58.555989,21.586509 C 54.916182,20.488453 54.340827,15.501505 59.076383,16.79486 C 62.980387,16.299419 64.597298,23.517292 59.899005,22.08354 C 59.435809,21.960687 58.988139,21.78792 58.555989,21.586509 z "
     id="path3358" />
  <g
     id="g2205"
     transform="matrix(0.7175764,0,0,0.7175764,47.526589,47.0843)">
    <g
       style="fill:#282828;fill-opacity:1"
       transform="matrix(0.9453131,0,0,0.9453131,-76.215509,-12.291477)"
       id="g2244">
      <path
         sodipodi:nodetypes="cccccc"
         id="path5144"
         d="M 88.982804,21.695016 L 148.71931,21.695016 L 157.75694,30.291784 L 157.75694,90.469153 L 88.982804,90.469153 L 88.982804,21.695016 z "
         style="fill:#282828;fill-opacity:1;fill-rule:evenodd;stroke:none;stroke-width:1.20000005;stroke-linecap:round;stroke-linejoin:round;stroke-miterlimit:4;stroke-dashoffset:0;stroke-opacity:1" />
      <rect
         y="84.238586"
         x="91.684052"
         height="3.9189899"
         width="4.4322443"
         id="rect5150"
         style="fill:#282828;fill-opacity:1;fill-rule:evenodd;stroke:none;stroke-width:0.58104563;stroke-linecap:round;stroke-linejoin:round;stroke-miterlimit:4;stroke-dasharray:none;stroke-dashoffset:0;stroke-opacity:1" />
    </g>
    <path
       sodipodi:nodetypes="cccccc"
       id="rect5048"
       d="M 3.4088906,3.7435554 L 59.878601,3.7435554 L 68.421989,11.870192 L 68.421989,68.756653 L 3.4088906,68.756653 L 3.4088906,3.7435554 z "
       style="fill:url(#linearGradient2214);fill-opacity:1;fill-rule:evenodd;stroke:#000000;stroke-width:1.22274637;stroke-linecap:round;stroke-linejoin:round;stroke-miterlimit:4;stroke-dashoffset:0;stroke-opacity:1" />
    <path
       id="rect5051"
       d="M 21.334209,3.7259782 L 21.334209,27.894324 L 54.036306,27.894324 L 54.036306,3.7259782 L 21.334209,3.7259782 z M 42.254636,8.152066 L 49.928643,8.152066 L 49.928643,23.786661 L 42.254636,23.786661 L 42.254636,8.152066 z "
       style="fill:url(#linearGradient2216);fill-opacity:1;fill-rule:evenodd;stroke:#000000;stroke-width:1.22274637;stroke-linecap:round;stroke-linejoin:round;stroke-miterlimit:4;stroke-dashoffset:0;stroke-opacity:1" />
    <rect
       y="34.594936"
       x="12.879713"
       height="34.183712"
       width="46.265888"
       id="rect5080"
       style="fill:#ffffff;fill-opacity:1;fill-rule:evenodd;stroke:#000000;stroke-width:1.22274637;stroke-linecap:round;stroke-linejoin:round;stroke-miterlimit:4;stroke-dasharray:none;stroke-dashoffset:0;stroke-opacity:1" />
    <rect
       y="62.86681"
       x="5.962409"
       height="3.7046726"
       width="4.1898589"
       id="rect5082"
       style="fill:#ffffff;fill-opacity:1;fill-rule:evenodd;stroke:#000000;stroke-width:0.59205949;stroke-linecap:round;stroke-linejoin:round;stroke-miterlimit:4;stroke-dasharray:none;stroke-dashoffset:0;stroke-opacity:1" />
  </g>
</svg>
