<?xml version="1.0" encoding="UTF-8" standalone="no"?>
<!-- Created with Inkscape (http://www.inkscape.org/) -->
<svg
   xmlns:dc="http://purl.org/dc/elements/1.1/"
   xmlns:cc="http://web.resource.org/cc/"
   xmlns:rdf="http://www.w3.org/1999/02/22-rdf-syntax-ns#"
   xmlns:svg="http://www.w3.org/2000/svg"
   xmlns="http://www.w3.org/2000/svg"
   xmlns:xlink="http://www.w3.org/1999/xlink"
   xmlns:sodipodi="http://sodipodi.sourceforge.net/DTD/sodipodi-0.dtd"
   xmlns:inkscape="http://www.inkscape.org/namespaces/inkscape"
   version="1.0"
   width="100"
   height="100"
   id="svg2"
   sodipodi:version="0.32"
   inkscape:version="0.45.1"
   sodipodi:docname="view_zoomin.svg"
   sodipodi:docbase="/home/tris/src/aten/src/gui/icons"
   inkscape:output_extension="org.inkscape.output.svg.inkscape">
  <metadata
     id="metadata2566">
    <rdf:RDF>
      <cc:Work
         rdf:about="">
        <dc:format>image/svg+xml</dc:format>
        <dc:type
           rdf:resource="http://purl.org/dc/dcmitype/StillImage" />
      </cc:Work>
    </rdf:RDF>
  </metadata>
  <sodipodi:namedview
     inkscape:window-height="734"
     inkscape:window-width="1024"
     inkscape:pageshadow="2"
     inkscape:pageopacity="0.0"
     guidetolerance="10.0"
     gridtolerance="10.0"
     objecttolerance="10.0"
     borderopacity="1.0"
     bordercolor="#666666"
     pagecolor="#ffffff"
     id="base"
     inkscape:zoom="1.265"
     inkscape:cx="55.753883"
     inkscape:cy="51.580822"
     inkscape:window-x="0"
     inkscape:window-y="6"
     inkscape:current-layer="svg2" />
  <defs
     id="defs4">
    <linearGradient
       id="linearGradient4124">
      <stop
         style="stop-color:#785750;stop-opacity:0.98000002;"
         offset="0"
         id="stop4126" />
      <stop
         id="stop4132"
         offset="0.5"
         style="stop-color:#752600;stop-opacity:1;" />
      <stop
         style="stop-color:#d9e3ff;stop-opacity:0;"
         offset="1"
         id="stop4128" />
    </linearGradient>
    <linearGradient
       id="linearGradient3143">
      <stop
         style="stop-color:#ffffff;stop-opacity:1;"
         offset="0"
         id="stop3145" />
      <stop
         style="stop-color:#ffffff;stop-opacity:0;"
         offset="1"
         id="stop3147" />
    </linearGradient>
    <linearGradient
       id="linearGradient3197">
      <stop
         style="stop-color:#e4e1e1;stop-opacity:1;"
         offset="0"
         id="stop3199" />
      <stop
         style="stop-color:#14af00;stop-opacity:1;"
         offset="1"
         id="stop3201" />
    </linearGradient>
    <linearGradient
       inkscape:collect="always"
       id="linearGradient3189">
      <stop
         style="stop-color:#000000;stop-opacity:1;"
         offset="0"
         id="stop3191" />
      <stop
         style="stop-color:#000000;stop-opacity:0;"
         offset="1"
         id="stop3193" />
    </linearGradient>
    <radialGradient
       inkscape:collect="always"
       xlink:href="#linearGradient3143"
       id="radialGradient3149"
       cx="8.9912443"
       cy="21.082802"
       fx="8.9912443"
       fy="21.082802"
       r="22.290434"
       gradientUnits="userSpaceOnUse"
       gradientTransform="matrix(0.6866068,0,0,0.6866068,26.623804,7.6789753)" />
    <radialGradient
       inkscape:collect="always"
       xlink:href="#linearGradient3197"
       id="radialGradient5137"
       gradientUnits="userSpaceOnUse"
       gradientTransform="matrix(-4.0946483,0,0,2.4019534,201.09666,50.362119)"
       cx="50.059151"
       cy="48.853989"
       fx="50.059151"
       fy="48.853989"
       r="42.138134" />
    <radialGradient
       inkscape:collect="always"
       xlink:href="#linearGradient3189"
       id="radialGradient5139"
       gradientUnits="userSpaceOnUse"
       gradientTransform="matrix(-4.0946483,0,0,2.4019534,201.09666,50.362119)"
       cx="50.059151"
       cy="48.853989"
       fx="50.059151"
       fy="48.853989"
       r="42.138133" />
    <radialGradient
       inkscape:collect="always"
       xlink:href="#linearGradient3143"
       id="radialGradient5332"
       gradientUnits="userSpaceOnUse"
       gradientTransform="matrix(0.6866068,0,0,0.6866068,28.167541,-34.067099)"
       cx="8.9912443"
       cy="21.082802"
       fx="8.9912443"
       fy="21.082802"
       r="22.290434" />
  </defs>
  <path
     sodipodi:type="arc"
     style="fill:#7d7b7d;fill-opacity:1;fill-rule:evenodd;stroke:none;stroke-width:0.82838589;stroke-linecap:butt;stroke-linejoin:miter;stroke-miterlimit:4;stroke-dasharray:none;stroke-opacity:1"
     id="path5334"
     sodipodi:cx="40.550411"
     sodipodi:cy="32.319778"
     sodipodi:rx="21.790434"
     sodipodi:ry="21.790434"
     d="M 62.340845 32.319778 A 21.790434 21.790434 0 1 1  18.759977,32.319778 A 21.790434 21.790434 0 1 1  62.340845 32.319778 z"
     transform="matrix(1.7581633,0,0,1.7581633,-21.545226,-2.1006413)" />
  <g
     id="g5324"
     transform="matrix(-0.632551,0.632551,-0.632551,-0.632551,103.38417,193.99613)">
    <path
       style="fill:#aa8776"
       d="M -81.272218,127.54476 C -81.272218,126.38297 -81.388788,126.21395 -82.551768,125.68952 C -85.948248,124.15792 -87.014618,121.16945 -85.126528,118.47383 C -84.646078,117.78789 -84.668878,117.65968 -85.454458,116.62973 C -86.567068,115.17103 -86.811038,113.56244 -86.127498,112.19225 C -85.832128,111.60018 -85.590468,110.3147 -85.590468,109.33563 C -85.590468,108.35656 -85.284958,106.47368 -84.911558,105.15145 C -82.931838,98.141119 -80.832721,120.51016 -83.914251,88.479296 L -64.555848,86.470909 C -64.773088,96.741559 -64.528888,100.47169 -63.348977,104.90653 C -62.98442,106.27674 -62.677332,108.21996 -62.66656,109.22478 C -62.655788,110.22961 -62.433348,111.42543 -62.172253,111.88217 C -61.456735,113.13383 -61.543578,115.61286 -62.33834,116.62324 C -63.12665,117.62541 -63.182352,118.49329 -62.514989,119.37562 C -61.868228,120.23072 -61.871413,122.99378 -62.520301,123.98411 C -62.803077,124.41568 -63.774683,125.08722 -64.679428,125.47643 C -66.256448,126.15485 -66.324418,126.23861 -66.324418,127.50355 L -66.324418,128.82301 L -73.798318,128.82301 L -81.272218,128.82301 L -81.272218,127.54476 z M -66.991538,121.19177 C -66.613608,120.95283 -66.588138,120.78644 -66.884178,120.49039 C -67.394128,119.98045 -68.981808,120.38378 -68.981808,121.02326 C -68.981808,121.57833 -67.765818,121.68128 -66.991538,121.19177 z M -67.154848,113.54304 C -67.035418,113.34978 -67.366318,113.21086 -67.946078,113.21086 C -68.494168,113.21086 -69.034978,113.36034 -69.147888,113.54304 C -69.267328,113.73629 -68.936428,113.87521 -68.356668,113.87521 C -67.808578,113.87521 -67.267768,113.72573 -67.154848,113.54304 z "
       id="path5309"
       sodipodi:nodetypes="cssssssccsssssssccccccssccsssc" />
    <path
       style="fill:#92624e"
       d="M -80.338688,127.59149 C -80.433408,126.45997 -80.613158,126.26329 -82.552058,125.16963 C -83.712708,124.51495 -84.865868,123.61172 -85.114628,123.16246 C -85.783708,121.95413 -85.696718,120.07899 -84.926128,119.09934 C -84.062988,118.00204 -84.088248,117.56122 -85.092208,116.20042 C -86.050008,114.9022 -86.198648,112.77352 -85.404828,111.72334 C -85.064228,111.27274 -84.967238,110.64645 -85.096178,109.7303 C -85.222908,108.82994 -84.998468,107.31128 -84.407838,105.07262 C -82.555178,98.050469 -80.14058,116.7149 -82.96336,87.6802 L -65.391217,82.880455 C -66.900807,103.63558 -65.701968,98.364499 -64.497838,103.24566 C -64.204891,104.43318 -63.830861,106.3764 -63.666661,107.56392 C -63.502461,108.75143 -63.268727,110.21021 -63.147251,110.80565 C -63.007297,111.49167 -63.079906,112.07323 -63.345466,112.39321 C -63.691029,112.80959 -63.639452,113.03132 -63.051439,113.65723 C -62.168606,114.59696 -62.150692,115.77556 -63.002686,116.86477 C -63.359952,117.32151 -63.655583,117.96441 -63.659645,118.29346 C -63.668385,119.00115 -65.491268,119.85433 -66.994588,119.85433 C -68.256608,119.85433 -70.067008,120.74907 -69.890498,121.28555 C -69.688788,121.89868 -66.737998,121.95208 -65.280658,121.36896 C -63.553004,120.67769 -63.480713,120.69331 -62.996488,121.86234 C -62.374663,123.36355 -62.94726,124.27314 -65.178628,125.32875 L -67.068568,126.22283 L -66.894188,127.52292 C -66.726038,128.77657 -66.754278,128.82301 -67.684718,128.82301 C -68.215418,128.82301 -68.649628,128.67353 -68.649628,128.49083 C -68.649628,128.01277 -69.559218,128.08084 -69.759268,128.57388 C -69.886058,128.88635 -70.014948,128.86579 -70.280128,128.49083 C -70.519018,128.15303 -70.634138,128.12629 -70.637588,128.40779 C -70.641418,128.72056 -71.826128,128.82301 -75.439128,128.82301 L -80.235598,128.82301 L -80.338688,127.59149 z M -66.635968,114.00306 C -65.733828,113.70799 -64.995728,113.33429 -64.995728,113.17263 C -64.995728,112.84322 -68.967708,112.76666 -69.785068,113.08031 C -70.530988,113.36655 -70.435628,113.84632 -69.563108,114.19703 C -68.533048,114.61107 -68.485118,114.60789 -66.635968,114.00306 z "
       id="path5307"
       sodipodi:nodetypes="csssssssccssssssssssscccsssssccccsssc" />
    <path
       style="fill:#51332b"
       d="M -79.413918,128.054 C -79.240358,127.30821 -79.385398,126.92154 -80.130318,126.144 C -80.644028,125.60781 -81.316108,125.1691 -81.623818,125.1691 C -81.931528,125.1691 -82.811288,124.60856 -83.578828,123.92345 C -84.659798,122.95858 -85.012918,122.3783 -85.145398,121.34911 C -85.295218,120.18519 -85.189248,119.89943 -84.290838,119.04479 C -83.726768,118.5082 -83.265258,117.9284 -83.265258,117.75636 C -83.265258,117.58431 -83.788428,116.86446 -84.427868,116.15668 C -85.701538,114.74687 -85.959468,113.22115 -85.125428,112.03039 C -84.858078,111.64869 -84.654268,110.52293 -84.645988,109.38214 C -84.638078,108.29077 -84.387408,106.50096 -84.088948,105.40479 C -82.931448,101.15349 -82.621918,96.284809 -82.948588,87.467429 L -68.045468,81.58715 C -69.135308,82.907632 -69.699648,84.877394 -69.801568,87.716559 C -69.862478,89.413439 -69.797718,89.626559 -69.221138,89.626559 C -68.735798,89.626559 -68.615938,89.793989 -68.745798,90.290569 C -68.841298,90.655779 -68.804138,91.025849 -68.663218,91.112939 C -68.128878,91.443179 -68.012608,93.677719 -68.491728,94.408929 C -68.782568,94.852809 -68.902188,95.582189 -68.799238,96.284009 C -68.365968,99.237739 -68.410268,100.29766 -69.016668,101.48709 C -69.583088,102.59808 -69.593418,102.77841 -69.131068,103.48405 C -68.775458,104.02677 -68.691178,104.62409 -68.850418,105.47291 C -69.051198,106.54317 -68.964728,106.78041 -68.116428,107.48669 C -67.494958,108.00411 -67.404438,108.16312 -67.860508,107.93624 C -68.504008,107.61613 -68.583698,107.6933 -68.765288,108.8123 C -68.874808,109.4872 -68.818438,110.18536 -68.640018,110.36379 C -68.461588,110.54221 -67.337908,110.75045 -66.142928,110.82654 C -64.727078,110.91669 -64.012915,111.09572 -64.092723,111.34048 C -64.269068,111.8813 -66.261868,112.50593 -67.880618,112.52777 C -70.843148,112.56772 -71.976948,113.82258 -69.852528,114.71022 C -69.235248,114.96813 -68.648278,115.39267 -68.548138,115.65363 C -68.427198,115.96877 -67.573198,116.20774 -66.005218,116.36521 C -63.790448,116.58763 -63.657792,116.64638 -63.861085,117.31483 C -64.217538,118.4869 -65.016258,119.16531 -66.286978,119.37531 C -68.135228,119.68076 -70.601358,120.59622 -70.771688,121.0401 C -70.997648,121.62894 -70.084008,122.77218 -68.896848,123.38608 C -68.324208,123.6822 -67.062988,123.94294 -66.094128,123.96549 C -65.125278,123.98804 -64.332298,124.12049 -64.331978,124.25981 C -64.330848,124.74081 -68.071698,126.16562 -69.335708,126.16562 C -70.032978,126.16562 -70.696188,126.31565 -70.809508,126.49901 C -70.922838,126.68238 -71.378698,126.74126 -71.822538,126.62987 C -72.845688,126.37307 -73.363218,127.38024 -72.523598,127.99419 C -72.219868,128.21628 -71.971368,128.49362 -71.971368,128.6105 C -71.971368,128.72738 -73.540888,128.82301 -75.459188,128.82301 C -78.025278,128.82301 -78.948348,128.71328 -78.952088,128.40779 C -78.955508,128.12853 -79.067578,128.15572 -79.294358,128.49083 C -79.543088,128.8584 -79.574458,128.74383 -79.413918,128.054 z "
       id="path5305"
       sodipodi:nodetypes="cssssssssssccsssssssssssssssssssssssssssssssssc" />
    <path
       style="fill:#2f2320"
       d="M -78.380848,127.57736 C -78.153248,126.10244 -78.280508,126.29854 -77.369178,126.01842 C -76.669668,125.8034 -76.621788,125.88587 -76.621788,127.30584 C -76.621788,128.76291 -76.660438,128.82301 -77.597428,128.82301 C -78.537548,128.82301 -78.566068,128.77767 -78.380848,127.57736 z M -75.293098,127.6604 C -75.293098,127.02097 -75.330468,126.38569 -75.376138,126.24866 C -75.421818,126.11164 -75.048118,125.95224 -74.545708,125.89443 C -73.667208,125.79334 -73.632228,125.84739 -73.632228,127.30616 C -73.632228,128.70268 -73.698108,128.82301 -74.462668,128.82301 C -75.190288,128.82301 -75.293098,128.67907 -75.293098,127.6604 z M -77.080688,124.67476 C -77.424438,124.41449 -78.522678,124.03194 -79.521238,123.82464 C -81.528748,123.40788 -83.433378,122.42183 -83.731498,121.64493 C -84.062018,120.78363 -82.963518,119.1688 -81.683188,118.63384 C -80.796628,118.26341 -79.923088,118.1894 -78.383518,118.35428 C -75.939628,118.61599 -75.498148,118.08492 -77.701358,117.53368 C -83.006118,116.20643 -84.381868,115.34328 -84.199368,113.45677 C -84.121708,112.65402 -83.853948,112.26973 -83.132438,111.92554 C -82.308598,111.53254 -82.248508,111.42164 -82.717218,111.15933 C -83.462088,110.74248 -83.434018,108.48025 -82.637278,104.71701 C -82.291888,103.08564 -81.892838,100.6298 -81.750498,99.259579 C -81.252278,94.463559 -81.752493,94.397532 -82.604083,87.411176 L -74.197278,83.481349 C -75.021998,87.425528 -75.059728,88.00821 -74.641748,90.347019 C -74.033008,93.753369 -74.077798,95.538549 -74.784998,96.055669 C -75.237348,96.386429 -75.331388,96.760599 -75.179598,97.625629 C -75.069998,98.250259 -74.884908,99.321459 -74.768298,100.00607 C -74.488028,101.6515 -74.837408,103.03197 -75.472428,102.78828 C -76.262488,102.48511 -76.965528,103.91356 -76.732618,105.34878 C -76.547888,106.48716 -76.451408,106.58393 -75.662208,106.42247 C -74.447708,106.17399 -73.483368,107.51443 -73.739808,109.09464 C -73.952098,110.40287 -73.349238,110.96167 -70.900578,111.72632 C -70.119298,111.97029 -69.733108,112.1799 -70.042378,112.19212 C -70.351658,112.20434 -71.173788,112.55067 -71.869338,112.96173 C -72.584758,113.38454 -73.927398,113.78125 -74.960928,113.87521 C -76.638968,114.02776 -76.787878,114.10836 -76.787878,114.86403 C -76.787878,115.58979 -76.597238,115.71873 -75.170498,115.95792 C -73.333388,116.26592 -71.997178,117.09341 -71.981798,117.93265 C -71.969128,118.62463 -71.014178,119.17777 -69.751028,119.22481 C -68.835438,119.25891 -68.840238,119.26801 -69.978328,119.65671 C -70.617758,119.8751 -71.813578,120.34258 -72.635708,120.69555 C -73.457838,121.04853 -74.793278,121.56419 -75.603338,121.84148 C -76.413408,122.11876 -77.126858,122.50538 -77.188778,122.70064 C -77.296728,123.04105 -76.486518,123.5553 -75.172648,123.98031 C -74.666578,124.144 -74.628618,124.27044 -74.964188,124.67477 C -75.475748,125.29116 -76.266598,125.29115 -77.080688,124.67476 z M -68.175748,118.97532 C -67.823758,118.87147 -67.273828,118.46622 -66.953678,118.07476 C -66.486808,117.50393 -66.287998,117.44523 -65.949388,117.77824 C -65.361328,118.3566 -65.887558,118.76963 -67.487028,118.98513 C -68.217808,119.08359 -68.527728,119.07918 -68.175748,118.97532 z "
       id="path5303"
       sodipodi:nodetypes="csssccssssccssssssssssccssssssssssssssssssssssccsssc" />
  </g>
  <path
     sodipodi:type="arc"
     style="fill:#d9e3ff;fill-opacity:1;fill-rule:evenodd;stroke:#000000;stroke-width:2.07096457;stroke-linecap:butt;stroke-linejoin:miter;stroke-miterlimit:4;stroke-dasharray:none;stroke-opacity:1"
     id="path2168"
     sodipodi:cx="40.550411"
     sodipodi:cy="32.319778"
     sodipodi:rx="21.790434"
     sodipodi:ry="21.790434"
     d="M 62.340845 32.319778 A 21.790434 21.790434 0 1 1  18.759977,32.319778 A 21.790434 21.790434 0 1 1  62.340845 32.319778 z"
     transform="matrix(1.7581633,0,0,1.7581633,-31.687576,-14.568488)" />
  <path
     sodipodi:type="arc"
     style="fill:url(#radialGradient3149);fill-opacity:1;fill-rule:evenodd;stroke:#b6bcae;stroke-width:0.82838589;stroke-linecap:butt;stroke-linejoin:miter;stroke-miterlimit:4;stroke-dasharray:none;stroke-opacity:1"
     id="path2170"
     sodipodi:cx="40.550411"
     sodipodi:cy="32.319778"
     sodipodi:rx="21.790434"
     sodipodi:ry="21.790434"
     d="M 62.340845 32.319778 A 21.790434 21.790434 0 1 1  18.759977,32.319778 A 21.790434 21.790434 0 1 1  62.340845 32.319778 z"
     transform="matrix(1.7581633,0,0,1.7581633,-31.687576,-14.568488)" />
  <g
     id="g5131"
     transform="matrix(0.7786887,0,0,0.7786887,109.39253,-16.65401)">
    <path
       id="path2209"
       d="M -54.404516,41.894763 L -54.404516,59.144763 L -71.685766,59.144763 L -71.685766,75.051013 C -70.502528,75.051012 -61.768433,75.040194 -54.404516,75.019763 L -54.404516,92.301013 L -38.529516,92.301013 C -38.529516,91.114165 -38.540277,82.383913 -38.560766,74.988513 C -30.079043,74.982631 -22.527327,74.982945 -21.248266,75.051013 L -21.248266,59.144763 L -38.592016,59.144763 C -38.597771,50.69141 -38.597412,43.170608 -38.529516,41.894763 L -54.404516,41.894763 z "
       style="fill:#b6b9b8;fill-opacity:1;fill-rule:evenodd;stroke:#b9b9b9;stroke-width:6;stroke-linecap:round;stroke-linejoin:round;stroke-miterlimit:4;stroke-dasharray:none;stroke-dashoffset:0;stroke-opacity:1" />
    <g
       transform="translate(-104.76725,-15.449135)"
       id="g2199">
      <path
         style="fill:none;fill-opacity:1;fill-rule:evenodd;stroke:#000000;stroke-width:6;stroke-linecap:round;stroke-linejoin:round;stroke-miterlimit:4;stroke-dasharray:none;stroke-dashoffset:0;stroke-opacity:1"
         d="M 42.0625,47.75 L 42.0625,65 L 24.78125,65 L 24.78125,80.90625 C 25.964488,80.906249 34.698583,80.895431 42.0625,80.875 L 42.0625,98.15625 L 57.9375,98.15625 C 57.9375,96.969402 57.926739,88.23915 57.90625,80.84375 C 66.387973,80.837868 73.939689,80.838182 75.21875,80.90625 L 75.21875,65 L 57.875,65 C 57.869245,56.546647 57.869604,49.025845 57.9375,47.75 L 42.0625,47.75 z "
         id="path3242" />
      <path
         style="fill:url(#radialGradient5137);fill-opacity:1;fill-rule:evenodd;stroke:url(#radialGradient5139);stroke-width:4.19999981;stroke-linecap:round;stroke-linejoin:round;stroke-miterlimit:4;stroke-dasharray:none;stroke-dashoffset:0;stroke-opacity:1"
         d="M 42.0625,47.734375 L 42.0625,65.015625 L 24.78125,65.015625 L 24.78125,80.890625 C 25.964492,80.890625 34.698582,80.879805 42.0625,80.859375 L 42.0625,98.171875 L 57.9375,98.171875 C 57.9375,96.984352 57.92675,88.229377 57.90625,80.828125 C 66.387959,80.822244 73.93969,80.822558 75.21875,80.890625 L 75.21875,65.015625 L 57.875,65.015625 C 57.869182,56.548092 57.869518,49.011828 57.9375,47.734375 L 42.0625,47.734375 z "
         id="path3176" />
    </g>
  </g>
</svg>
