/* XPM */
const char *icon_select_invert[] = {
/* columns rows colors chars-per-pixel */
"24 24 97 2",
"   c gray15",
".  c gray19",
"X  c #3F3F3F",
"o  c #414141",
"O  c #464646",
"+  c #535353",
"@  c #646464",
"#  c #717171",
"$  c #7B7B7B",
"%  c #1B1BFF",
"&  c #2121FF",
"*  c #2222FF",
"=  c #2626FF",
"-  c #4242FF",
";  c #5151FF",
":  c #5E5EFF",
">  c #6161FF",
",  c #6565FF",
"<  c #6E6EFF",
"1  c #7070FF",
"2  c #7C7CFF",
"3  c #818181",
"4  c gray51",
"5  c #838383",
"6  c #848484",
"7  c gray52",
"8  c gray55",
"9  c #929292",
"0  c #939393",
"q  c gray59",
"w  c gray60",
"e  c gray61",
"r  c gray62",
"t  c gray63",
"y  c gray65",
"u  c gray66",
"i  c #A9A9A9",
"p  c #AAAAAA",
"a  c gray67",
"s  c gray68",
"d  c #B2B2B2",
"f  c #BBBBBB",
"g  c #9090FF",
"h  c #9797FF",
"j  c #A1A1FF",
"k  c #AFAFFF",
"l  c #C1C1C1",
"z  c #C3C3C3",
"x  c #C6C6C6",
"c  c gray78",
"v  c #C8C8C8",
"b  c gray79",
"n  c gray80",
"m  c gray81",
"M  c #D0D0D0",
"N  c gray82",
"B  c gray83",
"V  c #D7D7D7",
"C  c #D8D8D8",
"Z  c gray85",
"A  c #DADADA",
"S  c gray86",
"D  c gainsboro",
"F  c #DDDDDD",
"G  c gray87",
"H  c #DFDFDF",
"J  c #C0C0FF",
"K  c #D7D7FF",
"L  c #DEDEFF",
"P  c #E1E1E1",
"I  c gray89",
"U  c #E4E4E4",
"Y  c #E6E6E6",
"T  c #E7E7E7",
"R  c gray91",
"E  c #EAEAEA",
"W  c gray92",
"Q  c #EEEEEE",
"!  c #EFEFEF",
"~  c gray94",
"^  c #F1F1F1",
"/  c gray95",
"(  c #F4F4F4",
")  c gray96",
"_  c gray97",
"`  c #F2F2FF",
"'  c #F7F7FF",
"]  c #F8F8F8",
"[  c #FBFBFB",
"{  c #F9F9FF",
"}  c #FBFBFF",
"|  c gray99",
" . c #FDFDFD",
".. c #FCFCFF",
"X. c #FEFEFE",
"o. c #FEFEFF",
"O. c none",
/* pixels */
"] A X.X.X.X.X.X.` 1 & & h X.X.X.X.X.X.) ] X.X.X.",
"U + z X.X.X.X.} < = k g % j X.X.X.] H c b U X.X.",
"X.I 8 t ] X.X.K % k X.} 2 - ' X.X.A b E U c E X.",
"X.X.p O z X.X.L & g X.` : ; } X.) c ! X.X.H B ] ",
"X.X.X.) 7 e X.X.h % 2 : = J X.X.] b U X.] V V X.",
"X.X.X.X.I y 0 / X.j > , J X.X.X.X.U c H A b ! X.",
"X.X.X.X.X.n X d ] X.X.X.X.X.X.X.X.X.U A A ! X.X.",
"X.X.X.X.X.X.) 4 0 X.X.X.X.X.X.X.X.X.X.X.X.X.X.X.",
"X.X.X.) ] X.X.I c 7 U X.X.X.X.X.X.X.X.} L L X.X.",
"X.X.A c b U X.X.E # p / X.X.X.X.X.X.` 1 & & h X.",
"X.A b ! U c E X.X.X.$ @ ) X.X.X.X.} < = k g % j ",
") b E X.X.H n X.X.X.E A I ! X.X.X.K % k X.X.2 - ",
") b U X.X.V B X.X.X.X.X.y s / X.X.L & g X.` : ; ",
"X.U c I V b ! X.X.X.X.X.X.$ o n X.X.h % 2 : = J ",
"X.X.U A A ! X.X.X.X.X.X.X.U p e A X.X.j > , J X.",
"X.X.X.X.X.X.X.X.X.X.X.X.X.X.X.c t H X.X.X.X.X.X.",
"X.X.X.X.L L X.X.X.X.X.X.X.X.X.X.4 . n X.X.X.X.X.",
"X.X.` < & & h X.X.X.X.X.X.] ] X./ p e A X.X.X.X.",
"X.} < = k g % j X.X.X.} A c c U X.X.z e n X.X.X.",
"X.K % k X.} 2 - ' X.X.A b ! I c E X.X.t . f X.X.",
"X.L & g X.` : ; X.X.) v E X.X.H B X.X.X.q   w X.",
"X.X.h % 2 : = k X.X._ v U X.X.V B X.X.X.X.t 4 ) ",
"X.X.X.j > , J X.X.X.X.U c H V b ! X.X.X.X.X.X.X.",
"X.X.X.X.X.X.X.X.X.X.X.X.U A A ! X.X.X.X.X.X.X.X."
};
