/* XPM */
const char *icon_select_fragment[] = {
/* columns rows colors chars-per-pixel */
"25 25 144 2",
"   c gray4",
".  c gray9",
"X  c gray10",
"o  c gray11",
"O  c #272727",
"+  c #2A2A2A",
"@  c #2F2F2F",
"#  c #373737",
"$  c gray22",
"%  c #393939",
"&  c gray33",
"*  c gray34",
"=  c #585858",
"-  c gray40",
";  c #6D6D6D",
":  c #767676",
">  c #4F4FFF",
",  c #5353FF",
"<  c #5454FF",
"1  c #5656FF",
"2  c #5A5AFF",
"3  c #5B5BFF",
"4  c #5D5DFF",
"5  c #5E5EFF",
"6  c #6060FF",
"7  c #6464FF",
"8  c #6565FF",
"9  c #6666FF",
"0  c #6969FF",
"q  c #6C6CFF",
"w  c #6F6FFF",
"e  c #7070FF",
"r  c #7171FF",
"t  c #7272FF",
"y  c #7474FF",
"u  c #7575FF",
"i  c #7676FF",
"p  c #7777FF",
"a  c #8B8B8B",
"s  c #929292",
"d  c gray63",
"f  c #A4A4A4",
"g  c gray65",
"h  c gray67",
"j  c gray71",
"k  c gray72",
"l  c #8181FF",
"z  c #8282FF",
"x  c #8484FF",
"c  c #8585FF",
"v  c #8888FF",
"b  c #8989FF",
"n  c #8A8AFF",
"m  c #8C8CFF",
"M  c #8E8EFF",
"N  c #8F8FFF",
"B  c #9595FF",
"V  c #9797FF",
"C  c #9B9BFF",
"Z  c #A1A1FF",
"A  c #A2A2FF",
"S  c #A3A3FF",
"D  c #A5A5FF",
"F  c #ABABFF",
"G  c #B9B9FF",
"H  c #BDBDFF",
"J  c #BEBEFF",
"K  c #BFBFFF",
"L  c #C5C5C5",
"P  c #C6C6C6",
"I  c gray78",
"U  c #C8C8C8",
"Y  c gray79",
"T  c #CACACA",
"R  c #CBCBCB",
"E  c gray80",
"W  c #CDCDCD",
"Q  c #CECECE",
"!  c gray81",
"~  c #D0D0D0",
"^  c gray82",
"/  c #D2D2D2",
"(  c #D5D5D5",
")  c gray84",
"_  c #D7D7D7",
"`  c #D8D8D8",
"'  c gray85",
"]  c #DADADA",
"[  c gainsboro",
"{  c #DDDDDD",
"}  c gray87",
"|  c #C0C0FF",
" . c #C1C1FF",
".. c #C8C8FF",
"X. c #CACAFF",
"o. c #D0D0FF",
"O. c #D8D8FF",
"+. c #DBDBFF",
"@. c #DCDCFF",
"#. c #DDDDFF",
"$. c #DEDEFF",
"%. c #DFDFFF",
"&. c gray88",
"*. c #E1E1E1",
"=. c #E2E2E2",
"-. c gray89",
";. c #E4E4E4",
":. c #E6E6E6",
">. c #E7E7E7",
",. c gray91",
"<. c #E9E9E9",
"1. c #EAEAEA",
"2. c gray92",
"3. c gray93",
"4. c #EEEEEE",
"5. c #EFEFEF",
"6. c #E0E0FF",
"7. c #E1E1FF",
"8. c #E3E3FF",
"9. c #E7E7FF",
"0. c #E8E8FF",
"q. c #EAEAFF",
"w. c #EBEBFF",
"e. c gray94",
"r. c gray95",
"t. c #F3F3F3",
"y. c #F4F4F4",
"u. c gray96",
"i. c #F6F6F6",
"p. c gray97",
"a. c #F2F2FF",
"s. c #F5F5FF",
"d. c #F7F7FF",
"f. c #F8F8F8",
"g. c #F9F9F9",
"h. c #FBFBFB",
"j. c GhostWhite",
"k. c #FBFBFF",
"l. c gray99",
"z. c #FDFDFD",
"x. c #FDFDFF",
"c. c #FEFEFE",
"v. c #FEFEFF",
"b. c none",
/* pixels */
"5.u.b.b.b.b.b.b.b.b.5.1.b.b.b.b.b.b.b.b.b.b.b.b.b.",
":./ b.b.b.b.b.b.b.t.Y :.b.b.d.#.#.+.#.#.#.b.b.b.b.",
"u.Y :.b.b.b.b.g.b.' W g.b.b.C , , , , , 1 K b.b.b.",
"b.&.Y 5./ W W ' 1.I 5.b.b.#.0 S X.#.#.G N t s.b.b.",
"b.g.W ' 1.1.1.1.W _ b.b.k.c n 5 K b.k.N t 6 F b.b.",
"b.b.5./ / W W W / u.b.b.K 9 t n k.b.b.8.6 t 2 #.b.",
"b.b.b.b.g.b.g.b.b.b.b.s.t z w 9.b.b.b.b.X.5 2 B b.",
"b.b.b.b.b.b.b.b.b.b.b.9.5 K q.b.b.b.b.b.b.#.t p k.",
"b.b.b.t.t.t.t.t.u.b.b.b.B z k.b.b.b.b.b.b.X.> K b.",
"b.b.{ I I I I I I 1.b.b.#.6 X.b.d.d.d.d.k.z p d.b.",
"b.t.W &.5.t.t.>.' / g.b.b.D t +.t 0 0 n X.1 X.b.b.",
"b._ ' Y 1.b.b.' W W &.b.b.q.9 B S S S D p z b.b.b.",
"t.W ~ ` b.b.b.u.R / Y u.b.b.K n n n c n n +.b.b.b.",
"&._ / u.b.b.b.b.5.Y U { b.b.b.b.b.b.e.l.b.b.b.b.b.",
"{ :.f.b.b.b.b.b.b.t.W / b.b.b.b.b._ O g b.b.b.b.b.",
"1._ b.b.b.b.b.b.b.5.L 1.b.b.b.b.b.Y   @ :.b.b.b.b.",
"g.Y 5.b.g.b.g.b.b._ / g.b.b.b.b.b./ . O : b.b.b.b.",
"b.&./ t./ W W _ 1.I 5.b.b.b.b.b.b./ X a o k b.b.b.",
"b.g.Y { &.&.&.&./ _ b.b.b.b.b.b.b./ X W - # :.b.b.",
"b.b.1.' ' ' ' ' _ t.b.b.b.b.b.b.b.W . h j O ; b.b.",
"b.b.b.b.b.b.b.b.b.b.b.b.b.b.b.b.b.5.= # # + & b.b.",
"b.b.b.b.b.b.b.b.b.b.b.b.b.b.b.b.b.b.u.&.& s u.b.b.",
"b.b.b.b.b.b.b.b.b.b.b.b.b.b.b.b.b.b.b.b.d g b.b.b.",
"b.b.b.b.b.b.b.b.b.b.b.b.b.b.b.b.b.b.b.b.b.b.b.b.b.",
"b.b.b.b.b.b.b.b.b.b.b.b.b.b.b.b.b.b.b.b.b.b.b.b.b."
};
