/* XPM */
const char *xpm_select_pick[] = {
/* columns rows colors chars-per-pixel */
"24 24 81 1",
"  c gray1",
". c #060606",
"X c #161616",
"o c gray9",
"O c gray10",
"+ c gray11",
"@ c #1D1D1D",
"# c #272727",
"$ c gray16",
"% c #2A2A2A",
"& c gray17",
"* c #2C2C2C",
"= c #373737",
"- c gray22",
"; c #393939",
": c gray24",
"> c gray25",
", c gray28",
"< c gray33",
"1 c gray34",
"2 c #585858",
"3 c gray40",
"4 c #676767",
"5 c #6D6D6D",
"6 c #767676",
"7 c #838383",
"8 c #848484",
"9 c #8B8B8B",
"0 c gray56",
"q c #929292",
"w c gray60",
"e c gray63",
"r c #A4A4A4",
"t c gray65",
"y c gray67",
"u c #ACACAC",
"i c #B2B2B2",
"p c gray71",
"a c #B6B6B6",
"s c gray72",
"d c gray78",
"f c #C8C8C8",
"g c gray79",
"h c #CACACA",
"j c gray80",
"k c #CECECE",
"l c gray81",
"z c #D0D0D0",
"x c gray82",
"c c #D2D2D2",
"v c LightGray",
"b c gray83",
"n c #D5D5D5",
"m c #D7D7D7",
"M c #D8D8D8",
"N c gray85",
"B c gray86",
"V c #DFDFDF",
"C c gray89",
"Z c #E4E4E4",
"A c gray90",
"S c #E6E6E6",
"D c #E7E7E7",
"F c gray91",
"G c #EAEAEA",
"H c gray92",
"J c gray93",
"K c #EEEEEE",
"L c #EFEFEF",
"P c gray95",
"I c #F4F4F4",
"U c gray96",
"Y c #F6F6F6",
"T c gray97",
"R c #F8F8F8",
"E c #F9F9F9",
"W c #FBFBFB",
"Q c gray99",
"! c #FDFDFD",
"~ c #FEFEFE",
"^ c none",
/* pixels */
"^RbUGbUGbUGvUGvU^^H^^^^^",
"^v@rw:uw:uw:uw:u^H8P^^^^",
"^kOkRP^RPR^PR^PR^UeR^^^^",
"^vOv^^UU^^^^^^^^^b*C^^^^",
"^v*N^NhhZ^^^^^^^^UpU^^^^",
"^RbRNhHZhZ^^^^^^^UuR^^^^",
"^G6ChG^^Vk^^^^^^^b&V^^^^",
"^v&bhC^Rbb^^^^RU^UpU^^^^",
"^Rb^ZdVbhP^^^NhdZUyR^^^^",
"^G6G^GNNH^^^NhGZdv&V^^^^",
"^v*N^^^^^^^UdG^^CkpU^^^^",
"^RbR^^^^^^^UdC^^bvp^^^^^",
"^G6G^^^^^^^^ZdVbhv:U^^^^",
"^v*b^^^^^^^^^GNNHv;H^^^^",
"^RuR^Gb^Gb^GNRGvUr.q^^^^",
"^H5Z^8,k7,k7,v8:i3 &Z^^^",
"^^U^^UP^UP^RP^UP^hX#6^^^",
"^^^^^^^^^^^^^^^^^vO9Oa^^",
"^^^^^^^^^^^^^^^^^kOk3;Z^",
"^^^^^^^^^^^^^^^^^vXyp#5^",
"^^^^^^^^^^^^^^^^^H1=;&1^",
"^^^^^^^^^^^^^^^^^^UC<qU^",
"^^^^^^^^^^^^^^^^^^^^er^^",
"^^^^^^^^^^^^^^^^^^^^^^^^"
};
