/* XPM */
const char *xpm_draw_transmute[] = {
/* columns rows colors chars-per-pixel */
"24 24 159 2",
"   c #101010",
".  c #111111",
"X  c #151515",
"o  c gray9",
"O  c #1A1515",
"+  c #181818",
"@  c gray10",
"#  c gray11",
"$  c gray23",
"%  c #4E1E1E",
"&  c #6B2828",
"*  c #407B1B",
"=  c gray25",
"-  c gray27",
";  c gray29",
":  c gray34",
">  c #5D5D5D",
",  c gray39",
"<  c #6C6C6C",
"1  c #717171",
"2  c #727272",
"3  c #767676",
"4  c #4D4DFF",
"5  c #5050FF",
"6  c #5151FF",
"7  c #5353FF",
"8  c #6161FF",
"9  c #6B6BFF",
"0  c #6C6CFF",
"q  c #7070FF",
"w  c #18830F",
"e  c #198310",
"r  c #1A8311",
"t  c #188714",
"y  c #188B17",
"u  c #188B18",
"i  c #188C18",
"p  c #188D18",
"a  c #198D19",
"s  c #1A8C1A",
"d  c #1A8D1A",
"f  c #2C952C",
"g  c #3A9835",
"h  c #3A9D3A",
"j  c #3B9E3B",
"k  c #40A040",
"l  c #A80F0F",
"z  c #A81010",
"x  c #9A7474",
"c  c #C33314",
"v  c #EE1515",
"b  c #EE1818",
"n  c #FF1010",
"m  c #FF1111",
"M  c #FF1717",
"N  c #FF1818",
"B  c #FF1919",
"V  c #FF1A1A",
"C  c #FF1B1B",
"Z  c #FF2121",
"A  c #FF2222",
"S  c #FC2626",
"D  c #FF2626",
"F  c #FF2C2C",
"G  c #FF3232",
"H  c #FF3535",
"J  c #FF3A3A",
"K  c #FF3B3B",
"L  c #DF4332",
"P  c #FF4040",
"I  c #FF4242",
"U  c #F05858",
"Y  c #FF5151",
"T  c #FF5E5E",
"R  c #FF6E6E",
"E  c #FF7070",
"W  c #FF7C7C",
"Q  c gray54",
"!  c #8D8D8D",
"~  c #959595",
"^  c gray59",
"/  c #9D9D9D",
"(  c gray62",
")  c #A0A0A0",
"_  c gray66",
"`  c #AAAAAA",
"'  c gray67",
"]  c #AFAFAF",
"[  c #ABBEAB",
"{  c #A8A8FF",
"}  c #BFBFFF",
"|  c #A1D1A1",
" . c #AAD5AA",
".. c #B7C4B7",
"X. c #D1A28B",
"o. c #D1A0A0",
"O. c #D1ABAB",
"+. c #E38F8F",
"@. c #FF8B8B",
"#. c #FF9090",
"$. c #FF9797",
"%. c #FFA1A1",
"&. c #FFAAAA",
"*. c #FFABAB",
"=. c #FFAFAF",
"-. c #D1C2AB",
";. c #C3C3C3",
":. c gray78",
">. c #C8C8C8",
",. c gray79",
"<. c #CBCBCB",
"1. c #C3D9C3",
"2. c #D0D0D0",
"3. c gray82",
"4. c gray83",
"5. c #D5D5D5",
"6. c gray84",
"7. c #D7D7D7",
"8. c #D8D8D8",
"9. c gray85",
"0. c gray86",
"q. c #DFDFDF",
"w. c #C1C1FF",
"e. c #D2D2FF",
"r. c #DDDDFF",
"t. c #C6E3C6",
"y. c #D1E8D1",
"u. c #DFEFDF",
"i. c #FFC0C0",
"p. c #FFD1D1",
"a. c #FFD7D7",
"s. c #FFDEDE",
"d. c #FFDFDF",
"f. c #E2E2E2",
"g. c gray89",
"h. c #E4E4E4",
"j. c #E6E6E6",
"k. c gray91",
"l. c gray92",
"z. c #EAEAEF",
"x. c #EEEEEE",
"c. c #EFEFEF",
"v. c #E7E7FF",
"b. c #F4F4F4",
"n. c gray96",
"m. c gray97",
"M. c #FFF2F2",
"N. c #FFF7F7",
"B. c #F9F9F9",
"V. c gray98",
"C. c #FFF9F9",
"Z. c #FFFBFB",
"A. c gray99",
"S. c #FDFDFD",
"D. c #FFFCFC",
"F. c #FEFEFE",
"G. c #FEFEFF",
"H. c #FFFEFE",
"J. c none",
/* pixels */
"J.J.J.n.n.J.J.J.J.J.C.d.d.J.J.J.J.J.J.J.n.V.J.J.",
"J.J.0.:.:.j.J.J.J.M.E A A $.C.J.J.J.V.0.:.:.j.J.",
"J.0.>.l.j.:.j.J.C.R D =.@.V %.J.J.J.0.>.l.g.:.l.",
"n.:.l.J.J.f.<.J.a.V =.J.J.W I C.J.n.:.l.J.J.q.2.",
"n.>.j.J.V.6.6.J.d.A @.J.M.T Y J.J.n.>.j.J.J.6.4.",
"J.j.:.q.6.>.x.J.J.$.C W U D =.J.J.J.j.:.q.7.>.x.",
"J.J.j.6.0.x.J.J.J.J.+.& % x J.J.J.J.J.j.6.0.x.J.",
"z.l.j.l.x.J.J.J.J.J.3.@ 3 ; f.J.J.J.J.J.J.J.J.J.",
"~ Q Q Q ~ x.J.J.J.J.2.@ ' @ 2.J.J.J.J.J.J.J.J.J.",
"Q 6.l.6.Q l.J.J.J.J.2.@ ' @ <.J.J.J.J.J.J.J.J.J.",
"~ j.J.j.Q l.J.J.J.J.2.@ ` @ > n.J.J.J.J.J.J.J.J.",
"Q 6.l.6.Q l.J.J.f.1 ] @ ` X @ , 6.J.J.J.J.J.J.J.",
") / / / ) x.J.J.2.X $ . ` @ 1 X = - f.J.J.J.J.J.",
"J.V.n.V.V.J.J.J.2.@ < . ` @ ' @ < . 2.J.J.J.J.J.",
"v.r.r.r.v.J.J.J.6.@ ' @ ;._ ;.@ ` @ 2.u.y.y.y.u.",
"8 7 7 7 8 v.J.J.2.@ ` @ 2.J.x.` ;.@ ..f d d d f ",
"7 } r.} 7 r.J.J.2.X : ~ c.J.J.g.> X [ d  .y. .d ",
"7 r.J.r.7 r.J.J.x.Q @ 2.J.J.J.2.@ Q 1.d y.J.y.d ",
"7 { w.{ 7 r.J.d.p.O.O o.p.p.p.o.O O.-.y  .y. .i ",
"4 4 4 4 4 e.d.F V v l v V V M v l b c t u d d y ",
"7 } r.} 7 r.p.V *.p.@.n *.p.@.m *.p.X.w | t.| d ",
"7 r.J.r.7 r.p.V p.J.*.m p.J.*.m p.J.-.r y.J.y.d ",
"7 } r.} 7 r.p.V *.p.@.n *.p.@.m *.p.X.r  .y. .d ",
"q 0 0 0 q v.d.K J J G V H J G V H J L * g j j j "
};
