/* XPM */
const char *xpm_draw_fragment[] = {
/* columns rows colors chars-per-pixel */
"25 25 103 2",
"   c gray4",
".  c #131313",
"X  c gray8",
"o  c #151515",
"O  c gray9",
"+  c gray10",
"@  c #1B1B1B",
"#  c gray11",
"$  c #1E1E1E",
"%  c #202020",
"&  c #222222",
"*  c #232323",
"=  c gray14",
"-  c gray15",
";  c #272727",
":  c gray16",
">  c #2A2A2A",
",  c gray17",
"<  c #2D2D2D",
"1  c #2F2F2F",
"2  c gray19",
"3  c #313131",
"4  c #353535",
"5  c #373737",
"6  c gray22",
"7  c #393939",
"8  c gray23",
"9  c gray25",
"0  c #414141",
"q  c #434343",
"w  c #444444",
"e  c #484848",
"r  c #494949",
"t  c gray29",
"y  c #515151",
"u  c #535353",
"i  c gray33",
"p  c #565656",
"a  c gray34",
"s  c #585858",
"d  c gray36",
"f  c gray38",
"g  c #656565",
"h  c gray40",
"j  c DimGray",
"k  c #6D6D6D",
"l  c #6F6F6F",
"z  c gray44",
"x  c #717171",
"c  c #767676",
"v  c #777777",
"b  c gray47",
"n  c #7E7E7E",
"m  c gray50",
"M  c #868686",
"N  c gray53",
"B  c #898989",
"V  c #8B8B8B",
"C  c gray55",
"Z  c #8E8E8E",
"A  c gray56",
"S  c #929292",
"D  c gray59",
"F  c gray60",
"G  c #A0A0A0",
"H  c gray63",
"J  c #A2A2A2",
"K  c #A4A4A4",
"L  c gray65",
"P  c gray66",
"I  c #A9A9A9",
"U  c gray67",
"Y  c #ACACAC",
"T  c gray69",
"R  c gray71",
"E  c gray72",
"W  c #C0C0C0",
"Q  c #C5C5C5",
"!  c #C6C6C6",
"~  c #C8C8C8",
"^  c #CACACA",
"/  c #CBCBCB",
"(  c gray80",
")  c gray82",
"_  c LightGray",
"`  c gray83",
"'  c #D5D5D5",
"]  c #DDDDDD",
"[  c #DFDFDF",
"{  c gray89",
"}  c #E4E4E4",
"|  c #E7E7E7",
" . c #EAEAEA",
".. c #EEEEEE",
"X. c gray94",
"o. c #F1F1F1",
"O. c gray96",
"+. c #F6F6F6",
"@. c gray97",
"#. c #F9F9F9",
"$. c gray99",
"%. c #FEFEFE",
"&. c none",
/* pixels */
"&.&.&.&.&.&.&.&.&.&.&.&.&.&.&.&.&.&.&.&.&.&.&.&.&.",
"&.&.&.&.&. .) ) ) ) ) ( ) ) O.&.&.&.&.&.&.&.&.&.&.",
"&.&.&.&.$.d o @ @ @ @ @ @ . A &.&.&.&.&.&.&.&.&.&.",
"&.&.&.&.E * F / ) ) ) ) Q n , ] &.&.&.&.&.&.&.&.&.",
"&.&.&...q k b n $.&.&...a F 4 c &.&.&.&.&.&.&.&.&.",
"&.&.&.A < S @ L &.&.&.$.k < A $ Q &.&.&.&.&.&.&.&.",
"&.&.] 2 n , b &.&.&.&.&. .8 t w u O.&.&.&.&.&.&.&.",
"&.&.z q w t ..&.&.&.&.&.&./ * k o L &.&.&.&.&.&.&.",
"&.] , Y A _ &.&.&.&.&.&.&.&.L F t t O.&.&.&.&.&.&.",
"&.o.q S &.&.&.&.&.&.&.&.&.&.&. ., z &.&.&.&.&.&.&.",
"&.&.L < _ &.&.&.&.&.&.&.&.&.&.A * _ &.&.&.&.&.&.&.",
"&.&.$.a k &.&.&.&.&.&.&.&.&.] < M &.&.&.&.&.&.&.&.",
"&.&.&.Q , W &.{ ) ) ) ) { &.z 4 - F &.&.&.&.&.&.&.",
"&.&.&.&.b t o.M 8 8 8 8 M _ - B   <  .&.&.&.&.&.&.",
"&.&.&.&.} 2 c F D D D D F a a ( o , c &.&.&.&.&.&.",
"&.&.&.&.&.L f f f f f f f g ( ) @ B @ R &.&.&.&.&.",
"&.&.&.&.&.&.&.&.&.&.&.&.&.&.&.) @ ( g 8 } &.&.&.&.",
"&.&.&.&.&.&.&.&.&.&.&.&.&.&.&.) @ L R - k &.&.&.&.",
"&.&.&.&.&.&.&.&.&.&.&.&.&.&.&...a 4 4 , a &.&.&.&.",
"&.&.&.&.&.&.&.&.&.&.&.&.&.&.&.&.$.{ a S O.&.&.&.&.",
"&.&.&.&.&.&.&.&.&.&.&.&.&.&.&.&.&.&.F L &.&.&.&.&.",
"&.&.&.&.&.&.&.&.&.&.&.&.&.&.&.&.&.&.&.&.&.&.&.&.&.",
"&.&.&.&.&.&.&.&.&.&.&.&.&.&.&.&.&.&.&.&.&.&.&.&.&.",
"&.&.&.&.&.&.&.&.&.&.&.&.&.&.&.&.&.&.&.&.&.&.&.&.&.",
"&.&.&.&.&.&.&.&.&.&.&.&.&.&.&.&.&.&.&.&.&.&.&.&.&."
};
