/* XPM */
const char *icon_bond_clearsel[] = {
/* columns rows colors chars-per-pixel */
"24 24 94 2",
"   c #3A3A3A",
".  c gray25",
"X  c #535353",
"o  c #565656",
"O  c gray36",
"+  c gray37",
"@  c #606060",
"#  c gray38",
"$  c gray42",
"%  c #6C6C6C",
"&  c gray43",
"*  c gray44",
"=  c gray46",
"-  c gray48",
";  c gray49",
":  c #FF0707",
">  c #FF0A0A",
",  c #FF1414",
"<  c #FF1717",
"1  c #FF1919",
"2  c #FF1A1A",
"3  c #FF2525",
"4  c #FF2727",
"5  c #FF2F2F",
"6  c #FF4646",
"7  c #FF5050",
"8  c #FF5C5C",
"9  c #FF7777",
"0  c gray55",
"q  c gray58",
"w  c #989898",
"e  c gray60",
"r  c #9A9A9A",
"t  c gray63",
"y  c #A2A2A2",
"u  c gray65",
"i  c gray70",
"p  c #B6B6B6",
"a  c #B9B9B9",
"s  c #BBBBBB",
"d  c #BCBCBC",
"f  c #FF9999",
"g  c #FFA4A4",
"h  c #C1C1C1",
"j  c #C5C5C5",
"k  c gray78",
"l  c #C8C8C8",
"z  c #CDCDCD",
"x  c gray81",
"c  c #D0D0D0",
"v  c gray82",
"b  c #D2D2D2",
"n  c LightGray",
"m  c gray83",
"M  c gray84",
"N  c #D7D7D7",
"B  c #D8D8D8",
"V  c #DADADA",
"C  c gray86",
"Z  c gainsboro",
"A  c #DDDDDD",
"S  c gray87",
"D  c #DFDFDF",
"F  c #FFC7C7",
"G  c #FFCCCC",
"H  c #FFD1D1",
"J  c #FFD6D6",
"K  c gray88",
"L  c #E1E1E1",
"P  c #E7E7E7",
"I  c #EAEAEA",
"U  c gray92",
"Y  c #ECECEC",
"T  c gray93",
"R  c #EEEEEE",
"E  c #EFEFEF",
"W  c #F5E7E7",
"Q  c #FFE6E6",
"!  c #FFE7E7",
"~  c gray94",
"^  c gray96",
"/  c #F6F6F6",
"(  c gray97",
")  c #FFF5F5",
"_  c #F8F8F8",
"`  c #F9F9F9",
"'  c gray98",
"]  c #FCF9F9",
"[  c #FFFBFB",
"{  c gray99",
"}  c #FDFDFD",
"|  c #FEFEFE",
" . c #FFFEFE",
".. c none",
/* pixels */
"............` ` ........................` ` ....",
"..........E v m ( ....................E v m ( ..",
"........` x E L m ..................( x E L V ..",
"........` m Z m Z ..................` m Z m Z ..",
"..........( Z L ......................( Z Z ....",
"................................................",
"......` ` ........................` ` ..........",
"....E v m ( ....................E v m ( ........",
"..` x E L m ..................( v E Z V ........",
"..` v L m Z ..................` v L m Z ........",
"....( Z L ......................` Z Z ..........",
"Z ` ~ Z ` E Z ( E Z ( E Z ` ~ Z ` ~ Z ( ( P ~ ..",
"o s i & h i & h i & h i & h i & h i & h s ; q i ",
"o V ` ( { { ^ { { ^ { { W ] ..( ` ..( U x v E s ",
"X Z ........( ( ......J 3 g ........( x E Z v # ",
"# L ........w 0 { ....G > 5 Q ......` m L m Z l ",
"L ........x   u ......H < 3 9 ........( Z L ( d ",
"q E ....E O $ ( ......H 1 7 7 ] ............L # ",
"# L ....w . m ........H < < f ....` ` ......` j ",
"L ....x   u ..........F : 6 ) ..E v m ( ....` l ",
"w ~ ( # $ ( ..........Q 8 F ..( x E Z V ....Z * ",
"# Z ( w V ....................` m L m Z ....Z & ",
"d V L ..E L ..E L ..~ Z ` E L ..U v L E L ..v O ",
"- & = V t = V t = Z t * j t = V t = V t = V t * "
};
