/* XPM */
const char *icon_geometry_distance[] = {
/* columns rows colors chars-per-pixel */
"25 25 56 1",
"  c #1B1B1B",
". c gray13",
"X c #222222",
"o c gray15",
"O c gray26",
"+ c #515151",
"@ c gray37",
"# c gray38",
"$ c #656565",
"% c gray43",
"& c gray44",
"* c #7C7C7C",
"= c #E52F05",
"- c #E63208",
"; c #E8441E",
": c #E94B26",
"> c #E94C28",
", c #EC6141",
"< c #ED6D50",
"1 c #EE7256",
"2 c #EE7559",
"3 c #EE795E",
"4 c #EF8066",
"5 c #EF8067",
"6 c #F0856D",
"7 c #F2937E",
"8 c #909090",
"9 c #979797",
"0 c gray63",
"q c #AFAFAF",
"w c #F29883",
"e c #F39F8B",
"r c #F4A28F",
"t c #F2A998",
"y c #F8C3B7",
"u c #F8C4B8",
"i c #C0C0C0",
"p c #D7D7D7",
"a c #DEDDDD",
"s c gray87",
"d c #FBDCD5",
"f c #FDF1EE",
"g c gray95",
"h c gray97",
"j c #FDF3F0",
"k c #FEF5F3",
"l c #FEF8F6",
"z c #F9F9F9",
"x c #FBFAFA",
"c c #FBFBFB",
"v c #FEFAF9",
"b c #FFFCFB",
"n c gray99",
"m c #FFFDFC",
"M c #FEFEFE",
"N c none",
/* pixels */
"NNNNNNNNNNNNNNNNNNNNNNNNN",
"NNNNNNNNNNNNNNNNNNNNNNNNN",
"NNNNNNNNNNNNNNNjNNNNNNNNN",
"NNNNNNNNNNNNNNj2rkNNNNNNN",
"NNNNNNNNNNNNNNl6-<vNNNNNN",
"NNNNNNNNNNNNNd5;,rzspNNNN",
"NNNNNNNNNNNfr:,uvg&XX9NNN",
"NNNNNNNNNvu,:rfNz%oq8 0NN",
"NNNNNNNNd5;5dNNNp qNz*OzN",
"NNNNNNfr:,uvNNNNs 8Ng@+zN",
"NNfNvu,:rfNNNNNNN9 *@oiNN",
"Nf275;5dNNNNNNNNNN0#$iNNN",
"Nk1=>yvNNNNNNNNNNNNNNNNNN",
"Nlw3tssNNNNNNNNNNNNNNNNNN",
"NNNg&Xo9NNNNNNNNNNNNNNNNN",
"NNz%oq8 9NNNNNNNNNNNNNNNN",
"NNp qNz*OzNNNNNNNNNNNNNNN",
"NNsX8Ng@+zNNNNNNNNNNNNNNN",
"NNN9 *@oiNNNNNNNNNNNNNNNN",
"NNNz0#$iNNNNNNNNNNNNNNNNN",
"NNNNNNNNNNNNNNNNNNNNNNNNN",
"NNNNNNNNNNNNNNNNNNNNNNNNN",
"NNNNNNNNNNNNNNNNNNNNNNNNN",
"NNNNNNNNNNNNNNNNNNNNNNNNN",
"NNNNNNNNNNNNNNNNNNNNNNNNN"
};
