/* XPM */
const char *icon_translate_in[] = {
/* columns rows colors chars-per-pixel */
"16 16 73 1",
"  c gray9",
". c #272727",
"X c #3F3F3F",
"o c gray25",
"O c gray27",
"+ c gray28",
"@ c #494949",
"# c gray30",
"$ c gray31",
"% c #515151",
"& c gray36",
"* c #656565",
"= c #686868",
"- c DimGray",
"; c #6D6D6D",
": c gray46",
"> c #777777",
", c gray47",
"< c #7E7E7E",
"1 c #808080",
"2 c #838383",
"3 c gray52",
"4 c #868686",
"5 c gray53",
"6 c #888888",
"7 c #898989",
"8 c #8E8E8E",
"9 c gray56",
"0 c gray58",
"q c #979797",
"w c #9D9D9D",
"e c gray63",
"r c #A2A2A2",
"t c #A4A4A4",
"y c #A5A5A5",
"u c gray67",
"i c #ACACAC",
"p c #AEAEAE",
"a c #AFAFAF",
"s c gray70",
"d c #B4B4B4",
"f c #B6B6B6",
"g c gray72",
"h c #BBBBBB",
"j c #BCBCBC",
"k c gray",
"l c #C3C3C3",
"z c #C6C6C6",
"x c gray79",
"c c #CACACA",
"v c #CECECE",
"b c #D0D0D0",
"n c #D2D2D2",
"m c gray83",
"M c #D5D5D5",
"N c gray84",
"B c #D7D7D7",
"V c #DFDFDF",
"C c #E1E1E1",
"Z c #E2E2E2",
"A c gray90",
"S c gray91",
"D c gray93",
"F c gray94",
"G c #F1F1F1",
"H c gray97",
"J c #F8F8F8",
"K c #F9F9F9",
"L c gray98",
"P c gray99",
"I c #FDFDFD",
"U c #FEFEFE",
"Y c none",
/* pixels */
"YYYYYYYYYYYYYYYY",
"YYYYYYYHKKYYYYYY",
"YYYYYYAmmmDYYYYY",
"YYYYHmjhjjlVKYYY",
"YYYGjttxSjttxKYY",
"YYZr80lHYGd80pDY",
"Yb6:<zYYYYHp,:qZ",
"w%@%:622<255;#@*",
"5oooXXXXXoooooo;",
"bupdds*X.+;sddtv",
"YYYYYK5+ &wYYYYY",
"YYYYYYh656hYYYYY",
"YYYYYYYHKHYYYYYY",
"YYYYYYYYYYYYYYYY",
"YYYYYYYYYYYYYYYY",
"YYYYYYYYYYYYYYYY"
};
