/* XPM */
const char *icon_translate_down[] = {
/* columns rows colors chars-per-pixel */
"16 16 64 1",
"  c black",
". c #010101",
"X c gray1",
"o c #040404",
"O c gray2",
"+ c #060606",
"@ c #090909",
"# c gray4",
"$ c #0E0E0E",
"% c #101010",
"& c #111111",
"* c #161616",
"= c gray9",
"- c #181818",
"; c gray10",
": c #1B1B1B",
"> c gray11",
", c #222222",
"< c #232323",
"1 c #272727",
"2 c gray17",
"3 c #2F2F2F",
"4 c gray20",
"5 c #393939",
"6 c gray25",
"7 c #434343",
"8 c #464646",
"9 c gray34",
"0 c #585858",
"q c #5F5F5F",
"w c gray40",
"e c #686868",
"r c gray44",
"t c #717171",
"y c gray49",
"u c gray52",
"i c gray53",
"p c #898989",
"a c gray54",
"s c #8E8E8E",
"d c gray56",
"f c #909090",
"g c #989898",
"h c gray60",
"j c #9A9A9A",
"k c #9B9B9B",
"l c gray66",
"z c gray72",
"x c #C0C0C0",
"c c #C3C3C3",
"v c #C6C6C6",
"b c gray83",
"n c #E4E4E4",
"m c gray90",
"M c #E7E7E7",
"N c gray91",
"B c #ECECEC",
"V c #EEEEEE",
"C c #EFEFEF",
"Z c #F1F1F1",
"A c #F9F9F9",
"S c gray99",
"D c #FEFEFE",
"F c none",
/* pixels */
"FFFFBiyyyiBFFFFF",
"FFFFNy2=2yNFFFFF",
"FFFFNy= =yMFFFFF",
"FZBFNy= =yNFMAFF",
"c1<q03&@$400=<pF",
"cO            9F",
"A7 4hhhhhhp- 9cF",
"Fc-OlFFFFFt 5MFF",
"FFt 5ZFFFb>@lFFF",
"FFb-@gFFAw 5ZFFF",
"FFFi 3MFc$$zFFFF",
"FFFM2 dA9 9AFFFF",
"FFFFd <f@&cFFFFF",
"FFFFB7 > tAFFFFF",
"FFFFFlO =bFFFFFF",
"FFFFFZw8pFFFFFFF"
};
