/* XPM */
const char *icon_translate_out[] = {
/* columns rows colors chars-per-pixel */
"16 16 64 1",
"  c gray34",
". c #585858",
"X c #5B5B5B",
"o c gray38",
"O c gray40",
"+ c #6F6F6F",
"@ c gray46",
"# c gray47",
"$ c #7E7E7E",
"% c #808080",
"& c #888888",
"* c #8E8E8E",
"= c gray56",
"- c gray58",
"; c #979797",
": c #989898",
"> c gray60",
", c #9B9B9B",
"< c #A2A2A2",
"1 c #A4A4A4",
"2 c #A5A5A5",
"3 c gray65",
"4 c #A7A7A7",
"5 c gray67",
"6 c gray68",
"7 c #AEAEAE",
"8 c #AFAFAF",
"9 c gray69",
"0 c #B4B4B4",
"q c gray71",
"w c #B7B7B7",
"e c #BBBBBB",
"r c #BCBCBC",
"t c gray74",
"y c #C0C0C0",
"u c #C1C1C1",
"i c gray76",
"p c #C3C3C3",
"a c #C6C6C6",
"s c #C8C8C8",
"d c gray79",
"f c #CACACA",
"g c gray80",
"h c #CDCDCD",
"j c #CECECE",
"k c gray81",
"l c gray82",
"z c #D8D8D8",
"x c gray85",
"c c #E2E2E2",
"v c #E4E4E4",
"b c #EAEAEA",
"n c #ECECEC",
"m c #EFEFEF",
"M c gray94",
"N c #F1F1F1",
"B c #F4F4F4",
"V c #F6F6F6",
"C c #F8F8F8",
"Z c #F9F9F9",
"A c gray98",
"S c gray99",
"D c #FDFDFD",
"F c none",
/* pixels */
"FFFFFFFFFFFFFFFF",
"FFFFFFFFFFFFFFFF",
"FFFFFFFVNVAFFFFF",
"FFFFFFzyyyzFFFFF",
"FFFFFFdyyylFFFFF",
"j88985:::::8998j",
"8%%%%$%$%%%%%$$2",
"z522ejjjjjjdq22t",
"Fmt<2dAFFFNe<2dA",
"FFNq-*8NFc<*-yAF",
"FFFV8@@:t&@$pFFF",
"FFFFAqXXXX+jFFFF",
"FFFFFF9 OOjFFFFF",
"FFFFFFFvbbFFFFFF",
"FFFFFFFFFFFFFFFF",
"FFFFFFFFFFFFFFFF"
};
