/* XPM */
const char *icon_traj_playpause[] = {
/* columns rows colors chars-per-pixel */
"16 16 58 1",
"  c gray1",
". c #090909",
"X c gray5",
"o c gray6",
"O c gray8",
"+ c #181818",
"@ c #191919",
"# c gray10",
"$ c gray11",
"% c #1E1E1E",
"& c #252525",
"* c #272727",
"= c gray18",
"- c gray19",
"; c #3A3A3A",
": c gray25",
"> c gray28",
", c gray30",
"< c #505050",
"1 c #555555",
"2 c #585858",
"3 c #5A5A5A",
"4 c #5D5D5D",
"5 c #606060",
"6 c #656565",
"7 c gray40",
"8 c gray42",
"9 c #727272",
"0 c #767676",
"q c #898989",
"w c gray56",
"e c #989898",
"r c gray63",
"t c gray66",
"y c #A9A9A9",
"u c #AAAAAA",
"i c gray67",
"p c #ACACAC",
"a c #B7B7B7",
"s c gray73",
"d c #C0C0C0",
"f c #C3C3C3",
"g c #CACACA",
"h c #CECECE",
"j c gray81",
"k c #D0D0D0",
"l c gray82",
"z c #D2D2D2",
"x c gray84",
"c c gray87",
"v c gray89",
"b c #E4E4E4",
"n c #E6E6E6",
"m c #EEEEEE",
"M c gray94",
"N c #F9F9F9",
"B c gray99",
"V c none",
/* pixels */
"VVVVVVVVVVVVVVVV",
"VVMNVVVVVVVVVVVV",
"Vx*<lVVVVVVv9g9v",
"VjO;&wmVVVVl#t#l",
"Vl#fw*>fVVVl#t%l",
"Vl#s8a4%0bVl#p#l",
"Vl#r.<lt==tl#p#l",
"Vl#tXXOtt*1j#t#l",
"Vl#4 :5,%2ll#p#l",
"Vl#66e-=tNVl#t#l",
"Vl#t2%0vVVVl#p#l",
"VgX%>fVVVVVl#p#l",
"Vb2qmVVVVVVmtctm",
"VVVVVVVVVVVVVVVV",
"VVVVVVVVVVVVVVVV",
"VVVVVVVVVVVVVVVV"
};
