/* XPM */
const char *icon_select_expand[] = {
/* columns rows colors chars-per-pixel */
"24 24 101 2",
"   c gray7",
".  c gray8",
"X  c gray9",
"o  c #17171A",
"O  c gray10",
"+  c #1B1B1B",
"@  c #1D1D1D",
"#  c #232323",
"$  c gray15",
"%  c gray17",
"&  c gray22",
"*  c #3A3A3A",
"=  c gray23",
"-  c #2B2B72",
";  c #414141",
":  c #656565",
">  c #6A6A6A",
",  c #6A6A6B",
"<  c #7B7B7B",
"1  c #1717A8",
"2  c #565689",
"3  c #4747A6",
"4  c #1F1FEE",
"5  c #1A1AF6",
"6  c #1B1BFF",
"7  c #2121FF",
"8  c #2222FF",
"9  c #2626FE",
"0  c #2626FF",
"q  c #5A5AE3",
"w  c #4242FF",
"e  c #5151FF",
"r  c #5E5EFF",
"t  c #6969EE",
"y  c #6161FF",
"u  c #6565FF",
"i  c #6E6EFF",
"p  c #7070FE",
"a  c #7C7CFF",
"s  c #868686",
"d  c #8E8E8E",
"f  c gray59",
"g  c #92929A",
"h  c #9B9B9B",
"j  c gray62",
"k  c #9D9DA1",
"l  c gray66",
"z  c #B1B1B1",
"x  c #B2B2B2",
"c  c gray74",
"v  c #B6B6D1",
"b  c #8F8FE3",
"n  c #9292F6",
"m  c #9090FF",
"M  c #9797FF",
"N  c #A1A1FF",
"B  c #AFAFFF",
"V  c #C0C0C0",
"C  c gray77",
"Z  c gray78",
"A  c #C8C8C8",
"S  c gray79",
"D  c #CACACA",
"F  c #CECECE",
"G  c gray81",
"H  c #CECED1",
"J  c #D0D0D0",
"K  c gray82",
"L  c LightGray",
"P  c gray83",
"I  c #D7D7D7",
"U  c #D8D8D8",
"Y  c gray85",
"T  c gray86",
"R  c gainsboro",
"E  c gray87",
"W  c #DFDFDF",
"Q  c #C0C0FF",
"!  c #D7D7FF",
"~  c #DEDEFF",
"^  c gray89",
"/  c #E4E4E4",
"(  c #E6E6E6",
")  c gray91",
"_  c gray92",
"`  c #EEEEEE",
"'  c #EFEFEF",
"]  c gray94",
"[  c gray95",
"{  c gray96",
"}  c gray97",
"|  c #F2F2FF",
" . c #F7F7FF",
".. c #F9F9FF",
"X. c #FBFBFF",
"o. c gray99",
"O. c #FDFDFD",
"+. c #FCFCFF",
"@. c #FEFEFE",
"#. c #FEFEFF",
"$. c none",
/* pixels */
"$.$.$.{ { $.$.$.$.$.$.$.$.$.$.$.$.$.$.$.{ { $.$.",
"$.$.T Z A ( $.$.$.$.$.$.$.$.$.$.$.$.o.T A A ( $.",
"$.T A _ ^ Z ( $.$.$.$.$.$.$.$.$.$.$.T A ` ^ Z ( ",
"{ Z _ $.$.E G $.$.$.$.$.$.$.$.$.$.{ Z _ $.$.E L ",
"{ A ^ $.o.I z G G L ^ $.$.$.$.^ L A j Z $.$.I L ",
"$.( Z E I c % # = = s $.$.$.$.s = &   X C I A [ ",
"$.$.( T T L ; X d ` { $.$.$.$.{ ( : @   l T ` $.",
"$.$.$.$.$.G O < O f $.X.~ ~ $.[ > $ h O L $.$.$.",
"$.$.$.$.$.L O G f O g i 7 7 n > $ c L O H $.$.$.",
"$.$.$.$.$.J O J $.k 3 9 B m 5 2 c $.` l ` $.$.$.",
"$.$.$.$.$.` l ` $.! 6 B $.$.a w  .$.$.$.$.$.$.$.",
"$.$.$.$.$.$.$.$.$.~ 7 m X.| r e X.$.$.$.$.$.$.$.",
"$.$.$.$.$.$.$.$.$.$.M 6 a r 9 B $.$.$.$.$.$.$.$.",
"$.$.$.$.$.$.$.$.$.$.X.b - q Q $.$.$.$.$.$.$.$.$.",
"$.$.$.$.$.$.$.$.$.$.$.L O J $.$.$.$.$.$.$.$.$.$.",
"$.$.$.$.$.$.$.$.$.$.$.J O L $.$.$.$.$.$.$.$.$.$.",
"$.$.$.$.$.$.$.$.$.$.$.L O G $.$.$.$.$.$.$.$.$.$.",
"$.$.$.$.$.$.$.$.$.$.$.H o v $.$.$.$.$.$.$.$.$.$.",
"$.$.$.$.$.$.$.$.$.$.| t 1 4 M $.$.$.$.$.$.$.$.$.",
"$.$.$.$.$.$.$.$.$.X.i 9 B m 6 N $.$.$.$.$.$.$.$.",
"$.$.$.$.$.$.$.$.$.! 6 B $.$.a w  .$.$.$.$.$.$.$.",
"$.$.$.$.$.$.$.$.$.~ 6 m X.| r r X.$.$.$.$.$.$.$.",
"$.$.$.$.$.$.$.$.$.$.M 6 a r 9 Q $.$.$.$.$.$.$.$.",
"$.$.$.$.$.$.$.$.$.$.$.N y u B $.$.$.$.$.$.$.$.$."
};
