/* XPM */
const char *xpm_select_element[] = {
/* columns rows colors chars-per-pixel */
"24 24 154 2",
"   c gray4",
".  c gray9",
"X  c gray10",
"o  c gray11",
"O  c #272727",
"+  c #2A2A2A",
"@  c #2F2F2F",
"#  c #373737",
"$  c gray22",
"%  c #393939",
"&  c #397913",
"*  c gray33",
"=  c gray34",
"-  c #585858",
";  c gray40",
":  c #6D6D6D",
">  c #767676",
",  c #4D4DFF",
"<  c #5050FF",
"1  c #5151FF",
"2  c #5252FF",
"3  c #5353FF",
"4  c #6161FF",
"5  c #6464FF",
"6  c #6666FF",
"7  c #18830F",
"8  c #198310",
"9  c #1A8311",
"0  c #188714",
"q  c #188B17",
"w  c #188B18",
"e  c #188C18",
"r  c #188D18",
"t  c #198D19",
"y  c #1A8C1A",
"u  c #1A8D1A",
"i  c #189618",
"p  c #1A951A",
"a  c #1E9119",
"s  c #2C952C",
"d  c #21B713",
"f  c #19C215",
"g  c #1AC216",
"h  c #18C318",
"j  c #19C619",
"k  c #1AC61A",
"l  c #3ACB38",
"z  c #3ACE3A",
"x  c #3BCE3B",
"c  c #40BD2E",
"v  c #40D040",
"b  c #C33314",
"n  c #DB3623",
"m  c #FF1010",
"M  c #FF1111",
"N  c #FF1616",
"B  c #FF1717",
"V  c #FF1818",
"C  c #FF1919",
"Z  c #FF1A1A",
"A  c #FF2525",
"S  c #FF2828",
"D  c #FF2A2A",
"F  c #FF2B2B",
"G  c #FF2C2C",
"H  c #FF7C7C",
"J  c #8B8B8B",
"K  c #8D8D8D",
"L  c #929292",
"P  c #959595",
"I  c #9D9D9D",
"U  c gray62",
"Y  c #A0A0A0",
"T  c gray63",
"R  c #A4A4A4",
"E  c gray65",
"W  c gray67",
"Q  c gray71",
"!  c gray72",
"~  c #A8A8FF",
"^  c #BFBFFF",
"/  c #A1D1A1",
"(  c #AAD5AA",
")  c #A1E5A1",
"_  c #AAEAAA",
"`  c #D1A28B",
"'  c #DFA189",
"]  c #FF8787",
"[  c #FF8888",
"{  c #FF8B8B",
"}  c #FF8D8D",
"|  c #FF9999",
" . c #FF9B9B",
".. c #FF9D9D",
"X. c #FF9E9E",
"o. c #FFA0A0",
"O. c #FFAAAA",
"+. c #FFABAB",
"@. c #FFBCBC",
"#. c #D3C6A6",
"$. c #D1C2AB",
"%. c #D1D1AF",
"&. c #D1E1BE",
"*. c gray80",
"=. c gray82",
"-. c #D5D5D5",
";. c gray84",
":. c #C1C1FF",
">. c #C6C6FF",
",. c #CECEFF",
"<. c #D0D0FF",
"1. c #D2D2FF",
"2. c #DDDDFF",
"3. c #C6E3C6",
"4. c #C6EEC6",
"5. c #D1E8D1",
"6. c #DFEFDF",
"7. c #D1F4D1",
"8. c #FFC3C3",
"9. c #FFC6C6",
"0. c #FFCACA",
"q. c #FFD1D1",
"w. c #FFD5D5",
"e. c #FFDCDC",
"r. c #FFDFDF",
"t. c #E4E4E4",
"y. c #E7E7E7",
"u. c gray91",
"i. c #EEEEEE",
"p. c #EFEFEF",
"a. c #E0E0FF",
"s. c #E1E1FF",
"d. c #E7E7FF",
"f. c #EAEAFF",
"g. c #EBEBFF",
"h. c #FFE8E8",
"j. c #FFEFEF",
"k. c #F4F7EF",
"l. c gray94",
"z. c #F6F6F6",
"x. c gray97",
"c. c #F4F4FF",
"v. c #F7F7FF",
"b. c #F2FCF2",
"n. c #F4FCF4",
"m. c #FFF4F4",
"M. c #F9F9F9",
"N. c gray98",
"B. c #FFF9F9",
"V. c snow",
"C. c gray99",
"Z. c #FCFCFF",
"A. c #FEFEFE",
"S. c none",
/* pixels */
"S.S.S.S.S.S.S.S.S.S.S.S.S.S.S.S.S.S.S.S.S.S.S.S.",
"p.u.u.u.p.S.S.S.S.S.S.S.S.S.S.S.S.S.S.S.S.S.S.S.",
"P K K K P p.S.S.S.S.l.S.S.S.S.S.S.S.S.S.S.S.S.S.",
"K -.u.-.K u.S.S.S.-.O R S.S.S.S.S.S.S.S.S.S.S.S.",
"K u.S.u.K u.S.S.S.*.  @ y.S.S.S.S.S.S.S.S.S.S.S.",
"K -.y.-.K u.S.S.S.=.. O > N.S.S.S.S.S.S.S.S.S.S.",
"Y I I I Y p.S.S.S.=.X J o ! S.S.S.S.S.S.S.S.S.S.",
"N.N.N.N.N.S.S.S.S.=.X *.; $ y.S.S.S.S.S.S.S.S.S.",
"d.2.2.2.d.S.S.S.S.=.. W Q O : S.S.S.S.6.5.5.5.6.",
"4 3 3 2 4 d.S.S.S.p.= # # + = S.S.S.6.s u u e s ",
"3 ^ 2.^ 2 2.S.S.S.S.z.t.* L z.S.S.S.5.u ( 5.( u ",
"3 2.S.2.2 2.S.S.S.S.S.S.Y R S.S.S.S.5.u 5.S.5.u ",
"2 ~ ^ ~ 2 2.S.r.q.q.q.8.q.q.q.8.q.q.$.q ( 5.( e ",
"2 , , , 2 1.r.F Z Z B B B Z B B B Z b 0 w u u q ",
"2 ^ 2.^ 2 2.q.B +.q.{ m +.q.{ m +.q.` 7 / 3./ u ",
"2 2.S.2.2 2.q.Z q.S.+.m q.S.+.m q.S.$.9 5.S.5.u ",
"2 ^ 2.^ 2 2.q.Z +.0.} m +.q.{ m +.q.` 7 ( 5.( t ",
"6 6 4 6 6 s.q.F F F A B A F A B A F n & u p p i ",
"^ s.g.s.^ c.h.] 0.r.@.H 0.r.@.H 0.r.#.d ) 4.) f ",
">.c.S.c.>.c.h.} h.S.w.] h.S.w.] h.S.&.f 7.S.7.k ",
">.d.c.d.>.c.h.} w.h.9.] w.h.9.] w.h.%.f _ 7._ k ",
"1.,.,.,.1.c.j.o.....| } | ..| } | ..' c l l x v ",
"S.Z.Z.Z.S.S.S.V.V.V.V.m.V.V.V.m.V.V.V.k.b.b.b.n.",
"S.S.S.S.S.S.S.S.S.S.S.S.S.S.S.S.S.S.S.S.S.S.S.S."
};
